<svg width="118" height="122" viewBox="0 0 118 122" fill="none" xmlns="http://www.w3.org/2000/svg">
<circle r="51.3545" transform="matrix(-1 0 0 1 51.5085 70.6455)" fill="#E6EAF7"/>
<mask id="mask0" style="mask-type:alpha" maskUnits="userSpaceOnUse" x="0" y="-5" width="111" height="127">
<path fill-rule="evenodd" clip-rule="evenodd" d="M111 -5H0V71H0.155139C0.200853 77.6234 1.52746 84.1766 4.06305 90.2981C6.64385 96.5287 10.4266 102.19 15.1953 106.959C19.964 111.727 25.6253 115.51 31.8559 118.091C38.0865 120.672 44.7645 122 51.5084 122C58.2524 122 64.9304 120.672 71.161 118.091C77.3916 115.51 83.0529 111.727 87.8216 106.959C92.5903 102.19 96.373 96.5287 98.9538 90.2981C101.489 84.1766 102.816 77.6234 102.862 71H111V-5Z" fill="#ffffff"/>
</mask>
<g mask="url(#mask0)">
<path d="M34.5745 6.28625C39.0055 6.3534 43.3016 7.82087 46.8477 10.4785C50.3939 13.1362 53.0081 16.8478 54.3162 21.0819C55.5612 25.4566 55.3139 30.1127 56.1155 34.5983C56.9171 39.0839 59.177 43.7741 63.4323 45.3944C66.2038 46.4433 69.4017 46.0084 72.1306 47.0999C73.4142 47.6143 74.5481 48.4427 75.4286 49.509C76.309 50.5753 76.9078 51.8456 77.17 53.2033C77.4322 54.5611 77.3495 55.9629 76.9294 57.2804C76.5094 58.5979 75.7654 59.7889 74.7657 60.7443C76.4514 62.1967 77.5815 64.1885 77.9634 66.3806C78.3454 68.5727 77.9555 70.8294 76.8604 72.7663C75.7652 74.7032 74.0324 76.2006 71.9571 77.0033C69.8819 77.806 67.5925 77.8645 65.479 77.1687C67.0566 79.727 66.5364 83.1381 64.6859 85.4747C62.7155 87.7398 59.9355 89.142 56.9427 89.3804C53.9799 89.6022 51.0007 89.3343 48.125 88.5873C41.661 87.1546 35.18 84.8521 30.3192 80.358C24.9893 75.429 22.1667 68.4192 20.0262 61.4521C15.95 48.1915 13.7754 33.9075 17.1097 20.4423" fill="#2D2F34"/>
<path d="M61.2854 82.6337C62.8081 81.3955 65.09 81.9287 65.9063 83.7134L68.7434 89.9159C69.8137 92.2559 73.1401 92.2509 74.2034 89.9076L87.112 61.4597C87.1813 61.3071 87.2376 61.149 87.2804 60.9871C88.0056 58.2446 88.7986 55.2428 88.9643 54.6299C89.2178 53.6596 89.3072 52.6536 89.2286 51.6538C89.1764 50.4123 88.9525 49.184 88.5635 48.0039C88.0944 46.955 89.1434 45.889 90.0473 46.4007C90.9512 46.9124 92.3071 49.8118 92.2645 53.4531C92.2277 56.5954 101.666 50.5487 105.574 50.1584C106.494 50.0665 106.89 50.9962 106.775 51.9134L105.561 61.5595C105.472 62.2664 105.134 62.9186 104.606 63.3961C103.012 64.8354 100.317 67.2434 98.4551 68.897C98.1072 69.2061 97.8366 69.5906 97.6631 70.0224L83.0887 106.291C82.2572 108.564 80.7924 110.551 78.8674 112.017C76.9424 113.484 74.6377 114.368 72.2259 114.567C69.814 114.765 67.3958 114.268 65.2572 113.136C63.1186 112.003 61.349 110.282 60.1576 108.176L51.8501 93.5317C51.1273 92.2577 51.4302 90.648 52.5667 89.7238L61.2854 82.6337Z" fill="#FFBE9D"/>
<path d="M97.628 39.2544C97.566 39.2322 97.5 39.2234 97.4343 39.2284C97.3686 39.2335 97.3047 39.2523 97.2468 39.2837C97.1889 39.315 97.1382 39.3583 97.0981 39.4105C97.058 39.4628 97.0293 39.5229 97.014 39.587L88.853 63.8142C88.7759 64.0259 88.7728 64.2574 88.844 64.471C88.9152 64.6847 89.0566 64.868 89.2453 64.9911L98.9327 70.4232C99.0308 70.4742 99.1391 70.5027 99.2495 70.5065C99.36 70.5103 99.47 70.4894 99.5713 70.4452C99.6727 70.4011 99.7629 70.3349 99.8354 70.2514C99.9078 70.1679 99.9607 70.0693 99.9902 69.9627L109.166 44.8827C109.258 44.6567 109.26 44.4042 109.173 44.1763C109.086 43.9484 108.916 43.762 108.697 43.6547L97.628 39.2544Z" fill="#2D2F34"/>
<path d="M97.3634 41.0367L89.859 62.646L99.4527 67.7626L107.699 45.1386L97.3634 41.0367Z" fill="#FAFAFC"/>
<path d="M105.866 46.6054C105.576 47.3473 105.098 48.5412 104.8 49.2831C104.765 49.3704 104.714 49.4498 104.648 49.5166C104.582 49.5835 104.503 49.6364 104.417 49.6722C104.33 49.708 104.237 49.726 104.143 49.725C104.049 49.7241 103.956 49.7044 103.87 49.6669L98.7537 47.5264L96.9885 47.7822L97.4831 46.8527L96.9032 46.6139C96.8159 46.5794 96.7365 46.5277 96.6697 46.4618C96.6029 46.396 96.55 46.3173 96.5142 46.2306C96.4783 46.1439 96.4604 46.0508 96.4613 45.957C96.4622 45.8631 96.482 45.7705 96.5195 45.6844L97.5598 43.254C97.633 43.0851 97.7699 42.9518 97.9407 42.8832C98.1115 42.8145 98.3026 42.816 98.4723 42.8873L105.448 45.7015C105.536 45.7319 105.617 45.7797 105.686 45.842C105.755 45.9044 105.81 45.9801 105.849 46.0645C105.888 46.1489 105.91 46.2403 105.913 46.3333C105.916 46.4262 105.9 46.5188 105.866 46.6054V46.6054Z" fill="#E0E0E0"/>
<path d="M101.542 59.3798L100.476 62.049C100.442 62.1352 100.39 62.2137 100.325 62.2798C100.26 62.3459 100.182 62.3983 100.096 62.4341C100.011 62.4698 99.9187 62.4881 99.8259 62.4878C99.733 62.4876 99.6411 62.4689 99.5555 62.4328L94.4389 60.2923L92.6736 60.5481L93.1682 59.6186L92.5883 59.3798C92.5011 59.3453 92.4217 59.2936 92.3549 59.2277C92.288 59.1619 92.2351 59.0832 92.1993 58.9965C92.1635 58.9097 92.1455 58.8167 92.1464 58.7229C92.1473 58.629 92.1671 58.5363 92.2046 58.4503L93.245 56.0284C93.2796 55.9443 93.3304 55.8679 93.3946 55.8035C93.4588 55.7391 93.5351 55.688 93.619 55.6531C93.703 55.6183 93.7931 55.6003 93.884 55.6003C93.9749 55.6004 94.065 55.6183 94.1489 55.6532L101.133 58.4674C101.221 58.4995 101.301 58.5488 101.369 58.6124C101.437 58.6759 101.492 58.7525 101.53 58.8375C101.568 58.9225 101.589 59.0142 101.591 59.1074C101.593 59.2005 101.577 59.2932 101.542 59.3798Z" fill="#E0E0E0"/>
<path d="M95.573 49.6241C95.2489 50.3489 94.7202 51.5343 94.4132 52.2591C94.3755 52.3446 94.3553 52.4368 94.3538 52.5302C94.3523 52.6237 94.3696 52.7165 94.4046 52.8031C94.4396 52.8898 94.4915 52.9685 94.5575 53.0347C94.6234 53.101 94.7019 53.1533 94.7884 53.1886L99.9051 55.3206L100.954 56.7618L101.278 55.747L101.849 56.0028C101.935 56.0393 102.027 56.0586 102.12 56.0595C102.213 56.0604 102.306 56.0429 102.392 56.0081C102.478 55.9732 102.557 55.9217 102.623 55.8564C102.69 55.7911 102.743 55.7133 102.779 55.6276L103.785 53.1801C103.854 53.0091 103.853 52.8181 103.783 52.6477C103.713 52.4774 103.579 52.341 103.41 52.2677L96.511 49.2659C96.4262 49.2263 96.3342 49.2042 96.2406 49.2009C96.147 49.1975 96.0537 49.213 95.9662 49.2464C95.8787 49.2798 95.7988 49.3305 95.7313 49.3954C95.6637 49.4602 95.6099 49.538 95.573 49.6241V49.6241Z" fill="#E0E0E0"/>
<path d="M106.958 51.0653C105.312 51.3382 103.291 51.5002 101.645 51.7731C101.17 51.8141 100.712 51.966 100.306 52.2165C100.11 52.3495 99.966 52.5458 99.8977 52.7725C99.8294 52.9992 99.8411 53.2425 99.9309 53.4616C100.195 53.9392 100.843 53.9733 101.389 53.9562C102.6 53.9562 103.947 54.1779 105.158 54.1353C103.606 54.2717 102.174 54.3996 100.443 54.6043C100.075 54.64 99.7306 54.7996 99.4656 55.0568C99.2006 55.314 99.0309 55.6536 98.9843 56.0199C99.0113 56.3298 99.1466 56.6202 99.3665 56.8401C99.5865 57.0601 99.8769 57.1954 100.187 57.2223C100.823 57.2663 101.461 57.2663 102.097 57.2223C102.097 57.2223 104.596 57.2223 104.706 57.5805C103.146 57.5805 101.091 57.9045 99.5301 58.0495C99.1037 58.0495 98.9161 58.6635 98.8138 59.0814C98.7519 59.2866 98.7621 59.5068 98.8428 59.7054C98.9234 59.904 99.0697 60.069 99.2572 60.1729C99.455 60.238 99.664 60.2612 99.8712 60.2411C101.892 60.1814 102.941 60.3094 104.988 60.2411" fill="#FFBE9D"/>
<path d="M69.5295 107.127C69.3728 105.178 69.4415 103.218 69.7342 101.285C70.1744 99.3784 70.8355 97.5296 71.7041 95.7761C71.2911 96.1955 70.9536 96.6831 70.7064 97.2173C70.0384 98.4659 69.564 99.8087 69.2993 101.2C69.024 102.604 68.9693 104.043 69.1373 105.464C69.1685 106.037 69.3013 106.6 69.5295 107.127V107.127Z" fill="#EB996E"/>
<path d="M99.1545 58.3054C100.332 58.3915 101.515 58.3285 102.676 58.1178C103.64 58.024 104.527 57.8278 105.115 57.8278C105.441 57.8484 105.758 57.9386 106.045 58.0922C106.045 58.0922 106.045 57.9728 105.891 57.8364C105.682 57.6523 105.419 57.5415 105.141 57.5208C104.299 57.4951 103.457 57.5465 102.625 57.6743C101.447 57.7426 100.281 57.9545 99.1545 58.3054V58.3054Z" fill="#EB996E"/>
<path d="M99.7086 54.7663C100.874 54.8529 102.046 54.7927 103.196 54.5872C104.152 54.4934 105.03 54.2887 105.601 54.3058C106.173 54.3228 106.454 54.6554 106.505 54.6042C106.556 54.5531 106.343 54.1182 105.652 53.9988C105.273 53.9475 104.889 53.9475 104.51 53.9988L103.162 54.1438C101.99 54.2065 100.829 54.4156 99.7086 54.7663V54.7663Z" fill="#EB996E"/>
<path d="M48.6703 58.331C48.6703 58.331 58.7927 80.5798 58.1958 84.3576C57.5988 88.1354 54.6397 103.212 54.6397 103.212L52.4993 127.738C52.4993 127.738 14.2695 123.108 13.4764 123.108C12.6834 123.108 14.6703 102.82 14.6703 102.82L8.84587 63.8314C8.84587 63.8314 11.5151 58.5186 23.5562 56.6766C30.7621 55.5595 48.6703 58.331 48.6703 58.331Z" fill="#0031B2"/>
<path d="M20.7251 88.3144C20.2372 92.2808 19.0139 96.1214 17.1179 99.6392C16.3845 100.961 15.7023 102.82 14.4913 103.724C12.5982 105.148 9.87784 103.809 8.16377 102.18C6.44969 100.552 4.71003 98.488 2.34785 98.4027C0.838447 98.3515 -0.560086 99.1361 -2.03538 99.4516C-3.51068 99.7671 -5.44647 99.2811 -5.76199 97.8143C-5.85712 96.9479 -5.65246 96.0751 -5.18211 95.3413C-1.5645 88.1536 1.20568 80.5699 3.07271 72.7428C3.85991 70.5198 4.8654 68.3803 6.07446 66.3555C6.92724 64.9144 9.12741 62.8251 11.2935 61.0684" fill="#0031B2"/>
<path d="M41.4556 56.8557C51.9788 57.2224 59.867 64.181 62.1098 69.1953C64.7448 75.0795 66.7915 82.1916 69.8785 87.854C70.5715 88.9083 71.1086 90.0572 71.4732 91.2651C71.6435 91.8766 71.6237 92.5255 71.4166 93.1256C71.2095 93.7257 70.8247 94.2486 70.3135 94.625C68.7273 95.563 66.4248 94.3436 64.9666 95.4777C64.165 96.0917 63.9262 97.1833 63.261 97.9508C62.4083 98.8633 61.0694 99.0509 59.8499 99.1873L52.7463 99.9548" fill="#0031B2"/>
<path d="M23.0872 78.5673C23.2594 78.3016 23.3969 78.015 23.4965 77.7145C23.8012 76.9142 24.013 76.0816 24.1276 75.2329C24.5449 72.3944 23.9691 69.4989 22.4976 67.036C21.0261 64.5732 18.7491 62.694 16.0518 61.7165C15.2505 61.4187 14.418 61.2128 13.5702 61.1025C13.2594 61.0539 12.943 61.0539 12.6322 61.1025C13.7576 61.3369 14.8637 61.6562 15.9409 62.0576C18.5256 63.0737 20.7003 64.9181 22.1246 67.3022C23.5488 69.6864 24.1423 72.4755 23.812 75.2329C23.649 76.36 23.4068 77.4742 23.0872 78.5673V78.5673Z" fill="#2D2F34"/>
<path d="M51.9881 69.8521C52.1358 70.2375 52.3184 70.6086 52.5339 70.9606C52.73 71.3103 52.9603 71.7367 53.1905 72.2483C53.4208 72.76 53.7278 73.3228 53.9922 73.9539C54.6484 75.4763 55.2039 77.0403 55.6551 78.6356C56.1963 80.5927 56.5868 82.5883 56.8233 84.605C57.0351 86.6215 57.0978 88.651 57.011 90.6767C56.928 92.3304 56.7371 93.9769 56.4396 95.6058C56.3287 96.305 56.1667 96.919 56.0473 97.4733C55.9279 98.0276 55.8 98.4881 55.6892 98.8719C55.5632 99.2645 55.4691 99.6666 55.4077 100.074C55.5961 99.7064 55.7475 99.3208 55.8597 98.923C56.0258 98.4674 56.1682 98.0034 56.2861 97.533C56.4311 96.9872 56.6187 96.3647 56.7466 95.6654C57.0917 94.0268 57.3168 92.3652 57.4203 90.6938C57.6767 86.5912 57.212 82.4754 56.0473 78.5333C55.5733 76.928 54.9804 75.3602 54.2736 73.843C54.0184 73.2604 53.7338 72.6912 53.4208 72.1375C53.2022 71.704 52.9602 71.2827 52.6959 70.8754C52.4922 70.5131 52.2553 70.1705 51.9881 69.8521V69.8521Z" fill="#2D2F34"/>
<path d="M-5.14008 94.8041C-5.14008 94.8041 -5.14008 94.8979 -5.0548 95.0514C-4.93325 95.2753 -4.76795 95.4725 -4.56871 95.6313C-3.7897 96.1756 -2.82843 96.3929 -1.89102 96.2368C-0.697142 96.1003 0.539385 95.384 1.98057 95.1281C2.7677 95.0276 3.56733 95.1023 4.32218 95.3471C5.07702 95.5918 5.76839 96.0004 6.34676 96.5437C7.68561 97.6182 8.77717 98.923 10.0649 99.8013C10.662 100.244 11.3399 100.565 12.0603 100.748C12.6916 100.874 13.337 100.914 13.9791 100.867C14.9071 100.826 15.8101 100.554 16.6056 100.074C16.8171 99.9317 17.0042 99.756 17.1599 99.554C17.2509 99.4062 17.2935 99.3295 17.2878 99.3238C17.0463 99.5441 16.7867 99.7438 16.5118 99.9207C15.7195 100.327 14.8437 100.543 13.9535 100.552C13.3436 100.575 12.7332 100.521 12.1371 100.39C11.4678 100.202 10.84 99.8894 10.2866 99.4687C9.07563 98.616 8.00966 97.3112 6.61112 96.1941C5.93185 95.6396 5.16532 95.2016 4.34274 94.8979C3.55692 94.6229 2.71166 94.564 1.89529 94.7273C0.360298 95.0599 -0.842111 95.7677 -1.94219 95.9212C-2.8183 96.1028 -3.73066 95.9508 -4.5005 95.4948C-4.74577 95.2965 -4.96118 95.0639 -5.14008 94.8041Z" fill="#2D2F34"/>
<path d="M-2.70047 89.8154C-2.69964 89.8985 -2.6792 89.9804 -2.6408 90.0541C-2.54498 90.2704 -2.40223 90.4627 -2.22292 90.617C-1.87323 90.8845 -1.46798 91.0701 -1.03701 91.1601C-0.606043 91.2501 -0.160374 91.2423 0.267159 91.1372C1.35871 90.9581 2.48439 90.2418 3.83177 90.1735C5.32528 90.1962 6.77434 90.6852 7.97623 91.5721C9.30655 92.4675 10.4493 93.5249 11.6346 94.3265C12.6678 95.0816 13.8666 95.5787 15.131 95.7762C15.9981 95.9095 16.8851 95.7942 17.6893 95.4437C17.9856 95.3302 18.2513 95.1492 18.4653 94.9149C18.4653 94.9149 18.1754 95.0855 17.6126 95.2902C16.8334 95.5543 15.9992 95.6131 15.1907 95.4607C13.9867 95.2372 12.8528 94.7316 11.8819 93.9854C10.7392 93.1923 9.61355 92.1264 8.24059 91.2054C6.96361 90.2645 5.41792 89.7592 3.83177 89.7642C3.14727 89.8273 2.47683 89.9971 1.84479 90.2673C1.3194 90.4949 0.777827 90.683 0.224531 90.8302C-0.164629 90.941 -0.573023 90.9672 -0.973145 90.9069C-1.37327 90.8466 -1.75582 90.7012 -2.09501 90.4805C-2.32955 90.291 -2.53372 90.0666 -2.70047 89.8154Z" fill="#2D2F34"/>
<path d="M57.0448 96.2964C57.0448 96.2964 57.1983 96.5266 57.6588 96.6289C57.9806 96.6793 58.3095 96.6612 58.6239 96.576C58.9384 96.4908 59.2313 96.3403 59.4837 96.1343C60.1724 95.497 60.7138 94.7171 61.0699 93.8489C61.2548 93.3529 61.5438 92.9022 61.9174 92.5271C62.2911 92.152 62.7406 91.8612 63.2359 91.6743C64.3133 91.5034 65.4145 91.5615 66.4679 91.8449C67.3906 92.0694 68.3582 92.025 69.2565 91.717C69.5594 91.5986 69.8355 91.4206 70.0685 91.1935C70.3014 90.9665 70.4863 90.695 70.6124 90.3952C70.7744 89.9603 70.6891 89.6959 70.6721 89.7044C70.655 89.713 70.6721 89.9517 70.4589 90.3269C70.1668 90.8389 69.7008 91.2292 69.1456 91.427C68.2919 91.6636 67.3899 91.6636 66.5361 91.427C65.4273 91.1107 64.2618 91.0466 63.125 91.2394C62.5186 91.4019 61.9787 91.7509 61.5815 92.2372C61.2425 92.6738 60.9563 93.1489 60.7288 93.6528C60.4086 94.4834 59.9275 95.2427 59.3132 95.887C58.8714 96.2745 58.297 96.4761 57.71 96.4499C57.4848 96.4147 57.2625 96.3634 57.0448 96.2964V96.2964Z" fill="#2D2F34"/>
<path d="M58.3321 91.2735C58.3321 91.2735 58.5197 91.3759 58.8437 91.2735C59.2912 91.1017 59.6671 90.783 59.9097 90.3696C60.1826 89.8005 60.5719 89.295 61.0524 88.8858C61.7564 88.575 62.5469 88.5207 63.2867 88.7323C64.1075 88.9073 64.956 88.9073 65.7768 88.7323C66.4499 88.5753 67.0849 88.2854 67.6444 87.8795C68.1855 87.5544 68.6186 87.0768 68.8894 86.5065C68.8212 86.4554 68.4118 87.0438 67.4653 87.6237C66.2291 88.3674 64.7538 88.6056 63.3464 88.2888C62.5088 88.0593 61.6159 88.1474 60.8392 88.5361C60.306 88.9986 59.8933 89.584 59.6368 90.2417C59.4457 90.6189 59.1496 90.9329 58.7841 91.1456C58.5197 91.2735 58.3321 91.2735 58.3321 91.2735Z" fill="#2D2F34"/>
<path d="M28.7757 98.4369C28.7757 98.4369 28.9889 98.5051 29.3897 98.5393C29.9581 98.5856 30.5299 98.5713 31.0953 98.4966C31.9395 98.3965 32.7694 98.1991 33.5683 97.9082C34.5432 97.5464 35.471 97.0682 36.3313 96.4841C37.1819 95.8786 37.9576 95.1744 38.6423 94.3862C39.1938 93.7398 39.6662 93.0298 40.0494 92.2714C40.3192 91.7673 40.5336 91.2355 40.6889 90.6852C40.7913 90.3015 40.8424 90.0798 40.8083 90.0712C40.7742 90.0627 40.4843 90.924 39.7765 92.1264C39.3622 92.8369 38.8795 93.5052 38.3353 94.1219C37.6531 94.8635 36.8958 95.5322 36.0754 96.1174C35.2453 96.684 34.356 97.1586 33.4233 97.533C32.6535 97.8289 31.8567 98.0488 31.0441 98.1896C29.6626 98.4199 28.7757 98.3516 28.7757 98.4369Z" fill="#2D2F34"/>
<g opacity="0.3">
<path opacity="0.3" d="M40.7825 90.9922C40.2026 94.1645 38.9917 97.3283 36.6806 99.5796C34.3696 101.831 30.7965 102.991 27.7948 101.788C27.4665 101.698 27.1649 101.53 26.9155 101.299C26.6661 101.067 26.4762 100.779 26.3621 100.458C26.3242 100.068 26.4178 99.6766 26.628 99.3459C26.8381 99.0153 27.1527 98.7643 27.5219 98.633C28.272 98.3991 29.056 98.2924 29.8414 98.3175C32.0788 98.168 34.2409 97.4495 36.1228 96.2302C38.0047 95.0109 39.544 93.3312 40.5949 91.3504" fill="black"/>
</g>
<path d="M15.779 103.647C15.9433 103.383 16.0669 103.095 16.1457 102.794C16.3589 102.257 16.6488 101.473 16.9985 100.5C17.6807 98.5476 18.5591 95.8444 19.4459 92.8255C20.3328 89.8067 21.0406 87.0437 21.5182 85.0397C21.757 84.0335 21.936 83.2233 22.0469 82.652C22.1225 82.3736 22.1654 82.0875 22.1748 81.7992C22.0361 82.0682 21.9356 82.3552 21.8763 82.652C21.6887 83.3001 21.467 84.0761 21.2112 84.9971C20.6654 86.984 19.8979 89.7215 19.0196 92.7403C18.1412 95.7591 17.314 98.4709 16.7 100.415C16.4271 101.328 16.1883 102.121 15.9922 102.752C15.8883 103.041 15.8167 103.342 15.779 103.647V103.647Z" fill="#2D2F34"/>
<path d="M54.2732 128.062C54.2732 128.062 46.9052 120.165 40.4583 118.613C34.0113 117.061 10.9183 108.9 10.9183 108.9L12.3765 104.304C10.8907 104.146 9.51233 103.455 8.4964 102.36L7.00405 100.876C4.97445 98.6586 2.52699 97.4647 -1.02054 98.6671L-3.25482 99.3323L-5.58288 106.154C-6.12564 107.745 -6.30963 109.437 -6.12166 111.107C-5.93369 112.778 -5.37841 114.386 -4.49565 115.816C-3.61289 117.247 -2.42451 118.464 -1.01575 119.381C0.393011 120.298 1.98724 120.892 3.65263 121.121L54.2732 128.062Z" fill="#FFBE9D"/>
<path d="M1.34188 109.881C2.86998 109.372 4.43923 108.995 6.03213 108.756C7.63055 108.659 9.23436 108.705 10.8247 108.892C9.27473 108.339 7.62044 108.141 5.9837 108.312C4.34695 108.483 2.76946 109.019 1.36746 109.881H1.34188Z" fill="#EB996E"/>
<path d="M53.1647 20.1183C53.7872 9.40747 39.8359 1.88603 30.3104 4.57226C21.3648 7.13058 17.5188 11.5479 16.0776 17.5344C14.6364 23.5209 14.6791 30.0019 17.0242 35.707C18.184 38.5126 20.2647 41.3694 23.2835 41.6764" fill="#2D2F34"/>
<path d="M24.6049 13.5435C23.849 13.6225 23.1504 13.983 22.648 14.5533C22.1456 15.1237 21.8761 15.8621 21.8931 16.622V16.622L23.5987 57.683C23.6583 62.5352 30.7449 65.2726 35.9297 65.1618C41.1743 65.0509 41.3534 62.4841 41.4301 57.8706C41.5495 50.1956 41.5495 47.2706 41.5495 47.3133C41.5495 47.3559 48.1926 46.2132 49.5229 37.549C50.2051 33.2852 49.9919 26.1986 49.6252 20.4424C49.3012 15.2576 45.8645 8.88735 40.6967 9.44165L24.6049 13.5435Z" fill="#FFBE9D"/>
<path d="M47.4258 26.0621C47.4261 26.3498 47.3154 26.6264 47.1169 26.8345C46.9183 27.0426 46.6471 27.1661 46.3598 27.1793C46.2188 27.1909 46.077 27.1741 45.9426 27.1299C45.8083 27.0857 45.6841 27.015 45.5776 26.9219C45.471 26.8289 45.3842 26.7154 45.3223 26.5883C45.2604 26.4611 45.2246 26.3228 45.2171 26.1815C45.2124 25.8918 45.3214 25.6118 45.5206 25.4014C45.7198 25.191 45.9935 25.067 46.2831 25.0559C46.4245 25.0454 46.5666 25.0634 46.701 25.1085C46.8354 25.1537 46.9594 25.2252 47.0658 25.319C47.1722 25.4127 47.2589 25.5267 47.3207 25.6543C47.3825 25.7819 47.4182 25.9205 47.4258 26.0621V26.0621Z" fill="#2D2F34"/>
<path d="M48.1414 24.1263C48.005 24.2713 47.1607 23.6573 45.9754 23.6573C44.79 23.6573 43.9032 24.2542 43.7752 24.1092C43.6473 23.9642 43.852 23.7852 44.2357 23.5038C44.7515 23.147 45.3654 22.9593 45.9925 22.9665C46.6056 22.964 47.2034 23.1583 47.698 23.5208C48.0817 23.8022 48.2097 24.0666 48.1414 24.1263Z" fill="#2D2F34"/>
<path d="M35.7681 26.0621C35.7683 26.3512 35.6565 26.6291 35.4561 26.8374C35.2557 27.0457 34.9824 27.1682 34.6936 27.1793C34.5528 27.1897 34.4114 27.1721 34.2776 27.1274C34.1437 27.0828 34.02 27.012 33.9137 26.9192C33.8074 26.8264 33.7206 26.7134 33.6583 26.5867C33.596 26.4601 33.5595 26.3224 33.5509 26.1815C33.5484 25.8924 33.658 25.6136 33.8568 25.4037C34.0556 25.1938 34.328 25.0691 34.6168 25.0559C34.7587 25.0454 34.9012 25.0633 35.0361 25.1084C35.171 25.1534 35.2956 25.2249 35.4027 25.3185C35.5098 25.4121 35.5972 25.526 35.6599 25.6537C35.7227 25.7813 35.7594 25.9202 35.7681 26.0621V26.0621Z" fill="#2D2F34"/>
<path d="M36.4161 24.3566C36.2797 24.5015 35.4354 23.879 34.2501 23.879C33.0647 23.879 32.1778 24.476 32.0499 24.331C31.922 24.186 32.1267 24.0069 32.5104 23.7255C33.0279 23.3723 33.6406 23.1849 34.2671 23.1883C34.8803 23.1858 35.4781 23.3801 35.9727 23.7426C36.3564 24.024 36.4843 24.2883 36.4161 24.3566Z" fill="#2D2F34"/>
<path d="M40.7483 33.1998C41.3762 33.0018 42.0266 32.8843 42.6841 32.8502C42.9911 32.8502 43.2725 32.7564 43.3237 32.5517C43.3545 32.2373 43.2859 31.9211 43.1275 31.6478L42.2236 29.3282C40.97 26.028 40.0661 23.3076 40.2025 23.2565C41.1853 25.1537 42.0206 27.1237 42.7012 29.1491C42.9996 30.0019 43.2896 30.7438 43.5539 31.4857C43.7485 31.8518 43.803 32.2762 43.7074 32.6796C43.6657 32.7872 43.5992 32.8835 43.5132 32.9605C43.4273 33.0376 43.3243 33.0933 43.2128 33.123C43.0425 33.1664 42.8682 33.1921 42.6926 33.1998C42.047 33.2797 41.394 33.2797 40.7483 33.1998Z" fill="#2D2F34"/>
<path d="M41.5664 47.3131C37.4977 47.3749 33.4916 46.3062 29.9943 44.2261C29.9943 44.2261 32.7999 50.1955 41.4555 49.3427L41.5664 47.3131Z" fill="#EB996E"/>
<path d="M40.2453 36.0737C40.0181 35.788 39.7221 35.5646 39.385 35.4244C39.048 35.2842 38.6808 35.2318 38.318 35.2721C38.0542 35.2965 37.798 35.374 37.565 35.5C37.3319 35.6261 37.1269 35.798 36.9621 36.0055C36.8019 36.2028 36.7069 36.4449 36.6901 36.6984C36.6733 36.9519 36.7356 37.2044 36.8683 37.4211C37.0582 37.6367 37.3086 37.7902 37.5869 37.8617C37.8652 37.9332 38.1585 37.9193 38.4289 37.8219C38.9931 37.6219 39.512 37.3117 39.9553 36.9095C40.0877 36.8127 40.2029 36.6945 40.2964 36.5598C40.338 36.4933 40.3601 36.4165 40.3601 36.3381C40.3601 36.2597 40.338 36.1828 40.2964 36.1164" fill="#EB996E"/>
<path d="M37.2346 34.0269C37.4307 34.0269 37.4307 35.3061 38.5393 36.227C39.6479 37.148 41.0294 37.0031 41.0379 37.1822C41.0464 37.3612 40.7309 37.438 40.1851 37.455C39.4243 37.4628 38.6849 37.2032 38.0959 36.7217C37.534 36.2616 37.1732 35.601 37.0896 34.8797C37.0043 34.3339 37.1493 34.0184 37.2346 34.0269Z" fill="#2D2F34"/>
<path d="M36.9531 22.2673C36.8337 22.5913 35.6484 22.4378 34.2498 22.5998C32.8513 22.7619 31.6915 23.1541 31.5295 22.8642C31.4442 22.7277 31.6404 22.4207 32.1009 22.1052C32.7086 21.7197 33.3961 21.4779 34.1114 21.3981C34.8266 21.3183 35.5506 21.4026 36.2283 21.6447C36.7314 21.8579 37.0043 22.1138 36.9531 22.2673Z" fill="#2D2F34"/>
<path d="M47.707 20.681C47.4938 20.9454 46.6751 20.681 45.6859 20.681C44.6967 20.681 43.861 20.8601 43.6648 20.5787C43.5796 20.4422 43.716 20.1693 44.0827 19.9135C44.5696 19.6003 45.1416 19.4454 45.72 19.4701C46.3018 19.475 46.8667 19.6663 47.3317 20.0159C47.6814 20.2632 47.8178 20.5446 47.707 20.681Z" fill="#2D2F34"/>
<path d="M36.433 6.58484C39.3724 6.72737 42.2287 7.60715 44.739 9.14315C46.1493 9.86564 47.4028 10.8599 48.4273 12.0688C49.4517 13.2777 50.227 14.6773 50.7084 16.1871C50.829 16.4989 50.8852 16.832 50.8735 17.1662C50.8618 17.5004 50.7824 17.8287 50.6401 18.1314C50.3663 18.4793 49.9797 18.7208 49.5469 18.8142C49.1142 18.9076 48.6624 18.8471 48.2694 18.643C47.4947 18.214 46.8339 17.6058 46.3422 16.8693C46.1324 17.6675 45.6619 18.3727 45.0054 18.8728C44.3488 19.3729 43.544 19.6392 42.7187 19.6294C41.8935 19.6196 41.0952 19.3343 40.4507 18.8187C39.8062 18.3031 39.3526 17.587 39.1618 16.784C39.0965 17.6125 38.7145 18.3841 38.0951 18.9383C37.4758 19.4925 36.6667 19.7869 35.836 19.7602C35.0048 19.689 34.2128 19.3756 33.5579 18.8587C32.9031 18.3418 32.4143 17.6442 32.1521 16.8522C31.9551 18.3653 31.4376 19.8189 30.6341 21.1161C30.2233 21.7505 29.6277 22.2437 28.9277 22.5288C28.2278 22.814 27.4571 22.8775 26.7199 22.7108C27.0336 23.982 27.013 25.3128 26.6602 26.5738C26.2082 27.8018 24.1019 54.2548 22.8568 53.8625C21.6118 53.4702 21.9529 26.5738 21.6715 25.3288C21.0599 22.964 20.7504 20.5313 20.7505 18.0887C20.6693 15.577 21.4817 13.1179 23.0432 11.1489C24.6047 9.17982 26.814 7.8285 29.2782 7.33528C31.7429 6.76809 34.2729 6.53575 36.7997 6.64453" fill="#2D2F34"/>
<path d="M66.5188 40.8151C66.5188 40.8151 66.6126 40.6616 66.86 40.4228C67.2155 40.0713 67.6714 39.8389 68.1647 39.7577C68.5465 39.6841 68.9394 39.6893 69.3192 39.7728C69.699 39.8564 70.0577 40.0167 70.3734 40.2437C70.7609 40.5774 71.0556 41.0056 71.2289 41.4867C71.4022 41.9678 71.4483 42.4855 71.3626 42.9897C71.2855 43.5807 71.0628 44.1433 70.7145 44.627C70.3191 45.1373 69.8035 45.5416 69.2136 45.8038C68.5558 46.0905 67.8461 46.2384 67.1286 46.2384C66.4111 46.2384 65.7013 46.0905 65.0435 45.8038C63.5733 45.1398 62.3051 44.0982 61.3681 42.785C60.3309 41.3884 59.5327 39.8294 59.0059 38.1715C57.8803 34.7604 57.5733 31.2982 57.1042 28.1941C56.7544 25.4195 56.0196 22.7072 54.9211 20.1354C54.1648 18.3931 53.0421 16.8341 51.6294 15.5645C51.2363 15.2226 50.8172 14.9119 50.3759 14.635C50.2297 14.5346 50.0722 14.4517 49.9068 14.3877C49.9068 14.3877 50.5294 14.78 51.5101 15.6583C52.858 16.9492 53.9237 18.5056 54.6397 20.2292C55.6876 22.7865 56.3819 25.4747 56.7034 28.2197C57.1554 31.3152 57.4453 34.7945 58.5966 38.2738C59.1358 39.9791 59.9574 41.5818 61.027 43.0153C62.0191 44.3802 63.3508 45.462 64.89 46.1534C65.5975 46.4619 66.361 46.6212 67.1328 46.6212C67.9046 46.6212 68.6682 46.4619 69.3756 46.1534C70.0161 45.8566 70.5728 45.4053 70.9959 44.8402C71.3738 44.308 71.6114 43.6892 71.6866 43.0408C71.7694 42.4867 71.7059 41.9206 71.5025 41.3985C71.2991 40.8765 70.9628 40.4167 70.5269 40.0647C70.183 39.8256 69.7929 39.6611 69.3817 39.5818C68.9705 39.5025 68.5472 39.5101 68.1391 39.6042C67.6232 39.7129 67.1547 39.9814 66.8003 40.3717C66.676 40.4978 66.58 40.649 66.5188 40.8151V40.8151Z" fill="#2D2F34"/>
<path d="M20.6743 54.9881C20.6743 54.9369 20.1712 54.7152 19.3355 54.1353C18.1742 53.2935 17.1819 52.2404 16.4105 51.0312C15.2685 49.2362 14.5214 47.2188 14.2188 45.113C13.8976 42.52 14.01 39.8917 14.5514 37.3357C15.0801 34.6068 15.8647 32.057 16.5384 29.729C17.2121 27.4009 17.792 25.2775 18.1331 23.4696C18.4119 22.0409 18.5772 20.5923 18.6277 19.1375C18.6277 18.6259 18.6277 18.2251 18.6277 17.9522C18.6366 17.8143 18.6222 17.6759 18.585 17.5428C18.5424 17.5428 18.585 18.1142 18.4742 19.129C18.3637 20.5628 18.1557 21.9874 17.8516 23.3929C17.4679 25.1752 16.8795 27.273 16.1461 29.5925C15.3373 32.114 14.6598 34.6758 14.1165 37.2675C13.5592 39.8681 13.4582 42.5459 13.818 45.1812C14.1429 47.3398 14.9376 49.4009 16.1461 51.2188C16.9581 52.4423 18.0115 53.487 19.2417 54.2888C19.5738 54.5072 19.9249 54.6956 20.2906 54.8516C20.4141 54.9086 20.5426 54.9542 20.6743 54.9881V54.9881Z" fill="#2D2F34"/>
<path d="M19.1309 49.4366C19.2237 49.5049 19.3276 49.5568 19.4379 49.5901C19.7414 49.7002 20.0559 49.7774 20.3759 49.8204C21.5827 49.9443 22.7983 49.6911 23.8552 49.0955C25.4187 48.1955 26.6033 46.7596 27.1895 45.0534C27.8927 42.9935 28.1229 40.8016 27.8632 38.6406C27.6586 36.3551 27.2407 34.2317 27.0531 32.2789C26.8655 30.326 26.7546 28.5608 26.7205 27.077C26.6864 25.5931 26.7205 24.3907 26.7205 23.555C26.7574 23.1266 26.7574 22.6958 26.7205 22.2673C26.6259 22.6876 26.5717 23.1159 26.5585 23.5465C26.4903 24.3993 26.422 25.5846 26.4135 27.0855C26.4056 28.8337 26.4853 30.5813 26.6523 32.3215C26.8228 34.2914 27.2236 36.4319 27.4283 38.6832C27.6822 40.7782 27.4726 42.9034 26.8143 44.9084C26.2726 46.5404 25.1697 47.9273 23.7017 48.8227C22.7079 49.4216 21.5611 49.718 20.4015 49.6754C19.5743 49.5816 19.1479 49.394 19.1309 49.4366Z" fill="#2D2F34"/>
<path d="M74.91 57.2309C74.9166 56.9407 74.8703 56.6518 74.7736 56.3781C74.5055 55.6222 74.0113 54.9672 73.358 54.502C72.329 53.7516 71.1001 53.3242 69.8275 53.274C68.3607 53.1376 66.6978 53.3508 64.8985 53.274C62.9309 53.0969 61.0337 52.4538 59.364 51.3979C57.4565 50.1685 55.8246 48.557 54.5714 46.665C53.2006 44.5638 52.2373 42.2235 51.7317 39.7661C51.189 37.1189 50.9629 34.4165 51.058 31.7159C51.058 28.9359 51.4417 26.2411 51.6038 23.5975C51.8529 21.0528 51.6917 18.4845 51.1262 15.9908C50.6018 13.8656 49.4867 11.9322 47.9097 10.4141C46.3327 8.89602 44.3583 7.85518 42.2147 7.41193C40.5734 7.08569 38.8796 7.13526 37.2601 7.55691C36.0486 7.87112 34.8964 8.38096 33.8491 9.06631C33.1878 9.49521 32.5758 9.99568 32.0241 10.5587C31.828 10.7548 31.7086 10.9168 31.6148 11.0192C31.521 11.1215 31.4784 11.1812 31.4869 11.1897C32.2338 10.4458 33.057 9.78263 33.9429 9.21128C34.9971 8.56051 36.1487 8.0826 37.354 7.79568C38.9402 7.41263 40.5916 7.38642 42.1892 7.71893C44.1167 8.14048 45.9009 9.05755 47.3655 10.3796C49.0572 11.8963 50.2469 13.8922 50.7766 16.1017C51.315 18.5531 51.4646 21.074 51.22 23.572C51.0409 26.19 50.6998 28.9018 50.6487 31.7074C50.5628 34.4429 50.7975 37.179 51.3479 39.8599C51.8689 42.369 52.8615 44.7564 54.273 46.8953C55.5645 48.8283 57.2464 50.4696 59.2105 51.7134C60.9342 52.7872 62.8909 53.4307 64.9155 53.5895C66.7746 53.6919 68.4204 53.4531 69.8531 53.5895C71.0737 53.6273 72.2577 54.015 73.2642 54.7067C73.9104 55.1391 74.41 55.7577 74.6968 56.4804C74.8759 56.9409 74.8759 57.2309 74.91 57.2309Z" fill="#4E535C"/>
<path d="M32.1611 4.76842C32.1611 4.72578 31.7432 4.91339 31.3083 5.43358C30.7138 6.12616 30.3527 6.98853 30.2764 7.89809C30.199 8.80884 30.4077 9.72106 30.8734 10.5076C31.2401 11.096 31.5897 11.3603 31.6238 11.3603C31.6579 11.3603 31.4192 10.9851 31.1548 10.3967C30.7941 9.64507 30.6411 8.81064 30.7116 7.97993C30.782 7.14922 31.0734 6.35249 31.5556 5.67235C31.8967 5.09247 32.2037 4.81958 32.1611 4.76842Z" fill="#4E535C"/>
<path d="M15.1313 26.8809C15.2381 26.5414 15.3152 26.1933 15.3615 25.8405C15.4894 25.1583 15.6685 24.1861 15.9329 22.9837C16.1972 21.7813 16.5128 20.3486 16.9391 18.7881C17.1523 18.0035 17.3911 17.1849 17.6896 16.3577C17.9714 15.5103 18.3859 14.713 18.9176 13.9955C19.935 12.5868 21.3263 11.4909 22.9341 10.8317C24.2487 10.3038 25.6872 10.1647 27.0786 10.4309C28.0232 10.5974 28.9233 10.9574 29.7222 11.4883C29.9954 11.7106 30.28 11.9184 30.575 12.1109C30.575 12.1109 30.5238 12.0256 30.4044 11.8891C30.2235 11.6909 30.0236 11.511 29.8075 11.3519C29.0188 10.7461 28.1034 10.3263 27.1298 10.1239C25.6771 9.79933 24.1608 9.91209 22.7721 10.448C21.0811 11.1181 19.6166 12.2571 18.5509 13.7311C17.992 14.483 17.5599 15.3213 17.2717 16.2127C16.9732 17.0655 16.743 17.9182 16.5298 18.6772C16.129 20.2634 15.8305 21.7045 15.6173 22.9411C15.4041 24.1776 15.2507 25.1412 15.1824 25.832C15.1198 26.1779 15.1026 26.5305 15.1313 26.8809V26.8809Z" fill="#4E535C"/>
<path d="M31.2743 11.6503C32.2088 11.5472 33.1261 11.3236 34.0032 10.9851C34.954 10.6687 35.9295 10.432 36.9197 10.2773C38.1191 10.1033 39.3431 10.2383 40.4757 10.6696C41.6083 11.0927 42.6128 11.8005 43.3922 12.7248C44.0264 13.473 44.4996 14.3439 44.7822 15.2831C45.0108 16.1752 45.1339 17.0911 45.1489 18.0119C45.2465 17.7741 45.293 17.5185 45.2853 17.2615C45.3274 16.5676 45.2612 15.8714 45.0892 15.1978C44.8403 14.1828 44.3683 13.2361 43.7077 12.4263C42.8963 11.4273 41.8338 10.6621 40.6292 10.2091C39.4275 9.75557 38.1284 9.6233 36.86 9.82534C35.8491 10.0166 34.8584 10.3021 33.9008 10.6781C32.2806 11.3006 31.2573 11.5906 31.2743 11.6503Z" fill="#4E535C"/>
</g>
<path d="M71.4028 8.01083L88.1297 15.3119C89.4992 15.9097 90.1248 17.5045 89.527 18.8739L82.2259 35.6009C81.6282 36.9703 80.0334 37.5959 78.6639 36.9982L61.937 29.6971C60.5675 29.0993 59.9419 27.5046 60.5397 26.1351L67.8408 9.40815C68.4386 8.03867 70.0333 7.41308 71.4028 8.01083Z" fill="#0031B2"/>
<path fill-rule="evenodd" clip-rule="evenodd" d="M77.4858 20.3186L76.253 23.0202C76.2529 23.0203 76.253 23.0202 76.253 23.0202C75.9433 23.6979 75.1431 23.9967 74.4651 23.6876C74.1396 23.5392 73.8863 23.2674 73.7612 22.9322C73.636 22.5969 73.6492 22.2257 73.7979 21.9002L75.0309 19.1983C75.0309 19.1983 75.0308 19.1984 75.0309 19.1983C75.3404 18.5207 76.1406 18.2218 76.8185 18.5309C77.4962 18.8404 77.7948 19.6407 77.4858 20.3186ZM77.1778 17.7438C78.2901 18.2518 78.7803 19.565 78.273 20.6775L77.04 23.3795C76.532 24.4918 75.2188 24.9821 74.1062 24.4748C73.5718 24.2311 73.1561 23.785 72.9506 23.2347C72.7452 22.6845 72.7669 22.0752 73.0109 21.5409C73.0108 21.5409 73.0109 21.5408 73.0109 21.5409L74.2438 18.839C74.7518 17.7268 76.0653 17.2366 77.1778 17.7438Z" fill="#EDEDEF"/>
<path fill-rule="evenodd" clip-rule="evenodd" d="M78.8401 23.8301C78.6227 23.731 78.3661 23.8267 78.2669 24.0441C77.44 25.8562 75.3007 26.6548 73.4886 25.8279C71.6766 25.001 70.8779 22.8616 71.7048 21.0496C71.804 20.8322 71.7082 20.5756 71.4909 20.4764C71.2735 20.3772 71.0169 20.473 70.9178 20.6904C69.8925 22.9371 70.8827 25.5897 73.1294 26.615C75.3762 27.6402 78.0287 26.65 79.054 24.4033C79.1532 24.1859 79.0574 23.9293 78.8401 23.8301Z" fill="#EDEDEF"/>
<path fill-rule="evenodd" clip-rule="evenodd" d="M73.4886 25.8279C73.2713 25.7287 73.0147 25.8245 72.9155 26.0418L72.4124 27.1442C72.3133 27.3616 72.409 27.6182 72.6264 27.7173C72.8437 27.8165 73.1003 27.7207 73.1995 27.5034L73.7026 26.401C73.8018 26.1837 73.706 25.9271 73.4886 25.8279Z" fill="#EDEDEF"/>
<path d="M112.182 16.7429L116.351 31.0628C116.736 32.3844 115.976 33.7677 114.655 34.1525L100.335 38.3217C99.013 38.7065 97.6297 37.947 97.2449 36.6254L93.0757 22.3055C92.6909 20.9839 93.4504 19.6005 94.772 19.2157L109.092 15.0465C110.414 14.6618 111.797 15.4212 112.182 16.7429Z" fill="#0031B2"/>
<path fill-rule="evenodd" clip-rule="evenodd" d="M100.942 25.4529C100.559 25.5616 100.337 25.9602 100.445 26.3436L101.364 29.5818C101.473 29.9651 101.871 30.1875 102.255 30.0788L105.898 29.0452C106.281 28.9365 106.503 28.5379 106.395 28.1545L105.476 24.9164C105.367 24.533 104.969 24.3106 104.585 24.4193L100.942 25.4529ZM99.7514 26.5405C99.5339 25.7739 99.9788 24.9765 100.745 24.759L104.388 23.7254C105.155 23.508 105.952 23.9529 106.17 24.7195L107.089 27.9576C107.306 28.7242 106.861 29.5216 106.094 29.7391L102.452 30.7727C101.685 30.9902 100.888 30.5452 100.67 29.7786L99.7514 26.5405Z" fill="#EDEDEF"/>
<path fill-rule="evenodd" clip-rule="evenodd" d="M107.199 23.8101C107.637 23.1919 108.595 23.357 108.801 24.0853L109.661 27.1153C109.868 27.8436 109.139 28.4874 108.442 28.191L106.285 27.2764C106.102 27.1987 106.016 26.987 106.094 26.8036C106.172 26.6203 106.384 26.5347 106.567 26.6124L108.723 27.5271C108.863 27.5863 109.009 27.4581 108.967 27.3122L108.108 24.2822C108.066 24.1362 107.875 24.1037 107.787 24.2271L106.432 26.1381C106.317 26.3006 106.092 26.3389 105.93 26.2237C105.767 26.1085 105.729 25.8834 105.844 25.7209L107.199 23.8101Z" fill="#EDEDEF"/>
</svg>
