<svg width="41" height="40" viewBox="0 0 41 40" fill="none" xmlns="http://www.w3.org/2000/svg">
<path fill-rule="evenodd" clip-rule="evenodd" d="M13.9236 6.88103C9.14041 6.88103 5.70655 11.4523 5.70655 15.9377C5.70655 20.6245 8.6365 24.9212 12.1782 28.1374C13.9282 29.7265 15.7709 30.998 17.3513 31.8652C18.1417 32.2989 18.8498 32.6223 19.4336 32.8339C20.0446 33.0553 20.4249 33.1191 20.5926 33.1191C20.7603 33.1191 21.1406 33.0553 21.7516 32.8339C22.3354 32.6223 23.0435 32.2989 23.8339 31.8652C25.4143 30.998 27.257 29.7265 29.007 28.1374C32.5487 24.9212 35.4786 20.6245 35.4786 15.9377C35.4786 11.4523 32.0448 6.88103 27.2615 6.88103C24.4931 6.88103 22.6893 8.24885 21.6212 9.50183C21.3641 9.80346 20.9883 9.97713 20.5926 9.97713C20.1969 9.97713 19.821 9.80346 19.5639 9.50183C18.4959 8.24885 16.6921 6.88103 13.9236 6.88103ZM3 15.9377C3 10.3802 7.25275 4.16675 13.9236 4.16675C16.9174 4.16675 19.1066 5.36232 20.5926 6.68611C22.0786 5.36232 24.2678 4.16675 27.2615 4.16675C33.9324 4.16675 38.1852 10.3802 38.1852 15.9377C38.1852 21.748 34.5996 26.7205 30.8237 30.1494C28.9149 31.8827 26.8982 33.2777 25.133 34.2463C24.2505 34.7306 23.4143 35.1174 22.6714 35.3866C21.9556 35.646 21.2269 35.8334 20.5926 35.8334C19.9583 35.8334 19.2296 35.646 18.5138 35.3866C17.7709 35.1174 16.9346 34.7306 16.0522 34.2463C14.287 33.2777 12.2703 31.8827 10.3615 30.1494C6.58563 26.7205 3 21.748 3 15.9377Z" fill="#0031B2"/>
<path fill-rule="evenodd" clip-rule="evenodd" d="M26.7623 15.5227C27.2908 16.0527 27.2908 16.912 26.7623 17.442L20.2467 23.9762C19.9929 24.2307 19.6487 24.3737 19.2898 24.3737C18.9309 24.3737 18.5867 24.2307 18.3329 23.9762L14.4228 20.055C13.8944 19.525 13.8944 18.6657 14.4228 18.1357C14.9513 17.6057 15.8082 17.6057 16.3367 18.1357L19.2898 21.0973L24.8485 15.5227C25.377 14.9927 26.2338 14.9927 26.7623 15.5227Z" fill="#0031B2"/>
</svg>
