<svg width="480" height="480" viewBox="0 0 480 480" fill="none" xmlns="http://www.w3.org/2000/svg">
<circle cx="240" cy="270" r="210" fill="#E6EAF7"/>
<mask id="mask0_2566:38097" style="mask-type:alpha" maskUnits="userSpaceOnUse" x="30" y="60" width="420" height="420">
<circle cx="240" cy="270" r="210" fill="white"/>
</mask>
<g mask="url(#mask0_2566:38097)">
<path d="M134.311 216.666C134.311 216.666 114.933 226.441 109.166 256.84C103.398 287.24 85.5227 352.561 85.5227 352.561C85.5227 352.561 61.5377 397.904 62.7595 414.753C63.9814 431.602 73.7562 463.542 97.2159 464.776C120.675 466.01 141.838 430.637 141.838 430.637L139.736 272.053L134.311 216.666Z" fill="#0031B2"/>
<path d="M272.357 185.044L199.864 192.375L134.311 216.666L135.741 352.561L137.671 480H340.292L345.533 235.947L356.005 209.762L272.357 185.044Z" fill="#0031B2"/>
<path d="M340.634 438.054C340.634 438.225 295.499 438.371 239.843 438.371C184.188 438.371 139.052 438.225 139.052 438.054C139.052 437.883 184.163 437.736 239.843 437.736C295.523 437.736 340.634 437.87 340.634 438.054Z" fill="#854646"/>
<g opacity="0.3">
<path opacity="0.3" d="M336.455 405.736C332.203 402.791 327.022 401.569 321.988 400.408L224.044 377.792C205.497 373.515 185.788 369.239 167.839 375.482C161.049 377.845 154.825 381.597 149.566 386.498C144.306 391.4 140.126 397.344 137.293 403.952C131.733 417.136 135.167 421.718 136.547 434.828L137.183 449.551C148.509 445.422 159.017 434.535 168.487 427.069C177.956 419.604 188.818 412.676 200.829 412.321C208.588 412.101 216.114 414.667 223.531 416.94C254.972 426.514 287.708 431.151 320.571 430.686C325.177 430.613 329.894 430.429 334.158 428.707C338.422 426.984 342.222 423.416 342.992 418.932C343.908 413.775 340.732 408.668 336.455 405.736Z" fill="black"/>
</g>
<path d="M126.125 360.136C126.125 360.136 98.1932 381.054 90.3855 387.506C84.7406 392.185 69.614 402.889 76.6763 428.267C83.7386 453.645 100.698 457.762 111.108 456.186C121.518 454.61 126.87 450.456 131.733 444.383C136.596 438.31 156.757 406.872 156.757 406.872L147.593 343.335L126.125 360.136Z" fill="#916D69"/>
<path d="M133.627 261.068C133.798 261.068 134.421 281.546 135.02 306.802C135.619 332.058 135.961 352.561 135.778 352.561C135.594 352.561 134.983 332.095 134.385 306.827C133.786 281.559 133.407 261.068 133.627 261.068Z" fill="#263238"/>
<path d="M162.059 330.225C162.059 330.225 179.874 337.776 189.453 339.694C192.042 340.223 194.475 341.339 196.565 342.957C200.377 345.889 206.608 350.214 211.508 351.351C211.508 351.351 212.168 357.46 205.521 360.576H197.945L158.541 338.582L162.059 330.225Z" fill="#916D69"/>
<path d="M162.06 330.225C162.402 330.286 170.442 336.75 170.442 336.75C170.442 336.75 200.426 348.357 203.175 350.777C205.924 353.196 204.776 356.495 204.776 358.022C204.776 359.549 201.11 360.881 198.874 360.894C196.638 360.906 138.515 361.285 138.515 361.285C138.058 358.75 137.927 356.167 138.124 353.599C138.612 350.935 143.121 347.392 144.233 345.046C145.345 342.7 145.357 339.817 146.97 336.591C148.583 333.365 154.166 328.685 162.06 330.225Z" fill="#916D69"/>
<path d="M199.265 360.93C198.646 360.909 198.029 360.84 197.42 360.723C196.199 360.552 194.525 360.258 192.435 359.855C188.232 359.049 182.465 357.717 176.209 355.835C170.885 354.233 165.645 352.366 160.508 350.239C158.529 349.42 156.94 348.724 155.865 348.211C155.291 347.972 154.735 347.691 154.203 347.368C154.808 347.514 155.398 347.718 155.963 347.979L160.667 349.824C164.65 351.363 170.197 353.355 176.441 355.236C182.685 357.118 188.403 358.499 192.57 359.415L197.518 360.478C198.114 360.571 198.699 360.722 199.265 360.93Z" fill="#6D3F39"/>
<path d="M168.071 348.675C168.131 347.416 168.404 346.177 168.877 345.009C169.161 343.78 169.639 342.605 170.295 341.527C170.235 342.786 169.962 344.025 169.488 345.193C169.205 346.422 168.727 347.597 168.071 348.675Z" fill="#6D3F39"/>
<path d="M166.128 349.921C166.128 349.921 165.566 349.494 165.212 348.467C164.785 347.115 164.785 345.665 165.212 344.313C165.631 342.988 166.28 341.747 167.13 340.647C167.766 339.817 168.23 339.352 168.352 339.426C168.474 339.499 168.096 340.036 167.558 340.916C166.861 342.039 166.299 343.241 165.884 344.496C165.509 345.746 165.455 347.069 165.725 348.345C165.86 349.31 166.214 349.86 166.128 349.921Z" fill="#6D3F39"/>
<path d="M170.417 349.579C170.258 349.469 171.138 348.003 171.639 345.999C172.14 343.995 172.177 342.334 172.372 342.334C172.741 343.61 172.698 344.969 172.25 346.219C172.007 347.504 171.365 348.679 170.417 349.579Z" fill="#6D3F39"/>
<path d="M153.092 342.517C153.263 342.517 153.275 343.335 153.458 344.252C153.641 345.168 153.923 345.889 153.776 345.987C153.629 346.085 153.043 345.413 152.835 344.374C152.627 343.335 152.921 342.48 153.092 342.517Z" fill="#6D3F39"/>
<path d="M204.665 357.228C204.665 357.228 204.726 356.544 204.824 355.334C204.895 354.607 204.895 353.874 204.824 353.147C204.696 352.199 204.268 351.317 203.602 350.63C202.713 349.883 201.67 349.341 200.548 349.041L196.687 347.649L187.865 344.386C182.459 342.538 177.157 340.401 171.981 337.984C170.431 337.197 168.941 336.298 167.521 335.296C167.032 334.929 166.653 334.636 166.409 334.428C166.165 334.22 166.043 334.098 166.055 334.086C166.611 334.388 167.15 334.723 167.668 335.088C169.121 335.99 170.627 336.806 172.176 337.532C176.086 339.462 181.804 341.393 188.06 343.739L196.87 347.05L200.707 348.504C201.89 348.845 202.981 349.451 203.896 350.276C204.592 351.043 205.021 352.017 205.118 353.049C205.201 353.8 205.201 354.558 205.118 355.31C205.032 355.92 204.934 356.397 204.861 356.702C204.832 356.889 204.766 357.068 204.665 357.228Z" fill="#6D3F39"/>
<path d="M332.79 352.939L202.21 359.134V392.222C202.21 392.222 270.561 408.558 295.914 415.009C321.268 421.461 363.8 421.436 374.993 418.443C386.185 415.449 390.058 386.675 390.058 386.675L358.204 350.703L343.041 350.361L332.79 352.939Z" fill="#916D69"/>
<path d="M202.222 359.134C202.222 359.134 127.689 359.22 126.125 360.1C124.561 360.979 100.979 387.518 101.334 389.974C101.688 392.43 102.042 396.303 109.422 397.366C109.422 397.366 107.308 403.158 111.536 406.151C111.536 406.151 100.283 414.704 106.258 420.386C112.233 426.068 129.986 415.291 134.03 412.126L139.749 410.501C139.749 410.501 147.385 413.177 149.328 411.723C150.782 410.472 152.02 408.99 152.994 407.336C152.994 407.336 173.032 404.893 176.551 402.058L180.058 399.248C180.058 399.248 190.077 400.653 194.121 398.026C198.166 395.399 202.198 392.185 202.198 392.185L211.178 377.108L202.222 359.134Z" fill="#916D69"/>
<path d="M124.109 366.502C123.934 366.937 123.704 367.347 123.425 367.724L121.409 370.803C119.228 374.245 117.225 377.797 115.409 381.445C113.613 385.098 112.05 388.861 110.73 392.711C109.715 395.668 109.214 397.537 109.104 397.513C109.135 397.058 109.213 396.607 109.337 396.169C109.52 395.313 109.85 394.079 110.302 392.576C111.505 388.657 113.021 384.841 114.835 381.164C116.652 377.49 118.722 373.946 121.03 370.559C121.91 369.263 122.655 368.225 123.205 367.541C123.463 367.159 123.767 366.81 124.109 366.502Z" fill="#6D3F39"/>
<path d="M135.362 412.273C135.059 412.415 134.731 412.494 134.397 412.505C133.495 412.607 132.585 412.607 131.684 412.505C128.756 412.035 125.862 411.374 123.021 410.525C119.673 409.609 116.68 408.668 114.542 407.935C113.356 407.6 112.206 407.15 111.108 406.591C112.319 406.803 113.512 407.109 114.676 407.507L123.229 409.951C126.565 410.831 129.57 411.735 131.782 412.102C132.971 412.233 134.166 412.29 135.362 412.273Z" fill="#6D3F39"/>
<path d="M132.894 371.976C132.662 372.488 132.38 372.975 132.051 373.43L129.607 377.254C126.849 381.413 124.36 385.743 122.154 390.218C120.969 392.694 119.961 395.25 119.136 397.867C118.365 399.949 117.952 402.147 117.914 404.367C117.933 405.102 118.112 405.824 118.439 406.483C118.766 407.141 119.233 407.72 119.808 408.179C120.26 408.485 120.754 408.723 121.274 408.888C121.129 408.918 120.979 408.918 120.834 408.888C120.397 408.812 119.981 408.645 119.612 408.399C118.968 407.948 118.434 407.356 118.053 406.668C117.672 405.98 117.453 405.214 117.413 404.428C117.38 402.144 117.757 399.872 118.525 397.72C119.326 395.065 120.331 392.475 121.53 389.974C123.735 385.466 126.292 381.139 129.179 377.034C130.267 375.446 131.171 374.175 131.806 373.308C132.129 372.832 132.492 372.387 132.894 371.976Z" fill="#6D3F39"/>
<path d="M139.052 377.755C139.119 378.278 139.119 378.808 139.052 379.331C138.857 380.752 138.487 382.143 137.953 383.473C137.134 385.422 136.183 387.312 135.106 389.131C133.782 391.327 132.622 393.618 131.636 395.985C130.634 398.291 130.324 400.838 130.744 403.316C130.994 404.301 131.45 405.222 132.082 406.018C132.714 406.814 133.507 407.468 134.409 407.935C135.645 408.606 136.952 409.135 138.307 409.511C138.813 409.63 139.308 409.794 139.785 410C139.26 409.984 138.739 409.902 138.234 409.755C136.83 409.46 135.471 408.983 134.189 408.338C133.277 407.875 132.45 407.26 131.746 406.518C130.956 405.646 130.393 404.592 130.108 403.451C129.615 400.84 129.918 398.141 130.976 395.704C131.979 393.314 133.168 391.006 134.531 388.801C135.622 387.012 136.605 385.159 137.476 383.253C138.21 381.487 138.739 379.642 139.052 377.755Z" fill="#6D3F39"/>
<path d="M157.515 395.888C157.515 395.802 158.456 396.217 158.737 397.623C158.876 398.418 158.8 399.237 158.517 399.993C158.195 400.883 157.786 401.738 157.295 402.547C156.164 404.699 154.513 406.534 152.493 407.886C154.039 406.101 155.46 404.211 156.745 402.229C157.735 400.555 158.492 398.918 158.297 397.696C158.192 397.037 157.923 396.415 157.515 395.888Z" fill="#6D3F39"/>
<path d="M143.891 403.988C143.829 403.891 144.428 403.463 145.235 402.62C146.272 401.525 147.1 400.249 147.678 398.857C148.25 397.458 148.564 395.968 148.607 394.458C148.549 393.82 148.549 393.178 148.607 392.54C148.899 393.132 149.049 393.785 149.047 394.446C149.131 396.037 148.86 397.627 148.253 399.101C147.646 400.576 146.71 401.893 145.516 402.95C145.067 403.424 144.509 403.781 143.891 403.988Z" fill="#6D3F39"/>
<path d="M159.371 392.711C159.433 392.711 159.152 393.371 158.418 394.214C157.445 395.296 156.248 396.155 154.911 396.731C153.573 397.306 152.127 397.586 150.672 397.549C150.065 397.592 149.458 397.474 148.912 397.207C150.873 397.185 152.816 396.825 154.655 396.144C156.411 395.275 158.005 394.114 159.371 392.711Z" fill="#6D3F39"/>
<path d="M177.321 397.757C176.447 398.042 175.539 398.21 174.62 398.258C170.206 398.723 165.747 398.534 161.388 397.696C160.476 397.567 159.585 397.32 158.736 396.963C158.736 396.767 162.878 397.622 168.01 397.83C173.142 398.038 177.296 397.561 177.321 397.757Z" fill="#6D3F39"/>
<path d="M151.185 369.728C150.68 369.931 150.141 370.035 149.597 370.033C148.328 370.161 147.067 370.36 145.821 370.632C144.594 370.927 143.417 371.401 142.327 372.037C141.508 372.55 141.105 372.966 140.983 372.905C140.86 372.843 141.264 372.306 142.082 371.683C143.149 370.884 144.374 370.321 145.675 370.033C146.953 369.738 148.261 369.591 149.572 369.593C150.113 369.527 150.662 369.573 151.185 369.728Z" fill="#6D3F39"/>
<path d="M141.044 366.575C139.81 366.611 138.582 366.767 137.379 367.04C136.256 367.51 135.184 368.091 134.177 368.775C134.476 368.187 134.9 367.673 135.419 367.267C135.939 366.862 136.541 366.576 137.183 366.429C137.798 366.17 138.463 366.049 139.13 366.074C139.797 366.099 140.45 366.27 141.044 366.575Z" fill="#6D3F39"/>
<path d="M131.709 361.847C130.459 361.916 129.226 362.159 128.043 362.567C126.953 363.156 125.946 363.887 125.049 364.742C124.976 364.742 125.123 364.278 125.563 363.692C126.155 362.948 126.919 362.36 127.79 361.979C128.661 361.598 129.612 361.435 130.56 361.504C131.305 361.578 131.721 361.773 131.709 361.847Z" fill="#6D3F39"/>
<path d="M212.95 358.145C212.95 358.145 214.929 374.029 214.11 382.044C213.654 386.785 211.834 391.293 208.869 395.02L227.074 399.26C228.477 395.706 229.525 392.023 230.202 388.263C231.033 382.154 233.135 366.013 230.52 357.375L212.95 358.145Z" fill="#F5F5F5"/>
<path d="M233.974 351.642L207.668 352.791C206.212 352.854 205.083 354.086 205.147 355.543L205.176 356.226C205.24 357.682 206.472 358.811 207.928 358.748L234.234 357.599C235.69 357.536 236.819 356.304 236.756 354.848L236.726 354.164C236.662 352.708 235.43 351.579 233.974 351.642Z" fill="#F5F5F5"/>
<path d="M229.408 391.538C229.44 391.15 229.522 390.768 229.653 390.401C229.953 389.4 230.081 388.354 230.031 387.31C229.985 386.612 229.767 385.936 229.396 385.343C228.96 384.69 228.313 384.207 227.563 383.974C226.691 383.72 225.794 383.56 224.887 383.498L221.894 383.168C219.865 382.985 217.874 382.508 216.285 383.021C215.543 383.294 214.908 383.8 214.477 384.463C214.087 385.063 213.759 385.702 213.5 386.369C213.023 387.591 212.705 388.666 212.412 389.363C212.298 389.745 212.111 390.102 211.862 390.413C211.938 390.031 212.044 389.655 212.18 389.289C212.4 388.568 212.644 387.505 213.084 386.21C213.322 385.496 213.642 384.811 214.037 384.17C214.519 383.396 215.24 382.8 216.09 382.471C217.023 382.189 218.005 382.102 218.974 382.215C219.963 382.3 220.941 382.422 221.967 382.532L224.948 382.875C225.903 382.95 226.846 383.135 227.759 383.424C228.627 383.712 229.367 384.296 229.848 385.074C230.238 385.748 230.456 386.507 230.483 387.285C230.494 388.377 230.29 389.461 229.885 390.474C229.786 390.853 229.625 391.212 229.408 391.538Z" fill="#263238"/>
<path d="M221.051 392.857C222.529 392.857 223.727 391.659 223.727 390.181C223.727 388.704 222.529 387.506 221.051 387.506C219.573 387.506 218.375 388.704 218.375 390.181C218.375 391.659 219.573 392.857 221.051 392.857Z" fill="#E0E0E0"/>
<path d="M356.005 355.884C400.517 385.795 374.858 415.584 373.294 422.451C371.73 429.318 395.288 422.451 400.517 417.734C405.747 413.018 414.141 395.216 416.23 385.795C418.32 376.375 411.526 367.98 412.039 361.7C412.553 355.42 392.661 275.229 386.906 246.943C381.151 218.657 356.005 209.762 356.005 209.762C321.439 206.097 317.248 271.564 317.248 271.564L332.435 339.12L332.802 352.939C332.802 352.939 341.111 348.467 348.087 351.718C355.064 354.968 356.005 355.884 356.005 355.884Z" fill="#0031B2"/>
<path d="M401.213 373.43C401.054 373.187 400.912 372.934 400.786 372.672L399.686 370.473C399.185 369.52 398.464 368.408 397.731 367.101L396.375 365.084L395.617 363.997L394.75 362.897C392.012 359.356 388.834 356.178 385.293 353.44C380.969 350.08 376.161 347.395 371.034 345.474C365.908 343.542 360.501 342.461 355.027 342.272C350.562 342.097 346.11 342.872 341.966 344.545C339.173 345.685 336.714 347.514 334.818 349.86C334.182 350.761 333.595 351.695 333.058 352.658C333.133 352.378 333.239 352.107 333.376 351.852C333.71 351.1 334.12 350.383 334.598 349.714C336.45 347.256 338.921 345.334 341.758 344.142C345.947 342.375 350.471 341.541 355.015 341.698C360.559 341.856 366.038 342.934 371.229 344.887C376.423 346.822 381.29 349.541 385.659 352.951C389.213 355.737 392.388 358.973 395.104 362.58C395.385 362.971 395.678 363.337 395.959 363.704C396.241 364.07 396.448 364.461 396.693 364.816C397.169 365.549 397.621 366.221 398.024 366.868C398.758 368.212 399.43 369.312 399.894 370.326L400.896 372.587C401.035 372.854 401.142 373.137 401.213 373.43Z" fill="#263238"/>
<path d="M387.211 325.79C386.507 325.85 385.8 325.85 385.097 325.79C384.425 325.79 383.594 325.79 382.653 325.79C381.712 325.79 380.588 325.79 379.379 325.936C378.169 326.083 376.849 326.12 375.432 326.339C374.015 326.559 372.524 326.792 370.948 327.085C364.126 328.491 357.588 331.031 351.606 334.599C350.25 335.455 348.942 336.224 347.794 337.043C346.645 337.862 345.57 338.656 344.617 339.401C343.664 340.146 342.845 340.892 342.112 341.515C341.379 342.138 340.768 342.737 340.279 343.177C339.797 343.695 339.27 344.17 338.703 344.594C339.144 344.044 339.617 343.522 340.12 343.03C340.676 342.413 341.263 341.826 341.88 341.271C342.589 340.623 343.383 339.841 344.324 339.083C345.264 338.326 346.291 337.446 347.476 336.64C348.661 335.833 349.92 334.966 351.3 334.098C357.318 330.436 363.937 327.867 370.85 326.511C372.451 326.23 373.954 325.936 375.395 325.814C376.837 325.692 378.157 325.545 379.379 325.484C380.601 325.423 381.7 325.484 382.678 325.484C383.655 325.484 384.474 325.484 385.121 325.594C385.822 325.602 386.521 325.667 387.211 325.79Z" fill="#263238"/>
<path d="M316.71 277.966C316.822 278.193 316.912 278.431 316.979 278.675C317.15 279.225 317.37 279.897 317.651 280.777C318.213 282.597 318.995 285.249 319.936 288.523C321.817 295.085 324.261 304.2 326.68 314.329C329.1 324.458 331.042 333.683 332.338 340.391C332.985 343.739 333.474 346.5 333.792 348.333C333.938 349.225 334.06 349.946 334.146 350.508C334.194 350.762 334.223 351.019 334.231 351.278C334.132 351.039 334.062 350.788 334.024 350.532L333.547 348.382L331.898 340.476C330.492 333.805 328.476 324.592 326.057 314.475C323.638 304.358 321.267 295.231 319.508 288.645C318.628 285.407 317.92 282.768 317.406 280.838C317.186 279.966 317.003 279.257 316.857 278.712C316.775 278.471 316.726 278.22 316.71 277.966Z" fill="#263238"/>
<path d="M354.575 209.335C353.935 209.631 353.273 209.88 352.596 210.08C351.961 210.288 351.179 210.544 350.299 210.923C349.419 211.302 348.381 211.644 347.305 212.145C346.23 212.646 345.008 213.196 343.786 213.917C342.565 214.638 341.257 215.395 339.925 216.25C334.165 220.077 329.273 225.073 325.569 230.913C324.738 232.269 323.943 233.552 323.32 234.823C322.697 236.093 322.098 237.266 321.622 238.378C321.145 239.49 320.779 240.516 320.4 241.396C320.021 242.276 319.801 243.082 319.594 243.718C319.414 244.399 319.182 245.065 318.897 245.709C318.991 245.013 319.146 244.326 319.362 243.657C319.547 242.854 319.78 242.062 320.058 241.286C320.388 240.382 320.681 239.307 321.182 238.207C321.683 237.107 322.147 235.849 322.819 234.542C323.492 233.177 324.234 231.847 325.043 230.558C326.947 227.643 329.132 224.921 331.568 222.433C334.035 219.96 336.745 217.741 339.657 215.811C340.913 214.981 342.21 214.214 343.542 213.513C344.764 212.805 345.986 212.292 347.122 211.791C348.258 211.29 349.273 210.96 350.177 210.569C350.945 210.274 351.728 210.022 352.523 209.811C353.191 209.592 353.878 209.432 354.575 209.335Z" fill="#263238"/>
<path d="M212.95 359.134C212.715 359.172 212.478 359.193 212.241 359.195L210.201 359.268L202.674 359.427L177.858 359.684L153.042 359.757H145.528H143.475C143.237 359.763 143 359.742 142.766 359.696C142.998 359.641 143.237 359.616 143.475 359.623L145.528 359.549L153.042 359.403L177.858 359.134L202.674 359.061H210.201H212.241C212.48 359.05 212.718 359.075 212.95 359.134Z" fill="#6D3F39"/>
<path d="M202.222 392.222C202.131 392.327 202.028 392.421 201.916 392.503L200.963 393.273C200.108 393.933 198.849 394.91 197.163 396.132C196.32 396.731 195.367 397.354 194.304 398.111C193.099 398.84 191.755 399.31 190.358 399.492C186.94 399.958 183.475 399.958 180.057 399.492H180.204L177.834 401.398C177.418 401.716 177.027 402.07 176.612 402.388L175.891 402.828L175.133 403.17C172.967 403.998 170.736 404.644 168.462 405.1C163.746 406.127 158.589 406.958 153.067 407.678L153.262 407.556C152.612 408.645 151.864 409.672 151.026 410.623C150.589 411.111 150.11 411.561 149.596 411.967C148.999 412.344 148.299 412.528 147.593 412.493C144.886 412.316 142.219 411.748 139.675 410.806H139.846L134.14 412.444H134.238C131.197 414.665 127.967 416.615 124.585 418.272C121.088 420.12 117.337 421.442 113.454 422.194C111.404 422.612 109.275 422.403 107.345 421.595C106.388 421.09 105.583 420.339 105.011 419.42C104.433 418.484 104.16 417.391 104.229 416.293C104.52 414.151 105.424 412.14 106.832 410.501C108.164 408.825 109.685 407.308 111.365 405.98V406.493C110.336 405.773 109.549 404.759 109.104 403.585C108.67 402.381 108.511 401.095 108.64 399.822C108.717 398.992 108.885 398.172 109.141 397.378L109.397 397.794C107.146 397.6 105 396.751 103.227 395.35C102.391 394.563 101.786 393.561 101.48 392.454C101.325 391.922 101.211 391.379 101.138 390.829V390.438C101.112 390.28 101.112 390.119 101.138 389.962C101.151 389.799 101.197 389.642 101.272 389.497C101.319 389.359 101.377 389.224 101.443 389.094C102.529 387.244 103.755 385.479 105.109 383.816C106.404 382.142 107.723 380.517 109.055 378.928C114.383 372.562 119.624 366.526 124.939 361.028C125.282 360.664 125.654 360.329 126.051 360.026L126.491 359.916H126.858L127.579 359.855C128.519 359.855 129.448 359.757 130.377 359.721L135.863 359.574L146.359 359.415L165.163 359.281H192.349H199.68H201.611H202.258H201.611H199.68L192.349 359.354L165.163 359.586L146.359 359.806L135.875 359.989L130.401 360.148L127.615 360.295L126.919 360.356H126.589H126.345C125.989 360.633 125.654 360.935 125.343 361.26C120.089 366.734 114.847 372.782 109.532 379.148C108.212 380.737 106.893 382.362 105.597 384.036C104.256 385.674 103.031 387.406 101.932 389.216C101.875 389.327 101.826 389.441 101.785 389.558C101.738 389.651 101.705 389.749 101.688 389.852C101.67 389.961 101.67 390.072 101.688 390.181L101.749 390.585C101.825 391.1 101.936 391.611 102.078 392.112C102.347 393.115 102.893 394.021 103.655 394.727C105.326 396.06 107.353 396.872 109.483 397.061L109.849 397.122L109.727 397.476C109.486 398.23 109.33 399.009 109.263 399.797C109.138 400.98 109.284 402.175 109.691 403.292C110.09 404.351 110.801 405.263 111.731 405.907L112.073 406.151L111.731 406.42C110.098 407.713 108.618 409.189 107.32 410.819C105.996 412.356 105.147 414.245 104.877 416.256C104.833 417.225 105.071 418.185 105.564 419.02C106.056 419.856 106.781 420.53 107.65 420.96C109.462 421.714 111.459 421.906 113.381 421.51C117.213 420.772 120.918 419.479 124.377 417.673C127.723 416.031 130.92 414.101 133.932 411.906H133.993L139.699 410.293H139.785H139.87C142.351 411.219 144.952 411.783 147.593 411.967C148.188 412.008 148.782 411.863 149.291 411.552C149.781 411.189 150.235 410.78 150.647 410.33C151.462 409.406 152.193 408.412 152.834 407.361L152.895 407.251H153.018C158.528 406.542 163.684 405.736 168.376 404.734C170.628 404.296 172.839 403.671 174.987 402.864C175.962 402.462 176.856 401.887 177.626 401.166L180.008 399.272H180.07H180.057C183.439 399.76 186.87 399.793 190.26 399.37C191.623 399.205 192.938 398.76 194.121 398.062C195.196 397.366 196.149 396.718 196.992 396.132C198.703 394.91 199.986 393.994 200.853 393.346L201.831 392.625C201.951 392.482 202.082 392.347 202.222 392.222Z" fill="#6D3F39"/>
<path d="M233.905 357.692C233.905 357.863 228.309 358.267 221.393 358.596C214.477 358.926 208.869 359.049 208.857 358.878C213.009 358.356 217.185 358.051 221.369 357.961C225.54 357.651 229.724 357.562 233.905 357.692Z" fill="#263238"/>
<g opacity="0.3">
<path opacity="0.3" d="M334.012 350.361C336.974 345.918 341.451 342.704 346.609 341.319C351.814 340.127 357.173 339.752 362.493 340.207C370.704 340.611 379.11 341.759 386.27 345.779C393.431 349.799 399.161 357.228 399.137 365.439C395.996 363.997 393.565 361.394 391.097 358.975C383.506 351.251 373.922 345.782 363.41 343.177C352.779 340.733 339.29 343.506 334.085 350.361" fill="black"/>
</g>
<g opacity="0.3">
<path opacity="0.3" d="M337.75 345.767C344.052 338.763 351.878 333.3 360.625 329.8C369.373 326.3 378.807 324.857 388.201 325.582C389.366 325.754 390.551 325.729 391.708 325.509C392.289 325.393 392.827 325.117 393.259 324.711C393.691 324.305 394 323.785 394.151 323.212C394.469 321.318 392.453 319.913 390.657 319.253C384.589 317.252 378.056 317.146 371.926 318.947C365.843 320.761 360.001 323.3 354.527 326.511C350.485 328.533 346.727 331.075 343.347 334.074C339.944 337.106 337.702 341.227 337.005 345.731" fill="black"/>
</g>
<path d="M210.029 236.472C210.029 236.643 193.608 236.79 173.374 236.79C153.14 236.79 136.718 236.643 136.718 236.472C136.718 236.301 153.14 236.154 173.374 236.154C193.608 236.154 210.029 236.289 210.029 236.472Z" fill="#854646"/>
<path d="M324.542 232.208C324.542 232.391 305.261 232.526 281.484 232.526C257.706 232.526 238.425 232.391 238.425 232.208C238.425 232.025 257.694 231.841 281.471 231.841C305.249 231.841 324.542 232.037 324.542 232.208Z" fill="#854646"/>
<path d="M389.838 256.938C389.578 256.964 389.316 256.964 389.056 256.938H386.832C385.867 256.938 384.694 256.938 383.325 257.048C381.957 257.158 380.393 257.146 378.682 257.329C376.972 257.512 375.078 257.622 373.074 257.903C371.07 258.184 368.932 258.514 366.684 258.881C356.954 260.662 347.485 263.65 338.496 267.776C336.443 268.765 334.476 269.67 332.704 270.647C330.932 271.625 329.258 272.517 327.816 273.396C326.375 274.276 325.006 275.107 323.845 275.84C322.685 276.573 321.707 277.221 320.913 277.771L319.068 278.992C318.857 279.148 318.632 279.283 318.396 279.396C318.574 279.204 318.775 279.036 318.995 278.895L320.766 277.551C321.536 276.964 322.501 276.268 323.65 275.522C324.799 274.777 326.094 273.873 327.584 273.005C329.075 272.138 330.688 271.124 332.472 270.183C334.256 269.242 336.211 268.252 338.276 267.25C347.283 263.027 356.811 260.019 366.61 258.306C368.871 257.952 371.009 257.573 373.037 257.39C375.066 257.207 376.947 256.987 378.67 256.877C380.393 256.767 381.969 256.73 383.338 256.694C384.706 256.657 385.891 256.694 386.857 256.694L389.093 256.767C389.347 256.794 389.597 256.852 389.838 256.938Z" fill="#854646"/>
<path d="M402.362 315.245C402.101 315.232 401.843 315.187 401.593 315.111L399.43 314.61L397.878 314.231C397.304 314.109 396.656 314.011 396.009 313.877C394.665 313.645 393.15 313.302 391.439 313.131L388.763 312.789C387.835 312.679 386.857 312.655 385.855 312.569C383.851 312.374 381.689 312.398 379.428 312.374C374.511 312.452 369.607 312.926 364.766 313.791C359.939 314.741 355.196 316.073 350.58 317.774C348.479 318.617 346.463 319.387 344.654 320.291C343.75 320.731 342.846 321.11 342.027 321.513L339.657 322.796C338.117 323.578 336.834 324.446 335.661 325.154C335.087 325.509 334.537 325.839 334.048 326.156L332.79 327.146L330.957 328.368C330.749 328.521 330.528 328.656 330.297 328.771C330.472 328.581 330.669 328.413 330.884 328.27L332.643 326.914L333.926 325.949C334.403 325.619 334.953 325.277 335.527 324.898C336.675 324.165 337.971 323.261 339.486 322.454L341.844 321.135C342.675 320.67 343.567 320.279 344.483 319.827C346.279 318.899 348.308 318.104 350.421 317.237C359.691 313.657 369.54 311.814 379.477 311.8C381.762 311.8 383.937 311.8 385.953 312.056C386.967 312.142 387.945 312.191 388.885 312.313L391.561 312.692C393.284 312.899 394.799 313.278 396.143 313.547C396.815 313.693 397.438 313.803 398.013 313.95L399.552 314.378L401.69 315.001C401.922 315.058 402.148 315.14 402.362 315.245Z" fill="#854646"/>
<path d="M409.241 349.139C408.654 348.775 408.094 348.366 407.567 347.918C407.054 347.502 406.407 347.013 405.637 346.476C404.867 345.938 404.012 345.254 403.01 344.667C400.71 343.145 398.328 341.75 395.874 340.489C392.861 338.958 389.755 337.616 386.576 336.469C383.377 335.365 380.113 334.463 376.801 333.768C374.096 333.215 371.363 332.807 368.615 332.547C367.393 332.412 366.379 332.388 365.438 332.314C364.497 332.241 363.691 332.229 362.994 332.217C362.308 332.242 361.621 332.205 360.941 332.107C361.622 332.014 362.308 331.969 362.994 331.972C363.654 331.972 364.473 331.972 365.438 331.972C366.403 331.972 367.454 331.972 368.639 332.119C371.417 332.305 374.18 332.668 376.911 333.206C380.255 333.874 383.549 334.768 386.771 335.882C389.979 337.036 393.106 338.403 396.131 339.975C398.596 341.268 400.975 342.716 403.254 344.313C404.244 344.961 405.087 345.645 405.832 346.207C406.578 346.769 407.213 347.294 407.714 347.734C408.259 348.162 408.77 348.631 409.241 349.139Z" fill="#854646"/>
<path d="M394.212 421.229C394.283 420.921 394.377 420.619 394.493 420.325C394.664 419.726 395.031 418.883 395.337 417.747C396.321 414.563 396.98 411.288 397.304 407.972C397.808 403.08 397.598 398.141 396.681 393.309C394.528 381.317 387.887 370.595 378.108 363.325C371.507 358.325 363.793 354.996 355.626 353.624C354.478 353.391 353.549 353.343 352.938 353.245C352.623 353.222 352.312 353.165 352.01 353.074C352.323 353.057 352.637 353.057 352.95 353.074C353.573 353.135 354.502 353.147 355.663 353.343C358.999 353.807 362.276 354.626 365.438 355.786C370.121 357.48 374.528 359.86 378.512 362.849C388.448 370.17 395.179 381.041 397.304 393.199C398.207 398.096 398.376 403.099 397.805 408.045C397.431 411.372 396.702 414.649 395.63 417.82C395.275 418.956 394.872 419.787 394.652 420.361C394.541 420.667 394.393 420.958 394.212 421.229Z" fill="#854646"/>
<path d="M323.125 312.178C323.125 312.362 281.069 312.496 229.201 312.496C177.333 312.496 135.265 312.362 135.265 312.178C135.265 311.995 177.309 311.861 229.201 311.861C281.093 311.861 323.125 312.007 323.125 312.178Z" fill="#854646"/>
<path d="M134.238 274.606C132.897 274.523 131.563 274.356 130.243 274.105C127.799 273.738 124.378 273.299 120.615 272.981C116.851 272.663 113.406 272.541 110.925 272.48C109.583 272.52 108.24 272.467 106.906 272.321C108.233 272.094 109.579 272 110.925 272.04C114.187 271.975 117.45 272.081 120.7 272.358C123.937 272.628 127.159 273.06 130.353 273.653C131.675 273.849 132.976 274.168 134.238 274.606Z" fill="#854646"/>
<path d="M135.68 341.442C135.085 341.439 134.491 341.378 133.908 341.258L129.119 340.611C125.074 340.073 119.466 339.474 113.235 339.169C107.003 338.863 101.383 338.912 97.3505 339.047L92.5242 339.23C91.9306 339.28 91.3338 339.28 90.7403 339.23C91.3167 339.086 91.9062 339 92.4997 338.973C93.6361 338.839 95.2856 338.705 97.3872 338.582C108.039 337.978 118.724 338.502 129.265 340.146C131.294 340.476 132.931 340.77 134.043 341.002C134.599 341.108 135.146 341.255 135.68 341.442Z" fill="#854646"/>
<path d="M96.813 381.25C96.813 381.396 94.0149 381.8 89.7629 383.449L88.1011 384.121C87.5269 384.353 86.9648 384.671 86.3539 384.964C85.0745 385.588 83.8304 386.281 82.6272 387.041C77.0856 390.524 72.3864 395.194 68.8691 400.714C68.0994 402.009 67.3296 403.219 66.7675 404.379C66.4743 404.99 66.1566 405.601 65.9122 406.127C65.6679 406.652 65.4357 407.239 65.2158 407.776C63.5418 412.016 63.1142 414.851 62.9676 414.814C63.0232 414.147 63.1293 413.486 63.2852 412.835C63.415 412.065 63.5987 411.306 63.8351 410.562C64.1024 409.559 64.4247 408.572 64.8003 407.605L65.4602 405.919C65.6923 405.345 66.01 404.758 66.291 404.147C66.9155 402.846 67.613 401.582 68.3804 400.36C70.1526 397.56 72.2258 394.962 74.563 392.613C76.9356 390.304 79.549 388.256 82.3584 386.504C83.5864 385.75 84.8549 385.065 86.1584 384.451C86.7815 384.17 87.3802 383.865 87.9423 383.632L89.6407 382.985C90.6093 382.62 91.5963 382.306 92.5976 382.044C93.347 381.817 94.1102 381.637 94.8824 381.506C95.5171 381.364 96.1631 381.278 96.813 381.25Z" fill="#854646"/>
<g opacity="0.3">
<path opacity="0.3" d="M132.405 355.176C130.12 332.229 131.245 305.58 134.153 282.707C135.741 305.8 135.154 329.92 135.741 352.561" fill="black"/>
</g>
</g>
<path d="M272.357 185.044L217.935 257.5L197.481 203.739L197.078 180.988C197.078 180.988 166.825 177.249 165.517 147.167C164.882 132.639 166.006 102.618 167.338 75.4559C168.025 61.37 173.988 48.0586 184.042 38.1695C194.097 28.2804 207.505 22.5383 221.601 22.0853L224.509 21.9875C255.874 22.8428 272.686 49.9558 270.939 81.2964L272.32 185.044" fill="#916D69"/>
<path d="M197.005 180.951C197.005 180.951 216.078 181.904 235.897 168.573C235.897 168.573 227.344 190.567 197.188 188.746L197.005 180.951Z" fill="#6D3F39"/>
<path d="M179.19 100.553C179.21 101.678 179.67 102.75 180.472 103.538C181.274 104.327 182.354 104.768 183.479 104.768C184.027 104.793 184.574 104.708 185.089 104.518C185.603 104.328 186.074 104.037 186.475 103.663C186.876 103.289 187.197 102.838 187.422 102.337C187.646 101.837 187.767 101.297 187.78 100.748C187.758 99.6279 187.298 98.5607 186.498 97.7752C185.699 96.9896 184.624 96.5481 183.503 96.5452C182.956 96.5206 182.409 96.6053 181.895 96.7942C181.38 96.9831 180.909 97.2725 180.507 97.6455C180.106 98.0185 179.783 98.4676 179.557 98.9668C179.33 99.4659 179.206 100.005 179.19 100.553Z" fill="#263238"/>
<path d="M173.741 88.3709C174.29 88.9085 177.467 86.4037 182.098 86.2693C186.729 86.1349 190.187 88.3464 190.651 87.76C190.883 87.5034 190.309 86.5381 188.794 85.4751C186.752 84.1491 184.348 83.4915 181.915 83.5934C179.506 83.6513 177.18 84.4824 175.28 85.9638C173.948 87.1001 173.472 88.1265 173.741 88.3709Z" fill="#263238"/>
<path d="M221.601 100.553C221.623 101.675 222.085 102.744 222.887 103.53C223.689 104.316 224.767 104.756 225.889 104.756C226.437 104.781 226.984 104.695 227.499 104.506C228.013 104.316 228.485 104.025 228.885 103.651C229.286 103.276 229.608 102.826 229.832 102.325C230.056 101.825 230.178 101.284 230.19 100.736C230.168 99.6156 229.708 98.5485 228.909 97.7629C228.109 96.9774 227.035 96.5359 225.914 96.5329C225.365 96.5067 224.816 96.5905 224.301 96.7796C223.785 96.9686 223.312 97.259 222.91 97.6336C222.508 98.0083 222.185 98.4595 221.96 98.9609C221.735 99.4622 221.613 100.003 221.601 100.553Z" fill="#263238"/>
<path d="M219.792 85.6218C220.281 86.2205 223.714 84.07 228.345 84.3999C232.976 84.7298 236.153 87.3446 236.703 86.8437C236.972 86.6115 236.507 85.5607 235.114 84.3999C233.228 82.8579 230.91 81.9399 228.48 81.7729C226.079 81.5759 223.678 82.1495 221.625 83.4102C220.11 84.3755 219.548 85.353 219.792 85.6218Z" fill="#263238"/>
<path d="M204.018 124.208C204.018 123.939 201.147 123.536 196.467 123.084C195.245 122.998 194.158 122.803 193.926 121.996C193.797 120.781 194.035 119.556 194.61 118.477L197.824 109.375C202.271 96.4107 205.448 85.7684 204.935 85.5973C204.422 85.4262 200.377 95.7876 195.93 108.739C194.854 111.941 193.828 114.983 192.863 117.891C192.46 119.247 191.739 120.799 192.399 122.546C192.582 122.958 192.856 123.323 193.201 123.613C193.546 123.903 193.953 124.111 194.39 124.22C195.05 124.377 195.728 124.447 196.406 124.428C201.098 124.538 204.006 124.465 204.018 124.208Z" fill="#263238"/>
<path d="M218.534 65.6689C219.022 66.8907 223.629 66.1698 229.078 66.6464C234.528 67.1229 238.963 68.4791 239.647 67.3306C239.941 66.7808 239.146 65.62 237.338 64.4592C234.928 63.043 232.227 62.1966 229.44 61.9848C226.653 61.773 223.854 62.2015 221.258 63.2374C219.291 64.0805 218.314 65.0946 218.534 65.6689Z" fill="#263238"/>
<path d="M174.462 79.2436C175.305 80.2699 178.457 79.0725 182.294 78.9015C186.13 78.7304 189.393 79.3902 190.101 78.2661C190.419 77.7285 189.869 76.6899 188.427 75.7369C186.483 74.6095 184.248 74.0822 182.004 74.2213C179.761 74.3605 177.608 75.1598 175.818 76.5188C174.498 77.643 174.095 78.7426 174.462 79.2436Z" fill="#263238"/>
<path d="M269.253 103.669C269.754 103.424 289.743 96.8994 289.719 117.5C289.694 138.1 269.033 133.836 268.947 133.25C268.862 132.663 269.253 103.669 269.253 103.669Z" fill="#916D69"/>
<path d="M275.265 125.442C275.35 125.442 275.619 125.699 276.23 125.98C277.089 126.325 278.048 126.325 278.906 125.98C281.081 125.185 282.914 121.728 283.024 118.025C283.074 116.258 282.731 114.501 282.022 112.881C281.827 112.238 281.48 111.651 281.01 111.17C280.54 110.689 279.961 110.329 279.321 110.12C278.909 110.011 278.471 110.051 278.085 110.231C277.699 110.412 277.388 110.723 277.208 111.11C276.927 111.684 277.061 112.099 276.951 112.136C276.841 112.173 276.511 111.782 276.67 110.914C276.784 110.4 277.073 109.942 277.489 109.619C278.053 109.188 278.765 108.999 279.468 109.094C280.315 109.263 281.104 109.646 281.76 110.206C282.417 110.766 282.919 111.486 283.219 112.295C284.087 114.081 284.507 116.052 284.441 118.038C284.307 122.18 282.181 126.065 279.199 126.933C278.647 127.09 278.066 127.123 277.5 127.028C276.933 126.933 276.395 126.712 275.925 126.383C275.363 125.943 275.192 125.54 275.265 125.442Z" fill="#6D3F39"/>
<path d="M162.866 40.4009C163.648 36.3932 166.532 32.4832 170.503 31.7501C169.612 29.8398 169.393 27.6848 169.879 25.6341C170.366 23.5834 171.531 21.757 173.185 20.4507C174.839 19.1444 176.886 18.4347 178.993 18.4364C181.101 18.4381 183.147 19.1512 184.798 20.4602C184.359 14.1921 191.897 8.8892 197.64 11.4429C197.472 9.60977 197.932 7.7739 198.945 6.23678C199.958 4.69966 201.463 3.55268 203.214 2.98422C204.965 2.41576 206.857 2.45963 208.58 3.1086C210.302 3.75757 211.753 4.97306 212.693 6.55546C216.774 -0.97117 228.785 -2.32743 234.43 4.11175C238.552 2.65505 243.063 2.75671 247.115 4.39757C251.166 6.03843 254.477 9.10506 256.424 13.0191C259.782 13.1525 263.026 14.279 265.745 16.2559C268.463 18.2329 270.535 20.9716 271.697 24.1257C273.871 24.2424 275.976 24.9281 277.801 26.1142C279.627 27.3002 281.108 28.945 282.098 30.8839C283.088 32.8228 283.551 34.9877 283.441 37.1618C283.331 39.336 282.652 41.4431 281.472 43.2722C286.75 45.6182 288.094 53.829 283.818 57.7268C285.38 58.4297 286.71 59.5626 287.652 60.9932C288.595 62.4237 289.111 64.0928 289.141 65.8057C289.17 67.5186 288.712 69.2045 287.819 70.6666C286.926 72.1287 285.636 73.3067 284.099 74.063C287.141 74.344 288.473 78.3028 287.666 81.2475C286.86 84.1921 284.734 86.5992 283.622 89.4461C282.706 91.7921 282.51 94.3336 281.74 96.7773C280.993 99.0267 279.766 101.087 278.144 102.815C276.521 104.543 274.542 105.897 272.344 106.784L272.894 107.383C273.517 109.998 269.901 111.928 267.384 110.963C264.867 109.998 263.376 107.481 261.873 105.245C260.162 102.691 258.208 100.223 257.303 97.2538C256.399 94.2847 257.193 90.5702 259.881 89.0673C256.289 88.0043 253.882 84.461 253.088 80.7954C252.294 77.1298 252.844 73.3299 253.381 69.6276C254.196 64.1537 255.01 58.6839 255.825 53.2181C252.078 53.1908 248.41 52.1421 245.215 50.1851C242.02 48.228 239.419 45.4367 237.693 42.1115C232.5 46.3879 223.495 44.4818 220.477 38.4459C219.258 42.1283 216.691 45.2131 213.291 47.0807C209.891 48.9483 205.911 49.4603 202.149 48.514C203.102 52.7416 195.587 56.9448 191.433 58.1911C187.279 59.4374 181.927 56.6637 181.927 56.6637C181.927 56.6637 174.865 61.148 170.869 59.7062C166.874 58.2644 161.571 53.4869 163.99 49.3326C164.003 49.3204 162.084 44.4208 162.866 40.4009Z" fill="#263238"/>
<path d="M284.954 57.6167C284.746 57.6167 284.673 59.0463 282.999 60.3415C282.531 60.7049 281.986 60.9575 281.406 61.0802C280.826 61.2029 280.226 61.1927 279.651 61.0502C278.94 60.8657 278.291 60.4959 277.769 59.9786C277.247 59.4614 276.872 58.815 276.682 58.1055L276.401 56.8836L275.472 57.7511C274.687 58.4899 273.697 58.9744 272.632 59.1412C271.567 59.3079 270.477 59.1491 269.503 58.6856C268.53 58.222 267.72 57.4754 267.178 56.5434C266.636 55.6114 266.388 54.5376 266.467 53.4624L266.577 52.2406L265.478 52.7538C264.154 53.3267 262.66 53.3617 261.311 52.8515C260.239 52.4268 259.328 51.6742 258.708 50.701C258.219 49.7573 257.838 48.7612 257.572 47.7319C257.462 47.7319 256.986 49.0515 257.963 51.1287C258.572 52.3725 259.59 53.369 260.847 53.9512C261.661 54.3231 262.544 54.5238 263.439 54.5406C264.334 54.5574 265.224 54.39 266.052 54.0489L265.05 53.3403C264.913 54.7176 265.204 56.1036 265.883 57.3097C266.562 58.5157 267.597 59.483 268.845 60.08C270.094 60.677 271.497 60.8746 272.862 60.6459C274.227 60.4172 275.488 59.7733 276.474 58.8019L275.252 58.4476C275.519 59.4003 276.046 60.2601 276.773 60.9311C277.5 61.6021 278.399 62.0579 279.37 62.2476C280.115 62.3895 280.884 62.3528 281.612 62.1404C282.341 61.928 283.009 61.546 283.561 61.0257C285.382 59.2418 285.064 57.5434 284.954 57.6167Z" fill="#455A64"/>
<path d="M288.681 77.2398C288.571 77.1176 287.96 77.8385 286.506 78.1684C285.529 78.4108 284.502 78.3461 283.564 77.9831C282.626 77.6201 281.823 76.9765 281.264 76.1401L280.836 75.4314L280.286 76.0546C279.637 76.7548 278.817 77.2741 277.907 77.5611C276.996 77.8482 276.027 77.8933 275.094 77.6918C274.021 77.4224 273.059 76.8259 272.341 75.9852C271.623 75.1445 271.184 74.1012 271.086 72.9999L270.988 71.6437L269.864 72.4257C269.581 72.6283 269.267 72.785 268.935 72.89C268.195 73.15 267.392 73.1721 266.638 72.953C265.884 72.7339 265.218 72.2846 264.732 71.6681C264.314 71.0802 264.065 70.3894 264.011 69.6701C263.957 68.9509 264.101 68.2306 264.427 67.5871L265.16 66.2797L263.706 66.5485C262.22 66.8203 260.685 66.5619 259.37 65.8184C258.055 65.0748 257.042 63.8933 256.509 62.4798C256.16 61.3166 255.963 60.1133 255.923 58.8997C255.849 58.8386 255.092 60.256 255.727 62.7363C256.138 64.2262 257.026 65.5398 258.256 66.4752C259.061 67.0843 259.979 67.5258 260.957 67.7734C261.935 68.0211 262.953 68.0699 263.95 67.917L263.229 66.8907C262.691 67.8059 262.447 68.8644 262.53 69.9229C262.613 70.9815 263.02 71.9889 263.694 72.8088C264.369 73.6287 265.279 74.2216 266.302 74.5071C267.324 74.7926 268.41 74.757 269.412 74.4051C269.895 74.244 270.352 74.0135 270.768 73.7208L269.546 73.1588C269.646 74.4715 270.137 75.7243 270.956 76.7553C271.774 77.7863 272.883 78.5483 274.139 78.9428C275.395 79.3374 276.741 79.3464 278.002 78.9688C279.263 78.5912 280.382 77.8442 281.215 76.8243L280.238 76.751C280.628 77.337 281.132 77.8388 281.72 78.227C282.307 78.6152 282.967 78.882 283.659 79.0115C284.672 79.2234 285.724 79.1559 286.701 78.816C288.314 78.2172 288.803 77.2642 288.681 77.2398Z" fill="#455A64"/>
<path d="M200.328 10.6852C200.992 10.0772 201.762 9.59676 202.601 9.26787C203.581 8.93708 204.647 8.96742 205.606 9.35341C206.226 9.61335 206.779 10.0116 207.221 10.5177C207.664 11.0238 207.985 11.6245 208.16 12.2736L208.465 13.4955L209.052 12.4203C209.689 11.3187 210.595 10.396 211.684 9.7381C212.774 9.08016 214.012 8.70826 215.283 8.65694C216.817 8.65125 218.314 9.12686 219.564 10.0168C220.813 10.9067 221.752 12.1661 222.248 13.6177L222.676 14.9495L223.506 13.801C224.325 12.705 225.379 11.8067 226.59 11.1723C227.802 10.5379 229.141 10.1836 230.508 10.1354C232.579 10.1158 234.593 10.8168 236.205 12.1186C237.816 13.4203 238.925 15.2417 239.342 17.271L239.513 18.1019L240.319 17.8697C242.218 17.3709 244.23 17.5208 246.034 18.2955C247.838 19.0703 249.331 20.4256 250.277 22.1462C251.036 23.6968 251.332 25.4336 251.128 27.148C250.924 28.8624 250.23 30.4816 249.129 31.8111L248.359 32.6908L249.508 32.8497C252.01 33.234 254.266 34.5743 255.8 36.5886C256.971 38.1515 257.632 40.0372 257.694 41.9892C257.687 43.7041 257.377 45.4043 256.778 47.011C256.778 47.011 257.132 46.6811 257.535 45.7891C258.089 44.5761 258.384 43.2613 258.403 41.9281C258.468 39.7923 257.843 37.6925 256.619 35.941C255.811 34.7934 254.784 33.8171 253.597 33.0685C252.41 32.3198 251.087 31.8136 249.703 31.579L250.07 32.6053C251.523 30.9996 252.413 28.9638 252.605 26.8066C252.797 24.6494 252.281 22.4884 251.134 20.6511C249.988 18.8138 248.273 17.4004 246.251 16.6251C244.229 15.8497 242.009 15.7548 239.928 16.3546L240.894 16.9533C240.416 14.561 239.113 12.4124 237.212 10.8827C235.312 9.35295 232.935 8.53926 230.496 8.58364C228.902 8.6443 227.344 9.06498 225.937 9.8141C224.529 10.5632 223.31 11.6213 222.37 12.909L223.592 13.1045C223.08 11.5325 222.113 10.1475 220.815 9.12408C219.516 8.10068 217.944 7.48478 216.296 7.35408C214.648 7.22338 212.998 7.58373 211.554 8.38968C210.111 9.19563 208.938 10.4111 208.184 11.8827L209.076 11.9804C208.833 11.2057 208.411 10.4991 207.844 9.91759C207.278 9.33604 206.582 8.89585 205.814 8.63251C204.683 8.25105 203.451 8.30331 202.356 8.77914C201.693 9.04933 201.099 9.4672 200.621 10.001C200.377 10.4409 200.291 10.6852 200.328 10.6852Z" fill="#455A64"/>
<path d="M165.322 130.672C166.099 130.11 166.992 129.727 167.935 129.552C168.878 129.377 169.848 129.413 170.775 129.659C171.702 129.905 172.563 130.353 173.296 130.972C174.028 131.591 174.614 132.364 175.012 133.237C175.817 131.966 176.963 130.946 178.319 130.295C179.676 129.644 181.189 129.387 182.684 129.554C184.18 129.721 185.598 130.305 186.778 131.239C187.958 132.173 188.851 133.42 189.356 134.838C190.444 130.391 197.249 128.814 200.182 132.321C200.711 131.38 201.52 130.627 202.496 130.167C203.473 129.707 204.569 129.563 205.631 129.755C205.447 128.753 205.568 127.719 205.98 126.786C206.391 125.854 207.073 125.067 207.937 124.527C208.801 123.987 209.807 123.719 210.825 123.758C211.843 123.797 212.826 124.141 213.647 124.746C214.207 123.715 214.981 122.815 215.917 122.106C216.852 121.398 217.927 120.896 219.072 120.635C220.216 120.374 221.402 120.359 222.552 120.591C223.703 120.824 224.79 121.299 225.743 121.984C225.978 121 226.532 120.122 227.319 119.485C228.106 118.849 229.081 118.492 230.092 118.468C231.104 118.444 232.094 118.756 232.91 119.354C233.726 119.953 234.321 120.805 234.601 121.776C235.53 120.472 236.853 119.501 238.375 119.006C239.898 118.511 241.539 118.518 243.057 119.027C243.055 118.296 243.214 117.573 243.524 116.911C243.834 116.248 244.287 115.663 244.849 115.195C245.412 114.728 246.071 114.392 246.78 114.209C247.488 114.027 248.228 114.003 248.946 114.14C248.078 111.696 251.732 110.279 253.528 108.336C254.334 107.469 254.811 106.332 255.691 105.538C256.57 104.744 258.134 104.487 258.806 105.465C258.491 104.452 258.565 103.359 259.014 102.398C259.463 101.438 260.255 100.68 261.234 100.273C262.213 99.8657 263.309 99.8393 264.306 100.199C265.304 100.558 266.131 101.277 266.626 102.215C267.1 103.358 267.408 104.564 267.543 105.795C268.349 109.692 270.842 114.238 268.154 117.182C267.677 117.708 267.042 118.148 266.871 118.832C266.577 120.054 267.763 121.007 267.909 122.204C268.056 123.402 266.883 124.721 266.382 126.029C265.661 127.971 266.553 130.085 266.834 132.138C267.115 134.19 266.089 136.879 264.024 136.793C264.84 138.273 265.113 139.991 264.797 141.651C264.48 143.312 263.593 144.809 262.289 145.884C262.697 146.74 262.928 147.67 262.969 148.618C263.01 149.566 262.859 150.512 262.526 151.401C262.193 152.289 261.685 153.101 261.031 153.789C260.377 154.476 259.591 155.025 258.721 155.402C260.15 156.416 260.187 158.664 259.271 160.155C258.226 161.577 256.839 162.712 255.239 163.454C255.579 163.663 255.874 163.937 256.108 164.26C256.341 164.584 256.509 164.951 256.599 165.339C256.69 165.728 256.703 166.131 256.637 166.524C256.572 166.918 256.428 167.295 256.216 167.633C255.285 168.962 253.912 169.919 252.343 170.333C251.658 170.475 251.045 170.851 250.608 171.396C249.936 172.508 251.011 173.901 250.877 175.184C250.693 177.163 247.968 177.896 247.211 179.753C246.576 181.403 247.663 183.59 246.453 184.885C245.671 185.716 244.34 185.655 243.277 186.107C241.395 186.901 240.674 189.125 239.538 190.823C237.412 194.049 233.575 195.625 229.897 196.798C228.028 197.385 226.134 197.922 224.24 198.399C220.44 199.34 216.579 200.049 212.73 200.745C210.812 201.099 208.441 201.27 207.33 199.682C204.886 203.14 198.679 202.785 196.589 199.059C193.18 200.195 189.478 198.949 186.106 197.715L182.636 196.407C179.154 195.186 175.305 193.463 174.083 189.968C172.99 189.807 171.946 189.407 171.026 188.795C170.105 188.183 169.332 187.375 168.761 186.429C168.19 185.483 167.835 184.422 167.722 183.323C167.609 182.224 167.741 181.113 168.108 180.071C166.593 180.609 164.992 179.13 164.65 177.554C164.493 175.95 164.605 174.332 164.98 172.764C165.762 166.252 161.95 159.898 162.451 153.361C162.793 148.792 165.224 144.136 163.673 139.823C163.25 138.977 162.981 138.063 162.878 137.123C162.878 136.182 163.685 135.156 164.601 135.376C164.338 134.736 164.236 134.042 164.306 133.354C164.375 132.666 164.613 132.006 164.998 131.432C165.384 130.858 165.905 130.388 166.516 130.063C167.126 129.739 167.808 129.57 168.499 129.572" fill="#263238"/>
<path d="M205.598 143.259C206.33 143.455 207.482 138.59 212.488 136.098C217.495 133.607 222.563 135.37 222.755 134.7C222.837 134.393 221.818 133.475 219.632 132.902C216.777 132.189 213.763 132.506 211.119 133.796C208.573 135.048 206.62 137.251 205.681 139.929C204.996 141.87 205.255 143.217 205.598 143.259Z" fill="white"/>
<path d="M249.178 160.521C248.922 160.448 250.742 155.793 250.473 149.781C250.205 143.77 248.091 139.261 248.347 139.176C248.987 140.053 249.475 141.032 249.789 142.071C250.675 144.538 251.178 147.126 251.28 149.745C251.392 152.366 251.091 154.988 250.388 157.516C250.167 158.582 249.757 159.6 249.178 160.521Z" fill="#455A64"/>
<path d="M253.466 152.983C253.356 152.897 254.041 152.14 254.468 150.637C254.939 148.632 254.985 146.551 254.603 144.527C253.943 139.64 252.379 135.974 252.599 135.974C252.819 135.974 254.725 139.493 255.409 144.527C255.812 146.657 255.678 148.853 255.018 150.918C254.407 152.421 253.503 153.056 253.466 152.983Z" fill="#455A64"/>
<path d="M258.256 148.523C258.012 148.425 260.028 144.589 259.881 139.445C259.735 134.301 257.682 130.525 257.926 130.427C258.572 131.126 259.052 131.961 259.331 132.871C260.198 134.965 260.662 137.203 260.7 139.469C260.739 141.735 260.358 143.989 259.576 146.116C259.306 147 258.856 147.82 258.256 148.523Z" fill="#455A64"/>
<path d="M176.502 184.274C175.357 184.069 174.312 183.489 173.533 182.625C171.605 180.632 170.217 178.18 169.501 175.501C168.651 172.887 168.238 170.15 168.279 167.4C168.221 166.266 168.375 165.131 168.731 164.053C168.988 164.053 168.291 169.258 170.222 175.257C170.583 177.108 171.324 178.865 172.396 180.416C173.468 181.968 174.849 183.281 176.453 184.274H176.502Z" fill="#455A64"/>
<path d="M180.815 182.967C179.896 182.671 179.06 182.165 178.371 181.489C176.62 179.986 175.21 178.126 174.239 176.033C173.267 173.94 172.755 171.663 172.738 169.356C172.674 168.403 172.82 167.447 173.166 166.557C173.278 167.478 173.327 168.404 173.313 169.331C173.486 171.535 174.049 173.69 174.974 175.697C175.917 177.691 177.199 179.506 178.762 181.061C180.057 182.197 180.888 182.808 180.815 182.967Z" fill="#455A64"/>
<path d="M196.932 141.228C196.736 141.314 195.979 139.591 196.296 137.355C196.614 135.119 197.811 133.69 197.97 133.824C198.129 133.958 197.371 135.449 197.103 137.49C196.834 139.53 197.164 141.155 196.932 141.228Z" fill="#455A64"/>
<path d="M202.051 139.664C201.929 139.848 200.572 138.772 200.145 136.781C199.717 134.789 200.462 133.25 200.658 133.36C200.853 133.47 200.536 134.887 200.927 136.61C201.318 138.333 202.234 139.506 202.051 139.664Z" fill="#455A64"/>
<path d="M206.018 137.972C205.831 138.083 205.046 136.701 205.13 134.805C205.214 132.91 206.109 131.594 206.33 131.732C206.551 131.871 206.049 133.157 205.99 134.853C205.932 136.548 206.251 137.88 206.018 137.972Z" fill="#455A64"/>
<path d="M210.604 133.274C210.421 133.396 209.761 132.712 209.309 131.637C208.857 130.562 208.857 129.621 209.077 129.572C209.297 129.523 209.651 130.342 210.067 131.331C210.482 132.321 210.849 133.14 210.604 133.274Z" fill="#455A64"/>
<path d="M213.805 131.38C213.598 131.49 212.84 130.525 211.643 129.706C210.445 128.888 209.272 128.484 209.321 128.252C209.37 128.02 210.738 128.081 212.107 129.034C213.475 129.987 214.001 131.282 213.805 131.38Z" fill="#455A64"/>
<path d="M218.4 127.372C218.253 127.568 216.811 126.529 214.734 126.151C212.657 125.772 210.947 126.151 210.885 125.882C210.824 125.613 212.596 124.88 214.893 125.344C217.19 125.808 218.559 127.238 218.4 127.372Z" fill="#455A64"/>
<path d="M202.968 187.024C202.029 186.31 201.237 185.422 200.634 184.409C197.391 179.651 196.109 173.826 197.054 168.146C197.187 166.976 197.535 165.841 198.08 164.798C197.987 165.949 197.837 167.095 197.628 168.231C197.329 170.978 197.477 173.755 198.068 176.454C198.667 179.15 199.694 181.733 201.11 184.103C202.21 185.924 203.078 186.938 202.968 187.024Z" fill="#455A64"/>
<path d="M208.233 186.388C208.136 186.559 205.008 183.835 203.346 179.155C201.684 174.475 202.405 170.406 202.589 170.48C202.772 170.553 202.503 174.426 204.116 178.886C205.729 183.346 208.429 186.229 208.233 186.388Z" fill="#455A64"/>
<path d="M217.398 184.006C217.398 184.103 216.482 183.859 215.211 183.114C213.571 182.102 212.153 180.768 211.044 179.191C209.924 177.625 209.138 175.845 208.735 173.962C208.504 173.193 208.466 172.379 208.625 171.592C208.869 171.592 209.163 175.257 211.704 178.727C214.246 182.197 217.532 183.786 217.398 184.006Z" fill="#455A64"/>
</svg>
