<svg width="480" height="480" viewBox="0 0 480 480" fill="none" xmlns="http://www.w3.org/2000/svg">
<circle cx="240" cy="270" r="210" fill="#E6EAF7"/>
<mask id="mask0_3993:37252" style="mask-type:alpha" maskUnits="userSpaceOnUse" x="0" y="0" width="480" height="480">
<path fill-rule="evenodd" clip-rule="evenodd" d="M480 0H0V275H30.0595C31.3414 328.884 53.305 380.29 91.5076 418.492C130.89 457.875 184.305 480 240 480C295.695 480 349.11 457.875 388.492 418.492C426.695 380.29 448.659 328.884 449.941 275H480V0Z" fill="white"/>
</mask>
<g mask="url(#mask0_3993:37252)">
<path d="M322.012 59.001C317.886 54.3466 312.854 49.93 311.495 43.8317C310.254 38.226 312.317 31.9408 309.5 26.8447C306.011 20.7124 297.071 20.05 292.861 14.3763C290.815 11.6414 290.16 8.05717 288.148 5.30529C284.793 0.616891 278.185 -0.538221 272.448 0.209205C266.712 0.95663 261.244 3.06301 255.491 3.60659C247.608 4.26908 239.439 1.78898 231.892 4.18414C223.505 6.81712 218.557 14.3763 213.207 21.7147L206.229 30.2082C204.805 31.6769 203.243 33.0024 201.566 34.1661C198.614 36.1536 195.209 37.5635 192.677 40.0776C191.395 41.476 190.406 43.1229 189.77 44.9188C189.133 46.7147 188.863 48.6225 188.974 50.5273C189.085 52.432 189.576 54.2942 190.417 56.0016C191.258 57.709 192.432 59.2263 193.868 60.4619C190.855 61.5581 188.27 63.6061 186.494 66.3039C184.718 69.0016 183.845 72.2061 184.005 75.4444C184.541 78.9451 185.493 82.3673 186.84 85.6366C187.93 89.0339 188.618 92.7711 187.259 96.0496C185.9 99.328 181.825 101.621 178.755 99.9056C179.346 102.2 180.433 104.333 181.939 106.149C183.445 107.965 185.331 109.418 187.46 110.404C185.805 112.15 183.557 113.194 181.171 113.325C187.779 128.461 205.307 136.207 221.643 136.054C237.98 135.901 253.512 129.395 268.607 123.008L312.418 110.777C316.276 109.826 317.802 105.053 317.685 101.044C317.567 97.0348 316.511 92.873 317.869 89.1529C319.748 84.0568 325.601 81.169 327.547 76.0389C329.744 70.0765 326.138 63.6555 322.012 59.001Z" fill="#2D2F34"/>
<path d="M258.847 11.3356L256.431 11.2336C230.249 11.6413 215.975 34.3868 217.099 60.8695L216.126 152.089C216.037 160.038 218.965 167.718 224.306 173.544C229.646 179.369 236.991 182.896 244.824 183.396V183.396C248.88 183.658 252.947 183.099 256.788 181.753C260.628 180.407 264.166 178.3 267.194 175.556C270.223 172.811 272.682 169.483 274.428 165.767C276.173 162.05 277.172 158.018 277.364 153.907C277.599 149.117 277.766 145.753 277.783 145.753C277.8 145.753 303.043 142.899 304.435 117.504C305.106 105.239 304.435 79.8609 303.596 56.8945C303.156 44.9945 298.307 33.6989 290.014 25.2564C281.722 16.8139 270.594 11.8438 258.847 11.3356V11.3356Z" fill="#FFBE9D"/>
<path d="M277.782 145.753C266.196 145.22 255.002 141.336 245.528 134.559C245.528 134.559 252.237 153.449 277.397 152.243L277.782 145.753Z" fill="#EB996E"/>
<path d="M293.08 77.211C293.049 78.1573 292.655 79.0542 291.982 79.7109C291.308 80.3676 290.409 80.7322 289.474 80.7273C289.016 80.7551 288.558 80.6879 288.128 80.5296C287.697 80.3714 287.303 80.1256 286.97 79.8073C286.637 79.489 286.372 79.105 286.191 78.6789C286.01 78.2528 285.917 77.7937 285.918 77.3299C285.948 76.3836 286.342 75.4867 287.016 74.83C287.689 74.1733 288.589 73.8087 289.524 73.8136C289.981 73.7858 290.439 73.8531 290.87 74.0113C291.3 74.1695 291.694 74.4154 292.027 74.7336C292.36 75.0519 292.626 75.4359 292.807 75.862C292.988 76.2881 293.081 76.7472 293.08 77.211Z" fill="#2D2F34"/>
<path d="M297.793 67.2057C297.323 67.6644 294.706 65.507 290.849 65.3542C286.991 65.2013 284.14 67.0528 283.687 66.5262C283.485 66.3054 283.972 65.4731 285.247 64.6237C286.961 63.5225 288.972 62.9883 291 63.0949C293.004 63.1763 294.931 63.9022 296.501 65.1673C297.658 66.1356 298.011 66.9339 297.793 67.2057Z" fill="#2D2F34"/>
<path d="M256.498 77.2111C256.463 78.1589 256.066 79.0559 255.39 79.7121C254.714 80.3684 253.812 80.7325 252.875 80.7274C252.422 80.741 251.97 80.6639 251.545 80.5004C251.121 80.337 250.733 80.0905 250.402 79.775C250.072 79.4595 249.806 79.0812 249.621 78.6616C249.435 78.2421 249.333 77.7896 249.32 77.33C249.359 76.3852 249.758 75.4926 250.434 74.8399C251.109 74.1873 252.009 73.8255 252.942 73.8307C253.398 73.803 253.855 73.8697 254.284 74.0269C254.714 74.1841 255.107 74.4284 255.44 74.7449C255.773 75.0614 256.038 75.4433 256.22 75.8674C256.402 76.2915 256.497 76.7487 256.498 77.2111Z" fill="#2D2F34"/>
<path d="M259.953 67.1546C259.483 67.5963 256.85 65.4559 253.009 65.2861C249.168 65.1162 246.3 66.9847 245.847 66.4751C245.645 66.2543 246.132 65.405 247.407 64.5556C249.126 63.4647 251.133 62.9313 253.16 63.0268C255.169 63.1093 257.101 63.8348 258.678 65.0992C259.818 66.0674 260.187 66.9338 259.953 67.1546Z" fill="#2D2F34"/>
<path d="M272.516 97.7481C274.575 97.1988 276.693 96.9079 278.822 96.8817C279.812 96.8817 280.751 96.6609 280.953 95.9984C281.078 94.9698 280.891 93.9268 280.416 93.0087L277.833 85.2797C274.244 74.3061 271.694 65.286 272.13 65.1501C272.566 65.0142 275.837 73.7965 279.41 84.77C280.282 87.488 281.104 90.0756 281.875 92.5331C282.453 93.7622 282.578 95.1599 282.227 96.474C282.068 96.8182 281.835 97.122 281.545 97.363C281.254 97.604 280.915 97.7762 280.55 97.867C279.999 97.9859 279.436 98.0372 278.873 98.0199C274.948 98.0708 272.516 97.9859 272.516 97.7481Z" fill="#2D2F34"/>
<path d="M258.879 107.436C259.189 107.98 262.722 105.718 267.166 107.16C271.61 108.603 273.594 112.66 274.038 112.42C274.27 112.284 274.195 111.132 273.218 109.487C271.934 107.339 269.936 105.725 267.583 104.936C265.346 104.184 262.909 104.343 260.786 105.379C259.29 106.254 258.699 107.188 258.879 107.436Z" fill="#2D2F34"/>
<path d="M260.389 51.289C259.953 52.3422 256.129 51.6627 251.583 52.0194C247.038 52.3762 243.314 53.4633 242.761 52.4951C242.509 52.0194 243.197 51.0512 244.706 50.0829C246.721 48.8913 248.986 48.1987 251.315 48.0615C253.641 47.8705 255.978 48.2552 258.125 49.1826C259.802 49.947 260.607 50.7964 260.389 51.289Z" fill="#2D2F34"/>
<path d="M296.751 54.1596C296.03 55.0089 293.397 53.9727 290.226 53.8029C287.056 53.633 284.289 54.1426 283.719 53.1913C283.467 52.7157 283.92 51.8494 285.144 51.068C286.76 50.0946 288.64 49.6664 290.512 49.8449C292.386 49.9602 294.179 50.6604 295.644 51.8493C296.734 52.8176 297.07 53.7349 296.751 54.1596Z" fill="#2D2F34"/>
<path d="M218.357 79.776C217.938 79.5721 201.333 73.8645 201.148 91.2592C200.964 108.654 218.24 105.256 218.273 104.747C218.307 104.237 218.357 79.776 218.357 79.776Z" fill="#FFBE9D"/>
<path d="M213.107 98.1049C213.023 98.1049 212.805 98.3088 212.285 98.5466C211.57 98.8421 210.769 98.8421 210.054 98.5466C208.243 97.8501 206.7 94.9114 206.7 91.7518C206.669 90.2584 206.973 88.7775 207.589 87.4201C207.753 86.8781 208.045 86.3846 208.439 85.9821C208.834 85.5797 209.319 85.2804 209.853 85.1099C210.198 85.0176 210.565 85.0523 210.887 85.2078C211.21 85.3633 211.467 85.6296 211.614 85.9593C211.849 86.4519 211.731 86.8086 211.815 86.8256C211.899 86.8426 212.184 86.5538 212.067 85.8234C211.975 85.3927 211.738 85.0081 211.396 84.7362C211.162 84.547 210.893 84.4075 210.605 84.3257C210.317 84.244 210.015 84.2219 209.719 84.2606C209.013 84.3968 208.352 84.7133 207.801 85.1799C207.249 85.6466 206.824 86.2481 206.565 86.9275C205.813 88.4256 205.439 90.0887 205.475 91.7688C205.475 95.2681 207.27 98.5636 209.752 99.328C210.21 99.4686 210.694 99.5034 211.167 99.4299C211.64 99.3564 212.091 99.1765 212.486 98.9033C213.056 98.5296 213.157 98.1389 213.107 98.1049Z" fill="#EB996E"/>
<path d="M217.786 28.7812C220.499 23.7999 224.325 19.5302 228.957 16.3128C233.838 12.1506 239.44 8.94237 245.478 6.85103C250.186 5.17858 255.174 4.46759 260.155 4.75916C265.135 5.05073 270.009 6.33907 274.495 8.54973C277.757 10.1999 280.573 12.6314 282.697 15.6333C288.853 19.5063 294.975 26.7258 292.543 28.0847L289.188 24.4325C289.188 24.4325 287.712 27.5411 281.489 32.3145C281.347 32.4243 281.196 32.5209 281.037 32.6032C280.481 33.0151 279.879 33.3574 279.242 33.6225L278.89 33.8433C271.56 36.3234 266.796 35.3211 259.5 32.7391C254.468 31.0404 249.856 28.0507 244.958 25.9443C240.644 25.9348 236.472 27.5101 233.217 30.3779C232.706 30.8094 232.234 31.2871 231.808 31.8049C230.993 33.0745 230.461 34.5089 230.25 36.0081C230.038 37.5073 230.152 39.0352 230.584 40.4852C231.255 43.4409 232.597 46.1758 233.435 49.0806C234.962 54.4145 234.727 60.0881 234.475 65.6259C234.123 73.4399 233.687 81.5766 229.896 88.3714C228.219 91.5649 224.277 94.7415 221.141 91.3441C219.877 89.8795 219.238 87.9679 219.363 86.0272C219.581 80.7273 214.985 78.2811 212.654 74.4421C210.859 71.1622 209.967 67.4546 210.071 63.7064C209.535 51.5773 212.198 39.5226 217.786 28.7812V28.7812Z" fill="#2D2F34"/>
<path d="M218.356 150.391C218.356 150.391 239.004 169.79 255.642 169.688C272.281 169.586 276.273 160.753 276.273 160.753L285.649 172.83C285.649 172.83 286.521 251.633 287.561 252.992C288.601 254.351 277.783 261.23 277.783 261.23L222.566 180.967L218.356 150.391Z" fill="#0031B2"/>
<path d="M335.297 439.882C335.297 439.882 343.113 437.283 345.244 429.945C347.374 422.607 341.537 349.257 341.537 349.257L337.142 344.84L340.497 342.105V318.816L332.681 269.758C332.681 269.758 324.982 202.371 315.639 197.547L301.148 264.271L311.799 420.755L335.297 439.882Z" fill="white"/>
<path d="M276.274 160.753L277.364 153.958C279.88 155.945 286.555 166.528 286.555 166.528C295.73 174.376 314.868 194.217 318.34 201.98C323.372 213.005 323.791 263.609 323.791 263.609L321.342 513.894L156.063 514.149L158.73 400.761L163.98 177.06L204.553 156.387L215.422 144.275L283.771 257.086L283.285 181.12C283.247 173.731 280.78 166.565 276.274 160.753V160.753Z" fill="white"/>
<path d="M101.987 365.989C97.6976 357.484 96.8318 347.626 99.5715 338.487C108.864 307.028 137.78 209.658 143.047 197.496C148.833 184.195 165.321 176.279 165.321 176.279L190.698 243.785L184.241 275.245L160.994 342.479L229.024 423.082L180.383 463.579C180.383 463.579 107.069 375.757 102.121 366.227L101.987 365.989Z" fill="white"/>
<path d="M280.516 430.556C279.996 430.369 262.737 433.529 259.466 432.663C253.426 430.966 247.253 429.796 241.016 429.163C233.083 428.467 224.377 426.989 224.377 426.989L190.832 454.95L204.636 459.91C211.799 460.598 219.026 459.765 225.853 457.464C238.282 453.625 258.46 443.144 258.46 443.144C263.072 443.323 267.692 443.09 272.264 442.447C278.118 441.394 287.779 433.359 280.516 430.556Z" fill="#FFBE9D"/>
<path d="M286.522 514.098C286.496 513.872 286.496 513.645 286.522 513.419V511.397V503.685C286.522 496.89 286.622 487.225 286.689 475.266C286.857 451.281 287.259 418.139 287.192 381.532C287.192 363.237 286.991 345.859 286.689 329.943C286.522 322.01 286.354 314.468 286.186 307.418C286.018 300.368 285.582 293.829 285.314 287.832C284.811 275.941 284.391 266.191 284.106 259.447C283.989 256.134 283.888 253.535 283.821 251.718C283.821 250.869 283.821 250.206 283.821 249.713C283.792 249.488 283.792 249.259 283.821 249.034C283.821 249.034 283.821 249.255 283.821 249.713C283.821 250.172 283.821 250.869 283.955 251.718C284.073 253.518 284.224 256.117 284.408 259.43C284.76 266.225 285.28 275.856 285.901 287.798C286.203 293.795 286.522 300.351 286.891 307.401C287.26 314.451 287.26 321.993 287.461 329.926C287.796 345.775 287.997 363.22 288.031 381.532C288.031 418.139 287.595 451.281 287.276 475.266C287.092 487.157 286.941 496.924 286.823 503.685C286.823 506.998 286.706 509.597 286.672 511.397C286.672 512.247 286.672 512.926 286.672 513.419C286.644 513.65 286.593 513.877 286.522 514.098V514.098Z" fill="#2D2F34"/>
<path d="M204.553 156.336C204.77 156.563 204.961 156.814 205.123 157.084L206.649 159.36C207.991 161.416 209.887 164.32 212.268 167.939L231.607 197.937L231.373 197.751L245.864 201.42L246.384 201.556L246.149 202.048C244.472 205.259 242.795 208.622 241.118 212.037C240.866 212.563 240.598 213.09 240.346 213.565V213.107L272.131 254.861C276.106 260.161 279.343 264.475 281.641 267.516L284.19 270.913L284.828 271.831C284.979 272.035 285.046 272.153 285.029 272.17C284.927 272.087 284.836 271.99 284.761 271.882L284.039 271.032L281.372 267.635L271.644 255.133L239.658 213.531L239.491 213.311L239.625 213.073C239.86 212.58 240.128 212.054 240.396 211.527L245.428 201.539L245.697 202.167L231.222 198.464H231.054L230.97 198.328L211.883 168.159L206.465 159.445L205.056 157.118C204.87 156.87 204.702 156.609 204.553 156.336V156.336Z" fill="#2D2F34"/>
<path d="M284.945 272.238C285.026 271.846 285.15 271.465 285.314 271.1C285.565 270.37 286.035 269.401 286.505 267.924C287.494 265.155 288.769 261.129 290.144 256.033C292.878 245.841 295.998 231.436 298.732 215.264V215.553L297.457 213.463L290.614 202.15L290.077 201.267L291.067 201.505L299.202 203.492L298.715 204.019C295.109 193.113 292.006 183.77 289.792 177.06L287.31 169.28L286.723 167.157C286.632 167.14 286.551 167.089 286.496 167.015C286.44 166.941 286.414 166.848 286.422 166.755C286.431 166.663 286.473 166.576 286.541 166.513C286.609 166.451 286.698 166.416 286.79 166.416C286.882 166.416 286.971 166.451 287.039 166.513C287.107 166.576 287.149 166.663 287.157 166.755C287.166 166.848 287.139 166.941 287.084 167.015C287.028 167.089 286.947 167.14 286.857 167.157C287.058 167.701 287.293 168.363 287.612 169.195C288.266 171.081 289.188 173.663 290.312 176.891C292.61 183.583 295.814 192.892 299.537 203.764L299.789 204.46L299.068 204.29L290.933 202.354L291.386 201.708C293.6 205.327 295.897 209.115 298.262 213.005L299.537 215.094V215.247V215.4C297.281 229.135 294.325 242.743 290.681 256.169C289.222 261.265 287.846 265.325 286.756 268.059C286.253 269.452 285.733 270.472 285.431 271.185C285.289 271.545 285.126 271.897 284.945 272.238Z" fill="#2D2F34"/>
<path d="M332.361 408.677C332.361 408.677 319.866 409.527 315.907 411.361C311.949 413.196 309.198 419.396 306.045 421.961C302.891 424.526 298.212 425.8 299.336 428.994C300.107 430.738 301.508 432.118 303.251 432.85C304.994 433.583 306.947 433.613 308.712 432.935C311.672 431.784 314.567 430.468 317.383 428.994H337.225C337.225 428.994 341.201 413.094 341.57 413.332C341.939 413.57 335.951 408.66 332.361 408.677Z" fill="#FFBE9D"/>
<path d="M322.9 238.196C323.135 238.196 323.336 276.553 323.336 323.861C323.336 371.17 323.135 409.544 322.9 409.544C322.666 409.544 322.464 371.187 322.464 323.861C322.464 276.536 322.649 238.196 322.9 238.196Z" fill="#2D2F34"/>
<path d="M139.441 414.028C139.441 414.028 139.726 414.3 140.212 414.877L142.426 417.459C144.355 419.787 147.173 423.133 150.813 427.397C157.991 436.043 168.273 448.393 180.735 463.409H180.249L228.806 422.844V423.473L213.14 404.923L160.826 342.819L160.692 342.649V342.445C167.753 322.265 173.607 305.482 177.716 293.71L182.53 280.12L183.821 276.57C184.123 275.754 184.291 275.347 184.291 275.347C184.291 275.347 184.19 275.788 183.922 276.604C183.654 277.419 183.251 278.659 182.748 280.205C181.658 283.381 180.098 288.002 178.119 293.794L161.346 342.632V342.258L213.761 404.278L229.41 422.827L229.695 423.167L229.36 423.456L180.718 463.902L180.45 464.123L180.232 463.851L150.527 427.635L142.359 417.578L140.229 414.928C139.625 414.351 139.441 414.028 139.441 414.028Z" fill="#2D2F34"/>
<path d="M153.814 185.554C154.047 185.513 154.286 185.513 154.519 185.554C154.988 185.554 155.676 185.554 156.565 185.554C159.073 185.654 161.566 185.99 164.012 186.556C172.161 188.388 179.632 192.514 185.567 198.459C191.502 204.403 195.658 211.924 197.558 220.156C198.157 222.624 198.522 225.144 198.648 227.681C198.648 228.582 198.648 229.278 198.648 229.754C198.688 229.99 198.688 230.231 198.648 230.467C198.488 229.558 198.387 228.638 198.346 227.715C198.08 225.216 197.632 222.741 197.004 220.309C194.975 212.256 190.817 204.916 184.978 199.076C179.138 193.237 171.838 189.12 163.861 187.168C161.46 186.552 159.015 186.126 156.548 185.894C155.63 185.846 154.717 185.732 153.814 185.554Z" fill="#2D2F34"/>
<path d="M134.793 347.558C135.777 346.61 136.911 345.835 138.148 345.265C143.904 342.152 150.512 341.048 156.95 342.122C158.29 342.259 159.596 342.633 160.808 343.226C151.903 341.433 142.657 342.979 134.793 347.575V347.558Z" fill="#2D2F34"/>
<path d="M322.162 428.994H338.884L318.002 492.474L311.796 448.172L322.162 428.994Z" fill="white"/>
<path d="M317.417 428.994C317.926 428.904 318.443 428.864 318.96 428.875L323.337 428.773L338.953 428.62H339.473L339.305 429.13C337.276 435.364 334.877 442.719 332.328 450.55C328.503 462.169 324.998 472.633 322.415 480.26L319.312 489.246L318.423 491.659C318.34 491.95 318.222 492.229 318.071 492.491C318.09 492.189 318.152 491.892 318.255 491.608L318.993 489.128C319.698 486.868 320.671 483.794 321.828 480.074C324.26 472.429 327.665 461.881 331.489 450.261L338.584 428.892L338.953 429.384L323.337 429.232L318.96 429.13C318.442 429.135 317.925 429.09 317.417 428.994V428.994Z" fill="#2D2F34"/>
<path d="M322.901 409.543C323.52 409.251 324.174 409.045 324.847 408.932C326.672 408.494 328.54 408.266 330.416 408.252C333.238 408.177 336.031 408.85 338.517 410.206C341.469 412.089 343.69 414.944 344.807 418.292C347.407 425.324 345.444 432.731 341.939 436.128C340.585 437.457 338.998 438.517 337.259 439.253C336.641 439.564 335.979 439.776 335.297 439.882C335.879 439.531 336.485 439.218 337.108 438.948C338.735 438.105 340.219 437.004 341.502 435.686C344.673 432.408 346.534 425.307 343.985 418.614C342.953 415.441 340.874 412.724 338.098 410.919C335.746 409.584 333.095 408.882 330.399 408.881C327.888 408.929 325.383 409.15 322.901 409.543V409.543Z" fill="#2D2F34"/>
<path d="M196.653 458.042C199.637 459.159 202.769 459.823 205.945 460.012C209.388 460.15 212.835 459.824 216.193 459.044C220.316 458.056 224.368 456.785 228.32 455.239C236.807 452.045 244.506 449.191 250.125 447.187L256.75 444.826C257.556 444.51 258.387 444.26 259.232 444.078C258.481 444.513 257.688 444.871 256.867 445.148L250.326 447.764C244.791 449.939 237.126 452.86 228.639 456.071C224.648 457.63 220.55 458.891 216.378 459.842C212.948 460.599 209.431 460.868 205.928 460.641C203.567 460.482 201.241 459.984 199.018 459.163C198.41 458.947 197.816 458.691 197.24 458.398C196.77 458.194 196.653 458.075 196.653 458.042Z" fill="#2D2F34"/>
<path d="M200.192 513.453C199.957 513.453 198.749 502.989 197.508 490.028C196.267 477.067 195.445 466.535 195.68 466.518C195.915 466.501 197.123 476.982 198.38 489.943C199.638 502.904 200.444 513.419 200.192 513.453Z" fill="#2D2F34"/>
<path d="M244.942 511.329C244.942 511.244 245.831 510.973 247.374 510.293C249.538 509.346 251.528 508.037 253.262 506.42C255.799 503.97 257.844 501.046 259.283 497.808C261.057 493.84 262.309 489.654 263.007 485.356C264.271 477.498 264.699 469.525 264.281 461.575C264.147 458.517 263.98 456.054 263.862 454.355C263.752 453.471 263.713 452.579 263.745 451.688C263.975 452.544 264.127 453.42 264.198 454.304C264.432 456.003 264.684 458.483 264.902 461.541C265.491 469.532 265.148 477.566 263.879 485.475C263.15 489.844 261.847 494.095 260.004 498.114C258.496 501.439 256.346 504.424 253.681 506.896C251.867 508.523 249.768 509.791 247.492 510.633C246.885 510.87 246.263 511.063 245.63 511.211C245.407 511.283 245.176 511.322 244.942 511.329V511.329Z" fill="#2D2F34"/>
<path d="M196.753 462.016C196.871 461.915 198.213 463.715 200.678 466.144C207.1 472.688 214.99 477.56 223.674 480.345C227.028 481.416 229.125 481.84 229.108 482.044C228.595 482.062 228.082 482.011 227.582 481.891C226.206 481.679 224.844 481.379 223.506 480.991C219.061 479.753 214.809 477.888 210.876 475.453C206.94 473.021 203.356 470.048 200.225 466.62C199.282 465.59 198.397 464.507 197.575 463.375C197.239 462.965 196.962 462.507 196.753 462.016V462.016Z" fill="#2D2F34"/>
<path d="M255.643 273.189C256.265 273.708 256.764 274.362 257.101 275.103C257.438 275.845 257.604 276.654 257.588 277.47C257.421 280.103 257.588 298.041 257.588 298.041C257.588 298.041 258.242 300.674 255.643 300.674V273.189Z" fill="#F28080"/>
<path d="M256.162 270.268H250.728V279.271H256.162V270.268Z" fill="#F28080"/>
<path d="M251.819 271.304H255.174V267.906C255.174 267.456 254.997 267.024 254.682 266.705C254.368 266.387 253.941 266.208 253.496 266.208C253.051 266.208 252.625 266.387 252.31 266.705C251.996 267.024 251.819 267.456 251.819 267.906V271.304Z" fill="#F28080"/>
<path d="M209.735 278.727C209.735 278.472 221.928 278.285 236.957 278.285C251.985 278.285 264.196 278.472 264.196 278.727C264.196 278.982 252.002 279.169 236.957 279.169C221.912 279.169 209.735 278.965 209.735 278.727Z" fill="#2D2F34"/>
<g opacity="0.2">
<path opacity="0.2" d="M280.299 266.14L277.783 263.728L231.96 219.358L236.975 204.817H229.025L213.091 169.688L231.272 198.158L245.764 201.844L239.927 213.361" fill="black"/>
</g>
<g opacity="0.2">
<path opacity="0.2" d="M242.089 325.934C246.63 325.766 251.048 324.395 254.903 321.959C258.347 319.141 260.877 315.342 262.166 311.053C261.849 314.995 261.135 318.894 260.036 322.689C258.903 326.228 256.644 329.287 253.612 331.386C250.056 333.629 245.611 333.867 241.435 333.527C235.824 333.07 230.326 331.675 225.165 329.399C221.492 327.785 217.651 325.237 216.896 321.262C224.761 324.976 233.435 326.585 242.089 325.934V325.934Z" fill="black"/>
</g>
</g>
<path d="M374.5 166C396.868 166 415 147.868 415 125.5C415 103.132 396.868 85 374.5 85C352.132 85 334 103.132 334 125.5C334 147.868 352.132 166 374.5 166Z" fill="#FEE6E6"/>
<path d="M374 132.976L361.687 145L354 137.506L366.313 125.5L354 113.476L361.687 106L374 118.006L386.313 106L394 113.476L381.687 125.5L394 137.506L386.313 145L374 132.976Z" fill="#F64040"/>
</svg>
