<svg width="480" height="480" viewBox="0 0 480 480" fill="none" xmlns="http://www.w3.org/2000/svg">
<circle cx="240" cy="270" r="210" fill="#E6EAF7"/>
<g filter="url(#filter0_d_3993:37665)">
<path d="M104.5 171C126.868 171 145 152.868 145 130.5C145 108.132 126.868 90 104.5 90C82.1325 90 64 108.132 64 130.5C64 152.868 82.1325 171 104.5 171Z" fill="#FEE6E6"/>
<path d="M104 137.976L91.6866 150L84 142.506L96.3134 130.5L84 118.476L91.6866 111L104 123.006L116.313 111L124 118.476L111.687 130.5L124 142.506L116.313 150L104 137.976Z" fill="#F64040"/>
</g>
<mask id="mask0_3993:37665" style="mask-type:alpha" maskUnits="userSpaceOnUse" x="0" y="0" width="480" height="480">
<path fill-rule="evenodd" clip-rule="evenodd" d="M480 0H0V275H30.0595C31.3414 328.884 53.305 380.29 91.5076 418.492C130.89 457.875 184.305 480 240 480C295.695 480 349.11 457.875 388.492 418.492C426.695 380.29 448.659 328.884 449.941 275H480V0Z" fill="white"/>
</mask>
<g mask="url(#mask0_3993:37665)">
<path d="M184.363 41.3119C184.363 41.3119 173.812 80.7567 172.858 108.697L172.563 117.999C172.563 117.999 195.819 137.311 215.294 138.494L231.73 98.2768L184.363 41.3119Z" fill="#263238"/>
<path d="M287.708 65.5047C283.254 46.2753 281.545 23.8904 265.553 11.3503C253.687 2.04786 240.177 -0.548929 225.106 0.0920492C217.693 0.40432 209.311 3.82288 202.852 7.47152C193.994 12.4843 190.246 22.6578 185.973 31.8944C177.41 50.4006 178.495 75.4645 184.33 82.4331L261.576 123.275C277.025 115.238 286.705 112.05 289.171 91.4561C290.182 82.7859 289.687 74.0063 287.708 65.5047V65.5047Z" fill="#263238"/>
<path d="M263.878 26.635L215.147 12.2706C199.467 9.98604 188.226 28.9688 186.615 44.7303C184.807 62.2339 183.328 83.6821 184.873 96.8632C188.028 123.373 208.08 127.515 208.08 127.515C208.08 127.515 208.08 127.91 207.965 135.733L207.455 148.421C207.155 153.559 208.674 158.639 211.745 162.769C218.91 172.071 232.009 173.32 247.426 167.617C256.367 164.33 262.596 157.641 263.269 148.585L271.734 36.3319C271.866 34.0276 271.135 31.7567 269.682 29.9633C268.229 28.17 266.159 26.9831 263.878 26.635V26.635Z" fill="#9F6B5B"/>
<path d="M195.671 68.7752C195.63 69.6546 195.933 70.5154 196.516 71.1751C197.099 71.8348 197.916 72.2414 198.794 72.3088C199.659 72.401 200.525 72.1466 201.203 71.6014C201.881 71.0561 202.315 70.2644 202.41 69.3998C202.443 68.9613 202.388 68.5207 202.248 68.1038C202.109 67.6869 201.886 67.3024 201.595 66.9729C201.304 66.6434 200.95 66.3757 200.553 66.1856C200.157 65.9955 199.726 65.8869 199.287 65.8662C198.422 65.774 197.556 66.0284 196.878 66.5736C196.2 67.1189 195.766 67.9106 195.671 68.7752Z" fill="#263238"/>
<path d="M190.756 60.6728C191.151 61.133 193.78 59.3415 197.412 59.4894C201.045 59.6374 203.641 61.5603 203.987 61.133C204.332 60.7056 203.806 60.1304 202.672 59.2429C201.144 58.0874 199.294 57.438 197.379 57.3857C195.492 57.2983 193.626 57.8166 192.054 58.8649C190.953 59.6209 190.493 60.4098 190.756 60.6728Z" fill="#263238"/>
<path d="M229.56 68.4467C229.515 69.3271 229.816 70.1903 230.4 70.8509C230.984 71.5115 231.803 71.917 232.683 71.9803C233.545 72.0679 234.407 71.8114 235.081 71.2666C235.755 70.7217 236.187 69.9327 236.282 69.0713C236.332 68.2072 236.038 67.3584 235.466 66.7092C234.894 66.0599 234.088 65.6626 233.225 65.6034C232.362 65.4963 231.492 65.7354 230.805 66.2683C230.118 66.8012 229.671 67.5844 229.56 68.4467V68.4467Z" fill="#263238"/>
<path d="M226.504 61.0342C226.915 61.4944 229.544 59.703 233.176 59.8509C236.809 59.9988 239.405 61.9217 239.751 61.4944C240.096 61.0671 239.553 60.4919 238.436 59.6044C236.903 58.4584 235.056 57.8102 233.144 57.7472C231.249 57.6587 229.376 58.1831 227.802 59.2428C226.652 60.0481 226.306 60.837 226.504 61.0342Z" fill="#263238"/>
<path d="M212.353 84.6025C210.458 83.9303 208.487 83.4942 206.485 83.3041C205.565 83.1726 204.694 82.9589 204.562 82.318C204.516 81.3557 204.769 80.4027 205.286 79.5897L208.31 72.6211C212.517 62.7599 215.607 54.5422 215.196 54.3779C214.785 54.2135 211.071 62.1189 206.863 72.0294L203.954 79.0309C203.323 80.1297 203.102 81.4166 203.33 82.6631C203.447 82.9963 203.64 83.2976 203.894 83.543C204.148 83.7884 204.456 83.9711 204.793 84.0765C205.325 84.2439 205.878 84.3379 206.436 84.3559C208.39 84.6901 210.378 84.7729 212.353 84.6025V84.6025Z" fill="#263238"/>
<path d="M208.145 127.515C220.541 128.192 232.882 125.416 243.793 119.495C243.793 119.495 234.343 137.574 208.079 134.089L208.145 127.515Z" fill="#774F44"/>
<path d="M225.964 93.5306C225.343 92.514 224.474 91.6636 223.435 91.0553C222.397 90.447 221.22 90.0997 220.011 90.0445C218.319 89.857 216.607 90.1171 215.052 90.7976C213.498 91.4781 212.159 92.5541 211.175 93.9135C210.459 95.1857 210.26 96.6754 210.618 98.0847C210.907 98.8101 210.618 98.4474 211.216 98.9512C213.032 100.917 215.308 102.424 217.848 103.344C219.226 103.732 220.692 103.71 222.057 103.279C223.422 102.848 224.624 102.029 225.511 100.926C226.269 99.8512 226.712 98.5938 226.792 97.2901C226.872 95.9865 226.585 94.6863 225.964 93.5306V93.5306Z" fill="#774F44"/>
<path d="M216.387 102.807C216.978 102.807 217.159 98.9116 220.66 96.2326C224.161 93.5537 228.335 94.2111 228.401 93.6687C228.401 93.4222 227.497 92.8634 225.722 92.7319C223.414 92.584 221.129 93.266 219.279 94.6549C217.519 95.9946 216.342 97.9602 215.992 100.144C215.713 101.886 216.107 102.807 216.387 102.807Z" fill="#263238"/>
<path d="M225.14 47.7216C225.386 48.7406 229.051 48.642 233.259 49.5623C237.466 50.4827 240.77 51.9783 241.476 51.2059C241.772 50.8114 241.263 49.8253 239.964 48.7406C238.228 47.3949 236.209 46.4619 234.059 46.012C231.91 45.5621 229.686 45.6071 227.556 46.1438C225.879 46.5547 225.008 47.2449 225.14 47.7216Z" fill="#263238"/>
<path d="M191.052 50.8115C191.874 51.5183 194.52 50.2692 197.857 49.7433C201.193 49.2173 204.086 49.4145 204.612 48.4613C204.842 48.0011 204.267 47.2451 202.968 46.6534C201.146 45.966 199.173 45.7788 197.254 46.1111C195.335 46.4435 193.54 47.2833 192.055 48.5435C190.954 49.5624 190.674 50.4664 191.052 50.8115Z" fill="#263238"/>
<path d="M215.886 9.42737C215.886 9.62459 215.804 9.8218 215.771 10.0026H215.853C215.869 9.83824 215.869 9.7232 215.886 9.42737Z" fill="#263238"/>
<path d="M249.924 138.149C250.664 131.246 247.886 124.31 248.692 117.407C249.546 110.094 254.28 103.832 256.235 96.7153C259.342 85.3421 255.068 73.2457 253.507 61.4944C246.788 60.4033 240.698 56.8967 236.382 51.6332C231.089 45.47 227.901 37.844 224.778 30.3495C224.993 37.7471 227.497 44.896 231.944 50.8114C230.46 51.0412 228.943 50.9185 227.515 50.4531C226.088 49.9877 224.79 49.1927 223.726 48.1325C221.614 46.0052 219.974 43.4573 218.911 40.6544C216.068 33.98 214.491 26.8352 214.26 19.5843C213.281 29.967 214.45 40.44 217.695 50.3512C215.795 50.0016 213.843 50.0746 211.975 50.5649C211.038 50.8065 210.059 50.8283 209.112 50.6287C208.166 50.4292 207.278 50.0136 206.519 49.4144C205.697 48.4076 205.178 47.1878 205.023 45.8973C203.214 37.076 202.92 28.0113 204.152 19.0912C201.657 23.8102 199.636 28.765 198.12 33.883C196.596 39.0488 196.556 44.5393 198.005 49.7267C197.79 49.9434 197.534 50.1153 197.251 50.2326C196.969 50.35 196.667 50.4104 196.361 50.4104C196.056 50.4104 195.754 50.35 195.471 50.2326C195.189 50.1153 194.933 49.9434 194.718 49.7267C193.884 48.822 193.375 47.6655 193.272 46.4396C192.831 41.9734 193.125 37.4652 194.143 33.0942C191.513 37.7618 190.642 43.1855 189.212 48.3297C187.782 53.474 185.432 58.7826 180.994 61.7245C180.227 54.99 180.449 48.1795 181.652 41.509C182.539 35.9868 185.153 30.5138 187.569 25.4682C190.135 19.8662 193.763 14.815 198.252 10.5942C206.009 3.80639 209.263 6.73188 214.21 9.31223L214.802 9.55875C214.794 9.43835 214.794 9.31756 214.802 9.19717L215.016 8.14531C227.999 5.2416 241.524 5.87157 254.181 9.96963C263.516 13.0266 275.021 22.6248 279.771 31.2205C279.853 31.3849 279.952 31.5492 280.05 31.7136C291.062 51.6003 298.326 74.6427 298.869 124.475L249.924 138.149Z" fill="#263238"/>
<path d="M270.665 200.702C270.578 200.047 270.578 199.384 270.665 198.73C270.844 196.926 271.168 195.14 271.634 193.388C273.163 187.572 276.073 182.211 280.115 177.759C284.158 173.307 289.215 169.896 294.857 167.815C296.551 167.18 298.293 166.685 300.067 166.336C300.713 166.175 301.375 166.093 302.04 166.089C302.04 166.253 299.279 166.681 295.088 168.373C289.618 170.564 284.719 173.969 280.758 178.331C276.798 182.693 273.88 187.898 272.226 193.552C271.026 197.891 270.829 200.735 270.665 200.702Z" fill="#263238"/>
<path d="M155.19 345.004C155.19 345.004 152.15 396.184 165.61 416.202L175.57 382.477V345.349L155.19 345.004Z" fill="white"/>
<path d="M259.03 139.858C259.03 139.858 230.695 161.224 216.889 158.857C205.828 156.918 207.735 140.105 207.735 140.105L202.36 151.724L190.774 198.105L195.704 219.948L222.001 203.693L259.03 139.858Z" fill="#0031B2"/>
<path d="M162.274 232.52C165.248 201.901 202.064 148.881 202.064 148.881L207.882 139.48L202.08 165.481C202.08 165.481 196.311 203.43 195.506 204.219L227.966 172.778L264.452 134.139L271.667 144.493L303.7 162.243L300.413 262.794L288.908 292.263C288.908 292.263 322.732 384.86 327.12 417.681L334.434 479.921L161.748 479.642C161.748 479.642 167.812 382.296 168.486 361.505C169.16 340.714 170.771 294.728 170.771 294.728C170.771 294.728 159.266 263.123 162.274 232.52Z" fill="white"/>
<path d="M334.468 479.921C334.413 479.74 334.38 479.552 334.369 479.363C334.369 478.935 334.222 478.393 334.123 477.719L333.285 471.309C332.594 465.688 331.641 457.652 330.376 447.725C329.768 442.794 329.11 437.288 328.403 431.437C328.053 428.512 327.691 425.488 327.319 422.365C326.957 419.242 326.596 416.037 325.987 412.8C323.047 398.735 319.394 384.829 315.041 371.136C312.609 363.181 310.209 355.44 307.695 348.127C305.18 340.813 302.764 333.696 300.463 327.024C295.911 313.662 291.901 301.894 288.679 292.411V292.312V292.214L296.272 273.264L298.343 268.202L298.886 266.903C298.944 266.755 299.015 266.612 299.099 266.476C299.074 266.634 299.03 266.789 298.968 266.936C298.836 267.281 298.688 267.708 298.491 268.267L296.552 273.379L289.205 292.411V292.214C292.492 301.664 296.568 313.432 301.203 326.728C303.504 333.401 305.936 340.468 308.484 347.831C311.031 355.194 313.414 362.951 315.863 370.84C320.224 384.562 323.866 398.502 326.776 412.602C327.368 415.889 327.713 419.176 328.075 422.233C328.436 425.29 328.781 428.38 329.11 431.306L330.984 447.61C332.085 457.471 332.989 465.59 333.613 471.211C333.909 473.972 334.139 476.141 334.287 477.637L334.452 479.281C334.489 479.492 334.494 479.708 334.468 479.921V479.921Z" fill="#263238"/>
<g opacity="0.2">
<path opacity="0.2" d="M307.908 347.338C307.908 347.338 284.57 377.48 279.047 376.527C273.525 375.574 268.052 365.022 268.052 365.022L261.955 362.195L256.005 351.348L268.858 339.843L307.908 347.338Z" fill="black"/>
</g>
<path d="M196.74 156.622C196.74 156.622 183.082 162.424 178.661 169.409C174.24 176.394 171.248 206.684 171.248 206.684L192.926 170.165L196.74 156.622Z" fill="white"/>
<path d="M216.791 349.047L238.157 341.093L254.493 330.081L268.414 352.367L262.103 356.147C262.103 356.147 261.939 361.538 261.906 362.196C261.873 362.853 259.769 368.178 242.479 367.833C225.189 367.488 221.113 358.711 221.113 358.711C221.113 358.711 212.123 369.016 208.392 370.627C204.661 372.238 201.144 367.34 201.144 367.34L216.791 349.047Z" fill="#9F6B5B"/>
<path d="M170.377 304.261C170.377 304.261 162.16 312.84 160.22 319.546C158.281 326.251 159.399 345.136 159.399 345.136L161.749 345.218C161.749 345.218 161.749 357.577 165.167 357.988C168.586 358.399 171.922 358.498 172.103 352.91C171.983 347.754 171.461 342.617 170.542 337.543L170.377 304.261Z" fill="#9F6B5B"/>
<path d="M186.911 479.922C186.89 479.687 186.89 479.45 186.911 479.215V477.111C186.911 475.221 186.796 472.509 186.713 469.025C186.566 461.974 186.352 451.834 186.105 439.31C185.678 414.197 185.086 379.551 184.462 341.29C183.213 303.012 182.999 268.284 185.103 243.236C185.891 233.331 187.94 223.566 191.2 214.179C191.792 212.535 192.384 211.073 192.844 209.84C193.304 208.607 193.83 207.539 194.257 206.717C194.685 205.895 194.98 205.304 195.211 204.844C195.311 204.627 195.426 204.419 195.556 204.219C195.48 204.45 195.386 204.676 195.276 204.893C195.079 205.353 194.783 205.978 194.422 206.799C194.06 207.621 193.567 208.673 193.074 209.939C192.581 211.204 191.989 212.634 191.43 214.294C188.275 223.676 186.304 233.415 185.563 243.286C183.624 268.284 183.919 303.012 185.169 341.273C185.711 379.535 186.22 414.18 186.582 439.31C186.713 451.817 186.829 461.958 186.911 469.025C186.911 472.493 186.911 475.221 186.911 477.111C186.911 477.999 186.911 478.755 186.911 479.198C186.936 479.439 186.936 479.681 186.911 479.922V479.922Z" fill="#263238"/>
<path d="M247.228 443.255C246.938 443.192 246.656 443.093 246.39 442.959C245.584 442.667 244.799 442.321 244.04 441.923C241.219 440.515 238.599 438.735 236.25 436.631C232.744 433.518 229.734 429.888 227.325 425.866C224.361 420.951 222.146 415.623 220.751 410.055C218.523 399.911 217.869 389.484 218.812 379.14C219.091 375.18 219.436 371.991 219.699 369.789C219.831 368.753 219.929 367.915 220.011 367.241C220.038 366.945 220.098 366.653 220.192 366.37C220.235 366.665 220.235 366.963 220.192 367.258C220.192 367.948 220.094 368.786 220.028 369.805C219.864 372.024 219.617 375.229 219.42 379.173C218.659 389.453 219.39 399.788 221.589 409.858C222.953 415.342 225.101 420.601 227.966 425.472C230.31 429.446 233.222 433.057 236.611 436.188C239.809 439.02 243.381 441.398 247.228 443.255V443.255Z" fill="#263238"/>
<path d="M196.74 156.622C196.769 156.994 196.769 157.368 196.74 157.74C196.74 158.529 196.608 159.597 196.51 160.945C196.263 163.821 195.934 167.897 195.507 172.992V173.123H195.392L191.71 175.243L191.858 174.98C192.466 183.428 193.255 194.16 194.159 206.339L193.633 205.994L222.79 195.459L232.092 192.172L231.829 192.632C231.369 189.345 230.909 186.304 230.465 183.231L230.366 182.557L231.007 182.787L242.118 186.732L241.657 186.88L263.188 156.277L269.4 147.566L271.044 145.249C271.221 144.978 271.425 144.724 271.652 144.493C271.506 144.786 271.336 145.067 271.142 145.331C270.764 145.923 270.238 146.695 269.581 147.698L263.533 156.54L242.266 187.323L242.085 187.57L241.805 187.471L230.695 183.576L231.237 183.116C231.681 186.173 232.141 189.312 232.618 192.501V192.846L232.289 192.961L222.97 196.33L193.781 206.816L193.288 206.996V206.471C192.483 194.276 191.76 183.461 191.201 175.079V174.898L191.349 174.816L195.063 172.745L194.932 172.959C195.458 167.848 195.869 163.788 196.164 160.928C196.329 159.581 196.444 158.512 196.526 157.723C196.574 157.352 196.645 156.984 196.74 156.622V156.622Z" fill="#263238"/>
<path d="M170.541 337.542C170.513 337.291 170.513 337.037 170.541 336.786C170.541 336.211 170.541 335.471 170.541 334.534C170.541 332.496 170.459 329.604 170.41 325.988C170.41 318.559 170.229 308.041 170.114 295.402V295.501C168.174 288.762 166.449 281.284 164.789 273.264C163.967 269.27 163.145 265.046 162.422 260.888C161.586 256.55 161.086 252.154 160.926 247.739C160.57 235.914 162.593 224.138 166.876 213.11V213.11C169.428 206.045 172.476 199.169 175.998 192.533C179.087 186.534 182.013 181.374 184.478 177.133C186.944 172.893 188.998 169.573 190.428 167.272L192.071 164.725C192.248 164.422 192.451 164.136 192.68 163.87C192.527 164.186 192.357 164.493 192.17 164.79L190.494 167.502C189.129 169.787 187.207 173.14 184.758 177.363C182.309 181.587 179.482 186.83 176.441 192.845C172.991 199.476 169.998 206.334 167.484 213.373V213.373C163.293 224.303 161.315 235.957 161.666 247.657C161.821 252.039 162.315 256.402 163.145 260.707C163.901 264.947 164.679 269.067 165.479 273.066C167.123 281.07 168.766 288.548 170.689 295.254V295.353C170.689 308.008 170.689 318.526 170.689 325.955C170.689 329.587 170.689 332.529 170.689 334.502C170.689 335.438 170.689 336.145 170.689 336.753C170.663 337.02 170.614 337.284 170.541 337.542V337.542Z" fill="#263238"/>
<g opacity="0.2">
<path opacity="0.2" d="M299.099 270.683C281.234 257.913 270.534 235.643 270.239 213.686L299.099 270.683Z" fill="black"/>
</g>
<path d="M291.078 156.507C291.078 156.507 306.33 159.482 312.345 172.548C318.361 185.614 358.216 284.489 358.989 291.441C359.761 298.393 356.491 307.203 348.273 315.848C340.055 324.493 278.242 368.013 278.242 368.013L251.42 325.051L306.034 285.837L270.435 212.371C270.435 212.371 273.065 161.865 291.078 156.507Z" fill="white"/>
<path d="M328.797 295.566C325.552 293.306 322.165 291.259 318.656 289.436C315.022 287.871 311.295 286.532 307.497 285.426C308.674 285.391 309.85 285.541 310.981 285.869C313.756 286.497 316.452 287.434 319.018 288.663C321.589 289.876 324.015 291.375 326.249 293.134C327.229 293.796 328.09 294.618 328.797 295.566Z" fill="#263238"/>
<path d="M326.776 279.97C323.461 280.289 320.168 280.805 316.915 281.514C313.737 282.5 310.624 283.686 307.596 285.065C313.116 280.992 319.979 279.171 326.792 279.97H326.776Z" fill="#263238"/>
<path d="M348.273 315.848C348.383 315.697 348.504 315.554 348.634 315.42L349.719 314.188C350.369 313.536 350.983 312.851 351.56 312.133C352.338 311.193 353.057 310.205 353.713 309.175C355.596 306.428 357.017 303.391 357.92 300.185C358.484 298.189 358.788 296.128 358.824 294.055C358.929 291.742 358.519 289.435 357.625 287.3C350.475 268.859 340.63 243.483 329.684 215.461C325.444 205.205 321.352 195.311 317.489 186.009C315.583 181.357 313.709 176.854 311.934 172.532C309.95 168.57 307.055 165.134 303.487 162.506V162.506L272.72 145.282L266.54 137.064L264.896 134.928C264.709 134.692 264.544 134.438 264.403 134.172C264.403 134.172 264.617 134.402 264.995 134.862L266.639 136.933L272.983 145.052L303.897 161.931C307.579 164.622 310.57 168.148 312.625 172.219C314.416 176.542 316.29 181.045 318.229 185.68L330.457 215.165C341.386 243.22 351.067 268.695 358.101 287.119C359.014 289.329 359.418 291.716 359.285 294.104C359.233 296.22 358.901 298.32 358.298 300.349C357.353 303.592 355.869 306.653 353.91 309.405C353.224 310.418 352.477 311.39 351.675 312.314C351.118 313.023 350.514 313.693 349.867 314.319L348.7 315.486C348.437 315.733 348.273 315.864 348.273 315.848Z" fill="#263238"/>
<path d="M309.353 345.809C309.189 345.965 309.013 346.107 308.828 346.237L307.184 347.436L301.021 351.94L278.373 368.375L278.11 368.572L277.929 368.276L251.074 325.282L250.86 324.953L251.172 324.739L275.825 307.005L305.853 285.409L305.721 285.919L279.605 232.948L272.127 217.614L270.155 213.521C269.958 213.078 269.794 212.716 269.662 212.453L269.514 212.075C269.598 212.182 269.67 212.298 269.728 212.42L270.287 213.456L272.357 217.499C274.182 221.082 276.779 226.242 280.049 232.718L306.461 285.557L306.609 285.87L306.329 286.067L276.335 307.696L251.682 325.397L251.78 324.854L278.537 367.865L278.077 367.783L300.889 351.644L307.151 347.272L308.795 346.154C308.97 346.022 309.157 345.906 309.353 345.809V345.809Z" fill="#263238"/>
<path d="M270.665 200.702C270.578 200.047 270.578 199.384 270.665 198.73C270.844 196.926 271.168 195.14 271.634 193.388C273.163 187.572 276.073 182.211 280.115 177.759C284.158 173.307 289.215 169.896 294.857 167.815C296.551 167.18 298.293 166.685 300.067 166.336C300.713 166.175 301.375 166.093 302.04 166.089C302.04 166.253 299.279 166.681 295.088 168.373C289.618 170.564 284.719 173.969 280.758 178.331C276.798 182.693 273.88 187.898 272.226 193.552C271.026 197.891 270.829 200.735 270.665 200.702Z" fill="#263238"/>
<path d="M309.353 345.809C309.189 345.965 309.013 346.107 308.828 346.237L307.184 347.436L301.021 351.94L278.373 368.375L278.11 368.572L277.929 368.276L251.074 325.282L250.86 324.953L251.172 324.739L275.825 307.005L305.853 285.409L305.721 285.919L279.605 232.948L272.127 217.614L270.155 213.521C269.958 213.078 269.794 212.716 269.662 212.453L269.514 212.075C269.598 212.182 269.67 212.298 269.728 212.42L270.287 213.456L272.357 217.499C274.182 221.082 276.779 226.242 280.049 232.718L306.461 285.557L306.609 285.87L306.329 286.067L276.335 307.696L251.682 325.397L251.78 324.854L278.537 367.865L278.077 367.783L300.889 351.644L307.151 347.272L308.795 346.154C308.97 346.022 309.157 345.906 309.353 345.809V345.809Z" fill="#263238"/>
<g opacity="0.2">
<path opacity="0.2" d="M241.936 187.093L232.831 186.797L234.737 196.018L193.715 206.438L232.19 192.566L230.826 183.182L241.936 187.093Z" fill="black"/>
</g>
<path d="M161.782 479.642C161.742 479.221 161.742 478.797 161.782 478.376C161.782 477.472 161.88 476.273 161.93 474.744C162.094 471.457 162.324 466.937 162.62 461.3C163.277 449.795 164.181 433.985 165.2 416.136L165.299 416.432C163.726 414.26 162.449 411.889 161.502 409.381C159.129 402.827 157.519 396.022 156.703 389.1C155.832 382.526 155.372 376.395 155.06 370.774C154.534 359.549 154.731 350.526 155.06 344.971V344.79H155.24L160.171 345.053L161.42 345.152H161.847H161.42H160.171L155.24 345.053L155.421 344.889C155.306 350.427 155.24 359.45 155.849 370.643C156.161 376.247 156.654 382.394 157.492 388.886C158.315 395.786 159.925 402.568 162.291 409.102C163.203 411.533 164.436 413.833 165.956 415.939L166.055 416.07V416.234C164.921 434.067 163.918 449.894 163.195 461.366C162.784 467.003 162.472 471.556 162.242 474.794C162.127 476.322 162.028 477.522 161.946 478.426C161.921 478.835 161.866 479.241 161.782 479.642Z" fill="#263238"/>
<path d="M263.762 181.505L261.543 180.568C261.543 180.453 266.474 168.538 271.404 155.915C273.344 150.903 274.034 146.728 273.475 143.49C273.221 142.142 272.493 140.929 271.423 140.07C270.353 139.211 269.012 138.763 267.64 138.806L266.128 136.637C268.261 136.305 270.441 136.782 272.241 137.974C274.041 139.165 275.331 140.986 275.858 143.079C276.483 146.744 275.743 151.297 273.656 156.786C268.791 169.442 263.811 181.374 263.762 181.505Z" fill="#2D2F34"/>
<path d="M267.362 209.347L264.288 208.163C266.803 201.688 270.238 190.216 268.759 186.995C268.041 185.838 267.082 184.85 265.948 184.098C264.813 183.347 263.529 182.849 262.184 182.639C260.538 182.205 258.814 182.157 257.146 182.499C255.478 182.841 253.912 183.564 252.57 184.612C249.053 187.586 243.76 198.072 242.018 201.852L239.027 200.472C239.29 199.896 245.601 186.14 250.532 182.097C252.262 180.722 254.287 179.765 256.448 179.303C258.61 178.842 260.849 178.886 262.99 179.434C264.835 179.742 266.587 180.458 268.12 181.53C269.653 182.602 270.927 184.003 271.848 185.63C274.314 191.054 268.529 206.339 267.362 209.347Z" fill="#2D2F34"/>
<path d="M234.245 259.359C230.448 259.359 226.734 257.338 223.167 253.311L224.383 252.21C228.328 256.648 232.371 258.406 236.398 257.469C252.833 253.607 265.275 208.048 265.406 207.588L267.05 208.015C266.54 209.938 254.181 254.988 236.841 259.064C235.991 259.264 235.119 259.363 234.245 259.359V259.359Z" fill="#263238"/>
<path d="M226.322 255.185C225.987 255.516 225.544 255.717 225.074 255.75C224.603 255.783 224.137 255.647 223.758 255.365L220.192 252.719C219.931 252.548 219.706 252.327 219.532 252.069C219.357 251.81 219.235 251.52 219.174 251.214C219.113 250.908 219.113 250.593 219.175 250.287C219.237 249.981 219.359 249.69 219.534 249.432V249.432C219.727 249.14 219.982 248.895 220.281 248.714C220.581 248.533 220.916 248.421 221.264 248.386C221.612 248.352 221.964 248.395 222.293 248.514C222.622 248.632 222.92 248.822 223.167 249.071L226.355 252.358C226.542 252.544 226.689 252.765 226.789 253.009C226.889 253.253 226.939 253.515 226.935 253.778C226.932 254.042 226.877 254.302 226.771 254.543C226.666 254.785 226.513 255.003 226.322 255.185Z" fill="#263238"/>
<path d="M241.212 260.855C236.15 260.855 232.387 259.212 230.02 255.924C219.945 241.79 238.944 202.542 239.766 200.866L241.245 201.589C241.048 201.984 221.852 241.626 231.384 254.971C233.866 258.439 238.221 259.902 244.335 259.064L244.549 260.707C243.441 260.827 242.326 260.876 241.212 260.855V260.855Z" fill="#263238"/>
<path d="M240.917 259.967C240.95 260.435 241.149 260.875 241.477 261.209C241.805 261.543 242.242 261.75 242.708 261.792L247.129 262.153C247.437 262.197 247.751 262.18 248.052 262.101C248.353 262.023 248.635 261.886 248.883 261.698C249.13 261.51 249.338 261.275 249.494 261.006C249.65 260.737 249.751 260.44 249.792 260.132V260.132C249.839 259.786 249.809 259.435 249.703 259.103C249.598 258.771 249.42 258.467 249.182 258.212C248.945 257.957 248.654 257.758 248.33 257.63C248.006 257.501 247.658 257.446 247.31 257.469L242.708 257.864C242.192 257.905 241.713 258.151 241.377 258.545C241.042 258.939 240.876 259.451 240.917 259.967V259.967Z" fill="#263238"/>
<path d="M166.775 233.356C173.336 230.624 176.44 223.09 173.707 216.529C170.975 209.968 163.441 206.864 156.88 209.597C150.319 212.329 147.215 219.863 149.948 226.424C152.68 232.985 160.214 236.089 166.775 233.356Z" fill="#263238"/>
<path d="M166.775 233.356C173.336 230.624 176.44 223.09 173.707 216.529C170.975 209.968 163.441 206.864 156.88 209.597C150.319 212.329 147.215 219.863 149.948 226.424C152.68 232.985 160.214 236.089 166.775 233.356Z" fill="#263238"/>
<path d="M171.363 221.443C171.363 223.325 170.804 225.165 169.759 226.73C168.713 228.295 167.227 229.514 165.488 230.235C163.749 230.955 161.836 231.143 159.99 230.776C158.144 230.409 156.448 229.503 155.118 228.172C153.787 226.841 152.88 225.146 152.513 223.3C152.146 221.454 152.335 219.54 153.055 217.801C153.775 216.063 154.995 214.576 156.56 213.531C158.125 212.485 159.964 211.927 161.847 211.927C163.097 211.925 164.335 212.17 165.491 212.647C166.646 213.124 167.696 213.825 168.58 214.709C169.464 215.593 170.165 216.643 170.643 217.799C171.12 218.954 171.365 220.193 171.363 221.443V221.443Z" fill="white"/>
<path d="M167.139 209.84L165.002 208.739C166.087 206.635 191.529 157.148 193.058 154.913C193.321 154.518 193.649 153.96 194.011 153.351C194.776 152.021 195.627 150.742 196.558 149.522C199.122 146.35 202.179 143.425 205.844 142.767L203.708 146.219C201.752 146.975 200.716 148.207 198.432 151.034C197.573 152.172 196.788 153.363 196.082 154.601C195.687 155.258 195.342 155.833 195.046 156.244C193.781 158.019 174.502 195.525 167.139 209.84Z" fill="#2D2F34"/>
</g>
<defs>
<filter id="filter0_d_3993:37665" x="58" y="86" width="93" height="93" filterUnits="userSpaceOnUse" color-interpolation-filters="sRGB">
<feFlood flood-opacity="0" result="BackgroundImageFix"/>
<feColorMatrix in="SourceAlpha" type="matrix" values="0 0 0 0 0 0 0 0 0 0 0 0 0 0 0 0 0 0 127 0" result="hardAlpha"/>
<feOffset dy="2"/>
<feGaussianBlur stdDeviation="3"/>
<feColorMatrix type="matrix" values="0 0 0 0 0 0 0 0 0 0 0 0 0 0 0 0 0 0 0.1 0"/>
<feBlend mode="multiply" in2="BackgroundImageFix" result="effect1_dropShadow_3993:37665"/>
<feBlend mode="normal" in="SourceGraphic" in2="effect1_dropShadow_3993:37665" result="shape"/>
</filter>
</defs>
</svg>
