<svg width="212" height="219" viewBox="0 0 230 219" fill="none" xmlns="http://www.w3.org/2000/svg">
<path d="M109.5 219C160.034 219 201 178.034 201 127.5C201 76.9659 160.034 36 109.5 36C58.9659 36 18 76.9659 18 127.5C18 178.034 58.9659 219 109.5 219Z" fill="#E6EAF7"/>
<mask id="mask0" style="mask-type:alpha" maskUnits="userSpaceOnUse" x="18" y="11" width="183" height="208">
<path fill-rule="evenodd" clip-rule="evenodd" d="M163 11H65V47.531C36.9627 63.1663 18 93.1186 18 127.5C18 178.034 58.9659 219 109.5 219C160.034 219 201 178.034 201 127.5C201 96.9405 186.019 69.8801 163 53.2623V11Z" fill="white"/>
</mask>
<g mask="url(#mask0)">
<path d="M148.78 142.567L148.859 172.895L162.285 170.141L173.591 167.782C173.591 167.782 158.113 198.256 141.279 198.256C124.444 198.256 122.267 172.9 122.267 172.9L121.267 142.567H148.78Z" fill="#9B7564"/>
<path d="M79.0388 64.3338C80.2712 65.0336 81.9671 64.125 82.5324 62.8158C83.0977 61.5065 82.8376 59.9941 82.408 58.6171C81.9784 57.2402 81.3792 55.9196 81.2774 54.4918C81.2271 53.1885 81.5978 51.9035 82.3347 50.8264C83.0716 49.7494 84.1358 48.9373 85.3702 48.5099C82.9394 46.5855 82.7416 42.4603 84.9745 40.3101C86.0203 39.3056 87.411 38.7582 88.6264 37.9682C89.3176 37.5123 89.9615 36.9886 90.5484 36.405C89.4637 36.6718 88.3347 36.7064 87.2357 36.5065C86.3548 36.3136 85.5367 35.9022 84.857 35.3104C84.1772 34.7187 83.6577 33.9655 83.3464 33.1205C83.0594 32.2647 83.0173 31.3459 83.2251 30.4675C83.4328 29.5891 83.8821 28.786 84.5222 28.1488C85.1826 27.5316 86.0155 27.1298 86.9102 26.9967C87.8049 26.8637 88.719 27.0056 89.5308 27.4038C91.1024 28.2334 91.9616 29.9377 92.7248 31.5404L93.4371 33.0246C95.6474 30.1013 97.7277 27.0822 101.137 26.0551C104.229 25.1239 107.553 26.1623 110.775 25.9309C113.121 25.756 115.371 24.9151 117.711 24.6555C120.052 24.3959 122.714 24.8982 124.093 26.8C124.908 27.9287 125.162 29.3621 125.982 30.4738C127.678 32.765 131.329 33.0754 132.72 35.5528C133.851 37.5731 132.98 40.1239 133.466 42.3869C133.992 44.8474 136.027 46.6476 137.689 48.5381C139.351 50.4286 140.804 53.0246 139.871 55.3609C139.046 57.4207 136.643 58.5268 135.863 60.5979C135.298 62.1104 135.705 63.7864 135.733 65.4004C135.761 67.0144 135.117 68.9331 133.54 69.3L115.603 74.0291C109.424 76.5347 103.053 79.1081 96.3823 79.0742C89.7117 79.0404 82.5946 75.8688 79.9885 69.7514C80.9584 69.7149 81.8779 69.3114 82.5606 68.6228C81.6897 68.2163 80.9211 67.62 80.3116 66.8778C79.7021 66.1355 79.2671 65.2662 79.0388 64.3338Z" fill="#2D2F34"/>
<path d="M93.7423 69.949C92.2612 65.4343 90.8027 60.835 90.13 56.1059C89.4573 51.3767 89.5986 46.4445 91.2606 41.9975C91.5093 41.3203 93.6631 36.7661 94.3867 36.8395C94.9012 36.8903 93.5783 41.1341 93.8214 41.5855C96.3088 45.8519 96.9871 50.9817 96.5857 55.9083C96.1575 60.6898 95.1963 65.4086 93.7197 69.9772" fill="#2D2F34"/>
<path d="M109.582 109.644C102.165 109.486 93.7534 93.2786 93.7534 93.2786L93.2729 51.7098C92.8885 39.7403 99.5421 29.5371 111.538 29.4807L112.668 29.5371C118.049 29.8308 123.122 32.1324 126.882 35.9854C130.643 39.8384 132.815 44.9615 132.968 50.3385C133.245 60.7166 133.426 72.1895 133.059 77.7312C132.301 89.1985 120.707 90.3667 120.707 90.3667C120.707 90.3667 120.639 93.0303 120.605 96.405C120.526 103.978 112.584 109.881 109.61 109.627L109.582 109.644Z" fill="#9B7564"/>
<path d="M120.679 90.3834C120.679 90.3834 113.409 90.4229 105.947 85.1633C105.947 85.1633 109.147 93.7073 120.673 93.2897L120.679 90.3834Z" fill="#7F6358"/>
<path d="M127.977 59.3619C127.957 59.7935 127.769 60.2003 127.451 60.4939C127.134 60.7876 126.713 60.9445 126.281 60.9308C126.071 60.936 125.863 60.8995 125.668 60.8234C125.474 60.7473 125.296 60.633 125.146 60.4874C124.996 60.3418 124.876 60.1678 124.794 59.9755C124.713 59.7831 124.67 59.5765 124.67 59.3676C124.687 58.9349 124.875 58.5268 125.193 58.2319C125.511 57.937 125.932 57.7793 126.365 57.7931C126.575 57.7878 126.784 57.8245 126.979 57.901C127.174 57.9774 127.352 58.0922 127.502 58.2384C127.653 58.3846 127.772 58.5593 127.853 58.7523C127.935 58.9452 127.977 59.1525 127.977 59.3619Z" fill="#2D2F34"/>
<path d="M130.227 54.9885C130.012 55.1917 128.819 54.2041 127.05 54.1138C125.28 54.0235 123.94 54.8418 123.759 54.6104C123.675 54.5145 123.901 54.1364 124.489 53.7583C125.28 53.2686 126.205 53.0377 127.134 53.098C128.054 53.1436 128.934 53.4795 129.65 54.0574C130.17 54.5314 130.334 54.8982 130.227 54.9885Z" fill="#2D2F34"/>
<path d="M112.063 58.939C112.044 59.3706 111.856 59.7773 111.538 60.071C111.221 60.3646 110.8 60.5216 110.368 60.5078C110.158 60.5131 109.949 60.4764 109.754 60.3999C109.559 60.3234 109.381 60.2087 109.231 60.0625C109.08 59.9163 108.961 59.7416 108.88 59.5486C108.798 59.3556 108.756 59.1484 108.756 58.939C108.776 58.5123 108.96 58.1099 109.272 57.817C109.583 57.5241 109.996 57.3638 110.424 57.3701C110.636 57.3618 110.847 57.3961 111.045 57.4712C111.244 57.5462 111.425 57.6603 111.578 57.8068C111.731 57.9532 111.853 58.129 111.936 58.3235C112.02 58.518 112.063 58.7273 112.063 58.939Z" fill="#2D2F34"/>
<path d="M112.883 54.774C112.668 54.9772 111.47 53.9952 109.706 53.9049C107.942 53.8146 106.597 54.6273 106.416 54.4015C106.325 54.3 106.552 53.9275 107.145 53.5437C107.938 53.0571 108.862 52.8266 109.791 52.8835C110.71 52.9302 111.59 53.266 112.306 53.8428C112.821 54.2887 112.985 54.6837 112.883 54.774Z" fill="#2D2F34"/>
<path d="M118.491 68.6679C118.491 68.5663 119.622 68.4365 121.391 68.3067C121.843 68.3067 122.273 68.2164 122.369 67.9117C122.433 67.449 122.352 66.9777 122.137 66.5629C121.76 65.4342 121.383 64.2661 121.007 63.0584C119.412 58.081 118.287 53.9895 118.491 53.9275C118.694 53.8654 120.147 57.8778 121.736 62.8383C122.115 64.0629 122.482 65.2367 122.827 66.3541C123.084 66.9132 123.134 67.545 122.968 68.1374C122.894 68.2925 122.785 68.4285 122.649 68.5351C122.514 68.6417 122.356 68.7161 122.188 68.7525C121.936 68.8084 121.677 68.8312 121.419 68.8202C119.605 68.8202 118.497 68.7695 118.491 68.6679Z" fill="#2D2F34"/>
<path d="M113.228 69.6103C113.516 69.6103 113.415 71.5234 114.986 72.9681C116.558 74.4128 118.604 74.3169 118.604 74.5821C118.604 74.7062 118.129 74.932 117.27 74.9094C116.145 74.864 115.072 74.4244 114.24 73.6679C113.439 72.9386 112.954 71.9264 112.889 70.8462C112.855 70.0561 113.098 69.5934 113.228 69.6103Z" fill="#2D2F34"/>
<path d="M113.171 47.6129C112.968 48.0869 111.216 47.7653 109.13 47.9007C107.044 48.0362 105.336 48.5158 105.088 48.07C104.975 47.8556 105.291 47.421 105.992 46.9921C106.925 46.4725 107.964 46.1715 109.03 46.1118C110.097 46.0522 111.163 46.2355 112.148 46.6479C112.894 46.9921 113.256 47.3928 113.171 47.6129Z" fill="#2D2F34"/>
<path d="M129.814 49.0856C129.48 49.4693 128.282 48.9897 126.823 48.8937C125.365 48.7978 124.104 49.0179 123.844 48.5833C123.726 48.3745 123.946 47.9795 124.506 47.6296C125.258 47.2151 126.117 47.0325 126.973 47.1048C127.829 47.1771 128.645 47.5011 129.316 48.0359C129.814 48.4761 129.961 48.8881 129.814 49.0856Z" fill="#2D2F34"/>
<path d="M93.7535 60.2763C93.5613 60.1804 85.9805 57.5224 85.8053 65.3553C85.63 73.1883 93.5783 71.7605 93.5952 71.563C93.6122 71.3655 93.7535 60.2763 93.7535 60.2763Z" fill="#9B7564"/>
<path d="M91.2543 68.5382C91.2204 68.5382 91.113 68.6285 90.8812 68.7301C90.553 68.8622 90.1862 68.8622 89.858 68.7301C89.0327 68.4084 88.36 67.0709 88.3487 65.6544C88.3465 64.98 88.4931 64.3133 88.7782 63.7018C88.8575 63.4587 88.9946 63.2383 89.1776 63.0595C89.3607 62.8806 89.5845 62.7486 89.8298 62.6747C89.9887 62.6369 90.1558 62.6556 90.3024 62.7277C90.449 62.7999 90.5657 62.9209 90.6324 63.0698C90.7341 63.2899 90.6777 63.4479 90.7229 63.4592C90.7681 63.4705 90.8924 63.3294 90.8359 63.0077C90.7958 62.8113 90.6902 62.6342 90.5363 62.5055C90.4316 62.4214 90.3112 62.3592 90.1821 62.3223C90.0529 62.2855 89.9177 62.2749 89.7844 62.291C89.4602 62.3478 89.156 62.4865 88.9007 62.694C88.6454 62.9014 88.4475 63.1707 88.3259 63.4761C87.9737 64.15 87.7932 64.9 87.8003 65.6601C87.8003 67.2459 88.5973 68.7413 89.7279 69.0969C89.9381 69.1635 90.1606 69.1818 90.3789 69.1506C90.5972 69.1193 90.8057 69.0392 90.9886 68.9163C91.2374 68.7244 91.2826 68.5495 91.2543 68.5382Z" fill="#7F6358"/>
<path d="M128.011 37.2685C129.294 36.5856 125.523 32.4152 122.408 30.9536C117.705 28.7527 110.492 27.3418 106.116 28.5213C100.842 29.9378 96.444 32.4716 93.7418 37.2346C91.0397 41.9976 89.9769 47.5224 90.0617 52.9739C90.09 54.6387 90.2369 56.3599 91.1132 57.7933C92.1872 59.5427 94.2845 60.6657 94.1602 63.0641C94.1251 63.4977 94.1764 63.9339 94.3113 64.3476C94.4462 64.7612 94.6619 65.144 94.9459 65.4739C96.3705 67.0201 98.1512 65.6036 98.9765 64.1759C100.752 61.1172 100.989 57.4434 101.187 53.9219C101.328 51.4163 101.464 48.8429 100.786 46.4389C100.418 45.124 99.8132 43.8768 99.5192 42.545C99.2253 41.2131 99.2818 39.7233 100.13 38.6229C100.324 38.3908 100.54 38.1773 100.774 37.9852C101.886 37.0439 103.228 36.4141 104.663 36.1603C106.098 35.9065 107.575 36.0377 108.943 36.5405C113.358 38.1657 120.899 40.6037 122.895 39.1251C125.766 36.9976 126.467 35.598 126.467 35.598L128.011 37.2685Z" fill="#2D2F34"/>
<path d="M106.54 27.4433C110.882 26.0551 115.811 26.1961 119.831 28.3463C121.967 29.4749 123.889 31.2921 124.511 33.6228C125.133 35.9535 124.104 38.8146 121.854 39.695L121.696 39.7909C118.304 40.8745 116.145 40.4004 112.809 39.1984C109.983 38.1882 107.518 36.4219 104.709 35.423C101.697 34.3652 98.4369 34.2296 95.3473 35.0336C98.3999 31.6589 102.193 28.8485 106.54 27.4433Z" fill="#2D2F34"/>
<path d="M90.7795 38.0133C90.8451 38.795 91.0479 39.5591 91.3788 40.2707C92.7938 43.7939 95.3917 46.7165 98.7277 48.5382C99.3907 48.95 100.122 49.2404 100.887 49.396C100.983 49.2436 97.5801 47.9569 94.7254 44.6951C91.8706 41.4332 90.9435 37.94 90.7795 38.0133Z" fill="#5F646F"/>
<path d="M87.5746 39.2944C87.513 39.5877 87.5034 39.8895 87.5463 40.1861C87.5875 40.9996 87.701 41.8079 87.8855 42.6014C88.4898 45.2463 89.7404 47.7007 91.5257 49.7459C93.311 51.7911 95.5756 53.3634 98.1175 54.3226C98.8805 54.6124 99.6674 54.8352 100.469 54.9886C100.759 55.0725 101.062 55.1031 101.362 55.0788C101.362 54.9886 100.124 54.7741 98.2588 53.9502C95.825 52.9268 93.6577 51.3616 91.9225 49.3742C90.1874 47.3867 88.9303 45.0296 88.2473 42.4829C87.7159 40.5529 87.6707 39.2944 87.5746 39.2944Z" fill="#5F646F"/>
<path d="M115.557 26.738C115.557 26.8283 116.377 27.0202 117.643 27.5225C120.966 28.8405 123.791 31.1655 125.721 34.1703C126.078 34.8204 126.469 35.4514 126.892 36.0608C126.741 35.3201 126.454 34.6139 126.044 33.9784C125.14 32.3863 123.952 30.9728 122.539 29.808C121.125 28.644 119.507 27.7523 117.768 27.1782C117.063 26.9006 116.315 26.7515 115.557 26.738Z" fill="#5F646F"/>
<path d="M168.764 168.036L164.094 165.175C163.302 164.694 162.393 164.438 161.466 164.436H152.421L143.082 172.929L140.295 174.317L141.335 188.99L147.407 188.245C147.407 188.245 160.369 188.809 161.624 187.968C162.879 187.127 164.694 184.486 164.694 184.486C164.694 184.486 171.799 182.189 172.495 181.569C175.135 179.204 174.072 178.64 174.072 178.64L175.287 178.076C175.514 178.504 177.283 175.626 177.096 174.182C176.989 173.341 177.238 173.346 177.238 173.346C177.827 173.009 178.335 172.546 178.725 171.991C179.116 171.437 179.38 170.803 179.499 170.135C179.629 169.278 176.107 169.893 176.107 169.893L167.328 170.011L168.764 168.036Z" fill="#9B7564"/>
<path d="M160.957 169.814L169.216 158.589C169.514 158.181 169.906 157.849 170.358 157.62C170.81 157.392 171.309 157.273 171.816 157.274H188.142C188.457 157.274 188.759 157.399 188.981 157.621C189.204 157.844 189.329 158.145 189.329 158.459C189.326 158.743 189.224 159.016 189.041 159.232L179.685 170.068L160.957 169.814Z" fill="#2D2F34"/>
<path d="M164.959 174.413C165.56 174.574 166.179 174.656 166.802 174.655C169.793 174.829 172.794 174.571 175.711 173.888C176.324 173.777 176.921 173.587 177.486 173.323C176.869 173.365 176.256 173.458 175.654 173.6C174.524 173.798 172.98 174.04 171.251 174.164C169.521 174.289 167.949 174.345 166.813 174.339C166.194 174.309 165.573 174.334 164.959 174.413Z" fill="#7F6358"/>
<path d="M162.613 179.328C163.214 179.488 163.834 179.569 164.456 179.571C165.95 179.66 167.448 179.639 168.939 179.509C170.431 179.381 171.913 179.145 173.371 178.803C173.983 178.693 174.578 178.503 175.14 178.239C174.523 178.281 173.911 178.374 173.309 178.515C172.178 178.713 170.635 178.955 168.905 179.08C167.175 179.204 165.603 179.26 164.467 179.255C163.848 179.224 163.228 179.249 162.613 179.328Z" fill="#7F6358"/>
<path d="M179.476 170.135C179.408 170.483 179.317 170.826 179.205 171.162C178.834 172.091 178.116 172.839 177.203 173.25L177.141 173.279V173.346C177.161 174.339 176.942 175.322 176.502 176.213C175.959 177.308 175.061 178.188 173.953 178.707L173.8 178.775L173.874 178.916C173.959 179.092 174.003 179.285 174.003 179.481C174.003 179.676 173.959 179.869 173.874 180.045C173.681 180.425 173.407 180.759 173.071 181.021C172.324 181.595 171.502 182.066 170.629 182.421C168.694 183.223 166.69 183.85 164.642 184.294H164.563L164.524 184.362C164 185.121 163.382 185.811 162.686 186.416C162.017 187.079 161.194 187.566 160.29 187.833C159.593 188.004 158.875 188.076 158.158 188.047L156.01 188.104L151.867 188.216L144.405 188.425H144.376L135.484 190.237L133.014 190.767L132.369 190.92C132.292 190.929 132.218 190.952 132.149 190.987C132.224 190.996 132.3 190.996 132.375 190.987L133.031 190.886L135.524 190.446L144.444 188.753H144.416L151.878 188.595L156.016 188.499L158.17 188.448C158.919 188.471 159.669 188.391 160.397 188.211C161.36 187.929 162.238 187.413 162.952 186.71C163.673 186.081 164.309 185.362 164.846 184.571L164.727 184.656C166.797 184.201 168.82 183.557 170.77 182.731C171.672 182.358 172.518 181.865 173.286 181.264C173.663 180.959 173.967 180.573 174.173 180.135C174.271 179.918 174.319 179.681 174.313 179.443C174.308 179.205 174.248 178.971 174.14 178.758L174.06 178.967C175.227 178.407 176.168 177.468 176.729 176.303C177.17 175.37 177.378 174.344 177.333 173.312L177.271 173.408C177.744 173.188 178.167 172.874 178.515 172.487C178.862 172.099 179.128 171.644 179.295 171.151C179.417 170.826 179.479 170.482 179.476 170.135Z" fill="#7F6358"/>
<path d="M159.939 183.645C159.894 183.736 160.99 184.294 162.477 184.492C163.964 184.689 165.162 184.441 165.145 184.345C165.128 184.249 163.953 184.294 162.528 184.097C161.103 183.899 159.978 183.538 159.939 183.645Z" fill="#7F6358"/>
<path d="M155.745 169.797C155.745 169.904 157.537 170.057 159.764 170.142C161.991 170.226 163.794 170.198 163.794 170.085C163.794 169.972 162.002 169.825 159.775 169.74C157.548 169.655 155.745 169.684 155.745 169.797Z" fill="#7F6358"/>
<path d="M140.47 173.115C140.47 173.115 140.64 173.278 141.035 173.341C141.603 173.402 142.175 173.275 142.663 172.979C143.346 172.534 143.984 172.024 144.568 171.456L146.796 169.509L150.866 166.015C151.457 165.564 152.009 165.063 152.517 164.52C151.868 164.887 151.256 165.316 150.691 165.801C149.6 166.636 148.119 167.833 146.53 169.187C145.739 169.876 144.992 170.541 144.325 171.157C143.768 171.725 143.165 172.245 142.522 172.714C142.087 173.005 141.576 173.162 141.052 173.166C140.679 173.171 140.481 173.081 140.47 173.115Z" fill="#7F6358"/>
<path d="M162.698 170.056C162.779 169.983 162.853 169.902 162.918 169.813L163.483 169.091L165.631 166.388L168.729 162.359L170.55 159.977C170.871 159.587 171.293 159.292 171.771 159.125C172.015 159.04 172.27 158.989 172.528 158.973C172.783 158.973 173.094 158.973 173.342 158.973L184.648 158.927L188.08 158.882H189.012C189.122 158.885 189.232 158.875 189.34 158.854C189.233 158.829 189.123 158.819 189.012 158.826L188.08 158.798L184.648 158.747L173.342 158.707C173.06 158.707 172.777 158.707 172.506 158.707C172.222 158.727 171.943 158.784 171.675 158.877C171.148 159.064 170.683 159.392 170.329 159.825L168.515 162.223L165.468 166.292C164.625 167.421 163.936 168.363 163.432 169.052C163.212 169.356 163.037 169.616 162.867 169.808C162.8 169.883 162.743 169.966 162.698 170.056Z" fill="#2D2F34"/>
<path d="M180.454 160.564C180.349 160.483 180.223 160.435 180.091 160.426C179.959 160.417 179.827 160.447 179.712 160.512C179.597 160.577 179.503 160.675 179.443 160.793C179.384 160.911 179.36 161.044 179.376 161.175C179.391 161.306 179.445 161.43 179.531 161.531C179.617 161.632 179.73 161.705 179.857 161.741C179.985 161.778 180.12 161.776 180.246 161.737C180.372 161.697 180.484 161.621 180.567 161.518C180.672 161.38 180.722 161.207 180.705 161.035C180.688 160.862 180.607 160.702 180.477 160.587" fill="#707683"/>
<path d="M92.9455 90.0112L69.9489 103.504L65.7205 177.997L60.2257 220.141H142.873C142.873 220.141 141.963 168.849 141.68 153.335C141.477 142.46 141.771 121.383 138.085 108.42C136.513 102.895 121.126 95.7562 121.126 95.7562C112.697 103.188 103.274 100.971 92.9455 90.0112Z" fill="#0031B2"/>
<path d="M62.656 201.518C62.656 201.597 80.497 201.665 102.51 201.665C124.523 201.665 142.364 201.597 142.364 201.518C142.364 201.439 124.523 201.371 102.51 201.371C80.497 201.371 62.656 201.433 62.656 201.518Z" fill="#2D2F34"/>
<g opacity="0.3">
<path opacity="0.3" d="M142.415 188.843C136.015 194.198 126.072 197.099 117.886 198.752C109.7 200.406 101.34 201.01 93.1314 202.511C87.3936 203.577 81.3731 205.084 75.8388 203.222C73.0835 202.245 70.6673 200.499 68.8774 198.191C67.0876 195.883 65.9994 193.11 65.7424 190.203C65.7014 190.008 65.7023 189.806 65.7452 189.612C65.7881 189.417 65.8719 189.234 65.9912 189.074C66.1561 188.949 66.3452 188.859 66.5466 188.81C66.748 188.762 66.9574 188.755 67.1614 188.792C91.8708 189.887 118.039 189.734 142.415 188.826" fill="black"/>
</g>
<path d="M146.79 173.403H89.0386L88.756 143.025L62.1076 139.594C62.1076 139.594 61.9888 170.446 61.9888 180.564C61.9888 192.709 72.5035 201.151 81.3335 199.853C90.1636 198.555 146.79 188.002 146.79 188.002V173.403Z" fill="#9B7564"/>
<path d="M60.2591 145.902L91.3169 149.125V112.748C91.3169 112.748 88.2643 100.457 77.5348 100.97C66.8053 101.484 60.4852 113.07 60.2591 123.696C60.033 134.322 60.2591 145.902 60.2591 145.902Z" fill="#0031B2"/>
<path d="M134.8 104.153C134.8 104.153 144.755 110.694 147.423 117.912C150.222 125.479 154.15 149.994 154.15 149.994H140.193L134.8 104.153Z" fill="#0031B2"/>
<path d="M91.577 114.193C91.5402 114.634 91.5402 115.078 91.577 115.519C91.6053 116.439 91.6449 117.658 91.6901 119.136C91.7805 122.184 91.8766 126.399 91.8653 131.055C91.854 135.711 91.7296 139.926 91.6109 142.974C91.5544 144.452 91.5092 145.671 91.4753 146.591C91.4408 147.032 91.4408 147.476 91.4753 147.917C91.5644 147.482 91.6173 147.04 91.6335 146.597C91.7127 145.75 91.8088 144.514 91.8992 142.991C92.0858 139.938 92.2497 135.722 92.2667 131.055C92.2836 126.388 92.1423 122.172 91.9727 119.119C91.8936 117.596 91.8088 116.365 91.7353 115.513C91.7168 115.07 91.6639 114.628 91.577 114.193Z" fill="#2D2F34"/>
<path d="M75.9404 101.558C75.9404 101.637 76.9806 101.36 78.6652 101.388C80.8586 101.411 83.0046 102.028 84.8744 103.173C86.7441 104.317 88.2674 105.948 89.2816 107.889C90.0674 109.374 90.2878 110.412 90.3613 110.395C90.3567 110.146 90.3148 109.898 90.237 109.661C90.0667 109.007 89.8299 108.372 89.5303 107.765C88.5547 105.728 87.0102 104.016 85.0826 102.834C83.155 101.653 80.9265 101.053 78.6652 101.106C77.9866 101.118 77.3107 101.195 76.6471 101.337C76.4016 101.374 76.1632 101.448 75.9404 101.558Z" fill="#2D2F34"/>
<path d="M141.194 121.287C141.167 121.422 141.154 121.56 141.154 121.699C141.154 122.015 141.154 122.404 141.12 122.878C141.12 123.899 141.086 125.378 141.086 127.206C141.086 130.863 141.143 135.914 141.25 141.49C141.358 147.065 141.465 152.06 141.538 155.767C141.572 157.551 141.601 159.018 141.623 160.096C141.623 160.57 141.657 160.959 141.668 161.275C141.661 161.412 141.675 161.549 141.708 161.682C141.738 161.548 141.751 161.412 141.748 161.275C141.748 160.959 141.748 160.57 141.782 160.096C141.782 159.074 141.815 157.596 141.815 155.767C141.815 152.111 141.759 147.06 141.651 141.478C141.544 135.897 141.442 130.909 141.369 127.206C141.329 125.418 141.301 123.956 141.278 122.878C141.278 122.404 141.244 122.015 141.239 121.699C141.243 121.56 141.228 121.421 141.194 121.287Z" fill="#2D2F34"/>
<path d="M141.55 133.471C143.121 133.604 144.7 133.64 146.276 133.578C147.853 133.612 149.432 133.548 151.001 133.386C149.43 133.253 147.852 133.217 146.276 133.279C144.698 133.241 143.119 133.305 141.55 133.471Z" fill="#2D2F34"/>
<path d="M92.108 125.073C92.108 125.153 102.849 125.22 116.049 125.22C129.248 125.22 140 125.153 140 125.073C140 124.994 129.26 124.927 116.049 124.927C102.837 124.927 92.108 124.977 92.108 125.073Z" fill="#2D2F34"/>
<path d="M60.9319 120.096C61.0371 120.108 61.1433 120.108 61.2485 120.096L62.1416 120.022L65.4204 119.74C68.196 119.509 72.0288 119.255 76.2686 119.136C80.5083 119.018 84.3524 119.069 87.1337 119.136L90.4294 119.238H91.3226C91.4276 119.253 91.5342 119.253 91.6392 119.238C91.5376 119.211 91.4333 119.196 91.3283 119.193L90.4351 119.114C89.655 119.052 88.5356 118.984 87.1393 118.916C84.3581 118.786 80.514 118.713 76.2629 118.826C72.0118 118.939 68.1734 119.232 65.4034 119.514C64.0184 119.655 62.8991 119.785 62.1303 119.893L61.2428 120.017C61.1361 120.029 61.0316 120.056 60.9319 120.096Z" fill="#2D2F34"/>
<path d="M60.6377 141.649C60.6377 141.734 67.6532 141.649 76.2966 141.445C84.9401 141.242 91.9612 141.021 91.9556 140.942C91.9499 140.863 84.9458 140.942 76.291 141.151C67.6362 141.361 60.6377 141.57 60.6377 141.649Z" fill="#2D2F34"/>
<path d="M88.8521 106.953C88.8521 107.037 99.9208 107.1 113.573 107.1C127.225 107.1 138.293 107.037 138.293 106.953C138.293 106.868 127.225 106.806 113.573 106.806C99.9208 106.806 88.8521 106.874 88.8521 106.953Z" fill="#2D2F34"/>
<path d="M91.9501 147.957C91.9501 148.036 103.053 148.104 116.75 148.104C130.447 148.104 141.55 148.036 141.55 147.957C141.55 147.878 130.447 147.81 116.75 147.81C103.053 147.81 91.9501 147.872 91.9501 147.957Z" fill="#2D2F34"/>
<path d="M88.3881 166.061C88.3881 166.14 100.463 166.208 115.353 166.208C130.243 166.208 142.324 166.14 142.324 166.061C142.324 165.982 130.249 165.914 115.353 165.914C100.457 165.914 88.3881 165.976 88.3881 166.061Z" fill="#2D2F34"/>
<path d="M61.09 218.262C61.09 218.341 79.2984 218.409 101.752 218.409C124.206 218.409 142.415 218.341 142.415 218.262C142.415 218.183 124.212 218.115 101.752 218.115C79.2928 218.115 61.09 218.188 61.09 218.262Z" fill="#2D2F34"/>
<g opacity="0.3">
<path opacity="0.3" d="M91.6954 149.469C92.0572 142.279 91.7971 135.553 92.1646 128.369C94.6168 138.912 95.7747 149.713 95.6129 160.536C95.5734 163.103 95.449 165.716 94.618 168.149C93.787 170.581 91.4862 172.663 89.1346 173.702L88.9084 149.159C89.9656 149.238 90.6326 149.418 91.6954 149.469Z" fill="black"/>
</g>
<mask id="mask1" style="mask-type:alpha" maskUnits="userSpaceOnUse" x="57" y="8" width="119" height="119">
<path d="M175.589 8H57.5V126.089H175.589V8Z" fill="#C4C4C4"/>
</mask>
<g mask="url(#mask1)">
<path d="M79.0388 64.3338C80.2712 65.0336 81.9671 64.125 82.5324 62.8158C83.0977 61.5065 82.8377 59.9941 82.408 58.6171C81.9784 57.2402 81.3792 55.9196 81.2774 54.4918C81.2271 53.1885 81.5978 51.9035 82.3347 50.8264C83.0716 49.7494 84.1358 48.9373 85.3702 48.5099C82.9394 46.5855 82.7416 42.4603 84.9745 40.3101C86.0203 39.3056 87.411 38.7582 88.6264 37.9682C89.3176 37.5123 89.9615 36.9886 90.5484 36.405C89.4637 36.6718 88.3348 36.7064 87.2357 36.5065C86.3548 36.3136 85.5367 35.9022 84.857 35.3104C84.1772 34.7187 83.6577 33.9655 83.3464 33.1205C83.0594 32.2647 83.0173 31.3459 83.2251 30.4675C83.4328 29.5891 83.8821 28.786 84.5223 28.1488C85.1826 27.5316 86.0155 27.1298 86.9102 26.9967C87.8049 26.8637 88.719 27.0056 89.5308 27.4038C91.1024 28.2334 91.9617 29.9377 92.7248 31.5404L93.4371 33.0246C95.6474 30.1013 97.7277 27.0822 101.137 26.0551C104.229 25.1239 107.553 26.1623 110.775 25.9309C113.121 25.756 115.371 24.9151 117.711 24.6555C120.052 24.3959 122.714 24.8982 124.093 26.8C124.908 27.9287 125.162 29.3621 125.982 30.4738C127.678 32.765 131.329 33.0754 132.72 35.5528C133.851 37.5731 132.98 40.1239 133.466 42.3869C133.992 44.8474 136.027 46.6476 137.689 48.5381C139.351 50.4286 140.804 53.0246 139.871 55.3609C139.046 57.4207 136.643 58.5268 135.863 60.5979C135.298 62.1104 135.705 63.7864 135.733 65.4004C135.761 67.0144 135.117 68.9331 133.54 69.3L115.603 74.0291C109.424 76.5347 103.053 79.1081 96.3823 79.0742C89.7117 79.0404 82.5946 75.8688 79.9885 69.7514C80.9584 69.7149 81.8779 69.3114 82.5606 68.6228C81.6897 68.2163 80.9211 67.62 80.3116 66.8778C79.7021 66.1355 79.2672 65.2662 79.0388 64.3338Z" fill="#2D2F34"/>
<path d="M93.7423 69.949C92.2612 65.4343 90.8027 60.835 90.13 56.1059C89.4573 51.3767 89.5986 46.4445 91.2606 41.9975C91.5093 41.3203 93.6631 36.7661 94.3867 36.8395C94.9012 36.8903 93.5783 41.1341 93.8214 41.5855C96.3088 45.8519 96.9871 50.9817 96.5857 55.9083C96.1576 60.6898 95.1963 65.4086 93.7197 69.9772" fill="#2D2F34"/>
<path d="M109.582 109.644C102.165 109.486 93.7534 93.2786 93.7534 93.2786L93.2729 51.7098C92.8885 39.7403 99.5421 29.5371 111.538 29.4807L112.668 29.5371C118.049 29.8308 123.122 32.1324 126.882 35.9854C130.643 39.8384 132.815 44.9615 132.968 50.3385C133.245 60.7166 133.426 72.1895 133.059 77.7312C132.301 89.1985 120.707 90.3667 120.707 90.3667C120.707 90.3667 120.639 93.0303 120.605 96.405C120.526 103.978 112.584 109.881 109.61 109.627L109.582 109.644Z" fill="#9B7564"/>
<path d="M120.679 90.3834C120.679 90.3834 113.409 90.4229 105.947 85.1633C105.947 85.1633 109.147 93.7073 120.673 93.2897L120.679 90.3834Z" fill="#7F6358"/>
<path d="M127.977 59.3619C127.958 59.7935 127.769 60.2003 127.452 60.4939C127.134 60.7876 126.714 60.9445 126.281 60.9308C126.072 60.936 125.864 60.8995 125.669 60.8234C125.474 60.7473 125.296 60.633 125.146 60.4874C124.996 60.3418 124.877 60.1678 124.795 59.9755C124.713 59.7831 124.671 59.5765 124.67 59.3676C124.688 58.9349 124.876 58.5268 125.193 58.2319C125.511 57.937 125.932 57.7793 126.366 57.7931C126.576 57.7878 126.784 57.8245 126.979 57.901C127.175 57.9774 127.353 58.0922 127.503 58.2384C127.653 58.3846 127.772 58.5593 127.854 58.7523C127.935 58.9452 127.977 59.1525 127.977 59.3619Z" fill="#2D2F34"/>
<path d="M130.227 54.9885C130.012 55.1917 128.819 54.2041 127.05 54.1138C125.28 54.0235 123.94 54.8418 123.759 54.6104C123.675 54.5145 123.901 54.1364 124.489 53.7583C125.28 53.2686 126.205 53.0377 127.134 53.098C128.054 53.1436 128.934 53.4795 129.65 54.0574C130.17 54.5314 130.334 54.8982 130.227 54.9885Z" fill="#2D2F34"/>
<path d="M112.063 58.939C112.044 59.3706 111.856 59.7773 111.538 60.071C111.221 60.3646 110.8 60.5216 110.368 60.5078C110.158 60.5131 109.949 60.4764 109.754 60.3999C109.559 60.3234 109.381 60.2087 109.231 60.0625C109.081 59.9163 108.961 59.7416 108.88 59.5486C108.798 59.3556 108.756 59.1484 108.756 58.939C108.776 58.5123 108.96 58.1099 109.272 57.817C109.583 57.5241 109.996 57.3638 110.424 57.3701C110.636 57.3618 110.847 57.3961 111.045 57.4712C111.244 57.5462 111.425 57.6603 111.578 57.8068C111.731 57.9532 111.853 58.129 111.936 58.3235C112.02 58.518 112.063 58.7273 112.063 58.939Z" fill="#2D2F34"/>
<path d="M112.883 54.774C112.668 54.9772 111.47 53.9952 109.706 53.9049C107.942 53.8146 106.597 54.6273 106.416 54.4015C106.325 54.3 106.552 53.9275 107.145 53.5437C107.938 53.0571 108.862 52.8266 109.791 52.8835C110.71 52.9302 111.59 53.266 112.306 53.8428C112.821 54.2887 112.985 54.6837 112.883 54.774Z" fill="#2D2F34"/>
<path d="M118.491 68.6679C118.491 68.5663 119.622 68.4365 121.391 68.3067C121.843 68.3067 122.273 68.2164 122.369 67.9117C122.433 67.449 122.352 66.9777 122.137 66.5629C121.76 65.4342 121.383 64.2661 121.007 63.0584C119.412 58.081 118.287 53.9895 118.491 53.9275C118.694 53.8654 120.147 57.8778 121.736 62.8383C122.115 64.0629 122.482 65.2367 122.827 66.3541C123.084 66.9132 123.134 67.545 122.968 68.1374C122.894 68.2925 122.785 68.4285 122.649 68.5351C122.514 68.6417 122.356 68.7161 122.188 68.7525C121.936 68.8084 121.677 68.8312 121.419 68.8202C119.605 68.8202 118.497 68.7694 118.491 68.6679Z" fill="#2D2F34"/>
<path d="M113.228 69.6103C113.516 69.6103 113.415 71.5234 114.986 72.9681C116.558 74.4128 118.604 74.3169 118.604 74.5821C118.604 74.7062 118.129 74.932 117.27 74.9094C116.145 74.864 115.072 74.4244 114.24 73.6679C113.439 72.9386 112.954 71.9264 112.889 70.8462C112.855 70.0561 113.098 69.5934 113.228 69.6103Z" fill="#2D2F34"/>
<path d="M113.171 47.6129C112.968 48.0869 111.216 47.7653 109.13 47.9007C107.044 48.0362 105.336 48.5158 105.088 48.07C104.975 47.8556 105.291 47.421 105.992 46.9921C106.925 46.4725 107.964 46.1715 109.03 46.1118C110.097 46.0522 111.163 46.2355 112.148 46.6479C112.894 46.9921 113.256 47.3928 113.171 47.6129Z" fill="#2D2F34"/>
<path d="M129.814 49.0856C129.48 49.4693 128.282 48.9897 126.823 48.8937C125.365 48.7978 124.104 49.0179 123.844 48.5833C123.726 48.3745 123.946 47.9795 124.506 47.6296C125.258 47.2151 126.117 47.0325 126.973 47.1048C127.829 47.1771 128.645 47.5011 129.316 48.0359C129.814 48.4761 129.961 48.8881 129.814 49.0856Z" fill="#2D2F34"/>
<path d="M93.7535 60.2763C93.5613 60.1804 85.9805 57.5224 85.8053 65.3553C85.63 73.1883 93.5783 71.7605 93.5952 71.563C93.6122 71.3655 93.7535 60.2763 93.7535 60.2763Z" fill="#9B7564"/>
<path d="M91.2543 68.5382C91.2204 68.5382 91.113 68.6285 90.8812 68.7301C90.553 68.8622 90.1862 68.8622 89.858 68.7301C89.0327 68.4084 88.36 67.071 88.3487 65.6545C88.3465 64.9801 88.4931 64.3133 88.7782 63.7018C88.8575 63.4587 88.9946 63.2383 89.1776 63.0595C89.3607 62.8806 89.5845 62.7486 89.8298 62.6747C89.9887 62.6369 90.1558 62.6556 90.3024 62.7277C90.449 62.7999 90.5657 62.9209 90.6324 63.0698C90.7341 63.2899 90.6777 63.4479 90.7229 63.4592C90.7682 63.4705 90.8924 63.3294 90.8359 63.0077C90.7958 62.8113 90.6902 62.6342 90.5363 62.5055C90.4316 62.4214 90.3112 62.3592 90.1821 62.3223C90.0529 62.2855 89.9177 62.2749 89.7844 62.291C89.4602 62.3478 89.156 62.4865 88.9007 62.694C88.6454 62.9014 88.4475 63.1707 88.3259 63.4761C87.9737 64.15 87.7932 64.9001 87.8003 65.6602C87.8003 67.246 88.5973 68.7413 89.7279 69.0969C89.9381 69.1635 90.1606 69.1819 90.3789 69.1506C90.5972 69.1193 90.8057 69.0392 90.9886 68.9163C91.2374 68.7244 91.2826 68.5495 91.2543 68.5382Z" fill="#7F6358"/>
<path d="M128.011 37.2685C129.294 36.5856 125.523 32.4152 122.408 30.9536C117.705 28.7527 110.492 27.3418 106.116 28.5213C100.842 29.9378 96.444 32.4716 93.7418 37.2346C91.0397 41.9976 89.9769 47.5224 90.0617 52.9739C90.09 54.6387 90.2369 56.3599 91.1132 57.7933C92.1872 59.5427 94.2845 60.6657 94.1602 63.0641C94.1251 63.4977 94.1764 63.9339 94.3113 64.3476C94.4462 64.7612 94.6619 65.144 94.9459 65.4739C96.3705 67.0201 98.1512 65.6036 98.9765 64.1759C100.752 61.1172 100.989 57.4434 101.187 53.9219C101.328 51.4163 101.464 48.8429 100.786 46.4389C100.418 45.124 99.8132 43.8768 99.5192 42.545C99.2253 41.2131 99.2818 39.7233 100.13 38.6229C100.324 38.3908 100.54 38.1773 100.774 37.9852C101.886 37.0439 103.228 36.4141 104.663 36.1603C106.098 35.9065 107.575 36.0377 108.943 36.5405C113.358 38.1657 120.899 40.6037 122.895 39.1251C125.766 36.9976 126.467 35.598 126.467 35.598L128.011 37.2685Z" fill="#2D2F34"/>
<path d="M106.54 27.4433C110.882 26.0551 115.811 26.1961 119.831 28.3463C121.967 29.4749 123.889 31.2921 124.511 33.6228C125.133 35.9535 124.104 38.8146 121.854 39.695L121.696 39.7909C118.304 40.8745 116.145 40.4004 112.809 39.1984C109.983 38.1882 107.518 36.4219 104.709 35.423C101.697 34.3652 98.4369 34.2296 95.3473 35.0336C98.3999 31.6589 102.193 28.8485 106.54 27.4433Z" fill="#2D2F34"/>
<path d="M90.7795 38.0133C90.8451 38.795 91.0479 39.5591 91.3788 40.2707C92.7938 43.7939 95.3917 46.7165 98.7277 48.5382C99.3907 48.95 100.122 49.2404 100.887 49.396C100.983 49.2436 97.5801 47.9569 94.7254 44.6951C91.8706 41.4332 90.9435 37.94 90.7795 38.0133Z" fill="#5F646F"/>
<path d="M87.5746 39.2944C87.513 39.5877 87.5034 39.8895 87.5463 40.1861C87.5875 40.9996 87.701 41.8079 87.8855 42.6014C88.4898 45.2463 89.7404 47.7007 91.5257 49.7459C93.311 51.7911 95.5756 53.3634 98.1175 54.3226C98.8805 54.6124 99.6674 54.8352 100.469 54.9886C100.759 55.0725 101.062 55.1031 101.362 55.0788C101.362 54.9886 100.124 54.7741 98.2588 53.9502C95.825 52.9268 93.6577 51.3616 91.9225 49.3742C90.1874 47.3867 88.9303 45.0296 88.2473 42.4829C87.7159 40.5529 87.6707 39.2944 87.5746 39.2944Z" fill="#5F646F"/>
<path d="M115.557 26.738C115.557 26.8283 116.377 27.0202 117.643 27.5225C120.966 28.8405 123.791 31.1655 125.721 34.1703C126.078 34.8204 126.469 35.4514 126.892 36.0608C126.741 35.3201 126.454 34.6139 126.044 33.9784C125.14 32.3863 123.952 30.9728 122.539 29.808C121.125 28.644 119.507 27.7523 117.768 27.1782C117.063 26.9006 116.315 26.7515 115.557 26.738Z" fill="#5F646F"/>
<path d="M92.9455 90.0112L69.9489 103.504L65.7205 177.997L60.2257 220.141H142.873C142.873 220.141 141.963 168.849 141.68 153.335C141.477 142.46 141.771 121.383 138.085 108.42C136.513 102.895 121.126 95.7562 121.126 95.7562C112.697 103.188 103.274 100.971 92.9455 90.0112Z" fill="#0031B2"/>
<path d="M91.577 114.193C91.5402 114.634 91.5402 115.078 91.577 115.519C91.6053 116.439 91.6449 117.658 91.6901 119.136C91.7805 122.184 91.8766 126.399 91.8653 131.055C91.854 135.711 91.7296 139.926 91.6109 142.974C91.5544 144.452 91.5092 145.671 91.4753 146.591C91.4408 147.032 91.4408 147.476 91.4753 147.917C91.5644 147.482 91.6173 147.04 91.6335 146.597C91.7127 145.75 91.8088 144.514 91.8992 142.991C92.0858 139.938 92.2497 135.722 92.2667 131.055C92.2836 126.388 92.1423 122.172 91.9727 119.119C91.8936 117.596 91.8088 116.365 91.7353 115.513C91.7168 115.07 91.6639 114.628 91.577 114.193Z" fill="#2D2F34"/>
<path d="M75.9404 101.558C75.9404 101.637 76.9806 101.36 78.6652 101.388C80.8586 101.411 83.0046 102.028 84.8744 103.173C86.7441 104.317 88.2674 105.948 89.2816 107.889C90.0674 109.374 90.2878 110.412 90.3613 110.395C90.3567 110.146 90.3148 109.898 90.237 109.661C90.0667 109.007 89.8299 108.372 89.5303 107.765C88.5547 105.728 87.0102 104.016 85.0826 102.834C83.155 101.653 80.9265 101.053 78.6652 101.106C77.9866 101.118 77.3107 101.195 76.6471 101.337C76.4016 101.374 76.1632 101.448 75.9404 101.558Z" fill="#2D2F34"/>
<path d="M141.194 121.287C141.167 121.422 141.154 121.56 141.154 121.699C141.154 122.015 141.154 122.404 141.12 122.878C141.12 123.899 141.086 125.378 141.086 127.206C141.086 130.863 141.143 135.914 141.25 141.49C141.358 147.065 141.465 152.06 141.538 155.767C141.572 157.551 141.601 159.018 141.623 160.096C141.623 160.57 141.657 160.959 141.668 161.275C141.661 161.412 141.675 161.549 141.708 161.682C141.738 161.548 141.751 161.412 141.748 161.275C141.748 160.959 141.748 160.57 141.782 160.096C141.782 159.074 141.815 157.596 141.815 155.767C141.815 152.111 141.759 147.06 141.651 141.478C141.544 135.897 141.442 130.909 141.369 127.206C141.329 125.418 141.301 123.956 141.278 122.878C141.278 122.404 141.244 122.015 141.239 121.699C141.243 121.56 141.228 121.421 141.194 121.287Z" fill="#2D2F34"/>
<path d="M92.108 125.073C92.108 125.153 102.849 125.22 116.049 125.22C129.248 125.22 140 125.153 140 125.073C140 124.994 129.26 124.927 116.049 124.927C102.837 124.927 92.108 124.977 92.108 125.073Z" fill="#2D2F34"/>
<path d="M60.9319 120.096C61.0371 120.108 61.1433 120.108 61.2485 120.096L62.1416 120.022L65.4204 119.74C68.196 119.509 72.0288 119.255 76.2686 119.136C80.5084 119.018 84.3524 119.069 87.1337 119.136L90.4294 119.238H91.3226C91.4276 119.253 91.5342 119.253 91.6392 119.238C91.5376 119.211 91.4333 119.196 91.3283 119.193L90.4351 119.114C89.655 119.052 88.5356 118.984 87.1393 118.916C84.3581 118.786 80.514 118.713 76.2629 118.826C72.0118 118.939 68.1734 119.232 65.4034 119.514C64.0185 119.655 62.8991 119.785 62.1303 119.893L61.2428 120.017C61.1361 120.029 61.0316 120.056 60.9319 120.096Z" fill="#2D2F34"/>
<path d="M88.8521 106.953C88.8521 107.037 99.9208 107.1 113.573 107.1C127.225 107.1 138.293 107.037 138.293 106.953C138.293 106.868 127.225 106.806 113.573 106.806C99.9208 106.806 88.8521 106.874 88.8521 106.953Z" fill="#2D2F34"/>
</g>
</g>

<path x="28" y="35" d="M159.375 78.0096H133.889C133.255 77.9675 132.62 78.0644 132.025 78.2936C131.43 78.5229 130.89 78.8793 130.441 79.339C129.992 79.7988 129.643 80.3513 129.419 80.9597C129.195 81.5682 129.101 82.2185 129.142 82.8673V102.415C129.101 103.064 129.195 103.715 129.419 104.323C129.643 104.931 129.992 105.484 130.441 105.944C130.89 106.403 131.43 106.76 132.025 106.989C132.62 107.218 133.255 107.315 133.889 107.273H149.92V114L156.494 107.273H159.375C160.01 107.315 160.645 107.218 161.24 106.989C161.834 106.76 162.374 106.403 162.824 105.944C163.273 105.484 163.621 104.931 163.845 104.323C164.069 103.715 164.164 103.064 164.123 102.415V82.8673C164.164 82.2185 164.069 81.5682 163.845 80.9597C163.621 80.3513 163.273 79.7988 162.824 79.339C162.374 78.8793 161.834 78.5229 161.24 78.2936C160.645 78.0644 160.01 77.9675 159.375 78.0096Z" fill="#0031B2"/>
<path x="28" y="35" fill-rule="evenodd" clip-rule="evenodd" d="M152.314 85.545C152.644 85.545 152.912 85.8192 152.912 86.1574V92.465C152.912 92.8032 152.644 93.0774 152.314 93.0774C151.984 93.0774 151.716 92.8032 151.716 92.465V86.1574C151.716 85.8192 151.984 85.545 152.314 85.545Z" fill="#BFCBEC"/>
<path x="28" y="35" fill-rule="evenodd" clip-rule="evenodd" d="M137.961 85.545C138.291 85.545 138.559 85.8192 138.559 86.1574V93.4791C138.559 94.4939 139.362 95.3163 140.353 95.3163H147.779C148.109 95.3163 148.377 95.5905 148.377 95.9287C148.377 96.2669 148.109 96.5411 147.779 96.5411H140.353C138.702 96.5411 137.363 95.1703 137.363 93.4791V86.1574C137.363 85.8192 137.631 85.545 137.961 85.545Z" fill="#BFCBEC"/>
<path x="28" y="35" fill-rule="evenodd" clip-rule="evenodd" d="M139.556 85.11C139.005 85.11 138.559 85.5667 138.559 86.1307V86.1576C138.559 86.5457 138.769 86.9024 139.105 87.0841C139.105 87.0841 139.105 87.084 139.105 87.0841L143.93 89.6862C144.686 90.0941 145.589 90.0943 146.345 89.687C146.345 89.6869 146.345 89.687 146.345 89.687L151.184 87.0774C151.511 86.9009 151.716 86.5528 151.716 86.174V86.1576C151.716 85.5789 151.258 85.11 150.693 85.11H139.556ZM137.363 86.1307C137.363 84.8902 138.345 83.8853 139.556 83.8853H150.693C151.919 83.8853 152.912 84.9025 152.912 86.1576V86.174C152.912 87.0069 152.462 87.7725 151.741 88.161C151.741 88.1611 151.741 88.161 151.741 88.161L146.903 90.7707C145.798 91.3659 144.478 91.3661 143.373 90.7698L138.548 88.1676C137.82 87.7744 137.363 87.0009 137.363 86.1576V86.1307Z" fill="#BFCBEC"/>
<path x="28" y="35" fill-rule="evenodd" clip-rule="evenodd" d="M152.085 93.8463C150.043 93.8463 148.387 95.542 148.387 97.633C148.387 99.724 150.043 101.42 152.085 101.42C154.127 101.42 155.782 99.7241 155.782 97.633C155.782 95.5419 154.127 93.8463 152.085 93.8463ZM152.085 102.756C154.848 102.756 157.088 100.462 157.088 97.633C157.088 94.804 154.848 92.5098 152.085 92.5098C149.322 92.5098 147.081 94.8039 147.081 97.633C147.081 100.462 149.322 102.756 152.085 102.756Z" fill="#BFCBEC"/>
<path x="28" y="35" fill-rule="evenodd" clip-rule="evenodd" d="M154.488 96.1614C154.748 96.4275 154.748 96.8589 154.488 97.125L152.071 99.6002C151.947 99.728 151.777 99.7998 151.601 99.7997C151.424 99.7997 151.255 99.7279 151.13 99.6L149.681 98.1147C149.421 97.8486 149.421 97.4172 149.681 97.1512C149.941 96.8852 150.362 96.8853 150.622 97.1515L151.601 98.1547L153.548 96.1614C153.807 95.8953 154.229 95.8953 154.488 96.1614Z" fill="#BFCBEC"/>
</svg>
