<svg width="83" height="83" viewBox="0 0 83 83" fill="none" xmlns="http://www.w3.org/2000/svg">
<g clip-path="url(#clip0)">
<path d="M70.2288 49.9364C75.4635 33.4244 66.3216 15.7953 49.8096 10.5606C33.2977 5.32587 15.6686 14.4679 10.4339 30.9798C5.19914 47.4917 14.3411 65.1208 30.853 70.3556C47.365 75.5903 64.9941 66.4483 70.2288 49.9364Z" fill="#EBEBEB"/>
<path d="M57.3522 66.6723C71.4594 58.0646 75.9176 39.6505 67.3099 25.5433C58.7022 11.4362 40.2882 6.97794 26.181 15.5856C12.0738 24.1933 7.6156 42.6073 16.2233 56.7145C24.831 70.8217 43.245 75.2799 57.3522 66.6723Z" fill="#DBDBDB"/>
<path d="M56.3843 65.068C69.5991 56.9985 73.7701 39.7443 65.7007 26.5295C57.6312 13.3148 40.3769 9.14375 27.1622 17.2132C13.9475 25.2827 9.77646 42.5369 17.8459 55.7517C25.9154 68.9664 43.1696 73.1375 56.3843 65.068Z" fill="white"/>
<path d="M42.0484 15.1622H41.5093V19.4132H42.0484V15.1622Z" fill="#C7C7C7"/>
<path d="M29.0123 18.5033L28.5454 18.7728L30.6709 22.4543L31.1378 22.1847L29.0123 18.5033Z" fill="#C7C7C7"/>
<path d="M19.3706 27.9131L19.1011 28.38L22.7825 30.5055L23.0521 30.0386L19.3706 27.9131Z" fill="#C7C7C7"/>
<path d="M20.0361 40.8962H15.7852V41.4354H20.0361V40.8962Z" fill="#C7C7C7"/>
<path d="M22.8226 51.8336L19.1411 53.9591L19.4107 54.426L23.0922 52.3005L22.8226 51.8336Z" fill="#C7C7C7"/>
<path d="M30.6582 59.8557L28.5347 63.5383L29.0017 63.8076L31.1253 60.125L30.6582 59.8557Z" fill="#C7C7C7"/>
<path d="M42.0484 62.9186H41.5093V67.1696H42.0484V62.9186Z" fill="#C7C7C7"/>
<path d="M52.8961 59.8644L52.4292 60.134L54.5547 63.8154L55.0216 63.5459L52.8961 59.8644Z" fill="#C7C7C7"/>
<path d="M60.7305 51.7853L60.4609 52.2522L64.1424 54.3777L64.412 53.9108L60.7305 51.7853Z" fill="#C7C7C7"/>
<path d="M67.7822 40.8962H63.5312V41.4354H67.7822V40.8962Z" fill="#C7C7C7"/>
<path d="M64.1684 27.9316L60.4873 30.0577L60.757 30.5246L64.4381 28.3984L64.1684 27.9316Z" fill="#C7C7C7"/>
<path d="M54.5752 18.5253L52.4517 22.2078L52.9187 22.4772L55.0423 18.7946L54.5752 18.5253Z" fill="#C7C7C7"/>
<path d="M42.193 17.0909L43.1158 43.0634L40.4512 43.0219L41.4673 17.0806L42.193 17.0909Z" fill="#C7C7C7"/>
<path d="M58.3683 32.1144L40.8978 43.2603L39.6226 40.9274L58.0262 31.4716L58.3683 32.1144Z" fill="#A6A6A6"/>
<path d="M42.6915 41.1658C42.6915 41.3463 42.638 41.5227 42.5377 41.6727C42.4375 41.8228 42.295 41.9397 42.1283 42.0088C41.9615 42.0778 41.7781 42.0959 41.6011 42.0607C41.4241 42.0255 41.2615 41.9386 41.1339 41.811C41.0063 41.6834 40.9194 41.5208 40.8842 41.3438C40.849 41.1668 40.8671 40.9834 40.9361 40.8167C41.0052 40.6499 41.1221 40.5074 41.2722 40.4072C41.4222 40.3069 41.5986 40.2534 41.7791 40.2534C42.0211 40.2534 42.2531 40.3495 42.4243 40.5207C42.5954 40.6918 42.6915 40.9238 42.6915 41.1658Z" fill="#C7C7C7"/>
</g>
<defs>
<clipPath id="clip0">
<rect width="82.2578" height="82.2578" fill="white" transform="translate(0.637695)"/>
</clipPath>
</defs>
</svg>
