<svg width="35" height="37" viewBox="0 0 35 37" fill="none" xmlns="http://www.w3.org/2000/svg">
<path fill-rule="evenodd" clip-rule="evenodd" d="M19.4361 1.98511C19.4361 1.43282 18.9884 0.985107 18.4361 0.985107C17.8838 0.985107 17.4361 1.43282 17.4361 1.98511V4.10011C17.4361 4.65239 17.8838 5.10011 18.4361 5.10011C18.9884 5.10011 19.4361 4.65239 19.4361 4.10011V1.98511ZM10.919 2.41789C11.3095 2.02737 11.9427 2.02737 12.3332 2.41789L13.8332 3.91789C14.2237 4.30842 14.2237 4.94158 13.8332 5.33211C13.4427 5.72263 12.8095 5.72263 12.419 5.33211L10.919 3.83211C10.5284 3.44158 10.5284 2.80842 10.919 2.41789ZM25.9532 2.41789C26.3437 2.80842 26.3437 3.44158 25.9532 3.83211L24.3332 5.45211C23.9427 5.84263 23.3095 5.84263 22.919 5.45211C22.5284 5.06158 22.5284 4.42842 22.919 4.03789L24.539 2.41789C24.9295 2.02737 25.5627 2.02737 25.9532 2.41789ZM20.373 8.93284C19.0063 7.56622 16.7896 7.56501 15.4233 8.93322L15.4229 8.93359C15.1771 9.1796 14.9754 9.45314 14.818 9.74429C14.112 9.03819 13.5885 8.51451 13.4002 8.32586C12.0338 6.95724 9.81635 6.95898 8.4502 8.32514C8.20013 8.5752 7.9958 8.85369 7.83721 9.15021C6.46263 8.0231 4.43007 8.10336 3.1477 9.38573C1.86435 10.6691 1.78553 12.7011 2.9132 14.0763C2.61628 14.2349 2.33745 14.4394 2.0872 14.6896C0.804321 15.9725 0.725092 18.0035 1.85145 19.3786C1.55443 19.5373 1.27552 19.7418 1.0252 19.9921C-0.341344 21.3587 -0.342121 23.5741 1.0252 24.9414L3.66957 27.5865C4.97947 28.8968 6.70414 30.6218 8.8027 32.7204C12.1575 36.0752 17.0053 37.0278 21.208 35.5782C24.6343 35.8977 28.1782 34.7552 30.807 32.125C33.6436 29.2883 34.8741 25.2213 34.0889 21.2884L34.0888 21.2879L32.2259 11.9763L32.2258 11.9759C31.8913 10.3021 30.4209 9.0976 28.7141 9.0976C27.3364 9.0976 26.1401 9.87611 25.5412 11.0171C25.0436 10.7562 24.4735 10.6095 23.8615 10.6095C23.3303 10.6096 22.8262 10.7253 22.3729 10.9328L20.373 8.93284ZM23.0577 13.468C23.072 13.4549 23.0861 13.4415 23.1 13.4276C23.1136 13.414 23.1268 13.4001 23.1397 13.3861C23.3311 13.2142 23.5842 13.1095 23.8617 13.1095C24.4063 13.1095 24.8183 13.4599 24.9218 13.9778C25.1393 15.067 25.8953 18.8501 26.6004 22.3738C27.2234 25.4875 26.2488 28.7073 24.0022 30.9526C23.0413 31.9135 21.9258 32.6254 20.7357 33.0884C20.6424 33.1113 20.5529 33.1448 20.4685 33.1877C17.1238 34.3741 13.2469 33.6291 10.5705 30.9526C8.47202 28.8542 6.74744 27.1292 5.43759 25.819L2.79296 23.1736C2.40228 22.783 2.40241 22.1505 2.79296 21.7599C3.18394 21.3689 3.81735 21.3699 4.20593 21.7591L8.98134 26.533C9.46954 27.0211 10.2609 27.021 10.749 26.5328C11.2371 26.0447 11.2368 25.253 10.7487 24.7649L3.85496 17.8711C3.46428 17.4805 3.46441 16.848 3.85496 16.4574C4.24594 16.0664 4.87935 16.0674 5.26794 16.4566L12.1628 23.3501C12.651 23.8382 13.4424 23.8381 13.9305 23.35C14.4186 22.8618 14.4181 22.0699 13.93 21.5817L7.16896 14.8207L4.91546 12.5672C4.52478 12.1766 4.52491 11.5441 4.91546 11.1535C5.30644 10.7625 5.93985 10.7635 6.32844 11.1527L15.3442 20.1685C15.8323 20.6567 16.6238 20.6567 17.112 20.1685C17.6001 19.6804 17.5998 18.8886 17.1117 18.4005L10.218 11.5066C9.82728 11.116 9.82741 10.4835 10.218 10.0929C10.6089 9.70196 11.2423 9.7029 11.631 10.0922C12.0702 10.5322 14.3246 12.7865 16.4683 14.93L20.6467 19.1079C20.6467 19.1079 21.5416 19.5686 22.1611 19.3786C22.7806 19.1887 22.7806 18.689 22.7806 18.2187V14.1905C22.7806 13.9128 22.8854 13.6595 23.0577 13.468ZM20.6046 12.7L18.6052 10.7006C18.2139 10.3093 17.581 10.3104 17.1922 10.6998L17.1915 10.7006C16.8002 11.0919 16.8013 11.7248 17.1907 12.1136C17.2095 12.1324 17.2277 12.1517 17.2451 12.1713C17.5733 12.4995 17.9059 12.8322 18.236 13.1622L20.2806 15.2066V14.1905C20.2806 13.6587 20.3966 13.1539 20.6046 12.7ZM26.1317 32.3428C27.1873 31.8829 28.1756 31.2214 29.0389 30.3575L29.0392 30.3572C31.2844 28.112 32.2589 24.8923 31.6374 21.7783L31.6373 21.7778L29.7744 12.4663L29.7743 12.4659C29.6736 11.9619 29.2301 11.5976 28.7141 11.5976C28.1174 11.5976 27.6331 12.082 27.6331 12.6786V14.7881C27.971 16.4789 28.5256 19.2534 29.0518 21.8833C29.8045 25.6451 28.7115 29.5296 26.1317 32.3428Z" fill="#0031B2"/>
</svg>
