<svg width="34" height="30" viewBox="0 0 34 30" fill="none" xmlns="http://www.w3.org/2000/svg">
<path fill-rule="evenodd" clip-rule="evenodd" d="M7.31976 2.1813C7.8618 1.38572 8.76123 0.908447 9.72439 0.908447H24.6011C25.5642 0.908447 26.4637 1.38565 27.0058 2.1813C27.1066 2.32925 27.7158 3.22395 28.508 4.38741C30.1592 6.81242 32.6055 10.405 32.9004 10.8374C33.6632 11.9556 33.5583 13.4534 32.6474 14.4546C32.3867 14.7411 29.0565 18.4034 25.7912 21.9944L19.3265 29.1037C19.3265 29.1037 19.2175 29.2098 19.139 29.2721C19.0332 29.331 18.8681 29.4229 18.8681 29.4229L18.8662 29.4237L18.863 29.4249L18.8546 29.4283C18.8546 29.4283 18.8497 29.4302 18.8298 29.4379C18.8099 29.4456 18.7831 29.4557 18.7502 29.4677C18.6847 29.4917 18.5939 29.5234 18.484 29.5582C18.2678 29.6267 17.9613 29.7123 17.6186 29.7707C17.2852 29.8275 16.8594 29.869 16.4244 29.8124C15.9915 29.7561 15.4281 29.5849 14.9911 29.1042C14.3243 28.3706 2.19633 15.0311 1.67332 14.4565C0.760582 13.4536 0.655472 11.9542 1.42005 10.8341L7.31976 2.1813ZM2.45276 11.5384L3.48552 12.2426L3.48493 12.2435C3.37341 12.4067 3.38846 12.6268 3.52219 12.7737C4.03157 13.3334 15.5214 25.9711 16.7614 27.335C16.8558 27.3449 17.0043 27.3393 17.1986 27.3062C17.3769 27.2758 17.5507 27.2298 17.6904 27.187L23.9415 20.3124C27.2066 16.7217 30.5372 13.059 30.7982 12.7722C30.9304 12.6268 30.9455 12.408 30.8352 12.2462C30.5394 11.8127 28.0823 8.20413 26.4309 5.77875C25.6437 4.62265 25.0395 3.73538 24.9398 3.58894C24.8618 3.47458 24.7346 3.40845 24.6011 3.40845H9.72439C9.59094 3.40845 9.46377 3.47451 9.38581 3.58894L3.48552 12.2426C3.48552 12.2426 3.48552 12.2426 2.45276 11.5384ZM19.139 29.2721C19.0332 29.331 18.8681 29.4229 18.8681 29.4229C19.0425 29.3525 19.2 29.2429 19.3265 29.1037C19.3265 29.1037 19.2122 29.2064 19.139 29.2721Z" fill="#0031B2"/>
</svg>
