<svg width="35" height="38" viewBox="0 0 35 38" fill="none" xmlns="http://www.w3.org/2000/svg">
<path d="M29.0869 0.366116C29.5751 -0.122039 30.3665 -0.122039 30.8547 0.366117L33.9754 3.48681C34.2421 3.71606 34.411 4.05588 34.411 4.43515C34.411 4.45562 34.4105 4.47597 34.4095 4.49619C34.3956 4.80728 34.2658 5.10275 34.0447 5.32389L30.6663 8.70223C30.1781 9.19038 29.3867 9.19038 28.8985 8.70222C28.4104 8.21406 28.4104 7.4226 28.8985 6.93445L30.1479 5.68515H23.161C22.4707 5.68515 21.911 5.12551 21.911 4.43515C21.911 3.74479 22.4707 3.18515 23.161 3.18515H30.1382L29.0869 2.13388C28.5988 1.64573 28.5988 0.854272 29.0869 0.366116Z" fill="#0031B2"/>
<path fill-rule="evenodd" clip-rule="evenodd" d="M12.3275 1.56836C10.2571 1.56836 8.5775 3.248 8.5775 5.31836V19.8006L7.57144 18.7946C6.05496 17.278 3.59851 17.278 2.08202 18.7945C0.804366 20.072 0.604942 22.0739 1.60919 23.5785L7.4859 32.3919C9.57261 35.5209 13.0844 37.4017 16.8475 37.4017H19.8275C26.0413 37.4017 31.0775 32.3654 31.0775 26.1517V16.985C31.0775 14.9152 29.4001 13.235 27.3275 13.235C26.7332 13.235 26.1711 13.3734 25.6717 13.6197C25.0523 12.4027 23.7881 11.5684 22.3276 11.5684C21.7333 11.5684 21.1712 11.7068 20.6717 11.9532C20.0524 10.7361 18.7881 9.90179 17.3276 9.90179C16.8893 9.90179 16.4685 9.97707 16.0775 10.1154V5.31836C16.0775 3.24856 14.4001 1.56836 12.3275 1.56836ZM16.0775 13.6678C16.0775 13.6678 16.0775 18.7947 16.0775 19.485C16.0775 20.1754 15.5179 20.735 14.8275 20.735C14.1371 20.735 13.5775 20.1754 13.5775 19.485V5.31836C13.5775 4.62816 13.0183 4.06836 12.3275 4.06836C11.6379 4.06836 11.0775 4.62872 11.0775 5.31836V22.8184C11.0775 23.324 10.7729 23.7798 10.3059 23.9733C9.83876 24.1667 9.30111 24.0598 8.94361 23.7023L5.80365 20.5623C5.26346 20.0221 4.38994 20.0221 3.84978 20.5623C3.41429 20.9977 3.34685 21.6789 3.68872 22.1908L9.56586 31.0049C11.1892 33.439 13.9206 34.9017 16.8475 34.9017H19.8275C24.6605 34.9017 28.5775 30.9847 28.5775 26.1517V16.985C28.5775 16.2948 28.0183 15.735 27.3275 15.735C26.6432 15.735 26.0861 16.2868 26.0776 16.9691V21.1517C26.0776 21.8421 25.518 22.4017 24.8276 22.4017C24.1372 22.4017 23.5776 21.8421 23.5776 21.1517V17.0009L23.5775 16.985L23.5776 16.9575V15.3184C23.5776 14.6282 23.0184 14.0684 22.3276 14.0684C21.638 14.0684 21.0776 14.6288 21.0776 15.3184V19.4852C21.0776 20.1755 20.518 20.7352 19.8276 20.7352C19.1372 20.7352 18.5776 20.1755 18.5776 19.4852V13.6518C18.5776 12.9616 18.0184 12.4018 17.3276 12.4018C16.638 12.4018 16.0776 12.9622 16.0776 13.6518C16.0776 14.3414 16.0775 13.6678 16.0775 13.6678Z" fill="#0031B2"/>
</svg>
