<svg width="104" height="120" viewBox="0 0 104 120" fill="none" xmlns="http://www.w3.org/2000/svg">
<circle cx="52" cy="67.191" r="52" fill="#E6EAF7"/>
<mask id="mask0" style="mask-type:alpha" maskUnits="userSpaceOnUse" x="0" y="15" width="104" height="105">
<circle cx="52" cy="67.191" r="52" fill="white"/>
</mask>
<g mask="url(#mask0)">
<path d="M34.3814 13.7371C34.3814 13.7371 30.874 26.8489 30.5571 36.1364L30.4587 39.2286C30.4587 39.2286 38.1892 45.6479 44.6632 46.0413L50.1265 32.6727L34.3814 13.7371Z" fill="#2D2F34"/>
<path d="M68.7347 21.779C67.2541 15.387 66.686 7.94603 61.3702 3.77757C57.4258 0.685367 52.935 -0.17783 47.9252 0.0352367C45.4612 0.139038 42.675 1.2754 40.5279 2.48824C37.5832 4.15453 36.3376 7.53629 34.9172 10.6066C32.0708 16.7583 32.4314 25.0897 34.3708 27.4061L60.0481 40.9823C65.1836 38.3108 68.4014 37.2509 69.2209 30.4055C69.5571 27.5234 69.3926 24.605 68.7347 21.779V21.779Z" fill="#2D2F34"/>
<path d="M60.8128 8.85838L44.6143 4.0835C39.4024 3.32411 35.6655 9.63417 35.1301 14.8734C34.5291 20.6918 34.0374 27.8213 34.551 32.2029C35.5999 41.0151 42.2651 42.3918 42.2651 42.3918C42.2651 42.3918 42.2651 42.523 42.2269 45.1235L42.0575 49.3411C41.9578 51.049 42.4626 52.7376 43.4834 54.1105C45.8654 57.2027 50.2196 57.6179 55.3441 55.7222C58.3161 54.6295 60.3867 52.406 60.6107 49.3957L63.4243 12.0817C63.4684 11.3157 63.2252 10.5609 62.7423 9.96474C62.2593 9.36861 61.5713 8.9741 60.8128 8.85838V8.85838Z" fill="#9F6B5B"/>
<path d="M38.1404 22.8662C38.1267 23.1585 38.2275 23.4446 38.4213 23.6639C38.6151 23.8832 38.8866 24.0183 39.1784 24.0408C39.4659 24.0714 39.7539 23.9868 39.9792 23.8056C40.2044 23.6243 40.3487 23.3612 40.3803 23.0738C40.3914 22.928 40.3732 22.7815 40.3267 22.643C40.2802 22.5044 40.2064 22.3766 40.1096 22.2671C40.0128 22.1575 39.895 22.0685 39.7632 22.0053C39.6314 21.9422 39.4883 21.906 39.3423 21.8992C39.0548 21.8685 38.7668 21.9531 38.5416 22.1343C38.3163 22.3156 38.172 22.5787 38.1404 22.8662Z" fill="#2D2F34"/>
<path d="M36.5067 20.1728C36.6378 20.3257 37.5119 19.7302 38.7193 19.7794C39.9267 19.8286 40.7899 20.4678 40.9046 20.3257C41.0193 20.1837 40.8445 19.9925 40.4675 19.6975C39.9598 19.3134 39.3448 19.0975 38.7084 19.0801C38.081 19.0511 37.4608 19.2233 36.9383 19.5718C36.5722 19.8231 36.4193 20.0854 36.5067 20.1728Z" fill="#2D2F34"/>
<path d="M49.4055 22.7569C49.3905 23.0495 49.4907 23.3364 49.6848 23.556C49.8789 23.7756 50.1513 23.9104 50.4436 23.9315C50.7302 23.9606 51.0167 23.8753 51.2408 23.6942C51.4649 23.5131 51.6083 23.2508 51.64 22.9645C51.6565 22.6772 51.5591 22.3951 51.3688 22.1793C51.1786 21.9635 50.9109 21.8314 50.6238 21.8117C50.3371 21.7761 50.0479 21.8556 49.8195 22.0327C49.5912 22.2099 49.4423 22.4702 49.4055 22.7569V22.7569Z" fill="#2D2F34"/>
<path d="M48.3892 20.293C48.5258 20.446 49.3999 19.8505 50.6073 19.8996C51.8147 19.9488 52.6779 20.588 52.7926 20.446C52.9073 20.3039 52.727 20.1127 52.3555 19.8177C51.8461 19.4368 51.2321 19.2213 50.5964 19.2003C49.9665 19.1709 49.3439 19.3453 48.8208 19.6975C48.4384 19.9652 48.3237 20.2274 48.3892 20.293Z" fill="#2D2F34"/>
<path d="M43.6853 28.1273C43.0554 27.9038 42.4004 27.7589 41.735 27.6957C41.429 27.652 41.1395 27.581 41.0958 27.3679C41.0804 27.048 41.1644 26.7312 41.3362 26.461L42.3414 24.1446C43.74 20.8666 44.7671 18.135 44.6305 18.0804C44.4939 18.0257 43.2592 20.6536 41.8606 23.9479L40.8936 26.2752C40.6838 26.6405 40.6103 27.0683 40.686 27.4826C40.7249 27.5934 40.7891 27.6935 40.8735 27.7751C40.9579 27.8567 41.0602 27.9174 41.1723 27.9525C41.3493 28.0081 41.5331 28.0393 41.7186 28.0453C42.368 28.1564 43.0289 28.184 43.6853 28.1273V28.1273Z" fill="#2D2F34"/>
<path d="M42.287 42.3918C46.4075 42.6169 50.5097 41.6939 54.1368 39.7257C54.1368 39.7257 50.9954 45.7353 42.2651 44.5771L42.287 42.3918Z" fill="#774F44"/>
<path d="M47.5861 30.5529C47.4214 30.2773 47.191 30.0467 46.9155 29.8818C46.64 29.7169 46.3279 29.6227 46.0072 29.6078C45.5584 29.5569 45.1042 29.6274 44.692 29.8119C44.2797 29.9964 43.9246 30.2882 43.6635 30.6567C43.4736 31.0016 43.4209 31.4055 43.516 31.7876C43.5924 31.9843 43.516 31.886 43.6744 32.0225C44.1563 32.5555 44.7598 32.9641 45.4336 33.2135C45.7991 33.3188 46.1877 33.3127 46.5498 33.1959C46.9118 33.0791 47.2308 32.857 47.4659 32.5579C47.6671 32.2665 47.7846 31.9256 47.8058 31.5722C47.827 31.2188 47.751 30.8663 47.5861 30.5529V30.5529Z" fill="#774F44"/>
<path d="M47.4224 29.1544C47.2257 29.1544 47.1656 30.4491 46.0019 31.3397C44.8382 32.2302 43.4506 32.0116 43.4287 32.1919C43.4287 32.2739 43.7292 32.4596 44.3192 32.5033C45.0865 32.5525 45.846 32.3258 46.4608 31.8641C47.0459 31.4188 47.4371 30.7654 47.5535 30.0394C47.6464 29.4603 47.5152 29.1544 47.4224 29.1544Z" fill="#2D2F34"/>
<path d="M47.936 15.8677C48.0179 16.2064 49.2362 16.1737 50.6348 16.4796C52.0334 16.7856 53.1315 17.2827 53.3664 17.0259C53.4648 16.8948 53.2954 16.567 52.8638 16.2065C52.2868 15.7592 51.6156 15.449 50.9009 15.2994C50.1863 15.1499 49.447 15.1649 48.7391 15.3433C48.1818 15.4798 47.8923 15.7093 47.936 15.8677Z" fill="#2D2F34"/>
<path d="M36.6052 16.8948C36.8784 17.1298 37.7579 16.7146 38.867 16.5397C39.976 16.3649 40.9376 16.4305 41.1124 16.1136C41.1889 15.9606 40.9977 15.7093 40.5661 15.5126C39.9603 15.2841 39.3045 15.2219 38.6666 15.3324C38.0288 15.4429 37.4321 15.722 36.9385 16.1409C36.5724 16.4796 36.4795 16.7801 36.6052 16.8948Z" fill="#2D2F34"/>
<path d="M56.1745 45.9266C56.4203 43.632 55.4971 41.3265 55.7648 39.0319C56.0488 36.6008 57.6223 34.5193 58.2724 32.1537C59.3049 28.3731 57.8845 24.3522 57.3655 20.4459C55.132 20.0833 53.1077 18.9176 51.6728 17.168C49.9136 15.1193 48.8537 12.5843 47.8157 10.0931C47.8872 12.5521 48.7194 14.9285 50.1977 16.8948C49.7044 16.9712 49.2001 16.9304 48.7256 16.7757C48.251 16.621 47.8195 16.3567 47.4661 16.0043C46.764 15.2972 46.2186 14.4503 45.8653 13.5185C44.9203 11.2999 44.3961 8.92493 44.3192 6.51465C43.9939 9.96596 44.3826 13.4473 45.461 16.7419C44.8298 16.6256 44.1807 16.6499 43.5598 16.8129C43.2485 16.8932 42.9228 16.9004 42.6081 16.8341C42.2935 16.7678 41.9985 16.6296 41.746 16.4305C41.4728 16.0958 41.3004 15.6903 41.2489 15.2613C40.6477 12.329 40.5498 9.31587 40.9593 6.35075C40.13 7.91937 39.4584 9.56641 38.9543 11.2677C38.4476 12.9848 38.4343 14.8099 38.9161 16.5343C38.8445 16.6063 38.7594 16.6634 38.6656 16.7024C38.5718 16.7414 38.4713 16.7615 38.3698 16.7615C38.2682 16.7615 38.1677 16.7414 38.0739 16.7024C37.9801 16.6634 37.895 16.6063 37.8234 16.5343C37.5463 16.2335 37.3771 15.8491 37.3427 15.4416C37.1963 13.957 37.2941 12.4584 37.6322 11.0054C36.7581 12.557 36.4685 14.3599 35.9932 16.0699C35.5179 17.7799 34.7367 19.5445 33.2616 20.5224C33.0066 18.2838 33.0802 16.0199 33.4801 13.8026C33.7752 11.967 34.6438 10.1477 35.4469 8.4705C36.2999 6.60837 37.5059 4.9293 38.998 3.52625C41.5767 1.26993 42.6584 2.24239 44.3028 3.10012L44.4995 3.18206C44.4969 3.14204 44.4969 3.10189 44.4995 3.06187L44.5706 2.71222C48.8864 1.747 53.3821 1.95641 57.5895 3.31864C60.6926 4.33481 64.5169 7.52535 66.0958 10.3826C66.1231 10.4373 66.1559 10.4919 66.1886 10.5465C69.849 17.1571 72.2638 24.8166 72.4441 41.3811L56.1745 45.9266Z" fill="#2D2F34"/>
<path d="M63.0691 66.7197C63.0404 66.5021 63.0404 66.2817 63.0691 66.0641C63.1288 65.4645 63.2366 64.8708 63.3915 64.2885C63.8997 62.3552 64.8668 60.573 66.2107 59.0932C67.5545 57.6133 69.2355 56.4794 71.111 55.7877C71.6739 55.5766 72.2531 55.4122 72.8429 55.296C73.0574 55.2428 73.2775 55.2153 73.4985 55.2141C73.4985 55.2687 72.5807 55.4107 71.1875 55.9734C69.3695 56.7017 67.7408 57.8335 66.4243 59.2834C65.1078 60.7334 64.138 62.4635 63.5881 64.3431C63.1893 65.7854 63.1238 66.7306 63.0691 66.7197Z" fill="#2D2F34"/>
<path d="M24.6843 114.687C24.6843 114.687 23.6736 131.7 28.148 138.354L31.4587 127.143V114.802L24.6843 114.687Z" fill="#FAFAFC"/>
<path d="M59.2014 46.4948C59.2014 46.4948 49.7827 53.597 45.1936 52.8103C41.5168 52.1656 42.1505 46.5767 42.1505 46.5767L40.364 50.4392L36.5125 65.8565L38.1514 73.1172L46.8926 67.714L59.2014 46.4948Z" fill="#0031B2"/>
<path d="M27.0391 77.2965C28.0279 67.1185 40.2656 49.4941 40.2656 49.4941L42.1996 46.3691L40.2711 55.0119C40.2711 55.0119 38.3535 67.6266 38.0858 67.8888L48.8757 57.4376L61.0041 44.5935L63.4025 48.0354L74.0504 53.9357L72.9577 87.3599L69.1335 97.1555C69.1335 97.1555 80.3768 127.935 81.8355 138.846L84.2667 159.535L26.8643 159.442C26.8643 159.442 28.8802 127.083 29.1042 120.172C29.3282 113.261 29.8636 97.975 29.8636 97.975C29.8636 97.975 26.0393 87.4691 27.0391 77.2965Z" fill="#FAFAFC"/>
<path d="M84.2775 159.535C84.2594 159.474 84.2484 159.412 84.2447 159.349C84.2447 159.207 84.1956 159.027 84.1628 158.803L83.8842 156.672C83.6547 154.804 83.3378 152.132 82.9172 148.832C82.715 147.193 82.4965 145.363 82.2616 143.418C82.145 142.446 82.0248 141.441 81.901 140.403C81.7808 139.365 81.6606 138.299 81.4585 137.223C80.4811 132.548 79.2667 127.925 77.8199 123.374C77.0114 120.729 76.2138 118.156 75.3779 115.725C74.542 113.294 73.7389 110.928 72.974 108.71C71.4607 104.269 70.1277 100.357 69.0569 97.2046V97.1719V97.1391L71.5809 90.8399L72.2693 89.1573L72.4496 88.7257C72.469 88.6763 72.4927 88.6288 72.5206 88.5836C72.5123 88.6362 72.4976 88.6876 72.4769 88.7366C72.4332 88.8513 72.384 88.9934 72.3184 89.1791L71.6738 90.8782L69.2317 97.2046V97.1391C70.3244 100.28 71.6792 104.192 73.2199 108.612C73.9847 110.83 74.7933 113.179 75.6401 115.627C76.4869 118.074 77.2791 120.653 78.0931 123.275C79.5426 127.837 80.7534 132.47 81.7207 137.157C81.9174 138.25 82.0321 139.343 82.1523 140.359C82.2725 141.375 82.3872 142.402 82.4965 143.375L83.1193 148.794C83.4854 152.072 83.7858 154.771 83.9934 156.639C84.0918 157.557 84.1682 158.278 84.2174 158.776L84.2721 159.322C84.2843 159.392 84.2862 159.464 84.2775 159.535V159.535Z" fill="#2D2F34"/>
<g opacity="0.2">
<path opacity="0.2" d="M75.4488 115.463C75.4488 115.463 67.6909 125.482 65.8553 125.166C64.0196 124.849 62.2004 121.341 62.2004 121.341L60.1735 120.402L58.1958 116.796L62.4681 112.972L75.4488 115.463Z" fill="black"/>
</g>
<path d="M38.4955 52.0673C38.4955 52.0673 33.9555 53.9958 32.4859 56.3177C31.0163 58.6396 30.022 68.7083 30.022 68.7083L37.228 56.569L38.4955 52.0673Z" fill="#FAFAFC"/>
<path d="M45.1605 116.031L52.2627 113.387L57.6932 109.726L62.3206 117.135L60.2227 118.391C60.2227 118.391 60.1681 120.183 60.1571 120.402C60.1462 120.62 59.4469 122.39 53.6996 122.275C47.9522 122.161 46.5973 119.243 46.5973 119.243C46.5973 119.243 43.6089 122.669 42.3688 123.204C41.1286 123.74 39.9595 122.112 39.9595 122.112L45.1605 116.031Z" fill="#9F6B5B"/>
<path d="M29.7323 101.144C29.7323 101.144 27.0007 103.996 26.356 106.225C25.7113 108.454 26.0828 114.731 26.0828 114.731L26.8641 114.758C26.8641 114.758 26.8641 118.866 28.0004 119.003C29.1368 119.14 30.2458 119.172 30.3059 117.315C30.2659 115.601 30.0924 113.893 29.7869 112.207L29.7323 101.144Z" fill="#9F6B5B"/>
<path d="M35.2282 159.535C35.2213 159.457 35.2213 159.378 35.2282 159.3V158.601C35.2282 157.972 35.19 157.071 35.1627 155.913C35.1135 153.569 35.0425 150.198 34.9605 146.035C34.8185 137.687 34.6218 126.171 34.4142 113.452C33.999 100.728 33.928 89.1846 34.6273 80.8586C34.8892 77.5658 35.5703 74.3199 36.6541 71.1995C36.8508 70.6532 37.0475 70.167 37.2004 69.7572C37.3534 69.3475 37.5282 68.9924 37.6703 68.7192C37.8123 68.446 37.9107 68.2494 37.9872 68.0964C38.0204 68.0246 38.0588 67.9552 38.1019 67.8888C38.0766 67.9657 38.0456 68.0406 38.009 68.1128C37.9435 68.2658 37.8451 68.4734 37.7249 68.7465C37.6047 69.0197 37.4408 69.3693 37.2769 69.79C37.113 70.2107 36.9164 70.686 36.7306 71.2378C35.6816 74.3564 35.0264 77.5938 34.7802 80.8749C34.1356 89.1846 34.2339 100.728 34.6491 113.447C34.8294 126.165 34.9988 137.682 35.1189 146.035C35.1627 150.193 35.2009 153.564 35.2282 155.913C35.2282 157.065 35.2282 157.972 35.2282 158.601C35.2282 158.896 35.2282 159.147 35.2282 159.294C35.2366 159.374 35.2366 159.455 35.2282 159.535V159.535Z" fill="#2D2F34"/>
<path d="M38.4954 52.0673C38.5051 52.1909 38.5051 52.3151 38.4954 52.4388C38.4954 52.701 38.4517 53.0561 38.4189 53.5041C38.337 54.4602 38.2277 55.8151 38.0857 57.5087V57.5524H38.0474L36.8237 58.2571L36.8728 58.1697C37.075 60.9778 37.3372 64.5454 37.6377 68.5936L37.4629 68.4789L47.1547 64.977L50.2469 63.8843L50.1595 64.0373C50.0065 62.9446 49.8535 61.9339 49.706 60.9123L49.6732 60.6883L49.8863 60.7648L53.5795 62.076L53.4265 62.1251L60.5834 51.9526L62.6485 49.057L63.1948 48.2867C63.2537 48.1965 63.3214 48.1123 63.3969 48.0354C63.3484 48.1329 63.2918 48.2261 63.2276 48.314C63.1019 48.5107 62.9271 48.7675 62.7086 49.1007L60.6981 52.04L53.6286 62.2726L53.5685 62.3546L53.4757 62.3218L49.7825 61.027L49.9628 60.874C50.1103 61.8902 50.2633 62.9337 50.4217 63.9936V64.1083L50.3124 64.1465L47.2148 65.2665L37.512 68.7521L37.3481 68.8122V68.6373C37.0804 64.5836 36.84 60.9888 36.6543 58.2025V58.1424L36.7035 58.1151L37.9382 57.4267L37.8945 57.4978C38.0693 55.7987 38.2059 54.4493 38.3042 53.4987C38.3588 53.0507 38.3971 52.6955 38.4244 52.4333C38.4402 52.3099 38.464 52.1877 38.4954 52.0673V52.0673Z" fill="#2D2F34"/>
<path d="M29.787 112.207C29.7778 112.123 29.7778 112.039 29.787 111.955C29.787 111.764 29.787 111.518 29.787 111.207C29.787 110.53 29.7597 109.568 29.7433 108.366C29.7433 105.897 29.6832 102.4 29.6449 98.199V98.2318C29.0003 95.9918 28.4266 93.506 27.8748 90.84C27.6017 89.5124 27.3285 88.1084 27.0881 86.7261C26.8101 85.2843 26.6439 83.823 26.591 82.3555C26.4725 78.4248 27.145 74.5103 28.5687 70.8445V70.8445C29.417 68.4959 30.4302 66.2102 31.6008 64.0045C32.6279 62.0104 33.6003 60.2949 34.4198 58.8854C35.2393 57.4759 35.9222 56.3723 36.3975 55.6074L36.9438 54.7606C37.0024 54.66 37.0701 54.5649 37.146 54.4766C37.0953 54.5816 37.0388 54.6838 36.9766 54.7825L36.4194 55.6839C35.9659 56.4433 35.3267 57.5578 34.5127 58.9619C33.6987 60.3659 32.759 62.1087 31.7483 64.1083C30.6014 66.3123 29.6066 68.5921 28.7708 70.9319V70.9319C27.3776 74.565 26.7202 78.4388 26.8368 82.3282C26.8883 83.7847 27.0527 85.235 27.3285 86.666C27.5798 88.0756 27.8384 89.445 28.1043 90.7744C28.6506 93.435 29.1969 95.9208 29.8361 98.1498V98.1826C29.8361 102.389 29.8361 105.886 29.8361 108.355C29.8361 109.563 29.8361 110.54 29.8361 111.196C29.8361 111.507 29.8361 111.742 29.8361 111.945C29.8275 112.033 29.811 112.121 29.787 112.207V112.207Z" fill="#2D2F34"/>
<g opacity="0.2">
<path opacity="0.2" d="M72.5205 89.9822C66.5819 85.7373 63.0253 78.3346 62.927 71.0356L72.5205 89.9822Z" fill="black"/>
</g>
<path d="M69.8545 52.0289C69.8545 52.0289 74.9244 53.0178 76.9239 57.3611C78.9235 61.7044 92.1718 94.5713 92.4286 96.8822C92.6854 99.1932 91.5982 102.122 88.8666 104.995C86.135 107.869 65.5877 122.336 65.5877 122.336L56.6716 108.055L74.826 95.0193L62.9926 70.5985C62.9926 70.5985 63.8667 53.81 69.8545 52.0289Z" fill="#FAFAFC"/>
<path d="M82.3926 98.2535C81.3141 97.5024 80.1882 96.8217 79.0218 96.2157C77.8139 95.6956 76.575 95.2504 75.3123 94.8827C75.7037 94.8713 76.0944 94.921 76.4705 95.0302C77.3929 95.2389 78.289 95.5505 79.142 95.959C79.9968 96.3619 80.8032 96.8604 81.5458 97.445C81.8714 97.6652 82.1577 97.9385 82.3926 98.2535Z" fill="#2D2F34"/>
<path d="M81.7208 93.0689C80.619 93.1752 79.5244 93.3467 78.4429 93.5825C77.3865 93.9102 76.3519 94.3044 75.3452 94.7626C77.1803 93.4089 79.4614 92.8035 81.7263 93.0689H81.7208Z" fill="#2D2F34"/>
<path d="M88.8665 104.995C88.903 104.945 88.9432 104.898 88.9867 104.853L89.3473 104.443C89.5633 104.227 89.7676 103.999 89.9592 103.761C90.2178 103.448 90.4568 103.119 90.6749 102.777C91.3008 101.864 91.7732 100.854 92.0735 99.7888C92.261 99.1253 92.362 98.4403 92.3739 97.751C92.4086 96.9822 92.2724 96.2154 91.9751 95.5056C89.5986 89.3758 86.3261 80.9405 82.6876 71.6257C81.2781 68.2166 79.9177 64.9277 78.6339 61.8355C78.0001 60.2894 77.3773 58.7925 76.7873 57.3557C76.1276 56.0386 75.1653 54.8966 73.9792 54.0231V54.0231L63.752 48.2976L61.6978 45.566L61.1514 44.8557C61.0891 44.7773 61.0342 44.6931 60.9875 44.6044C60.9875 44.6044 61.0586 44.6809 61.1842 44.8339L61.7305 45.5223L63.8394 48.2211L74.1157 53.8319C75.3396 54.7263 76.3339 55.8984 77.0167 57.2519C77.6122 58.6887 78.235 60.1856 78.8797 61.7263L82.9444 71.5273C86.5774 80.8531 89.7953 89.3212 92.1336 95.4455C92.437 96.1802 92.5714 96.9737 92.5269 97.7674C92.5097 98.4708 92.3995 99.1689 92.1991 99.8434C91.8847 100.921 91.3916 101.939 90.7404 102.854C90.5122 103.19 90.2641 103.513 89.9974 103.821C89.8125 104.056 89.6117 104.279 89.3965 104.487L89.0086 104.875C88.9212 104.957 88.8665 105.001 88.8665 104.995Z" fill="#2D2F34"/>
<path d="M75.9296 114.955C75.8749 115.006 75.8165 115.054 75.7547 115.097L75.2084 115.496L73.1597 116.993L65.6313 122.456L65.5439 122.521L65.4838 122.423L56.5568 108.131L56.4858 108.022L56.5896 107.951L64.7845 102.056L74.7659 94.8773L74.7222 95.0466L66.0411 77.4386L63.5553 72.3414L62.8997 70.981C62.8341 70.8335 62.7795 70.7133 62.7358 70.6259L62.6866 70.5002C62.7145 70.5358 62.7383 70.5742 62.7576 70.615L62.9434 70.9592L63.6318 72.3031C64.2382 73.4941 65.1014 75.2096 66.1886 77.3621L74.968 94.9264L75.0172 95.0302L74.9243 95.0958L64.9539 102.285L56.759 108.169L56.7918 107.989L65.686 122.286L65.533 122.259L73.116 116.894L75.1975 115.441L75.7438 115.069C75.8019 115.025 75.8641 114.987 75.9296 114.955V114.955Z" fill="#2D2F34"/>
<path d="M63.0691 66.7197C63.0404 66.5021 63.0404 66.2817 63.0691 66.0641C63.1288 65.4645 63.2366 64.8708 63.3915 64.2885C63.8997 62.3552 64.8668 60.573 66.2107 59.0932C67.5545 57.6133 69.2355 56.4794 71.111 55.7877C71.6739 55.5766 72.2531 55.4122 72.8429 55.296C73.0574 55.2428 73.2775 55.2153 73.4985 55.2141C73.4985 55.2687 72.5807 55.4107 71.1875 55.9734C69.3695 56.7017 67.7408 57.8335 66.4243 59.2834C65.1078 60.7334 64.138 62.4635 63.5881 64.3431C63.1893 65.7854 63.1238 66.7306 63.0691 66.7197Z" fill="#2D2F34"/>
<path d="M75.9296 114.955C75.8749 115.006 75.8165 115.054 75.7547 115.097L75.2084 115.496L73.1597 116.993L65.6313 122.456L65.5439 122.521L65.4838 122.423L56.5568 108.131L56.4858 108.022L56.5896 107.951L64.7845 102.056L74.7659 94.8773L74.7222 95.0466L66.0411 77.4386L63.5553 72.3414L62.8997 70.981C62.8341 70.8335 62.7795 70.7133 62.7358 70.6259L62.6866 70.5002C62.7145 70.5358 62.7383 70.5742 62.7576 70.615L62.9434 70.9592L63.6318 72.3031C64.2382 73.4941 65.1014 75.2096 66.1886 77.3621L74.968 94.9264L75.0172 95.0302L74.9243 95.0958L64.9539 102.285L56.759 108.169L56.7918 107.989L65.686 122.286L65.533 122.259L73.116 116.894L75.1975 115.441L75.7438 115.069C75.8019 115.025 75.8641 114.987 75.9296 114.955V114.955Z" fill="#2D2F34"/>
<g opacity="0.2">
<path opacity="0.2" d="M53.5194 62.1961L50.4928 62.0978L51.1265 65.1627L37.4902 68.6264L50.2797 64.0154L49.8263 60.8959L53.5194 62.1961Z" fill="black"/>
</g>
<path d="M26.8751 159.442C26.8618 159.302 26.8618 159.161 26.8751 159.021C26.8751 158.721 26.9079 158.322 26.9243 157.814C26.9789 156.721 27.0554 155.219 27.1537 153.345C27.3723 149.521 27.6727 144.265 28.0115 138.332L28.0442 138.43C27.5215 137.709 27.0971 136.92 26.7822 136.087C25.9934 133.908 25.4582 131.646 25.187 129.345C24.8974 127.16 24.7444 125.122 24.6406 123.253C24.4658 119.522 24.5314 116.523 24.6406 114.676V114.616H24.7007L26.3397 114.703L26.7549 114.736H26.897H26.7549H26.3397L24.7007 114.703L24.7608 114.649C24.7226 116.49 24.7007 119.489 24.9029 123.21C25.0067 125.073 25.1706 127.116 25.4492 129.274C25.7227 131.567 26.2579 133.822 27.0445 135.994C27.3477 136.802 27.7574 137.566 28.2628 138.266L28.2955 138.31V138.365C27.9186 144.292 27.5853 149.554 27.3449 153.367C27.2084 155.241 27.1046 156.754 27.0281 157.83C26.9898 158.338 26.9571 158.737 26.9297 159.038C26.9214 159.174 26.9031 159.309 26.8751 159.442Z" fill="#2D2F34"/>
<path d="M60.7746 60.3386L60.0371 60.0272C60.0371 59.9889 61.6761 56.0281 63.3151 51.8323C63.9597 50.166 64.1892 48.7783 64.0034 47.7021C63.9189 47.2539 63.6771 46.8507 63.3214 46.5652C62.9658 46.2796 62.5198 46.1306 62.064 46.145L61.5613 45.4239C62.2704 45.3137 62.995 45.4721 63.5933 45.8683C64.1915 46.2644 64.6203 46.8697 64.7956 47.5655C65.0032 48.7838 64.7574 50.2971 64.0635 52.1219C62.4464 56.3286 60.791 60.2949 60.7746 60.3386Z" fill="#707683"/>
<path d="M61.9711 69.5933L60.9495 69.2C61.7854 67.0474 62.9272 63.2341 62.4355 62.1633C62.197 61.7788 61.8783 61.4505 61.5011 61.2006C61.1239 60.9507 60.6972 60.7852 60.2502 60.7155C59.703 60.5711 59.1298 60.5551 58.5754 60.6688C58.021 60.7825 57.5004 61.0229 57.0542 61.3711C55.8851 62.36 54.1259 65.8455 53.5468 67.1021L52.5525 66.6432C52.6399 66.4519 54.7378 61.8792 56.3768 60.5352C56.9519 60.0781 57.625 59.7602 58.3435 59.6067C59.0619 59.4531 59.8062 59.468 60.5179 59.6502C61.1311 59.7525 61.7138 59.9906 62.2233 60.3469C62.7327 60.7032 63.1562 61.1689 63.4626 61.7098C64.2821 63.5127 62.359 68.5935 61.9711 69.5933Z" fill="#707683"/>
<path d="M50.9625 86.218C49.7005 86.218 48.4658 85.546 47.2803 84.2075L47.6845 83.8415C48.9957 85.3166 50.3397 85.9012 51.6782 85.5897C57.1414 84.3059 61.2771 69.1618 61.3208 69.0088L61.8671 69.1508C61.6978 69.79 57.5894 84.7648 51.8257 86.1197C51.5429 86.1864 51.2531 86.2194 50.9625 86.218V86.218Z" fill="#2D2F34"/>
<path d="M48.3293 84.8304C48.2178 84.9406 48.0706 85.0073 47.9143 85.0183C47.7579 85.0294 47.6028 84.984 47.477 84.8905L46.2915 84.0109C46.2047 83.9541 46.1301 83.8806 46.072 83.7947C46.0139 83.7087 45.9735 83.6121 45.9532 83.5104C45.9328 83.4087 45.9329 83.3039 45.9535 83.2023C45.9741 83.1006 46.0147 83.004 46.073 82.9182V82.9182C46.1369 82.8212 46.2217 82.7396 46.3212 82.6794C46.4207 82.6193 46.5323 82.5821 46.648 82.5706C46.7637 82.559 46.8805 82.5735 46.9899 82.6128C47.0993 82.6522 47.1985 82.7155 47.2803 82.7981L48.3402 83.8907C48.4023 83.9525 48.4513 84.0262 48.4845 84.1072C48.5176 84.1883 48.5341 84.2753 48.5331 84.3629C48.5321 84.4504 48.5135 84.537 48.4785 84.6173C48.4435 84.6976 48.3928 84.77 48.3293 84.8304Z" fill="#2D2F34"/>
<path d="M53.279 86.7152C51.5963 86.7152 50.3452 86.1688 49.5585 85.0762C46.2095 80.3778 52.5251 67.3315 52.7982 66.7743L53.2899 67.0147C53.2244 67.1458 46.8433 80.3232 50.012 84.7593C50.8369 85.9121 52.2847 86.3983 54.317 86.1197L54.3881 86.666C54.0198 86.7057 53.6493 86.7222 53.279 86.7152V86.7152Z" fill="#2D2F34"/>
<path d="M53.1805 86.4202C53.1916 86.5756 53.2575 86.7219 53.3667 86.833C53.4758 86.9441 53.6209 87.0127 53.776 87.0266L55.2456 87.1468C55.3479 87.1614 55.4521 87.1556 55.5522 87.1296C55.6522 87.1037 55.7461 87.0581 55.8284 86.9956C55.9108 86.9331 55.9799 86.8549 56.0317 86.7655C56.0836 86.6761 56.1172 86.5773 56.1306 86.4748V86.4748C56.1463 86.3601 56.1362 86.2433 56.1012 86.133C56.0661 86.0226 56.007 85.9214 55.928 85.8367C55.8491 85.752 55.7523 85.6859 55.6447 85.6432C55.537 85.6005 55.4213 85.5823 55.3057 85.5898L53.776 85.7209C53.6044 85.7349 53.4453 85.8163 53.3336 85.9474C53.222 86.0785 53.1669 86.2486 53.1805 86.4202V86.4202Z" fill="#2D2F34"/>
<path d="M28.535 77.5744C30.716 76.6661 31.7477 74.1618 30.8394 71.9808C29.9311 69.7999 27.4268 68.7682 25.2458 69.6764C23.0649 70.5847 22.0332 73.0891 22.9415 75.27C23.8498 77.451 26.3541 78.4826 28.535 77.5744Z" fill="#2D2F34"/>
<path d="M28.535 77.5744C30.716 76.6661 31.7477 74.1618 30.8394 71.9808C29.9311 69.7999 27.4268 68.7682 25.2458 69.6764C23.0649 70.5847 22.0332 73.0891 22.9415 75.27C23.8498 77.451 26.3541 78.4826 28.535 77.5744Z" fill="#2D2F34"/>
<path d="M30.0601 73.6143C30.0601 74.2399 29.8746 74.8515 29.527 75.3717C29.1794 75.8919 28.6854 76.2973 28.1074 76.5367C27.5294 76.7761 26.8934 76.8388 26.2798 76.7167C25.6662 76.5947 25.1025 76.2934 24.6601 75.851C24.2177 75.4086 23.9165 74.845 23.7944 74.2314C23.6724 73.6178 23.735 72.9818 23.9744 72.4038C24.2138 71.8258 24.6193 71.3317 25.1395 70.9842C25.6597 70.6366 26.2712 70.4511 26.8969 70.4511C27.3125 70.4503 27.7241 70.5317 28.1082 70.6904C28.4923 70.8491 28.8413 71.0821 29.1352 71.3759C29.4291 71.6698 29.6621 72.0188 29.8208 72.4029C29.9795 72.787 30.0608 73.1987 30.0601 73.6143V73.6143Z" fill="#FAFAFC"/>
<path d="M28.656 69.7573L27.9458 69.3912C28.3064 68.6919 36.7635 52.2421 37.2716 51.4991C37.359 51.368 37.4682 51.1822 37.5884 50.9801C37.8426 50.5378 38.1255 50.1125 38.4352 49.7071C39.2875 48.6527 40.3037 47.6803 41.522 47.4617L40.8118 48.609C40.1616 48.8603 39.8174 49.2701 39.0581 50.2098C38.7726 50.5879 38.5117 50.9838 38.2768 51.3953C38.1457 51.6138 38.031 51.805 37.9326 51.9416C37.512 52.5316 31.1036 64.9988 28.656 69.7573Z" fill="#707683"/>
</g>
<mask id="mask1" style="mask-type:alpha" maskUnits="userSpaceOnUse" x="26" y="0" width="50" height="46">
<rect x="26.4695" y="0.155579" width="49.4625" height="45.2598" fill="white"/>
</mask>
<g mask="url(#mask1)">
<path d="M34.3816 13.737C34.3816 13.737 30.8742 26.8488 30.5573 36.1363L30.459 39.2285C30.459 39.2285 38.1895 45.6479 44.6634 46.0412L50.1267 32.6726L34.3816 13.737Z" fill="#2D2F34"/>
<path d="M68.7347 21.7789C67.2541 15.3869 66.686 7.94597 61.3702 3.77751C57.4258 0.685306 52.935 -0.177891 47.9252 0.0351756C45.4612 0.138977 42.675 1.27534 40.5279 2.48818C37.5832 4.15447 36.3376 7.53623 34.9172 10.6066C32.0708 16.7582 32.4314 25.0897 34.3708 27.4061L60.0481 40.9823C65.1836 38.3107 68.4014 37.2509 69.2209 30.4054C69.5571 27.5234 69.3926 24.6049 68.7347 21.7789V21.7789Z" fill="#2D2F34"/>
<path d="M60.8128 8.85832L44.6143 4.08344C39.4024 3.32405 35.6655 9.6341 35.1301 14.8734C34.5291 20.6917 34.0374 27.8213 34.551 32.2028C35.5999 41.015 42.2651 42.3918 42.2651 42.3918C42.2651 42.3918 42.2651 42.5229 42.2269 45.1234L42.0575 49.341C41.9578 51.049 42.4626 52.7375 43.4834 54.1105C45.8654 57.2027 50.2196 57.6179 55.3441 55.7221C58.3161 54.6295 60.3867 52.4059 60.6107 49.3957L63.4243 12.0816C63.4684 11.3157 63.2252 10.5608 62.7423 9.96468C62.2593 9.36855 61.5713 8.97403 60.8128 8.85832V8.85832Z" fill="#9F6B5B"/>
<path d="M38.1406 22.8661C38.127 23.1584 38.2277 23.4446 38.4215 23.6638C38.6153 23.8831 38.8869 24.0183 39.1787 24.0407C39.4662 24.0713 39.7541 23.9868 39.9794 23.8055C40.2047 23.6243 40.3489 23.3611 40.3806 23.0737C40.3917 22.928 40.3735 22.7815 40.327 22.6429C40.2805 22.5043 40.2066 22.3765 40.1098 22.267C40.0131 22.1575 39.8953 22.0685 39.7635 22.0053C39.6317 21.9421 39.4886 21.906 39.3426 21.8991C39.055 21.8685 38.7671 21.953 38.5418 22.1343C38.3165 22.3155 38.1723 22.5787 38.1406 22.8661Z" fill="#2D2F34"/>
<path d="M36.5069 20.1727C36.638 20.3257 37.5122 19.7302 38.7195 19.7794C39.9269 19.8285 40.7901 20.4677 40.9048 20.3257C41.0196 20.1836 40.8447 19.9924 40.4678 19.6974C39.9601 19.3133 39.345 19.0974 38.7086 19.0801C38.0812 19.051 37.461 19.2233 36.9385 19.5717C36.5725 19.8231 36.4195 20.0853 36.5069 20.1727Z" fill="#2D2F34"/>
<path d="M49.4055 22.7569C49.3905 23.0495 49.4907 23.3364 49.6848 23.556C49.8789 23.7756 50.1513 23.9104 50.4436 23.9315C50.7302 23.9606 51.0167 23.8753 51.2408 23.6942C51.4649 23.5131 51.6083 23.2508 51.64 22.9645C51.6565 22.6772 51.5591 22.3951 51.3688 22.1793C51.1786 21.9635 50.9109 21.8314 50.6238 21.8117C50.3371 21.7761 50.0479 21.8556 49.8195 22.0327C49.5912 22.2099 49.4423 22.4702 49.4055 22.7569V22.7569Z" fill="#2D2F34"/>
<path d="M48.3895 20.2929C48.526 20.4459 49.4002 19.8504 50.6075 19.8996C51.8149 19.9487 52.6781 20.5879 52.7928 20.4459C52.9076 20.3039 52.7273 20.1126 52.3558 19.8176C51.8464 19.4367 51.2324 19.2212 50.5966 19.2003C49.9667 19.1709 49.3441 19.3452 48.8211 19.6974C48.4386 19.9651 48.3239 20.2274 48.3895 20.2929Z" fill="#2D2F34"/>
<path d="M43.6856 28.1272C43.0557 27.9038 42.4006 27.7588 41.7352 27.6956C41.4293 27.6519 41.1397 27.5809 41.096 27.3678C41.0806 27.048 41.1646 26.7312 41.3364 26.4609L42.3416 24.1445C43.7402 20.8666 44.7673 18.1349 44.6307 18.0803C44.4942 18.0257 43.2595 20.6535 41.8609 23.9478L40.8939 26.2752C40.6841 26.6404 40.6105 27.0682 40.6863 27.4826C40.7251 27.5933 40.7893 27.6935 40.8738 27.775C40.9582 27.8566 41.0605 27.9174 41.1725 27.9524C41.3495 28.008 41.5333 28.0393 41.7188 28.0453C42.3682 28.1564 43.0292 28.1839 43.6856 28.1272V28.1272Z" fill="#2D2F34"/>
<path d="M42.2872 42.3918C46.4078 42.6169 50.5099 41.6939 54.137 39.7257C54.137 39.7257 50.9957 45.7353 42.2654 44.5771L42.2872 42.3918Z" fill="#774F44"/>
<path d="M47.5863 30.5529C47.4216 30.2773 47.1913 30.0467 46.9158 29.8818C46.6403 29.7169 46.3282 29.6227 46.0075 29.6078C45.5587 29.5569 45.1045 29.6274 44.6922 29.8119C44.28 29.9964 43.9248 30.2882 43.6637 30.6567C43.4738 31.0016 43.4211 31.4055 43.5162 31.7876C43.5927 31.9843 43.5162 31.886 43.6746 32.0225C44.1565 32.5555 44.76 32.9641 45.4338 33.2135C45.7994 33.3188 46.188 33.3127 46.55 33.1959C46.9121 33.0791 47.231 32.857 47.4661 32.5579C47.6673 32.2665 47.7848 31.9256 47.806 31.5722C47.8272 31.2188 47.7512 30.8663 47.5863 30.5529V30.5529Z" fill="#774F44"/>
<path d="M47.4224 29.1544C47.2257 29.1544 47.1656 30.4491 46.0019 31.3397C44.8382 32.2302 43.4506 32.0116 43.4287 32.1919C43.4287 32.2739 43.7292 32.4596 44.3192 32.5033C45.0865 32.5525 45.846 32.3258 46.4608 31.8641C47.0459 31.4188 47.4371 30.7654 47.5535 30.0394C47.6464 29.4603 47.5152 29.1544 47.4224 29.1544Z" fill="#2D2F34"/>
<path d="M47.9362 15.8677C48.0182 16.2064 49.2365 16.1736 50.6351 16.4796C52.0336 16.7855 53.1318 17.2827 53.3667 17.0259C53.465 16.8948 53.2957 16.567 52.8641 16.2064C52.287 15.7591 51.6158 15.4489 50.9012 15.2994C50.1866 15.1498 49.4473 15.1648 48.7393 15.3432C48.182 15.4798 47.8925 15.7092 47.9362 15.8677Z" fill="#2D2F34"/>
<path d="M36.6052 16.8948C36.8784 17.1297 37.7579 16.7145 38.867 16.5397C39.976 16.3649 40.9376 16.4304 41.1124 16.1135C41.1889 15.9606 40.9977 15.7093 40.5661 15.5126C39.9603 15.2841 39.3045 15.2218 38.6666 15.3323C38.0288 15.4428 37.4321 15.722 36.9385 16.1409C36.5724 16.4796 36.4795 16.7801 36.6052 16.8948Z" fill="#2D2F34"/>
<path d="M44.8603 3.13831C44.8603 3.20386 44.8329 3.26942 44.822 3.32951H44.8493C44.8548 3.27488 44.8548 3.23664 44.8603 3.13831Z" fill="#2D2F34"/>
<path d="M56.1747 45.9265C56.4206 43.6319 55.4973 41.3264 55.765 39.0319C56.0491 36.6007 57.6225 34.5192 58.2726 32.1536C59.3052 28.3731 57.8847 24.3521 57.3657 20.4459C55.1322 20.0832 53.1079 18.9176 51.673 17.1679C49.9139 15.1192 48.854 12.5843 47.816 10.093C47.8874 12.5521 48.7196 14.9284 50.1979 16.8948C49.7047 16.9712 49.2004 16.9304 48.7258 16.7756C48.2512 16.6209 47.8198 16.3567 47.4663 16.0043C46.7643 15.2971 46.2189 14.4502 45.8656 13.5185C44.9206 11.2999 44.3963 8.92487 44.3195 6.51459C43.9942 9.96589 44.3829 13.4472 45.4613 16.7418C44.83 16.6256 44.1809 16.6498 43.5601 16.8128C43.2487 16.8931 42.923 16.9004 42.6084 16.834C42.2938 16.7677 41.9987 16.6296 41.7463 16.4304C41.4731 16.0957 41.3006 15.6902 41.2491 15.2613C40.6479 12.329 40.55 9.3158 40.9596 6.35069C40.1302 7.91931 39.4586 9.56635 38.9546 11.2676C38.4478 12.9848 38.4346 14.8099 38.9163 16.5342C38.8447 16.6062 38.7596 16.6634 38.6658 16.7024C38.5721 16.7414 38.4715 16.7614 38.37 16.7614C38.2685 16.7614 38.1679 16.7414 38.0741 16.7024C37.9804 16.6634 37.8953 16.6062 37.8237 16.5342C37.5465 16.2335 37.3774 15.849 37.3429 15.4415C37.1965 13.9569 37.2943 12.4584 37.6325 11.0054C36.7583 12.5569 36.4688 14.3598 35.9935 16.0698C35.5182 17.7798 34.7369 19.5444 33.2619 20.5224C33.0068 18.2838 33.0804 16.0199 33.4804 13.8026C33.7754 11.9669 34.6441 10.1477 35.4472 8.47044C36.3001 6.60831 37.5061 4.92924 38.9983 3.52619C41.5769 1.26987 42.6586 2.24233 44.3031 3.10006L44.4998 3.182C44.4971 3.14198 44.4971 3.10183 44.4998 3.06181L44.5708 2.71216C48.8866 1.74694 53.3823 1.95635 57.5897 3.31858C60.6929 4.33475 64.5171 7.52529 66.096 10.3826C66.1233 10.4372 66.1561 10.4918 66.1889 10.5465C69.8493 17.157 72.264 24.8165 72.4443 41.3811L56.1747 45.9265Z" fill="#2D2F34"/>
<path d="M27.0393 77.2965C28.0282 67.1184 40.2659 49.494 40.2659 49.494L42.1998 46.369L40.2713 55.0119C40.2713 55.0119 38.3537 67.6265 38.086 67.8888L48.8759 57.4376L61.0044 44.5934L63.4028 48.0353L74.0506 53.9356L72.958 87.3598L69.1337 97.1554C69.1337 97.1554 80.3771 127.935 81.8358 138.845L84.2669 159.535L26.8645 159.442C26.8645 159.442 28.8804 127.083 29.1044 120.172C29.3284 113.261 29.8638 97.9749 29.8638 97.9749C29.8638 97.9749 26.0396 87.4691 27.0393 77.2965Z" fill="#FAFAFC"/>
<path d="M88.8668 104.995C88.9033 104.945 88.9435 104.897 88.987 104.853L89.3475 104.443C89.5635 104.227 89.7678 103.999 89.9594 103.76C90.2181 103.448 90.4571 103.119 90.6751 102.777C91.301 101.864 91.7734 100.854 92.0737 99.7887C92.2612 99.1252 92.3622 98.4403 92.3742 97.7509C92.4088 96.9822 92.2726 96.2153 91.9754 95.5055C89.5989 89.3757 86.3264 80.9405 82.6878 71.6256C81.2783 68.2165 79.918 64.9277 78.6341 61.8355C78.0004 60.2894 77.3776 58.7924 76.7875 57.3556C76.1278 56.0386 75.1655 54.8965 73.9794 54.023V54.023L63.7522 48.2975L61.698 45.5659L61.1517 44.8557C61.0893 44.7772 61.0345 44.6931 60.9878 44.6044C60.9878 44.6044 61.0588 44.6809 61.1845 44.8338L61.7308 45.5222L63.8396 48.221L74.116 53.8318C75.3399 54.7263 76.3341 55.8984 77.017 57.2518C77.6125 58.6886 78.2353 60.1856 78.8799 61.7262L82.9446 71.5273C86.5777 80.8531 89.7955 89.3211 92.1338 95.4454C92.4372 96.1801 92.5717 96.9736 92.5272 97.7673C92.5099 98.4707 92.3997 99.1688 92.1994 99.8433C91.885 100.921 91.3919 101.939 90.7407 102.854C90.5124 103.19 90.2643 103.513 89.9977 103.821C89.8127 104.056 89.6119 104.279 89.3967 104.487L89.0088 104.875C88.9214 104.957 88.8668 105.001 88.8668 104.995Z" fill="#2D2F34"/>
<path d="M60.7746 60.3386L60.0371 60.0272C60.0371 59.9889 61.6761 56.0281 63.3151 51.8323C63.9597 50.166 64.1892 48.7783 64.0034 47.7021C63.9189 47.2539 63.6771 46.8507 63.3214 46.5652C62.9658 46.2796 62.5198 46.1306 62.064 46.145L61.5613 45.4239C62.2704 45.3137 62.995 45.4721 63.5933 45.8683C64.1915 46.2644 64.6203 46.8697 64.7956 47.5655C65.0032 48.7838 64.7574 50.2971 64.0635 52.1219C62.4464 56.3286 60.791 60.2949 60.7746 60.3386Z" fill="#707683"/>
</g>
</svg>
