<svg width="33" height="33" viewBox="0 0 33 33" fill="none" xmlns="http://www.w3.org/2000/svg">
<path fill-rule="evenodd" clip-rule="evenodd" d="M20.6695 11.8307C18.2287 9.38978 14.2714 9.38978 11.8306 11.8307C9.38976 14.2714 9.3898 18.2287 11.8307 20.6694C14.2714 23.1102 18.2287 23.1102 20.6694 20.6694C23.1102 18.2287 23.1102 14.2714 20.6695 11.8307ZM13.5985 13.5984C15.0629 12.1339 17.4372 12.1339 18.9016 13.5984C20.3661 15.0628 20.3661 17.4372 18.9017 18.9016C17.4372 20.3661 15.0629 20.3661 13.5984 18.9016C12.1339 17.4372 12.1339 15.0628 13.5985 13.5984Z" fill="#0031B2"/>
<path fill-rule="evenodd" clip-rule="evenodd" d="M15.3966 32.5H16.8517C17.9085 32.5 18.7581 31.9316 19.2987 31.3328C19.8229 30.7522 20.25 29.9297 20.25 29.1017C20.25 28.7852 20.2993 28.6223 20.3479 28.5344C20.3803 28.4758 20.4567 28.364 20.7368 28.2512C21.0895 28.1147 21.3686 28.0731 21.5749 28.0913C21.7534 28.1072 21.9142 28.1686 22.0828 28.3372C23.4093 29.6637 25.5625 29.6637 26.8889 28.3372L28.0921 27.1339C29.4187 25.8075 29.4188 23.6544 28.0923 22.3279C27.8148 22.0503 27.7386 21.6299 27.8893 21.2697C28.019 20.9577 28.1654 20.7602 28.2973 20.6489C28.4082 20.5554 28.5357 20.4967 28.7383 20.4967C30.5361 20.4967 32.2483 19.1452 32.2483 17.0983V15.4017C32.2483 13.3548 30.5361 12.0033 28.7383 12.0033C28.5357 12.0033 28.4082 11.9446 28.2973 11.8511C28.1654 11.7398 28.019 11.5423 27.8893 11.2303C27.7386 10.8701 27.8148 10.4497 28.0923 10.1721C29.4188 8.84564 29.4187 6.69249 28.0921 5.36606L26.8889 4.16281C25.5625 2.83628 23.4093 2.83628 22.0828 4.16281C21.9142 4.33139 21.7534 4.39285 21.5749 4.40867C21.3686 4.42695 21.0895 4.38526 20.7368 4.24877C20.4567 4.13601 20.3803 4.02418 20.3479 3.96555C20.2993 3.87775 20.25 3.7148 20.25 3.39833C20.25 2.57031 19.8229 1.74785 19.2987 1.16717C18.7581 0.568387 17.9085 0 16.8517 0H15.3966C14.3398 0 13.4902 0.568387 12.9496 1.16717C12.4254 1.74785 11.9983 2.57031 11.9983 3.39833C11.9983 3.7148 11.949 3.87775 11.9004 3.96555C11.868 4.02418 11.7916 4.13601 11.5115 4.24877C11.1588 4.38526 10.8797 4.42695 10.6734 4.40867C10.4949 4.39285 10.3341 4.33139 10.1655 4.16281C8.83904 2.83628 6.68586 2.83628 5.35939 4.16281L4.15617 5.36606C2.82958 6.69249 2.82954 8.84564 4.15605 10.1721C4.43352 10.4497 4.50973 10.8701 4.35903 11.2303C4.22934 11.5423 4.08295 11.7398 3.95099 11.8511C3.84007 11.9446 3.71262 12.0033 3.51 12.0033C1.71223 12.0033 0 13.3548 0 15.4017V17.0983C0 19.1452 1.71223 20.4967 3.51 20.4967C3.71262 20.4967 3.84007 20.5554 3.95099 20.6489C4.08295 20.7602 4.22934 20.9577 4.35903 21.2697C4.50973 21.6299 4.43352 22.0503 4.15605 22.3279C2.82954 23.6544 2.82958 25.8075 4.15617 27.1339L5.35939 28.3372C6.68586 29.6637 8.83904 29.6637 10.1655 28.3372C10.3341 28.1686 10.4949 28.1072 10.6734 28.0913C10.8797 28.0731 11.1588 28.1147 11.5115 28.2512C11.7916 28.364 11.868 28.4758 11.9004 28.5344C11.949 28.6223 11.9983 28.7852 11.9983 29.1017C11.9983 29.9297 12.4254 30.7522 12.9496 31.3328C13.4902 31.9316 14.3398 32.5 15.3966 32.5ZM2.5 15.4017V17.0983C2.5 17.5676 2.88748 17.9967 3.51 17.9967C5.23289 17.9967 6.20498 19.1995 6.66624 20.3071C7.21214 21.6047 6.91949 23.0998 5.92395 24.0955C5.57378 24.4456 5.57366 25.0159 5.92383 25.3661L7.1272 26.5695C7.47734 26.9196 8.04755 26.9196 8.39769 26.5695C9.66829 25.299 11.2653 25.4731 12.4231 25.9233C13.1155 26.1926 13.7254 26.6689 14.088 27.3242C14.4218 27.9277 14.4983 28.5665 14.4983 29.1017C14.4996 29.112 14.5081 29.175 14.5568 29.2833C14.6106 29.4026 14.6953 29.5358 14.8053 29.6576C15.0423 29.9201 15.2668 30 15.3966 30H16.8517C16.9815 30 17.206 29.9201 17.443 29.6576C17.553 29.5358 17.6377 29.4026 17.6915 29.2833C17.7402 29.175 17.7487 29.112 17.75 29.1017C17.75 28.5665 17.8265 27.9277 18.1603 27.3242C18.5229 26.6689 19.1328 26.1926 19.8252 25.9233C20.983 25.4731 22.58 25.299 23.8506 26.5695C24.2008 26.9196 24.771 26.9196 25.1211 26.5695L26.3245 25.3661C26.6747 25.0159 26.6745 24.4456 26.3244 24.0955C25.3288 23.0998 25.0362 21.6047 25.5821 20.3071C26.0433 19.1995 27.0154 17.9967 28.7383 17.9967C29.3608 17.9967 29.7483 17.5676 29.7483 17.0983V15.4017C29.7483 14.9324 29.3608 14.5033 28.7383 14.5033C27.0154 14.5033 26.0433 13.3005 25.5821 12.1929C25.0362 10.8953 25.3288 9.40018 26.3244 8.40449C26.6745 8.05435 26.6747 7.48407 26.3245 7.13394L25.1211 5.93053C24.771 5.58038 24.2008 5.58038 23.8506 5.93053C22.58 7.20104 20.983 7.02691 19.8252 6.57668C19.1328 6.30741 18.5229 5.83113 18.1603 5.17579C17.8265 4.57231 17.75 3.93353 17.75 3.39833C17.7487 3.38804 17.7402 3.32497 17.6915 3.21671C17.6377 3.09738 17.553 2.96424 17.443 2.84241C17.206 2.57994 16.9815 2.5 16.8517 2.5H15.3966C15.2668 2.5 15.0423 2.57994 14.8053 2.84241C14.6953 2.96424 14.6106 3.09738 14.5568 3.21671C14.5081 3.32497 14.4996 3.38804 14.4983 3.39833C14.4983 3.93353 14.4218 4.57231 14.088 5.17579C13.7254 5.83113 13.1155 6.30741 12.4231 6.57668C11.2653 7.02691 9.66829 7.20104 8.39769 5.93053C8.04755 5.58038 7.47734 5.58038 7.1272 5.93053L5.92383 7.13394C5.57366 7.48407 5.57378 8.05435 5.92395 8.40449C6.91949 9.40018 7.21214 10.8953 6.66624 12.1929C6.20498 13.3005 5.23289 14.5033 3.51 14.5033C2.88748 14.5033 2.5 14.9324 2.5 15.4017Z" fill="#0031B2"/>
</svg>
