<svg width="41" height="40" viewBox="0 0 41 40" fill="none" xmlns="http://www.w3.org/2000/svg">
<path fill-rule="evenodd" clip-rule="evenodd" d="M7.58383 8.33322C7.58383 7.64315 8.14324 7.08374 8.83331 7.08374H20.5C21.19 7.08374 21.7495 7.64315 21.7495 8.33322C21.7495 9.02329 21.19 9.5827 20.5 9.5827H8.83331C8.14324 9.5827 7.58383 9.02329 7.58383 8.33322Z" fill="#0031B2"/>
<path fill-rule="evenodd" clip-rule="evenodd" d="M19.2505 8.33322C19.2505 7.64315 19.8099 7.08374 20.5 7.08374C28.5538 7.08374 35.0828 13.6127 35.0828 21.6666C35.0828 29.7204 28.5538 36.2494 20.5 36.2494C12.4461 36.2494 5.91716 29.7204 5.91716 21.6666C5.91716 20.9765 6.47657 20.4171 7.16664 20.4171C7.85671 20.4171 8.41612 20.9765 8.41612 21.6666C8.41612 28.3403 13.8262 33.7504 20.5 33.7504C27.1737 33.7504 32.5838 28.3403 32.5838 21.6666C32.5838 14.9928 27.1737 9.5827 20.5 9.5827C19.8099 9.5827 19.2505 9.02329 19.2505 8.33322Z" fill="#0031B2"/>
<path fill-rule="evenodd" clip-rule="evenodd" d="M14.7168 2.4497C15.2048 2.93766 15.2048 3.72878 14.7168 4.21673L9.71682 9.21673C9.22887 9.70469 8.43774 9.70469 7.94979 9.21673C7.46184 8.72878 7.46184 7.93766 7.94979 7.4497L12.9498 2.4497C13.4377 1.96175 14.2289 1.96175 14.7168 2.4497Z" fill="#0031B2"/>
<path fill-rule="evenodd" clip-rule="evenodd" d="M7.94979 7.4497C8.43774 6.96175 9.22887 6.96175 9.71682 7.4497L14.7168 12.4497C15.2048 12.9377 15.2048 13.7288 14.7168 14.2167C14.2289 14.7047 13.4377 14.7047 12.9498 14.2167L7.94979 9.21673C7.46184 8.72878 7.46184 7.93766 7.94979 7.4497Z" fill="#0031B2"/>
<path fill-rule="evenodd" clip-rule="evenodd" d="M19.1533 15.1404C19.8434 15.1404 20.4028 15.6998 20.4028 16.3899V21.6671H25.5C26.19 21.6671 26.7495 22.2265 26.7495 22.9166C26.7495 23.6066 26.19 24.166 25.5 24.166H19.1533C18.4632 24.166 17.9038 23.6066 17.9038 22.9166V16.3899C17.9038 15.6998 18.4632 15.1404 19.1533 15.1404Z" fill="#0031B2"/>
</svg>
