<svg width="34" height="27" viewBox="0 0 34 27" fill="none" xmlns="http://www.w3.org/2000/svg">
<path d="M33.411 1.81836C33.411 1.128 32.8514 0.568359 32.161 0.568359C31.4707 0.568359 30.911 1.128 30.911 1.81836V25.1517C30.911 25.8421 31.4707 26.4017 32.161 26.4017C32.8514 26.4017 33.411 25.8421 33.411 25.1517V1.81836Z" fill="#0031B2"/>
<path fill-rule="evenodd" clip-rule="evenodd" d="M12.776 1.28821L6.49417 6.6101H2.9943C1.3839 6.6101 0.0776367 7.91648 0.0776367 9.5268V17.4434C0.0776367 19.0537 1.3839 20.3601 2.9943 20.3601H6.4963C6.4963 20.3601 10.8808 24.0726 12.7763 25.6804C14.6718 27.2883 17.5776 25.9375 17.5776 23.455V3.5134C17.5776 1.03016 14.6726 -0.319154 12.776 1.28821ZM6.88734 17.8601C7.19422 17.844 7.50763 17.9403 7.76061 18.1547C8.49711 18.7786 9.24185 19.3936 9.9867 20.0086C11.4768 21.239 12.9674 22.4699 14.3933 23.7738C14.6612 24.0013 15.0776 23.8121 15.0776 23.455V3.88019C15.0776 2.99626 14.6209 3.05522 14.3926 3.19519L7.7724 8.80376C7.55294 8.99458 7.26626 9.1101 6.95261 9.1101H2.9943C2.76469 9.1101 2.57764 9.29712 2.57764 9.5268V17.4434C2.57764 17.6731 2.76469 17.8601 2.9943 17.8601H6.88734Z" fill="#0031B2"/>
<path d="M28.411 6.81842C28.411 6.12806 27.8514 5.56842 27.161 5.56842C26.4707 5.56842 25.911 6.12806 25.911 6.81842V20.1517C25.911 20.8421 26.4707 21.4017 27.161 21.4017C27.8514 21.4017 28.411 20.8421 28.411 20.1517V6.81842Z" fill="#0031B2"/>
<path d="M22.161 8.90179C22.8514 8.90179 23.411 9.46144 23.411 10.1518V16.8185C23.411 17.5089 22.8514 18.0685 22.161 18.0685C21.4707 18.0685 20.911 17.5089 20.911 16.8185V10.1518C20.911 9.46144 21.4707 8.90179 22.161 8.90179Z" fill="#0031B2"/>
</svg>
