<svg width="34" height="33" viewBox="0 0 34 33" fill="none" xmlns="http://www.w3.org/2000/svg">
<path fill-rule="evenodd" clip-rule="evenodd" d="M16.0331 10.5059C14.3648 9.51843 12.2596 10.7236 12.2596 12.6583V20.31C12.2596 22.2447 14.3648 23.4499 16.0332 22.4622C16.8663 21.969 21.6842 19.1194 22.5021 18.6362C24.1393 17.6691 24.1395 15.2991 22.502 14.332C21.6843 13.849 16.8664 10.9992 16.0331 10.5059ZM21.2299 16.4842C20.4093 16.9689 15.5931 19.8166 14.7596 20.31V12.6583C15.594 13.1521 20.409 15.9993 21.2299 16.4842Z" fill="#0031B2"/>
<path fill-rule="evenodd" clip-rule="evenodd" d="M17.1611 0.235107C8.18578 0.235107 0.911133 7.50975 0.911133 16.4851C0.911133 25.4605 8.18578 32.7351 17.1611 32.7351C26.1365 32.7351 33.4111 25.4605 33.4111 16.4851C33.4111 7.50975 26.1365 0.235107 17.1611 0.235107ZM3.41113 16.4851C3.41113 8.89046 9.56649 2.73511 17.1611 2.73511C24.7558 2.73511 30.9111 8.89046 30.9111 16.4851C30.9111 24.0798 24.7558 30.2351 17.1611 30.2351C9.56649 30.2351 3.41113 24.0798 3.41113 16.4851Z" fill="#0031B2"/>
</svg>
