<svg width="258" height="213" viewBox="0 0 258 213" fill="none" xmlns="http://www.w3.org/2000/svg">
<path d="M65.1965 173.674C78.3337 183.007 91.0533 188.419 106.725 192.115C122.397 195.811 138.4 200.567 154.366 198.613C171.225 196.548 184.912 196.586 203.517 182.293C216.991 171.934 226.298 151.476 226.127 134.453C226.069 128.53 224.796 122.682 222.387 117.273C219.979 111.863 216.486 107.008 212.127 103.008C207.767 99.0087 202.634 95.9499 197.045 94.022C191.456 92.0942 185.532 91.3384 179.639 91.8016C171.908 92.4104 164.181 95.0978 156.564 93.6709C146.597 91.8063 139.222 83.3398 134.086 74.588C128.951 65.8361 127.883 50.0494 120.251 43.3714C105.586 30.5289 79.0029 28.8166 65.1965 37.1119C50.2083 46.1491 35.5476 63.3009 31.9453 80.4432C31.9453 80.4432 19.6386 141.302 65.1965 173.674Z" fill="#E6EAF7"/>
<path d="M45.5513 33.995C54.9184 33.995 62.5119 26.385 62.5119 16.9975C62.5119 7.61004 54.9184 0 45.5513 0C36.1843 0 28.5908 7.61004 28.5908 16.9975C28.5908 26.385 36.1843 33.995 45.5513 33.995Z" fill="#FCE6E6"/>
<path d="M11.9155 107.168C11.9155 107.168 5.70348 109.315 12.036 122.616C18.3684 135.918 22.8153 142.563 22.8153 142.563C22.8153 142.563 23.9205 145.645 21.3487 146.049C18.777 146.453 13.1673 145.398 11.9207 148.505C10.6479 151.728 12.9264 154.862 17.6351 157.686C22.3439 160.51 32.4423 167.072 33.3485 167.66C34.2546 168.248 35.1136 169.686 33.4061 170.242C31.6986 170.799 18.9865 171.78 19.8141 177.801C20.6416 183.822 35.056 189.517 36.6168 190.168C38.1777 190.819 38.5391 191.507 38.3872 192.373C38.2353 193.239 33.9351 193.166 30.3315 193.591C26.7279 194.016 22.6215 195.165 23.3915 198.583C24.1614 202 32.589 209.401 53.4668 212.026L63.2195 212.603L68.7559 204.483C79.5457 186.373 78.9171 175.166 76.6911 172.463C74.465 169.759 71.05 172.289 68.494 174.872C65.9379 177.455 63.3505 180.898 62.5753 180.489C61.8001 180.079 61.4858 179.371 61.9363 177.733C62.3867 176.095 66.7707 161.203 62.5491 156.846C58.3274 152.489 49.727 161.928 48.2395 162.93C46.7519 163.933 46.1444 162.363 46.2439 161.292C46.3434 160.222 47.3857 148.169 48.0614 142.736C48.7371 137.304 47.7052 133.529 44.3897 132.553C41.1894 131.608 38.5653 136.684 36.664 138.469C34.7627 140.254 32.9975 137.487 32.9975 137.487C32.9975 137.487 30.5567 129.892 23.9886 116.732C17.4204 103.572 11.7898 107.247 11.7898 107.247" fill="#D1D3D7"/>
<path d="M63.0769 212.482C58.3735 203.03 50.2996 186.084 43.296 171.563C36.2924 157.043 29.9166 143.944 25.2853 134.45C22.9594 129.724 21.0759 125.893 19.7637 123.234C19.1205 121.919 18.6162 120.891 18.2663 120.165L17.8752 119.392C17.7929 119.213 17.7568 119.116 17.7568 119.116L17.9061 119.377L18.3126 120.16C18.6728 120.866 19.1977 121.883 19.8564 123.188C21.1994 125.817 23.1189 129.637 25.4654 134.363C30.1739 143.841 36.5651 156.956 43.5636 171.461C50.562 185.967 58.6102 202.927 63.2673 212.405" fill="#90959F"/>
<path d="M19.73 150.274C19.9624 150.319 20.189 150.389 20.4057 150.484C20.8352 150.631 21.4532 150.868 22.2022 151.167C23.7107 151.77 25.7744 152.652 28.0319 153.671L33.7934 156.295L35.5481 157.077C35.7703 157.158 35.9829 157.264 36.1818 157.392C35.9492 157.352 35.7223 157.283 35.5062 157.188C35.0767 157.035 34.4586 156.799 33.7096 156.489C32.2064 155.875 30.1584 154.967 27.8957 153.949L22.1184 151.377L20.3638 150.605C20.1413 150.518 19.9289 150.407 19.73 150.274Z" fill="#90959F"/>
<path d="M36.8782 156.783C36.7996 156.752 38.4495 152.411 40.5446 147.088C42.6397 141.765 44.3892 137.472 44.4677 137.498C44.5463 137.524 42.8964 141.87 40.8013 147.198C38.7062 152.526 36.9515 156.815 36.8782 156.783Z" fill="#90959F"/>
<path d="M46.7991 180.142C46.9165 179.931 47.0551 179.732 47.2129 179.549L48.4123 177.974C49.418 176.662 50.806 174.825 52.2673 172.778C53.7287 170.73 54.9857 168.799 55.8866 167.408C56.3109 166.757 56.6723 166.206 56.9342 165.759C57.0519 165.549 57.1943 165.353 57.3584 165.177C57.2733 165.402 57.1663 165.618 57.0389 165.822C56.8137 166.232 56.4785 166.815 56.049 167.523C55.1952 168.946 53.9539 170.883 52.4925 172.951C51.0312 175.019 49.6118 176.83 48.559 178.111C48.0352 178.746 47.59 179.26 47.281 179.607C47.1419 179.804 46.9802 179.983 46.7991 180.142Z" fill="#90959F"/>
<path d="M29.9961 177.675C30.2183 177.661 30.4414 177.672 30.6613 177.707L32.4683 177.901C33.9873 178.074 36.0824 178.337 38.3975 178.646C40.7126 178.956 42.8077 179.255 44.3214 179.486L46.1127 179.775C46.3343 179.798 46.5523 179.847 46.7622 179.922C46.54 179.936 46.3169 179.925 46.097 179.89L44.2952 179.696C42.771 179.523 40.6759 179.26 38.3608 178.951C36.0457 178.641 33.9506 178.342 32.4369 178.111L30.6456 177.822C30.424 177.799 30.206 177.75 29.9961 177.675Z" fill="#90959F"/>
<path d="M36.1404 199.417C36.4257 199.404 36.7115 199.418 36.9941 199.459L39.304 199.701C41.2577 199.916 43.9447 200.226 46.9145 200.598C49.8843 200.971 52.5765 201.318 54.5197 201.585L56.8191 201.921C57.1029 201.949 57.3835 202.004 57.6572 202.084C57.3717 202.096 57.0858 202.08 56.8034 202.037L54.4936 201.8C52.5399 201.585 49.8529 201.276 46.8778 200.903C43.9028 200.53 41.221 200.184 39.2778 199.911L36.9784 199.58C36.6947 199.552 36.4141 199.497 36.1404 199.417Z" fill="#90959F"/>
<path d="M214.412 83.3157L205.676 76.2179L214.412 83.3157Z" fill="white"/>
<path d="M136.084 83.3051C136.015 83.2204 137.844 81.6631 140.164 79.8251C142.484 77.9871 144.419 76.5622 144.482 76.647C144.546 76.7317 142.722 78.289 140.402 80.127C138.082 81.965 136.147 83.3898 136.084 83.3051Z" fill="#D1D3D7"/>
<path d="M216.554 104.916L223.097 96.9711C223.097 96.9711 224.741 86.2132 224.514 84.6983C224.032 82.6824 223.428 80.6977 222.706 78.7552C222.661 78.6262 222.645 78.4888 222.659 78.3528C222.673 78.2169 222.716 78.0856 222.786 77.9683C222.856 77.8511 222.951 77.7507 223.064 77.6743C223.177 77.5979 223.306 77.5474 223.441 77.5264C224.63 77.3304 226.575 77.5264 228.087 80.4025C229.471 83.051 230.201 86.6211 230.549 88.9464C230.596 89.2303 230.703 89.5009 230.863 89.7398C231.023 89.9788 231.232 90.1804 231.477 90.3311C231.722 90.4818 231.996 90.578 232.281 90.6133C232.566 90.6485 232.855 90.622 233.129 90.5354C236.135 89.5791 239.205 88.834 242.315 88.3055C244.106 88.0989 246.125 89.8098 246.516 91.0916C246.812 92.0556 245.306 93.8989 245.306 93.8989C245.306 93.8989 246.865 94.5134 247.42 95.6204C247.494 95.7634 247.563 95.9011 247.621 96.0389C247.81 96.4894 247.878 96.9814 247.818 97.4663C247.759 97.9513 247.574 98.4123 247.283 98.8038L246.871 99.3335C246.871 99.3335 248.773 99.6566 249.106 100.7C249.31 101.466 249.369 102.264 249.281 103.052L247.722 105.022C248.239 105.421 248.61 105.98 248.779 106.611C248.964 107.581 246.596 110.266 246.596 110.266L234.593 114.832L230.364 118.874L216.554 104.916Z" fill="#B78876"/>
<path d="M246.342 94.1955C246.266 94.2551 246.182 94.305 246.094 94.3438L245.348 94.7199L242.595 96.0653L238.493 98.0252C237.716 98.38 236.908 98.8091 236.03 99.1269C235.567 99.3228 235.063 99.4052 234.561 99.3674C234.06 99.3297 233.574 99.1728 233.145 98.9097C232.725 98.5919 232.434 98.1329 232.325 97.6173C232.223 97.1294 232.241 96.624 232.378 96.1448C232.66 95.2542 233.233 94.4851 234.006 93.9625C234.679 93.4949 235.385 93.0788 236.12 92.7177L237.991 91.7272L240.708 90.3129L241.453 89.9369C241.538 89.8885 241.629 89.8512 241.723 89.8256C241.648 89.8879 241.566 89.9412 241.48 89.9845L240.761 90.403L238.086 91.8967L236.231 92.919C235.515 93.284 234.826 93.7 234.17 94.1637C233.45 94.6589 232.914 95.3801 232.648 96.2136C232.501 96.6452 232.486 97.1109 232.606 97.5509C232.726 97.9908 232.974 98.3848 233.319 98.682C233.7 98.9449 234.151 99.0887 234.614 99.0951C235.071 99.1015 235.526 99.0261 235.956 98.8726C236.818 98.5707 237.616 98.1417 238.398 97.8133L242.521 95.9064L245.311 94.6405L246.078 94.3068C246.161 94.2584 246.25 94.2211 246.342 94.1955Z" fill="#AA6550"/>
<path d="M247.648 99.6831C247.466 99.8047 247.273 99.9076 247.071 99.9903C246.691 100.17 246.141 100.419 245.449 100.711C244.075 101.299 242.146 102.056 239.984 102.792C239.456 102.983 238.918 103.144 238.372 103.274C237.849 103.4 237.303 103.389 236.786 103.243C236.348 103.097 235.959 102.829 235.667 102.471C235.374 102.113 235.188 101.679 235.132 101.219C235.07 100.602 235.25 99.9844 235.634 99.4977C235.736 99.3694 235.853 99.2538 235.983 99.1534C236.073 99.0898 236.126 99.0634 236.131 99.0687C236.136 99.0739 235.951 99.2276 235.719 99.5613C235.396 100.04 235.255 100.619 235.322 101.193C235.387 101.607 235.565 101.995 235.836 102.314C236.108 102.633 236.462 102.87 236.86 102.999C237.342 103.124 237.848 103.124 238.33 102.999C238.866 102.867 239.395 102.706 239.915 102.517C242.077 101.786 244.006 101.06 245.396 100.52L247.05 99.8791C247.242 99.7939 247.442 99.7282 247.648 99.6831Z" fill="#AA6550"/>
<path d="M247.996 104.842C247.815 104.929 247.623 104.993 247.425 105.033L245.84 105.457C244.497 105.801 242.642 106.256 240.592 106.744C240.088 106.875 239.578 106.98 239.064 107.056C238.565 107.132 238.054 107.068 237.589 106.871C237.372 106.781 237.177 106.645 237.019 106.471C236.861 106.297 236.744 106.09 236.675 105.864C236.564 105.476 236.59 105.06 236.749 104.689C236.975 104.164 237.377 103.735 237.885 103.476C238.055 103.362 238.245 103.284 238.446 103.248C238.446 103.248 238.255 103.354 237.917 103.566C237.463 103.845 237.109 104.263 236.908 104.757C236.778 105.097 236.765 105.469 236.871 105.817C236.936 106.006 237.042 106.179 237.181 106.324C237.319 106.468 237.488 106.581 237.674 106.654C238.098 106.824 238.56 106.877 239.011 106.807C239.515 106.728 240.014 106.622 240.507 106.49C242.558 106.002 244.423 105.578 245.792 105.282L247.378 104.943C247.58 104.888 247.787 104.854 247.996 104.842Z" fill="#AA6550"/>
<path d="M247.811 109.525C247.223 109.603 246.629 109.634 246.036 109.615C244.941 109.615 243.425 109.615 241.754 109.615H240.528C240.14 109.63 239.751 109.596 239.371 109.514C239.005 109.436 238.676 109.234 238.44 108.942C238.338 108.811 238.267 108.659 238.232 108.496C238.198 108.334 238.2 108.166 238.24 108.004C238.307 107.785 238.42 107.583 238.573 107.412C238.725 107.241 238.913 107.106 239.122 107.014C239.267 106.934 239.433 106.899 239.598 106.913C239.598 106.94 239.429 106.961 239.17 107.109C238.989 107.207 238.83 107.342 238.702 107.504C238.575 107.666 238.482 107.853 238.43 108.052C238.403 108.184 238.407 108.32 238.44 108.45C238.472 108.58 238.534 108.701 238.62 108.804C238.834 109.041 239.117 109.204 239.429 109.27C239.793 109.334 240.164 109.359 240.533 109.345H241.754C243.425 109.345 244.926 109.387 246.036 109.419C246.629 109.409 247.223 109.445 247.811 109.525Z" fill="#AA6550"/>
<path d="M236.781 104.953C235.832 104.543 234.844 104.229 233.832 104.016C232.805 103.898 231.769 103.886 230.74 103.979C231.753 103.657 232.827 103.577 233.876 103.746C234.925 103.916 235.92 104.329 236.781 104.953Z" fill="#AA6550"/>
<path d="M178.161 131.051L218.182 102.199L232.41 118.54L201.089 150.893C187.093 163.579 182.194 166.784 158.991 153.541L144.266 145.066L149.705 212.374H83.1099C75.795 212.14 92.6235 193.75 91.4713 193.75L76.8627 144.325L54.2626 159.548L75.684 176.334L67.7561 194.719L31.1287 177.753C17.852 168.902 19.6332 151.661 30.9596 140.41C51.361 120.15 67.1482 105.409 84.5898 102.422C93.5749 99.7148 98.8602 99.2434 98.8602 99.2434C112.898 99.0421 113.945 99.0898 121.466 99.4447C122.929 99.5209 124.386 99.6979 125.826 99.9744C134.032 101.2 141.816 104.41 148.505 109.329L178.161 131.051Z" fill="#0031B2"/>
<path d="M179.123 144.542C178.997 144.396 178.894 144.231 178.816 144.055C178.566 143.595 178.347 143.119 178.161 142.63C177.879 141.905 177.655 141.16 177.489 140.4C177.293 139.469 177.172 138.523 177.13 137.571C177.102 136.619 177.155 135.665 177.289 134.722C177.406 133.952 177.583 133.192 177.817 132.449C177.96 131.949 178.137 131.459 178.346 130.982C178.412 130.795 178.502 130.616 178.615 130.453C178.668 130.453 178.34 131.221 177.997 132.481C177.804 133.222 177.658 133.974 177.558 134.732C177.442 135.662 177.398 136.598 177.426 137.534C177.466 138.47 177.576 139.401 177.754 140.321C177.908 141.069 178.109 141.806 178.356 142.529C178.79 143.795 179.17 144.516 179.123 144.542Z" fill="#2D2F34"/>
<path d="M142.84 160.602C144.89 158.126 146.366 155.225 147.16 152.108C147.955 148.991 148.049 145.736 147.435 142.578C146.821 139.421 145.514 136.439 143.61 133.849C141.706 131.259 139.251 129.126 136.423 127.603" fill="#0031B2"/>
<path d="M136.402 128.646C136.504 128.69 136.6 128.747 136.687 128.816C136.862 128.938 137.142 129.107 137.464 129.345C138.404 130.045 139.288 130.817 140.107 131.655C142.781 134.456 144.942 137.707 146.492 141.258C147.402 143.21 147.878 145.338 147.887 147.492C147.875 149.239 147.597 150.973 147.062 152.636C146.713 153.754 146.29 154.848 145.794 155.909L145.366 156.762C145.32 156.864 145.266 156.962 145.202 157.053C145.228 156.945 145.267 156.84 145.318 156.741C145.413 156.513 145.54 156.211 145.693 155.867C146.148 154.795 146.543 153.698 146.877 152.583C147.374 150.932 147.629 149.217 147.633 147.492C147.603 145.381 147.124 143.301 146.227 141.39C144.684 137.868 142.565 134.628 139.959 131.803C139.156 130.961 138.298 130.174 137.39 129.446C137.073 129.181 136.809 129.001 136.645 128.858C136.557 128.796 136.476 128.725 136.402 128.646Z" fill="#2D2F34"/>
<path d="M121.624 147.651C121.639 147.727 121.639 147.804 121.624 147.879C121.624 148.027 121.624 148.245 121.582 148.525C121.498 149.317 121.343 150.099 121.116 150.861C120.38 153.41 118.936 155.696 116.953 157.454C114.97 159.212 112.53 160.37 109.917 160.793C109.133 160.927 108.339 160.988 107.544 160.973C107.264 160.973 107.042 160.941 106.899 160.936C106.822 160.935 106.745 160.923 106.672 160.899C106.961 160.871 107.253 160.859 107.544 160.862C108.328 160.837 109.109 160.75 109.88 160.602C112.441 160.136 114.825 158.974 116.773 157.245C118.722 155.515 120.16 153.284 120.931 150.792C121.166 150.041 121.343 149.272 121.46 148.494C121.499 148.21 121.554 147.929 121.624 147.651Z" fill="#2D2F34"/>
<path d="M95.4887 172.642C95.527 172.737 95.5519 172.837 95.5627 172.938C95.605 173.166 95.6526 173.468 95.716 173.802C95.8036 174.257 95.8672 174.717 95.9063 175.179C95.9538 175.709 96.0384 176.334 96.049 177.017C96.049 177.356 96.0754 177.716 96.086 178.076C96.0965 178.437 96.086 178.834 96.086 179.236C96.086 180.042 95.9961 180.894 95.9221 181.795C95.6988 183.742 95.3152 185.668 94.7752 187.552C94.2064 189.429 93.4815 191.254 92.6082 193.008C92.1854 193.803 91.7943 194.571 91.3556 195.244C91.1442 195.583 90.9539 195.922 90.7425 196.229L90.1294 197.108C89.7489 197.675 89.3472 198.167 89.0142 198.57C88.6812 198.973 88.3694 199.343 88.1104 199.629C87.8514 199.915 87.6664 200.101 87.5079 200.27C87.4432 200.35 87.3686 200.421 87.2859 200.482C87.3388 200.394 87.3989 200.311 87.4656 200.233L88.0258 199.56C88.2743 199.274 88.5544 198.92 88.8926 198.501C89.2309 198.083 89.6062 197.595 89.9497 197.018L90.5417 196.139C90.7478 195.831 90.9328 195.492 91.1389 195.153C91.567 194.475 91.9476 193.713 92.3598 192.923C94.0936 189.436 95.2062 185.671 95.6473 181.8C95.7266 180.905 95.827 180.057 95.8323 179.263C95.8323 178.866 95.8746 178.479 95.8693 178.108C95.864 177.737 95.8693 177.383 95.8693 177.049C95.8693 176.371 95.8006 175.762 95.7688 175.221C95.7371 174.681 95.679 174.22 95.6261 173.844C95.5733 173.468 95.5521 173.203 95.5257 172.976C95.5036 172.866 95.4912 172.754 95.4887 172.642Z" fill="#2D2F34"/>
<path d="M40.1665 156.831C40.3467 156.739 40.5388 156.673 40.7373 156.635C40.9649 156.566 41.1961 156.509 41.4297 156.465C41.6992 156.412 42.0111 156.338 42.3546 156.301C43.1664 156.18 43.9865 156.125 44.807 156.137C45.8096 156.158 46.8087 156.264 47.7932 156.455C48.7769 156.661 49.7421 156.948 50.679 157.313C51.4386 157.62 52.1736 157.985 52.8777 158.404C53.1843 158.573 53.438 158.764 53.6705 158.934C53.9031 159.103 54.0881 159.23 54.2413 159.352C54.4093 159.466 54.562 159.602 54.6959 159.755C54.6642 159.797 53.9876 159.262 52.7773 158.589C52.0707 158.198 51.3378 157.856 50.5839 157.567C49.6586 157.219 48.7079 156.943 47.7404 156.741C46.7706 156.555 45.7883 156.444 44.8017 156.407C43.9935 156.388 43.1849 156.422 42.3811 156.508C41.0069 156.645 40.1771 156.878 40.1665 156.831Z" fill="#2D2F34"/>
<path d="M85.5201 128.71C85.5208 128.604 85.535 128.499 85.5624 128.397C85.61 128.164 85.6629 127.868 85.7368 127.507C85.9404 126.425 86.0869 125.332 86.1755 124.234C86.3053 122.606 86.2556 120.968 86.0275 119.35C85.746 117.372 85.1065 115.462 84.1407 113.714C83.1826 111.964 81.8331 110.459 80.1978 109.318C78.8503 108.407 77.324 107.794 75.7212 107.522C74.6396 107.345 73.5364 107.345 72.4548 107.522C71.6832 107.65 71.2762 107.798 71.2656 107.766C71.3608 107.72 71.4599 107.683 71.5616 107.655C71.8466 107.556 72.138 107.476 72.4337 107.416C73.5273 107.199 74.6502 107.172 75.7529 107.337C77.3944 107.584 78.9611 108.192 80.3405 109.117C82.0206 110.266 83.4046 111.798 84.3785 113.587C85.3591 115.364 86.0024 117.307 86.2759 119.318C86.4955 120.955 86.5256 122.612 86.3658 124.255C86.2617 125.36 86.0851 126.457 85.8373 127.539C85.7527 127.921 85.6787 128.212 85.6206 128.413C85.5969 128.515 85.5633 128.614 85.5201 128.71Z" fill="#2D2F34"/>
<path d="M64.7009 125.786C64.5726 124.337 64.5338 122.881 64.5846 121.427C64.5464 119.972 64.6012 118.515 64.7485 117.067C64.8766 118.517 64.9137 119.973 64.8595 121.427C64.8977 122.882 64.8447 124.338 64.7009 125.786Z" fill="#F7B3B3"/>
<path d="M54.654 138.483C53.9003 137.808 53.207 137.069 52.5821 136.274C51.8903 135.534 51.2675 134.733 50.7217 133.88C51.4762 134.555 52.1695 135.296 52.7935 136.094C53.486 136.831 54.1088 137.63 54.654 138.483Z" fill="#F7B3B3"/>
<path d="M71.5032 135.988C70.2881 136.45 69.041 136.824 67.7717 137.105C66.5249 137.479 65.2533 137.764 63.9663 137.958C65.1831 137.495 66.432 137.121 67.703 136.84C68.948 136.466 70.2179 136.181 71.5032 135.988Z" fill="#F7B3B3"/>
<path d="M78.5221 130.463C78.4 130.122 78.3253 129.765 78.3001 129.404C78.2103 128.736 78.1204 127.815 78.0782 126.755C78.0433 125.872 78.0539 124.989 78.1099 124.107C78.1058 123.74 78.152 123.375 78.2473 123.021C78.3266 123.021 78.279 124.684 78.353 126.729C78.427 128.773 78.6014 130.452 78.5221 130.463Z" fill="#F7B3B3"/>
<path d="M52.2752 153.642C52.1392 152.439 52.0933 151.228 52.1378 150.019C52.0933 148.809 52.141 147.598 52.2805 146.396C52.4162 147.599 52.4604 148.81 52.4126 150.019C52.4571 151.228 52.4112 152.439 52.2752 153.642Z" fill="#F7B3B3"/>
<path d="M40.6476 149.775C39.1266 149.32 37.6336 148.775 36.1762 148.144C34.6859 147.598 33.2282 146.967 31.8105 146.253C33.3317 146.711 34.8247 147.257 36.2819 147.89C37.7712 148.436 39.2287 149.066 40.6476 149.775Z" fill="#F7B3B3"/>
<path d="M30.5528 162.975C30.547 161.757 30.6353 160.54 30.817 159.336C30.904 158.122 31.0806 156.917 31.3456 155.729C31.3515 156.947 31.2631 158.164 31.0813 159.368C30.9955 160.582 30.8188 161.788 30.5528 162.975Z" fill="#F7B3B3"/>
<path d="M47.0537 173.834C46.5815 173.769 46.1162 173.661 45.6636 173.511C44.8127 173.288 43.6446 172.981 42.3392 172.679C41.0337 172.377 39.8498 172.149 38.9883 171.953C38.5185 171.885 38.0552 171.777 37.6035 171.63C38.0809 171.622 38.5577 171.666 39.0253 171.763C39.8921 171.89 41.0918 172.102 42.4026 172.409C43.7134 172.716 44.8814 173.05 45.7165 173.325C46.1779 173.45 46.6259 173.62 47.0537 173.834Z" fill="#F7B3B3"/>
<path d="M52.8194 168.945C52.12 166.568 51.5988 164.143 51.2603 161.688C51.652 162.865 51.9576 164.069 52.1746 165.29C52.4779 166.491 52.6934 167.712 52.8194 168.945Z" fill="#F7B3B3"/>
<path d="M58.6443 184.692C58.2315 184.714 57.8175 184.682 57.4129 184.597C55.455 184.308 53.5364 183.796 51.6941 183.071C51.3032 182.943 50.9303 182.765 50.5842 182.542C50.9872 182.618 51.3819 182.734 51.7629 182.886C52.4817 183.119 53.4753 183.416 54.5905 183.728C55.7057 184.041 56.7046 184.258 57.4604 184.401C57.8638 184.458 58.2604 184.556 58.6443 184.692Z" fill="#F7B3B3"/>
<path d="M65.2031 183.103C65.1782 182.67 65.1977 182.235 65.2612 181.805C65.3247 181.006 65.4092 179.904 65.4568 178.68C65.5044 177.457 65.5149 176.355 65.5202 175.555C65.4947 175.12 65.5089 174.684 65.5625 174.252C65.6662 174.677 65.7177 175.113 65.7158 175.55C65.7634 176.35 65.7845 177.467 65.7158 178.696C65.6775 179.744 65.5858 180.788 65.4409 181.827C65.4105 182.26 65.3307 182.688 65.2031 183.103Z" fill="#F7B3B3"/>
<path d="M90.4727 146.057C90.4092 146.105 89.3416 144.733 87.9146 143.149C86.4875 141.565 85.2402 140.352 85.2983 140.289C85.6222 140.49 85.9204 140.73 86.1863 141.004C86.7148 141.48 87.3966 142.164 88.1154 142.964C88.8342 143.763 89.442 144.526 89.8596 145.082C90.1061 145.379 90.3123 145.706 90.4727 146.057Z" fill="#F7B3B3"/>
<path d="M105.399 132.725C104.687 133.474 103.909 134.157 103.073 134.764C102.295 135.444 101.458 136.053 100.573 136.586C101.288 135.84 102.066 135.158 102.899 134.547C103.677 133.867 104.513 133.257 105.399 132.725Z" fill="#F7B3B3"/>
<path d="M97.0844 125.309C96.9685 123.62 96.9456 121.926 97.0157 120.235C96.9935 118.543 97.0641 116.85 97.2271 115.166C97.3395 116.855 97.3607 118.549 97.2905 120.24C97.3126 121.932 97.2438 123.624 97.0844 125.309Z" fill="#F7B3B3"/>
<path d="M121.275 111.135C121.845 109.757 122.496 108.415 123.226 107.115C123.877 105.775 124.609 104.476 125.419 103.227C124.854 104.605 124.203 105.946 123.469 107.242C122.819 108.584 122.087 109.884 121.275 111.135Z" fill="#F7B3B3"/>
<path d="M119.52 126.919C118.432 125.646 117.414 124.315 116.471 122.931C115.454 121.599 114.51 120.213 113.643 118.778C114.734 120.049 115.752 121.38 116.693 122.767C117.707 124.1 118.651 125.486 119.52 126.919Z" fill="#F7B3B3"/>
<path d="M137.681 116.135C136.905 117.193 136.053 118.193 135.134 119.128C134.281 120.126 133.361 121.064 132.38 121.935C133.161 120.88 134.014 119.88 134.933 118.943C135.786 117.947 136.704 117.009 137.681 116.135Z" fill="#F7B3B3"/>
<path d="M132.031 141.581C131.021 140.366 130.084 139.093 129.225 137.767C128.29 136.495 127.429 135.171 126.645 133.8C127.652 135.015 128.589 136.287 129.452 137.608C130.388 138.881 131.25 140.207 132.031 141.581Z" fill="#F7B3B3"/>
<path d="M111.846 149.632C112.225 148.35 112.691 147.095 113.241 145.877C113.711 144.623 114.263 143.402 114.896 142.222C114.516 143.506 114.05 144.762 113.5 145.983C113.03 147.235 112.478 148.454 111.846 149.632Z" fill="#F7B3B3"/>
<path d="M98.3372 160.856C98.3002 160.92 95.9641 159.76 93.1206 158.261C90.2771 156.762 87.9991 155.485 88.0361 155.422C88.0731 155.358 90.4039 156.513 93.2474 158.017C96.0909 159.522 98.3689 160.787 98.3372 160.856Z" fill="#F7B3B3"/>
<path d="M107.19 180.227C107.37 179.764 107.6 179.321 107.877 178.908C108.489 177.88 109.152 176.883 109.864 175.921C110.577 174.958 111.339 174.034 112.147 173.15C112.461 172.76 112.815 172.405 113.204 172.091C112.929 172.505 112.622 172.896 112.285 173.262C111.703 173.966 110.911 174.951 110.081 176.069C109.251 177.187 108.543 178.235 108.035 178.993C107.785 179.425 107.502 179.838 107.19 180.227Z" fill="#F7B3B3"/>
<path d="M89.9653 176.662C89.8022 175.707 89.7297 174.739 89.7486 173.77C89.6725 172.803 89.692 171.831 89.8068 170.867C89.9666 171.825 90.0391 172.794 90.0235 173.765C90.0935 174.73 90.0741 175.7 89.9653 176.662Z" fill="#F7B3B3"/>
<path d="M105.868 195.816C105.805 195.863 104.869 194.687 103.627 193.315C102.385 191.944 101.318 190.884 101.371 190.826C103.142 192.221 104.663 193.908 105.868 195.816Z" fill="#F7B3B3"/>
<path d="M97.2058 203.231C96.1909 204.142 95.1136 204.981 93.9817 205.742C92.9049 206.577 91.775 207.342 90.5991 208.03C91.614 207.119 92.6913 206.28 93.8232 205.519C94.8984 204.682 96.0285 203.917 97.2058 203.231Z" fill="#F7B3B3"/>
<path d="M117.274 204.195C116.868 204.319 116.453 204.41 116.032 204.465C115.26 204.614 114.203 204.831 113.051 205.143C111.899 205.456 110.868 205.795 110.134 206.054C109.741 206.222 109.334 206.353 108.918 206.446C109.274 206.21 109.657 206.017 110.06 205.874C111.009 205.478 111.984 205.146 112.977 204.878C113.971 204.61 114.98 204.407 116 204.269C116.42 204.19 116.848 204.165 117.274 204.195Z" fill="#F7B3B3"/>
<path d="M125.725 202.431C125.651 202.431 125.197 199.931 124.721 196.817C124.245 193.702 123.918 191.17 123.992 191.16C124.066 191.149 124.52 193.66 124.996 196.774C125.472 199.889 125.799 202.421 125.725 202.431Z" fill="#F7B3B3"/>
<path d="M127.718 181.959C127.225 181.899 126.74 181.787 126.27 181.625C125.387 181.376 124.156 180.99 122.866 180.508C121.576 180.026 120.377 179.533 119.542 179.152C119.08 178.967 118.638 178.738 118.22 178.468C118.701 178.595 119.169 178.764 119.621 178.972C120.472 179.305 121.65 179.766 122.961 180.248C124.272 180.73 125.461 181.143 126.328 181.44C126.805 181.573 127.27 181.747 127.718 181.959Z" fill="#F7B3B3"/>
<path d="M142.448 192.516C141.793 193.778 141.056 194.998 140.244 196.165C139.507 197.383 138.693 198.553 137.807 199.666C138.462 198.403 139.198 197.184 140.011 196.017C140.748 194.799 141.562 193.629 142.448 192.516Z" fill="#F7B3B3"/>
<path d="M139.774 210.943C138.679 210.276 137.631 209.533 136.64 208.719C135.592 207.976 134.599 207.158 133.669 206.272C134.765 206.939 135.812 207.682 136.804 208.496C137.851 209.239 138.844 210.057 139.774 210.943Z" fill="#F7B3B3"/>
<path d="M136.861 170.544C136.601 172.001 136.248 173.439 135.804 174.851C135.451 176.289 135.008 177.705 134.478 179.088C134.74 177.632 135.094 176.194 135.535 174.782C135.888 173.343 136.331 171.927 136.861 170.544Z" fill="#F7B3B3"/>
<path d="M132.559 162.498C130.479 161.625 128.616 160.305 127.1 158.632C127.158 158.573 128.268 159.58 129.779 160.639C131.291 161.699 132.559 162.445 132.559 162.498Z" fill="#F7B3B3"/>
<path d="M138.965 149.622C138.572 150.469 138.1 151.276 137.554 152.032C137.08 152.836 136.53 153.592 135.91 154.288C136.302 153.442 136.775 152.635 137.321 151.878C137.795 151.074 138.345 150.319 138.965 149.622Z" fill="#F7B3B3"/>
<path d="M149.742 125.473C150.005 124.071 150.358 122.688 150.799 121.331C151.159 119.949 151.604 118.591 152.131 117.263C151.867 118.665 151.514 120.049 151.074 121.405C150.717 122.789 150.273 124.148 149.742 125.473Z" fill="#F7B3B3"/>
<path d="M157.929 142.662C157.492 142.433 157.081 142.157 156.703 141.841C155.761 141.117 154.865 140.337 154.018 139.505C153.173 138.674 152.382 137.789 151.65 136.856C151.324 136.485 151.043 136.076 150.815 135.638C151.168 135.978 151.496 136.342 151.798 136.729C152.395 137.418 153.23 138.345 154.213 139.319C155.196 140.294 156.137 141.115 156.824 141.698C157.217 141.989 157.587 142.311 157.929 142.662Z" fill="#F7B3B3"/>
<path d="M164.504 135.432C164.435 135.389 165.186 134.144 165.889 132.502C166.592 130.86 166.994 129.457 167.073 129.478C166.702 131.639 165.821 133.68 164.504 135.432Z" fill="#F7B3B3"/>
<path d="M169.641 149.134C169.727 148.144 169.904 147.163 170.17 146.205C170.342 145.229 170.603 144.27 170.947 143.34C170.863 144.331 170.687 145.311 170.418 146.269C170.248 147.246 169.988 148.205 169.641 149.134Z" fill="#F7B3B3"/>
<path d="M181.851 157.186C180.812 156.538 179.822 155.814 178.891 155.019C177.902 154.297 176.969 153.5 176.1 152.636C177.139 153.283 178.128 154.007 179.06 154.802C180.05 155.523 180.983 156.32 181.851 157.186Z" fill="#F7B3B3"/>
<path d="M190.344 140.268C190.194 140.68 190.004 141.078 189.778 141.454C189.408 142.174 188.917 143.176 188.436 144.314C187.955 145.453 187.574 146.497 187.31 147.265C187.192 147.687 187.036 148.099 186.845 148.494C186.886 148.055 186.978 147.623 187.12 147.206C187.41 146.184 187.763 145.181 188.177 144.203C188.591 143.225 189.068 142.275 189.604 141.359C189.808 140.968 190.056 140.602 190.344 140.268Z" fill="#F7B3B3"/>
<path d="M196.929 131.66C195.232 131.285 193.555 130.818 191.908 130.262C190.234 129.794 188.586 129.237 186.972 128.593C188.668 128.976 190.344 129.444 191.993 129.997C193.665 130.467 195.313 131.022 196.929 131.66Z" fill="#F7B3B3"/>
<path d="M203.969 139.42C203.697 139.809 203.4 140.181 203.081 140.532C201.634 142.304 200.432 144.264 199.509 146.359C199.341 146.804 199.141 147.236 198.911 147.651C198.992 147.178 199.133 146.717 199.329 146.28C200.164 144.121 201.385 142.134 202.934 140.416C203.234 140.04 203.582 139.705 203.969 139.42Z" fill="#F7B3B3"/>
<path d="M207.394 127.56C207.358 127.049 207.358 126.536 207.394 126.024C207.421 125.076 207.436 123.768 207.394 122.317C207.352 120.865 207.246 119.567 207.162 118.609C207.091 118.1 207.055 117.587 207.056 117.073C207.21 117.563 207.311 118.07 207.357 118.582C207.525 119.812 207.629 121.05 207.669 122.29C207.71 123.526 207.686 124.764 207.595 125.998C207.585 126.524 207.518 127.048 207.394 127.56Z" fill="#F7B3B3"/>
<path d="M220.296 127.359C219.244 126.672 218.245 125.905 217.309 125.066C216.307 124.301 215.362 123.464 214.482 122.56C215.532 123.253 216.532 124.019 217.473 124.854C218.475 125.617 219.418 126.455 220.296 127.359Z" fill="#F7B3B3"/>
<path d="M225.406 118.54C225.186 118.068 225.001 117.582 224.852 117.083C224.529 116.177 224.069 114.938 223.509 113.582C222.949 112.226 222.399 111.024 221.987 110.155C221.741 109.697 221.53 109.221 221.358 108.73C221.671 109.148 221.94 109.597 222.161 110.07C222.616 110.918 223.218 112.115 223.747 113.476C224.275 114.837 224.741 116.098 225.021 117.025C225.203 117.515 225.332 118.023 225.406 118.54Z" fill="#F7B3B3"/>
<g opacity="0.3">
<path opacity="0.3" d="M120.26 152.562C118.146 158.139 112.396 160.65 107.047 161.005H106.741C104.305 160.89 101.868 161.198 99.5366 161.916C100.975 164.327 103.247 166.125 105.921 166.969C108.595 167.812 111.485 167.642 114.042 166.49C116.599 165.339 118.645 163.286 119.791 160.722C120.938 158.158 121.105 155.262 120.26 152.583V152.562Z" fill="black"/>
</g>
<g opacity="0.3">
<path opacity="0.3" d="M83.0515 165.375C84.3411 170.195 86.1646 175.862 87.4542 180.683C88.5853 184.92 90.3136 189.555 91.4446 193.776L91.9414 193.729C94.119 183.908 90.4193 172.202 83.0515 165.375Z" fill="black"/>
</g>
<g opacity="0.3">
<path opacity="0.3" d="M152.644 143.546C150.454 139.032 146.608 135.54 141.909 133.8C144.552 137.614 147.538 142.217 147.839 147.159L151.777 149.426C153.003 148.239 153.384 145.077 152.644 143.546Z" fill="black"/>
</g>
<path d="M96.2124 106.325C95.6838 106.484 95.1776 106.71 94.7061 106.998C94.2846 107.354 93.913 107.766 93.6015 108.222C93.5697 108.222 93.6015 108.01 93.7336 107.718C93.9255 107.342 94.2046 107.017 94.5475 106.77C94.8873 106.523 95.2802 106.36 95.6944 106.293C96.0168 106.251 96.2124 106.299 96.2124 106.325Z" fill="#2D2F34"/>
<path d="M102.65 114.604C102.619 114.604 102.529 114.382 102.497 113.984C102.469 113.461 102.558 112.938 102.756 112.454C102.949 111.966 103.251 111.529 103.639 111.177C103.935 110.912 104.167 110.812 104.167 110.838C103.689 111.346 103.294 111.925 102.994 112.554C102.778 113.217 102.662 113.908 102.65 114.604Z" fill="#2D2F34"/>
<path d="M95.7788 114.244C95.7443 113.9 95.7803 113.552 95.8845 113.222C96.2868 111.583 97.3081 110.164 98.7333 109.265C99.0117 109.062 99.3281 108.918 99.6635 108.841C98.6747 109.419 97.818 110.199 97.1488 111.129C96.4796 112.06 96.0129 113.121 95.7788 114.244Z" fill="#2D2F34"/>
<path d="M91.2335 104.418C91.2071 104.418 91.3022 104.185 91.5665 103.889C91.9221 103.544 92.36 103.296 92.8384 103.169C93.3167 103.042 93.8196 103.04 94.299 103.163C94.6637 103.269 94.8275 103.407 94.8275 103.438C94.1911 103.308 93.5348 103.308 92.8984 103.438C92.2844 103.652 91.7185 103.985 91.2335 104.418Z" fill="#2D2F34"/>
<path d="M110.001 114.144C109.849 113.707 109.741 113.256 109.679 112.798C109.529 112.362 109.42 111.914 109.351 111.458C109.672 111.815 109.878 112.259 109.943 112.735C110.095 113.189 110.116 113.678 110.001 114.144Z" fill="#2D2F34"/>
<path d="M117.591 114.244C117.23 112.57 116.404 111.033 115.208 109.811C115.967 110.262 116.576 110.929 116.957 111.728C117.418 112.483 117.639 113.36 117.591 114.244Z" fill="#2D2F34"/>
<path d="M120.789 108.322C120.715 108.354 120.514 107.93 120.044 107.66C119.573 107.39 119.119 107.401 119.108 107.321C119.098 107.242 119.214 107.231 119.42 107.22C119.688 107.214 119.953 107.286 120.181 107.427C120.41 107.561 120.594 107.76 120.71 107.999C120.815 108.179 120.821 108.312 120.789 108.322Z" fill="#2D2F34"/>
<path d="M126.862 105.769C126.588 105.592 126.324 105.401 126.069 105.197C125.429 104.772 124.71 104.48 123.955 104.339C123.193 104.203 122.411 104.221 121.656 104.392C121.08 104.53 120.742 104.694 120.721 104.651C120.977 104.435 121.282 104.282 121.609 104.207C122.384 103.968 123.205 103.919 124.003 104.064C124.801 104.208 125.553 104.542 126.196 105.038C126.468 105.231 126.695 105.48 126.862 105.769Z" fill="#2D2F34"/>
<path d="M125.197 101.039C124.684 100.958 124.166 100.921 123.648 100.928C123.138 101.022 122.636 101.154 122.147 101.325C122.549 100.941 123.069 100.704 123.622 100.652C124.176 100.6 124.73 100.737 125.197 101.039Z" fill="#2D2F34"/>
<path d="M97.0315 94.079C91.4132 94.2061 83.3583 93.5493 80.0074 89.0205C76.6565 84.4917 78.11 76.2551 79.8594 70.9053C74.8807 65.333 75.1027 55.8622 80.388 50.5442C81.3341 49.5802 82.4334 48.7274 83.1258 47.5674C84.4313 45.3851 84.0454 42.636 84.3625 40.1041C84.621 38.0431 85.3683 36.074 86.5417 34.3617C87.7151 32.6494 89.2807 31.2436 91.1073 30.2619C92.934 29.2802 94.9687 28.7511 97.0411 28.719C99.1136 28.6869 101.164 29.1526 103.02 30.0772C106.149 27.3387 109.404 24.5737 113.326 23.1913C117.248 21.8088 122.042 22.169 124.991 25.0981C126.608 26.6872 127.634 29.0072 129.653 30.0454C131.672 31.0836 134.203 30.538 136.444 31.0677C140.72 32.0794 143.083 36.6717 144.203 40.9304C145.324 45.1891 145.878 49.8503 148.754 53.182C150.249 54.9194 152.295 56.1747 153.51 58.1134C154.192 59.1919 154.582 60.4294 154.643 61.7045C154.703 62.9796 154.432 64.2486 153.856 65.3872C153.28 66.5258 152.419 67.4949 151.357 68.1994C150.295 68.904 149.068 69.3198 147.797 69.4063C150.403 72.7062 150.968 77.3515 149.816 81.3983C148.664 85.4451 146.254 90.5672 142.073 91.8914C139.3 92.7272 136.316 92.5123 133.691 91.2876C133.691 91.2876 131.518 95.4297 121.534 95.0271C105.953 94.3915 99.4099 99.9161 97.0368 94.0578" fill="#2D2F34"/>
<path d="M133.004 75.3971C133.733 68.8661 132.914 58.2565 131.947 49.5909C131.096 41.7939 125.488 32.4397 117.75 33.6262L93.755 40.8987C92.6215 41.0714 91.594 41.6641 90.8756 42.5596C90.1572 43.4551 89.8004 44.5882 89.8756 45.7348L94.9389 103.216C94.9978 103.915 95.2484 104.584 95.663 105.15C97.2492 107.382 99.4245 109.127 101.945 110.19C104.466 111.253 107.232 111.591 109.933 111.167C119.362 109.943 121.477 103.884 121.91 101.95C121.984 101.627 122.016 101.296 122.005 100.965C121.767 93.5123 121.63 90.5938 121.635 90.6468C121.64 90.6997 131.54 88.528 133.004 75.3971Z" fill="#B78876"/>
<path d="M127.882 58.1558C127.905 58.5918 127.759 59.0198 127.472 59.3491C127.186 59.6784 126.783 59.8831 126.349 59.9196C126.138 59.9476 125.922 59.9325 125.717 59.8751C125.511 59.8178 125.319 59.7193 125.152 59.5858C124.985 59.4522 124.847 59.2863 124.746 59.0979C124.645 58.9095 124.582 58.7026 124.563 58.4895C124.538 58.0545 124.684 57.6271 124.969 57.2985C125.255 56.9699 125.657 56.7662 126.09 56.7309C126.302 56.7021 126.517 56.7165 126.723 56.7732C126.929 56.8299 127.122 56.9277 127.289 57.0608C127.456 57.1939 127.595 57.3594 127.697 57.5476C127.799 57.7358 127.862 57.9426 127.882 58.1558Z" fill="#2D2F34"/>
<path d="M130.197 56.2648C130.001 56.4925 128.69 55.6132 126.899 55.7033C125.107 55.7933 123.828 56.7627 123.622 56.5402C123.521 56.4449 123.717 56.0423 124.272 55.5974C125.023 55.0222 125.933 54.6946 126.877 54.6598C127.813 54.6108 128.739 54.8632 129.52 55.3802C130.086 55.7774 130.292 56.1641 130.197 56.2648Z" fill="#2D2F34"/>
<path d="M110.795 58.945C110.82 59.3805 110.674 59.8086 110.389 60.138C110.103 60.4675 109.701 60.6723 109.267 60.7089C109.055 60.7376 108.84 60.7231 108.633 60.6661C108.427 60.6091 108.234 60.5108 108.067 60.3772C107.899 60.2435 107.761 60.0773 107.659 59.8885C107.558 59.6997 107.495 59.4923 107.476 59.2787C107.452 58.8435 107.598 58.4162 107.883 58.087C108.168 57.7579 108.57 57.5527 109.003 57.5148C109.215 57.4861 109.431 57.5006 109.637 57.5576C109.844 57.6147 110.036 57.7129 110.204 57.8466C110.371 57.9802 110.51 58.1464 110.611 58.3352C110.713 58.524 110.775 58.7314 110.795 58.945Z" fill="#2D2F34"/>
<path d="M112.422 56.8581C112.226 57.0858 110.916 56.2119 109.124 56.2966C107.332 56.3814 106.053 57.356 105.852 57.1335C105.752 57.0435 105.942 56.6356 106.497 56.1907C107.249 55.6179 108.159 55.2906 109.103 55.2531C110.038 55.2041 110.964 55.4566 111.745 55.9735C112.311 56.3708 112.517 56.7574 112.422 56.8581Z" fill="#2D2F34"/>
<path d="M119.425 69.4169C119.425 69.3163 120.519 69.0726 122.316 68.7548C122.771 68.686 123.199 68.5747 123.262 68.2569C123.28 67.7817 123.153 67.3125 122.898 66.9115C122.411 65.8204 121.909 64.6763 121.381 63.4792C119.267 58.5849 117.718 54.554 117.914 54.4745C118.109 54.3951 119.985 58.2883 122.094 63.1825C122.623 64.3902 123.093 65.5396 123.553 66.6414C123.868 67.1813 123.982 67.8155 123.875 68.4317C123.817 68.5971 123.721 68.7467 123.596 68.8689C123.47 68.9911 123.318 69.0826 123.151 69.1362C122.901 69.218 122.642 69.2679 122.38 69.2845C120.567 69.4593 119.436 69.5176 119.425 69.4169Z" fill="#2D2F34"/>
<path d="M121.646 90.6467C115.528 91.0222 109.426 89.6891 104.019 86.7958C104.019 86.7958 108.834 95.8005 121.799 93.9731L121.646 90.6467Z" fill="#AA6550"/>
<path d="M118.865 73.7868C118.502 73.3746 118.04 73.0614 117.524 72.8761C117.007 72.6909 116.452 72.6397 115.911 72.7274C115.516 72.782 115.137 72.9156 114.796 73.1204C114.454 73.3252 114.158 73.5969 113.923 73.9192C113.697 74.23 113.571 74.6031 113.564 74.9878C113.556 75.3725 113.667 75.7502 113.881 76.0697C114.41 76.7318 115.414 76.8431 116.259 76.557C117.093 76.217 117.851 75.7147 118.49 75.0792C118.682 74.9331 118.847 74.7537 118.976 74.5495C119.038 74.4477 119.067 74.3299 119.062 74.211C119.056 74.0921 119.015 73.9776 118.944 73.8821" fill="#AA6550"/>
<path d="M114.198 70.9053C114.489 70.8735 114.584 72.828 116.312 74.1364C118.041 75.4447 120.107 75.1375 120.134 75.4076C120.165 75.5294 119.69 75.8102 118.812 75.8737C117.676 75.9388 116.554 75.6013 115.641 74.9203C114.761 74.2647 114.17 73.2924 113.992 72.2083C113.87 71.3979 114.061 70.9 114.198 70.9053Z" fill="#2D2F34"/>
<path d="M112.961 53.1927C112.803 53.6906 111 53.5422 108.907 53.8918C106.814 54.2414 105.139 54.8982 104.838 54.4745C104.7 54.2679 104.98 53.7965 105.641 53.288C106.531 52.6654 107.551 52.2541 108.623 52.0853C109.696 51.9164 110.792 51.9944 111.83 52.3134C112.618 52.5888 113.003 52.9596 112.961 53.1927Z" fill="#2D2F34"/>
<path d="M129.816 53.0815C129.52 53.5052 128.262 53.1397 126.777 53.1874C125.292 53.2351 124.045 53.5899 123.733 53.1874C123.595 52.9861 123.775 52.5677 124.309 52.128C125.026 51.6299 125.875 51.3568 126.747 51.3436C127.62 51.3304 128.477 51.5777 129.208 52.0539C129.753 52.4617 129.948 52.8749 129.816 53.0815Z" fill="#2D2F34"/>
<path d="M100.604 33.4036C100.657 34.7133 100.997 35.9954 101.599 37.1586C102.202 38.3219 103.053 39.3378 104.092 40.1342C105.131 40.9306 106.332 41.4879 107.61 41.7665C108.888 42.0451 110.212 42.0381 111.487 41.7461C113.458 41.2959 115.594 40.1942 117.359 41.1794C119.219 42.2387 119.41 44.9454 121.059 46.2696C123.437 48.1659 126.999 46.1319 129.948 46.8682C132.226 47.4402 133.727 49.5166 135.297 51.2752C136.867 53.0337 139.182 54.644 141.402 53.8759C141.246 51.8481 140.858 49.8451 140.244 47.9064C139.627 45.9441 138.347 44.2585 136.624 43.1392C135.667 42.5724 134.573 42.2493 133.68 41.5872C131.745 40.1624 131.196 37.551 129.98 35.4958C129.163 34.1728 128.043 33.0641 126.713 32.2617C125.383 31.4593 123.881 30.9864 122.332 30.8823C119.764 30.734 117.158 31.6186 114.637 31.0995C112.776 30.7128 111.112 29.5846 109.23 29.3091C105.562 28.7794 102.296 31.5444 99.7693 34.267" fill="#2D2F34"/>
<path d="M93.2258 62.3349C93.0197 62.2449 84.986 59.8931 85.2503 68.1085C85.5145 76.3239 93.7068 74.3694 93.7068 74.131C93.7068 73.8926 93.2258 62.3349 93.2258 62.3349Z" fill="#B78876"/>
<path d="M91.0905 71.112C91.0535 71.112 90.9531 71.2126 90.7153 71.3344C90.3823 71.4856 90.0045 71.5046 89.6582 71.3874C88.7808 71.0961 88.0092 69.7454 87.9193 68.2623C87.8781 67.5593 87.9918 66.8558 88.2523 66.2018C88.3229 65.9408 88.4561 65.701 88.6404 65.5035C88.8246 65.3059 89.0543 65.1565 89.3094 65.0683C89.4722 65.0186 89.6473 65.0281 89.8038 65.0949C89.9604 65.1617 90.0885 65.2817 90.1656 65.4337C90.2819 65.6615 90.2343 65.8257 90.2819 65.8363C90.3295 65.8469 90.451 65.6933 90.3717 65.3596C90.3271 65.1477 90.2068 64.9593 90.0335 64.8299C89.9197 64.7489 89.7911 64.6913 89.655 64.6604C89.519 64.6295 89.3781 64.6259 89.2407 64.6498C88.9057 64.7259 88.596 64.8873 88.3414 65.1183C88.0868 65.3493 87.8959 65.6422 87.7872 65.9687C87.461 66.6926 87.3158 67.4853 87.3644 68.2781C87.4701 69.9308 88.3633 71.4563 89.5631 71.7582C89.7854 71.8152 90.0176 71.8215 90.2426 71.7766C90.4677 71.7316 90.6798 71.6367 90.8633 71.4986C91.08 71.3079 91.117 71.1226 91.0905 71.112Z" fill="#AA6550"/>
<path d="M89.9543 61.7681C91.3204 62.0695 92.7378 62.047 94.0937 61.7025C95.4496 61.3581 96.7065 60.7011 97.7643 59.7839C98.8222 58.8668 99.6518 57.7148 100.187 56.4196C100.722 55.1245 100.948 53.722 100.847 52.3239C103.871 52.1756 106.482 49.8343 107.681 47.027C108.881 44.2197 108.886 41.0786 108.516 38.0594C108.483 37.347 108.27 36.6547 107.898 36.0466C107 34.7966 105.171 34.8072 103.638 34.9396C99.6899 35.2839 95.6202 35.6706 92.1372 37.588C88.6541 39.5055 85.9005 43.3139 86.5242 47.2336C86.8307 49.151 87.8931 51.0367 87.4174 52.9171C87.0633 54.3155 85.8899 55.449 85.7525 56.8844C85.7307 57.4402 85.8284 57.9941 86.0391 58.5087C86.2497 59.0232 86.5684 59.4863 86.9734 59.8666C87.7848 60.625 88.7038 61.2587 89.7006 61.747" fill="#2D2F34"/>
<path d="M91.4186 74.8514C93.0042 75.1057 94.6532 75.5771 95.557 76.9119C96.0066 77.5807 96.3165 78.3337 96.4682 79.1257C96.6199 79.9176 96.6102 80.7321 96.4397 81.5202C97.7134 81.4566 98.7547 82.5795 99.2409 83.7554C100.478 86.7852 99.0823 90.4666 96.5084 92.4847C95.6046 93.1891 94.4894 93.7453 93.3372 93.5917C92.185 93.4381 91.408 92.7177 90.6205 92.0026C89.2989 90.877 88.1345 89.5782 87.1587 88.1412C86.1465 86.7642 85.6455 85.0763 85.742 83.3687C85.8384 81.6611 86.5264 80.0408 87.6872 78.787C88.7442 77.5263 90.0339 75.789 91.3869 74.8567" fill="#2D2F34"/>
<path d="M80.6045 49.3525C81.0097 49.4838 81.4432 49.5003 81.8571 49.4001C82.3359 49.2668 82.7821 49.036 83.1679 48.7221C83.6793 48.2963 84.1419 47.8149 84.5473 47.2867C85.0481 46.6309 85.6823 46.0892 86.4078 45.6976C87.2481 45.2898 88.2524 45.3745 89.2143 45.4646C89.706 45.5202 90.2024 45.5202 90.6942 45.4646C91.1981 45.3893 91.6807 45.2088 92.1106 44.9349C93.0235 44.3352 93.7547 43.4962 94.2248 42.5089C94.6833 41.509 95.0735 40.4791 95.3928 39.4262C95.7138 38.4391 96.128 37.4849 96.6296 36.5765C97.4736 35.0039 98.7602 33.7145 100.329 32.8687C101.39 32.3152 102.582 32.0642 103.775 32.143C104.21 32.1623 104.638 32.2591 105.039 32.429C104.621 32.3388 104.197 32.2786 103.77 32.2489C102.603 32.212 101.446 32.4862 100.419 33.0435C98.9103 33.8945 97.6802 35.1659 96.878 36.7036C96.389 37.6023 95.9873 38.5459 95.6782 39.5215C95.3568 40.5879 94.9612 41.6304 94.4943 42.6414C94.0103 43.6706 93.251 44.5451 92.3009 45.168C91.8353 45.4475 91.3171 45.6278 90.7787 45.6976C90.2674 45.7508 89.752 45.7508 89.2407 45.6976C88.2682 45.597 87.3221 45.5176 86.5505 45.883C85.848 46.2613 85.2322 46.7827 84.7429 47.4138C84.3186 47.9395 83.8383 48.4173 83.3106 48.8387C82.9002 49.1539 82.4285 49.3795 81.9258 49.5008C81.6082 49.5791 81.2763 49.5791 80.9586 49.5008C80.8329 49.4722 80.7131 49.422 80.6045 49.3525Z" fill="#3E4148"/>
<path d="M76.3768 59.1569C76.3707 59.1165 76.3707 59.0754 76.3768 59.0351C76.3578 58.9175 76.3578 58.7977 76.3768 58.6802C76.4342 58.225 76.5626 57.7818 76.7573 57.3666C77.0497 56.7024 77.413 56.072 77.8408 55.4862C78.1032 55.1135 78.3911 54.7596 78.7023 54.4268C79.0489 54.0482 79.4496 53.7233 79.8915 53.4628C80.427 53.2055 81.0125 53.0697 81.6063 53.0651C82.2001 53.0605 82.7876 53.1873 83.327 53.4363C83.9301 53.6872 84.4957 54.0205 85.0077 54.4268C85.5425 54.8381 86.1181 55.1931 86.7254 55.4862C88.0199 56.1276 89.471 56.3832 90.9061 56.2224C92.4471 56.0391 93.854 55.2551 94.8226 54.0401C95.7792 52.7954 96.0065 51.0792 97.2221 49.9827C97.5284 49.7203 97.8897 49.5303 98.2792 49.4266C98.6486 49.3316 99.0288 49.2853 99.4102 49.2889C100.115 49.3217 100.822 49.3041 101.524 49.2359C102.821 49.0526 104.053 48.5544 105.113 47.7846C106.041 47.119 106.808 46.2516 107.354 45.2474C108.143 43.7777 108.46 42.1001 108.263 40.4431C108.209 39.9957 108.12 39.553 107.999 39.1189C107.942 38.9694 107.897 38.8152 107.867 38.6581C108.136 39.2175 108.315 39.8166 108.395 40.4325C108.551 41.4761 108.498 42.5404 108.238 43.5631C107.979 44.5859 107.519 45.5467 106.886 46.3894C106.252 47.232 105.457 47.9398 104.547 48.4713C103.638 49.0027 102.632 49.3473 101.588 49.4848C100.872 49.5608 100.151 49.5839 99.4314 49.5537C99.0751 49.5513 98.7199 49.594 98.3743 49.6808C98.0283 49.7848 97.7103 49.9659 97.4441 50.2105C96.3236 51.1957 96.0858 52.896 95.0868 54.2255C94.0737 55.4998 92.5999 56.322 90.9854 56.5138C89.4978 56.6768 87.9949 56.4065 86.6567 55.7351C86.0351 55.4344 85.4469 55.0686 84.902 54.644C84.4078 54.2482 83.8619 53.9221 83.2794 53.6746C82.7706 53.4362 82.2158 53.3127 81.6542 53.3127C81.0925 53.3127 80.5377 53.4362 80.0289 53.6746C79.6 53.9211 79.2099 54.2299 78.8714 54.591C78.5613 54.9094 78.2717 55.2473 78.0046 55.6027C77.5763 56.1751 77.2062 56.7891 76.9 57.4354C76.6958 57.8377 76.5516 58.2678 76.4719 58.712C76.4586 58.8281 76.4586 58.9454 76.4719 59.0616C76.4453 59.0981 76.4132 59.1303 76.3768 59.1569Z" fill="#3E4148"/>
<path d="M144.478 41.7143C144.244 41.1765 143.906 40.6904 143.484 40.2841C142.676 39.5002 141.116 38.7904 139.103 38.6156C138.093 38.5203 136.988 38.5203 135.778 38.409C134.482 38.3362 133.223 37.9529 132.105 37.2914C130.938 36.4682 129.929 35.442 129.124 34.2616C128.279 33.0172 127.309 31.8635 126.228 30.8187C125.09 29.8477 123.711 29.2035 122.237 28.9542C120.858 28.7214 119.454 28.6716 118.062 28.8059C116.73 28.9118 115.472 29.1184 114.288 29.3355C113.104 29.5527 111.999 29.6957 110.985 29.7858C109.378 29.9805 107.75 29.8999 106.17 29.5474C105.592 29.4153 105.033 29.2125 104.505 28.9436C104.653 28.98 104.798 29.0278 104.938 29.0866C105.111 29.1533 105.287 29.2099 105.467 29.2561C105.707 29.3304 105.95 29.3923 106.196 29.4415C107.764 29.7457 109.369 29.7975 110.953 29.5951C111.962 29.4891 113.067 29.3144 114.24 29.1131C115.414 28.9118 116.682 28.6893 118.03 28.5834C119.439 28.4417 120.861 28.488 122.258 28.7211C123.78 28.9784 125.204 29.6427 126.381 30.6439C127.479 31.7005 128.462 32.8706 129.314 34.1345C130.099 35.29 131.082 36.2977 132.216 37.1113C133.298 37.7588 134.52 38.1366 135.778 38.2131C136.962 38.3296 138.077 38.3455 139.097 38.4514C141.137 38.6527 142.723 39.4101 143.532 40.2417C143.847 40.547 144.107 40.9056 144.298 41.3011C144.344 41.4065 144.385 41.5144 144.42 41.6242C144.465 41.6843 144.485 41.7143 144.478 41.7143Z" fill="#3E4148"/>
<path d="M150.53 54.9724C150.53 54.9724 150.488 54.9724 150.398 55.0254C150.268 55.0746 150.136 55.117 150.001 55.1525C149.484 55.2877 148.949 55.336 148.416 55.2955C148.026 55.2606 147.643 55.177 147.274 55.0466C146.84 54.8858 146.428 54.6705 146.048 54.4057C145.138 53.7331 144.369 52.8871 143.786 51.9161C143.12 50.8568 142.729 49.522 142.063 48.2401C141.734 47.5763 141.276 46.9855 140.715 46.5028C140.095 46.0213 139.371 45.6912 138.601 45.5387C137.015 45.1786 135.287 45.3269 133.501 45.0673C132.106 44.8481 130.777 44.3264 129.605 43.5387C128.432 42.7509 127.446 41.7162 126.714 40.5067C126.261 39.7264 125.769 38.9698 125.24 38.2397C124.721 37.5507 124.038 37.0041 123.252 36.6506C122.493 36.3293 121.686 36.136 120.863 36.0786C119.319 36.039 117.774 36.1062 116.239 36.2798C112.883 36.5386 109.551 35.5443 106.884 33.4884C106.303 33.0596 105.771 32.5675 105.298 32.0212C105.338 32.0474 105.375 32.0776 105.409 32.1112L105.71 32.392C107.539 34.0842 109.785 35.2579 112.217 35.7925C113.529 36.0741 114.875 36.1615 116.212 36.0521C117.757 35.8653 119.313 35.7892 120.869 35.8243C121.722 35.8811 122.559 36.0798 123.347 36.4123C124.182 36.7704 124.91 37.3377 125.462 38.0596C125.997 38.798 126.495 39.5635 126.952 40.3531C127.434 41.1403 128.027 41.8539 128.712 42.4719C130.069 43.6956 131.751 44.4996 133.553 44.7866C135.292 45.0514 137.036 44.9084 138.67 45.2792C139.472 45.4462 140.225 45.798 140.868 46.3068C141.452 46.8113 141.926 47.4295 142.264 48.1236C142.935 49.4372 143.321 50.772 143.955 51.8049C144.514 52.7617 145.256 53.5986 146.138 54.268C146.498 54.5332 146.891 54.7521 147.306 54.9195C147.661 55.0531 148.033 55.1404 148.411 55.179C149.124 55.2376 149.841 55.1676 150.53 54.9724Z" fill="#3E4148"/>
<path d="M146.666 87.6646C147.07 87.2774 147.425 86.8415 147.723 86.3669C148.455 85.0276 148.805 83.5118 148.733 81.9864C148.718 80.938 148.522 79.9001 148.151 78.9195C147.944 78.3795 147.665 77.87 147.321 77.4046C146.949 76.9111 146.533 76.452 146.079 76.0327C145.16 75.1534 144.06 74.3695 143.03 73.3843C141.905 72.4317 141.07 71.1819 140.62 69.7771C140.451 69.0481 140.415 68.2943 140.514 67.5525C140.598 66.8215 140.757 66.1276 140.9 65.4337C141.051 64.7716 141.15 64.0986 141.196 63.4209C141.233 62.7801 141.147 62.1381 140.942 61.5299C140.507 60.4133 139.791 59.428 138.865 58.6696C138.061 57.9879 137.221 57.3496 136.349 56.7575C135.051 55.9326 133.934 54.8512 133.067 53.5794C132.848 53.2177 132.67 52.8321 132.538 52.43C132.495 52.29 132.465 52.1464 132.448 52.0009C132.612 52.5349 132.843 53.0458 133.136 53.5211C134.024 54.7615 135.147 55.8159 136.439 56.6251C137.325 57.2076 138.178 57.8407 138.992 58.5213C139.956 59.3007 140.703 60.3172 141.159 61.4717C141.377 62.1118 141.472 62.7876 141.439 63.4633C141.392 64.1531 141.293 64.8384 141.143 65.5132C140.863 66.8745 140.503 68.3152 140.868 69.7242C141.302 71.0799 142.108 72.2859 143.194 73.2042C144.203 74.147 145.308 74.9416 146.233 75.8526C146.695 76.2832 147.118 76.7547 147.496 77.2616C147.847 77.751 148.132 78.2855 148.341 78.8506C148.714 79.8558 148.906 80.9194 148.907 81.9917C148.965 83.5469 148.58 85.0866 147.797 86.4304C147.67 86.6389 147.525 86.8356 147.364 87.0184C147.256 87.1578 147.133 87.2856 146.999 87.3998C146.897 87.4992 146.786 87.588 146.666 87.6646Z" fill="#3E4148"/>
<path d="M80.4306 71.0536C80.121 70.7403 79.8751 70.3697 79.7065 69.9625C79.2256 68.8589 79.1107 67.6298 79.3788 66.4559C79.5858 65.5903 79.9631 64.7748 80.4886 64.0572C81.0141 63.3396 81.6771 62.7343 82.439 62.2767C83.3227 61.7132 84.3001 61.3131 85.3248 61.0955C86.4181 60.8786 87.5295 60.7669 88.644 60.7618C90.9061 60.7142 93.0995 60.7618 94.9335 60.0838C96.5602 59.4878 97.9757 58.4248 99.0032 57.0275C99.7071 56.0933 100.226 55.0324 100.531 53.9024C100.737 53.0973 100.763 52.6312 100.795 52.6365C100.809 52.7472 100.809 52.8594 100.795 52.9702C100.77 53.2927 100.723 53.6131 100.652 53.9289C100.306 55.3725 99.6133 56.7095 98.6342 57.8237C97.655 58.938 96.4191 59.7956 95.0339 60.3222C93.1418 61.0373 90.9114 60.9896 88.6598 61.0373C87.5634 61.0427 86.4699 61.1509 85.3935 61.3604C84.3991 61.5682 83.4491 61.9501 82.587 62.4886C81.0943 63.3734 80.0128 64.8154 79.5796 66.4983C79.3044 67.6358 79.3856 68.8306 79.8122 69.9201C79.9904 70.3126 80.197 70.6914 80.4306 71.0536Z" fill="#3E4148"/>
<path d="M75.0867 177.774C75.1818 177.949 77.3065 179.602 77.3065 179.602L81.2018 178.193L86.0643 180.682C86.0643 180.682 90.43 181.143 90.467 182.722C90.504 184.3 93.0621 192.055 89.7429 197.362C86.4237 202.67 84.0717 204.428 84.0717 204.428L72.2749 193.384L68.6492 192.637L75.0867 177.774Z" fill="#B78876"/>
<path d="M186.628 0.53119C181.725 0.529541 176.928 1.9576 172.821 4.64124C168.714 7.32487 165.475 11.1481 163.499 15.6448C161.522 20.1414 160.895 25.1172 161.691 29.9654C162.488 34.8135 164.676 39.3245 167.986 42.9484C168.087 43.0596 168.198 43.1655 168.304 43.2768L163.51 55.5919L178.837 50.1839L178.874 49.9614C181.316 50.7453 183.885 51.7517 186.586 51.7517C200.539 51.7517 211.881 39.8391 211.881 25.8501C211.881 19.137 209.221 12.6986 204.485 7.95068C199.75 3.20276 193.326 0.533999 186.628 0.53119Z" fill="white"/>
<path d="M186.601 0.891342C186.753 0.876155 186.905 0.876155 187.056 0.891342L188.383 0.92842C189.102 0.94034 189.82 1.0112 190.528 1.1403C190.951 1.20386 191.411 1.24623 191.897 1.34687L193.42 1.72295C197.208 2.76111 200.706 4.66026 203.643 7.27294C206.58 9.88561 208.876 13.1415 210.354 16.7878C211.832 20.4342 212.452 24.3728 212.165 28.298C211.878 32.2231 210.692 36.0292 208.699 39.4206C205.863 44.2407 201.542 48.0069 196.385 50.152C193.669 51.2753 190.779 51.9135 187.844 52.0377C184.823 52.224 181.794 51.8468 178.911 50.9254L178.647 50.8406H178.853L163.922 55.9786L163.314 56.1904L163.51 55.576L167.373 43.1284L167.437 43.425C164.786 40.4543 162.864 36.9041 161.825 33.0574C160.785 29.2107 160.656 25.1737 161.449 21.2683C162.105 17.9679 163.413 14.8324 165.296 12.0465C166.913 9.67272 168.912 7.58395 171.211 5.86508C172.197 5.12512 173.231 4.45266 174.308 3.85228C175.276 3.33818 176.273 2.88013 177.294 2.4804C178.168 2.133 179.065 1.8463 179.979 1.62231C180.735 1.40946 181.505 1.24842 182.283 1.1403C182.981 1.05025 183.599 0.94431 184.133 0.896638L185.492 0.854265H186.321C186.414 0.842687 186.508 0.842687 186.601 0.854265C186.51 0.879476 186.416 0.8937 186.321 0.896638L185.497 0.965498L184.149 1.05555C183.621 1.11911 183.007 1.24093 182.32 1.34687C181.552 1.4718 180.792 1.64876 180.048 1.87656C179.147 2.10954 178.264 2.40692 177.405 2.76643C176.408 3.17016 175.434 3.62814 174.487 4.13831C173.432 4.75354 172.419 5.43834 171.454 6.18819C169.21 7.90103 167.263 9.97349 165.693 12.3219C163.872 15.0693 162.615 18.1517 161.993 21.3902C161.237 25.2065 161.377 29.1468 162.403 32.8995C163.428 36.6521 165.311 40.1142 167.902 43.0119L168.018 43.1443L167.965 43.3138C166.734 47.3076 165.444 51.4763 164.118 55.7826L163.7 55.38L178.626 50.1891L178.732 50.152L178.837 50.1838L179.096 50.2686C181.906 51.1653 184.858 51.5334 187.801 51.3544C190.661 51.2339 193.478 50.6155 196.126 49.527C201.164 47.4429 205.392 43.7779 208.176 39.0816C211.433 33.5394 212.461 26.9622 211.051 20.6875C209.641 14.4129 205.899 8.91202 200.586 5.30362C198.367 3.80849 195.925 2.67671 193.351 1.95071L191.85 1.54815C191.374 1.43692 190.92 1.38925 190.502 1.30979C189.805 1.16824 189.098 1.07796 188.388 1.03965L187.067 0.939014C186.91 0.938715 186.755 0.922745 186.601 0.891342Z" fill="#2D2F34"/>
<path d="M171.591 28.1649L175.518 24.2293L183.097 30.9775L197.965 16.6337L201.617 20.5745L182.537 38.5679L171.591 28.1649Z" fill="#2ED47A"/>
<path d="M200.877 186.281C199.613 188.013 197.235 187.378 196.151 186.281C195.068 185.185 194.635 183.633 194.243 182.123C193.345 178.717 192.441 175.137 193.239 171.704C193.44 170.663 193.921 169.696 194.629 168.908C194.988 168.52 195.441 168.233 195.945 168.077C196.449 167.921 196.985 167.9 197.499 168.018C198.699 168.362 199.418 169.564 199.936 170.698C201.456 174.052 202.211 177.704 202.145 181.387C202.113 183.098 201.875 184.888 200.877 186.281Z" fill="#0031B2"/>
<path d="M200.877 186.281C199.613 188.013 197.235 187.378 196.151 186.281C195.068 185.185 194.635 183.633 194.243 182.123C193.345 178.717 192.441 175.137 193.239 171.704C193.44 170.663 193.921 169.696 194.629 168.908C194.988 168.52 195.441 168.233 195.945 168.077C196.449 167.921 196.985 167.9 197.499 168.018C198.699 168.362 199.418 169.564 199.936 170.698C201.456 174.052 202.211 177.704 202.145 181.387C202.113 183.098 201.875 184.888 200.877 186.281Z" fill="#CE6D6D"/>
<path d="M196.083 195.063C194.046 194.048 191.738 193.714 189.497 194.11C188.292 194.285 187.034 194.64 186.199 195.498C185.364 196.356 185.174 197.966 186.093 198.761C186.688 199.184 187.411 199.386 188.139 199.333C189.888 199.333 191.839 199.084 193.202 200.17C193.984 200.784 194.492 201.796 195.438 202.114C195.913 202.233 196.414 202.195 196.865 202.004C197.316 201.813 197.693 201.479 197.938 201.054C198.408 200.186 198.529 199.17 198.276 198.215C198.177 197.556 197.927 196.929 197.547 196.383C197.166 195.836 196.665 195.385 196.083 195.063Z" fill="#F59999"/>
<path d="M204.196 188.855C202.896 187.24 202.695 184.925 203.329 182.949C204.048 180.99 205.291 179.268 206.923 177.97C208.776 176.387 210.92 175.182 213.234 174.422C214.13 174.083 215.089 173.942 216.045 174.008C216.523 174.047 216.984 174.202 217.388 174.46C217.792 174.717 218.128 175.07 218.366 175.486C218.995 176.752 218.329 178.256 217.626 179.485C216.38 181.643 214.966 183.7 213.397 185.635C212.14 187.224 210.697 188.728 208.815 189.401C206.934 190.074 204.989 189.931 204.027 188.628" fill="#F28080"/>
<path d="M200.38 212.765C200.319 212.503 200.287 212.235 200.285 211.966C200.242 211.383 200.184 210.652 200.121 209.778C200.037 208.703 199.898 207.634 199.703 206.573C199.453 205.279 199.099 204.008 198.646 202.77C198.198 201.536 197.575 200.373 196.796 199.317C196.167 198.453 195.352 197.742 194.413 197.235C193.774 196.902 193.088 196.671 192.378 196.552C192.11 196.534 191.844 196.49 191.585 196.419C191.854 196.39 192.125 196.39 192.394 196.419C193.128 196.495 193.844 196.699 194.508 197.023C195.499 197.527 196.361 198.251 197.029 199.142C197.836 200.217 198.481 201.406 198.942 202.67C199.405 203.924 199.759 205.216 199.999 206.531C200.183 207.605 200.301 208.689 200.353 209.778C200.401 210.705 200.411 211.457 200.411 211.976C200.427 212.24 200.416 212.504 200.38 212.765Z" fill="#2D2F34"/>
<path d="M200.263 211.102C200.248 210.979 200.248 210.855 200.263 210.731C200.263 210.451 200.263 210.101 200.29 209.672C200.29 208.75 200.343 207.421 200.327 205.774C200.327 202.484 200.137 197.94 199.698 192.939C199.259 187.939 198.641 183.431 198.038 180.2C197.896 179.39 197.753 178.659 197.621 178.018C197.489 177.377 197.383 176.826 197.277 176.376C197.171 175.926 197.113 175.613 197.05 175.343C197.017 175.224 196.999 175.101 196.997 174.978C197.052 175.089 197.093 175.206 197.119 175.327C197.193 175.592 197.288 175.931 197.399 176.35C197.51 176.768 197.658 177.34 197.8 177.981C197.943 178.622 198.112 179.348 198.266 180.153C199.081 184.371 199.668 188.631 200.026 192.913C200.464 197.924 200.612 202.479 200.554 205.774C200.554 207.421 200.475 208.756 200.411 209.677C200.374 210.106 200.348 210.456 200.322 210.737C200.321 210.861 200.301 210.984 200.263 211.102Z" fill="#2D2F34"/>
<path d="M200.438 202.32C200.417 201.951 200.427 201.58 200.469 201.213C200.553 200.209 200.687 199.21 200.871 198.22C201.143 196.752 201.496 195.301 201.928 193.872C202.449 192.118 203.096 190.405 203.863 188.744C205.194 185.683 207.071 182.89 209.402 180.502C209.805 180.094 210.234 179.712 210.686 179.358C210.887 179.199 211.061 179.035 211.214 178.913L211.711 178.585C212.011 178.368 212.327 178.175 212.657 178.008C211.566 178.825 210.527 179.71 209.544 180.656C207.292 183.068 205.465 185.846 204.143 188.871C203.402 190.524 202.772 192.225 202.256 193.962C201.727 195.551 201.394 197.029 201.125 198.268C200.855 199.507 200.718 200.524 200.623 201.229C200.59 201.597 200.528 201.962 200.438 202.32Z" fill="#2D2F34"/>
<path d="M257.5 212.732C257.5 212.876 199.961 213 129.006 213C58.0516 213 0.5 212.876 0.5 212.732C0.5 212.587 58.0209 212.463 129.006 212.463C199.991 212.463 257.5 212.577 257.5 212.732Z" fill="#2D2F34"/>
</svg>
