<svg width="145" height="174" viewBox="0 0 145 174" xmlns="http://www.w3.org/2000/svg">
<circle cx="72.3498" cy="101.65" r="72.3498" fill="#E6EAF7"/>
<mask id="mask0" style="mask-type:alpha" maskUnits="userSpaceOnUse" x="0" y="9" width="145" height="165">
<path fill-rule="evenodd" clip-rule="evenodd" d="M143 9H2V84.6853C0.692566 90.1267 0 95.8076 0 101.65C0 141.608 32.3922 174 72.3499 174C112.308 174 144.7 141.608 144.7 101.65C144.7 96.2723 144.113 91.0316 143 85.9883V9Z" fill="white"/>
</mask>
<g mask="url(#mask0)">
<path d="M127.957 162.482L131.744 174.063L111.098 175.675L108.693 169.475L127.957 162.482Z" fill="#FFBE9D"/>
<path d="M49.2702 32.4699C49.0953 31.1779 49.4107 29.8673 50.1542 28.7964C50.8977 27.7254 52.0154 26.9718 53.287 26.6842L76.0797 12.1831C84.7674 10.23 95.7123 24.7403 97.2693 33.4925C98.8427 43.1122 99.4599 52.864 99.1119 62.6052C98.4854 77.5854 88.6645 79.1884 88.6645 79.1884L96.0348 129.002L60.5192 107.103L49.2702 32.4699Z" fill="#FFBE9D"/>
<path d="M92.5338 45.9209C92.5947 46.4108 92.4623 46.9051 92.1647 47.299C91.8671 47.6929 91.4278 47.9554 90.9399 48.0307C90.4599 48.1195 89.9641 48.0142 89.5617 47.7378C89.1592 47.4614 88.8828 47.0366 88.7933 46.5566C88.7324 46.0667 88.8648 45.5724 89.1624 45.1785C89.46 44.7846 89.8993 44.5222 90.3872 44.4468C90.8673 44.358 91.363 44.4634 91.7655 44.7397C92.1679 45.0161 92.4443 45.4409 92.5338 45.9209V45.9209Z" fill="#263238"/>
<path d="M95.4635 40.5405C95.2793 40.7432 93.7683 40.7156 91.8613 41.4618C89.9542 42.208 88.6921 43.203 88.4525 43.1478C88.213 43.0925 88.4525 42.8253 89.0329 42.3647C89.8332 41.7109 90.7401 41.1998 91.7139 40.8537C92.6429 40.4962 93.6297 40.3119 94.6251 40.3102C95.2885 40.2918 95.5556 40.4484 95.4635 40.5405Z" fill="#263238"/>
<path d="M73.6657 46.8328C73.7241 47.3237 73.5895 47.818 73.2905 48.2116C72.9914 48.6051 72.5512 48.8672 72.0627 48.9426C71.584 49.0287 71.0907 48.9221 70.6903 48.646C70.2899 48.3698 70.0149 47.9466 69.9253 47.4685C69.862 46.9782 69.9935 46.4826 70.2915 46.0882C70.5894 45.6937 71.0302 45.4319 71.5191 45.3588C71.9992 45.2699 72.495 45.3753 72.8974 45.6516C73.2999 45.928 73.5762 46.3529 73.6657 46.8328Z" fill="#263238"/>
<path d="M75.6466 44.4004C75.3702 44.511 73.9514 43.6634 71.7495 43.3409C69.5477 43.0185 67.8248 43.3409 67.6129 43.1935C67.401 43.0461 67.8248 42.8895 68.5342 42.7145C69.6395 42.495 70.7749 42.4731 71.8877 42.65C72.9662 42.7976 74.0071 43.1477 74.9556 43.6818C75.6097 44.0595 75.8216 44.3543 75.6466 44.4004Z" fill="#263238"/>
<path d="M84.6382 56.9301C85.6664 56.4647 86.7501 56.1334 87.8627 55.9443C88.3694 55.8337 88.8485 55.6771 88.8946 55.3086C88.8783 54.7687 88.6948 54.2472 88.3694 53.8161C87.7552 52.5877 87.0919 51.3317 86.3795 50.048C83.6156 44.6769 81.515 40.2363 81.773 40.1258C82.031 40.0152 84.4263 44.2808 87.2086 49.6519L89.1341 53.4476C89.5343 54.0365 89.7138 54.7477 89.6408 55.456C89.5863 55.6473 89.4892 55.8237 89.3567 55.9721C89.2243 56.1205 89.06 56.237 88.8761 56.3128C88.5977 56.4219 88.3068 56.4962 88.0101 56.5339C86.9071 56.8061 85.7743 56.9392 84.6382 56.9301V56.9301Z" fill="#263238"/>
<path d="M88.6552 79.2254C81.7737 80.2429 74.7447 79.2844 68.3869 76.4615C68.3869 76.4615 74.4398 86.8168 88.9961 83.7213L88.6552 79.2254Z" fill="#EB996E"/>
<path d="M84.8686 61.8958C84.3732 61.2504 83.7396 60.7243 83.0142 60.356C82.2887 59.9877 81.49 59.7866 80.6767 59.7676C80.2065 59.7774 79.7504 59.9298 79.3687 60.2045C78.9871 60.4792 78.6978 60.8634 78.5393 61.3062C78.3802 61.8781 78.3616 62.48 78.4851 63.0607C78.6086 63.6413 78.8706 64.1836 79.2487 64.6412C79.6201 65.1255 80.1249 65.4907 80.701 65.692C81.2771 65.8933 81.8995 65.922 82.4916 65.7744C83.4527 65.3779 84.2716 64.7004 84.8409 63.8305C85.0474 63.609 85.1961 63.34 85.2739 63.0474C85.3076 62.8628 85.3003 62.673 85.2526 62.4915C85.2048 62.31 85.1178 62.1412 84.9975 61.9971" fill="#EB996E"/>
<path d="M78.825 59.0308C79.1567 58.9663 79.4147 61.1682 81.4783 62.5132C83.542 63.8583 85.8637 63.3424 85.919 63.6464C85.919 63.7846 85.4491 64.1347 84.4541 64.2821C83.1676 64.4497 81.863 64.1595 80.769 63.4622C79.7185 62.787 78.9718 61.7298 78.6868 60.514C78.4934 59.5651 78.6776 59.0308 78.825 59.0308Z" fill="#263238"/>
<path d="M76.2915 35.3443C76.0981 35.8971 74.0528 35.6667 71.6851 35.9984C69.3174 36.3301 67.3643 37.0026 67.0326 36.5143C66.8852 36.2748 67.2169 35.7497 67.9539 35.1969C68.9843 34.5165 70.1562 34.08 71.3806 33.9203C72.6051 33.7607 73.8497 33.8822 75.0202 34.2756C75.923 34.6902 76.3745 35.0771 76.2915 35.3443Z" fill="#263238"/>
<path d="M95.5739 35.9985C95.1777 36.5052 93.3904 36.2288 91.2991 36.4407C89.2078 36.6526 87.4758 37.1869 87.0151 36.7447C86.8032 36.5328 87.0151 36.0353 87.7614 35.5194C88.7756 34.8693 89.9322 34.4745 91.1323 34.3686C92.3323 34.2627 93.5402 34.4489 94.6526 34.9114C95.4449 35.3075 95.7397 35.7497 95.5739 35.9985Z" fill="#263238"/>
<path d="M39.274 70.7587C39.6426 64.0793 40.7113 42.6963 45.0229 31.0328C49.3345 19.3692 55.4058 14.1455 61.6521 11.6857C64.0113 10.6777 66.5907 10.2956 69.1407 10.5765C71.6908 10.8573 74.1252 11.7915 76.2085 13.2888C79.4146 15.5551 81.2756 23.0176 81.2756 23.0176C81.2756 23.0176 66.1204 28.2505 61.9285 37.7582C57.0733 48.6294 56.2073 53.9175 56.2073 53.9175L54.8991 59.7124C54.8991 59.7124 57.7459 84.9005 59.0265 90.1149L38.4817 109.978C39.1543 103.418 38.9055 77.4288 39.274 70.7587Z" fill="#FFB946"/>
<path d="M81.727 23.0544C81.727 23.0544 90.5069 21.0736 94.9383 30.7379C96.9467 35.114 98.9367 48.3621 98.9367 48.3621C98.9367 48.3621 99.6829 37.537 98.5221 31.65C97.3613 25.7629 93.5379 18.5769 88.5077 14.9378C83.4775 11.2987 79.6633 9.92601 71.7955 11.3079C74.1647 11.9003 76.3156 13.1564 77.9958 14.9286C79.1843 16.3197 79.7739 17.5543 81.727 23.0544Z" fill="#FFB946"/>
<path d="M56.3731 54.6359C55.8387 51.393 52.043 49.6241 49.4082 51.5864C47.9617 52.6551 46.9852 54.5898 47.5195 58.0355C48.9567 67.2483 57.8656 63.8764 57.8379 63.6185C57.8103 63.3605 56.9996 58.4224 56.3731 54.6359Z" fill="#FFBE9D"/>
<path d="M54.4937 60.5692C54.4937 60.5692 54.3555 60.7074 54.1067 60.8732C53.7481 61.0913 53.3207 61.1669 52.909 61.0851C51.8864 60.8824 50.8361 59.4636 50.5321 57.8238C50.3848 57.0407 50.4162 56.2344 50.6242 55.4653C50.662 55.1644 50.7734 54.8775 50.9485 54.63C51.1237 54.3825 51.3573 54.1821 51.6285 54.0465C51.8056 53.9721 52.0029 53.9607 52.1874 54.0144C52.3719 54.0681 52.5323 54.1835 52.6419 54.3413C52.8077 54.5808 52.7708 54.7651 52.8261 54.7743C52.8814 54.7835 53.0012 54.59 52.8261 54.2215C52.7401 54.0023 52.5805 53.8199 52.3747 53.7056C52.0915 53.5556 51.7607 53.5225 51.4534 53.6135C51.0876 53.7477 50.7619 53.9729 50.5072 54.2679C50.2526 54.5629 50.0772 54.9179 49.9978 55.2994C49.7333 56.1523 49.6827 57.0572 49.8504 57.9343C50.1912 59.7769 51.4073 61.3615 52.7985 61.5365C53.055 61.5691 53.3157 61.5438 53.5612 61.4625C53.8067 61.3812 54.0309 61.246 54.2173 61.0667C54.5121 60.7903 54.5305 60.5784 54.4937 60.5692Z" fill="#EB996E"/>
<path d="M65.2727 10.6722C65.2727 10.7459 66.544 10.5616 68.5709 10.5985C69.7567 10.6217 70.9317 10.83 72.0533 11.2157C73.4156 11.7195 74.6672 12.4829 75.7385 13.4637C77.7213 15.2357 79.2665 17.4431 80.2528 19.9127C81.0083 21.7553 81.1741 23.0635 81.2846 23.0451C81.2714 22.7497 81.2282 22.4565 81.1557 22.1698C80.4213 18.7182 78.6002 15.5927 75.9596 13.2518C74.8546 12.2281 73.5541 11.4384 72.1363 10.9301C70.9844 10.5448 69.7762 10.3548 68.5616 10.3681C67.7484 10.3678 66.936 10.4201 66.1294 10.5248C65.8403 10.5501 65.5537 10.5994 65.2727 10.6722V10.6722Z" fill="#455A64"/>
<path d="M48.6067 62.2733C48.6101 62.2212 48.6101 62.1688 48.6067 62.1167L48.4777 61.7021C48.4132 61.5087 48.3487 61.2783 48.2658 61.0204L48.0171 60.0991C47.5149 58.0851 47.3039 56.0095 47.3906 53.9357C47.5077 50.8593 48.2639 47.8411 49.6109 45.0729C51.3327 41.7214 53.7891 38.802 56.7969 36.5325C58.3405 35.3412 59.9558 34.2459 61.6337 33.2528C63.2552 32.2762 64.8859 31.4655 66.3968 30.5626C69.039 28.9506 71.5524 27.1364 73.9145 25.1362C75.9321 23.4318 77.4891 21.967 78.5209 20.9351C79.046 20.4192 79.4422 20.0138 79.7094 19.7282L80.0134 19.4058C80.0779 19.3321 80.1147 19.2952 80.1055 19.286L79.995 19.3782L79.6633 19.6822L78.4472 20.8706C77.3693 21.8748 75.7939 23.3121 73.7578 24.9796C71.3873 26.9467 68.8746 28.7358 66.2401 30.3323C64.7477 31.2536 63.0985 32.0182 61.4679 33.004C59.7736 33.9967 58.1457 35.0985 56.5943 36.3022C53.5358 38.5934 51.0403 41.5521 49.2977 44.9531C47.9462 47.76 47.2051 50.8215 47.1234 53.9357C47.0601 56.027 47.3053 58.1162 47.8512 60.1359L48.1276 61.0572C48.229 61.3152 48.3119 61.5363 48.3764 61.7298L48.5422 62.1443C48.579 62.2273 48.5975 62.2733 48.6067 62.2733Z" fill="#455A64"/>
<path d="M46.0733 59.0308C46.0733 59.0308 46.0733 58.9755 46.0733 58.8834L46.018 58.4411C46.018 58.0542 45.8706 57.5199 45.7969 56.7552C45.5799 54.6801 45.546 52.5899 45.6956 50.5089C45.9206 47.4268 46.5398 44.3863 47.5382 41.4618C48.7852 37.8899 50.6055 34.5448 52.9277 31.558C55.319 28.6061 58.1097 26.0015 61.2193 23.8191C63.9831 21.7555 66.747 20.134 68.9489 18.6784C71.1508 17.2227 72.9841 16.108 74.2095 15.2604C74.8267 14.855 75.2874 14.5141 75.6006 14.2838L75.9599 14.0259L76.0797 13.9245C76.0797 13.9245 76.0244 13.9245 75.9415 13.9982L75.5637 14.2285L74.1357 15.1498C72.9012 15.9513 71.0771 17.0845 68.8199 18.4665C66.5628 19.8484 63.8726 21.5067 61.035 23.5704C57.9187 25.7552 55.1272 28.37 52.7434 31.3369C50.375 34.3523 48.5227 37.7394 47.2618 41.3605C46.2518 44.3135 45.6323 47.3859 45.4192 50.4996C45.2911 52.5899 45.362 54.6876 45.6311 56.7644C45.7232 57.5014 45.8522 58.0634 45.9167 58.4504C45.9167 58.6254 45.9812 58.7728 46.0088 58.8834C46.0365 58.9939 46.0641 59.0308 46.0733 59.0308Z" fill="#455A64"/>
<path d="M95.2609 94.5096C95.2609 94.5096 107.136 99.3371 109.412 105.519C111.687 111.701 128.952 162.749 128.952 162.749L108.914 170.433L99.7752 128.422L95.2609 94.5096Z" fill="#0031B2"/>
<path d="M42.1393 173.39L45.2256 192.479C45.2256 192.479 31.8209 217.879 30.31 239.714C29.5914 250.087 35.5429 271.332 35.5429 271.332C35.5429 271.332 82.7497 276.519 108.214 275.856L135.383 274.667L140.174 232.224L109.679 227.82L110.14 169.981C110.14 169.981 115.667 154.753 116.091 150.247C117.068 140.74 116.662 131.122 107.164 118.795L95.2608 94.5096L91.29 92.667L93.1787 122.084L58.962 89.5715L41.6326 95.7902L36.7221 118.961L42.1393 173.39Z" fill="#0031B2"/>
<g opacity="0.3">
<path opacity="0.3" d="M43.4014 186.703C49.1226 185.367 52.7156 179.729 55.0372 174.33C57.3589 168.932 59.2752 162.971 63.8263 159.249C67.1614 156.485 71.6296 155.269 74.5133 152.063C75.8839 150.492 76.7928 148.573 77.1391 146.517C77.4855 144.462 77.2559 142.351 76.4756 140.418C75.6465 138.446 73.9789 136.585 71.8692 136.475C69.3817 136.346 67.447 138.501 65.9269 140.482C58.9742 149.591 52.4177 158.988 46.2574 168.674C42.9499 173.879 39.6517 180.199 41.955 185.92" fill="black"/>
</g>
<path d="M43.4386 98.8299C43.4386 98.8299 33.7558 101.907 30.2549 107.978C26.754 114.05 20.9499 143.531 19.5496 151.472C18.1492 159.414 11.3778 192.092 19.5496 197.233C27.7214 202.373 38.4636 194.469 41.2643 189.761C44.0651 185.053 55.4982 160.575 55.4982 160.575L45.2259 151.942C45.2259 151.942 47.0684 128.597 46.3959 123.686C45.7234 118.776 43.4386 98.8299 43.4386 98.8299Z" fill="#FFBE9D"/>
<path d="M13.0725 159.442L35.5428 160.907L45.8059 148.856L48.6435 129.878L47.888 93.5698C47.888 93.5698 27.8316 98.4619 23.4923 113.709C20.277 124.977 13.0725 159.442 13.0725 159.442Z" fill="#0031B2"/>
<path d="M52.8354 116.501C51.5456 116.326 49.8965 117.846 50.9928 121.512C51.9141 124.571 53.6461 127.547 53.5172 129.251C53.3882 130.956 52.7249 134.503 52.7249 136.345C52.6446 138.147 52.4693 139.943 52.1997 141.725L36.9063 160.151L50.1453 171.833L60.6203 155.379C60.6203 155.379 63.7803 155.904 65.6137 153.804L68.3775 150.644C68.3775 150.644 75.4715 148.018 74.025 144.195C74.025 144.195 76.1256 142.195 74.2185 138.989C74.2185 138.989 75.2135 135.654 73.7671 133.692C73.7671 133.692 73.6381 129.224 72.4496 128.431C71.2612 127.639 58.9712 127.51 58.9712 127.51C58.3019 125.467 57.5301 123.459 56.6588 121.494C55.3137 119.274 54.6319 116.74 52.8354 116.501Z" fill="#FFBE9D"/>
<path d="M58.0686 134.622C58.0686 134.668 57.7461 134.493 57.4605 134.06C57.0884 133.477 56.9258 132.784 56.9995 132.096C57.0732 131.408 57.3787 130.765 57.8659 130.274C58.2344 129.915 58.5476 129.804 58.5753 129.85C58.0274 130.513 57.651 131.301 57.4789 132.144C57.4799 133.005 57.6818 133.853 58.0686 134.622V134.622Z" fill="#EB996E"/>
<path d="M73.2511 133.36C71.3984 133.9 69.4924 134.237 67.5668 134.365C65.6574 134.642 63.7232 134.707 61.7995 134.558C63.6927 134.228 65.6027 134.004 67.5207 133.886C69.4193 133.601 71.3325 133.426 73.2511 133.36Z" fill="#EB996E"/>
<path d="M74.3384 138.63C72.8114 139.25 71.1993 139.635 69.5569 139.772C67.9375 140.072 66.2824 140.128 64.6464 139.938C64.6464 139.8 66.8207 139.662 69.4924 139.293C72.1641 138.925 74.3107 138.501 74.3384 138.63Z" fill="#EB996E"/>
<path d="M74.0712 144.038C71.6874 144.769 69.1816 145.016 66.7009 144.766C67.913 144.501 69.1462 144.343 70.386 144.296C71.6046 144.103 72.8376 144.017 74.0712 144.038V144.038Z" fill="#EB996E"/>
<path d="M62.463 145.696C62.463 145.751 62.205 145.696 61.8918 145.521C61.4789 145.24 61.189 144.811 61.0811 144.323C60.963 143.841 61.0287 143.332 61.2653 142.895C61.4496 142.573 61.6523 142.444 61.6983 142.481C61.7444 142.518 61.3206 143.282 61.5417 144.213C61.7628 145.143 62.5275 145.576 62.463 145.696Z" fill="#EB996E"/>
<path d="M59.441 141.311C59.441 141.357 59.137 141.2 58.8514 140.804C58.4847 140.281 58.2739 139.664 58.2433 139.026C58.2054 138.386 58.3457 137.748 58.6487 137.184C58.8974 136.76 59.137 136.576 59.183 136.612C58.9013 137.374 58.7457 138.177 58.7224 138.989C58.8399 139.796 59.0824 140.579 59.441 141.311Z" fill="#EB996E"/>
<path d="M70.294 149.851C69.6258 150.205 68.8921 150.419 68.1382 150.478C67.4083 150.688 66.6422 150.741 65.8902 150.634C66.5568 150.276 67.2914 150.063 68.046 150.008C68.775 149.793 69.5422 149.739 70.294 149.851V149.851Z" fill="#EB996E"/>
<path d="M64.3699 127.593C64.3699 127.731 62.5273 127.731 60.1965 127.961C57.8656 128.192 56.0691 128.551 56.0323 128.422C57.3381 127.869 58.7333 127.557 60.1504 127.501C61.5513 127.281 62.98 127.312 64.3699 127.593Z" fill="#EB996E"/>
<path d="M104.824 171.88H180.977C182.321 171.88 183.61 172.414 184.56 173.364C185.511 174.314 186.044 175.603 186.044 176.947V230.925H99.775V176.938C99.7774 175.599 100.31 174.315 101.256 173.367C102.202 172.42 103.485 171.885 104.824 171.88V171.88Z" fill="#E0E0E0"/>
<path d="M52.2183 141.726C52.3196 141.809 45.9719 149.474 38.0396 158.834C30.1073 168.195 23.5938 175.712 23.4925 175.648C23.3912 175.583 29.7388 167.909 37.6711 158.539C45.6034 149.17 52.1169 141.643 52.2183 141.726Z" fill="#EB996E"/>
<path d="M51.1219 129.85C50.9148 132.523 50.5487 135.181 50.0256 137.81C49.6628 140.468 49.1398 143.101 48.4594 145.696C48.6662 143.02 49.0323 140.359 49.5557 137.727C49.9244 135.073 50.4473 132.443 51.1219 129.85V129.85Z" fill="#263238"/>
<path d="M110.14 169.981C110.173 169.793 110.222 169.608 110.287 169.428L110.785 167.881C111.227 166.545 111.881 164.61 112.627 162.206C113.518 159.396 114.262 156.543 114.857 153.656C115.599 150.132 115.93 146.533 115.842 142.932C115.509 136.376 113.668 129.986 110.462 124.258C109.51 122.513 108.464 120.822 107.33 119.191C106.943 118.61 106.611 118.177 106.408 117.873C106.29 117.722 106.188 117.558 106.104 117.385C106.245 117.512 106.372 117.654 106.482 117.809C106.722 118.103 107.081 118.518 107.496 119.089C108.693 120.686 109.788 122.357 110.775 124.092C112.242 126.675 113.448 129.397 114.378 132.218C115.533 135.673 116.2 139.273 116.358 142.914C116.451 146.554 116.105 150.191 115.327 153.748C114.706 156.642 113.925 159.5 112.986 162.307C112.194 164.702 111.494 166.628 110.996 167.945C110.757 168.559 110.563 169.066 110.416 169.465C110.345 169.648 110.252 169.821 110.14 169.981V169.981Z" fill="#263238"/>
<path d="M90.5622 141.292C90.5999 141.722 90.5999 142.153 90.5622 142.582C90.5609 143.088 90.524 143.593 90.4517 144.093C90.3852 144.761 90.2838 145.426 90.1477 146.083C90.0002 146.881 89.8033 147.668 89.558 148.442C89.2984 149.339 88.9909 150.221 88.6368 151.086C87.7864 153.035 86.7302 154.888 85.486 156.613C84.2107 158.335 82.7492 159.911 81.1282 161.312C80.4178 161.919 79.6735 162.485 78.8987 163.007C78.2359 163.478 77.5435 163.906 76.8258 164.288C76.2308 164.632 75.6155 164.939 74.9833 165.209C74.5305 165.43 74.0625 165.617 73.5829 165.771C73.1841 165.935 72.7708 166.062 72.3484 166.149C72.3023 166.047 74.0712 165.504 76.6139 164.021C77.3094 163.621 77.9829 163.184 78.6316 162.712C79.3502 162.233 80.0411 161.625 80.7966 161.008C83.971 158.215 86.488 154.754 88.1669 150.874C88.5183 150.03 88.8258 149.169 89.0882 148.294C89.3428 147.533 89.555 146.758 89.7239 145.973C90.4885 143.135 90.4701 141.292 90.5622 141.292Z" fill="#263238"/>
<path d="M115.888 149.667C115.836 149.616 115.792 149.557 115.759 149.492L115.437 148.93C115.133 148.423 114.718 147.732 114.193 146.875C113.668 146.018 112.848 144.968 111.991 143.77C111.135 142.573 110.047 141.264 108.896 139.8C104.16 134.014 97.1679 126.413 89.1527 118.297C81.1375 110.18 73.6106 103.105 68.092 98.0284L64.3332 94.6657C63.2276 93.6892 62.2695 92.8232 61.468 92.1598L59.6254 90.6029L59.1556 90.1883C59.0949 90.1452 59.042 90.0923 58.9989 90.0317C59.0649 90.0641 59.1268 90.1043 59.1832 90.1514C59.3214 90.2528 59.4872 90.3725 59.6807 90.5292L61.5785 92.0124L64.499 94.4631C65.6322 95.4396 66.9036 96.5544 68.3039 97.7797C73.8962 102.755 81.4415 109.821 89.4936 117.928C97.5456 126.036 104.483 133.701 109.154 139.551C110.296 141.034 111.328 142.37 112.213 143.568L114.35 146.737C114.838 147.658 115.271 148.322 115.52 148.847L115.815 149.399C115.876 149.578 115.901 149.667 115.888 149.667Z" fill="#263238"/>
<path d="M137.898 171.815C137.898 171.815 152.989 165.928 154.417 165.458C155.845 164.988 169.037 163.956 169.037 163.956L186.044 170.064C186.044 170.064 186.201 173.556 182.23 173.086C178.73 172.495 175.278 171.645 171.903 170.543L169.516 171.962L137.898 171.815Z" fill="#FFBE9D"/>
<path d="M56.4341 69.5538C56.4341 69.5538 56.3136 69.7371 55.9941 69.9413C55.5304 70.2292 55.0076 70.4082 54.4648 70.4651C53.6504 70.5554 52.8281 70.3887 52.1131 69.9885C51.2428 69.4615 50.6088 68.6196 50.3426 67.6376C50.0763 66.6556 50.1983 65.6088 50.6833 64.7143C51.1018 64.0083 51.7297 63.45 52.4798 63.1169C52.9728 62.893 53.5096 62.782 54.051 62.7922C54.2509 62.7801 54.4507 62.8179 54.6324 62.9022C53.9336 62.9381 53.2478 63.1051 52.6107 63.3945C51.9512 63.7384 51.4055 64.2659 51.0395 64.9134C50.6362 65.7188 50.5436 66.6446 50.7793 67.514C51.015 68.3834 51.5625 69.1356 52.3174 69.6271C52.96 70.0053 53.6991 70.1873 54.4438 70.1509C55.1394 70.0815 55.8152 69.8788 56.4341 69.5538V69.5538Z" fill="#FF7376"/>
</g>
</svg>
