<svg width="29" height="29" viewBox="0 0 29 29" fill="none" xmlns="http://www.w3.org/2000/svg">
<path fill-rule="evenodd" clip-rule="evenodd" d="M3.77821 3.56651C4.1741 3.28939 4.71969 3.38567 4.99682 3.78156L18.8801 23.6149C19.1573 24.0108 19.061 24.5564 18.6651 24.8335C18.2692 25.1106 17.7236 25.0143 17.4465 24.6185L3.56316 4.78512C3.28604 4.38923 3.38232 3.84364 3.77821 3.56651Z" fill="#5F646F"/>
<path fill-rule="evenodd" clip-rule="evenodd" d="M4 9.24167C4.48325 9.24167 4.875 9.63342 4.875 10.1167V18.2833C4.875 19.2503 5.65808 20.0333 6.625 20.0333H15.914C16.3972 20.0333 16.789 20.4251 16.789 20.9083C16.789 21.3916 16.3972 21.7833 15.914 21.7833H6.625C4.69158 21.7833 3.125 20.2168 3.125 18.2833V10.1167C3.125 9.63342 3.51675 9.24167 4 9.24167Z" fill="#5F646F"/>
<path fill-rule="evenodd" clip-rule="evenodd" d="M5.64732 7.49167C5.64732 7.00842 6.03907 6.61667 6.52232 6.61667H15.8125C17.7459 6.61667 19.3125 8.18326 19.3125 10.1167V18.2833C19.3125 18.7666 18.9207 19.1583 18.4375 19.1583C17.9542 19.1583 17.5625 18.7666 17.5625 18.2833V10.1167C17.5625 9.14976 16.7794 8.36667 15.8125 8.36667H6.52232C6.03907 8.36667 5.64732 7.97492 5.64732 7.49167Z" fill="#5F646F"/>
<path fill-rule="evenodd" clip-rule="evenodd" d="M22.3164 8.67547C23.748 7.52251 25.875 8.54238 25.875 10.3791V18.0208C25.875 19.8577 23.7476 20.8776 22.316 19.7242L17.8889 16.1615C17.5124 15.8585 17.4528 15.3077 17.7558 14.9312C18.0588 14.5548 18.6096 14.4952 18.9861 14.7981L23.4136 18.3611C23.6993 18.5913 24.125 18.3889 24.125 18.0208V10.3791C24.125 10.0111 23.6997 9.8083 23.414 10.0385L18.9861 13.6018C18.6096 13.9048 18.0588 13.8452 17.7558 13.4687C17.4528 13.0922 17.5124 12.5414 17.8889 12.2385L22.3164 8.67547Z" fill="#5F646F"/>
</svg>
