<svg width="30" height="30" viewBox="0 0 30 30" fill="none" xmlns="http://www.w3.org/2000/svg">
<path fill-rule="evenodd" clip-rule="evenodd" d="M6.24158 9.5625C5.24013 9.5625 4.42908 10.3735 4.42908 11.375V19.8333C4.42908 20.8348 5.24013 21.6458 6.24158 21.6458H15.7572C16.7587 21.6458 17.5697 20.8348 17.5697 19.8333V11.375C17.5697 10.3735 16.7587 9.5625 15.7572 9.5625H6.24158ZM2.61658 11.375C2.61658 9.37253 4.23911 7.75 6.24158 7.75H15.7572C17.7597 7.75 19.3822 9.37253 19.3822 11.375V19.8333C19.3822 21.8358 17.7597 23.4583 15.7572 23.4583H6.24158C4.23911 23.4583 2.61658 21.8358 2.61658 19.8333V11.375Z" fill="white"/>
<path fill-rule="evenodd" clip-rule="evenodd" d="M22.4934 9.88232C23.9761 8.68819 26.1791 9.74448 26.1791 11.6468V19.5614C26.1791 21.464 23.9757 22.5203 22.493 21.3256L17.9078 17.6357C17.5179 17.3219 17.4561 16.7514 17.7699 16.3615C18.0837 15.9716 18.6542 15.9099 19.0441 16.2237L23.6297 19.9139C23.9257 20.1523 24.3666 19.9426 24.3666 19.5614V11.6468C24.3666 11.2656 23.9261 11.0556 23.6302 11.294L19.0441 14.9846C18.6542 15.2984 18.0837 15.2367 17.7699 14.8468C17.4561 14.4568 17.5179 13.8864 17.9078 13.5726L22.4934 9.88232Z" fill="white"/>
</svg>
