<svg width="26" height="26" viewBox="0 0 26 26" fill="none" xmlns="http://www.w3.org/2000/svg">
<path fill-rule="evenodd" clip-rule="evenodd" d="M16.8433 10.1886C17.1686 9.86332 17.696 9.86332 18.0214 10.1886L19.6881 11.8554C20.0134 12.1807 20.0134 12.7081 19.6881 13.0334C19.3628 13.3587 18.8353 13.3587 18.51 13.0334L17.4323 11.9557L16.3546 13.0334C16.0293 13.3587 15.5019 13.3587 15.1766 13.0334C14.8513 12.7081 14.8513 12.1807 15.1766 11.8554L16.8433 10.1886Z" fill="white"/>
<path fill-rule="evenodd" clip-rule="evenodd" d="M6.29962 12.9665C6.62494 12.6412 7.15237 12.6412 7.47768 12.9665L8.55537 14.0442L9.63306 12.9665C9.95838 12.6412 10.4858 12.6412 10.8111 12.9665C11.1364 13.2918 11.1364 13.8192 10.8111 14.1446L9.1444 15.8113C8.81909 16.1366 8.29166 16.1366 7.96634 15.8113L6.29962 14.1446C5.97431 13.8192 5.97431 13.2918 6.29962 12.9665Z" fill="white"/>
<path fill-rule="evenodd" clip-rule="evenodd" d="M10.7777 9.38838C10.0104 9.38838 9.38839 10.0104 9.38839 10.7777V15.2223C9.38839 15.6823 9.01543 16.0553 8.55537 16.0553C8.09531 16.0553 7.72236 15.6823 7.72236 15.2223V10.7777C7.72236 9.09027 9.09027 7.72236 10.7777 7.72236H14.1111C14.5712 7.72236 14.9441 8.09531 14.9441 8.55537C14.9441 9.01543 14.5712 9.38838 14.1111 9.38838H10.7777Z" fill="white"/>
<path fill-rule="evenodd" clip-rule="evenodd" d="M17.4323 9.94465C17.8924 9.94465 18.2653 10.3176 18.2653 10.7777V15.2223L18.2653 15.2247C18.2603 16.9087 16.8965 18.2725 15.2125 18.2776L15.21 18.2776H11.8888C11.4288 18.2776 11.0558 17.9046 11.0558 17.4445C11.0558 16.9845 11.4288 16.6115 11.8888 16.6115H15.2086C15.9755 16.6087 16.5964 15.9877 16.5993 15.2209V10.7777C16.5993 10.3176 16.9723 9.94465 17.4323 9.94465Z" fill="white"/>
<path fill-rule="evenodd" clip-rule="evenodd" d="M13 3.83265C7.937 3.83265 3.83265 7.93699 3.83265 13C3.83265 18.0629 7.937 22.1673 13 22.1673C18.0629 22.1673 22.1673 18.0629 22.1673 13C22.1673 7.93699 18.0629 3.83265 13 3.83265ZM2.16663 13C2.16663 7.01687 7.01687 2.16663 13 2.16663C18.983 2.16663 23.8333 7.01687 23.8333 13C23.8333 18.983 18.983 23.8333 13 23.8333C7.01687 23.8333 2.16663 18.983 2.16663 13Z" fill="white"/>
</svg>
