<svg width="128" height="128" viewBox="0 0 128 128" fill="none" xmlns="http://www.w3.org/2000/svg">
<path fill-rule="evenodd" clip-rule="evenodd" d="M49.854 87.8508C38.7497 87.8508 29.5569 96.5178 29.5569 107.932C29.5569 110.179 27.716 112 25.4452 112C23.1743 112 21.3334 110.179 21.3334 107.932C21.3334 91.904 34.3305 79.7147 49.854 79.7147H78.1461C94.3464 79.7147 106.667 92.5736 106.667 107.932C106.667 110.179 104.826 112 102.555 112C100.284 112 98.4431 110.179 98.4431 107.932C98.4431 96.9458 89.6831 87.8508 78.1461 87.8508H49.854Z" fill="#707683"/>
<path fill-rule="evenodd" clip-rule="evenodd" d="M78.0223 29.6574C70.193 22.4103 58.2999 22.4245 50.4865 29.7001C42.9628 36.7059 43.1343 48.8962 50.6647 56.8122C57.7459 64.2559 70.0672 64.0862 78.0683 56.6358C85.6881 49.5405 85.8342 37.4325 78.0223 29.6574ZM83.7551 23.6899C72.722 13.4317 55.8108 13.4367 44.7835 23.705C33.4458 34.2622 34.3838 51.7097 44.6053 62.4546C55.276 73.6716 72.911 72.7437 83.7713 62.6309C94.9933 52.1813 94.8664 34.6954 83.877 23.8068C83.8572 23.7871 83.8372 23.7675 83.8169 23.7481C83.7965 23.7284 83.7759 23.709 83.7551 23.6899Z" fill="#707683"/>
</svg>
