<svg width="29" height="29" viewBox="0 0 29 29" fill="none" xmlns="http://www.w3.org/2000/svg">
<path fill-rule="evenodd" clip-rule="evenodd" d="M15.8814 15.8822C17.2951 14.4684 18.3609 12.8855 19.069 11.2797C19.2188 10.9401 19.1306 10.5426 18.8684 10.2804L17.8788 9.29195C17.068 8.48116 17.068 7.33445 17.7761 6.62636L19.1946 5.20778C20.1383 4.26407 21.6681 4.26407 22.6118 5.20778L23.3996 5.99561C24.295 6.89099 24.6684 8.1827 24.4267 9.46353C23.8298 12.6209 21.9956 16.0779 19.0363 19.0372C16.0771 21.9964 12.6201 23.8306 9.46272 24.4275C8.18188 24.6692 6.89017 24.2958 5.9948 23.4004L5.20817 22.6138C4.26447 21.6701 4.26447 20.1404 5.20817 19.1967L6.62555 17.7793C7.33363 17.0712 8.48155 17.0712 9.18843 17.7793L10.2796 18.8716C10.5418 19.1338 10.9393 19.222 11.2788 19.0722C12.8847 18.3629 14.4676 17.2959 15.8814 15.8822Z" stroke="white" stroke-width="1.5" stroke-linecap="round" stroke-linejoin="round"/>
</svg>
