<svg width="16" height="12" viewBox="0 0 16 12" fill="none" xmlns="http://www.w3.org/2000/svg">
<path fill-rule="evenodd" clip-rule="evenodd" d="M7.25066 11.0846C7.2486 10.6674 7.58733 10.3333 7.99933 10.3333C8.41327 10.3333 8.75 10.6683 8.75 11.0833C8.75 11.4975 8.41414 11.8333 8 11.8333C7.58753 11.8333 7.25062 11.4994 7.25066 11.0846ZM7.56571 11.0824L7.25067 11.0809L7.25066 11.0846" fill="#2ED47A"/>
<path fill-rule="evenodd" clip-rule="evenodd" d="M12.6007 6.36849C10.0639 4.04184 5.93544 4.04184 3.39863 6.36849C3.19512 6.55514 2.87883 6.54148 2.69218 6.33797C2.50553 6.13446 2.5192 5.81817 2.72271 5.63152C5.6419 2.95417 10.3574 2.95417 13.2766 5.63152C13.4801 5.81817 13.4938 6.13446 13.3072 6.33797C13.1205 6.54148 12.8042 6.55514 12.6007 6.36849Z" fill="#2ED47A"/>
<path fill-rule="evenodd" clip-rule="evenodd" d="M14.6065 3.57755C10.9642 0.363044 5.03583 0.363044 1.39352 3.57755C1.18648 3.76028 0.870508 3.74057 0.687783 3.53352C0.505059 3.32648 0.524772 3.01051 0.731814 2.82779C4.75217 -0.720367 11.2478 -0.720367 15.2682 2.82779C15.4752 3.01051 15.4949 3.32648 15.3122 3.53352C15.1295 3.74057 14.8135 3.76028 14.6065 3.57755Z" fill="#2ED47A"/>
<path fill-rule="evenodd" clip-rule="evenodd" d="M10.5941 8.90183C9.16177 7.47717 6.83756 7.47717 5.40527 8.90183C5.20949 9.09657 4.89291 9.09573 4.69817 8.89995C4.50343 8.70416 4.50428 8.38758 4.70006 8.19284C6.52244 6.38017 9.4769 6.38017 11.2993 8.19284C11.4951 8.38758 11.4959 8.70416 11.3012 8.89995C11.1064 9.09573 10.7898 9.09657 10.5941 8.90183Z" fill="#2ED47A"/>
</svg>
