<svg width="19" height="19" viewBox="0 0 19 19" fill="none" xmlns="http://www.w3.org/2000/svg">
<path fill-rule="evenodd" clip-rule="evenodd" d="M12.7439 0C13.1278 0 13.439 0.311217 13.439 0.695122V4.40244C13.439 4.78634 13.1278 5.09756 12.7439 5.09756C12.36 5.09756 12.0488 4.78634 12.0488 4.40244V0.695122C12.0488 0.311217 12.36 0 12.7439 0Z" fill="#0031B2"/>
<path fill-rule="evenodd" clip-rule="evenodd" d="M5.32927 0C5.71317 0 6.02439 0.311217 6.02439 0.695122V4.40244C6.02439 4.78634 5.71317 5.09756 5.32927 5.09756C4.94536 5.09756 4.63415 4.78634 4.63415 4.40244V0.695122C4.63415 0.311217 4.94536 0 5.32927 0Z" fill="#0031B2"/>
<path fill-rule="evenodd" clip-rule="evenodd" d="M0 7.18293C0 6.79902 0.311217 6.4878 0.695122 6.4878H17.378C17.762 6.4878 18.0732 6.79902 18.0732 7.18293C18.0732 7.56683 17.762 7.87805 17.378 7.87805H0.695122C0.311217 7.87805 0 7.56683 0 7.18293Z" fill="#0031B2"/>
<path fill-rule="evenodd" clip-rule="evenodd" d="M0 4.40244C0 2.99439 1.14073 1.85366 2.54878 1.85366H15.5244C16.9324 1.85366 18.0732 2.99439 18.0732 4.40244V16.4512C18.0732 17.8593 16.9324 19 15.5244 19H2.54878C1.14073 19 0 17.8593 0 16.4512V4.40244ZM2.54878 3.2439C1.90854 3.2439 1.39024 3.7622 1.39024 4.40244V16.4512C1.39024 17.0915 1.90854 17.6098 2.54878 17.6098H15.5244C16.1646 17.6098 16.6829 17.0915 16.6829 16.4512V4.40244C16.6829 3.7622 16.1646 3.2439 15.5244 3.2439H2.54878Z" fill="#0031B2"/>
<path fill-rule="evenodd" clip-rule="evenodd" d="M3.4886 10.8733C3.48623 10.3578 3.90451 9.94396 4.4145 9.94396C4.92543 9.94396 5.34226 10.3572 5.34226 10.8708C5.34226 11.3826 4.92724 11.7976 4.41543 11.7976C3.90446 11.7976 3.48996 11.384 3.4886 10.8733Z" fill="#0031B2"/>
<path fill-rule="evenodd" clip-rule="evenodd" d="M8.12275 10.8733C8.12038 10.3578 8.53865 9.94396 9.04865 9.94396C9.55957 9.94396 9.97641 10.3572 9.97641 10.8708C9.97641 11.3826 9.56138 11.7976 9.04958 11.7976C8.53861 11.7976 8.12411 11.384 8.12275 10.8733Z" fill="#0031B2"/>
<path fill-rule="evenodd" clip-rule="evenodd" d="M12.7569 10.8733C12.7545 10.3578 13.1728 9.94396 13.6828 9.94396C14.1937 9.94396 14.6106 10.3572 14.6106 10.8708C14.6106 11.3826 14.1955 11.7976 13.6837 11.7976C13.1728 11.7976 12.7583 11.384 12.7569 10.8733Z" fill="#0031B2"/>
<path fill-rule="evenodd" clip-rule="evenodd" d="M3.4886 14.5806C3.48623 14.0651 3.90451 13.6513 4.4145 13.6513C4.92543 13.6513 5.34226 14.0645 5.34226 14.5781C5.34226 15.0899 4.92724 15.5049 4.41543 15.5049C3.90446 15.5049 3.48996 15.0913 3.4886 14.5806Z" fill="#0031B2"/>
<path fill-rule="evenodd" clip-rule="evenodd" d="M8.12275 14.5806C8.12038 14.0651 8.53865 13.6513 9.04865 13.6513C9.55957 13.6513 9.97641 14.0645 9.97641 14.5781C9.97641 15.0899 9.56138 15.5049 9.04958 15.5049C8.53861 15.5049 8.12411 15.0913 8.12275 14.5806Z" fill="#0031B2"/>
</svg>
