<svg width="20" height="20" viewBox="0 0 20 20" fill="none" xmlns="http://www.w3.org/2000/svg">
<path fill-rule="evenodd" clip-rule="evenodd" d="M7.75662 1.26993C9.07658 0.24345 10.9243 0.243193 12.2436 1.27014L18.0893 5.81703C18.0894 5.8171 18.0892 5.81695 18.0893 5.81703C18.9799 6.50916 19.5 7.57399 19.5 8.70132V15.8462C19.5 17.8643 17.8643 19.5 15.8462 19.5H4.15385C2.13574 19.5 0.5 17.8643 0.5 15.8462V8.70132C0.5 7.57399 1.01983 6.50939 1.91041 5.81725C1.91051 5.81718 1.91031 5.81733 1.91041 5.81725L7.75662 1.26993ZM8.65384 2.42365C8.65382 2.42366 8.65386 2.42363 8.65384 2.42365L2.80775 6.97088C2.27399 7.38561 1.96154 8.02428 1.96154 8.70132V15.8462C1.96154 17.0571 2.94293 18.0385 4.15385 18.0385H15.8462C17.0571 18.0385 18.0385 17.0571 18.0385 15.8462V8.70132C18.0385 8.02428 17.7263 7.38584 17.1925 6.97111L11.3461 2.4236C10.555 1.80781 9.44629 1.80743 8.65384 2.42365Z" fill="#0031B2"/>
<path fill-rule="evenodd" clip-rule="evenodd" d="M11.5497 9.91158C10.6943 9.05544 9.30587 9.05512 8.44918 9.9118C7.59261 10.7684 7.59261 12.1559 8.44918 13.0125C9.30574 13.8691 10.6934 13.8691 11.5499 13.0125C12.4065 12.1559 12.4065 10.7684 11.5499 9.9118C11.5498 9.91172 11.5498 9.91165 11.5497 9.91158ZM12.5832 8.87814C11.1566 7.45084 8.84278 7.4513 7.41571 8.87835C5.98838 10.3057 5.98838 12.6186 7.41571 14.0459C8.84305 15.4733 11.1561 15.4733 12.5834 14.0459C14.0107 12.6186 14.0107 10.3057 12.5834 8.87835C12.5833 8.87828 12.5832 8.87821 12.5832 8.87814Z" fill="#0031B2"/>
</svg>
