<svg width="24" height="24" viewBox="0 0 24 24" fill="none" xmlns="http://www.w3.org/2000/svg">
<path fill-rule="evenodd" clip-rule="evenodd" d="M2.24625 2.99625C2.24625 2.58203 2.58204 2.24625 2.99625 2.24625H6.99792C7.41213 2.24625 7.74792 2.58203 7.74792 2.99625C7.74792 3.41046 7.41213 3.74625 6.99792 3.74625H3.74625V6.99791C3.74625 7.41213 3.41047 7.74791 2.99625 7.74791C2.58204 7.74791 2.24625 7.41213 2.24625 6.99791V2.99625ZM10.2496 4.99624C10.2496 3.47746 11.4808 2.24625 12.9996 2.24625H19.0038C20.5225 2.24625 21.7538 3.47747 21.7538 4.99625V11.0004C21.7538 12.5192 20.5225 13.7504 19.0038 13.7504H12.9996C11.4808 13.7504 10.2496 12.5192 10.2496 11.0004V4.99624ZM12.9996 3.74625C12.3092 3.74625 11.7496 4.30589 11.7496 4.99624V11.0004C11.7496 11.6908 12.3092 12.2504 12.9996 12.2504H19.0038C19.6941 12.2504 20.2538 11.6908 20.2538 11.0004V4.99625C20.2538 4.30589 19.6941 3.74625 19.0038 3.74625H12.9996ZM8.52867 15.4713C8.82156 15.7642 8.82156 16.2391 8.52867 16.532L4.80691 20.2537H6.99792C7.41213 20.2537 7.74792 20.5895 7.74792 21.0037C7.74792 21.418 7.41213 21.7537 6.99792 21.7537H2.99625C2.58204 21.7537 2.24625 21.418 2.24625 21.0037V17.0021C2.24625 16.5879 2.58204 16.2521 2.99625 16.2521C3.41047 16.2521 3.74625 16.5879 3.74625 17.0021V19.1931L7.46801 15.4713C7.7609 15.1784 8.23577 15.1784 8.52867 15.4713ZM21.0038 16.2521C21.418 16.2521 21.7538 16.5879 21.7538 17.0021V21.0037C21.7538 21.418 21.418 21.7537 21.0038 21.7537H17.0021C16.5879 21.7537 16.2521 21.418 16.2521 21.0037C16.2521 20.5895 16.5879 20.2537 17.0021 20.2537H20.2538V17.0021C20.2538 16.5879 20.5895 16.2521 21.0038 16.2521Z" fill="white"/>
</svg>
