<svg width="24" height="24" viewBox="0 0 24 24" fill="none" xmlns="http://www.w3.org/2000/svg">
<path fill-rule="evenodd" clip-rule="evenodd" d="M2.24628 6.99831C2.24628 6.5841 2.58206 6.24831 2.99628 6.24831H21.0038C21.418 6.24831 21.7538 6.5841 21.7538 6.99831C21.7538 7.41253 21.418 7.74831 21.0038 7.74831H2.99628C2.58206 7.74831 2.24628 7.41253 2.24628 6.99831Z" fill="#90A0B7"/>
<path fill-rule="evenodd" clip-rule="evenodd" d="M6.24794 11C6.24794 10.5858 6.58373 10.25 6.99794 10.25H9.49899C9.9132 10.25 10.249 10.5858 10.249 11C10.249 11.4142 9.9132 11.75 9.49899 11.75H6.99794C6.58373 11.75 6.24794 11.4142 6.24794 11Z" fill="#90A0B7"/>
<path fill-rule="evenodd" clip-rule="evenodd" d="M6.25003 14.5C6.25003 14.0858 6.58581 13.75 7.00003 13.75H12C12.4142 13.75 12.75 14.0858 12.75 14.5C12.75 14.9142 12.4142 15.25 12 15.25H7.00003C6.58581 15.25 6.25003 14.9142 6.25003 14.5Z" fill="#90A0B7"/>
<path fill-rule="evenodd" clip-rule="evenodd" d="M5.99753 4.74664C4.7542 4.74664 3.74628 5.75456 3.74628 6.99789V15.0012C3.74628 16.2446 4.7542 17.2525 5.99753 17.2525H9.99919C10.4134 17.2525 10.7492 17.5883 10.7492 18.0025C10.7492 18.4167 10.4134 18.7525 9.99919 18.7525H5.99753C3.92577 18.7525 2.24628 17.073 2.24628 15.0012L2.24628 6.99831C2.24628 4.92655 3.92577 3.24664 5.99753 3.24664H18.0025C20.0743 3.24664 21.7538 4.92655 21.7538 6.99831V10.9996C21.7538 11.4138 21.418 11.7496 21.0038 11.7496C20.5896 11.7496 20.2538 11.4138 20.2538 10.9996V6.99789C20.2538 5.75456 19.2459 4.74664 18.0025 4.74664H5.99753Z" fill="#90A0B7"/>
<path fill-rule="evenodd" clip-rule="evenodd" d="M15.0928 16.2527L15.0949 16.2527L18.4104 16.2527C19.9786 16.2572 21.2487 17.5273 21.2532 19.0954L21.2532 19.0976L21.2532 19.5037C21.2532 20.1942 20.6934 20.7539 20.0029 20.7539H13.5002C12.8098 20.7539 12.25 20.1942 12.25 19.5037V19.0954C12.2545 17.5273 13.5246 16.2572 15.0928 16.2527ZM15.0961 17.7527C14.3538 17.7553 13.7527 18.3565 13.75 19.0988V19.2539H19.7532V19.0988C19.7506 18.3565 19.1494 17.7553 18.4071 17.7527H15.0961Z" fill="#90A0B7"/>
<path fill-rule="evenodd" clip-rule="evenodd" d="M14.0007 12.4898C14.0068 10.972 15.2411 9.74595 16.7589 9.74999C18.2767 9.75404 19.5044 10.9867 19.5024 12.5045C19.5004 14.0223 18.2694 15.2516 16.7516 15.2516C16.0201 15.2516 15.3188 14.9603 14.8026 14.4421C14.2864 13.9238 13.9978 13.2213 14.0007 12.4898ZM16.7516 13.7516C17.4417 13.7516 18.0015 13.1926 18.0024 12.5025C18.0033 11.8123 17.4451 11.2518 16.7549 11.25C16.0648 11.2481 15.5035 11.8056 15.5007 12.4958M16.7516 13.7516C16.419 13.7516 16.1001 13.6192 15.8653 13.3835C15.6306 13.1479 15.4994 12.8284 15.5007 12.4958" fill="#90A0B7"/>
</svg>
