<svg width="23" height="23" viewBox="0 0 23 23" fill="none" xmlns="http://www.w3.org/2000/svg">
<path fill-rule="evenodd" clip-rule="evenodd" d="M4.79167 3.59375C4.12966 3.59375 3.59375 4.12966 3.59375 4.79167V14.375C3.59375 15.037 4.12966 15.5729 4.79167 15.5729H7.66667C7.87637 15.5729 8.0651 15.6627 8.19649 15.806L11.4995 19.1082L14.8252 15.7834C14.96 15.6486 15.1427 15.5729 15.3333 15.5729H18.2083C18.8703 15.5729 19.4062 15.037 19.4062 14.375V4.79167C19.4062 4.12966 18.8703 3.59375 18.2083 3.59375H4.79167ZM12.03 20.6105C12.0229 20.6182 12.0157 20.6257 12.0083 20.6332C11.7276 20.9139 11.2726 20.914 10.9918 20.6333L7.36804 17.0104H4.79167C3.33575 17.0104 2.15625 15.8309 2.15625 14.375V4.79167C2.15625 3.33575 3.33575 2.15625 4.79167 2.15625H18.2083C19.6642 2.15625 20.8437 3.33575 20.8437 4.79167V14.375C20.8437 15.8309 19.6642 17.0104 18.2083 17.0104H15.631L12.03 20.6105Z" fill="#3CB4E7"/>
<path fill-rule="evenodd" clip-rule="evenodd" d="M6.94792 11.5C6.94792 11.103 7.26971 10.7812 7.66667 10.7812H15.3333C15.7303 10.7812 16.0521 11.103 16.0521 11.5C16.0521 11.897 15.7303 12.2187 15.3333 12.2187H7.66667C7.26971 12.2187 6.94792 11.897 6.94792 11.5Z" fill="#3CB4E7"/>
<path fill-rule="evenodd" clip-rule="evenodd" d="M6.94792 7.66667C6.94792 7.26971 7.26971 6.94792 7.66667 6.94792H15.3333C15.7303 6.94792 16.0521 7.26971 16.0521 7.66667C16.0521 8.06362 15.7303 8.38542 15.3333 8.38542H7.66667C7.26971 8.38542 6.94792 8.06362 6.94792 7.66667Z" fill="#3CB4E7"/>
</svg>
