<svg width="24" height="24" viewBox="0 0 24 24" fill="none" xmlns="http://www.w3.org/2000/svg">
<path fill-rule="evenodd" clip-rule="evenodd" d="M6.83871 10.7179C6.12564 10.7179 5.54839 11.2915 5.54839 12V19.1795C5.54839 19.888 6.12564 20.4615 6.83871 20.4615H17.1613C17.8744 20.4615 18.4516 19.888 18.4516 19.1795V12C18.4516 11.2915 17.8744 10.7179 17.1613 10.7179H6.83871ZM4 12C4 10.4418 5.27049 9.17947 6.83871 9.17947H17.1613C18.7295 9.17947 20 10.4418 20 12V19.1795C20 20.7376 18.7295 22 17.1613 22H6.83871C5.27049 22 4 20.7376 4 19.1795V12Z" fill="#90A0B7"/>
<path fill-rule="evenodd" clip-rule="evenodd" d="M12 3.53846C10.1473 3.53846 8.64519 5.03099 8.64519 6.8718V9.94872C8.64519 10.3736 8.29857 10.7179 7.871 10.7179C7.44342 10.7179 7.0968 10.3736 7.0968 9.94872V6.8718C7.0968 4.18132 9.29219 2 12 2C14.7079 2 16.9033 4.18132 16.9033 6.8718V9.94872C16.9033 10.3736 16.5566 10.7179 16.1291 10.7179C15.7015 10.7179 15.3549 10.3736 15.3549 9.94872V6.8718C15.3549 5.03099 13.8527 3.53846 12 3.53846Z" fill="#90A0B7"/>
</svg>
