<svg width="24" height="24" viewBox="0 0 24 24" fill="none" xmlns="http://www.w3.org/2000/svg">
<path fill-rule="evenodd" clip-rule="evenodd" d="M4.25 5C4.25 3.48079 5.48079 2.25 7 2.25H14.172C14.9011 2.25 15.6008 2.54018 16.1163 3.05567L18.9443 5.88367C19.4598 6.39916 19.75 7.09886 19.75 7.828V19C19.75 20.5192 18.5192 21.75 17 21.75H7C5.48079 21.75 4.25 20.5192 4.25 19V5ZM7 3.75C6.30921 3.75 5.75 4.30921 5.75 5V19C5.75 19.6908 6.30921 20.25 7 20.25H17C17.6908 20.25 18.25 19.6908 18.25 19V7.828C18.25 7.49714 18.1182 7.17884 17.8837 6.94433L15.0557 4.11633C14.8212 3.88182 14.5029 3.75 14.172 3.75H7Z"/>
<path fill-rule="evenodd" clip-rule="evenodd" d="M14 2.25C14.4142 2.25 14.75 2.58579 14.75 3V7C14.75 7.13779 14.8622 7.25 15 7.25H19C19.4142 7.25 19.75 7.58579 19.75 8C19.75 8.41421 19.4142 8.75 19 8.75H15C14.0338 8.75 13.25 7.96621 13.25 7V3C13.25 2.58579 13.5858 2.25 14 2.25Z"/>
<path fill-rule="evenodd" clip-rule="evenodd" d="M7.96104 16.432C8.1215 16.2716 8.32306 16.211 8.495 16.211C8.66694 16.211 8.8685 16.2716 9.02895 16.432C9.1235 16.5266 9.18337 16.6354 9.21661 16.744C9.23831 16.8142 9.25 16.8887 9.25 16.966C9.25 17.0433 9.23831 17.1178 9.21661 17.188C9.18337 17.2966 9.1235 17.4054 9.02895 17.5C8.8685 17.6604 8.66694 17.721 8.495 17.721C8.32306 17.721 8.1215 17.6604 7.96104 17.5C7.80059 17.3395 7.74 17.1379 7.74 16.966C7.74 16.7941 7.80059 16.5925 7.96104 16.432Z"/>
<path fill-rule="evenodd" clip-rule="evenodd" d="M7.25 10.995C7.25 10.5808 7.58579 10.245 8 10.245H16C16.4142 10.245 16.75 10.5808 16.75 10.995C16.75 11.4092 16.4142 11.745 16 11.745H8C7.58579 11.745 7.25 11.4092 7.25 10.995Z"/>
<path fill-rule="evenodd" clip-rule="evenodd" d="M7.25 13.995C7.25 13.5808 7.58579 13.245 8 13.245H16C16.4142 13.245 16.75 13.5808 16.75 13.995C16.75 14.4092 16.4142 14.745 16 14.745H8C7.58579 14.745 7.25 14.4092 7.25 13.995Z"/>
<path fill-rule="evenodd" clip-rule="evenodd" d="M14.961 16.466C15.1215 16.3056 15.3231 16.245 15.495 16.245C15.6669 16.245 15.8685 16.3056 16.029 16.466C16.1235 16.5606 16.1834 16.6694 16.2166 16.778C16.2383 16.8482 16.25 16.9227 16.25 17C16.25 17.0773 16.2383 17.1518 16.2166 17.222C16.1834 17.3306 16.1235 17.4394 16.029 17.534C15.8685 17.6944 15.6669 17.755 15.495 17.755C15.3231 17.755 15.1215 17.6944 14.961 17.534C14.8006 17.3735 14.74 17.1719 14.74 17C14.74 16.8281 14.8006 16.6265 14.961 16.466Z"/>
<path fill-rule="evenodd" clip-rule="evenodd" d="M11.466 16.456C11.6265 16.2956 11.8281 16.235 12 16.235C12.1719 16.235 12.3735 16.2956 12.534 16.456C12.6285 16.5506 12.6884 16.6594 12.7216 16.768C12.7433 16.8382 12.755 16.9127 12.755 16.99C12.755 17.0673 12.7433 17.1418 12.7216 17.212C12.6884 17.3206 12.6285 17.4294 12.534 17.524C12.3735 17.6844 12.1719 17.745 12 17.745C11.8281 17.745 11.6265 17.6844 11.466 17.524C11.3056 17.3635 11.245 17.1619 11.245 16.99C11.245 16.8181 11.3056 16.6165 11.466 16.456Z"/>
</svg>
