<svg width="24" height="24" viewBox="0 0 24 24" fill="none" xmlns="http://www.w3.org/2000/svg">
<path fill-rule="evenodd" clip-rule="evenodd" d="M6.8718 14.871C5.03099 14.871 3.53846 16.3731 3.53846 18.2258C3.53846 18.6534 3.19407 19 2.76923 19C2.3444 19 2 18.6534 2 18.2258C2 15.518 4.18132 13.3226 6.8718 13.3226H10.9744C13.6648 13.3226 15.8462 15.518 15.8462 18.2258C15.8462 18.6534 15.5018 19 15.0769 19C14.6521 19 14.3077 18.6534 14.3077 18.2258C14.3077 16.3731 12.8152 14.871 10.9744 14.871H6.8718Z" fill="#90A0B7"/>
<path fill-rule="evenodd" clip-rule="evenodd" d="M15.3333 4.44619C15.3333 4.01862 15.6777 3.672 16.1025 3.672C17.9438 3.672 19.4359 5.17371 19.4359 7.02684C19.4359 8.87996 17.9438 10.3817 16.1025 10.3817C15.6777 10.3817 15.3333 10.0351 15.3333 9.60748C15.3333 9.17991 15.6777 8.83329 16.1025 8.83329C17.0941 8.83329 17.8974 8.02481 17.8974 7.02684C17.8974 6.02886 17.0941 5.22038 16.1025 5.22038C15.6777 5.22038 15.3333 4.87377 15.3333 4.44619Z" fill="#90A0B7"/>
<path fill-rule="evenodd" clip-rule="evenodd" d="M10.8457 5.34989C9.78393 4.28122 8.06236 4.28122 7.00054 5.34989C5.93872 6.41857 5.93872 8.15124 7.00054 9.21991C8.06236 10.2886 9.78393 10.2886 10.8457 9.21991C11.9076 8.15124 11.9076 6.41857 10.8457 5.34989ZM11.9336 4.25502C10.271 2.58166 7.57531 2.58166 5.91268 4.25502C4.25005 5.92837 4.25005 8.64143 5.91268 10.3148C7.57531 11.9881 10.271 11.9881 11.9336 10.3148C13.5962 8.64143 13.5962 5.92837 11.9336 4.25502Z" fill="#90A0B7"/>
<path fill-rule="evenodd" clip-rule="evenodd" d="M16.3589 13.0645C16.3589 12.6369 16.7033 12.2903 17.1282 12.2903C19.8187 12.2903 22 14.4857 22 17.1935C22 17.6211 21.6556 17.9677 21.2307 17.9677C20.8059 17.9677 20.4615 17.6211 20.4615 17.1935C20.4615 15.3409 18.969 13.8387 17.1282 13.8387C16.7033 13.8387 16.3589 13.4921 16.3589 13.0645Z" fill="#90A0B7"/>
</svg>
