<svg xmlns="http://www.w3.org/2000/svg" id="Grupo_27095" width="16.668" height="16.666" viewBox="0 0 16.668 16.666">
    <defs>
        <style>
            .cls-1{fill:#0d5147;fill-rule:evenodd}
        </style>
    </defs>
    <g id="icon_copy">
        <path id="Caminho_3865" d="M5.086 7.435a2.35 2.35 0 0 1 2.35-2.35h8.549a2.35 2.35 0 0 1 2.35 2.35v8.549a2.349 2.349 0 0 1-2.35 2.349h-8.55a2.35 2.35 0 0 1-2.35-2.349zm2.35-1.068a1.068 1.068 0 0 0-1.069 1.068v8.549a1.068 1.068 0 0 0 1.068 1.068h8.549a1.068 1.068 0 0 0 1.068-1.068V7.435a1.068 1.068 0 0 0-1.068-1.068z" class="cls-1" transform="translate(-1.667 -1.667)"/>
        <path id="Caminho_3866" d="M4.017 2.948a1.069 1.069 0 0 0-1.068 1.069v8.547a1.069 1.069 0 0 0 1.069 1.069h1.709a.641.641 0 1 1 0 1.281h-1.71a2.35 2.35 0 0 1-2.35-2.35V4.017a2.35 2.35 0 0 1 2.35-2.35h8.547a2.35 2.35 0 0 1 2.35 2.35v1.709a.641.641 0 1 1-1.281 0V4.017a1.069 1.069 0 0 0-1.069-1.069z" class="cls-1" transform="translate(-1.667 -1.667)"/>
    </g>
</svg>
