<svg width="20" height="21" viewBox="0 0 20 21" fill="none" xmlns="http://www.w3.org/2000/svg">
<path fill-rule="evenodd" clip-rule="evenodd" d="M13.75 0C14.1642 0 14.5 0.335786 14.5 0.75V4.75C14.5 5.16421 14.1642 5.5 13.75 5.5C13.3358 5.5 13 5.16421 13 4.75V0.75C13 0.335786 13.3358 0 13.75 0Z" fill="#90A0B7"/>
<path fill-rule="evenodd" clip-rule="evenodd" d="M5.75 0C6.16421 0 6.5 0.335786 6.5 0.75V4.75C6.5 5.16421 6.16421 5.5 5.75 5.5C5.33579 5.5 5 5.16421 5 4.75V0.75C5 0.335786 5.33579 0 5.75 0Z" fill="#90A0B7"/>
<path fill-rule="evenodd" clip-rule="evenodd" d="M0 7.75C0 7.33579 0.335786 7 0.75 7H18.75C19.1642 7 19.5 7.33579 19.5 7.75C19.5 8.16421 19.1642 8.5 18.75 8.5H0.75C0.335786 8.5 0 8.16421 0 7.75Z" fill="#90A0B7"/>
<path fill-rule="evenodd" clip-rule="evenodd" d="M0 4.75C0 3.23079 1.23079 2 2.75 2H16.75C18.2692 2 19.5 3.23079 19.5 4.75V17.75C19.5 19.2692 18.2692 20.5 16.75 20.5H2.75C1.23079 20.5 0 19.2692 0 17.75V4.75ZM2.75 3.5C2.05921 3.5 1.5 4.05921 1.5 4.75V17.75C1.5 18.4408 2.05921 19 2.75 19H16.75C17.4408 19 18 18.4408 18 17.75V4.75C18 4.05921 17.4408 3.5 16.75 3.5H2.75Z" fill="#90A0B7"/>
<path fill-rule="evenodd" clip-rule="evenodd" d="M3.76402 11.7317C3.76146 11.1755 4.21276 10.729 4.76301 10.729C5.31428 10.729 5.76401 11.1748 5.76401 11.729C5.76401 12.2812 5.31623 12.729 4.76401 12.729C4.21271 12.729 3.76548 12.2827 3.76402 11.7317Z" fill="#90A0B7"/>
<path fill-rule="evenodd" clip-rule="evenodd" d="M8.76402 11.7317C8.76146 11.1755 9.21276 10.729 9.76301 10.729C10.3143 10.729 10.764 11.1748 10.764 11.729C10.764 12.2812 10.3162 12.729 9.76402 12.729C9.21271 12.729 8.76548 12.2827 8.76402 11.7317Z" fill="#90A0B7"/>
<path fill-rule="evenodd" clip-rule="evenodd" d="M13.764 11.7317C13.7615 11.1755 14.2128 10.729 14.763 10.729C15.3143 10.729 15.764 11.1748 15.764 11.729C15.764 12.2812 15.3162 12.729 14.764 12.729C14.2127 12.729 13.7655 12.2827 13.764 11.7317Z" fill="#90A0B7"/>
<path fill-rule="evenodd" clip-rule="evenodd" d="M3.76402 15.7317C3.76146 15.1755 4.21276 14.729 4.76301 14.729C5.31428 14.729 5.76401 15.1748 5.76401 15.729C5.76401 16.2812 5.31623 16.729 4.76401 16.729C4.21271 16.729 3.76548 16.2827 3.76402 15.7317Z" fill="#90A0B7"/>
<path fill-rule="evenodd" clip-rule="evenodd" d="M8.76402 15.7317C8.76146 15.1755 9.21276 14.729 9.76301 14.729C10.3143 14.729 10.764 15.1748 10.764 15.729C10.764 16.2812 10.3162 16.729 9.76402 16.729C9.21271 16.729 8.76548 16.2827 8.76402 15.7317Z" fill="#90A0B7"/>
</svg>
