<svg width="20" height="20" viewBox="0 0 20 20" fill="none" xmlns="http://www.w3.org/2000/svg">
<path fill-rule="evenodd" clip-rule="evenodd" d="M10 1.53787C5.32649 1.53787 1.53787 5.32649 1.53787 10C1.53787 14.6735 5.32649 18.4621 10 18.4621C14.6735 18.4621 18.4621 14.6735 18.4621 10C18.4621 5.32649 14.6735 1.53787 10 1.53787ZM0 10C0 4.47715 4.47715 0 10 0C15.5228 0 20 4.47715 20 10C20 15.5228 15.5228 20 10 20C4.47715 20 0 15.5228 0 10Z" fill="#0031B2"/>
<path fill-rule="evenodd" clip-rule="evenodd" d="M11.4357 7.97121C11.3745 7.2037 10.7116 6.62237 9.93974 6.66513C9.91496 6.6665 9.89013 6.66667 9.86534 6.66564C9.16046 6.63639 8.53453 7.11288 8.37508 7.80011C8.27909 8.21379 7.86593 8.47134 7.45225 8.37535C7.03857 8.27937 6.78102 7.8662 6.877 7.45252C7.20076 6.05715 8.46352 5.08599 9.89191 5.12778C11.5002 5.0586 12.8721 6.28976 12.9724 7.90093C12.9734 7.91684 12.9739 7.93278 12.9739 7.94872C12.9739 9.12346 12.1177 9.8466 11.5875 10.2777C11.5176 10.3345 11.4527 10.3866 11.3922 10.4351C11.1829 10.603 11.0263 10.7287 10.8999 10.8608C10.8004 10.9647 10.7744 11.0189 10.7687 11.0346C10.7639 11.4552 10.4215 11.7947 9.99979 11.7947C9.57512 11.7947 9.23085 11.4504 9.23085 11.0257C9.23085 10.4739 9.53175 10.0662 9.7888 9.79754C9.99268 9.58448 10.2546 9.37508 10.4743 9.1994C10.5246 9.15919 10.5726 9.12074 10.6173 9.08442C11.178 8.62855 11.4258 8.32894 11.4357 7.97121ZM10.7672 11.0395C10.7672 11.0395 10.7673 11.0386 10.7679 11.0369C10.7676 11.0386 10.7673 11.0395 10.7672 11.0395Z" fill="#0031B2"/>
<path fill-rule="evenodd" clip-rule="evenodd" d="M10.6042 13.2423C10.4634 13.0638 10.2452 12.9492 10.0002 12.9492C9.50469 12.9492 9.10303 13.3509 9.10303 13.8464C9.10303 14.3418 9.50469 14.7435 10.0002 14.7435C10.4957 14.7435 10.8973 14.3418 10.8973 13.8464C10.8973 13.6014 10.7827 13.3831 10.6042 13.2423Z" fill="#0031B2"/>
<path fill-rule="evenodd" clip-rule="evenodd" d="M9.23096 13.7182C9.23096 13.2935 9.57522 12.9492 9.99989 12.9492C10.4954 12.9492 10.897 13.3509 10.897 13.8464C10.897 14.271 10.5528 14.6153 10.1281 14.6153C9.8831 14.6153 9.66486 14.5007 9.52405 14.3222C9.34554 14.1814 9.23096 13.9632 9.23096 13.7182Z" fill="#0031B2"/>
</svg>
