<svg width="24" height="24" viewBox="0 0 24 24" fill="none" xmlns="http://www.w3.org/2000/svg">
<path fill-rule="evenodd" clip-rule="evenodd" d="M9.34762 16.472C7.26556 16.472 5.54192 18.0971 5.54192 20.2373C5.54192 20.6585 5.19675 21 4.77096 21C4.34517 21 4 20.6585 4 20.2373C4 17.232 6.43696 14.9465 9.34762 14.9465H14.6524C17.6899 14.9465 20 17.3576 20 20.2373C20 20.6585 19.6548 21 19.229 21C18.8033 21 18.4581 20.6585 18.4581 20.2373C18.4581 18.1773 16.8156 16.472 14.6524 16.472H9.34762Z" fill="#90A0B7"/>
<path fill-rule="evenodd" clip-rule="evenodd" d="M14.6292 5.56075C13.1612 4.20193 10.9312 4.2046 9.46621 5.56876C8.05551 6.88236 8.08767 9.16803 9.49962 10.6523C10.8273 12.048 13.1376 12.0162 14.6378 10.6192C16.0665 9.28885 16.0939 7.01859 14.6292 5.56075ZM15.7041 4.44186C13.6354 2.51844 10.4645 2.51938 8.39689 4.44469C6.27108 6.42417 6.44694 9.69557 8.36347 11.7102C10.3642 13.8134 13.6708 13.6394 15.7071 11.7433C17.8112 9.784 17.7874 6.50538 15.7269 4.46378C15.7232 4.46008 15.7195 4.45641 15.7157 4.45276C15.7118 4.44908 15.708 4.44544 15.7041 4.44186Z" fill="#90A0B7"/>
</svg>
