<svg width="24" height="24" viewBox="0 0 24 24" fill="none" xmlns="http://www.w3.org/2000/svg">
<path fill-rule="evenodd" clip-rule="evenodd" d="M15.4465 8.55355C15.7469 8.85395 15.7469 9.341 15.4465 9.64141L9.64141 15.4465C9.341 15.7469 8.85395 15.7469 8.55355 15.4465C8.25315 15.1461 8.25315 14.6591 8.55355 14.3587L14.3587 8.55355C14.6591 8.25315 15.1461 8.25315 15.4465 8.55355Z" fill="#90A0B7"/>
<path fill-rule="evenodd" clip-rule="evenodd" d="M8.55355 8.55355C8.85395 8.25315 9.341 8.25315 9.64141 8.55355L15.4465 14.3587C15.7469 14.6591 15.7469 15.1461 15.4465 15.4465C15.1461 15.7469 14.6591 15.7469 14.3587 15.4465L8.55355 9.64141C8.25315 9.341 8.25315 8.85395 8.55355 8.55355Z" fill="#90A0B7"/>
<path fill-rule="evenodd" clip-rule="evenodd" d="M12 3.53846C7.32637 3.53846 3.53846 7.32637 3.53846 12C3.53846 16.6736 7.32637 20.4615 12 20.4615C16.6736 20.4615 20.4615 16.6736 20.4615 12C20.4615 7.32637 16.6736 3.53846 12 3.53846ZM2 12C2 6.4767 6.4767 2 12 2C17.5233 2 22 6.4767 22 12C22 17.5233 17.5233 22 12 22C6.4767 22 2 17.5233 2 12Z" fill="#90A0B7"/>
</svg>
