<svg width="20" height="20" viewBox="0 0 20 20" fill="none" xmlns="http://www.w3.org/2000/svg">
<path fill-rule="evenodd" clip-rule="evenodd" d="M8.61328 10.6177C8.61328 10.193 8.95755 9.84879 9.38222 9.84879H14.1516C14.5763 9.84879 14.9205 10.193 14.9205 10.6177C14.9205 11.0424 14.5763 11.3867 14.1516 11.3867H9.38222C8.95755 11.3867 8.61328 11.0424 8.61328 10.6177Z" fill="#0031B2"/>
<path fill-rule="evenodd" clip-rule="evenodd" d="M10 1.53787C5.32649 1.53787 1.53787 5.32649 1.53787 10C1.53787 14.6735 5.32649 18.4621 10 18.4621C14.6735 18.4621 18.4621 14.6735 18.4621 10C18.4621 5.32649 14.6735 1.53787 10 1.53787ZM0 10C0 4.47715 4.47715 0 10 0C15.5228 0 20 4.47715 20 10C20 15.5228 15.5228 20 10 20C4.47715 20 0 15.5228 0 10Z" fill="#0031B2"/>
<path fill-rule="evenodd" clip-rule="evenodd" d="M9.38222 4.10268C9.80689 4.10268 10.1512 4.44694 10.1512 4.87161V10.6177C10.1512 11.0424 9.80689 11.3866 9.38222 11.3866C8.95755 11.3866 8.61328 11.0424 8.61328 10.6177V4.87161C8.61328 4.44694 8.95755 4.10268 9.38222 4.10268Z" fill="#0031B2"/>
</svg>
