<svg width="24" height="24" viewBox="0 0 24 24" fill="none" xmlns="http://www.w3.org/2000/svg">
<path fill-rule="evenodd" clip-rule="evenodd" d="M5.29167 3.7937C4.62966 3.7937 4.09375 4.32961 4.09375 4.99162V14.575C4.09375 15.237 4.62966 15.7729 5.29167 15.7729H8.16667C8.37637 15.7729 8.5651 15.8627 8.69649 16.0059L11.9995 19.3081L15.3252 15.9833C15.46 15.8486 15.6427 15.7729 15.8333 15.7729H18.7083C19.3703 15.7729 19.9062 15.237 19.9062 14.575V4.99162C19.9062 4.32961 19.3703 3.7937 18.7083 3.7937H5.29167ZM12.53 20.8105C12.5229 20.8182 12.5157 20.8257 12.5083 20.8331C12.2276 21.1138 11.7726 21.1139 11.4918 20.8332L7.86804 17.2104H5.29167C3.83575 17.2104 2.65625 16.0309 2.65625 14.575V4.99162C2.65625 3.5357 3.83575 2.3562 5.29167 2.3562H18.7083C20.1642 2.3562 21.3438 3.5357 21.3438 4.99162V14.575C21.3438 16.0309 20.1642 17.2104 18.7083 17.2104H16.131L12.53 20.8105Z" fill="white"/>
<path fill-rule="evenodd" clip-rule="evenodd" d="M7.44792 11.7C7.44792 11.303 7.76971 10.9812 8.16667 10.9812H15.8333C16.2303 10.9812 16.5521 11.303 16.5521 11.7C16.5521 12.0969 16.2303 12.4187 15.8333 12.4187H8.16667C7.76971 12.4187 7.44792 12.0969 7.44792 11.7Z" fill="white"/>
<path fill-rule="evenodd" clip-rule="evenodd" d="M7.44792 7.86662C7.44792 7.46966 7.76971 7.14787 8.16667 7.14787H15.8333C16.2303 7.14787 16.5521 7.46966 16.5521 7.86662C16.5521 8.26357 16.2303 8.58537 15.8333 8.58537H8.16667C7.76971 8.58537 7.44792 8.26357 7.44792 7.86662Z" fill="white"/>
</svg>
