<svg width="26" height="25" viewBox="0 0 26 25" fill="none" xmlns="http://www.w3.org/2000/svg">
<path fill-rule="evenodd" clip-rule="evenodd" d="M9.35362 11.7187C9.78509 11.7187 10.1349 12.0685 10.1349 12.5C10.1349 14.0829 11.4181 15.3661 13.001 15.3661C13.4324 15.3661 13.7822 15.7159 13.7822 16.1473C13.7822 16.5788 13.4324 16.9286 13.001 16.9286C10.5551 16.9286 8.57237 14.9458 8.57237 12.5C8.57237 12.0685 8.92215 11.7187 9.35362 11.7187Z" fill="#5F646F"/>
<path fill-rule="evenodd" clip-rule="evenodd" d="M9.35362 9.11436C9.78509 9.11436 10.1349 9.46414 10.1349 9.89561C10.1349 10.3271 9.78509 10.6769 9.35362 10.6769C8.92215 10.6769 8.57237 10.3272 8.57237 9.89568C8.57237 9.46421 8.92215 9.11436 9.35362 9.11436Z" fill="#5F646F"/>
<path fill-rule="evenodd" clip-rule="evenodd" d="M9.35362 8.07233C9.78509 8.07233 10.1349 8.42211 10.1349 8.85358L10.1349 12.5C10.1349 12.9314 9.78509 13.2812 9.35362 13.2812C8.92215 13.2812 8.57237 12.9314 8.57237 12.5L8.57237 8.85358C8.57237 8.42211 8.92215 8.07233 9.35362 8.07233Z" fill="#5F646F"/>
<path fill-rule="evenodd" clip-rule="evenodd" d="M5.1852 11.1977C5.61667 11.1982 5.96603 11.5484 5.9655 11.9799C5.96212 14.7647 7.60406 17.2886 10.1513 18.4141C12.6986 19.5396 15.6702 19.0542 17.7269 17.1766C18.0456 16.8857 18.5397 16.9082 18.8306 17.2269C19.1215 17.5455 19.099 18.0397 18.7804 18.3306C16.2662 20.6258 12.6337 21.2192 9.51984 19.8433C6.40601 18.4675 4.39887 15.3822 4.403 11.978C4.40353 11.5465 4.75373 11.1972 5.1852 11.1977Z" fill="#5F646F"/>
<path fill-rule="evenodd" clip-rule="evenodd" d="M13 19.0134C13.4315 19.0134 13.7813 19.3632 13.7813 19.7947V21.8789C13.7813 22.3104 13.4315 22.6601 13 22.6601C12.5685 22.6601 12.2188 22.3104 12.2188 21.8789V19.7947C12.2188 19.3632 12.5685 19.0134 13 19.0134Z" fill="#5F646F"/>
<path fill-rule="evenodd" clip-rule="evenodd" d="M4.11078 3.61074C4.41588 3.30565 4.91054 3.30565 5.21564 3.61074L21.8892 20.2844C22.1943 20.5895 22.1943 21.0841 21.8892 21.3892C21.5841 21.6943 21.0895 21.6943 20.7844 21.3892L4.11078 4.7156C3.80568 4.4105 3.80568 3.91584 4.11078 3.61074Z" fill="#5F646F"/>
<path fill-rule="evenodd" clip-rule="evenodd" d="M9.08144 4.75633C10.0067 2.9322 12.0642 1.98301 14.0525 2.46304C16.0402 2.94293 17.4377 4.72544 17.4296 6.77003V11.4579C17.4296 11.8893 17.0798 12.2391 16.6484 12.2391C16.2169 12.2391 15.8671 11.8893 15.8671 11.4579V6.76502C15.8729 5.44389 14.97 4.29195 13.6858 3.9819C12.4015 3.67184 11.0726 4.28494 10.4749 5.46316C10.2797 5.84796 9.80956 6.00167 9.42476 5.80648C9.03996 5.6113 8.88625 5.14112 9.08144 4.75633Z" fill="#5F646F"/>
<path fill-rule="evenodd" clip-rule="evenodd" d="M20.818 11.1977C21.2495 11.1989 21.5983 11.5497 21.597 11.9812C21.5933 13.2713 21.2958 14.5437 20.7273 15.7018C20.5371 16.0892 20.069 16.249 19.6817 16.0589C19.2944 15.8687 19.1346 15.4006 19.3247 15.0133C19.7887 14.0681 20.0315 13.0296 20.0345 11.9767C20.0358 11.5452 20.3866 11.1964 20.818 11.1977Z" fill="#5F646F"/>
<path fill-rule="evenodd" clip-rule="evenodd" d="M16.1313 14.5264C16.4367 14.8311 16.4373 15.3258 16.1326 15.6313C15.3025 16.4632 14.1762 16.9301 13.001 16.9286C12.5695 16.928 12.2192 16.5778 12.2197 16.1463C12.2203 15.7149 12.5695 15.3655 13.001 15.3661C13.7605 15.3671 14.49 15.0653 15.0264 14.5277C15.3312 14.2222 15.8258 14.2217 16.1313 14.5264Z" fill="#5F646F"/>
</svg>
