<svg width="26" height="27" viewBox="0 0 26 27" fill="none" xmlns="http://www.w3.org/2000/svg">
<path fill-rule="evenodd" clip-rule="evenodd" d="M10.4668 7.36638V12.9418C10.4668 12.9419 10.4668 12.9417 10.4668 12.9418C10.4674 14.3406 11.6013 15.4747 13.0003 15.4752C13.6721 15.4754 14.3165 15.2086 14.7915 14.7336C15.2666 14.2585 15.5334 13.6141 15.5332 12.9423V7.36638C15.5332 7.36629 15.5332 7.36646 15.5332 7.36638C15.5326 5.96759 14.3988 4.83354 13 4.83294C11.6012 4.83354 10.4674 5.96759 10.4668 7.36638ZM12.9997 3.20862C10.7041 3.20936 8.84324 5.07018 8.84249 7.36585V12.942C8.84324 15.2377 10.7041 17.0988 12.9997 17.0995C14.1025 17.0999 15.1603 16.6619 15.9401 15.8821C16.7198 15.1024 17.1578 14.0447 17.1575 12.942C17.1575 12.9421 17.1575 12.9419 17.1575 12.942V7.36611C17.1567 5.07044 15.2954 3.20936 12.9997 3.20862Z" fill="white"/>
<path fill-rule="evenodd" clip-rule="evenodd" d="M5.41665 12.3086C5.8652 12.3086 6.22882 12.6722 6.22882 13.1208C6.22882 16.8604 9.26037 19.8919 13 19.8919C16.7396 19.8919 19.7712 16.8604 19.7712 13.1208C19.7712 12.6722 20.1348 12.3086 20.5833 12.3086C21.0319 12.3086 21.3955 12.6722 21.3955 13.1208C21.3955 17.7575 17.6367 21.5163 13 21.5163C8.36328 21.5163 4.60449 17.7575 4.60449 13.1208C4.60449 12.6722 4.96811 12.3086 5.41665 12.3086Z" fill="white"/>
<path fill-rule="evenodd" clip-rule="evenodd" d="M13 19.8919C13.4485 19.8919 13.8121 20.2556 13.8121 20.7041V22.9791C13.8121 23.4277 13.4485 23.7913 13 23.7913C12.5514 23.7913 12.1878 23.4277 12.1878 22.9791V20.7041C12.1878 20.2556 12.5514 19.8919 13 19.8919Z" fill="white"/>
</svg>
