<svg width="24" height="24" viewBox="0 0 24 24" fill="none" xmlns="http://www.w3.org/2000/svg">
<path fill-rule="evenodd" clip-rule="evenodd" d="M4.25 5C4.25 3.48079 5.48079 2.25 7 2.25H14.172C14.9011 2.25 15.6008 2.54018 16.1163 3.05567L18.9443 5.88367C19.4598 6.39916 19.75 7.09886 19.75 7.828V19C19.75 20.5192 18.5192 21.75 17 21.75H7C5.48079 21.75 4.25 20.5192 4.25 19V5ZM7 3.75C6.30921 3.75 5.75 4.30921 5.75 5V19C5.75 19.6908 6.30921 20.25 7 20.25H17C17.6908 20.25 18.25 19.6908 18.25 19V7.828C18.25 7.49714 18.1182 7.17884 17.8837 6.94433L15.0557 4.11633C14.8212 3.88182 14.5029 3.75 14.172 3.75H7Z" fill="#90A0B7"/>
<path fill-rule="evenodd" clip-rule="evenodd" d="M14 2.25C14.4142 2.25 14.75 2.58579 14.75 3V7C14.75 7.13779 14.8622 7.25 15 7.25H19C19.4142 7.25 19.75 7.58579 19.75 8C19.75 8.41421 19.4142 8.75 19 8.75H15C14.0338 8.75 13.25 7.96621 13.25 7V3C13.25 2.58579 13.5858 2.25 14 2.25Z" fill="#90A0B7"/>
<path fill-rule="evenodd" clip-rule="evenodd" d="M9.58997 16.55C9.58997 16.1358 9.92575 15.8 10.34 15.8H13.66C14.0742 15.8 14.41 16.1358 14.41 16.55C14.41 16.9643 14.0742 17.3 13.66 17.3H10.34C9.92575 17.3 9.58997 16.9643 9.58997 16.55Z" fill="#90A0B7"/>
<path fill-rule="evenodd" clip-rule="evenodd" d="M11.583 11.75V12.584H12.417V11.75H11.583ZM10.083 11.583C10.083 10.8468 10.6798 10.25 11.416 10.25H12.584C13.3202 10.25 13.917 10.8468 13.917 11.583V12.751C13.917 13.4872 13.3202 14.084 12.584 14.084H11.4137C10.6806 14.0817 10.083 13.4875 10.083 12.751V11.583Z" fill="#90A0B7"/>
<path fill-rule="evenodd" clip-rule="evenodd" d="M8.75 16.416V17.25H9.584V16.416H8.75ZM7.25 16.249C7.25 15.5128 7.84679 14.916 8.583 14.916H9.751C10.4872 14.916 11.084 15.5128 11.084 16.249V17.417C11.084 18.1532 10.4872 18.75 9.751 18.75H8.583C7.84679 18.75 7.25 18.1532 7.25 17.417V16.249Z" fill="#90A0B7"/>
<path fill-rule="evenodd" clip-rule="evenodd" d="M14.417 16.416V17.25H15.251V16.416H14.417ZM12.917 16.249C12.917 15.5128 13.5138 14.916 14.25 14.916H15.418C16.1542 14.916 16.751 15.5128 16.751 16.249V17.4193C16.7487 18.1533 16.1537 18.75 15.417 18.75H14.249C13.5129 18.75 12.917 18.1524 12.917 17.417V16.249Z" fill="#90A0B7"/>
<path fill-rule="evenodd" clip-rule="evenodd" d="M12.3258 12.6783C12.6747 12.4551 13.1385 12.5569 13.3617 12.9058L14.8717 15.2658C15.095 15.6148 14.9931 16.0786 14.6442 16.3018C14.2953 16.5251 13.8315 16.4232 13.6082 16.0743L12.0982 13.7143C11.875 13.3654 11.9769 12.9015 12.3258 12.6783Z" fill="#90A0B7"/>
<path fill-rule="evenodd" clip-rule="evenodd" d="M11.6742 12.6783C12.0231 12.9015 12.125 13.3654 11.9018 13.7143L10.3918 16.0743C10.1685 16.4232 9.7047 16.5251 9.3558 16.3018C9.00689 16.0786 8.90502 15.6148 9.12826 15.2658L10.6383 12.9058C10.8615 12.5569 11.3253 12.4551 11.6742 12.6783Z" fill="#90A0B7"/>
</svg>
