<svg width="198" height="184" viewBox="0 0 198 184" fill="none" xmlns="http://www.w3.org/2000/svg">
<g clip-path="url(#clip0)">
<path d="M171.277 21.6907L170.333 20.1366C162.394 7.02297 148.044 -0.889108 132.909 0.0799042C130.96 0.20085 129.023 0.466687 127.114 0.875225C113.356 3.81426 101.363 14.2586 96.4201 27.6145C93.5017 35.4717 92.6855 44.5265 87.1497 50.7519C79.9312 58.8651 67.7013 59.1211 56.9442 58.7829C46.1872 58.4446 33.939 58.7371 26.7661 66.8823C22.2745 71.9834 20.8381 79.2235 21.2075 86.0798C22.1697 104.171 34.7461 120.361 50.7381 128.387C66.73 136.414 85.5628 137.14 103.069 133.625C127.588 128.671 150.908 115.063 164.925 94.0467C178.942 73.0301 182.49 44.3757 171.277 21.6907Z" fill="#E6EAF7"/>
<path d="M176.329 129.105C176.275 129.173 175.8 128.89 175.276 128.469C174.752 128.049 174.364 127.647 174.423 127.555C174.483 127.464 174.952 127.766 175.481 128.191C176.01 128.616 176.384 129.055 176.329 129.105Z" fill="#263238"/>
<path d="M190.675 107.608C190.762 105.597 190.821 103.54 190.187 101.63C189.554 99.719 188.09 97.973 186.124 97.5616C183.881 97.1045 181.587 98.5169 180.329 100.432C179.07 102.347 178.641 104.678 178.272 106.945C175.714 122.556 174.771 138.389 175.459 154.194L184.633 155.483C188.66 138.996 189.946 124.575 190.675 107.608Z" fill="#455A64"/>
<path d="M184.852 97.5159C184.844 97.5662 184.831 97.6153 184.811 97.6622L184.656 98.0781C184.51 98.4667 184.305 98.9923 184.045 99.6642C183.917 100.012 183.749 100.386 183.612 100.816L183.156 102.187C182.996 102.69 182.827 103.22 182.645 103.787C182.463 104.354 182.335 104.971 182.189 105.615C181.422 108.61 180.83 111.647 180.415 114.711C179.923 118.171 179.594 122.002 179.339 126.024C178.883 134.078 178.796 141.391 178.591 146.68C178.491 149.322 178.4 151.461 178.299 152.937C178.254 153.655 178.213 154.221 178.185 154.637C178.185 154.816 178.158 154.962 178.149 155.094C178.14 155.227 178.149 155.245 178.122 155.245C178.115 155.195 178.115 155.145 178.122 155.094C178.122 154.971 178.122 154.829 178.122 154.637C178.122 154.217 178.149 153.65 178.172 152.932C178.236 151.456 178.29 149.317 178.359 146.67C178.505 141.387 178.541 134.073 179.011 126.006C179.266 121.974 179.604 118.135 180.119 114.67C180.548 111.597 181.165 108.553 181.966 105.556C182.139 104.916 182.303 104.308 182.463 103.728C182.622 103.147 182.832 102.631 183.001 102.132L183.457 100.761C183.603 100.336 183.781 99.9613 183.913 99.6185L184.583 98.0507C184.656 97.8862 184.715 97.7536 184.766 97.6485C184.816 97.5434 184.848 97.4885 184.852 97.5159Z" fill="#263238"/>
<path d="M185.723 97.516C186.201 98.0819 186.58 98.7248 186.845 99.4175C187.419 100.729 187.784 102.818 187.679 105.36C187.438 110.438 186.982 117.44 186.38 125.169C185.778 132.899 185.103 139.887 184.556 144.938C184.287 147.466 184.049 149.509 183.876 150.917L183.671 152.539C183.644 152.709 183.625 152.846 183.607 152.96C183.604 153.009 183.593 153.056 183.575 153.102C183.569 153.053 183.569 153.004 183.575 152.955C183.575 152.841 183.575 152.699 183.603 152.53C183.639 152.133 183.689 151.589 183.748 150.903C183.89 149.459 184.086 147.42 184.323 144.915C184.806 139.86 185.44 132.871 186.047 125.142C186.653 117.413 187.141 110.415 187.442 105.35C187.574 102.823 187.255 100.78 186.722 99.4586C186.446 98.7832 186.111 98.1333 185.723 97.516Z" fill="#263238"/>
<path d="M192.061 121.284C192.03 121.371 191.25 121.17 190.32 120.827C189.389 120.484 188.664 120.151 188.692 120.068C188.719 119.986 189.503 120.183 190.434 120.525C191.364 120.868 192.107 121.206 192.061 121.284Z" fill="#263238"/>
<path d="M193.165 111.923C193.202 112.005 192.463 112.417 191.51 112.837C190.557 113.258 189.759 113.541 189.722 113.459C189.686 113.377 190.429 112.965 191.378 112.545C192.326 112.124 193.129 111.836 193.165 111.923Z" fill="#263238"/>
<path d="M192.59 104.272C192.59 104.363 191.975 104.395 191.222 104.345C190.47 104.294 189.854 104.176 189.882 104.084C189.909 103.993 190.497 103.965 191.25 104.016C192.002 104.066 192.6 104.185 192.59 104.272Z" fill="#263238"/>
<path d="M183.128 99.3717C183.051 99.422 182.65 98.9146 182.216 98.2519C181.783 97.5891 181.519 97.004 181.596 96.9583C181.674 96.9126 182.052 97.4154 182.508 98.0782C182.964 98.741 183.201 99.3443 183.128 99.3717Z" fill="#263238"/>
<path d="M180 103.997C180 104.089 179.412 104.148 178.696 104.135C177.98 104.121 177.396 104.034 177.401 103.943C177.406 103.851 177.985 103.792 178.705 103.805C179.426 103.819 180 103.915 180 103.997Z" fill="#263238"/>
<path d="M177.752 113.249C177.72 113.335 177.105 113.166 176.384 112.874C175.664 112.581 175.098 112.275 175.135 112.193C175.171 112.111 175.782 112.275 176.503 112.568C177.223 112.86 177.789 113.166 177.752 113.249Z" fill="#263238"/>
<path d="M177.515 121.033C177.515 121.12 177.009 121.307 176.348 121.444C175.687 121.581 175.13 121.627 175.112 121.536C175.094 121.444 175.618 121.261 176.279 121.124C176.941 120.987 177.515 120.941 177.515 121.033Z" fill="#263238"/>
<path d="M176.457 133.758C176.457 133.849 175.919 134.023 175.217 134.151C174.514 134.279 173.935 134.306 173.922 134.215C173.908 134.124 174.46 133.95 175.162 133.826C175.864 133.703 176.439 133.671 176.457 133.758Z" fill="#263238"/>
<path d="M175.755 140.783C175.796 140.866 175.335 141.195 174.72 141.519C174.104 141.844 173.58 142.04 173.534 141.976C173.489 141.912 173.954 141.569 174.569 141.24C175.185 140.911 175.714 140.706 175.755 140.783Z" fill="#263238"/>
<path d="M181.478 148.759C181.4 148.805 180.999 148.247 180.566 147.516C180.132 146.785 179.868 146.145 179.95 146.104C180.032 146.063 180.429 146.62 180.862 147.352C181.295 148.083 181.555 148.709 181.478 148.759Z" fill="#263238"/>
<path d="M183.128 135.509C183.192 135.573 182.745 136.116 182.13 136.724C181.514 137.332 180.958 137.771 180.894 137.703C180.83 137.634 181.282 137.095 181.897 136.487C182.513 135.879 183.069 135.454 183.128 135.509Z" fill="#263238"/>
<path d="M182.764 128.556C182.7 128.616 182.28 128.273 181.852 127.788C181.423 127.304 181.095 126.874 181.163 126.801C181.231 126.728 181.646 127.08 182.075 127.564C182.504 128.049 182.832 128.492 182.764 128.556Z" fill="#263238"/>
<path d="M183.899 119.671C183.968 119.73 183.594 120.26 183.065 120.85C182.536 121.44 182.052 121.874 181.984 121.814C181.916 121.755 182.289 121.225 182.818 120.631C183.347 120.036 183.831 119.611 183.899 119.671Z" fill="#263238"/>
<path d="M184.537 113.221C184.478 113.285 183.954 112.874 183.375 112.307C182.796 111.74 182.371 111.219 182.435 111.155C182.499 111.091 183.024 111.503 183.603 112.069C184.182 112.636 184.601 113.157 184.537 113.221Z" fill="#263238"/>
<path d="M185.796 104.505C185.874 104.55 185.609 105.135 185.208 105.812C184.806 106.488 184.419 106.996 184.341 106.945C184.264 106.895 184.528 106.315 184.93 105.643C185.331 104.971 185.723 104.459 185.796 104.505Z" fill="#263238"/>
<path d="M188.158 96.4281C188.236 96.4738 188.003 97.0543 187.638 97.7353C187.274 98.4164 186.913 98.9283 186.831 98.8826C186.749 98.8369 186.986 98.2564 187.351 97.5799C187.716 96.9034 188.076 96.3869 188.158 96.4281Z" fill="#263238"/>
<path d="M190.839 100.098C190.876 100.181 190.511 100.437 190.019 100.674C189.526 100.912 189.107 101.031 189.056 100.953C189.006 100.876 189.385 100.61 189.877 100.377C190.37 100.144 190.798 100.016 190.839 100.098Z" fill="#263238"/>
<path d="M190.903 129.105C190.903 129.192 190.05 129.077 189.107 128.671C188.163 128.264 187.501 127.756 187.552 127.674C187.602 127.592 188.322 127.98 189.234 128.369C190.146 128.757 190.921 129.013 190.903 129.105Z" fill="#263238"/>
<path d="M189.827 135.248C189.827 135.339 189.294 135.522 188.596 135.655C187.898 135.787 187.314 135.828 187.301 135.737C187.287 135.646 187.834 135.467 188.532 135.335C189.23 135.202 189.791 135.161 189.827 135.248Z" fill="#263238"/>
<path d="M188.459 145.784C188.409 145.852 187.707 145.372 187.064 144.554C186.421 143.736 186.111 142.95 186.188 142.913C186.266 142.877 186.699 143.567 187.319 144.353C187.939 145.139 188.523 145.711 188.459 145.784Z" fill="#263238"/>
<path d="M173.717 150.601C173.657 150.533 174.031 150.117 174.551 149.687C175.071 149.258 175.536 148.938 175.595 149.006C175.655 149.075 175.281 149.491 174.761 149.92C174.241 150.35 173.776 150.67 173.717 150.601Z" fill="#263238"/>
<path d="M169.48 127.61C168.883 125.741 167.761 123.56 165.805 123.533C165.228 123.567 164.671 123.755 164.19 124.076C163.709 124.397 163.322 124.841 163.069 125.361C162.536 126.406 162.281 127.571 162.326 128.744C162.567 137.065 163.985 145.311 166.535 153.234H173.694C173.602 144.527 172.181 135.886 169.48 127.61Z" fill="#455A64"/>
<path d="M156.539 115.845C155.54 111.832 152.553 109.665 149.083 109.446C145.919 110.003 144.692 113.125 144.314 116.325C143.935 119.524 144.929 122.724 145.91 125.777L155.335 155.332L164.245 154.359C161.414 141.176 159.795 128.94 156.539 115.845Z" fill="#455A64"/>
<path d="M165.805 123.533C165.578 123.855 165.375 124.195 165.199 124.548C164.833 125.564 164.718 126.654 164.861 127.724C165.002 129.096 165.158 130.732 165.386 132.533C165.614 134.334 165.942 136.313 166.343 138.374C167.155 142.488 168.067 146.195 168.646 148.887C168.938 150.231 169.161 151.328 169.298 152.087C169.362 152.434 169.407 152.727 169.448 152.964C169.472 153.065 169.483 153.168 169.48 153.271C169.435 153.177 169.402 153.077 169.385 152.974L169.175 152.114L168.418 148.915C167.784 146.232 166.836 142.538 166.024 138.402C165.618 136.336 165.303 134.352 165.085 132.537C164.971 131.623 164.898 130.764 164.82 129.955C164.743 129.146 164.67 128.401 164.633 127.706C164.507 126.605 164.664 125.489 165.089 124.465C165.261 124.108 165.505 123.791 165.805 123.533Z" fill="#263238"/>
<path d="M149.202 109.213C148.805 109.666 148.445 110.15 148.126 110.662C147.3 112.085 146.83 113.688 146.758 115.333C146.621 117.413 147.086 119.876 147.861 122.523C148.637 125.169 149.503 128.099 150.401 131.157C152.18 137.282 153.789 142.817 154.961 146.872C155.522 148.86 155.983 150.482 156.329 151.643C156.471 152.183 156.589 152.617 156.676 152.946C156.726 153.094 156.759 153.248 156.776 153.403C156.709 153.256 156.654 153.103 156.612 152.946C156.512 152.622 156.375 152.192 156.206 151.662L154.761 146.917C153.561 142.872 151.92 137.346 150.105 131.235C149.216 128.168 148.363 125.247 147.588 122.587C146.813 119.927 146.375 117.417 146.544 115.301C146.637 113.626 147.146 112.002 148.026 110.575C148.34 110.059 148.738 109.599 149.202 109.213Z" fill="#263238"/>
<path d="M162.289 153.421C162.21 153.284 162.143 153.141 162.089 152.992C161.97 152.708 161.783 152.288 161.582 151.735C161.154 150.638 160.611 149.024 160.05 146.995C159.489 144.965 158.924 142.52 158.386 139.791L156.712 130.91C156.092 127.766 155.399 124.79 154.601 122.134C153.909 119.779 153.041 117.479 152.002 115.255C151.301 113.756 150.498 112.306 149.599 110.918C149.293 110.415 149.015 110.054 148.851 109.793C148.754 109.668 148.67 109.533 148.6 109.391C148.712 109.502 148.814 109.623 148.906 109.752C149.088 110.003 149.384 110.355 149.708 110.844C150.652 112.214 151.489 113.655 152.212 115.155C153.286 117.377 154.181 119.682 154.888 122.047C155.753 124.941 156.469 127.878 157.032 130.846C157.62 133.996 158.176 136.999 158.682 139.732C159.188 142.465 159.736 144.906 160.274 146.936C160.812 148.965 161.313 150.592 161.701 151.694C161.883 152.251 162.052 152.676 162.157 152.969C162.215 153.115 162.26 153.267 162.289 153.421Z" fill="#263238"/>
<path d="M146.051 124.319C146.074 124.411 145.595 124.603 144.97 124.753C144.346 124.904 143.83 124.955 143.808 124.868C143.785 124.781 144.264 124.584 144.893 124.433C145.522 124.283 146.051 124.232 146.051 124.319Z" fill="#263238"/>
<path d="M145.112 118.226C145.112 118.318 144.432 118.354 143.607 118.391C142.781 118.427 142.111 118.437 142.097 118.345C142.084 118.254 142.754 118.094 143.598 118.062C144.441 118.03 145.139 118.139 145.112 118.226Z" fill="#263238"/>
<path d="M146.115 112.659C146.056 112.728 145.572 112.412 145.034 111.955C144.496 111.498 144.122 111.073 144.163 111C144.204 110.927 144.706 111.247 145.249 111.704C145.791 112.161 146.174 112.6 146.115 112.659Z" fill="#263238"/>
<path d="M148.833 107.508C148.924 107.508 148.896 107.965 148.883 108.486C148.869 109.007 148.883 109.446 148.778 109.459C148.673 109.473 148.541 109.039 148.559 108.477C148.577 107.915 148.746 107.485 148.833 107.508Z" fill="#263238"/>
<path d="M154.387 109.935C154.46 109.985 154.245 110.428 153.899 110.918C153.552 111.407 153.219 111.763 153.146 111.713C153.073 111.663 153.288 111.219 153.634 110.73C153.981 110.241 154.314 109.885 154.387 109.935Z" fill="#263238"/>
<path d="M157.989 116.211C158.025 116.293 157.565 116.563 156.958 116.809C156.352 117.056 155.841 117.189 155.805 117.102C155.768 117.015 156.233 116.75 156.835 116.503C157.437 116.256 157.957 116.128 157.989 116.211Z" fill="#263238"/>
<path d="M160.187 122.655C160.223 122.733 159.612 123.085 158.773 123.272C157.934 123.46 157.237 123.414 157.232 123.327C157.228 123.24 157.898 123.135 158.7 122.952C159.503 122.77 160.141 122.582 160.187 122.655Z" fill="#263238"/>
<path d="M150.155 120.827C150.068 120.804 150.155 120.37 150.296 119.831C150.438 119.291 150.661 118.917 150.752 118.917C150.844 118.917 150.78 119.374 150.616 119.913C150.451 120.452 150.223 120.859 150.155 120.827Z" fill="#263238"/>
<path d="M151.523 128.94C151.436 128.904 151.619 128.305 151.924 127.596C152.23 126.888 152.544 126.349 152.627 126.385C152.709 126.422 152.531 127.025 152.225 127.729C151.92 128.433 151.623 128.977 151.523 128.94Z" fill="#263238"/>
<path d="M148.08 131.162C148.044 131.244 147.478 131.089 146.799 130.878C146.119 130.668 145.563 130.467 145.581 130.376C145.599 130.284 146.197 130.344 146.895 130.563C147.592 130.782 148.112 131.079 148.08 131.162Z" fill="#263238"/>
<path d="M150.073 137.771C150.128 137.844 149.745 138.205 149.22 138.58C148.696 138.955 148.231 139.197 148.181 139.124C148.13 139.051 148.509 138.69 149.033 138.315C149.558 137.94 150.023 137.698 150.073 137.771Z" fill="#263238"/>
<path d="M151.673 144.362C151.696 144.449 151.217 144.641 150.62 144.787C150.023 144.934 149.507 144.979 149.489 144.892C149.471 144.806 149.945 144.614 150.543 144.467C151.14 144.321 151.651 144.271 151.673 144.362Z" fill="#263238"/>
<path d="M160.356 128.172C160.401 128.25 159.996 128.57 159.407 128.794C158.819 129.018 158.304 129.041 158.29 128.954C158.276 128.867 158.746 128.698 159.293 128.497C159.84 128.296 160.306 128.095 160.356 128.172Z" fill="#263238"/>
<path d="M161.591 138.425C161.555 138.507 161.076 138.361 160.52 138.1C159.964 137.84 159.544 137.561 159.585 137.478C159.626 137.396 160.105 137.542 160.661 137.803C161.218 138.064 161.633 138.342 161.591 138.425Z" fill="#263238"/>
<path d="M163.785 145.761C163.748 145.848 163.115 145.674 162.367 145.381C161.619 145.089 161.031 144.778 161.067 144.696C161.104 144.614 161.733 144.783 162.485 145.075C163.238 145.368 163.835 145.679 163.785 145.761Z" fill="#263238"/>
<path d="M152.025 151.511C151.979 151.429 152.563 151.054 153.238 150.501C153.913 149.948 154.437 149.495 154.505 149.555C154.574 149.614 154.145 150.208 153.443 150.757C152.741 151.305 152.066 151.589 152.025 151.511Z" fill="#263238"/>
<path d="M157.811 147.795C157.72 147.795 157.592 147.31 157.355 146.739C157.118 146.168 156.899 145.715 156.977 145.66C157.054 145.605 157.433 145.998 157.661 146.62C157.889 147.242 157.907 147.795 157.811 147.795Z" fill="#263238"/>
<path d="M156.279 138.955C156.224 139.028 155.85 138.85 155.445 138.557C155.039 138.265 154.747 137.968 154.797 137.89C154.847 137.812 155.226 137.995 155.632 138.292C156.037 138.589 156.329 138.882 156.279 138.955Z" fill="#263238"/>
<path d="M169.763 125.128C169.818 125.201 169.453 125.562 168.951 125.933C168.45 126.303 167.994 126.55 167.944 126.477C167.893 126.403 168.254 126.042 168.755 125.668C169.257 125.293 169.713 125.055 169.763 125.128Z" fill="#263238"/>
<path d="M171.801 130.7C171.801 130.787 171.241 130.906 170.534 130.828C169.827 130.75 169.307 130.517 169.307 130.426C169.307 130.334 169.877 130.426 170.552 130.499C171.227 130.572 171.792 130.609 171.801 130.7Z" fill="#263238"/>
<path d="M163.06 131.948C163.083 132.035 162.554 132.227 161.87 132.268C161.186 132.309 160.643 132.199 160.648 132.112C160.652 132.026 161.195 131.989 161.851 131.943C162.508 131.898 163.042 131.856 163.06 131.948Z" fill="#263238"/>
<path d="M163.835 126.682C163.835 126.769 163.297 126.783 162.713 126.513C162.13 126.243 161.801 125.828 161.851 125.768C161.901 125.709 162.307 125.974 162.85 126.225C163.393 126.477 163.835 126.586 163.835 126.682Z" fill="#263238"/>
<path d="M172.549 136.679C172.503 136.756 171.956 136.5 171.332 136.103C170.707 135.705 170.237 135.326 170.287 135.253C170.338 135.179 170.88 135.431 171.505 135.829C172.13 136.226 172.599 136.606 172.549 136.679Z" fill="#263238"/>
<path d="M193.876 152.315H147.25V160.598H193.876V152.315Z" fill="#F7B3B3"/>
<path d="M150.73 158.957L156.402 183.708H184.191L190.392 158.957H150.73Z" fill="#F7B3B3"/>
<path d="M193.849 160.593C193.849 160.68 183.334 160.753 170.36 160.753C157.387 160.753 146.872 160.68 146.872 160.593C146.872 160.506 157.387 160.429 170.36 160.429C183.334 160.429 193.849 160.52 193.849 160.593Z" fill="#263238"/>
<path d="M167.939 132.131C167.862 132.176 167.542 131.806 167.228 131.299C166.913 130.791 166.717 130.339 166.795 130.293C166.872 130.248 167.187 130.618 167.506 131.125C167.825 131.632 167.998 132.08 167.939 132.131Z" fill="#263238"/>
<path d="M167.939 138.795C167.857 138.768 167.966 138.201 168.185 137.538C168.404 136.875 168.641 136.354 168.741 136.382C168.842 136.409 168.719 136.976 168.495 137.639C168.272 138.301 168.021 138.822 167.939 138.795Z" fill="#263238"/>
<path d="M170.219 145.793C170.137 145.829 169.786 145.272 169.439 144.54C169.093 143.809 168.874 143.192 168.956 143.169C169.038 143.146 169.385 143.69 169.736 144.417C170.087 145.144 170.292 145.752 170.219 145.793Z" fill="#263238"/>
<path d="M165.29 151.42C165.221 151.36 165.499 150.926 165.91 150.451C166.32 149.975 166.708 149.642 166.776 149.701C166.845 149.76 166.566 150.19 166.156 150.665C165.746 151.141 165.358 151.479 165.29 151.42Z" fill="#263238"/>
<path d="M164.255 141.199C164.255 141.291 163.799 141.286 163.251 141.199C162.704 141.112 162.289 140.952 162.307 140.866C162.326 140.779 162.763 140.779 163.311 140.866C163.858 140.952 164.291 141.112 164.255 141.199Z" fill="#263238"/>
<path d="M116.548 135.454C116.224 132.382 115.203 129.429 114.186 126.509C110.842 116.937 107.505 107.364 104.177 97.7901C103.297 95.267 102.394 92.6982 100.789 90.5682C99.1835 88.4382 96.7347 86.7653 94.0671 86.7836L95.5856 148.554L99.3978 157.394C104.536 156.678 109.197 153.991 112.396 149.898C115.596 145.805 117.084 140.626 116.548 135.454Z" fill="#0031B2"/>
<path d="M59.6802 97.2873L36.3968 72.9432C36.3968 72.9432 16.9484 77.5688 12.5936 83.1589C9.53386 87.0853 11.6178 118.354 11.6178 118.354C11.6178 118.354 28.2207 167.532 29.4018 172.18L26.2599 183.699H104.35L97.323 145.761L102.795 81.1844L66.3788 72.0427C66.9899 73.7888 59.6802 97.2873 59.6802 97.2873Z" fill="#0031B2"/>
<g opacity="0.3">
<path opacity="0.3" d="M27.6597 179.603C33.1728 178.374 37.3497 173.661 39.6434 168.478C41.9371 163.294 42.7214 157.608 43.9162 152.073C45.1109 146.538 46.8665 140.897 50.665 136.706C53.2505 133.854 56.634 131.847 59.3791 129.146C62.1242 126.445 64.2674 122.578 63.3326 118.839L46.9805 129.082C45.2112 130.193 43.4009 131.335 42.1286 132.995C40.5417 135.061 39.9489 137.698 39.3607 140.235C36.2798 153.556 32.1632 166.615 27.0487 179.292" fill="black"/>
</g>
<path d="M35.8085 122.198C35.8085 122.198 28.1249 134.539 27.3953 135.856C26.6657 137.172 16.7249 150.359 16.7249 150.359C16.7249 150.359 13.5329 160.762 18.4805 165.155C23.4281 169.547 29.4245 170.283 30.6101 170.283C31.7957 170.283 38.0612 157.54 38.0612 157.54L45.9591 134.997L35.8085 122.198Z" fill="#94675A"/>
<path d="M12.5935 83.1589C12.5935 83.1589 7.52282 88.1868 4.84154 99.5087C3.10418 106.822 1.80457 133.095 1.80457 133.095C1.80457 133.095 0.00793311 152.919 0.436573 157.48C0.865213 162.042 5.29297 174.603 7.69154 178.15C11.0705 183.15 26.6064 181.655 29.1691 177.309C30.5371 174.955 36.0958 166.137 35.8131 161.978C35.5303 157.819 22.6575 142.369 22.6575 142.369L12.5935 83.1589Z" fill="#0031B2"/>
<g opacity="0.3">
<path opacity="0.3" d="M85.9957 107.412C85.9273 119.954 88.0614 131.587 90.9297 143.795C91.7094 147.114 93.7888 151.89 96.8576 153.335C99.9265 154.779 101.746 155.163 104.724 153.664C108.098 151.95 111.869 147.539 111.869 145.573C110 147.534 108.08 149.527 105.672 150.757C103.264 151.986 100.2 152.329 97.9201 150.935C94.7281 149.02 94.0122 144.774 93.4969 141.071C91.9465 129.923 90.916 118.587 87.0445 108.024" fill="black"/>
</g>
<path d="M26.082 137.785C26.0136 137.785 26.1732 131.386 26.4377 123.492C26.7022 115.598 26.9712 109.208 27.0396 109.213C27.108 109.217 26.9438 115.612 26.6794 123.501C26.4149 131.39 26.1458 137.785 26.082 137.785Z" fill="#263238"/>
<path d="M22.6529 142.369C22.5131 142.49 22.3601 142.594 22.1969 142.68L20.9201 143.443C19.8394 144.083 18.3437 144.965 16.7386 146.012C15.1335 147.059 13.7472 148.101 12.7623 148.883L11.6086 149.82C11.4694 149.945 11.3164 150.054 11.1526 150.144C11.2649 150 11.3917 149.869 11.5311 149.751C11.7864 149.504 12.1649 149.161 12.6437 148.755C13.9007 147.695 15.221 146.714 16.5972 145.816C18.2069 144.76 19.7163 143.9 20.8198 143.297C21.3715 142.995 21.823 142.758 22.1376 142.598C22.3003 142.502 22.4731 142.426 22.6529 142.369Z" fill="#263238"/>
<path d="M22.6528 142.369C22.0933 142.307 21.5377 142.214 20.9884 142.09C19.9669 141.912 18.5533 141.697 16.9756 141.574C15.3978 141.451 13.966 141.437 12.9263 141.441C12.3659 141.473 11.8041 141.473 11.2437 141.441C11.392 141.399 11.5453 141.376 11.6997 141.373C11.9915 141.341 12.411 141.313 12.9309 141.286C14.2882 141.224 15.6481 141.245 17.0029 141.35C18.3583 141.456 19.705 141.653 21.034 141.94C21.5401 142.054 21.946 142.154 22.2287 142.237C22.3743 142.266 22.5164 142.31 22.6528 142.369Z" fill="#263238"/>
<path d="M36.0318 161.932C36.0054 162.168 35.9566 162.401 35.8859 162.627C35.781 163.084 35.6032 163.71 35.3661 164.492C34.7391 166.529 33.9774 168.522 33.0861 170.457C32.1921 172.392 31.1714 174.265 30.0309 176.065C29.5749 176.756 29.2192 177.304 28.9501 177.67C28.8118 177.868 28.6594 178.056 28.4941 178.232C28.5942 178.017 28.7132 177.813 28.8498 177.619C29.0961 177.235 29.4426 176.673 29.8667 175.978C30.9597 174.159 31.9552 172.282 32.8489 170.356C33.734 168.428 34.5148 166.454 35.1882 164.442C35.4481 163.669 35.6442 163.039 35.781 162.613C35.8434 162.379 35.9274 162.151 36.0318 161.932Z" fill="#263238"/>
<path d="M70.7244 121.568C70.7107 121.658 70.6862 121.747 70.6514 121.833L70.4052 122.573C70.2958 122.898 70.159 123.291 69.9766 123.739C69.7942 124.187 69.6072 124.708 69.361 125.265C68.905 126.39 68.2711 127.702 67.537 129.128C66.8028 130.554 65.8817 132.08 64.8557 133.63C63.8297 135.179 62.749 136.587 61.7321 137.835C60.7152 139.083 59.7303 140.148 58.873 141.035C58.4535 141.492 58.0476 141.848 57.7011 142.186C57.3545 142.525 57.049 142.803 56.7891 143.027L56.1963 143.544C56.1304 143.606 56.0586 143.661 55.9819 143.708C55.9819 143.708 56.0367 143.635 56.1643 143.507L56.7252 142.959C56.9715 142.726 57.2679 142.438 57.6053 142.09C57.9427 141.743 58.3349 141.364 58.7453 140.916C59.5843 140.038 60.5419 138.955 61.5588 137.716C62.5757 136.477 63.6245 135.051 64.655 133.516C65.6856 131.98 66.5702 130.453 67.3409 129.041C68.1115 127.628 68.7089 126.326 69.215 125.215C69.475 124.667 69.671 124.155 69.8626 123.711C70.0541 123.268 70.2046 122.879 70.3186 122.559L70.6058 121.833C70.6346 121.74 70.6744 121.651 70.7244 121.568Z" fill="#263238"/>
<path d="M85.6585 108.509C85.6731 108.553 85.6808 108.599 85.6813 108.646L85.7178 109.043C85.7482 109.412 85.7893 109.924 85.8409 110.579C85.9504 111.909 86.1009 113.838 86.2969 116.22C86.7529 120.978 87.4643 127.542 88.577 134.745C89.1515 138.347 89.6668 141.789 90.4374 144.842C90.7976 146.289 91.2703 147.706 91.851 149.079C92.3751 150.267 92.9721 151.421 93.6386 152.535C94.1885 153.454 94.8418 154.306 95.5857 155.076C96.1544 155.648 96.7952 156.143 97.4918 156.548C97.9316 156.8 98.3887 157.02 98.8598 157.206L99.2337 157.348C99.2784 157.361 99.3213 157.379 99.3614 157.403C99.3163 157.397 99.272 157.386 99.2291 157.371L98.8461 157.252C98.3598 157.085 97.8884 156.877 97.437 156.63C96.7233 156.231 96.0655 155.74 95.4808 155.168C94.7191 154.402 94.0503 153.549 93.4881 152.626C92.8046 151.511 92.1953 150.352 91.6641 149.157C91.0702 147.777 90.5854 146.353 90.214 144.897C89.4251 141.825 88.9098 138.384 88.3353 134.782C87.2135 127.569 86.5113 120.996 86.1191 116.233C85.9185 113.852 85.7908 111.918 85.7133 110.584C85.6813 109.93 85.654 109.414 85.6357 109.048V108.646C85.6402 108.6 85.6479 108.554 85.6585 108.509Z" fill="#263238"/>
<g opacity="0.3">
<path opacity="0.3" d="M56.4834 143.722C61.1346 142.589 64.6185 140.628 67.2359 136.605C69.8534 132.583 70.7243 127.564 70.7471 121.823C67.0398 130.787 62.188 138.411 56.0822 143.795" fill="black"/>
</g>
<path d="M48.3394 86.1209C48.3 86.1252 48.2602 86.1252 48.2208 86.1209L47.8788 86.0523C47.5824 85.9883 47.1401 85.906 46.5701 85.8283C44.9534 85.6201 43.3167 85.6201 41.7 85.8283C39.3033 86.1408 36.9605 86.7806 34.7369 87.7298C32.0203 88.9099 29.3982 90.2974 26.8937 91.8801C24.2033 93.5302 21.6634 95.1665 19.1782 96.3412C16.9955 97.4288 14.6438 98.1352 12.2242 98.4301C10.5901 98.6261 8.93427 98.5254 7.33585 98.133C6.75128 97.9948 6.18274 97.7956 5.63953 97.5388C5.67875 97.5417 5.71725 97.5509 5.75353 97.5662L6.08185 97.6805C6.22321 97.7353 6.40105 97.7902 6.61537 97.8496C6.85972 97.9262 7.1078 97.9902 7.35864 98.0416C8.94946 98.3961 10.5897 98.4704 12.2059 98.261C14.6011 97.9428 16.9257 97.2227 19.0824 96.131C21.5494 94.9563 24.0984 93.3199 26.7706 91.6698C29.2848 90.0779 31.9212 88.6886 34.6548 87.515C36.8984 86.5629 39.2635 85.9291 41.6818 85.6318C43.3124 85.4426 44.9608 85.4718 46.5838 85.7186C47.0245 85.7853 47.4613 85.8753 47.8925 85.9883L48.2254 86.0797L48.3394 86.1209Z" fill="#FAFAFA"/>
<path d="M25.3845 123.894C25.3135 123.931 25.2386 123.961 25.161 123.981L24.5044 124.182C24.2217 124.269 23.8706 124.369 23.4556 124.465C23.0406 124.561 22.5801 124.694 22.0557 124.794C21.0114 125.018 19.7757 125.224 18.3575 125.389C16.8427 125.548 15.3206 125.627 13.7975 125.626C12.2657 125.606 10.736 125.506 9.21471 125.325C7.81479 125.142 6.56535 124.918 5.52567 124.676C5.00127 124.571 4.53614 124.438 4.12574 124.328C3.71534 124.219 3.36879 124.123 3.08151 124.031L2.41118 123.816C2.33359 123.796 2.2586 123.767 2.18774 123.729C2.26847 123.73 2.34854 123.744 2.42486 123.771L3.09063 123.94C3.37791 124.017 3.72903 124.109 4.13943 124.2C4.54983 124.292 5.01951 124.415 5.53935 124.511C6.57903 124.73 7.81935 124.936 9.22383 125.105C10.7381 125.276 12.2601 125.369 13.7838 125.384C15.4026 125.384 16.9439 125.302 18.3438 125.169C19.7438 125.037 20.9886 124.836 22.0329 124.63C22.5573 124.539 23.0224 124.424 23.4374 124.337C23.8523 124.251 24.2034 124.164 24.4907 124.091L25.1565 123.931C25.2305 123.908 25.3072 123.896 25.3845 123.894Z" fill="#FAFAFA"/>
<path d="M17.5319 144.481C17.3014 144.503 17.0693 144.503 16.8388 144.481C16.3828 144.444 15.7444 144.417 14.9464 144.408C14.1484 144.399 13.1999 144.408 12.1466 144.504C11.007 144.596 9.87299 144.749 8.74936 144.961C7.62894 145.189 6.52092 145.474 5.42968 145.816C4.42648 146.145 3.53272 146.474 2.80312 146.794C2.07352 147.114 1.47616 147.374 1.07944 147.575C0.875726 147.689 0.662031 147.784 0.44104 147.859C0.626927 147.719 0.825378 147.596 1.03384 147.493C1.42144 147.265 2.00512 146.972 2.73472 146.638C3.5911 146.248 4.4679 145.905 5.36128 145.61C6.45762 145.252 7.57363 144.957 8.70376 144.728C9.8354 144.509 10.9789 144.356 12.1283 144.271C13.0677 144.206 14.0098 144.189 14.951 144.22C15.7535 144.252 16.401 144.307 16.8434 144.367C17.0756 144.386 17.3059 144.424 17.5319 144.481Z" fill="#FAFAFA"/>
<path d="M31.6406 154.194C31.591 154.292 31.5298 154.384 31.4582 154.468L30.8882 155.227C30.6465 155.556 30.3365 155.954 29.9489 156.393C29.5613 156.831 29.1509 157.352 28.631 157.878L27.8376 158.715C27.5594 159.002 27.2493 159.281 26.9256 159.578C26.31 160.191 25.5986 160.78 24.8599 161.407C23.2268 162.745 21.5019 163.967 19.698 165.063C17.8789 166.134 15.9863 167.073 14.0345 167.874C13.1225 168.222 12.2698 168.565 11.4444 168.816C11.034 168.949 10.6373 169.086 10.2542 169.195L9.14159 169.497C8.43479 169.703 7.77359 169.822 7.21271 169.954C6.65183 170.087 6.14567 170.164 5.73983 170.224L4.82783 170.361C4.72008 170.385 4.60984 170.396 4.49951 170.393C4.60503 170.358 4.71334 170.332 4.82327 170.315L5.73527 170.132C6.13655 170.059 6.64727 169.968 7.18991 169.822C7.73255 169.675 8.40743 169.556 9.10511 169.337L10.2086 169.022C10.5917 168.912 10.9838 168.766 11.3897 168.633C12.2105 168.377 13.0632 168.025 13.9615 167.678C15.897 166.868 17.7754 165.927 19.584 164.862C21.3862 163.772 23.1138 162.563 24.755 161.242C25.4892 160.616 26.2051 160.031 26.8207 159.414C27.1353 159.117 27.4454 158.842 27.7327 158.559L28.5353 157.736C29.0597 157.224 29.4792 156.712 29.8713 156.283C30.2635 155.853 30.5827 155.465 30.8381 155.145L31.44 154.418C31.502 154.339 31.569 154.264 31.6406 154.194Z" fill="#FAFAFA"/>
<path d="M99.0831 162.879C99.0337 162.905 98.9817 162.926 98.9281 162.943L98.4721 163.102L96.6937 163.688C95.1433 164.19 92.8997 164.903 90.0908 165.662C88.6817 166.023 87.1359 166.421 85.4533 166.745C83.6684 167.115 81.8644 167.385 80.0496 167.554C75.8792 168.002 71.6621 167.675 67.61 166.59C63.3144 165.383 59.4932 163.509 55.95 162.019C52.8504 160.617 49.5985 159.582 46.26 158.934C44.0032 158.513 41.6932 158.462 39.42 158.783C39.0188 158.829 38.6676 158.916 38.3621 158.975C38.1021 159.022 37.8448 159.083 37.5915 159.158L37.1355 159.281C37.0823 159.299 37.0272 159.31 36.9713 159.313C37.0219 159.292 37.0737 159.274 37.1264 159.258L37.5824 159.112C37.7876 159.048 38.0384 158.97 38.3484 158.906C38.6585 158.842 39.0051 158.746 39.4109 158.692C41.6914 158.333 44.0156 158.359 46.2874 158.769C49.1693 159.226 52.4936 160.314 56.0367 161.818C59.5798 163.322 63.4056 165.155 67.6738 166.352C71.6975 167.431 75.8841 167.762 80.0269 167.33C81.8312 167.17 83.6257 166.913 85.4031 166.563C87.0812 166.243 88.6225 165.859 90.0315 165.507C92.845 164.771 95.0931 164.081 96.6481 163.61L98.4401 163.066L98.8961 162.929C98.9569 162.907 99.0195 162.89 99.0831 162.879Z" fill="#FAFAFA"/>
<path d="M64.1852 132.451C64.1852 132.483 63.6198 132.204 62.7032 131.834C61.5104 131.35 60.2755 130.978 59.0142 130.723C57.7502 130.478 56.4665 130.35 55.1792 130.339C54.1897 130.339 53.5787 130.385 53.5741 130.339C53.7127 130.293 53.8568 130.265 54.0027 130.257C54.2763 130.22 54.6776 130.184 55.1792 130.165C57.7901 130.082 60.3854 130.598 62.7671 131.674C63.128 131.832 63.4797 132.01 63.8204 132.208C63.9526 132.272 64.0753 132.353 64.1852 132.451Z" fill="#FAFAFA"/>
<path d="M88.7592 129.055C88.6918 129.087 88.6216 129.113 88.5494 129.132L87.9475 129.311C87.4185 129.461 86.6479 129.653 85.6675 129.859C83.1631 130.39 80.6189 130.711 78.0614 130.819C75.5038 130.927 72.9415 130.825 70.4006 130.513C69.4293 130.389 68.645 130.261 68.1206 130.156L67.5005 130.028C67.4266 130.018 67.3545 129.998 67.2861 129.969C67.3601 129.957 67.4356 129.957 67.5096 129.969L68.1343 130.051C68.6769 130.129 69.4612 130.229 70.4371 130.33C75.5121 130.864 80.6379 130.645 85.6493 129.681C86.6114 129.498 87.3866 129.333 87.9293 129.224L88.5449 129.087C88.614 129.064 88.6865 129.053 88.7592 129.055Z" fill="#FAFAFA"/>
<path d="M85.7996 89.0783C85.7234 89.1071 85.6437 89.1255 85.5625 89.1331L84.8785 89.2382C84.2857 89.3297 83.4193 89.4348 82.3523 89.5536C80.2182 89.7822 77.2542 90.0107 73.971 90.0838C70.6878 90.157 67.7192 90.0473 65.576 89.9056C64.5044 89.8324 63.638 89.7593 63.0407 89.6953L62.3521 89.6176C62.2714 89.6167 62.1913 89.6028 62.115 89.5765C62.1952 89.5657 62.2765 89.5657 62.3567 89.5765L63.0452 89.6085L65.5852 89.741C67.7284 89.8416 70.6924 89.9193 73.9664 89.8507C77.2405 89.7822 80.2 89.5765 82.3386 89.3937L84.8694 89.156L85.558 89.092C85.6376 89.0774 85.7188 89.0728 85.7996 89.0783Z" fill="#FAFAFA"/>
<path d="M33.5375 48.1786C31.2575 43.4569 29.014 38.6942 27.6095 33.6526C26.205 28.6109 25.6168 23.2265 26.7613 18.1118C26.9346 17.3393 28.5853 12.0692 29.3924 12.0417C29.9579 12.0417 29.1462 16.832 29.4927 17.2799C32.817 21.5582 34.3035 27.0386 34.5999 32.4504C34.8362 37.7158 34.4859 42.9911 33.5557 48.1786" fill="#263238"/>
<path d="M59.1056 99.1797C51.048 100.094 38.0064 84.7908 36.912 76.7416L30.332 28.291C28.1523 15.3281 33.8568 3.25205 46.8437 1.42373L48.0567 1.32317C53.9307 0.845671 59.7687 2.60286 64.4085 6.24496C69.0484 9.88706 72.1499 15.147 73.0956 20.9777C74.9196 32.2219 75.2708 39.9877 75.8316 46.0531C77.1996 60.6249 65.6902 66.311 65.6902 66.311C65.6902 66.311 66.014 69.218 66.47 72.8884C67.5005 81.1432 65.9912 98.2609 57.7512 99.2025L59.1056 99.1797Z" fill="#94675A"/>
<path d="M65.7174 66.4343C65.7174 66.4343 57.8468 67.5451 48.9913 62.924C48.9913 62.924 53.7155 71.7456 66.1369 69.5928L65.7174 66.4343Z" fill="#744A3C"/>
<path d="M54.8099 47.0999C55.0549 46.7774 55.3688 46.5141 55.7286 46.3291C56.0884 46.1442 56.4849 46.0423 56.8891 46.031C57.2933 46.0197 57.6949 46.0992 58.0644 46.2637C58.4339 46.4283 58.762 46.6737 59.0246 46.9819C59.2871 47.2901 59.4775 47.6533 59.5818 48.0449C59.686 48.4365 59.7015 48.8466 59.627 49.2449C59.5526 49.6433 59.3901 50.0199 59.1515 50.3471C58.9129 50.6743 58.6042 50.9438 58.2482 51.1359C57.5789 51.4676 56.8192 51.5689 56.0867 51.4238C55.5243 51.3547 54.9995 51.1045 54.591 50.7108C54.328 50.3999 54.1481 50.027 54.0683 49.6272C53.9885 49.2274 54.0115 48.8138 54.135 48.4254C54.3085 47.7754 54.659 47.1867 55.1474 46.7251" fill="#744A3C"/>
<path d="M68.2575 31.5956C68.2999 32.0628 68.1588 32.5282 67.8641 32.8927C67.5694 33.2573 67.1445 33.4921 66.6797 33.5473C66.4533 33.5842 66.2218 33.5753 65.9988 33.5211C65.7759 33.467 65.566 33.3686 65.3816 33.2319C65.1972 33.0951 65.0419 32.9228 64.925 32.725C64.808 32.5272 64.7318 32.3079 64.7006 32.0801C64.6582 31.6129 64.7993 31.1475 65.094 30.783C65.3887 30.4184 65.8136 30.1836 66.2784 30.1284C66.5049 30.0908 66.7366 30.0993 66.9598 30.1532C67.183 30.2071 67.3931 30.3054 67.5777 30.4422C67.7622 30.5791 67.9175 30.7517 68.0343 30.9498C68.1511 31.1479 68.227 31.3675 68.2575 31.5956Z" fill="#263238"/>
<path d="M70.9571 27.3586C70.7565 27.61 69.3155 26.7141 67.3912 26.8741C65.4669 27.034 64.1262 28.1173 63.8982 27.8979C63.7888 27.8019 63.9803 27.3631 64.5594 26.8603C65.3479 26.2141 66.3161 25.8278 67.3319 25.7542C68.3333 25.6702 69.3355 25.9054 70.1956 26.4261C70.8112 26.8375 71.0574 27.2443 70.9571 27.3586Z" fill="#263238"/>
<path d="M50.77 33.1818C50.8136 33.6492 50.6729 34.1153 50.3781 34.4801C50.0832 34.8448 49.6575 35.0794 49.1922 35.1335C48.9658 35.1704 48.7343 35.1615 48.5114 35.1073C48.2884 35.0531 48.0786 34.9548 47.8942 34.8181C47.7097 34.6813 47.5545 34.509 47.4375 34.3112C47.3206 34.1134 47.2443 33.8941 47.2132 33.6663C47.1764 33.1997 47.3195 32.7368 47.6131 32.3729C47.9066 32.009 48.3281 31.7717 48.7909 31.71C49.0177 31.6731 49.2495 31.6822 49.4727 31.7366C49.6959 31.7911 49.906 31.8898 50.0905 32.027C50.275 32.1642 50.4301 32.3371 50.5469 32.5355C50.6636 32.7338 50.7394 32.9536 50.77 33.1818Z" fill="#263238"/>
<path d="M52.4569 29.3286C52.2517 29.5799 50.8108 28.6841 48.8865 28.8715C46.9621 29.0589 45.6261 30.1147 45.3981 29.8953C45.2841 29.7993 45.4756 29.356 46.0593 28.8578C46.8448 28.209 47.812 27.8208 48.8272 27.7471C49.8292 27.6616 50.8324 27.8985 51.6909 28.4235C52.3202 28.8075 52.5709 29.2143 52.4569 29.3286Z" fill="#263238"/>
<path d="M60.1589 43.1232C60.1589 43.0135 61.3217 42.7119 63.2415 42.3051C63.7294 42.2136 64.19 42.0765 64.2447 41.7337C64.2994 41.3909 64.0851 40.8515 63.7887 40.2985L62.0285 36.6418C59.5752 31.4585 57.7558 27.1802 57.9656 27.0797C58.1753 26.9791 60.3322 31.1066 62.7855 36.2899C63.3783 37.5697 63.9483 38.7901 64.4864 39.9465C64.7189 40.4904 65.0928 41.1029 64.9013 41.8617C64.8437 42.0414 64.746 42.2056 64.6156 42.3418C64.4852 42.478 64.3256 42.5827 64.1489 42.6479C63.8827 42.7447 63.6054 42.8076 63.3236 42.8353C61.3856 43.1461 60.1772 43.2512 60.1589 43.1232Z" fill="#263238"/>
<path d="M54.5957 44.9515C54.9058 44.9058 55.079 47.0038 56.9942 48.3477C58.9094 49.6915 61.0982 49.2618 61.153 49.5681C61.194 49.6961 60.697 50.0252 59.7485 50.1166C58.5232 50.2325 57.2966 49.9086 56.2874 49.2024C55.3158 48.5299 54.6424 47.5058 54.4087 46.3456C54.2582 45.4772 54.4498 44.9515 54.5957 44.9515Z" fill="#263238"/>
<path d="M51.8871 21.773C51.7412 22.3123 49.794 22.23 47.5551 22.6871C45.3161 23.1442 43.5377 23.9121 43.2003 23.4642C43.0452 23.2493 43.3234 22.7328 44.0211 22.1615C44.9538 21.457 46.0348 20.9755 47.1815 20.7537C48.3282 20.5319 49.5104 20.5756 50.6376 20.8817C51.4949 21.1376 51.9464 21.517 51.8871 21.773Z" fill="#263238"/>
<path d="M69.7578 21.9466C69.4523 22.4037 68.0888 22.0655 66.4883 22.1752C64.8877 22.2849 63.5653 22.71 63.2188 22.2757C63.0637 22.0655 63.2416 21.6084 63.7979 21.1467C64.5503 20.5833 65.453 20.2572 66.391 20.2099C67.329 20.1627 68.2598 20.3966 69.0647 20.8816C69.6666 21.2839 69.8992 21.7227 69.7578 21.9466Z" fill="#263238"/>
<path d="M32.1286 37.6382C31.9097 37.5605 23.305 35.8099 24.2762 44.3573C25.2475 52.9047 33.6334 50.1851 33.6197 49.9383C33.606 49.6915 32.1286 37.6382 32.1286 37.6382Z" fill="#94675A"/>
<path d="M30.6375 47.0038C30.5965 46.981 30.5007 47.1272 30.2636 47.2735C29.9252 47.4638 29.5268 47.5162 29.1509 47.4198C28.2116 47.1912 27.2859 45.8383 27.0716 44.2979C26.967 43.5658 27.0262 42.8195 27.2449 42.1131C27.2952 41.8357 27.412 41.5748 27.5851 41.3527C27.7583 41.1305 27.9826 40.9539 28.2389 40.8378C28.4027 40.7741 28.5836 40.7699 28.7501 40.8258C28.9167 40.8817 29.0585 40.9943 29.1509 41.1441C29.2969 41.3726 29.2604 41.5509 29.306 41.56C29.3516 41.5692 29.4747 41.3955 29.3653 41.0481C29.2932 40.8417 29.1533 40.6661 28.9685 40.5499C28.8424 40.4739 28.7025 40.4238 28.5568 40.4026C28.4112 40.3814 28.2628 40.3895 28.1204 40.4265C27.4637 40.5453 26.9393 41.2218 26.7113 41.9302C26.4322 42.7148 26.3493 43.556 26.4697 44.3802C26.7159 46.0988 27.7829 47.6163 29.0597 47.8357C29.2969 47.8762 29.5401 47.8627 29.7714 47.7962C30.0027 47.7298 30.2161 47.612 30.3958 47.4518C30.6466 47.2369 30.6831 47.0176 30.6375 47.0038Z" fill="#744A3C"/>
<path d="M66.1507 7.74063C67.4412 6.82647 62.448 2.68531 58.8547 1.55632C53.4329 -0.148591 45.4164 -0.623954 40.8473 1.30036C35.3434 3.62233 30.9566 7.04587 28.7268 12.5994C26.497 18.1529 26.1641 24.3418 27.0578 30.2565C27.3269 32.0848 27.7464 33.9131 28.8818 35.3438C30.2909 37.0715 32.6849 37.9811 32.9494 40.5408C32.9993 41.4676 33.3834 42.3447 34.0301 43.009C35.8541 44.7002 37.637 42.849 38.3393 41.1258C39.8076 37.5515 39.5294 33.5337 39.2513 29.6988C39.0415 27.0615 38.6767 23.0757 37.7191 20.612C37.3563 19.6973 37.1349 18.7324 37.0625 17.7507C36.9055 16.1477 37.2093 14.5332 37.938 13.0976C38.1392 12.7865 38.3681 12.4943 38.622 12.2246C39.5516 11.2458 40.7198 10.5269 42.0113 10.1389C43.3028 9.75092 44.6729 9.7073 45.9864 10.0123C51.0389 11.1185 55.2614 13.3764 60.5784 10.3871C61.7549 9.72436 62.2428 8.62737 62.7444 7.96917C63.4922 6.98645 65.1794 6.88589 66.1279 7.67207L66.1507 7.74063Z" fill="#263238"/>
<path d="M33.9024 53.0327C33.9435 53.0327 34.0164 53.2155 33.866 53.4898C33.7455 53.6702 33.5895 53.8241 33.4076 53.942C33.2257 54.0599 33.0217 54.1393 32.808 54.1754C32.1948 54.3081 31.5552 54.2392 30.984 53.9789C30.2637 53.6582 29.6974 53.0675 29.4063 52.3334C29.1173 51.6021 29.0995 50.7912 29.3561 50.048C29.5738 49.473 29.9522 48.9731 30.446 48.6082C31.3169 47.9957 32.0055 48.0551 32.0055 48.1511C32.0055 48.2471 31.4264 48.3933 30.7652 49.0104C30.3466 49.3944 30.0541 49.8966 29.9263 50.4507C29.7985 51.0048 29.8413 51.5848 30.0492 52.114C30.2667 52.6329 30.6434 53.069 31.1246 53.3591C31.6058 53.6492 32.1667 53.7782 32.726 53.7275C33.0607 53.7082 33.3804 53.5816 33.638 53.3664C33.8112 53.179 33.8751 53.0281 33.9024 53.0327Z" fill="#263238"/>
<path d="M47.318 100.386C47.318 100.386 46.2054 102.992 44.842 103.732C43.4785 104.473 38.914 108.943 37.6645 112.664C36.4151 116.384 35.8086 122.217 35.8086 122.217L45.9592 134.997C45.9592 134.997 51.0116 132.57 53.4148 130.38C55.6081 128.378 59.6939 124.438 62.0788 122.153C63.5073 120.78 64.6132 119.107 65.3164 117.253C65.4988 116.759 65.6036 116.38 65.5307 116.27C65.2844 115.9 64.6643 115.155 64.6643 115.155C64.6643 115.155 65.0382 113.541 64.418 112.549C63.7979 111.557 63.4285 110.936 63.4285 110.936C63.4285 110.936 64.3816 108.911 64.0122 107.919C63.7057 107.24 63.2356 106.648 62.6442 106.196C62.6442 106.196 69.5845 102.004 69.7076 100.766C69.8308 99.5271 70.0132 99.1888 68.5312 99.1888C67.0492 99.1888 58.4672 102.256 56.1143 103.618C53.7613 104.98 48.6906 107.339 48.6906 107.339C48.6906 107.339 51.153 101.131 47.318 100.386Z" fill="#94675A"/>
<path d="M48.6859 107.448C48.2822 107.7 47.8581 107.917 47.4183 108.097L44.322 109.574L41.2349 111.082C40.8169 111.311 40.3825 111.508 39.9353 111.672C40.3188 111.387 40.7279 111.139 41.1574 110.931C41.928 110.506 43.0087 109.944 44.2171 109.359C45.4255 108.774 46.5382 108.285 47.3499 107.946C47.7796 107.741 48.2267 107.574 48.6859 107.448Z" fill="#744A3C"/>
<path d="M63.465 105.62C63.3256 105.756 63.1728 105.877 63.009 105.981C62.7126 106.205 62.2748 106.516 61.7276 106.895C60.6378 107.649 59.1056 108.655 57.3819 109.715C55.6582 110.776 54.0577 111.672 52.8903 112.303C52.3067 112.618 51.8324 112.865 51.4995 113.029C51.3322 113.126 51.1548 113.204 50.9706 113.262C51.1202 113.14 51.2822 113.035 51.4539 112.947L52.8219 112.156C53.9711 111.489 55.5579 110.566 57.2725 109.51C58.987 108.454 60.5374 107.471 61.6501 106.767L62.9725 105.922C63.1245 105.802 63.2898 105.701 63.465 105.62Z" fill="#744A3C"/>
<path d="M63.5789 111.087C63.5789 111.087 63.4877 111.219 63.2917 111.425C63.0956 111.631 62.7992 111.919 62.4298 112.271C61.682 112.965 60.6058 113.889 59.3746 114.826C58.3167 115.626 57.2177 116.371 56.0823 117.056C55.6263 117.321 55.2843 117.513 55.0335 117.655C54.908 117.734 54.7732 117.797 54.6322 117.842C55.0686 117.509 55.5255 117.204 56.0002 116.928C56.8484 116.371 58.0066 115.58 59.2424 114.643C60.4781 113.706 61.5543 112.814 62.3249 112.152C62.7236 111.774 63.1422 111.419 63.5789 111.087Z" fill="#744A3C"/>
<path d="M64.6004 114.464C64.6615 114.609 64.6836 114.766 64.6642 114.922C64.6377 115.356 64.5029 115.778 64.272 116.147C63.9219 116.681 63.4768 117.145 62.9588 117.518C62.3933 117.947 61.7732 118.405 61.1348 118.889C59.8215 119.853 58.6267 120.717 57.7558 121.339C57.2998 121.645 56.9623 121.892 56.7161 122.057C56.592 122.152 56.4574 122.234 56.3148 122.299C56.415 122.178 56.5317 122.072 56.6614 121.983C56.8894 121.796 57.2314 121.526 57.6555 121.202C58.5036 120.553 59.6801 119.662 60.9934 118.697C62.3067 117.733 63.588 116.946 64.1489 116.046C64.3885 115.706 64.5448 115.315 64.6049 114.903C64.6095 114.634 64.5821 114.464 64.6004 114.464Z" fill="#744A3C"/>
<path d="M114.998 134.398L103.187 107.572H103.114L114.555 88.3743L110.98 84.5622L92.2432 81.1615C92.2432 81.1615 91.0074 76.289 89.4798 76.3896C87.9522 76.4902 87.0585 76.9518 86.8943 83.2458C86.8943 83.2458 86.1601 93.9918 85.9413 96.7754C85.7634 99.0974 85.8911 104.774 85.9413 106.374C85.9413 106.479 85.9413 106.594 85.9413 106.726V106.804C86.3015 113.176 93.4333 145.569 94.6053 149.367C95.2026 151.278 96.94 152.174 98.8734 152.567C100.814 152.924 102.813 152.773 104.678 152.127C106.543 151.482 108.21 150.364 109.516 148.883C112.148 145.948 115.271 141.446 115.444 136.482L114.998 134.398ZM86.8852 83.6069C86.8852 83.712 86.8852 83.7943 86.8852 83.8629C86.8806 83.8035 86.8852 83.6938 86.8852 83.6069Z" fill="#94675A"/>
<path d="M114.646 51.3324H91.5271C90.1042 51.3324 88.9507 52.4886 88.9507 53.9149V104.272C88.9507 105.698 90.1042 106.854 91.5271 106.854H114.646C116.069 106.854 117.223 105.698 117.223 104.272V53.9149C117.223 52.4886 116.069 51.3324 114.646 51.3324Z" fill="#263238"/>
<path d="M114.519 53.7961H91.8372C90.9733 53.7961 90.2731 54.4981 90.2731 55.3639V103.993C90.2731 104.859 90.9733 105.561 91.8372 105.561H114.519C115.382 105.561 116.083 104.859 116.083 103.993V55.3639C116.083 54.4981 115.382 53.7961 114.519 53.7961Z" fill="white"/>
<path d="M107.656 52.9414H99.3932C99.3509 52.942 99.3089 52.9341 99.2697 52.9183C99.2304 52.9025 99.1947 52.879 99.1646 52.8493C99.1344 52.8195 99.1105 52.784 99.0942 52.7449C99.0779 52.7058 99.0695 52.6638 99.0695 52.6214C99.0695 52.579 99.0779 52.537 99.0942 52.4979C99.1105 52.4588 99.1344 52.4233 99.1646 52.3935C99.1947 52.3637 99.2304 52.3403 99.2697 52.3245C99.3089 52.3086 99.3509 52.3008 99.3932 52.3014H107.656C107.741 52.3014 107.822 52.3351 107.882 52.3951C107.942 52.4551 107.975 52.5365 107.975 52.6214C107.975 52.7062 107.942 52.7876 107.882 52.8476C107.822 52.9076 107.741 52.9414 107.656 52.9414Z" fill="#455A64"/>
<path d="M116.21 76.2845C116.884 76.1858 117.571 76.2927 118.182 76.5914C118.794 76.8902 119.301 77.3667 119.639 77.959C119.976 78.5512 120.127 79.2316 120.073 79.9114C120.019 80.5911 119.761 81.2387 119.334 81.7695C119.805 81.9681 120.216 82.289 120.522 82.6993C120.829 83.1095 121.021 83.5943 121.078 84.1037C121.136 84.613 121.057 85.1286 120.85 85.5972C120.643 86.0658 120.315 86.4707 119.899 86.77C121.614 87.5699 122.147 90.061 121.08 91.6242C120.013 93.1874 117.733 93.6582 116.019 92.8629C115.682 92.7344 115.377 92.5312 115.13 92.2685C114.882 92.0057 114.696 91.6901 114.587 91.3454C114.527 90.971 114.565 90.5875 114.698 90.2325C114.831 89.8775 115.053 89.5632 115.344 89.3205C115.931 88.842 116.598 88.4707 117.314 88.2235C116.631 88.0803 116.012 87.7217 115.548 87.2004C115.083 86.6791 114.798 86.0224 114.732 85.3265C114.667 84.6305 114.826 83.932 115.185 83.333C115.545 82.7341 116.086 82.2662 116.73 81.998C116.214 81.8213 115.76 81.4992 115.422 81.0704C115.084 80.6415 114.876 80.1241 114.824 79.5801C114.742 78.4922 115.235 76.7736 116.192 76.2845" fill="#94675A"/>
<path d="M92.398 73.7888C90.4798 74.7514 88.8322 76.1797 87.6055 77.9437L87.9885 83.0676C89.5982 82.0665 91.1395 80.8553 92.0925 79.2189C93.0456 77.5826 93.3237 75.4434 92.398 73.7888Z" fill="#94675A"/>
<path d="M197.629 183.708C197.629 183.776 153.707 183.827 99.5438 183.827C45.3801 183.827 1.4491 183.776 1.4491 183.708C1.4491 183.639 45.3573 183.589 99.5438 183.589C153.73 183.589 197.629 183.644 197.629 183.708Z" fill="#263238"/>
<path d="M111.006 82.6028L110.932 82.3778C110.755 81.8521 110.175 81.3038 109.643 81.1594L107.672 80.6209C107.138 80.4755 106.375 80.6711 105.984 81.0621L105.271 81.7755C102.679 81.0749 100.647 79.042 99.9472 76.45L100.66 75.7366C101.051 75.3455 101.247 74.5841 101.101 74.0496L100.564 72.0775C100.419 71.544 99.8696 70.9643 99.345 70.7894L99.12 70.7137C98.5945 70.5388 97.8449 70.7157 97.4539 71.1068L96.387 72.1748C96.1964 72.3645 96.0746 72.9068 96.0746 72.9088C96.0373 76.2967 97.3655 79.5608 99.7615 81.9572C102.152 84.3478 105.403 85.6743 108.78 85.6458C108.798 85.6458 109.356 85.5259 109.547 85.3363L110.613 84.2692C111.004 83.8781 111.181 83.1284 111.006 82.6028Z" fill="#209455"/>
<mask id="path-113-inside-1" fill="white">
<path d="M103.864 72.9008C104.445 72.6449 105.092 72.5799 105.713 72.715C106.333 72.8502 106.894 73.1786 107.316 73.653C107.738 74.1274 107.998 74.7234 108.06 75.3552C108.121 75.9869 107.981 76.622 107.659 77.1689L107.029 76.7981C107.273 76.3843 107.379 75.904 107.333 75.426C107.286 74.9481 107.089 74.4973 106.77 74.1384C106.451 73.7796 106.026 73.5311 105.557 73.4289C105.088 73.3267 104.598 73.3759 104.159 73.5695L103.864 72.9008Z"/>
</mask>
<path d="M103.864 72.9008C104.445 72.6449 105.092 72.5799 105.713 72.715C106.333 72.8502 106.894 73.1786 107.316 73.653C107.738 74.1274 107.998 74.7234 108.06 75.3552C108.121 75.9869 107.981 76.622 107.659 77.1689L107.029 76.7981C107.273 76.3843 107.379 75.904 107.333 75.426C107.286 74.9481 107.089 74.4973 106.77 74.1384C106.451 73.7796 106.026 73.5311 105.557 73.4289C105.088 73.3267 104.598 73.3759 104.159 73.5695L103.864 72.9008Z" stroke="black" stroke-width="2" mask="url(#path-113-inside-1)"/>
<mask id="path-114-inside-2" fill="white">
<path d="M103.058 71.0706C104.026 70.6441 105.105 70.5356 106.138 70.7609C107.172 70.9862 108.108 71.5335 108.811 72.3242C109.514 73.1149 109.948 74.1081 110.05 75.1611C110.153 76.2141 109.919 77.2725 109.382 78.184L108.802 77.8423C109.267 77.0535 109.469 76.1376 109.38 75.2264C109.291 74.3153 108.916 73.4557 108.308 72.7715C107.699 72.0873 106.89 71.6137 105.995 71.4187C105.101 71.2238 104.167 71.3176 103.33 71.6867L103.058 71.0706Z"/>
</mask>
<path d="M103.058 71.0706C104.026 70.6441 105.105 70.5356 106.138 70.7609C107.172 70.9862 108.108 71.5335 108.811 72.3242C109.514 73.1149 109.948 74.1081 110.05 75.1611C110.153 76.2141 109.919 77.2725 109.382 78.184L108.802 77.8423C109.267 77.0535 109.469 76.1376 109.38 75.2264C109.291 74.3153 108.916 73.4557 108.308 72.7715C107.699 72.0873 106.89 71.6137 105.995 71.4187C105.101 71.2238 104.167 71.3176 103.33 71.6867L103.058 71.0706Z" stroke="black" stroke-width="2" mask="url(#path-114-inside-2)"/>
<mask id="path-115-inside-3" fill="white">
<path d="M102.252 69.2403C103.607 68.6432 105.117 68.4914 106.564 68.8068C108.011 69.1221 109.321 69.8884 110.305 70.9954C111.29 72.1023 111.897 73.4929 112.041 74.9671C112.185 76.4412 111.857 77.923 111.105 79.1991L110.539 78.8656C111.22 77.7092 111.517 76.3666 111.387 75.0308C111.257 73.695 110.706 72.435 109.814 71.4319C108.923 70.4289 107.736 69.7345 106.424 69.4487C105.113 69.163 103.745 69.3005 102.517 69.8416L102.252 69.2403Z"/>
</mask>
<path d="M102.252 69.2403C103.607 68.6432 105.117 68.4914 106.564 68.8068C108.011 69.1221 109.321 69.8884 110.305 70.9954C111.29 72.1023 111.897 73.4929 112.041 74.9671C112.185 76.4412 111.857 77.923 111.105 79.1991L110.539 78.8656C111.22 77.7092 111.517 76.3666 111.387 75.0308C111.257 73.695 110.706 72.435 109.814 71.4319C108.923 70.4289 107.736 69.7345 106.424 69.4487C105.113 69.163 103.745 69.3005 102.517 69.8416L102.252 69.2403Z" stroke="black" stroke-width="2" mask="url(#path-115-inside-3)"/>
</g>
<defs>
<clipPath id="clip0">
<rect width="197.259" height="183.827" fill="white" transform="translate(0.370483)"/>
</clipPath>
</defs>
</svg>
