<svg xmlns="http://www.w3.org/2000/svg" width="32" height="32" viewBox="0 0 32 32">
    <defs>
        <style>
            .cls-2{fill:#fff}
        </style>
    </defs>
    <g id="whatsapp" transform="translate(0.188)">
        <rect id="Retângulo_4" width="32" height="32" fill="#1bd741" rx="16" transform="translate(-0.188)"/>
        <g id="Grupo_5" transform="translate(7.304 6.235)">
            <path id="Caminho_9" d="M68.494 86.681l1.284-4.562A9.155 9.155 0 1 1 73.2 85.47zm4.945-2.881l.28.171a7.6 7.6 0 1 0-2.448-2.393l.189.294-.74 2.627z" class="cls-2" transform="translate(-68.494 -68.321)"/>
            <path id="Caminho_10" d="M149.656 152.859l-.594-.032a.719.719 0 0 0-.511.175 2.707 2.707 0 0 0-.89 1.364 4.135 4.135 0 0 0 .959 3.241 9.643 9.643 0 0 0 5.2 3.778 2.533 2.533 0 0 0 2.145-.265 1.919 1.919 0 0 0 .835-1.218l.095-.443a.308.308 0 0 0-.172-.344l-2.008-.926a.308.308 0 0 0-.373.092l-.788 1.022a.226.226 0 0 1-.254.076 6.175 6.175 0 0 1-3.341-2.859.228.228 0 0 1 .029-.254l.754-.872a.308.308 0 0 0 .05-.322l-.866-2.025a.308.308 0 0 0-.27-.188z" class="cls-2" transform="translate(-143.046 -147.963)"/>
        </g>
    </g>
</svg>
