<svg width="176" height="203" viewBox="0 0 176 203" fill="none" xmlns="http://www.w3.org/2000/svg">
<ellipse cx="88" cy="115.296" rx="88" ry="87.7039" fill="#E6EAF7"/>
<mask id="mask0" style="mask-type:alpha" maskUnits="userSpaceOnUse" x="0" y="27" width="176" height="176">
<ellipse cx="88" cy="115.296" rx="88" ry="87.7039" fill="white"/>
</mask>
<g mask="url(#mask0)">
<path d="M124.958 29.392C122.868 27.072 120.319 24.8705 119.631 21.8307C119.002 19.0365 120.047 15.9035 118.62 13.3633C116.853 10.3066 112.324 9.97639 110.192 7.14829C109.155 5.78505 108.824 3.99844 107.804 2.62673C106.105 0.289736 102.758 -0.286044 99.8521 0.0865194C96.9465 0.459083 94.1768 1.50904 91.2627 1.77999C87.2696 2.11022 83.1321 0.873981 79.3089 2.06788C75.0609 3.38032 72.5546 7.1483 69.8444 10.8062L66.3101 15.0399C65.5886 15.772 64.7976 16.4327 63.9482 17.0128C62.4529 18.0035 60.7283 18.7062 59.4454 19.9594C58.7962 20.6565 58.2953 21.4774 57.9729 22.3726C57.6506 23.2678 57.5135 24.2188 57.5698 25.1682C57.6262 26.1176 57.8749 27.0459 58.3009 27.8969C58.7269 28.748 59.3214 29.5043 60.0486 30.1202C58.5225 30.6666 57.213 31.6875 56.3135 33.0322C55.414 34.377 54.9721 35.9743 55.053 37.5884C55.3243 39.3334 55.8064 41.0393 56.4888 42.6689C57.041 44.3623 57.3894 46.2251 56.7012 47.8593C56.013 49.4935 53.9485 50.6366 52.3937 49.7814C52.6927 50.9252 53.2436 51.9883 54.0063 52.8935C54.769 53.7986 55.7244 54.5231 56.8031 55.0143C55.9648 55.8847 54.826 56.4053 53.6172 56.4706C56.9646 64.0151 65.8428 67.8762 74.1179 67.8C82.3929 67.7238 90.2602 64.4808 97.9065 61.297L120.098 55.2005C122.052 54.7264 122.825 52.347 122.766 50.3488C122.706 48.3505 122.171 46.276 122.859 44.4216C123.811 41.8814 126.776 40.4419 127.761 37.8848C128.874 34.9128 127.048 31.7121 124.958 29.392Z" fill="#F28080"/>
<path d="M92.9623 5.63265L91.7388 5.58185C78.4767 5.78506 71.2466 17.1228 71.8159 30.3235L71.3231 75.7932C71.2782 79.7553 72.7613 83.5834 75.4663 86.4873C78.1713 89.3912 81.8918 91.1492 85.8596 91.3985C87.914 91.5289 89.974 91.2505 91.9193 90.5795C93.8647 89.9085 95.6565 88.8583 97.1906 87.4902C98.7246 86.1221 99.9701 84.4634 100.855 82.6107C101.739 80.7581 102.244 78.7485 102.342 76.6992C102.461 74.3114 102.546 72.6348 102.554 72.6348C102.563 72.6348 115.349 71.2123 116.054 58.5536C116.394 52.4402 116.054 39.79 115.629 28.3421C115.406 22.4104 112.95 16.7799 108.75 12.5717C104.549 8.36342 98.9128 5.88601 92.9623 5.63265Z" fill="#FFBE9D"/>
<path d="M102.554 72.6349C96.6851 72.3692 91.0154 70.4327 86.2165 67.0549C86.2165 67.0549 89.6148 76.4706 102.359 75.8694L102.554 72.6349Z" fill="#EB996E"/>
<path d="M110.302 38.469C110.287 38.9407 110.087 39.3878 109.746 39.7151C109.405 40.0425 108.949 40.2242 108.476 40.2218C108.244 40.2357 108.012 40.2021 107.794 40.1233C107.576 40.0444 107.376 39.9218 107.208 39.7632C107.039 39.6045 106.905 39.4131 106.813 39.2007C106.721 38.9884 106.674 38.7595 106.674 38.5283C106.69 38.0566 106.889 37.6095 107.231 37.2822C107.572 36.9549 108.028 36.7731 108.501 36.7756C108.733 36.7617 108.965 36.7952 109.183 36.8741C109.401 36.953 109.6 37.0755 109.769 37.2342C109.938 37.3928 110.072 37.5842 110.164 37.7966C110.256 38.009 110.303 38.2378 110.302 38.469Z" fill="#2D2F34"/>
<path d="M112.69 33.4817C112.452 33.7103 111.126 32.635 109.172 32.5588C107.218 32.4826 105.774 33.4055 105.545 33.143C105.443 33.0329 105.689 32.618 106.335 32.1947C107.203 31.6458 108.222 31.3795 109.249 31.4326C110.264 31.4732 111.24 31.835 112.036 32.4656C112.622 32.9483 112.8 33.3462 112.69 33.4817Z" fill="#2D2F34"/>
<path d="M91.7726 38.4691C91.7549 38.9415 91.5536 39.3886 91.2111 39.7157C90.8686 40.0428 90.4119 40.2243 89.9375 40.2218C89.7076 40.2286 89.4787 40.1901 89.2637 40.1087C89.0488 40.0272 88.852 39.9043 88.6848 39.7471C88.5175 39.5898 88.383 39.4012 88.2889 39.1921C88.1948 38.983 88.143 38.7574 88.1364 38.5283C88.1561 38.0574 88.3584 37.6124 88.7007 37.2871C89.043 36.9618 89.4985 36.7815 89.9715 36.7841C90.2023 36.7702 90.4336 36.8035 90.6511 36.8819C90.8686 36.9602 91.0677 37.082 91.2364 37.2398C91.405 37.3975 91.5395 37.5879 91.6317 37.7993C91.7239 38.0107 91.7719 38.2386 91.7726 38.4691Z" fill="#2D2F34"/>
<path d="M93.5231 33.4563C93.2852 33.6765 91.9513 32.6096 90.0057 32.5249C88.0602 32.4402 86.6074 33.3716 86.378 33.1176C86.276 33.0075 86.5224 32.5842 87.1681 32.1608C88.039 31.617 89.0556 31.3511 90.0822 31.3988C91.1001 31.4399 92.0787 31.8015 92.8774 32.4318C93.4551 32.9144 93.642 33.3462 93.5231 33.4563Z" fill="#2D2F34"/>
<path d="M99.8865 48.7061C100.93 48.4323 102.002 48.2872 103.081 48.2742C103.582 48.2742 104.058 48.1641 104.16 47.8339C104.224 47.3212 104.129 46.8013 103.888 46.3437L102.58 42.491C100.762 37.0211 99.4702 32.5249 99.6911 32.4572C99.912 32.3895 101.569 36.7671 103.378 42.237C103.82 43.5918 104.236 44.8816 104.627 46.1066C104.92 46.7192 104.983 47.4159 104.806 48.071C104.725 48.2426 104.607 48.394 104.46 48.5141C104.313 48.6342 104.141 48.7201 103.956 48.7653C103.677 48.8246 103.392 48.8502 103.107 48.8415C101.118 48.8669 99.8865 48.8246 99.8865 48.7061Z" fill="#2D2F34"/>
<path d="M94.0839 49.8068C94.3982 49.8068 94.3132 51.9152 96.0634 53.4986C97.8136 55.082 100.074 54.938 100.082 55.1921C100.082 55.3275 99.5637 55.5816 98.6037 55.5646C97.3483 55.5387 96.1433 55.0673 95.2053 54.2352C94.3133 53.4447 93.7649 52.3394 93.6761 51.1531C93.6761 50.281 93.931 49.7899 94.0839 49.8068Z" fill="#2D2F34"/>
<path d="M72.4529 39.7476C72.2405 39.646 63.8296 36.8009 63.7361 45.4715C63.6426 54.1421 72.3935 52.4486 72.4105 52.1946C72.4275 51.9405 72.4529 39.7476 72.4529 39.7476Z" fill="#FFBE9D"/>
<path d="M69.7932 48.8838C69.7508 48.8838 69.6403 48.9854 69.3769 49.104C69.0148 49.2513 68.6091 49.2513 68.247 49.104C67.3294 48.7568 66.5478 47.2919 66.5478 45.717C66.5323 44.9726 66.6862 44.2344 66.9981 43.5578C67.0813 43.2876 67.2292 43.0417 67.429 42.8411C67.6288 42.6405 67.8745 42.4912 68.145 42.4063C68.3199 42.3603 68.5056 42.3776 68.6689 42.4551C68.8322 42.5326 68.9627 42.6653 69.0371 42.8296C69.1561 43.0752 69.0966 43.253 69.1391 43.2615C69.1815 43.27 69.326 43.126 69.2665 42.7619C69.2202 42.5473 69.1 42.3555 68.9267 42.22C68.8082 42.1257 68.672 42.0561 68.526 42.0154C68.3801 41.9747 68.2274 41.9636 68.0771 41.9829C67.7194 42.0508 67.385 42.2086 67.1055 42.4412C66.826 42.6738 66.6107 42.9736 66.4798 43.3123C66.099 44.059 65.9093 44.888 65.9276 45.7255C65.9276 47.4698 66.8367 49.1124 68.0941 49.4935C68.3261 49.5635 68.5709 49.5809 68.8106 49.5442C69.0502 49.5076 69.2786 49.4179 69.4789 49.2818C69.7678 49.0955 69.8187 48.9007 69.7932 48.8838Z" fill="#EB996E"/>
<path d="M72.1643 14.3286C73.5385 11.8457 75.4762 9.71736 77.8226 8.11361C80.2952 6.03894 83.1328 4.43975 86.1911 3.3973C88.5756 2.56364 91.1023 2.20924 93.6251 2.35458C96.1479 2.49991 98.6168 3.1421 100.889 4.24404C102.542 5.06657 103.968 6.27859 105.044 7.77492C108.162 9.70548 111.263 13.3041 110.031 13.9815L108.332 12.161C108.332 12.161 107.584 13.7105 104.432 16.0899C104.36 16.1446 104.283 16.1928 104.202 16.2338C103.921 16.4391 103.616 16.6097 103.293 16.7418L103.115 16.8519C99.4023 18.0882 96.9894 17.5886 93.2937 16.3015C90.7449 15.4548 88.4085 13.9646 85.9277 12.9146C83.7423 12.9099 81.6294 13.6951 79.9806 15.1246C79.7216 15.3397 79.4827 15.5777 79.2669 15.8358C78.854 16.4687 78.5847 17.1837 78.4776 17.931C78.3704 18.6783 78.4282 19.4399 78.6467 20.1627C78.9866 21.636 79.6662 22.9992 80.091 24.4471C80.8641 27.1059 80.7452 29.934 80.6178 32.6943C80.4393 36.5893 80.2185 40.6452 78.2984 44.0321C77.4488 45.624 75.4522 47.2074 73.8635 45.5139C73.2236 44.7839 72.8998 43.831 72.9629 42.8636C73.0734 40.2218 70.7455 39.0025 69.5645 37.0889C68.6557 35.454 68.2038 33.6059 68.2562 31.7375C67.9849 25.6917 69.3338 19.6829 72.1643 14.3286Z" fill="#2D2F34"/>
<path d="M72.4525 74.9464C72.4525 74.9464 82.911 84.6161 91.339 84.5653C99.767 84.5145 101.789 80.1115 101.789 80.1115L106.538 86.1318C106.538 86.1318 106.98 125.412 107.507 126.089C108.034 126.767 102.554 130.196 102.554 130.196L74.585 90.1876L72.4525 74.9464Z" fill="#F28080"/>
<path d="M131.686 219.247C131.686 219.247 135.646 217.952 136.725 214.294C137.804 210.636 134.847 174.074 134.847 174.074L132.621 171.872L134.32 170.509V158.9L130.361 134.446C130.361 134.446 126.461 100.857 121.729 98.4518L114.389 131.712L119.784 209.713L131.686 219.247Z" fill="#FAFAFC"/>
<path d="M101.789 80.1115L102.341 76.7246C103.616 77.7153 106.997 82.9904 106.997 82.9904C111.644 86.9024 121.338 96.7922 123.097 100.662C125.646 106.157 125.858 131.381 125.858 131.381L124.618 256.139L40.8987 256.266L42.2496 199.747L44.9088 88.2402L65.4605 77.9354L70.9659 71.8982L105.587 128.13L105.341 90.2639C105.321 86.5806 104.072 83.0085 101.789 80.1115Z" fill="#FAFAFC"/>
<path d="M13.508 182.414C11.3354 178.175 10.8968 173.261 12.2846 168.706C16.9914 153.024 31.6384 104.489 34.3061 98.4264C37.2372 91.7965 45.5887 87.8507 45.5887 87.8507L58.4431 121.5L55.1722 137.182L43.3968 170.695L77.8563 210.873L53.2181 231.059C53.2181 231.059 16.0823 187.283 13.576 182.533L13.508 182.414Z" fill="#FAFAFC"/>
<path d="M106.981 256.241C106.968 256.128 106.968 256.015 106.981 255.902V254.895V251.05C106.981 247.663 107.032 242.846 107.066 236.885C107.15 224.929 107.354 208.409 107.32 190.162C107.32 181.042 107.218 172.38 107.066 164.446C106.981 160.492 106.896 156.733 106.811 153.219C106.726 149.705 106.505 146.445 106.369 143.456C106.114 137.529 105.902 132.668 105.757 129.307C105.698 127.656 105.647 126.36 105.613 125.454C105.613 125.031 105.613 124.701 105.613 124.455C105.598 124.343 105.598 124.229 105.613 124.116C105.613 124.116 105.613 124.226 105.613 124.455C105.613 124.684 105.613 125.031 105.681 125.454C105.74 126.352 105.817 127.647 105.91 129.298C106.088 132.685 106.352 137.486 106.666 143.439C106.819 146.428 106.981 149.696 107.167 153.21C107.354 156.724 107.354 160.484 107.456 164.438C107.626 172.338 107.728 181.034 107.745 190.162C107.745 208.409 107.524 224.929 107.363 236.885C107.269 242.812 107.193 247.68 107.133 251.05C107.133 252.702 107.074 253.997 107.057 254.895C107.057 255.318 107.057 255.657 107.057 255.902C107.043 256.017 107.017 256.131 106.981 256.241Z" fill="#2D2F34"/>
<path d="M65.4611 77.91C65.571 78.0231 65.6679 78.1481 65.7499 78.2826L66.5231 79.4172C67.2027 80.4418 68.1628 81.8897 69.3692 83.6932L79.165 98.6466L79.0461 98.5535L86.3866 100.382L86.65 100.45L86.531 100.696C85.6814 102.296 84.8318 103.973 83.9822 105.675C83.8548 105.937 83.7189 106.199 83.5914 106.437V106.208L99.6912 127.021C101.705 129.663 103.344 131.813 104.508 133.329L105.8 135.022L106.123 135.48C106.199 135.581 106.233 135.64 106.225 135.649C106.173 135.607 106.127 135.559 106.089 135.505L105.723 135.082L104.373 133.388L99.4449 127.156L83.2431 106.42L83.1581 106.31L83.2261 106.191C83.345 105.945 83.481 105.683 83.6169 105.42L86.1657 100.442L86.3016 100.755L78.9696 98.9091H78.8847L78.8422 98.8413L69.1738 83.8033L66.4296 79.4596L65.716 78.2995C65.6216 78.1761 65.5364 78.0459 65.4611 77.91Z" fill="#2D2F34"/>
<path d="M106.182 135.683C106.223 135.487 106.286 135.297 106.369 135.115C106.497 134.751 106.735 134.269 106.972 133.532C107.474 132.152 108.119 130.145 108.816 127.605C110.201 122.524 111.781 115.344 113.166 107.283V107.427L112.52 106.386L109.054 100.746L108.782 100.306L109.283 100.425L113.404 101.415L113.158 101.678C111.331 96.2418 109.759 91.5847 108.638 88.2401L107.38 84.3621L107.083 83.3037C107.037 83.2952 106.996 83.27 106.968 83.233C106.94 83.1959 106.927 83.1498 106.931 83.1035C106.935 83.0572 106.957 83.0142 106.991 82.9829C107.025 82.9516 107.07 82.9342 107.117 82.9342C107.164 82.9342 107.208 82.9516 107.243 82.9829C107.277 83.0142 107.299 83.0572 107.303 83.1035C107.307 83.1498 107.294 83.1959 107.266 83.233C107.238 83.27 107.197 83.2952 107.151 83.3037C107.253 83.5746 107.372 83.9048 107.533 84.3197C107.865 85.2596 108.332 86.5467 108.901 88.1555C110.065 91.4916 111.688 96.1317 113.574 101.551L113.701 101.898L113.336 101.813L109.215 100.848L109.445 100.526C110.566 102.33 111.73 104.218 112.928 106.157L113.574 107.199V107.275V107.351C112.431 114.197 110.933 120.98 109.088 127.673C108.349 130.213 107.652 132.236 107.1 133.6C106.845 134.294 106.582 134.802 106.429 135.158C106.357 135.337 106.274 135.512 106.182 135.683Z" fill="#2D2F34"/>
<path d="M125.408 118.714C125.527 118.714 125.629 137.833 125.629 161.415C125.629 184.997 125.527 204.124 125.408 204.124C125.289 204.124 125.187 185.005 125.187 161.415C125.187 137.825 125.281 118.714 125.408 118.714Z" fill="#2D2F34"/>
<path d="M32.4794 206.36C32.4794 206.36 32.6239 206.495 32.8702 206.783L33.9917 208.07C34.9687 209.23 36.3961 210.898 38.2397 213.024C41.8759 217.333 47.084 223.489 53.3964 230.974H53.1501L77.7458 210.754V211.068L69.8106 201.821L43.3118 170.865L43.2438 170.78V170.678C46.8206 160.619 49.7857 152.253 51.8672 146.386L54.3055 139.612L54.9597 137.842C55.1126 137.436 55.1976 137.232 55.1976 137.232C55.1976 137.232 55.1466 137.452 55.0107 137.859C54.8747 138.265 54.6708 138.883 54.4159 139.654C53.8637 141.237 53.0736 143.54 52.0711 146.428L43.5751 170.771V170.585L70.125 201.5L78.0517 210.746L78.1961 210.915L78.0262 211.059L53.3879 231.22L53.252 231.33L53.1416 231.195L38.0952 213.142L33.9577 208.129L32.8787 206.809C32.5729 206.521 32.4794 206.36 32.4794 206.36Z" fill="#2D2F34"/>
<path d="M39.7608 92.4738C39.8789 92.4536 39.9995 92.4536 40.1176 92.4738C40.3555 92.4738 40.7038 92.4738 41.1541 92.4738C42.4243 92.5238 43.6871 92.691 44.9263 92.9734C49.0538 93.8868 52.8385 95.9434 55.8447 98.9065C58.8508 101.87 60.9561 105.619 61.9182 109.722C62.2218 110.952 62.4067 112.208 62.4704 113.473C62.4704 113.922 62.4704 114.269 62.4704 114.506C62.4907 114.624 62.4907 114.744 62.4704 114.861C62.3893 114.408 62.3382 113.95 62.3175 113.49C62.1829 112.244 61.9557 111.01 61.6378 109.798C60.61 105.784 58.5039 102.125 55.546 99.2143C52.5881 96.3036 48.8903 94.2514 44.8499 93.2782C43.6334 92.9714 42.395 92.7591 41.1456 92.6431C40.6806 92.6192 40.2178 92.5626 39.7608 92.4738Z" fill="#2D2F34"/>
<path d="M30.1261 173.227C30.6246 172.754 31.199 172.368 31.8253 172.084C34.7408 170.532 38.0881 169.982 41.3492 170.517C42.0279 170.586 42.6892 170.772 43.3033 171.068C38.7925 170.174 34.1094 170.944 30.1261 173.235V173.227Z" fill="#2D2F34"/>
<path d="M91.3396 136.157C91.655 136.415 91.9075 136.742 92.0782 137.111C92.2489 137.481 92.3333 137.884 92.3252 138.291C92.2402 139.603 92.3252 148.545 92.3252 148.545C92.3252 148.545 92.6565 149.857 91.3396 149.857V136.157Z" fill="#2D2F34"/>
<path d="M91.6025 134.701H88.8498V139.188H91.6025V134.701Z" fill="#2D2F34"/>
<path d="M89.4019 135.217H91.1011V133.524C91.1011 133.299 91.0116 133.084 90.8522 132.925C90.6929 132.766 90.4768 132.677 90.2515 132.677C90.0262 132.677 89.8101 132.766 89.6507 132.925C89.4914 133.084 89.4019 133.299 89.4019 133.524V135.217Z" fill="#2D2F34"/>
<path d="M68.086 138.917C68.086 138.79 74.2626 138.697 81.8749 138.697C89.4873 138.697 95.6724 138.79 95.6724 138.917C95.6724 139.044 89.4958 139.137 81.8749 139.137C74.2541 139.137 68.086 139.036 68.086 138.917Z" fill="#2D2F34"/>
<g opacity="0.2">
<path opacity="0.2" d="M103.829 132.643L102.554 131.441L79.3434 109.324L81.8837 102.076H77.8566L69.7854 84.5654L78.9951 98.7566L86.3356 100.594L83.3789 106.335" fill="black"/>
</g>
<g opacity="0.2">
<path opacity="0.2" d="M84.4747 162.448C86.7749 162.364 89.0129 161.681 90.9656 160.467C92.7099 159.062 93.9914 157.169 94.6443 155.031C94.4836 156.996 94.1221 158.939 93.5653 160.831C92.9917 162.595 91.8473 164.119 90.3114 165.166C88.5103 166.284 86.2588 166.402 84.1433 166.233C81.3012 166.005 78.5166 165.31 75.9023 164.175C74.0417 163.371 72.0961 162.101 71.7138 160.12C75.6975 161.971 80.0912 162.773 84.4747 162.448Z" fill="black"/>
</g>
</g>
<mask id="mask1" style="mask-type:alpha" maskUnits="userSpaceOnUse" x="49" y="0" width="79" height="84">
<rect x="49.1819" width="78.7242" height="83.0446" fill="white"/>
</mask>
<g mask="url(#mask1)">
<path d="M124.957 29.392C122.867 27.072 120.318 24.8705 119.63 21.8307C119.001 19.0365 120.046 15.9035 118.619 13.3633C116.852 10.3066 112.323 9.97639 110.191 7.14829C109.154 5.78505 108.823 3.99844 107.804 2.62673C106.104 0.289736 102.757 -0.286044 99.8514 0.0865194C96.9458 0.459083 94.1762 1.50904 91.262 1.77999C87.2689 2.11022 83.1314 0.873981 79.3082 2.06788C75.0603 3.38032 72.554 7.1483 69.8437 10.8062L66.3094 15.0399C65.5879 15.772 64.7969 16.4327 63.9476 17.0128C62.4523 18.0035 60.7276 18.7062 59.4447 19.9594C58.7955 20.6565 58.2946 21.4774 57.9723 22.3726C57.6499 23.2678 57.5128 24.2188 57.5692 25.1682C57.6255 26.1176 57.8742 27.0459 58.3002 27.897C58.7262 28.748 59.3207 29.5043 60.0479 30.1202C58.5218 30.6666 57.2123 31.6875 56.3128 33.0323C55.4133 34.377 54.9714 35.9743 55.0523 37.5884C55.3236 39.3334 55.8057 41.0393 56.4881 42.6689C57.0404 44.3623 57.3887 46.2252 56.7005 47.8594C56.0123 49.4936 53.9478 50.6367 52.3931 49.7814C52.6921 50.9253 53.2429 51.9883 54.0056 52.8935C54.7683 53.7986 55.7237 54.5231 56.8025 55.0143C55.9641 55.8847 54.8253 56.4053 53.6165 56.4707C56.9639 64.0151 65.8422 67.8762 74.1172 67.8C82.3923 67.7238 90.2595 64.4808 97.9059 61.297L120.097 55.2006C122.051 54.7264 122.824 52.3471 122.765 50.3488C122.705 48.3505 122.17 46.276 122.858 44.4216C123.81 41.8814 126.775 40.442 127.761 37.8848C128.874 34.9128 127.047 31.7121 124.957 29.392Z" fill="#2D2F34"/>
<path d="M92.9616 5.63265L91.7382 5.58185C78.476 5.78506 71.246 17.1228 71.8152 30.3235L71.3224 75.7932C71.2775 79.7553 72.7607 83.5834 75.4657 86.4873C78.1707 89.3912 81.8911 91.1492 85.859 91.3985C87.9134 91.5289 89.9733 91.2505 91.9187 90.5795C93.864 89.9085 95.6559 88.8583 97.19 87.4902C98.724 86.1221 99.9695 84.4634 100.854 82.6107C101.738 80.7581 102.244 78.7485 102.341 76.6992C102.46 74.3114 102.545 72.6348 102.554 72.6348C102.562 72.6348 115.348 71.2123 116.054 58.5536C116.393 52.4402 116.054 39.79 115.629 28.3421C115.406 22.4104 112.949 16.7799 108.749 12.5717C104.549 8.36342 98.9121 5.88601 92.9616 5.63265Z" fill="#FFBE9D"/>
<path d="M102.553 72.6349C96.6844 72.3692 91.0147 70.4327 86.2158 67.0549C86.2158 67.0549 89.6141 76.4706 102.358 75.8694L102.553 72.6349Z" fill="#EB996E"/>
<path d="M110.302 38.469C110.286 38.9407 110.087 39.3878 109.745 39.7151C109.404 40.0425 108.948 40.2242 108.475 40.2218C108.243 40.2357 108.011 40.2021 107.793 40.1233C107.575 40.0444 107.376 39.9218 107.207 39.7632C107.038 39.6045 106.904 39.4131 106.812 39.2007C106.72 38.9884 106.673 38.7595 106.674 38.5283C106.689 38.0566 106.889 37.6095 107.23 37.2822C107.571 36.9549 108.027 36.7731 108.5 36.7756C108.732 36.7617 108.964 36.7952 109.182 36.8741C109.4 36.953 109.6 37.0755 109.768 37.2342C109.937 37.3928 110.072 37.5842 110.163 37.7966C110.255 38.009 110.302 38.2378 110.302 38.469Z" fill="#2D2F34"/>
<path d="M112.689 33.4817C112.451 33.7103 111.126 32.635 109.172 32.5588C107.218 32.4826 105.773 33.4055 105.544 33.143C105.442 33.0329 105.688 32.618 106.334 32.1947C107.203 31.6458 108.221 31.3795 109.248 31.4326C110.264 31.4732 111.24 31.835 112.035 32.4656C112.621 32.9483 112.799 33.3462 112.689 33.4817Z" fill="#2D2F34"/>
<path d="M91.7719 38.4691C91.7543 38.9415 91.5529 39.3886 91.2104 39.7157C90.8679 40.0428 90.4112 40.2243 89.9368 40.2218C89.707 40.2286 89.478 40.1901 89.2631 40.1087C89.0481 40.0272 88.8514 39.9043 88.6841 39.7471C88.5168 39.5898 88.3823 39.4012 88.2882 39.1921C88.1941 38.983 88.1423 38.7574 88.1357 38.5283C88.1555 38.0574 88.3578 37.6124 88.7 37.2871C89.0423 36.9618 89.4978 36.7815 89.9708 36.7841C90.2016 36.7702 90.4329 36.8035 90.6504 36.8819C90.8679 36.9602 91.0671 37.082 91.2357 37.2398C91.4043 37.3975 91.5388 37.5879 91.631 37.7993C91.7232 38.0107 91.7712 38.2386 91.7719 38.4691Z" fill="#2D2F34"/>
<path d="M93.5224 33.4563C93.2845 33.6765 91.9506 32.6096 90.0051 32.5249C88.0595 32.4402 86.6067 33.3716 86.3773 33.1176C86.2754 33.0076 86.5218 32.5842 87.1674 32.1608C88.0383 31.617 89.055 31.3511 90.0815 31.3988C91.0994 31.4399 92.078 31.8015 92.8767 32.4318C93.4544 32.9144 93.6413 33.3463 93.5224 33.4563Z" fill="#2D2F34"/>
<path d="M99.8859 48.7061C100.929 48.4323 102.002 48.2872 103.08 48.2742C103.582 48.2742 104.057 48.1641 104.159 47.8339C104.223 47.3212 104.128 46.8013 103.887 46.3437L102.579 42.491C100.761 37.0211 99.4696 32.5249 99.6905 32.4572C99.9114 32.3895 101.568 36.7671 103.378 42.237C103.82 43.5918 104.236 44.8816 104.627 46.1066C104.919 46.7192 104.983 47.4159 104.805 48.071C104.724 48.2426 104.606 48.394 104.459 48.5141C104.312 48.6342 104.14 48.7201 103.955 48.7653C103.676 48.8246 103.391 48.8502 103.106 48.8415C101.118 48.8669 99.8859 48.8246 99.8859 48.7061Z" fill="#2D2F34"/>
<path d="M94.0832 49.8068C94.3976 49.8068 94.3126 51.9152 96.0627 53.4986C97.8129 55.082 100.073 54.938 100.081 55.1921C100.081 55.3275 99.5631 55.5816 98.603 55.5646C97.3476 55.5387 96.1426 55.0673 95.2046 54.2352C94.3127 53.4447 93.7643 52.3394 93.6754 51.1531C93.6754 50.281 93.9303 49.7899 94.0832 49.8068Z" fill="#2D2F34"/>
<path d="M93.7429 25.5478C93.522 26.0728 91.585 25.7341 89.2826 25.9119C86.9802 26.0898 85.094 26.6317 84.8137 26.149C84.6862 25.9119 85.0346 25.4293 85.7992 24.9467C86.8198 24.3527 87.9668 24.0074 89.1466 23.9391C90.3249 23.8438 91.5087 24.0356 92.596 24.4979C93.4456 24.8789 93.8534 25.3023 93.7429 25.5478Z" fill="#2D2F34"/>
<path d="M112.162 26.9788C111.797 27.4022 110.463 26.8857 108.857 26.801C107.252 26.7163 105.85 26.9703 105.561 26.4962C105.433 26.2591 105.663 25.8272 106.283 25.4377C107.102 24.9526 108.054 24.7391 109.002 24.8281C109.951 24.8856 110.859 25.2346 111.601 25.8272C112.154 26.3099 112.324 26.7671 112.162 26.9788Z" fill="#2D2F34"/>
<path d="M72.4523 39.7476C72.2399 39.646 63.8289 36.8009 63.7355 45.4715C63.642 54.1421 72.3928 52.4486 72.4098 52.1946C72.4268 51.9405 72.4523 39.7476 72.4523 39.7476Z" fill="#FFBE9D"/>
<path d="M69.7926 48.8838C69.7501 48.8838 69.6397 48.9854 69.3763 49.104C69.0141 49.2513 68.6085 49.2513 68.2463 49.104C67.3288 48.7568 66.5471 47.2919 66.5471 45.717C66.5316 44.9726 66.6856 44.2344 66.9974 43.5578C67.0807 43.2876 67.2286 43.0417 67.4284 42.8411C67.6281 42.6405 67.8739 42.4912 68.1444 42.4063C68.3193 42.3603 68.5049 42.3776 68.6682 42.4551C68.8316 42.5326 68.962 42.6653 69.0365 42.8296C69.1554 43.0752 69.0959 43.253 69.1384 43.2615C69.1809 43.27 69.3253 43.126 69.2658 42.7619C69.2195 42.5473 69.0993 42.3555 68.926 42.22C68.8076 42.1257 68.6713 42.0561 68.5254 42.0154C68.3794 41.9747 68.2267 41.9636 68.0764 41.9829C67.7187 42.0508 67.3843 42.2086 67.1048 42.4412C66.8253 42.6738 66.61 42.9736 66.4792 43.3123C66.0983 44.059 65.9086 44.888 65.9269 45.7255C65.9269 47.4698 66.836 49.1124 68.0934 49.4935C68.3254 49.5635 68.5703 49.5809 68.8099 49.5442C69.0496 49.5076 69.2779 49.4179 69.4782 49.2818C69.7671 49.0955 69.8181 48.9007 69.7926 48.8838Z" fill="#EB996E"/>
<path d="M72.1637 14.3286C73.5379 11.8457 75.4755 9.71736 77.822 8.11361C80.2946 6.03894 83.1321 4.43975 86.1904 3.3973C88.575 2.56364 91.1017 2.20924 93.6245 2.35458C96.1473 2.49991 98.6161 3.1421 100.888 4.24404C102.541 5.06657 103.967 6.27859 105.043 7.77492C108.161 9.70548 111.262 13.3041 110.03 13.9815L108.331 12.161C108.331 12.161 107.583 13.7105 104.431 16.0899C104.359 16.1446 104.282 16.1928 104.202 16.2338C103.921 16.4391 103.615 16.6097 103.293 16.7418L103.114 16.8519C99.4017 18.0882 96.9888 17.5886 93.293 16.3015C90.7443 15.4548 88.4079 13.9646 85.9271 12.9146C83.7417 12.9099 81.6287 13.6951 79.9799 15.1246C79.7209 15.3397 79.4821 15.5777 79.2663 15.8358C78.8534 16.4687 78.584 17.1837 78.4769 17.931C78.3698 18.6783 78.4275 19.4399 78.6461 20.1627C78.9859 21.636 79.6656 22.9992 80.0904 24.4471C80.8635 27.1059 80.7445 29.934 80.6171 32.6943C80.4387 36.5893 80.2178 40.6452 78.2977 44.0321C77.4481 45.624 75.4516 47.2074 73.8629 45.5139C73.2229 44.7839 72.8991 43.831 72.9623 42.8636C73.0727 40.2218 70.7448 39.0025 69.5639 37.0889C68.655 35.454 68.2032 33.6059 68.2555 31.7375C67.9842 25.6917 69.3332 19.6829 72.1637 14.3286Z" fill="#2D2F34"/>
<path d="M72.4519 74.9464C72.4519 74.9464 82.9104 84.6161 91.3384 84.5653C99.7663 84.5145 101.788 80.1115 101.788 80.1115L106.538 86.1318C106.538 86.1318 106.979 125.412 107.506 126.089C108.033 126.767 102.553 130.196 102.553 130.196L74.5844 90.1877L72.4519 74.9464Z" fill="#F28080"/>
<path d="M101.788 80.1115L102.341 76.7246C103.615 77.7153 106.997 82.9904 106.997 82.9904C111.644 86.9024 121.338 96.7922 123.096 100.662C125.645 106.157 125.858 131.381 125.858 131.381L124.617 256.139L40.8981 256.266L42.2489 199.747L44.9082 88.2402L65.4599 77.9354L70.9652 71.8982L105.586 128.13L105.34 90.2639C105.321 86.5806 104.071 83.0085 101.788 80.1115Z" fill="#FAFAFC"/>
<path d="M65.4604 77.91C65.5704 78.023 65.6672 78.148 65.7493 78.2825L66.5224 79.4172C67.2021 80.4417 68.1621 81.8896 69.3686 83.6932L79.1644 98.6465L79.0455 98.5534L86.386 100.382L86.6493 100.45L86.5304 100.696C85.6808 102.296 84.8312 103.973 83.9816 105.674C83.8542 105.937 83.7182 106.199 83.5908 106.436V106.208L99.6906 127.021C101.704 129.662 103.344 131.813 104.508 133.329L105.799 135.022L106.122 135.48C106.198 135.581 106.232 135.64 106.224 135.649C106.172 135.607 106.126 135.559 106.088 135.505L105.723 135.082L104.372 133.388L99.4442 127.156L83.2424 106.42L83.1575 106.309L83.2254 106.191C83.3444 105.945 83.4803 105.683 83.6162 105.42L86.1651 100.442L86.301 100.755L78.969 98.909H78.884L78.8415 98.8413L69.1731 83.8032L66.429 79.4595L65.7153 78.2995C65.6209 78.176 65.5357 78.0458 65.4604 77.91Z" fill="#2D2F34"/>
<path d="M106.182 135.683C106.223 135.487 106.285 135.297 106.369 135.115C106.496 134.751 106.734 134.269 106.972 133.532C107.473 132.152 108.119 130.145 108.815 127.605C110.2 122.524 111.781 115.344 113.165 107.283V107.427L112.52 106.386L109.053 100.746L108.781 100.306L109.283 100.425L113.403 101.415L113.157 101.678C111.33 96.2418 109.759 91.5847 108.637 88.2401L107.38 84.3621L107.082 83.3037C107.036 83.2952 106.995 83.27 106.967 83.233C106.939 83.1959 106.926 83.1498 106.93 83.1035C106.934 83.0572 106.956 83.0142 106.99 82.9829C107.025 82.9516 107.07 82.9342 107.116 82.9342C107.163 82.9342 107.208 82.9516 107.242 82.9829C107.277 83.0142 107.298 83.0572 107.302 83.1035C107.307 83.1498 107.293 83.1959 107.265 83.233C107.237 83.27 107.196 83.2952 107.15 83.3037C107.252 83.5746 107.371 83.9048 107.533 84.3197C107.864 85.2596 108.331 86.5467 108.9 88.1555C110.064 91.4916 111.687 96.1317 113.573 101.551L113.701 101.898L113.335 101.813L109.215 100.848L109.444 100.526C110.566 102.33 111.73 104.218 112.927 106.157L113.573 107.199V107.275V107.351C112.43 114.197 110.933 120.98 109.087 127.673C108.348 130.213 107.651 132.237 107.099 133.6C106.844 134.294 106.581 134.802 106.428 135.158C106.356 135.337 106.274 135.512 106.182 135.683Z" fill="#F28080"/>
</g>
</svg>
