<svg width="176" height="205" viewBox="0 0 176 205" fill="none" xmlns="http://www.w3.org/2000/svg">
<ellipse cx="88" cy="116" rx="88" ry="89" fill="#E6EAF7"/>
<mask id="mask0" style="mask-type:alpha" maskUnits="userSpaceOnUse" x="0" y="27" width="176" height="178">
<ellipse cx="88" cy="116" rx="88" ry="89" fill="white"/>
</mask>
<g mask="url(#mask0)">
<path d="M130.401 152.607C130.401 152.607 149.567 147.969 150.202 147.168L134.436 106.095C132.907 101.875 130.461 98.0561 127.279 94.9193C124.097 91.7824 120.259 89.4075 116.049 87.9696C110.07 85.8642 103.762 84.8787 97.4336 85.0613L70.8199 83.637C63.4916 84.0951 56.3388 86.0966 49.8198 89.5131C40.8726 94.2308 33.8835 102.023 30.1101 111.487L18.1755 141.636L48.3067 148.002L49.453 180.397L44.9137 225.094H128.01L127.434 154.25L130.401 152.607Z" fill="#FAFAFC"/>
<g opacity="0.3">
<path opacity="0.3" d="M146.921 141.802C146.921 141.894 141.975 143.537 135.785 145.465C129.595 147.393 124.604 148.89 124.578 148.778C124.552 148.665 129.517 147.042 135.713 145.107C141.91 143.173 146.894 141.709 146.921 141.802Z" fill="white"/>
</g>
<path d="M59.9531 112.931C59.7603 112.712 59.5892 112.475 59.4422 112.222C59.1409 111.759 58.6758 111.096 58.0732 110.301C57.3682 109.377 56.6139 108.492 55.8134 107.651C54.8339 106.616 53.7926 105.643 52.6955 104.737C51.5848 103.843 50.4234 103.015 49.2173 102.259C48.2267 101.652 47.2057 101.097 46.1583 100.596C45.2675 100.166 44.5273 99.8475 44.0098 99.6422C43.7328 99.5544 43.4668 99.4343 43.2172 99.2844C43.5028 99.3371 43.7833 99.4147 44.0557 99.5163C44.803 99.7635 45.5376 100.049 46.2566 100.371C47.328 100.848 48.3712 101.388 49.381 101.987C50.6068 102.736 51.7839 103.564 52.9051 104.465C54.0155 105.382 55.0638 106.373 56.0426 107.433C56.8364 108.301 57.5779 109.217 58.2632 110.175C58.7368 110.812 59.1742 111.476 59.5732 112.163C59.7269 112.404 59.8543 112.662 59.9531 112.931Z" fill="#2D2F34"/>
<path d="M56.0292 122.736C56.1209 122.736 55.1908 132.633 53.9528 144.823C52.7148 157.012 51.634 166.889 51.5423 166.876C51.4506 166.863 52.3742 156.979 53.6187 144.79C54.8633 132.6 55.9571 122.723 56.0292 122.736Z" fill="#2D2F34"/>
<path d="M121.46 104.439C121.283 103.784 121.141 103.121 121.035 102.451C120.702 100.843 120.264 99.258 119.725 97.7078C119.171 96.1589 118.514 94.6495 117.759 93.1898C117.417 92.5998 117.107 91.9917 116.829 91.368C116.829 91.368 116.973 91.5071 117.177 91.7986C117.38 92.0901 117.655 92.5273 117.976 93.0706C118.796 94.5118 119.489 96.0237 120.046 97.5886C120.601 99.1529 121.015 100.765 121.284 102.405C121.382 103.034 121.441 103.544 121.467 103.902C121.489 104.08 121.487 104.261 121.46 104.439Z" fill="#2D2F34"/>
<path d="M123.137 138.986C123.058 138.667 123.005 138.341 122.98 138.012C122.895 137.39 122.797 136.476 122.685 135.363C122.469 133.11 122.24 129.983 122.122 126.532C122.004 123.08 122.01 119.94 122.069 117.675C122.102 116.542 122.135 115.628 122.174 115.025C122.174 114.695 122.207 114.367 122.273 114.044C122.31 114.37 122.324 114.697 122.312 115.025V117.688C122.312 119.947 122.345 123.074 122.462 126.525C122.58 129.977 122.77 133.09 122.928 135.349C123 136.429 123.059 137.337 123.111 137.999C123.151 138.327 123.16 138.657 123.137 138.986Z" fill="#2D2F34"/>
<path d="M82.892 133.203C75.9053 133.614 68.8977 133.481 61.9312 132.805V135.575H82.892V133.203Z" fill="#F28080"/>
<g opacity="0.3">
<path opacity="0.3" d="M103.774 87.3998C103.819 87.5351 103.847 87.6752 103.859 87.8172L104.043 89.0361C104.174 90.1093 104.357 91.686 104.508 93.6734C104.822 97.6482 105.097 103.312 105.163 109.997V110.248L104.934 110.142C100.755 108.082 96.0711 105.843 91.1781 103.379L67.3548 91.3217L60.1496 87.6317L58.1845 86.6181L57.6867 86.3399C57.6257 86.3147 57.5684 86.2813 57.5164 86.2405C57.5805 86.2561 57.6422 86.2806 57.6997 86.3134L58.2172 86.5519L60.1823 87.5125L67.4269 91.103L91.3287 103.067C96.2021 105.532 100.879 107.777 105.084 109.851L104.862 109.99C104.789 103.319 104.56 97.6615 104.298 93.68C104.18 91.6926 104.023 90.1226 103.925 89.0428C103.866 88.526 103.82 88.1153 103.787 87.8172C103.776 87.6784 103.771 87.5391 103.774 87.3998Z" fill="#2D2F34"/>
</g>
<g opacity="0.3">
<path opacity="0.3" d="M53.6978 144.624C53.5798 144.622 53.4628 144.601 53.3507 144.564L52.3747 144.332L48.7917 143.411C45.7655 142.623 41.5864 141.557 36.9619 140.424C32.3375 139.291 28.1322 138.31 25.0863 137.608L21.4837 136.774L20.5077 136.535C20.3929 136.512 20.281 136.476 20.1736 136.429C20.2888 136.413 20.4056 136.413 20.5208 136.429L21.5099 136.608C22.368 136.767 23.606 137.019 25.1387 137.337C28.1977 137.999 32.4095 138.92 37.0405 140.053C41.6716 141.186 45.8441 142.299 48.831 143.14C50.3376 143.564 51.5559 143.915 52.3878 144.167L53.3507 144.465C53.4718 144.505 53.5883 144.558 53.6978 144.624Z" fill="white"/>
</g>
<path d="M100.086 82.385C100.086 82.2856 101.888 83.2395 103.624 85.843C105.359 88.4465 106.938 92.4677 107.835 97.105C108.248 99.2917 108.504 101.506 108.602 103.73C108.602 104.75 108.648 105.717 108.602 106.625C108.556 107.532 108.543 108.374 108.464 109.142C108.386 109.911 108.307 110.593 108.241 111.209C108.176 111.825 108.058 112.329 107.986 112.753C107.945 113.207 107.839 113.654 107.672 114.077C107.631 113.635 107.649 113.19 107.724 112.753L107.862 111.202C107.901 110.586 107.94 109.877 107.979 109.142C108.019 108.407 107.979 107.546 108.038 106.651C108.097 105.757 107.993 104.796 107.96 103.796C107.827 101.617 107.558 99.4484 107.154 97.3038C106.469 93.404 105.14 89.6484 103.224 86.1942C102.608 85.1746 101.876 84.2319 101.043 83.3853C100.706 83.0696 100.387 82.7357 100.086 82.385Z" fill="#2D2F34"/>
<path d="M70.3026 82.577C69.8984 83.2779 69.436 83.9428 68.9204 84.5644C67.671 86.3795 66.6356 88.336 65.8353 90.3941C64.6874 93.4597 63.9195 96.6573 63.5492 99.9138C63.0711 103.584 62.8942 107.691 62.5994 111.991C62.3047 116.29 62.3702 120.384 62.3636 124.114C62.3571 127.843 62.3636 131.209 62.3636 134.051C62.3636 136.893 62.2916 139.172 62.213 140.755C62.2205 141.579 62.1392 142.4 61.9706 143.206C61.8317 142.395 61.779 141.571 61.8134 140.748C61.7676 139.139 61.7151 136.86 61.6431 134.057C61.571 131.255 61.4793 127.87 61.4269 124.12C61.3745 120.371 61.3615 116.264 61.5842 111.931C61.8069 107.598 62.082 103.511 62.6191 99.7813C63.0451 96.4575 63.9041 93.2052 65.1737 90.1093C66.0482 88.029 67.2057 86.0824 68.6126 84.3259C69.0945 83.6678 69.6631 83.0794 70.3026 82.577Z" fill="#2D2F34"/>
<path d="M114.346 137.953C114.24 137.229 114.196 136.498 114.215 135.767C114.176 134.356 114.143 132.315 114.117 129.804C114.117 128.539 114.117 127.155 114.078 125.684C114.038 124.213 114.078 122.61 113.993 120.98C113.948 119.292 113.362 117.665 112.322 116.343C111.751 115.673 111.049 115.131 110.259 114.75C109.47 114.369 108.611 114.158 107.737 114.13C105.951 114.135 104.231 114.81 102.91 116.025C101.689 117.178 100.84 118.676 100.473 120.325C100.067 121.901 99.8964 123.484 99.6541 124.962L98.999 129.029C98.606 131.514 98.2719 133.528 98.0296 134.912C97.9397 135.639 97.7907 136.357 97.5841 137.058C97.5812 136.326 97.6426 135.594 97.7676 134.872C97.9313 133.475 98.1868 131.454 98.5208 128.956C98.6911 127.704 98.8811 126.34 99.0776 124.876C99.2741 123.412 99.4444 121.835 99.8506 120.179C100.236 118.399 101.151 116.781 102.471 115.541C103.9 114.214 105.764 113.469 107.704 113.448C108.679 113.472 109.637 113.703 110.518 114.127C111.398 114.55 112.18 115.156 112.813 115.906C113.939 117.336 114.57 119.1 114.608 120.927C114.707 122.623 114.608 124.193 114.608 125.677C114.608 127.161 114.576 128.539 114.556 129.798C114.556 132.315 114.484 134.356 114.438 135.76C114.466 136.492 114.436 137.226 114.346 137.953Z" fill="#2D2F34"/>
<path d="M108.025 107.665C107.809 109.983 107.075 112.587 105.484 114.289C106.879 113.984 108.325 114.012 109.709 114.369C108.713 112.382 108.556 109.93 108.582 107.685" fill="#2D2F34"/>
<path d="M114.366 122.736C114.242 122.736 114.17 121.623 113.331 120.086C112.841 119.206 112.195 118.424 111.425 117.781C110.5 116.994 109.39 116.46 108.203 116.23C107.009 116.032 105.784 116.155 104.652 116.588C103.717 116.935 102.856 117.462 102.117 118.138C100.847 119.304 100.427 120.364 100.316 120.305C100.205 120.245 100.513 119.132 101.783 117.787C102.524 117.012 103.416 116.403 104.403 115.999C105.634 115.488 106.981 115.332 108.294 115.548C109.6 115.799 110.813 116.403 111.805 117.297C112.614 118.009 113.27 118.882 113.731 119.861C114.537 121.557 114.425 122.742 114.366 122.736Z" fill="#2D2F34"/>
<path d="M131.895 197.78C135.825 197.78 139.283 194.938 141.117 191.46C142.951 187.982 143.423 183.935 143.6 179.993C144.079 169.541 142.812 159.082 139.853 149.056L122.77 152.07L127.427 198.635L131.895 197.78Z" fill="#FFBE9D"/>
<path d="M62.7498 203.577L118.414 201.53L131.914 135.561L73.2826 138.854L62.7498 203.577Z" fill="#2D2F34"/>
<path d="M91.4007 137.721L92.2391 136.038L96.6802 135.714C96.6802 135.714 97.8069 132.766 104.161 132.461C109.846 132.196 110.056 135.111 110.056 135.111H113.121V136.522L91.4007 137.721Z" fill="#5F646F"/>
<path d="M122.436 182.318L126.654 181.079C127.448 180.844 128.286 180.805 129.097 180.967C130.087 181.163 130.998 181.649 131.717 182.365C133.113 183.756 135.366 186.055 135.687 186.744C136.158 187.744 136.158 189.48 135.687 190.116C135.215 190.752 136.722 194.044 136.532 195.137C136.433 196.07 136.145 196.972 135.687 197.787C135.307 198.244 135.687 199.807 134.744 200.987C134.201 201.672 133.603 202.31 132.955 202.895C132.955 202.895 121.361 203.444 120.235 202.895C119.108 202.345 117.123 200.245 117.123 200.245C117.123 200.245 116.089 198.33 117.687 198.145L111.091 195.594C110.708 195.453 110.394 195.167 110.215 194.796C110.037 194.425 110.008 193.999 110.134 193.607C110.181 193.462 110.257 193.328 110.358 193.214C110.458 193.1 110.58 193.008 110.717 192.944C110.717 192.944 107.757 191.997 107.069 191.692C105.7 191.083 105.182 187.863 108.019 188.274C109.512 188.492 111.536 188.936 111.536 188.936C111.536 188.936 110.455 187.161 111.968 186.101C112.885 185.439 117.012 186.24 117.012 186.24L122.436 182.325V182.318Z" fill="#FFBE9D"/>
<path d="M123.904 199.913C122.74 199.949 121.58 199.774 120.478 199.397C119.339 199.139 118.264 198.648 117.321 197.953C117.366 197.873 118.749 198.555 120.596 199.066C122.443 199.576 123.917 199.834 123.904 199.913Z" fill="#EB996E"/>
<path d="M121.381 195.747C119.566 195.455 117.77 195.05 116.003 194.534C114.208 194.134 112.441 193.619 110.711 192.991C114.32 193.687 117.883 194.608 121.381 195.747Z" fill="#EB996E"/>
<path d="M122.77 191.6C118.887 190.918 115.046 190.009 111.268 188.877C115.151 189.558 118.991 190.467 122.77 191.6Z" fill="#EB996E"/>
<path d="M127.047 186.26C126.569 186.473 126.071 186.635 125.56 186.744L123.923 187.168L122.953 187.413C122.59 187.505 122.214 187.541 121.84 187.519C121.473 187.492 121.109 187.432 120.752 187.34L119.776 187.115L118.139 186.717C117.624 186.62 117.121 186.467 116.639 186.26C117.161 186.275 117.679 186.348 118.185 186.479L119.848 186.803C120.512 186.962 121.183 187.086 121.859 187.174C122.525 187.161 123.186 187.056 123.824 186.863L125.482 186.505C125.993 186.366 126.518 186.284 127.047 186.26Z" fill="#EB996E"/>
<path d="M127.788 188.506C127.827 188.506 127.984 188.625 128.109 188.943C128.277 189.366 128.293 189.835 128.154 190.268C128.022 190.697 127.75 191.069 127.381 191.321C127.1 191.507 126.89 191.533 126.871 191.494C126.851 191.454 127.526 191.043 127.827 190.169C127.939 189.619 127.926 189.05 127.788 188.506Z" fill="#EB996E"/>
<path d="M127.552 193.037C127.63 192.997 127.892 193.468 127.853 194.11C127.814 194.753 127.512 195.197 127.434 195.144C127.355 195.091 127.486 194.653 127.512 194.09C127.539 193.527 127.453 193.07 127.552 193.037Z" fill="#EB996E"/>
<path d="M127.617 197.953C127.702 197.919 127.879 198.237 127.794 198.655C127.709 199.072 127.434 199.317 127.362 199.231C127.29 199.145 127.401 198.913 127.46 198.569C127.519 198.224 127.526 197.979 127.617 197.953Z" fill="#F28080"/>
<path d="M128.881 185.988C128.51 186.03 128.134 186.012 127.768 185.935L126.576 185.776C126.108 185.679 125.629 185.654 125.154 185.704C124.702 185.81 124.274 186.006 123.896 186.28C123.53 186.525 123.241 186.803 122.907 186.982C122.598 187.214 122.225 187.343 121.84 187.353C121.84 187.293 122.239 187.181 122.776 186.777C123.43 186.123 124.23 185.639 125.108 185.366C125.374 185.339 125.642 185.339 125.907 185.366C126.176 185.366 126.392 185.445 126.621 185.485L127.807 185.71C128.176 185.751 128.538 185.845 128.881 185.988Z" fill="#EB996E"/>
<path d="M135.576 197.999C135.654 197.72 135.752 197.448 135.87 197.184C136.408 195.927 136.485 194.518 136.087 193.209C135.956 192.626 135.687 192.043 135.543 191.348C135.457 190.623 135.505 189.888 135.687 189.181C135.764 188.45 135.632 187.712 135.307 187.055C134.977 186.382 134.573 185.748 134.102 185.167C133.65 184.591 133.211 184.027 132.792 183.524C132.051 182.601 131.112 181.861 130.047 181.358C129.324 181.032 128.528 180.908 127.742 181C127.191 181.079 126.903 181.225 126.89 181.199C126.877 181.172 126.956 181.146 127.093 181.073C127.304 180.981 127.523 180.912 127.748 180.867C128.562 180.724 129.399 180.813 130.165 181.126C131.282 181.617 132.269 182.365 133.047 183.312C133.506 183.822 133.951 184.379 134.41 184.955C134.9 185.567 135.319 186.234 135.661 186.942C136.014 187.659 136.153 188.465 136.06 189.261C135.888 189.933 135.832 190.63 135.897 191.321C136.021 191.984 136.283 192.573 136.408 193.17C136.552 193.725 136.625 194.297 136.624 194.872C136.592 195.699 136.394 196.511 136.041 197.257C135.919 197.524 135.763 197.774 135.576 197.999Z" fill="#EB996E"/>
<path d="M96.6083 165.386L50.9072 172.726L52.9378 148.605L27.5228 143.637L24.4311 179.35L23.894 187.539C23.7172 190.266 24.2343 192.994 25.3959 195.461C26.5575 197.929 28.3248 200.055 30.5294 201.636C32.5395 203.077 34.8547 204.025 37.2905 204.402C39.7263 204.779 42.2155 204.576 44.56 203.809L54.3854 200.569L102.281 183.345" fill="#FFBE9D"/>
<path d="M124.263 160.397C124.295 160.206 124.285 160.01 124.233 159.823C124.182 159.636 124.09 159.463 123.965 159.316C123.84 159.168 123.685 159.051 123.51 158.971C123.335 158.891 123.145 158.851 122.953 158.854C120.379 158.854 113.423 158.854 110.966 159.589C107.927 160.457 96.6016 165.372 96.6016 165.372L101.403 183.259L118.781 183.445C118.781 183.445 125.128 180.497 125.206 179.218C125.2 178.418 125.148 177.62 125.049 176.826L126.969 175.786C129.824 173.958 127.99 170.44 127.99 170.44C127.99 170.44 129.955 169.327 130.06 167.313C130.108 166.724 129.989 166.132 129.718 165.608C129.447 165.084 129.034 164.649 128.527 164.352C128.527 164.352 129.314 161.517 127.872 160.755C126.431 159.993 123.942 160.967 123.942 160.967C124.108 160.818 124.221 160.617 124.263 160.397Z" fill="#FFBE9D"/>
<path d="M125.265 160.689C125.098 160.781 124.916 160.846 124.728 160.881C124.381 160.98 123.864 161.093 123.228 161.205C121.918 161.437 120.176 161.629 118.217 161.868C116.548 162.02 114.89 162.277 113.252 162.636C112.001 162.928 111.287 163.299 111.287 163.299C111.43 163.171 111.591 163.066 111.765 162.987C112.228 162.756 112.71 162.567 113.206 162.424C114.841 161.995 116.509 161.702 118.191 161.55C120.156 161.338 121.931 161.186 123.202 161.02C124.473 160.854 125.246 160.642 125.265 160.689Z" fill="#EB996E"/>
<path d="M128.534 164.279C128.163 164.556 127.749 164.769 127.309 164.909C126.282 165.31 125.224 165.622 124.145 165.843C122.881 166.108 121.735 166.28 120.87 166.393C120.424 166.483 119.969 166.519 119.514 166.499C119.514 166.386 121.545 166.015 124.047 165.505C125.112 165.285 126.166 165.01 127.204 164.683C127.635 164.509 128.08 164.374 128.534 164.279Z" fill="#EB996E"/>
<path d="M128.01 170.506C125.617 171.622 123.02 172.218 120.385 172.255C120.385 172.149 122.115 171.931 124.211 171.447C126.307 170.964 128.01 170.407 128.01 170.506Z" fill="#EB996E"/>
<path d="M126.975 175.82C125.149 176.758 123.129 177.251 121.08 177.257C123.048 176.79 125.013 176.311 126.975 175.82Z" fill="#EB996E"/>
<path d="M117.91 172.673C117.91 172.713 117.733 172.825 117.379 172.858C116.913 172.898 116.449 172.769 116.069 172.494C115.686 172.22 115.411 171.819 115.289 171.361C115.204 171.01 115.25 170.791 115.289 170.791C115.329 170.791 115.473 171.646 116.259 172.209C116.764 172.496 117.33 172.655 117.91 172.673Z" fill="#EB996E"/>
<path d="M117.53 178.198C117.53 178.29 116.875 178.33 116.252 177.794C115.63 177.257 115.597 176.555 115.709 176.561C115.82 176.568 115.977 177.091 116.482 177.535C116.986 177.979 117.53 178.098 117.53 178.198Z" fill="#EB996E"/>
<path d="M115.565 166.916C115.604 167.009 115.126 167.161 114.68 166.817C114.235 166.472 114.248 165.969 114.346 165.982C114.445 165.995 114.556 166.306 114.884 166.545C115.211 166.783 115.519 166.823 115.565 166.916Z" fill="#EB996E"/>
<path d="M96.608 165.386L96.7456 165.306L97.1583 165.114L98.7696 164.392C100.184 163.776 102.235 162.881 104.835 161.802C106.145 161.272 107.56 160.682 109.132 160.092C109.94 159.765 110.772 159.504 111.621 159.311C112.536 159.147 113.459 159.032 114.385 158.966C116.285 158.814 118.316 158.748 120.399 158.721H121.99H122.802C123.102 158.706 123.4 158.77 123.667 158.907C123.952 159.047 124.181 159.282 124.316 159.573C124.45 159.863 124.483 160.192 124.407 160.503C124.367 160.597 124.298 160.676 124.211 160.728L124.014 160.854L123.621 161.04C123.353 161.156 123.077 161.253 122.796 161.331C122.753 161.342 122.709 161.335 122.671 161.313C122.633 161.291 122.605 161.254 122.593 161.212C122.587 161.191 122.585 161.168 122.588 161.146C122.591 161.124 122.598 161.103 122.609 161.084C122.62 161.065 122.635 161.048 122.652 161.035C122.67 161.022 122.69 161.012 122.711 161.007C123.421 160.798 124.143 160.634 124.872 160.516C125.629 160.377 126.401 160.35 127.165 160.437C127.58 160.484 127.972 160.654 128.292 160.927C128.587 161.234 128.781 161.625 128.848 162.047C128.966 162.855 128.914 163.678 128.698 164.465L128.613 164.259C128.988 164.478 129.315 164.771 129.575 165.121C129.9 165.565 130.115 166.081 130.202 166.626C130.288 167.171 130.244 167.73 130.073 168.254C129.713 169.261 129.018 170.111 128.108 170.659L128.174 170.427C128.646 171.372 128.837 172.435 128.724 173.488C128.651 174.001 128.466 174.492 128.183 174.925C127.899 175.358 127.525 175.722 127.086 175.992L125.174 177.032L125.259 176.866C125.305 177.33 125.351 177.794 125.383 178.251C125.383 178.476 125.383 178.708 125.416 178.913C125.416 179.026 125.416 179.145 125.416 179.264C125.398 179.399 125.352 179.528 125.279 179.642C125.003 180.012 124.668 180.335 124.289 180.596C123.936 180.861 123.569 181.099 123.209 181.325C121.809 182.161 120.369 182.924 118.892 183.61H118.833L106.184 183.411L102.687 183.339L101.77 183.305C101.665 183.317 101.56 183.317 101.455 183.305C101.56 183.295 101.665 183.295 101.77 183.305H102.687H106.184L118.833 183.378H118.774C120.239 182.69 121.666 181.925 123.051 181.086C123.405 180.868 123.765 180.629 124.106 180.371C124.453 180.134 124.758 179.841 125.01 179.503C125.059 179.434 125.093 179.355 125.108 179.271V178.946C125.108 178.721 125.108 178.496 125.108 178.284C125.075 177.833 125.03 177.376 124.977 176.919C124.973 176.887 124.979 176.854 124.994 176.826C125.009 176.797 125.033 176.774 125.062 176.76L126.975 175.713C127.374 175.469 127.714 175.139 127.971 174.746C128.228 174.353 128.396 173.908 128.462 173.441C128.559 172.458 128.377 171.468 127.938 170.586C127.919 170.546 127.916 170.501 127.93 170.459C127.943 170.417 127.972 170.382 128.01 170.361C128.854 169.858 129.502 169.077 129.844 168.148C129.996 167.675 130.035 167.172 129.956 166.682C129.878 166.191 129.684 165.726 129.392 165.326C129.163 165.019 128.876 164.762 128.547 164.571C128.513 164.552 128.487 164.522 128.471 164.486C128.456 164.45 128.453 164.41 128.462 164.372C128.662 163.637 128.711 162.868 128.606 162.113C128.566 161.76 128.403 161.433 128.146 161.19C127.889 160.947 127.555 160.805 127.204 160.788C126.475 160.705 125.738 160.732 125.016 160.868C124.299 160.976 123.591 161.134 122.894 161.338L122.809 161.013C123.073 160.944 123.331 160.855 123.582 160.748C123.706 160.695 123.837 160.636 123.949 160.576C124.06 160.516 124.178 160.397 124.217 160.41C124.241 160.173 124.205 159.934 124.113 159.715C123.999 159.497 123.823 159.319 123.608 159.205C123.388 159.092 123.141 159.041 122.894 159.059H120.497C118.401 159.059 116.39 159.139 114.497 159.278C113.581 159.339 112.67 159.447 111.765 159.602C110.929 159.791 110.108 160.044 109.309 160.357C107.743 160.934 106.309 161.51 105.005 162.027L98.9072 164.524L97.2762 165.187L96.8504 165.359L96.608 165.386Z" fill="#EB996E"/>
<path d="M51.0907 172.673C49.85 173.511 48.7169 174.501 47.7173 175.621C46.8073 176.818 46.0503 178.127 45.464 179.516C45.4959 179.057 45.6113 178.608 45.8046 178.191C46.611 176.142 48.0399 174.404 49.8854 173.229C50.2518 172.974 50.6597 172.785 51.0907 172.673Z" fill="#EB996E"/>
<path d="M110.77 29.7451C110.316 23.8963 107.701 18.4348 103.445 14.4477C99.1895 10.4606 93.6057 8.2401 87.8048 8.22815H86.6061C73.7152 8.96349 67.1256 20.4441 68.213 33.4616L70.4335 85.631C70.4509 86.0569 70.5819 86.4702 70.8125 86.827C71.0431 87.1839 71.3648 87.471 71.7435 87.6582L100.683 101.391L99.8441 74.0113C99.8441 74.0113 112.244 72.0901 112.421 59.5562C112.473 53.5079 111.635 41.027 110.77 29.7451Z" fill="#FFBE9D"/>
<path d="M99.9164 73.9649C94.1614 73.9595 88.5294 72.2808 83.6914 69.1289C83.6914 69.1289 87.4905 78.1517 99.8574 77.0785L99.9164 73.9649Z" fill="#EB996E"/>
<path d="M106.394 37.5291C106.396 37.9952 106.219 38.4437 105.9 38.78C105.581 39.1162 105.145 39.3139 104.685 39.331C104.459 39.35 104.232 39.3228 104.018 39.2511C103.803 39.1795 103.605 39.0648 103.435 38.9139C103.265 38.7631 103.127 38.5791 103.028 38.3731C102.93 38.167 102.874 37.9431 102.864 37.7146C102.858 37.2487 103.034 36.7992 103.352 36.4624C103.67 36.1256 104.106 35.9283 104.567 35.9127C104.792 35.8947 105.019 35.9225 105.234 35.9944C105.449 36.0664 105.647 36.181 105.817 36.3316C105.987 36.4822 106.126 36.6658 106.225 36.8714C106.324 37.0771 106.382 37.3007 106.394 37.5291Z" fill="#2D2F34"/>
<path d="M108.097 35.873C107.875 36.1048 106.538 35.0979 104.632 35.0979C102.726 35.0979 101.357 36.0651 101.128 35.8266C101.023 35.7206 101.246 35.3033 101.855 34.8528C102.681 34.2784 103.662 33.9754 104.665 33.9849C105.657 33.9815 106.623 34.2996 107.423 34.8925C108.006 35.343 108.202 35.767 108.097 35.873Z" fill="#2D2F34"/>
<path d="M87.6607 38.1121C87.6661 38.5791 87.4899 39.0296 87.1702 39.3666C86.8504 39.7036 86.4127 39.9002 85.9511 39.914C85.7259 39.932 85.4995 39.9042 85.2851 39.8322C85.0707 39.7602 84.8728 39.6454 84.7031 39.4947C84.5333 39.344 84.3952 39.1605 84.2968 38.9548C84.1983 38.7492 84.1417 38.5257 84.1301 38.2976C84.1264 37.8311 84.3031 37.3816 84.6225 37.0449C84.9419 36.7083 85.3787 36.5112 85.8397 36.4957C86.0649 36.4777 86.2914 36.5055 86.5057 36.5775C86.7201 36.6495 86.918 36.7643 87.0877 36.915C87.2575 37.0657 87.3957 37.2492 87.4941 37.4548C87.5925 37.6605 87.6492 37.884 87.6607 38.1121Z" fill="#2D2F34"/>
<path d="M89.3634 36.2042C89.1472 36.4361 87.8044 35.4357 85.9048 35.4357C84.0053 35.4357 82.6297 36.3963 82.3939 36.1578C82.2957 36.0518 82.5184 35.6345 83.1275 35.1906C83.9517 34.6112 84.9339 34.3055 85.9376 34.3162C86.9263 34.3179 87.8892 34.6355 88.6887 35.2238C89.2848 35.6676 89.4879 36.0916 89.3634 36.2042Z" fill="#2D2F34"/>
<path d="M96.2611 50.4871C96.2611 50.3811 97.4336 50.1757 99.3528 49.9306C99.8375 49.8776 100.303 49.7849 100.381 49.447C100.425 48.9394 100.313 48.4304 100.06 47.9896L98.6323 44.24C96.6672 38.9402 95.2065 34.5216 95.4227 34.4421C95.6388 34.3626 97.3877 38.6223 99.4052 43.9618L100.774 47.7312C101.079 48.324 101.167 49.0068 101.023 49.659C100.952 49.8328 100.843 49.9877 100.703 50.1117C100.563 50.2358 100.397 50.3257 100.217 50.3744C99.9483 50.4485 99.671 50.4885 99.3921 50.4937C97.4663 50.5931 96.2677 50.5997 96.2611 50.4871Z" fill="#2D2F34"/>
<path d="M90.674 51.812C90.9818 51.812 90.9818 53.8789 92.7504 55.3695C94.5189 56.86 96.7133 56.6282 96.7329 56.9196C96.7329 57.0521 96.2417 57.3304 95.3115 57.3502C94.0996 57.3661 92.9211 56.9485 91.984 56.171C91.0874 55.4252 90.512 54.3564 90.3792 53.1899C90.2809 52.3155 90.5102 51.7988 90.674 51.812Z" fill="#2D2F34"/>
<path d="M89.8875 28.6455C89.6975 29.1688 87.7979 28.9171 85.5643 29.1887C83.3307 29.4603 81.5228 30.0698 81.2215 29.5994C81.0905 29.3742 81.4049 28.8773 82.1385 28.3739C83.107 27.7445 84.2092 27.3563 85.3547 27.241C86.4976 27.103 87.6566 27.2438 88.7346 27.6518C89.5534 27.9896 89.9661 28.4004 89.8875 28.6455Z" fill="#2D2F34"/>
<path d="M107.41 30.3016C107.069 30.7322 105.759 30.3016 104.18 30.2552C102.602 30.2089 101.272 30.5401 100.964 30.083C100.827 29.8644 101.043 29.4205 101.619 29.0098C102.404 28.5171 103.316 28.2706 104.239 28.3012C105.162 28.3319 106.056 28.6384 106.807 29.182C107.37 29.6325 107.554 30.083 107.41 30.3016Z" fill="#2D2F34"/>
<path d="M70.0667 42.7361C69.8571 42.6434 61.5514 40.1724 61.8134 48.7447C62.0755 57.3171 70.5187 55.2833 70.5253 55.0382C70.5318 54.7931 70.0667 42.7361 70.0667 42.7361Z" fill="#FFBE9D"/>
<path d="M68.5863 51.8716C68.547 51.8716 68.4422 51.9776 68.1933 52.1034C67.8477 52.2658 67.4536 52.2871 67.0929 52.1631C66.1889 51.8517 65.3898 50.4406 65.3047 48.8971C65.2633 48.1645 65.3818 47.4317 65.6518 46.7507C65.7235 46.4801 65.8595 46.2312 66.0478 46.0257C66.2361 45.8202 66.4712 45.6643 66.7326 45.5715C66.9004 45.5219 67.08 45.5324 67.2411 45.6012C67.4022 45.67 67.5349 45.7929 67.6169 45.9491C67.7348 46.1876 67.6889 46.3598 67.7282 46.3731C67.7675 46.3863 67.9116 46.2273 67.833 45.8762C67.7756 45.6652 67.6514 45.479 67.4793 45.3463C67.242 45.1758 66.9478 45.1068 66.6606 45.1541C66.3145 45.2335 65.9943 45.4012 65.7306 45.6413C65.4669 45.8813 65.2683 46.1857 65.154 46.5254C64.8158 47.2788 64.6651 48.1044 64.7151 48.9302C64.8199 50.6593 65.7435 52.2425 66.975 52.5672C67.1996 52.6221 67.4335 52.6262 67.66 52.5793C67.8864 52.5323 68.0998 52.4354 68.285 52.2955C68.5732 52.1034 68.6125 51.8848 68.5863 51.8716Z" fill="#EB996E"/>
<path d="M75.6084 17.2709L110.927 18.0592C109.726 15.6306 107.942 13.5446 105.74 11.991C101.148 8.39354 95.5493 6.35549 89.7439 6.16791C83.9862 6.06191 72.2547 13.1636 68.0822 17.1781C64.7416 20.3911 64.7678 23.1735 64.7678 23.1735C64.2372 27.8108 66.7983 33.0708 67.8202 37.6219C68.3442 39.9671 69.3595 47.0621 69.3595 47.0621C71.3246 47.0621 72.0254 45.4921 71.7307 43.5444L71.3704 35.9061C71.3704 35.9061 77.9862 31.1496 74.8486 22.4448C74.3639 21.7492 73.2896 18.5693 75.6084 17.2709Z" fill="#2D2F34"/>
<path d="M83.0365 44.3658C83.0081 44.3667 82.9798 44.3619 82.9533 44.3517C82.9267 44.3416 82.9024 44.3262 82.8817 44.3065C82.861 44.2868 82.8444 44.2632 82.8327 44.237C82.8211 44.2108 82.8146 44.1825 82.8138 44.1538C82.7997 44.0968 82.8083 44.0364 82.8377 43.9856C82.8671 43.9349 82.9149 43.8978 82.971 43.8822C83.0299 43.8745 83.0894 43.8903 83.1371 43.9261C83.1847 43.9619 83.2168 44.0151 83.2264 44.0743C83.2363 44.1062 83.2391 44.1399 83.2345 44.173C83.2299 44.2061 83.2181 44.2378 83.1999 44.2657C83.1817 44.2936 83.1576 44.3171 83.1293 44.3344C83.1011 44.3517 83.0694 44.3624 83.0365 44.3658Z" fill="#EB996E"/>
<path d="M86.6779 43.5377C86.56 43.5377 86.4487 43.4649 86.4159 43.3191C86.399 43.2576 86.4059 43.192 86.4351 43.1354C86.4643 43.0788 86.5136 43.0356 86.5731 43.0144C86.6364 43.0107 86.6985 43.0322 86.7463 43.0743C86.794 43.1164 86.8236 43.1758 86.8286 43.2396C86.8472 43.2994 86.8419 43.3641 86.8137 43.4199C86.7855 43.4757 86.7367 43.518 86.6779 43.5377Z" fill="#EB996E"/>
<path d="M89.1277 43.4914C89.0098 43.4914 88.8984 43.3655 88.8722 43.1734C88.846 42.9813 88.9246 42.8157 89.0425 42.8024C89.1605 42.7892 89.2653 42.9283 89.2915 43.1204C89.3177 43.3125 89.2391 43.4914 89.1277 43.4914Z" fill="#EB996E"/>
<path d="M84.8179 46.6779C84.7065 46.6779 84.6083 46.6183 84.6083 46.5454C84.6083 46.4725 84.7065 46.4063 84.8179 46.4063C84.9292 46.4063 85.0275 46.4725 85.0275 46.5454C85.0275 46.6183 84.9358 46.6779 84.8179 46.6779Z" fill="#EB996E"/>
<path d="M88.1585 45.9028C88.0959 45.908 88.0339 45.888 87.986 45.847C87.9381 45.806 87.9083 45.7474 87.903 45.6842C87.8978 45.6209 87.9177 45.5582 87.9582 45.5097C87.9988 45.4612 88.0566 45.4311 88.1192 45.4258C88.1484 45.4249 88.1776 45.4299 88.2049 45.4404C88.2323 45.4509 88.2573 45.4667 88.2786 45.487C88.2999 45.5073 88.3171 45.5317 88.329 45.5587C88.341 45.5857 88.3476 45.6148 88.3485 45.6444C88.356 45.704 88.3405 45.7642 88.305 45.8124C88.2696 45.8606 88.2171 45.893 88.1585 45.9028Z" fill="#EB996E"/>
<path d="M105.523 43.8425C105.494 43.8471 105.464 43.8458 105.436 43.8386C105.408 43.8313 105.381 43.8183 105.358 43.8004C105.334 43.7824 105.315 43.7599 105.301 43.7341C105.286 43.7083 105.277 43.6798 105.274 43.6504C105.26 43.5924 105.268 43.5312 105.297 43.4794C105.327 43.4275 105.375 43.3891 105.431 43.3721C105.49 43.3645 105.55 43.3802 105.597 43.416C105.645 43.4519 105.677 43.505 105.687 43.5642C105.694 43.5934 105.696 43.6238 105.692 43.6538C105.688 43.6837 105.678 43.7125 105.663 43.7385C105.648 43.7644 105.628 43.787 105.603 43.8049C105.579 43.8228 105.552 43.8355 105.523 43.8425Z" fill="#EB996E"/>
<path d="M108.006 43.6172C107.953 43.6348 107.896 43.6353 107.843 43.6188C107.79 43.6022 107.743 43.5694 107.709 43.5248C107.675 43.4802 107.656 43.426 107.654 43.3698C107.651 43.3136 107.666 43.2581 107.697 43.211C107.727 43.1638 107.771 43.1274 107.823 43.1067C107.875 43.086 107.931 43.082 107.986 43.0953C108.04 43.1086 108.088 43.1386 108.125 43.1811C108.161 43.2235 108.184 43.2764 108.189 43.3324C108.201 43.3946 108.188 43.4591 108.154 43.5122C108.12 43.5653 108.067 43.6029 108.006 43.6172Z" fill="#EB996E"/>
<path d="M103.335 43.9021C103.285 43.9146 103.232 43.9071 103.187 43.8812C103.142 43.8554 103.108 43.8131 103.093 43.763C103.082 43.7076 103.093 43.65 103.123 43.6028C103.154 43.5556 103.202 43.5227 103.257 43.5112C103.311 43.4998 103.368 43.5109 103.415 43.5419C103.462 43.573 103.494 43.6215 103.506 43.6769C103.511 43.7294 103.497 43.782 103.465 43.824C103.433 43.8659 103.387 43.8939 103.335 43.9021Z" fill="#EB996E"/>
<path d="M105.169 46.4129C105.127 46.4411 105.076 46.4555 105.025 46.4539C104.974 46.4524 104.925 46.435 104.884 46.4042C104.843 46.3734 104.813 46.3306 104.797 46.2816C104.781 46.2326 104.78 46.1799 104.794 46.1304C104.809 46.081 104.838 46.0373 104.878 46.0052C104.918 45.9731 104.967 45.9542 105.018 45.951C105.069 45.9479 105.119 45.9606 105.163 45.9875C105.206 46.0144 105.241 46.0542 105.261 46.1015C105.289 46.1552 105.295 46.2179 105.278 46.2761C105.261 46.3344 105.222 46.3835 105.169 46.4129Z" fill="#EB996E"/>
<path d="M107.285 45.9889C107.235 45.9792 107.191 45.9503 107.161 45.9083C107.132 45.8663 107.12 45.8144 107.128 45.7636C107.151 45.7202 107.188 45.686 107.233 45.6666C107.278 45.6472 107.328 45.6437 107.375 45.6568C107.422 45.6699 107.463 45.6987 107.492 45.7385C107.521 45.7784 107.536 45.8269 107.534 45.8762C107.515 45.9239 107.478 45.9623 107.432 45.9833C107.385 46.0043 107.333 46.0063 107.285 45.9889Z" fill="#EB996E"/>
<path d="M67.8652 17.6551C67.4717 16.0721 67.4463 14.4183 67.7912 12.8237C68.1361 11.2291 68.8418 9.73705 69.8529 8.46475C70.864 7.19246 72.153 6.17454 73.6186 5.49095C75.0842 4.80736 76.6865 4.47671 78.2998 4.52496C79.9504 4.59121 81.5749 5.06156 83.2256 4.8827C86.2846 4.54484 88.6426 2.0672 91.4789 0.86151C93.7178 -0.0211451 96.1843 -0.121092 98.4858 0.577573C100.787 1.27624 102.792 2.73337 104.18 4.71708C105.254 6.34013 105.955 8.34741 107.606 9.35436C109.027 10.2354 110.822 10.1626 112.42 10.6793C115.656 11.6598 117.87 15.1377 117.7 18.5494C117.563 20.2579 116.964 21.8956 115.97 23.2835C114.975 24.6714 113.623 25.7563 112.06 26.4196C110.488 27.0543 108.795 27.3243 107.105 27.2097C105.416 27.095 103.774 26.5986 102.3 25.7571C99.634 24.2533 97.2497 21.6961 94.1973 21.7823C91.04 21.875 88.302 24.8826 85.1841 24.2599C83.5596 23.9353 82.3085 22.67 81.1164 21.504C79.9242 20.3381 78.5618 19.1523 76.9046 19.0529C75.2474 18.9535 74.3893 21.2523 74.9854 22.8157L67.8652 17.6551Z" fill="#2D2F34"/>
<path d="M56.377 151.679C56.5119 153.033 57.0254 154.32 57.8573 155.389C58.6171 156.389 60.1564 157.376 61.3944 157.29C62.3272 157.338 63.2564 157.141 64.0911 156.717C64.9257 156.293 65.6374 155.658 66.1565 154.872C67.6696 152.448 68.0364 147.393 66.8115 144.405C65.9796 142.352 64.1063 140.43 61.9119 140.384C59.0298 140.318 57.2219 142.424 56.6062 144.558" fill="#FAFAFC"/>
<path d="M56.6128 144.558C56.7088 144.053 56.8906 143.569 57.1499 143.127C57.4328 142.593 57.7976 142.108 58.2307 141.689C58.8045 141.128 59.5032 140.715 60.2679 140.483C60.7121 140.346 61.1726 140.271 61.6368 140.258C62.1447 140.23 62.6533 140.298 63.1369 140.457C64.1942 140.833 65.1235 141.507 65.8159 142.398C66.5908 143.361 67.1295 144.496 67.388 145.71C67.6654 147 67.7646 148.322 67.6827 149.639C67.5452 151.712 67.1456 153.779 66.0059 155.356C65.4453 156.1 64.6928 156.673 63.8312 157.012C63.0517 157.328 62.2138 157.471 61.3749 157.429C60.7586 157.434 60.1509 157.284 59.6063 156.992C59.1292 156.741 58.6884 156.424 58.2962 156.051C57.6755 155.432 57.1833 154.693 56.8486 153.879C56.6303 153.363 56.4763 152.823 56.3901 152.269C56.3679 152.124 56.3548 151.978 56.3508 151.832C56.3395 151.781 56.3395 151.729 56.3508 151.679C56.4774 152.416 56.6975 153.133 57.0058 153.812C57.3581 154.589 57.8513 155.293 58.46 155.886C58.8554 156.236 59.2961 156.53 59.77 156.76C60.2759 157.024 60.8383 157.159 61.4076 157.151C62.2374 157.193 63.0652 157.034 63.8226 156.689C64.58 156.343 65.2452 155.821 65.7635 155.164C66.8181 153.686 67.2242 151.653 67.3552 149.625C67.4928 146.976 67.0605 144.365 65.5867 142.603C64.9337 141.756 64.0605 141.109 63.0648 140.735C62.611 140.583 62.1342 140.514 61.6565 140.53C61.2133 140.534 60.7726 140.599 60.3465 140.722C59.6129 140.932 58.9394 141.316 58.3814 141.841C57.9453 142.233 57.5699 142.688 57.2678 143.193C57.0239 143.635 56.8052 144.09 56.6128 144.558Z" fill="#2D2F34"/>
<path d="M54.844 151.812C54.98 153.165 55.4934 154.452 56.3244 155.521C57.0842 156.522 58.6235 157.509 59.8615 157.423C60.7943 157.471 61.7234 157.273 62.5581 156.849C63.3928 156.426 64.1045 155.79 64.6235 155.005C66.1301 152.573 66.5034 147.525 65.2785 144.538C64.4467 142.477 62.5799 140.563 60.3855 140.516C59.1666 140.506 57.9797 140.912 57.0169 141.668C56.0541 142.424 55.3716 143.486 55.0798 144.683" fill="#EDEDEF"/>
<path d="M55.0929 144.683C55.1897 144.181 55.3714 143.699 55.63 143.259C55.9107 142.724 56.2757 142.238 56.7108 141.822C57.6261 140.926 58.8433 140.414 60.1169 140.391C60.6247 140.363 61.1333 140.43 61.6169 140.589C62.6753 140.964 63.6051 141.637 64.296 142.53C65.0708 143.494 65.6095 144.629 65.868 145.843C66.1465 147.132 66.2435 148.455 66.1563 149.771C66.0253 151.845 65.6257 153.905 64.486 155.488C63.9253 156.232 63.1729 156.805 62.3113 157.144C61.5318 157.461 60.6939 157.603 59.8549 157.562C59.2381 157.564 58.6304 157.412 58.0863 157.118C57.6071 156.873 57.1658 156.558 56.7763 156.184C56.154 155.563 55.6616 154.822 55.3287 154.004C55.1067 153.493 54.9526 152.954 54.8702 152.401C54.848 152.256 54.8349 152.11 54.8309 151.964C54.8196 151.914 54.8196 151.862 54.8309 151.812C54.9581 152.546 55.1782 153.261 55.4859 153.938C55.834 154.72 56.3277 155.426 56.94 156.018C57.3355 156.369 57.7762 156.663 58.2501 156.893C58.7571 157.154 59.3187 157.288 59.8877 157.284C60.7175 157.325 61.5453 157.167 62.3027 156.821C63.06 156.476 63.7253 155.953 64.2436 155.296C65.2982 153.812 65.7043 151.785 65.8287 149.758C65.9729 147.108 65.5405 144.498 64.0602 142.736C63.4129 141.885 62.5409 141.238 61.5449 140.868C61.0911 140.716 60.6143 140.646 60.1366 140.662C59.6934 140.668 59.2529 140.732 58.8265 140.854C58.0933 141.065 57.4199 141.449 56.8614 141.974C56.4295 142.368 56.0585 142.826 55.761 143.332C55.5153 143.771 55.2923 144.222 55.0929 144.683Z" fill="#2D2F34"/>
<path d="M57.621 143.942C56.8944 143.849 56.1578 143.999 55.5231 144.369C54.8883 144.738 54.3899 145.307 54.1035 145.989C53.5629 147.379 53.5629 148.924 54.1035 150.314C54.3315 151.033 54.7039 151.696 55.1975 152.262C55.7043 152.828 56.409 153.173 57.1625 153.223C57.712 153.196 58.2469 153.035 58.7215 152.753C59.196 152.472 59.5961 152.078 59.8874 151.606C60.3943 150.877 60.7393 150.045 60.8987 149.168C61.0581 148.291 61.0282 147.389 60.811 146.525C60.5097 145.372 59.6778 144.2 58.5053 144.167" fill="#F28080"/>
<path d="M58.479 144.187C58.479 144.187 58.5642 144.187 58.7345 144.187C58.9871 144.216 59.2305 144.299 59.4485 144.432C59.8367 144.691 60.1695 145.026 60.4272 145.417C60.6848 145.809 60.8621 146.249 60.9485 146.711C61.2615 148.07 61.1186 149.496 60.5424 150.765C60.2103 151.521 59.7078 152.188 59.0751 152.713C58.7323 153.011 58.3242 153.222 57.8845 153.329C57.4448 153.437 56.9863 153.436 56.5467 153.329C55.6881 153.05 54.9652 152.454 54.5227 151.659C54.1208 150.947 53.8376 150.173 53.6843 149.367C53.5205 148.694 53.4941 147.995 53.6067 147.311C53.7193 146.628 53.9686 145.975 54.3393 145.392C54.6053 145.007 54.9443 144.678 55.3367 144.425C55.7291 144.173 56.1671 144.002 56.6253 143.922C56.8729 143.884 57.1245 143.884 57.372 143.922C57.5358 143.955 57.621 143.981 57.621 143.994C57.2945 143.983 56.9677 144.003 56.645 144.054C55.782 144.258 55.028 144.786 54.5358 145.531C54.1979 146.095 53.9756 146.721 53.8822 147.373C53.7888 148.026 53.8262 148.69 53.9921 149.327C54.1476 150.094 54.4241 150.83 54.8109 151.507C55.2103 152.225 55.8629 152.765 56.6384 153.017C57.0255 153.113 57.4298 153.114 57.8173 153.019C58.2047 152.925 58.5642 152.738 58.8655 152.474C59.4618 151.987 59.9373 151.365 60.2542 150.659C60.8196 149.454 60.9806 148.096 60.7127 146.79C60.5716 145.909 60.103 145.115 59.4026 144.571C59.1204 144.387 58.8074 144.257 58.479 144.187Z" fill="#2D2F34"/>
<path d="M60.9223 154.832C60.8764 154.832 60.8044 154.62 60.5751 154.355C60.2778 154.014 59.8921 153.764 59.4616 153.633C59.0129 153.507 58.5513 153.434 58.086 153.415C57.7192 153.415 57.49 153.355 57.4834 153.309C57.4769 153.262 57.7061 153.209 58.0795 153.17C58.5767 153.116 59.0796 153.161 59.5598 153.302C60.0602 153.448 60.491 153.773 60.7716 154.216C60.9812 154.561 60.9616 154.826 60.9223 154.832Z" fill="#2D2F34"/>
<path d="M61.4398 143.041C61.4398 143.041 61.3416 143.272 61.0337 143.518C60.6286 143.831 60.1543 144.04 59.6516 144.127C59.1524 144.22 58.6384 144.193 58.1516 144.048C57.7782 143.922 57.5817 143.776 57.6014 143.736C58.2515 143.838 58.9119 143.856 59.5665 143.789C60.219 143.619 60.8482 143.367 61.4398 143.041Z" fill="#2D2F34"/>
</g>
<mask id="mask1" style="mask-type:alpha" maskUnits="userSpaceOnUse" x="54" y="0" width="69" height="81">
<rect x="54.7282" y="0.117798" width="68.1957" height="80.5577" fill="white"/>
</mask>
<g mask="url(#mask1)">
<path d="M110.77 29.7451C110.316 23.8963 107.701 18.4348 103.445 14.4477C99.1897 10.4606 93.6058 8.24008 87.8049 8.22813H86.6062C73.7153 8.96347 67.1258 20.4441 68.2131 33.4616L70.4336 85.631C70.4511 86.0569 70.582 86.4702 70.8126 86.827C71.0432 87.1839 71.3649 87.471 71.7437 87.6581L100.683 101.391L99.8443 74.0113C99.8443 74.0113 112.244 72.0901 112.421 59.5562C112.473 53.5079 111.635 41.027 110.77 29.7451Z" fill="#FFBE9D"/>
<path d="M99.9165 73.9649C94.1616 73.9594 88.5296 72.2808 83.6915 69.1289C83.6915 69.1289 87.4907 78.1517 99.8576 77.0785L99.9165 73.9649Z" fill="#EB996E"/>
<path d="M106.394 37.5291C106.396 37.9951 106.219 38.4437 105.9 38.78C105.581 39.1162 105.145 39.3138 104.685 39.331C104.459 39.35 104.233 39.3228 104.018 39.2511C103.803 39.1795 103.605 39.0648 103.435 38.9139C103.265 38.763 103.127 38.5791 103.029 38.373C102.931 38.167 102.874 37.9431 102.864 37.7146C102.858 37.2487 103.034 36.7992 103.352 36.4624C103.67 36.1256 104.106 35.9282 104.567 35.9127C104.792 35.8947 105.019 35.9225 105.234 35.9944C105.449 36.0663 105.647 36.181 105.817 36.3316C105.988 36.4822 106.126 36.6657 106.225 36.8714C106.325 37.077 106.382 37.3007 106.394 37.5291Z" fill="#2D2F34"/>
<path d="M108.098 35.873C107.875 36.1048 106.539 35.0979 104.632 35.0979C102.726 35.0979 101.357 36.0651 101.128 35.8266C101.023 35.7206 101.246 35.3032 101.855 34.8528C102.681 34.2784 103.663 33.9754 104.665 33.9849C105.657 33.9815 106.623 34.2996 107.423 34.8925C108.006 35.343 108.202 35.767 108.098 35.873Z" fill="#2D2F34"/>
<path d="M87.6608 38.1121C87.6662 38.5791 87.49 39.0296 87.1703 39.3666C86.8506 39.7036 86.4128 39.9002 85.9512 39.914C85.726 39.932 85.4996 39.9042 85.2852 39.8322C85.0709 39.7602 84.873 39.6454 84.7032 39.4947C84.5334 39.344 84.3953 39.1605 84.2969 38.9548C84.1985 38.7492 84.1418 38.5257 84.1302 38.2976C84.1266 37.8311 84.3032 37.3816 84.6226 37.0449C84.942 36.7083 85.3788 36.5112 85.8398 36.4957C86.065 36.4777 86.2915 36.5055 86.5058 36.5775C86.7202 36.6495 86.9181 36.7643 87.0879 36.915C87.2576 37.0657 87.3958 37.2492 87.4942 37.4548C87.5926 37.6605 87.6493 37.884 87.6608 38.1121Z" fill="#2D2F34"/>
<path d="M89.3635 36.2042C89.1474 36.4361 87.8045 35.4357 85.905 35.4357C84.0054 35.4357 82.6298 36.3963 82.394 36.1578C82.2958 36.0518 82.5185 35.6345 83.1277 35.1906C83.9519 34.6111 84.934 34.3055 85.9377 34.3162C86.9264 34.3178 87.8893 34.6355 88.6888 35.2237C89.2849 35.6676 89.488 36.0916 89.3635 36.2042Z" fill="#2D2F34"/>
<path d="M96.2612 50.4871C96.2612 50.3811 97.4337 50.1757 99.3529 49.9306C99.8377 49.8776 100.303 49.7849 100.381 49.447C100.425 48.9394 100.313 48.4304 100.06 47.9896L98.6324 44.24C96.6673 38.9402 95.2066 34.5216 95.4228 34.4421C95.6389 34.3626 97.3879 38.6223 99.4053 43.9618L100.774 47.7312C101.079 48.324 101.168 49.0068 101.023 49.659C100.952 49.8328 100.843 49.9877 100.703 50.1117C100.563 50.2358 100.397 50.3257 100.218 50.3745C99.9484 50.4485 99.6712 50.4886 99.3922 50.4937C97.4665 50.5931 96.2678 50.5997 96.2612 50.4871Z" fill="#2D2F34"/>
<path d="M90.6741 51.812C90.9819 51.812 90.9819 53.8789 92.7505 55.3694C94.519 56.86 96.7134 56.6281 96.733 56.9196C96.733 57.0521 96.2418 57.3303 95.3117 57.3502C94.0997 57.3661 92.9212 56.9484 91.9841 56.171C91.0875 55.4251 90.5121 54.3564 90.3793 53.1899C90.2811 52.3155 90.5103 51.7987 90.6741 51.812Z" fill="#2D2F34"/>
<path d="M89.8876 28.6455C89.6976 29.1688 87.7981 28.9171 85.5644 29.1887C83.3308 29.4603 81.5229 30.0698 81.2216 29.5994C81.0906 29.3742 81.405 28.8773 82.1386 28.3738C83.1071 27.7445 84.2093 27.3563 85.3548 27.241C86.4977 27.1029 87.6567 27.2438 88.7347 27.6518C89.5535 27.9896 89.9662 28.4003 89.8876 28.6455Z" fill="#2D2F34"/>
<path d="M107.41 30.3016C107.069 30.7322 105.759 30.3016 104.18 30.2552C102.602 30.2088 101.272 30.5401 100.964 30.083C100.827 29.8644 101.043 29.4205 101.619 29.0098C102.404 28.5171 103.316 28.2706 104.239 28.3012C105.162 28.3319 106.056 28.6384 106.807 29.182C107.37 29.6325 107.554 30.083 107.41 30.3016Z" fill="#2D2F34"/>
<path d="M70.0669 42.7361C69.8573 42.6434 61.5516 40.1724 61.8136 48.7447C62.0756 57.3171 70.5189 55.2833 70.5254 55.0382C70.532 54.7931 70.0669 42.7361 70.0669 42.7361Z" fill="#FFBE9D"/>
<path d="M68.5865 51.8716C68.5472 51.8716 68.4423 51.9776 68.1934 52.1034C67.8479 52.2658 67.4537 52.2871 67.093 52.163C66.1891 51.8517 65.3899 50.4406 65.3048 48.8971C65.2634 48.1645 65.3819 47.4317 65.6519 46.7507C65.7237 46.48 65.8596 46.2312 66.0479 46.0257C66.2363 45.8202 66.4713 45.6643 66.7327 45.5715C66.9006 45.5219 67.0802 45.5324 67.2413 45.6012C67.4024 45.67 67.5351 45.7929 67.617 45.9491C67.7349 46.1876 67.689 46.3598 67.7283 46.3731C67.7677 46.3863 67.9118 46.2273 67.8332 45.8762C67.7758 45.6652 67.6515 45.479 67.4795 45.3462C67.2421 45.1758 66.948 45.1068 66.6607 45.1541C66.3146 45.2335 65.9945 45.4012 65.7307 45.6412C65.467 45.8813 65.2684 46.1857 65.1541 46.5254C64.8159 47.2788 64.6652 48.1044 64.7152 48.9302C64.82 50.6592 65.7436 52.2425 66.9751 52.5671C67.1998 52.6221 67.4337 52.6262 67.6601 52.5792C67.8865 52.5323 68.1 52.4354 68.2851 52.2955C68.5734 52.1034 68.6127 51.8848 68.5865 51.8716Z" fill="#EB996E"/>
<path d="M75.6086 17.2709L110.928 18.0592C109.726 15.6306 107.942 13.5445 105.74 11.991C101.148 8.39352 95.5495 6.35548 89.7441 6.16789C83.9864 6.0619 72.2549 13.1636 68.0824 17.1781C64.7417 20.3911 64.768 23.1735 64.768 23.1735C64.2374 27.8107 66.7985 33.0707 67.8203 37.6219C68.3444 39.967 69.3597 47.0621 69.3597 47.0621C71.3248 47.0621 72.0256 45.492 71.7309 43.5444L71.3706 35.9061C71.3706 35.9061 77.9864 31.1496 74.8488 22.4447C74.3641 21.7491 73.2898 18.5693 75.6086 17.2709Z" fill="#2D2F34"/>
<path d="M83.0366 44.3658C83.0082 44.3667 82.98 44.3619 82.9534 44.3517C82.9268 44.3415 82.9025 44.3262 82.8818 44.3065C82.8611 44.2868 82.8445 44.2632 82.8329 44.237C82.8212 44.2108 82.8148 44.1825 82.8139 44.1538C82.7999 44.0967 82.8084 44.0364 82.8378 43.9856C82.8672 43.9349 82.915 43.8978 82.9711 43.8822C83.03 43.8745 83.0895 43.8903 83.1372 43.9261C83.1848 43.9619 83.2169 44.0151 83.2266 44.0743C83.2365 44.1062 83.2392 44.1399 83.2346 44.173C83.23 44.2061 83.2182 44.2378 83.2 44.2657C83.1818 44.2936 83.1577 44.317 83.1295 44.3344C83.1012 44.3517 83.0695 44.3624 83.0366 44.3658Z" fill="#EB996E"/>
<path d="M86.6781 43.5377C86.5602 43.5377 86.4488 43.4649 86.416 43.3191C86.3992 43.2576 86.406 43.192 86.4352 43.1354C86.4644 43.0788 86.5137 43.0356 86.5732 43.0144C86.6365 43.0107 86.6986 43.0322 86.7464 43.0743C86.7941 43.1164 86.8237 43.1758 86.8287 43.2396C86.8473 43.2994 86.842 43.3641 86.8138 43.4199C86.7856 43.4757 86.7369 43.518 86.6781 43.5377Z" fill="#EB996E"/>
<path d="M89.1278 43.4914C89.0099 43.4914 88.8986 43.3655 88.8724 43.1734C88.8462 42.9813 88.9248 42.8157 89.0427 42.8024C89.1606 42.7892 89.2654 42.9283 89.2916 43.1204C89.3178 43.3125 89.2392 43.4914 89.1278 43.4914Z" fill="#EB996E"/>
<path d="M84.818 46.6779C84.7067 46.6779 84.6084 46.6182 84.6084 46.5454C84.6084 46.4725 84.7067 46.4062 84.818 46.4062C84.9294 46.4062 85.0276 46.4725 85.0276 46.5454C85.0276 46.6182 84.9359 46.6779 84.818 46.6779Z" fill="#EB996E"/>
<path d="M88.1586 45.9028C88.0961 45.908 88.034 45.888 87.9861 45.847C87.9382 45.806 87.9084 45.7474 87.9032 45.6842C87.8979 45.6209 87.9178 45.5582 87.9583 45.5097C87.9989 45.4612 88.0568 45.4311 88.1193 45.4258C88.1485 45.4249 88.1777 45.4299 88.2051 45.4404C88.2324 45.4509 88.2574 45.4667 88.2787 45.487C88.3 45.5073 88.3172 45.5317 88.3291 45.5587C88.3411 45.5857 88.3477 45.6148 88.3486 45.6444C88.3562 45.704 88.3406 45.7642 88.3052 45.8124C88.2697 45.8606 88.2172 45.893 88.1586 45.9028Z" fill="#EB996E"/>
<path d="M105.523 43.8425C105.494 43.8471 105.465 43.8458 105.436 43.8386C105.408 43.8313 105.381 43.8183 105.358 43.8004C105.335 43.7824 105.315 43.7598 105.301 43.7341C105.286 43.7083 105.277 43.6798 105.274 43.6504C105.26 43.5924 105.268 43.5312 105.298 43.4794C105.327 43.4275 105.375 43.3891 105.431 43.3721C105.49 43.3645 105.55 43.3802 105.597 43.416C105.645 43.4519 105.677 43.505 105.687 43.5642C105.695 43.5934 105.697 43.6238 105.693 43.6538C105.688 43.6837 105.679 43.7125 105.663 43.7385C105.648 43.7644 105.628 43.787 105.604 43.8049C105.58 43.8227 105.552 43.8355 105.523 43.8425Z" fill="#EB996E"/>
<path d="M108.006 43.6172C107.953 43.6348 107.896 43.6353 107.843 43.6188C107.79 43.6022 107.743 43.5694 107.709 43.5248C107.675 43.4802 107.656 43.426 107.654 43.3698C107.651 43.3136 107.667 43.2581 107.697 43.211C107.727 43.1638 107.771 43.1274 107.823 43.1067C107.875 43.086 107.932 43.082 107.986 43.0953C108.04 43.1086 108.088 43.1386 108.125 43.1811C108.161 43.2235 108.184 43.2764 108.189 43.3324C108.201 43.3946 108.189 43.4591 108.154 43.5122C108.12 43.5653 108.067 43.6029 108.006 43.6172Z" fill="#EB996E"/>
<path d="M103.335 43.9021C103.285 43.9145 103.232 43.9071 103.187 43.8812C103.142 43.8554 103.108 43.8131 103.093 43.763C103.082 43.7076 103.093 43.65 103.123 43.6028C103.154 43.5556 103.202 43.5227 103.257 43.5112C103.312 43.4998 103.369 43.5108 103.415 43.5419C103.462 43.573 103.494 43.6215 103.506 43.6769C103.511 43.7293 103.497 43.782 103.465 43.824C103.433 43.8659 103.387 43.8939 103.335 43.9021Z" fill="#EB996E"/>
<path d="M105.169 46.4129C105.127 46.4411 105.077 46.4555 105.026 46.4539C104.975 46.4523 104.925 46.435 104.884 46.4042C104.843 46.3733 104.813 46.3306 104.797 46.2816C104.781 46.2326 104.78 46.1799 104.794 46.1304C104.809 46.081 104.838 46.0372 104.878 46.0052C104.918 45.9731 104.967 45.9542 105.018 45.951C105.069 45.9478 105.119 45.9606 105.163 45.9875C105.206 46.0144 105.241 46.0542 105.261 46.1015C105.289 46.1552 105.295 46.2179 105.278 46.2761C105.261 46.3344 105.222 46.3835 105.169 46.4129Z" fill="#EB996E"/>
<path d="M107.285 45.9889C107.235 45.9792 107.191 45.9503 107.162 45.9083C107.132 45.8663 107.12 45.8144 107.128 45.7636C107.151 45.7202 107.188 45.686 107.233 45.6666C107.278 45.6472 107.328 45.6437 107.375 45.6568C107.422 45.6699 107.464 45.6987 107.492 45.7385C107.521 45.7784 107.536 45.8269 107.534 45.8762C107.515 45.9239 107.478 45.9623 107.432 45.9833C107.386 46.0043 107.333 46.0063 107.285 45.9889Z" fill="#EB996E"/>
<path d="M67.8654 17.6551C67.4718 16.072 67.4464 14.4183 67.7913 12.8237C68.1362 11.2291 68.8419 9.73703 69.853 8.46474C70.8641 7.19244 72.1531 6.17453 73.6187 5.49094C75.0843 4.80735 76.6866 4.4767 78.2999 4.52495C79.9506 4.59119 81.575 5.06155 83.2257 4.88268C86.2847 4.54482 88.6428 2.06719 91.479 0.861494C93.7179 -0.0211603 96.1844 -0.121107 98.4859 0.577557C100.787 1.27622 102.792 2.73335 104.18 4.71706C105.254 6.34011 105.955 8.34739 107.606 9.35434C109.027 10.2354 110.822 10.1626 112.42 10.6793C115.656 11.6597 117.87 15.1377 117.7 18.5494C117.563 20.2579 116.964 21.8955 115.97 23.2835C114.975 24.6714 113.623 25.7562 112.06 26.4195C110.488 27.0543 108.795 27.3243 107.106 27.2097C105.416 27.095 103.774 26.5986 102.3 25.7571C99.6341 24.2533 97.2498 21.6961 94.1974 21.7823C91.0402 21.875 88.3021 24.8826 85.1842 24.2599C83.5598 23.9353 82.3087 22.67 81.1165 21.504C79.9244 20.3381 78.5619 19.1523 76.9047 19.0529C75.2475 18.9535 74.3894 21.2523 74.9855 22.8157L67.8654 17.6551Z" fill="#2D2F34"/>
<path d="M110.259 13.5212C110.242 13.5644 110.222 13.6065 110.2 13.6471C110.139 13.7658 110.071 13.8808 109.997 13.9916C109.71 14.4234 109.369 14.8153 108.982 15.1575C108.366 15.7017 107.652 16.1201 106.879 16.3897C105.848 16.746 104.741 16.8124 103.676 16.5819C102.376 16.3047 101.195 15.6238 100.296 14.6342C99.3332 13.5676 98.7568 12.1301 97.8594 10.8714C97.4202 10.2205 96.8342 9.6846 96.1498 9.30795C95.4217 8.94359 94.6169 8.76397 93.8048 8.78459C92.963 8.81006 92.1391 9.03709 91.4009 9.44706C90.6493 9.87718 90.0354 10.5164 89.6323 11.2887C89.2065 12.0771 88.8987 12.9383 88.3878 13.7001C88.1452 14.0963 87.8135 14.4289 87.4196 14.6707C87.0257 14.9125 86.5808 15.0566 86.1214 15.0913C85.2485 15.1047 84.3913 14.8557 83.6585 14.3758C82.9688 13.9376 82.3389 13.4098 81.7851 12.8058C80.6912 11.6928 79.617 10.5799 78.2807 10.2818C77.6638 10.1608 77.0284 10.1732 76.4166 10.3182C75.8047 10.4632 75.23 10.7375 74.7305 11.1231C73.8779 11.7501 73.2008 12.5901 72.7654 13.561C72.4321 14.2953 72.1858 15.0669 72.0318 15.8598C71.9008 16.5222 71.8418 17.0257 71.8025 17.3768C71.7883 17.5573 71.7621 17.7365 71.7239 17.9134C71.7172 17.8673 71.7172 17.8204 71.7239 17.7743C71.7239 17.6815 71.7239 17.5491 71.7239 17.3702C71.7512 16.8547 71.8103 16.3414 71.9008 15.8333C72.0211 15.0247 72.2412 14.2347 72.5558 13.4815C72.9804 12.4711 73.6576 11.5899 74.5209 10.9244C75.0452 10.5087 75.6514 10.2114 76.2989 10.0526C76.9463 9.89372 77.6198 9.877 78.2742 10.0035C79.7218 10.3149 80.8419 11.4808 81.9292 12.5805C82.4708 13.1597 83.0826 13.6672 83.7502 14.091C84.4286 14.5348 85.2218 14.7653 86.0296 14.7534C86.4366 14.7182 86.8298 14.5873 87.1778 14.371C87.5258 14.1548 87.819 13.8592 88.034 13.508C88.5122 12.7925 88.8201 11.9379 89.259 11.1231C89.692 10.2889 90.3538 9.59887 91.1651 9.1357C91.9524 8.70244 92.8301 8.46406 93.7262 8.44011C94.5936 8.42208 95.4523 8.6176 96.2284 9.00983C96.9553 9.41329 97.5771 9.98544 98.0428 10.6793C98.9664 12.0042 99.5166 13.4086 100.434 14.4421C101.288 15.3959 102.414 16.0579 103.656 16.3367C104.68 16.5756 105.749 16.5275 106.748 16.1976C107.506 15.9519 108.21 15.563 108.825 15.0516C109.367 14.6076 109.85 14.093 110.259 13.5212Z" fill="#5F646F"/>
<path d="M116.658 13.6802C116.744 13.8911 116.792 14.1152 116.803 14.3427C116.854 14.9864 116.794 15.6343 116.626 16.2572C116.374 17.1824 115.927 18.0413 115.316 18.7746C114.552 19.6665 113.598 20.3711 112.525 20.8349C110.574 21.6384 108.441 21.8814 106.361 21.5371C105.739 21.4484 105.123 21.3245 104.514 21.1661C104.286 21.1254 104.065 21.0494 103.859 20.9409C103.859 20.8879 104.822 21.1264 106.394 21.292C108.425 21.5588 110.489 21.2918 112.388 20.5169C113.415 20.0747 114.334 19.4099 115.08 18.5693C115.674 17.8738 116.12 17.062 116.39 16.1844C116.617 15.3706 116.707 14.5242 116.658 13.6802Z" fill="#5F646F"/>
</g>
</svg>
