<svg width="176" height="203" viewBox="0 0 176 203" fill="none" xmlns="http://www.w3.org/2000/svg">
<ellipse cx="87.9493" cy="115.073" rx="87.9493" ry="87.91" fill="#E6EAF7"/>
<mask id="mask0" style="mask-type:alpha" maskUnits="userSpaceOnUse" x="0" y="27" width="176" height="176">
<ellipse cx="87.9493" cy="115.073" rx="87.9493" ry="87.91" fill="#E6EAF7"/>
</mask>
<g mask="url(#mask0)">
<path d="M124.591 30.1197L122.275 89.8812L92.3372 88.9135C91.9851 85.4419 91.5924 71.9954 91.5924 71.9954C91.5924 71.9954 79.0945 70.642 78.3566 58.2579C77.9977 52.2418 78.2685 39.7495 78.6409 28.482C78.8439 22.478 81.3881 16.7914 85.7299 12.6375C90.0717 8.48352 95.8666 6.19165 101.876 6.25162C104.947 6.2901 107.979 6.94242 110.794 8.17017C113.609 9.39791 116.15 11.1763 118.266 13.4005C120.383 15.6247 122.033 18.2498 123.119 21.1211C124.205 23.9925 124.706 27.0521 124.591 30.1197Z" fill="#F28080"/>
<path d="M91.5787 71.9953C97.3121 71.8306 102.867 69.965 107.536 66.6357C107.536 66.6357 104.151 75.7376 91.7074 75.2097L91.5787 71.9953Z" fill="#EB996E"/>
<path d="M82.7098 37.3472C82.7275 37.8091 82.9249 38.2459 83.26 38.5644C83.5951 38.883 84.0415 39.0581 84.504 39.0525C84.7299 39.0597 84.9551 39.0218 85.1662 38.9409C85.3773 38.8601 85.5702 38.7379 85.7335 38.5816C85.8968 38.4253 86.0273 38.238 86.1172 38.0307C86.2072 37.8234 86.2549 37.6002 86.2575 37.3742C86.2399 36.9117 86.0427 36.4742 85.7077 36.1545C85.3728 35.8349 84.9264 35.6583 84.4633 35.6621C84.237 35.6558 84.0117 35.6946 83.8006 35.7762C83.5894 35.8578 83.3966 35.9806 83.2334 36.1374C83.0702 36.2943 82.9399 36.482 82.85 36.6897C82.7601 36.8974 82.7124 37.1209 82.7098 37.3472Z" fill="#2D2F34"/>
<path d="M81.6063 34.796C81.8364 35.0193 83.1296 33.9636 85.0388 33.8756C86.948 33.7876 88.3901 34.6809 88.5864 34.4373C88.6812 34.329 88.4375 33.923 87.8078 33.5034C86.9536 32.9712 85.9557 32.7159 84.9508 32.7726C83.9626 32.818 83.0144 33.1758 82.2427 33.7944C81.674 34.2613 81.4912 34.7012 81.6063 34.796Z" fill="#2D2F34"/>
<path d="M100.78 37.2862C100.796 37.7458 100.99 38.1812 101.321 38.5007C101.652 38.8201 102.094 38.9985 102.554 38.9983C102.78 39.0055 103.006 38.9673 103.218 38.8861C103.429 38.8048 103.622 38.6821 103.786 38.525C103.949 38.368 104.079 38.1799 104.169 37.9718C104.259 37.7637 104.306 37.5398 104.307 37.3132C104.29 36.8589 104.098 36.4289 103.771 36.1125C103.445 35.7961 103.009 35.6178 102.554 35.6146C102.326 35.6037 102.099 35.6387 101.886 35.7176C101.672 35.7964 101.477 35.9174 101.311 36.0735C101.146 36.2295 101.013 36.4173 100.922 36.6257C100.831 36.8341 100.782 37.0587 100.78 37.2862Z" fill="#2D2F34"/>
<path d="M100.367 34.2613C100.597 34.4779 101.89 33.4222 103.799 33.341C105.708 33.2598 107.184 34.1395 107.347 33.8959C107.442 33.7876 107.198 33.3816 106.568 32.9688C105.716 32.4379 104.721 32.1827 103.718 32.2379C102.729 32.2801 101.78 32.6382 101.01 33.2598C100.434 33.7402 100.252 34.1666 100.367 34.2613Z" fill="#2D2F34"/>
<path d="M94.111 48.7296C94.111 48.6213 92.9262 48.4725 90.9899 48.3168C90.5024 48.3168 90.0353 48.2153 89.9405 47.8837C89.8735 47.3838 89.9634 46.8754 90.1978 46.4287C90.5972 45.2242 91.017 43.9722 91.457 42.6526C93.2105 37.2794 94.4495 32.874 94.2328 32.8063C94.0162 32.7386 92.3981 37.0358 90.6717 42.3819C90.2519 43.7038 89.8525 44.967 89.4733 46.1716C89.1922 46.7725 89.1346 47.4539 89.3109 48.0935C89.3896 48.2618 89.5054 48.41 89.6496 48.5272C89.7939 48.6444 89.9627 48.7275 90.1436 48.7702C90.4171 48.8287 90.6968 48.8537 90.9763 48.8447C92.9126 48.8853 94.111 48.8379 94.111 48.7296Z" fill="#2D2F34"/>
<path d="M99.7847 49.7785C99.4801 49.7785 99.5681 51.8087 97.8687 53.399C96.1694 54.9893 93.9555 54.8269 93.9488 55.1179C93.9488 55.2465 94.4633 55.4968 95.3908 55.4765C96.6044 55.4358 97.7648 54.9686 98.6676 54.1569C99.5372 53.3809 100.067 52.2946 100.144 51.132C100.184 50.2658 99.9269 49.7582 99.7847 49.7785Z" fill="#2D2F34"/>
<path d="M99.5206 26.8172C99.7305 27.3316 101.626 26.9932 103.874 27.1556C106.122 27.318 107.936 27.8323 108.234 27.3654C108.356 27.1353 108.024 26.6887 107.266 26.2014C106.263 25.6327 105.144 25.2994 103.993 25.2267C102.843 25.154 101.691 25.3439 100.624 25.7819C99.8456 26.1405 99.4258 26.5804 99.5206 26.8172Z" fill="#2D2F34"/>
<path d="M82.0462 29.2469C82.405 29.6664 83.6914 29.1521 85.2756 29.0574C86.8599 28.9626 88.2004 29.213 88.4915 28.7461C88.6134 28.516 88.3832 28.0694 87.7806 27.7107C86.9715 27.2589 86.0468 27.0564 85.1228 27.1287C84.1988 27.2009 83.3168 27.5447 82.5879 28.1167C82.053 28.5905 81.8905 29.0439 82.0462 29.2469Z" fill="#F28080"/>
<path d="M110.489 17.3432L110.563 17.3906C112.612 18.8565 114.018 21.0543 114.49 23.5284C114.49 23.6164 114.49 23.6976 114.537 23.7788C115.214 27.291 115.268 30.898 115.959 34.4034C116.65 37.9088 118.037 41.4481 120.766 43.7557C121.89 44.7099 123.819 45.3054 124.652 44.0941C124.923 43.5902 125.05 43.021 125.018 42.4497C125.275 33.8756 127.245 26.2083 126.812 17.262C126.758 16.0651 126.42 14.8983 125.825 13.858C125.231 12.8178 124.397 11.934 123.393 11.2797C121.456 10.0278 119.107 8.74878 117.076 9.82477C115.045 10.9008 112.533 14.9273 110.983 16.6529" fill="#2D2F34"/>
<path d="M120.691 36.1359C120.894 36.0344 129.093 33.2124 129.222 41.7053C129.35 50.1982 120.799 48.574 120.779 48.3304C120.759 48.0868 120.691 36.1359 120.691 36.1359Z" fill="#FFBE9D"/>
<path d="M123.325 45.0889C123.365 45.0889 123.474 45.1904 123.724 45.2987C124.081 45.4403 124.478 45.4403 124.835 45.2987C125.728 44.9535 126.459 43.5189 126.48 41.9895C126.49 41.2612 126.337 40.5398 126.033 39.8781C125.95 39.6133 125.803 39.3726 125.606 39.1769C125.409 38.9812 125.168 38.8363 124.902 38.7547C124.732 38.7122 124.551 38.7309 124.393 38.8076C124.235 38.8842 124.108 39.014 124.036 39.1743C123.921 39.4179 123.981 39.5871 123.934 39.6006C123.887 39.6142 123.751 39.4585 123.812 39.1066C123.856 38.8964 123.971 38.7076 124.137 38.572C124.37 38.3923 124.664 38.3098 124.956 38.3419C125.306 38.4052 125.634 38.5573 125.908 38.7837C126.181 39.0101 126.392 39.303 126.52 39.6345C126.893 40.3652 127.081 41.176 127.069 41.9962C127.069 43.7083 126.189 45.319 124.97 45.6912C124.743 45.7607 124.504 45.7785 124.27 45.7434C124.036 45.7083 123.812 45.621 123.616 45.4881C123.345 45.2784 123.298 45.0889 123.325 45.0889Z" fill="#EB996E"/>
<path d="M126.189 30.7085C126.189 30.7085 126.121 30.7085 125.979 30.7626C125.778 30.805 125.574 30.8322 125.369 30.8438C124.611 30.8999 123.849 30.8406 123.108 30.6679C120.625 30.0901 118.449 28.5996 117.015 26.4925C115.613 24.4067 114.754 22.0038 114.517 19.5019C114.492 19.0815 114.426 18.6645 114.32 18.2568C114.237 17.9597 114.064 17.6953 113.826 17.4988C113.615 17.3365 113.361 17.24 113.095 17.2214C113.234 17.176 113.382 17.1671 113.526 17.1955C113.669 17.224 113.803 17.2888 113.914 17.3838C114.189 17.5851 114.395 17.8664 114.503 18.1891C114.634 18.6052 114.72 19.0339 114.76 19.4681C115.065 21.9092 115.937 24.2452 117.306 26.2895C118.695 28.3201 120.765 29.7868 123.142 30.4243C124.141 30.6502 125.165 30.7458 126.189 30.7085Z" fill="#4E535C"/>
<path d="M66.793 245.068L162.931 244.445L153.229 186.369L151.543 86.518L132.343 80.6576L122.864 75.3115L91.6738 79.2568L87.659 84.339C87.659 84.339 74.0101 88.9407 68.1065 91.6408L67.7002 91.8235C63.5132 93.7325 59.9659 96.8082 57.4839 100.682L31.4658 141.143L-6.58315 118.967L-19.9883 138.477C-19.9883 138.477 26.7266 177.348 35.1962 176.556C43.6658 175.764 46.6041 175.758 49.5288 171.779C51.7698 168.72 60.5779 158.359 64.7755 151.436L69.0611 199.274L66.793 245.068Z" fill="#FAFAFC"/>
<path d="M97.2525 245.129C97.1509 245.129 96.3791 223.852 95.5328 197.602C94.6866 171.352 94.0637 150.062 94.1788 150.062C94.2939 150.062 95.0454 171.332 95.8984 197.596C96.7515 223.859 97.3473 245.129 97.2525 245.129Z" fill="#2D2F34"/>
<path d="M91.7955 78.8643L94.2125 151.504L122.837 75.3115L91.7955 78.8643Z" fill="#FFBE9D"/>
<path d="M94.4292 155.598C94.389 155.527 94.3572 155.452 94.3344 155.375C94.2667 155.212 94.1854 154.996 94.0839 154.698C93.8469 154.102 93.522 153.263 93.1022 152.187C92.2288 150.022 90.9493 146.888 89.1754 143.106C88.2682 141.217 87.2527 139.167 86.0476 137.015C84.8011 134.743 83.2972 132.622 81.5657 130.694C80.6178 129.72 79.4872 128.698 79.0877 127.203C78.916 126.461 78.9346 125.688 79.1419 124.956C79.3247 124.225 79.582 123.521 79.8189 122.811C80.76 119.948 81.7417 116.991 82.7369 113.966L82.7979 113.776L82.9807 114.006L71.4712 115.049V114.71L77.6118 102.529C79.5007 98.8207 81.2069 95.5521 82.676 92.8588C84.1452 90.1654 85.3841 88.0405 86.2439 86.6126C86.684 85.8953 87.036 85.3471 87.2798 84.9817L87.5574 84.5757C87.6251 84.4809 87.6589 84.4335 87.6657 84.4403L87.5844 84.5892L87.3272 85.0155C87.097 85.4148 86.7652 85.9629 86.3455 86.6735C85.4992 88.1217 84.3144 90.2534 82.8656 92.9603C81.4167 95.6672 79.7377 98.9425 77.8691 102.664L74.9308 108.552L73.3533 111.706L72.5341 113.33L72.1076 114.148L71.8842 114.555L71.7691 114.764L71.7014 114.866C71.6537 114.941 71.5822 114.998 71.4983 115.028V114.69L83.0077 113.634H83.2718L83.1905 113.891L83.1296 114.074C82.1276 117.099 81.1459 120.056 80.2048 122.919C79.758 124.333 79.1081 125.754 79.4737 127.121C79.8393 128.488 80.9089 129.49 81.8568 130.464C83.6095 132.43 85.1252 134.594 86.3726 136.914C87.5777 139.065 88.5797 141.129 89.4733 143.004C91.2201 146.807 92.4726 149.961 93.3053 152.147C93.7115 153.243 94.023 154.096 94.2193 154.678C94.3231 154.966 94.3976 155.192 94.4427 155.354C94.4435 155.436 94.439 155.517 94.4292 155.598Z" fill="#2D2F34"/>
<path d="M94.3345 156.282C94.3241 156.203 94.3241 156.123 94.3345 156.045L94.4428 155.368C94.6026 154.482 94.8405 153.613 95.1537 152.769C96.3823 149.678 97.9418 146.728 99.8049 143.972C100.963 142.212 102.283 140.318 103.779 138.328C105.358 136.206 107.053 134.172 108.857 132.237C110.862 130.066 113.058 128.077 115.417 126.296C116.677 125.364 117.986 124.499 119.337 123.704C120.691 122.892 122.113 122.12 123.467 121.22L123.42 121.464C121.574 118.71 119.073 116.456 116.142 114.907L115.898 114.778L116.121 114.616C120.307 111.496 125.184 109.433 130.339 108.6L130.21 108.742L131.679 88.5482C131.869 86.1119 132.018 84.1765 132.126 82.8366C132.18 82.1599 132.221 81.6862 132.255 81.3275L132.295 80.9418C132.287 80.897 132.287 80.8512 132.295 80.8064C132.3 80.8514 132.3 80.8968 132.295 80.9418V81.3275C132.295 81.6929 132.248 82.2005 132.214 82.8434C132.133 84.1968 132.011 86.1187 131.862 88.5617C131.53 93.495 131.07 100.472 130.508 108.769V108.89H130.386C125.282 109.727 120.454 111.779 116.311 114.873V114.582C119.294 116.156 121.839 118.446 123.717 121.247L123.819 121.39L123.67 121.491C122.316 122.398 120.881 123.176 119.52 123.988C118.178 124.771 116.878 125.625 115.627 126.546C113.289 128.314 111.11 130.281 109.114 132.427C107.308 134.36 105.613 136.394 104.036 138.517C102.533 140.487 101.2 142.368 100.035 144.121C98.1552 146.846 96.5667 149.76 95.2959 152.817C94.968 153.649 94.7098 154.507 94.5241 155.381C94.4631 155.666 94.4157 155.896 94.3819 156.058C94.3743 156.134 94.3584 156.209 94.3345 156.282Z" fill="#2D2F34"/>
<path d="M126.182 169.545C126.072 169.595 125.956 169.629 125.837 169.647L124.835 169.863C123.599 170.12 122.349 170.299 121.091 170.398C119.209 170.568 117.312 170.338 115.526 169.721C113.303 168.948 111.461 167.352 110.38 165.261C109.421 163.153 108.942 160.858 108.979 158.542C108.979 156.423 109.046 154.549 109.053 152.952C109.06 151.355 109.107 150.076 109.155 149.183C109.155 148.736 109.202 148.391 109.222 148.161C109.222 148.039 109.24 147.918 109.277 147.802C109.285 147.921 109.285 148.041 109.277 148.161C109.277 148.438 109.277 148.776 109.277 149.189C109.277 150.13 109.277 151.402 109.277 152.952V158.535C109.257 160.801 109.733 163.043 110.671 165.106C111.708 167.118 113.473 168.659 115.607 169.417C117.343 170.027 119.187 170.274 121.023 170.141C122.273 170.065 123.518 169.925 124.753 169.721L125.769 169.572C125.905 169.547 126.044 169.538 126.182 169.545Z" fill="#2D2F34"/>
<path d="M129.838 147.335C129.838 147.43 125.234 147.619 119.561 147.748C113.887 147.877 109.277 147.91 109.277 147.809C109.277 147.707 113.874 147.531 119.554 147.396C125.234 147.261 129.838 147.274 129.838 147.335Z" fill="#2D2F34"/>
<path d="M119.825 147.477V140.771C119.825 140.249 120.032 139.748 120.402 139.378C120.771 139.009 121.272 138.802 121.795 138.802C122.317 138.802 122.818 139.009 123.188 139.378C123.557 139.748 123.765 140.249 123.765 140.771V151.822C123.771 151.911 123.76 152 123.732 152.084C123.703 152.169 123.659 152.247 123.6 152.314C123.482 152.45 123.315 152.533 123.135 152.546C122.956 152.558 122.779 152.499 122.643 152.381C122.507 152.263 122.423 152.096 122.411 151.916C122.411 151.835 122.411 151.74 122.411 151.653C122.411 149.967 122.221 147.396 122.221 147.396L119.825 147.477Z" fill="#00227D"/>
<path d="M119.479 159.063C119.304 157.49 119.245 155.907 119.303 154.326C119.245 152.745 119.304 151.161 119.479 149.589C119.654 151.161 119.713 152.745 119.655 154.326C119.712 155.907 119.654 157.49 119.479 159.063Z" fill="#2D2F34"/>
<path d="M123.291 167.84C123.196 167.84 123.115 164.456 123.115 160.301C123.115 156.146 123.196 152.762 123.291 152.762C123.386 152.762 123.467 156.146 123.467 160.301C123.467 164.456 123.393 167.84 123.291 167.84Z" fill="#2D2F34"/>
<path d="M92.3036 94.1447L101.708 105.615C108.349 98.9156 113.122 92.2972 117.279 89.3737C117.279 89.3737 94.2196 152.526 94.1857 151.477C94.1519 150.428 92.3036 94.1447 92.3036 94.1447Z" fill="#F28080"/>
<path d="M117.306 89.4007C117.236 89.4962 117.156 89.5846 117.069 89.6647L116.338 90.3414C115.701 90.9437 114.794 91.8369 113.684 92.9468C111.457 95.1597 108.498 98.3606 105.269 101.88C102.039 105.399 99.0399 108.579 96.7651 110.758C95.6276 111.848 94.6933 112.707 94.0231 113.282L93.2513 113.959C93.1652 114.042 93.0698 114.115 92.9669 114.176C92.9669 114.176 93.0414 114.074 93.2039 113.912L93.9283 113.235C94.5715 112.633 95.4787 111.739 96.589 110.63C98.8097 108.417 101.768 105.216 105.004 101.697C108.241 98.1779 111.233 94.9973 113.508 92.8182C114.645 91.7287 115.58 90.8692 116.25 90.294L117.015 89.6173C117.198 89.4616 117.293 89.3872 117.306 89.4007Z" fill="#2D2F34"/>
<path d="M101.646 105.568C101.572 105.629 99.419 103.125 96.8395 99.9713C94.26 96.8178 92.2289 94.2056 92.3034 94.1447C92.3779 94.0838 94.5308 96.5877 97.1103 99.748C99.6898 102.908 101.721 105.507 101.646 105.568Z" fill="#2D2F34"/>
<path d="M61.6747 116.084C61.7184 116.239 61.7456 116.398 61.756 116.558C61.8033 116.903 61.8575 117.356 61.9252 117.911C62.0674 119.096 62.2502 120.808 62.4668 122.933C62.8934 127.176 63.4011 133.043 63.9292 139.526C64.4573 146.009 64.9448 151.842 65.2833 156.126C65.4593 158.217 65.6015 159.929 65.703 161.154C65.7504 161.722 65.7843 162.176 65.8114 162.507C65.8234 162.667 65.8234 162.828 65.8114 162.988C65.7669 162.833 65.7375 162.675 65.7233 162.514C65.6827 162.169 65.6286 161.716 65.5541 161.161C65.4119 159.976 65.2291 158.264 65.0192 156.139C64.5927 151.896 64.0782 146.029 63.5501 139.546C63.022 133.063 62.5413 127.23 62.196 122.946C62.02 120.855 61.8778 119.143 61.7695 117.918C61.7289 117.35 61.695 116.896 61.6679 116.565C61.6537 116.405 61.6559 116.244 61.6747 116.084Z" fill="#2D2F34"/>
<path d="M150.155 86.3692C150.155 86.3692 165.226 86.3693 169.004 115.347C172.782 144.324 181.089 197.467 165.984 207.544C150.88 217.62 80.8888 216.909 80.8888 216.909V188.839L138.314 182.505C138.314 182.505 138.098 177.28 141.022 177.321L137.759 111.083C137.759 111.083 137.082 87.628 150.155 86.3692Z" fill="#FAFAFC"/>
<path d="M137.908 133.097C137.908 133.097 137.908 133.368 137.969 133.895C138.029 134.423 138.043 135.249 138.104 136.25C138.212 138.328 138.375 141.36 138.585 145.244C138.984 153.033 139.56 164.226 140.264 177.862V178.004H140.115C139.629 178.016 139.163 178.195 138.795 178.512C138.421 178.869 138.142 179.313 137.982 179.804C137.642 180.847 137.495 181.943 137.549 183.039V183.181H137.413L80.9087 188.994L81.0645 188.818V216.909L80.8952 216.74C105.343 217.004 126.662 216.063 141.726 214.135C145.497 213.654 148.862 213.106 151.793 212.531C154.286 212.039 156.752 211.418 159.18 210.67C160.162 210.338 161.028 209.993 161.773 209.729C162.518 209.465 163.127 209.147 163.608 208.897L164.677 208.288L165.05 208.091C165.05 208.091 164.935 208.173 164.698 208.315L163.635 208.951C163.154 209.208 162.531 209.472 161.807 209.817C161.082 210.162 160.202 210.44 159.214 210.778C156.788 211.55 154.322 212.191 151.827 212.7C148.896 213.295 145.524 213.857 141.76 214.351C126.683 216.307 105.349 217.329 80.8884 217.058H80.7192V216.889C80.7192 208.768 80.7192 200.201 80.7192 191.383V188.676H80.8817L137.386 182.924L137.251 183.08C137.19 181.933 137.346 180.785 137.711 179.696C137.886 179.163 138.191 178.681 138.598 178.295C139.021 177.936 139.553 177.731 140.108 177.713L139.973 177.862C139.296 164.226 138.788 153.033 138.422 145.237C138.246 141.353 138.104 138.321 138.009 136.244C137.969 135.215 137.941 134.43 137.914 133.889C137.887 133.347 137.908 133.097 137.908 133.097Z" fill="#2D2F34"/>
<path d="M148.388 184.697C148.327 184.697 148.104 184.115 147.589 183.235C146.912 182.093 146.044 181.074 145.023 180.224C143.998 179.38 142.838 178.714 141.591 178.255C140.636 177.91 140 177.801 140.013 177.74C140.578 177.735 141.14 177.829 141.672 178.018C142.981 178.419 144.198 179.076 145.25 179.951C146.303 180.825 147.172 181.9 147.806 183.114C148.093 183.602 148.291 184.139 148.388 184.697Z" fill="#2D2F34"/>
<path d="M141.638 189.908C140.826 187.23 139.327 184.811 137.292 182.89C137.672 183.067 138.014 183.315 138.301 183.621C139.048 184.297 139.696 185.076 140.223 185.936C140.757 186.79 141.167 187.715 141.442 188.683C141.589 189.074 141.656 189.491 141.638 189.908Z" fill="#2D2F34"/>
<path d="M-56.7717 107.578L-15.6084 216.977L71.7077 218.743L35.7237 108.329L-56.7717 107.578Z" fill="#F28080"/>
<path d="M-56.7717 107.578L35.7238 108.18H35.8253L35.8592 108.281C45.9672 139.262 58.1198 176.522 71.1932 216.557L71.8703 218.662L71.9515 218.899H71.701L-15.6355 217.119H-15.7438L-15.7844 217.017L-56.7717 107.578C-56.2842 108.884 -39.9475 152.106 -15.473 216.923L-15.6152 216.821L71.7213 218.567L71.552 218.797C71.3219 218.121 71.0917 217.403 70.875 216.693L35.6019 108.376L35.7373 108.478L-56.7717 107.578Z" fill="#2D2F34"/>
<path d="M81.0242 191.126H72.2702C72.2702 191.126 67.7883 186.802 66.5697 186.193C65.351 185.584 59.3661 183.777 59.3661 183.777L61.6747 190.179C62.0361 190.282 62.391 190.406 62.7377 190.551C64.2678 191.146 63.8412 192.5 62.6226 192.5H53.8077C53.8077 192.5 44.7762 188.169 43.4356 188.961C42.3118 189.637 41.9191 190.822 43.0701 192.5C44.221 194.178 52.1354 198.123 53.0427 198.428L55.6289 199.186L53.1984 199.944L41.6889 195.931C40.9374 195.796 39.9083 195.674 39.5698 196.107C39.4238 196.254 39.3091 196.43 39.2328 196.623C39.1565 196.816 39.1201 197.022 39.1258 197.23C39.1315 197.437 39.1791 197.641 39.2659 197.83C39.3527 198.018 39.4768 198.187 39.6308 198.326C41.2707 199.808 43.0103 201.176 44.8371 202.421C44.8371 202.421 43.0023 205.128 44.5189 206.481C46.0354 207.834 50.4496 211.956 50.4496 211.956C50.4496 211.956 50.91 214.236 52.2776 215.299C53.6452 216.361 68.7023 216.361 69.7652 216.361C70.8282 216.361 76.9146 212.869 76.9146 212.869L80.8956 212.45L81.0242 191.126Z" fill="#FFBE9D"/>
<path d="M54.9247 206.765C54.3937 206.936 53.8368 207.011 53.2795 206.988C52.6651 206.99 52.0552 206.883 51.4786 206.67C50.7892 206.398 50.1328 206.048 49.522 205.628C48.2154 204.782 47.0509 203.997 46.2114 203.415C45.741 203.129 45.3029 202.794 44.9047 202.414C45.4146 202.625 45.9003 202.891 46.3536 203.205C47.2202 203.733 48.3846 204.484 49.7387 205.33C50.3306 205.736 50.961 206.083 51.6208 206.366C52.1599 206.584 52.7322 206.71 53.3134 206.738C54.2883 206.785 54.9247 206.704 54.9247 206.765Z" fill="#EB996E"/>
<path d="M59.9006 199.937C59.102 200.036 58.2916 199.974 57.5175 199.754C56.7202 199.649 55.9517 199.387 55.2562 198.983C56.0463 199.052 56.8282 199.195 57.592 199.409C58.376 199.515 59.1487 199.691 59.9006 199.937Z" fill="#EB996E"/>
</g>
<mask id="mask1" style="mask-type:alpha" maskUnits="userSpaceOnUse" x="66" y="0" width="72" height="88">
<rect x="66.0689" width="70.959" height="87.8745" fill="#C4C4C4"/>
</mask>
<g mask="url(#mask1)">
<path d="M124.591 30.1197L122.275 89.8812L92.3371 88.9135C91.985 85.4419 91.5924 71.9954 91.5924 71.9954C91.5924 71.9954 79.0945 70.642 78.3565 58.2579C77.9977 52.2418 78.2685 39.7495 78.6408 28.482C78.8438 22.478 81.3881 16.7914 85.7298 12.6375C90.0716 8.48352 95.8666 6.19165 101.876 6.25162C104.947 6.2901 107.979 6.94242 110.794 8.17017C113.609 9.39791 116.15 11.1763 118.266 13.4005C120.383 15.6247 122.033 18.2498 123.119 21.1211C124.205 23.9925 124.706 27.0521 124.591 30.1197Z" fill="#FFBE9D"/>
<path d="M91.5786 71.9953C97.312 71.8306 102.867 69.965 107.536 66.6357C107.536 66.6357 104.151 75.7376 91.7073 75.2098L91.5786 71.9953Z" fill="#EB996E"/>
<path d="M82.7098 37.3472C82.7274 37.8091 82.9248 38.2459 83.2599 38.5644C83.5951 38.883 84.0414 39.0581 84.5039 39.0525C84.7299 39.0597 84.955 39.0218 85.1661 38.9409C85.3773 38.8601 85.5701 38.7379 85.7334 38.5816C85.8967 38.4253 86.0272 38.238 86.1172 38.0307C86.2071 37.8234 86.2548 37.6002 86.2574 37.3742C86.2398 36.9117 86.0426 36.4742 85.7077 36.1545C85.3727 35.8349 84.9263 35.6583 84.4633 35.6621C84.237 35.6558 84.0117 35.6946 83.8005 35.7762C83.5893 35.8578 83.3966 35.9806 83.2334 36.1374C83.0701 36.2943 82.9398 36.482 82.8499 36.6897C82.76 36.8974 82.7124 37.1209 82.7098 37.3472Z" fill="#2D2F34"/>
<path d="M81.6062 34.796C81.8364 35.0193 83.1295 33.9636 85.0387 33.8756C86.9479 33.7876 88.39 34.6809 88.5863 34.4373C88.6811 34.329 88.4374 33.923 87.8077 33.5034C86.9535 32.9712 85.9556 32.7159 84.9507 32.7726C83.9625 32.818 83.0143 33.1758 82.2426 33.7944C81.6739 34.2613 81.4911 34.7012 81.6062 34.796Z" fill="#2D2F34"/>
<path d="M100.78 37.2862C100.796 37.7458 100.99 38.1812 101.321 38.5007C101.651 38.8201 102.094 38.9985 102.554 38.9983C102.78 39.0055 103.006 38.9673 103.218 38.8861C103.429 38.8048 103.622 38.6821 103.786 38.525C103.949 38.368 104.079 38.1799 104.169 37.9718C104.259 37.7637 104.306 37.5398 104.307 37.3132C104.29 36.8589 104.098 36.4289 103.771 36.1125C103.445 35.7961 103.009 35.6178 102.554 35.6146C102.326 35.6037 102.099 35.6387 101.886 35.7176C101.672 35.7964 101.477 35.9174 101.311 36.0735C101.146 36.2295 101.013 36.4173 100.922 36.6257C100.831 36.8341 100.782 37.0587 100.78 37.2862Z" fill="#2D2F34"/>
<path d="M100.367 34.2613C100.597 34.4779 101.89 33.4222 103.799 33.341C105.708 33.2598 107.184 34.1395 107.347 33.8959C107.441 33.7876 107.198 33.3816 106.568 32.9688C105.716 32.4379 104.721 32.1827 103.718 32.2379C102.729 32.2801 101.78 32.6382 101.01 33.2598C100.434 33.7402 100.251 34.1666 100.367 34.2613Z" fill="#2D2F34"/>
<path d="M94.1109 48.7296C94.1109 48.6213 92.9261 48.4725 90.9898 48.3168C90.5023 48.3168 90.0352 48.2153 89.9404 47.8837C89.8734 47.3838 89.9633 46.8754 90.1977 46.4287C90.5971 45.2242 91.0169 43.9722 91.4569 42.6526C93.2104 37.2794 94.4494 32.874 94.2328 32.8063C94.0161 32.7386 92.398 37.0358 90.6716 42.3819C90.2518 43.7038 89.8524 44.967 89.4732 46.1716C89.1921 46.7725 89.1345 47.4539 89.3108 48.0935C89.3895 48.2618 89.5053 48.41 89.6496 48.5272C89.7938 48.6444 89.9626 48.7275 90.1435 48.7702C90.4171 48.8287 90.6967 48.8537 90.9763 48.8447C92.9126 48.8853 94.1109 48.8379 94.1109 48.7296Z" fill="#2D2F34"/>
<path d="M99.7846 49.7785C99.48 49.7785 99.568 51.8087 97.8686 53.399C96.1693 54.9893 93.9554 54.8269 93.9487 55.1179C93.9487 55.2465 94.4632 55.4968 95.3907 55.4765C96.6043 55.4358 97.7647 54.9685 98.6675 54.1569C99.5371 53.3809 100.067 52.2946 100.143 51.132C100.184 50.2658 99.9268 49.7582 99.7846 49.7785Z" fill="#2D2F34"/>
<path d="M99.5205 26.8172C99.7304 27.3316 101.626 26.9932 103.874 27.1556C106.122 27.318 107.936 27.8323 108.234 27.3654C108.356 27.1353 108.024 26.6887 107.266 26.2014C106.263 25.6327 105.144 25.2994 103.993 25.2267C102.843 25.154 101.69 25.3439 100.624 25.7819C99.8455 26.1405 99.4257 26.5804 99.5205 26.8172Z" fill="#2D2F34"/>
<path d="M82.0461 29.2469C82.4049 29.6665 83.6913 29.1521 85.2756 29.0574C86.8598 28.9627 88.2003 29.2131 88.4914 28.7461C88.6133 28.516 88.3831 28.0694 87.7805 27.7107C86.9714 27.2589 86.0467 27.0564 85.1227 27.1287C84.1987 27.2009 83.3168 27.5447 82.5878 28.1168C82.0529 28.5905 81.8904 29.0439 82.0461 29.2469Z" fill="#2D2F34"/>
<path d="M110.488 17.3432L110.563 17.3906C112.612 18.8565 114.018 21.0543 114.49 23.5284C114.49 23.6164 114.49 23.6976 114.537 23.7788C115.214 27.291 115.268 30.898 115.959 34.4034C116.649 37.9088 118.037 41.4481 120.766 43.7557C121.89 44.7099 123.819 45.3054 124.652 44.0941C124.923 43.5902 125.05 43.021 125.017 42.4497C125.275 33.8756 127.245 26.2083 126.812 17.262C126.758 16.0651 126.42 14.8983 125.825 13.858C125.231 12.8178 124.397 11.934 123.393 11.2797C121.456 10.0278 119.107 8.74878 117.076 9.82477C115.045 10.9008 112.533 14.9273 110.983 16.6529" fill="#2D2F34"/>
<path d="M120.691 36.1359C120.894 36.0344 129.093 33.2124 129.222 41.7053C129.35 50.1982 120.799 48.574 120.779 48.3304C120.759 48.0868 120.691 36.1359 120.691 36.1359Z" fill="#FFBE9D"/>
<path d="M123.325 45.0889C123.365 45.0889 123.474 45.1904 123.724 45.2987C124.081 45.4403 124.478 45.4403 124.834 45.2987C125.728 44.9535 126.459 43.5189 126.48 41.9895C126.49 41.2612 126.337 40.5398 126.033 39.8781C125.95 39.6133 125.803 39.3726 125.606 39.1769C125.409 38.9812 125.168 38.8363 124.902 38.7547C124.731 38.7122 124.551 38.7309 124.393 38.8076C124.234 38.8842 124.108 39.014 124.036 39.1743C123.92 39.4179 123.981 39.5871 123.934 39.6006C123.887 39.6142 123.751 39.4585 123.812 39.1066C123.856 38.8964 123.971 38.7076 124.137 38.572C124.37 38.3923 124.664 38.3098 124.956 38.3419C125.306 38.4052 125.634 38.5573 125.907 38.7837C126.181 39.0101 126.392 39.303 126.52 39.6345C126.893 40.3652 127.081 41.176 127.069 41.9962C127.069 43.7083 126.189 45.319 124.97 45.6912C124.743 45.7607 124.504 45.7785 124.27 45.7434C124.035 45.7083 123.812 45.621 123.616 45.4881C123.345 45.2784 123.298 45.0889 123.325 45.0889Z" fill="#EB996E"/>
<path d="M118.355 12.4505C120.806 9.30372 115.647 3.83579 111.585 2.06277C107.523 0.289753 101.856 1.73118 97.557 2.65152C94.8489 3.23351 92.1069 4.16062 89.365 3.74782C87.5445 3.35987 85.7921 2.703 84.1654 1.79885C82.5324 0.896176 80.734 0.332258 78.8778 0.140875C77.0228 0.0664357 75.0188 0.817598 74.1386 2.47557C73.2585 4.13355 73.9965 6.53592 75.7973 7.01639C73.6038 5.47346 70.0426 6.79308 69.3723 9.3917C68.7021 11.9903 71.1868 14.8596 73.8543 14.5754C72.7575 13.5333 70.7467 14.8326 70.7332 16.3484C70.7196 17.8643 71.9586 19.1027 73.272 19.8606C76.6572 21.7893 80.7803 21.7419 84.5581 20.9163C88.3359 20.0907 91.9241 18.541 95.6816 17.6207C99.4391 16.7003 105.749 14.995 109.222 16.6733C111.795 17.9049 113.284 21.3224 114.882 20.7742C115.635 20.4737 116.307 20.0004 116.843 19.3927C117.379 18.785 117.765 18.0597 117.969 17.2755C118.35 15.6972 118.471 14.0677 118.328 12.4505" fill="#2D2F34"/>
<path d="M76.2716 7.63204C76.2716 7.63204 76.1091 7.70648 75.8451 7.89596C75.4578 8.17444 75.1573 8.55689 74.9785 8.99902C74.6865 9.69203 74.6225 10.4599 74.7957 11.1916C74.9076 11.6722 75.1159 12.1251 75.408 12.5229C75.7001 12.9208 76.0699 13.2552 76.4951 13.506C77.5427 14.113 78.7303 14.4372 79.9411 14.4467C81.3358 14.4548 82.7236 14.2517 84.0575 13.8444C86.9077 13.0188 89.7309 11.3337 92.7099 9.62161C95.6888 7.90949 98.7286 6.48161 101.748 6.11618C103.169 5.93073 104.613 6.02034 106 6.3801C107.216 6.69612 108.363 7.23288 109.385 7.96363C110.868 9.00088 112.064 10.3981 112.858 12.024C113.165 12.6069 113.393 13.2282 113.535 13.8714C113.495 13.8714 113.332 13.1947 112.757 12.0849C111.927 10.521 110.727 9.18307 109.263 8.18695C108.268 7.49193 107.156 6.98292 105.98 6.68463C104.626 6.34535 103.219 6.26953 101.836 6.46131C98.8979 6.8335 95.8987 8.25463 92.94 9.95321C89.9814 11.6518 87.1108 13.3368 84.2064 14.176C82.8369 14.588 81.4117 14.7843 79.9818 14.7579C78.722 14.7391 77.4902 14.3839 76.4138 13.7293C75.9496 13.4302 75.5454 13.0469 75.2223 12.5992C74.8635 12.0696 74.6459 11.4573 74.5902 10.8201C74.5346 10.183 74.6426 9.54215 74.904 8.95842C75.1067 8.50485 75.4388 8.12115 75.8587 7.85536C75.9852 7.76203 76.1242 7.68686 76.2716 7.63204Z" fill="#4E535C"/>
<path d="M106.284 3.34174C106.468 3.31004 106.655 3.31004 106.839 3.34174C107.339 3.3758 107.834 3.4643 108.315 3.60566C109.928 4.06002 111.365 4.99166 112.438 6.27803C113.511 7.56441 114.17 9.14529 114.327 10.8128C114.376 11.3124 114.376 11.8155 114.327 12.3151C114.32 12.4987 114.282 12.6797 114.212 12.8497C114.144 12.8497 114.259 12.0715 114.083 10.8195C113.87 9.21914 113.208 7.71167 112.174 6.47114C111.141 5.23062 109.777 4.30762 108.241 3.80868C107.063 3.43648 106.277 3.40941 106.284 3.34174Z" fill="#4E535C"/>
<path d="M126.635 25.0985C126.428 25.2155 126.196 25.2805 125.958 25.288C125.293 25.3451 124.625 25.2013 124.042 24.8752C123.171 24.4041 122.462 23.6797 122.011 22.7976C121.486 21.7358 121.095 20.6128 120.847 19.4546C120.605 18.3229 120.226 17.2252 119.716 16.186C119.294 15.3521 118.631 14.6638 117.814 14.21C117.266 13.899 116.643 13.7445 116.013 13.7633C115.573 13.7633 115.336 13.8784 115.336 13.8445C115.541 13.7195 115.773 13.6453 116.013 13.628C116.675 13.5525 117.345 13.6775 117.936 13.9867C118.818 14.4354 119.541 15.144 120.007 16.0168C120.542 17.0794 120.934 18.2081 121.172 19.3734C121.414 20.5043 121.787 21.6034 122.282 22.6487C122.693 23.4912 123.34 24.1964 124.144 24.6789C124.685 25.0003 125.302 25.1709 125.931 25.1729C126.378 25.1458 126.622 25.0646 126.635 25.0985Z" fill="#4E535C"/>
<path d="M126.188 30.7085C126.188 30.7085 126.121 30.7085 125.979 30.7626C125.778 30.805 125.574 30.8322 125.369 30.8438C124.611 30.8999 123.849 30.8406 123.108 30.6679C120.625 30.0901 118.449 28.5996 117.015 26.4925C115.612 24.4067 114.754 22.0038 114.517 19.5019C114.492 19.0815 114.426 18.6645 114.32 18.2568C114.236 17.9597 114.064 17.6953 113.826 17.4988C113.615 17.3365 113.361 17.24 113.095 17.2214C113.234 17.176 113.382 17.1671 113.526 17.1955C113.669 17.224 113.803 17.2888 113.914 17.3838C114.189 17.5851 114.394 17.8664 114.503 18.1891C114.634 18.6052 114.72 19.0339 114.76 19.4681C115.065 21.9092 115.937 24.2452 117.306 26.2895C118.695 28.3201 120.765 29.7868 123.142 30.4243C124.141 30.6502 125.165 30.7458 126.188 30.7085Z" fill="#4E535C"/>
<path d="M66.7929 245.068L162.931 244.445L153.229 186.369L151.543 86.518L132.343 80.6576L122.864 75.3115L91.6737 79.2568L87.6589 84.339C87.6589 84.339 74.01 88.9407 68.1064 91.6408L67.7002 91.8235C63.5131 93.7325 59.9658 96.8082 57.4838 100.682L31.4657 141.143L-6.58324 118.967L-19.9884 138.477C-19.9884 138.477 26.7265 177.348 35.1961 176.556C43.6657 175.764 46.604 175.758 49.5288 171.779C51.7697 168.72 60.5779 158.359 64.7754 151.436L69.061 199.274L66.7929 245.068Z" fill="#FAFAFC"/>
<path d="M91.7954 78.8643L94.2124 151.504L122.837 75.3115L91.7954 78.8643Z" fill="#FFBE9D"/>
<path d="M94.4291 155.598C94.3889 155.527 94.3571 155.452 94.3343 155.375C94.2666 155.212 94.1854 154.996 94.0838 154.698C93.8468 154.102 93.5219 153.263 93.1021 152.187C92.2288 150.022 90.9492 146.888 89.1754 143.106C88.2681 141.217 87.2526 139.167 86.0475 137.015C84.801 134.743 83.2971 132.622 81.5656 130.694C80.6177 129.72 79.4871 128.698 79.0877 127.203C78.9159 126.461 78.9346 125.688 79.1418 124.956C79.3246 124.225 79.5819 123.521 79.8189 122.811C80.7599 119.948 81.7416 116.991 82.7368 113.966L82.7978 113.776L82.9806 114.006L71.4711 115.049V114.71L77.6117 102.529C79.5006 98.8207 81.2068 95.5521 82.6759 92.8588C84.1451 90.1654 85.384 88.0405 86.2438 86.6126C86.6839 85.8953 87.036 85.3471 87.2797 84.9817L87.5573 84.5757C87.625 84.4809 87.6588 84.4335 87.6656 84.4403L87.5844 84.5892L87.3271 85.0155C87.0969 85.4148 86.7651 85.9629 86.3454 86.6735C85.4991 88.1217 84.3143 90.2534 82.8655 92.9603C81.4166 95.6672 79.7376 98.9425 77.869 102.665L74.9307 108.552L73.3532 111.706L72.534 113.33L72.1075 114.149L71.8841 114.555L71.769 114.764L71.7013 114.866C71.6536 114.941 71.5821 114.998 71.4982 115.028V114.69L83.0076 113.634H83.2717L83.1904 113.891L83.1295 114.074C82.1275 117.099 81.1458 120.056 80.2047 122.919C79.7579 124.333 79.108 125.754 79.4736 127.121C79.8392 128.488 80.9089 129.49 81.8567 130.464C83.6094 132.43 85.1251 134.594 86.3725 136.914C87.5776 139.066 88.5796 141.13 89.4732 143.004C91.22 146.807 92.4725 149.961 93.3052 152.147C93.7114 153.243 94.0229 154.096 94.2192 154.678C94.323 154.966 94.3975 155.192 94.4426 155.354C94.4434 155.436 94.4389 155.517 94.4291 155.598Z" fill="#F28080"/>
<path d="M94.3344 156.282C94.3239 156.203 94.3239 156.123 94.3344 156.045L94.4427 155.368C94.6025 154.482 94.8404 153.613 95.1536 152.769C96.3822 149.678 97.9417 146.728 99.8048 143.972C100.962 142.212 102.283 140.318 103.779 138.328C105.358 136.206 107.053 134.172 108.857 132.237C110.862 130.066 113.058 128.077 115.417 126.296C116.677 125.364 117.986 124.499 119.337 123.704C120.691 122.892 122.113 122.12 123.467 121.22L123.419 121.464C121.574 118.71 119.073 116.456 116.141 114.907L115.898 114.778L116.121 114.616C120.307 111.496 125.184 109.433 130.339 108.6L130.21 108.742L131.679 88.5482C131.869 86.112 132.018 84.1765 132.126 82.8366C132.18 82.1599 132.221 81.6862 132.255 81.3275L132.295 80.9418C132.287 80.897 132.287 80.8512 132.295 80.8064C132.3 80.8514 132.3 80.8968 132.295 80.9418V81.3275C132.295 81.693 132.248 82.2005 132.214 82.8434C132.133 84.1968 132.011 86.1187 131.862 88.5617C131.53 93.495 131.07 100.472 130.508 108.769V108.891H130.386C125.282 109.727 120.454 111.779 116.311 114.873V114.582C119.294 116.156 121.839 118.446 123.717 121.247L123.819 121.39L123.67 121.491C122.316 122.398 120.881 123.176 119.52 123.988C118.178 124.771 116.878 125.625 115.627 126.546C113.289 128.314 111.11 130.281 109.114 132.427C107.308 134.36 105.613 136.394 104.036 138.517C102.533 140.487 101.199 142.368 100.035 144.121C98.1551 146.846 96.5666 149.76 95.2958 152.817C94.9679 153.649 94.7097 154.507 94.524 155.381C94.463 155.666 94.4156 155.896 94.3818 156.058C94.3741 156.134 94.3582 156.209 94.3344 156.282Z" fill="#2D2F34"/>
<path d="M150.155 86.3693C150.155 86.3693 165.226 86.3693 169.004 115.347C172.782 144.324 181.089 197.467 165.984 207.544C150.88 217.62 80.8887 216.909 80.8887 216.909V188.839L138.314 182.505C138.314 182.505 138.097 177.28 141.022 177.321L137.759 111.083C137.759 111.083 137.082 87.628 150.155 86.3693Z" fill="#FAFAFC"/>
</g>
</svg>
