<svg width="176" height="203" viewBox="0 0 176 203" fill="none" xmlns="http://www.w3.org/2000/svg">
<ellipse cx="88" cy="114.868" rx="88" ry="88.1317" fill="#E6EAF7"/>
<mask id="mask0" style="mask-type:alpha" maskUnits="userSpaceOnUse" x="0" y="26" width="176" height="177">
<ellipse cx="88" cy="114.868" rx="88" ry="88.1317" fill="white"/>
</mask>
<g mask="url(#mask0)">
<path d="M99.7945 30.7289L100.399 79.2361C100.504 87.4821 98.9719 99.621 85.9399 99.193C74.6498 97.9654 71.666 87.2721 71.5853 79.5753C71.5369 75.9166 71.4966 72.8718 71.4724 72.5003C71.4724 72.5003 59.1259 71.4908 58.0856 59.2792C57.5775 53.3753 57.5291 41.1395 57.6098 30.0666C57.6494 24.3251 59.8476 18.8093 63.7663 14.6183C67.685 10.4273 73.0365 7.86881 78.7546 7.45259L79.9319 7.36375C92.7059 7.21029 99.9639 17.952 99.7945 30.7289Z" fill="#FFBE9D"/>
<path d="M71.4728 72.5003C77.1058 72.0729 82.4986 70.0381 87.0129 66.6368C87.0129 66.6368 83.7871 75.8439 71.5292 75.6339L71.4728 72.5003Z" fill="#EB996E"/>
<path d="M78.4562 35.074C78.6982 35.3163 80.1094 34.1856 82.1497 34.1291C84.19 34.0726 85.7222 35.074 85.94 34.8156C86.0448 34.6944 85.7867 34.2422 85.1335 33.7737C84.2341 33.1768 83.1717 32.8748 82.0933 32.9095C81.0272 32.9414 80.0002 33.3183 79.1659 33.9837C78.5449 34.4925 78.3433 34.961 78.4562 35.074Z" fill="#2D2F34"/>
<path d="M80.5447 39.2737C80.5697 39.6965 80.7595 40.0926 81.0733 40.3766C81.387 40.6606 81.7996 40.8098 82.2221 40.7921C82.6499 40.7921 83.0601 40.6219 83.3626 40.319C83.6651 40.0161 83.835 39.6052 83.835 39.1768C83.8268 38.9618 83.7758 38.7506 83.6849 38.5555C83.5941 38.3605 83.4653 38.1857 83.306 38.0412C83.1467 37.8967 82.9602 37.7856 82.7575 37.7143C82.5547 37.6431 82.3398 37.6131 82.1253 37.6262C81.9135 37.6304 81.7046 37.6763 81.5105 37.7614C81.3164 37.8465 81.141 37.969 80.9942 38.122C80.8474 38.275 80.7322 38.4555 80.6551 38.6531C80.5779 38.8507 80.5405 39.0616 80.5447 39.2737Z" fill="#2D2F34"/>
<path d="M73.3519 49.3047C73.3519 49.1916 72.1745 49.0785 70.2633 48.9735C69.7794 48.9735 69.3197 48.9008 69.2149 48.5778C69.1371 48.0849 69.2132 47.5801 69.4326 47.1321C69.7928 45.9368 70.1772 44.6849 70.5858 43.3766C72.1987 38.0299 73.2793 33.6848 73.0697 33.5879C72.86 33.491 71.3923 37.8119 69.8036 43.1504L68.7149 46.9302C68.4528 47.5292 68.4127 48.2022 68.602 48.8282C68.6809 48.9885 68.7941 49.1294 68.9334 49.2411C69.0728 49.3527 69.2349 49.4323 69.4084 49.4743C69.6743 49.5233 69.9451 49.5396 70.2149 49.5227C71.2656 49.5855 72.32 49.5122 73.3519 49.3047Z" fill="#2D2F34"/>
<path d="M79.3274 27.3772C79.529 27.8294 81.1579 27.4902 83.1176 27.5952C85.0772 27.7002 86.6901 28.1283 86.9159 27.6921C87.0127 27.4821 86.7143 27.0622 86.045 26.6584C85.1705 26.1599 84.1878 25.8827 83.1821 25.8507C82.1765 25.7955 81.1731 25.9926 80.2628 26.4241C79.5773 26.7714 79.2467 27.1591 79.3274 27.3772Z" fill="#2D2F34"/>
<path d="M59.9244 31.1731C60.1421 31.5366 61.7389 31.1328 63.6663 31.0682C65.5937 31.0035 67.2065 31.2539 67.4082 30.8743C67.4969 30.6886 67.1743 30.3574 66.5049 30.0667C65.5983 29.706 64.6244 29.5462 63.6501 29.5982C62.6624 29.6286 61.6922 29.868 60.8034 30.3009C60.1421 30.6401 59.8357 30.9955 59.9244 31.1731Z" fill="#2D2F34"/>
<path d="M99.464 39.8472C99.6656 39.7422 107.665 36.7539 108.004 45.1292C108.343 53.5044 99.8833 52.1234 99.8591 51.8811C99.8349 51.6388 99.464 39.8472 99.464 39.8472Z" fill="#FFBE9D"/>
<path d="M102.286 48.6021C102.286 48.6021 102.432 48.699 102.682 48.804C103.034 48.9411 103.426 48.9411 103.778 48.804C104.641 48.4406 105.335 47.0111 105.311 45.4927C105.301 44.7755 105.133 44.0694 104.819 43.4251C104.73 43.1658 104.58 42.9322 104.38 42.7449C104.18 42.5576 103.938 42.4223 103.674 42.3509C103.51 42.3197 103.34 42.346 103.193 42.4254C103.046 42.5049 102.931 42.6326 102.867 42.7871C102.762 43.0213 102.819 43.1909 102.778 43.2071C102.738 43.2232 102.593 43.0698 102.649 42.7225C102.684 42.5112 102.792 42.3193 102.956 42.1813C103.067 42.0894 103.196 42.0206 103.335 41.979C103.473 41.9374 103.619 41.9238 103.762 41.9391C104.108 41.9934 104.434 42.1354 104.709 42.3518C104.985 42.5681 105.2 42.8514 105.335 43.1747C105.719 43.8845 105.924 44.6774 105.932 45.4846C105.932 47.1807 105.125 48.7959 103.956 49.1917C103.735 49.2676 103.499 49.2918 103.267 49.2624C103.035 49.233 102.813 49.1508 102.617 49.0221C102.311 48.804 102.254 48.6183 102.286 48.6021Z" fill="#EB996E"/>
<path d="M75.3196 55.1036C75.2228 54.8936 76.8599 54.401 78.0131 52.8584C78.4964 52.1842 78.8869 51.448 79.1744 50.6697C79.4163 50.0639 79.6018 49.6843 79.6905 49.7086C79.7792 49.7328 79.755 50.1528 79.6179 50.807C79.4406 51.6831 79.0746 52.51 78.5454 53.2299C77.9912 53.9511 77.2528 54.5092 76.4083 54.8452C75.7712 55.1602 75.3357 55.1763 75.3196 55.1036Z" fill="#F28080"/>
<path d="M110.585 26.2546C108.835 23.3067 108.432 19.7934 107.48 16.482C106.529 13.1707 104.698 9.77053 101.464 8.6156H101.392C98.4968 7.45259 94.9404 7.43643 92.5211 9.42324C91.9324 5.07003 88.1179 1.62947 83.876 0.539146C79.6342 -0.551174 72.8279 0.0949384 68.7634 1.73446C65.6183 3.00246 62.578 5.60307 58.8765 9.41516C57.3155 11.0211 55.8887 12.7526 54.6104 14.5922L50.925 26.0042L54.0862 31.9888C54.2691 32.4046 54.4764 32.8092 54.7072 33.2003L57.5539 45.8076C57.7394 42.3671 57.4894 30.4139 57.6668 26.9734C60.249 26.8971 62.7891 26.2982 65.1341 25.2127C67.4791 24.1273 69.5805 22.5778 71.3118 20.6576C73.1908 18.5819 74.6585 15.9732 77.1665 14.7295C80.3923 13.1142 84.2551 14.2933 87.6502 15.4806L87.505 15.3514C89.2855 16.1742 90.8903 17.3343 92.2308 18.7677C91.4605 25.5679 92.1618 32.4544 94.2872 38.9588C94.6097 39.9361 95.4807 41.9471 96.4404 42.3186C98.3113 43.0455 98.8194 41.1314 99.9484 40.1137C100.755 39.3626 102.021 39.3061 103.368 39.3061C104.307 36.4581 105.074 33.5561 105.666 30.6158C106.801 30.9676 108.002 31.0478 109.174 30.8501L108.093 28.2656C108.541 28.5926 109.052 28.8236 109.593 28.944C109.866 28.9987 110.149 28.9684 110.404 28.8572C110.66 28.7461 110.875 28.5593 111.021 28.3221C111.376 27.6437 110.948 26.9087 110.585 26.2546Z" fill="#2D2F34"/>
<path d="M88.6736 10.9093C89.11 11.2519 89.5198 11.6272 89.8994 12.0319C90.8607 13.1937 91.5053 14.5849 91.7704 16.0702C91.98 17.0906 92.0854 18.1297 92.0849 19.1715C92.0849 20.3022 91.9962 21.5056 91.9075 22.7736C91.7945 24.1166 91.7649 25.4652 91.8187 26.8118C91.8555 27.5232 91.9472 28.2307 92.0929 28.9279C92.2009 29.6718 92.4981 30.3754 92.9558 30.9712C93.1671 31.2092 93.4366 31.3879 93.7378 31.4899C94.0389 31.5919 94.3615 31.6135 94.6735 31.5527C95.2722 31.4427 95.8171 31.1357 96.2219 30.6804C96.8857 29.7685 97.2924 28.6945 97.3993 27.571H97.1412C97.5097 28.4918 98.0095 29.3541 98.6251 30.1313C99.2247 30.8498 100.076 31.3121 101.004 31.4235C101.435 31.4649 101.87 31.3896 102.262 31.2054C102.618 31.023 102.914 30.7428 103.117 30.3978C103.296 30.0657 103.385 29.6926 103.375 29.3155C103.358 28.9639 103.218 28.6295 102.98 28.3706L102.851 28.4837C103.578 29.3157 104.471 29.9868 105.472 30.4543C105.818 30.6078 106.093 30.7047 106.278 30.7693C106.372 30.8056 106.469 30.83 106.568 30.842L106.294 30.7208C106.109 30.6481 105.843 30.5351 105.488 30.3655C104.518 29.8779 103.657 29.1994 102.956 28.3706L102.827 28.4837C103.027 28.7405 103.143 29.0536 103.157 29.3793C103.172 29.7051 103.084 30.0272 102.907 30.3009C102.72 30.6249 102.439 30.8841 102.101 31.0439C101.744 31.212 101.347 31.2764 100.956 31.2297C100.093 31.1161 99.3052 30.677 98.7541 30.002C98.1621 29.2395 97.6815 28.3965 97.3267 27.4983L97.1493 27.1026L97.0687 27.5306C96.9643 28.6008 96.5774 29.6238 95.9477 30.4947C95.5905 30.9141 95.1013 31.199 94.5606 31.3023C94.2963 31.3551 94.0228 31.3381 93.7669 31.2532C93.511 31.1682 93.2815 31.0182 93.101 30.8177C92.6769 30.2541 92.3997 29.5934 92.2945 28.8956C92.1544 28.214 92.0655 27.5229 92.0284 26.828C91.971 25.5032 91.9952 24.1761 92.101 22.8544C92.1816 21.5864 92.2623 20.3749 92.2462 19.2361C92.2387 18.1793 92.1198 17.1262 91.8913 16.0944C91.6043 14.5774 90.9196 13.1642 89.9075 11.9996C89.5595 11.5701 89.1425 11.2016 88.6736 10.9093Z" fill="#F28080"/>
<path d="M59.8357 35.8413C60.0776 36.0917 61.4889 34.9529 63.5292 34.8963C65.5695 34.8398 67.0937 35.8494 67.3114 35.5828C67.4162 35.4698 67.1662 35.0175 66.505 34.5491C65.6103 33.9483 64.5491 33.6459 63.4727 33.6849C62.4055 33.7162 61.3765 34.0899 60.5373 34.751C59.9163 35.2679 59.7147 35.7282 59.8357 35.8413Z" fill="#2D2F34"/>
<path d="M62.6419 39.2739C62.6501 39.4889 62.7011 39.7001 62.7919 39.8951C62.8828 40.0902 63.0116 40.265 63.1709 40.4095C63.3302 40.5539 63.5166 40.6651 63.7194 40.7363C63.9221 40.8076 64.1371 40.8376 64.3515 40.8245C64.7793 40.8245 65.1895 40.6543 65.492 40.3514C65.7945 40.0485 65.9644 39.6376 65.9644 39.2092C65.9562 38.9942 65.9052 38.783 65.8144 38.588C65.7235 38.3929 65.5947 38.2181 65.4354 38.0736C65.2761 37.9292 65.0897 37.818 64.8869 37.7467C64.6842 37.6755 64.4692 37.6455 64.2548 37.6586C63.827 37.6586 63.4168 37.8287 63.1143 38.1317C62.8118 38.4346 62.6419 38.8454 62.6419 39.2739Z" fill="#2D2F34"/>
<path d="M55.6581 13.2433C54.6339 14.6325 53.0533 15.9005 51.3436 15.739C50.7244 15.6147 50.1152 15.4447 49.5211 15.2302C48.9243 15.5936 49.0937 17.6531 49.5211 18.2023C49.9166 18.674 50.3509 19.1116 50.8194 19.5107C48.8275 20.6171 46.9888 20.1083 44.8437 19.3572C45.0783 21.1798 45.7864 22.9089 46.8973 24.3715C48.0083 25.8342 49.483 26.9792 51.1743 27.6921C51.6956 27.9606 52.2734 28.1007 52.8597 28.1007C53.446 28.1007 54.0238 27.9606 54.5452 27.6921C55.3333 27.0153 55.8467 26.073 55.9887 25.043C56.905 21.3636 57.3628 17.5847 57.3516 13.7926L55.6581 13.2433Z" fill="#2D2F34"/>
<path d="M65.7226 81.9094L71.3677 78.8968C71.3677 78.8968 77.3434 87.7809 86.2142 86.9006C95.085 86.0203 100.73 78.1619 100.73 78.1619L106.375 81.029L87.0207 112.826L65.7226 81.9094Z" fill="#F28080"/>
<path d="M129.326 174.417L122.786 129.577L127.584 87.474L105.254 79.656L86.9803 109.539L66.0936 80.5848L53.6987 86.0203C42.9005 90.7611 33.1506 101.002 30.9168 112.592C30.9168 112.745 30.8603 112.899 30.8281 113.052C27.9652 128.575 31.1345 150.705 31.1345 150.705L52.3116 141.32L50.6019 133.833L54.6341 150.923C54.6341 150.923 37.336 214.064 39.7957 234.764C39.7957 234.764 72.4483 242.033 102.52 237.098C132.592 232.164 140.754 230.766 140.754 230.766L129.326 174.417Z" fill="#FAFAFC"/>
<path d="M127.585 87.4741C127.585 87.4741 140.576 98.7812 142.012 114.49C143.447 130.199 146.1 144.235 146.1 144.235L119.915 147.038C119.915 147.038 119.303 136.264 119.915 135.61C120.528 134.956 124.827 102.626 124.827 102.626L127.585 87.4741Z" fill="#FAFAFC"/>
<g opacity="0.2">
<path opacity="0.2" d="M49.1579 173.06L48.2143 177.397L64.085 183.051C69.7301 185.07 75.4236 187.089 81.3428 188.115C92.1894 189.98 103.31 188.365 114.205 186.75C120.286 185.853 127.108 184.488 130.463 179.319C103.203 180.978 75.8445 178.872 49.1579 173.06Z" fill="black"/>
</g>
<path d="M33.0781 149.824C33.2797 150.042 40.3361 170.54 44.4328 174.199C48.5295 177.858 72.2549 176.573 82.2789 172.907C92.3029 169.24 113.593 164.79 113.593 164.79L110.367 148.257C110.367 148.257 102.577 149.065 92.3352 150.68C88.6256 151.286 54.6907 150.898 54.6907 150.898L52.344 141.295L33.0781 149.824Z" fill="#F28080"/>
<path d="M144.705 144.389C144.648 144.389 144.06 171.396 141.197 174.853C138.334 178.31 128.294 182.397 120.746 183.261C113.197 184.125 67.1416 182.025 60.3917 176.388L87.0042 157.812L114.117 164.515L121.705 161.244L122.399 146.771L144.705 144.389Z" fill="#F28080"/>
<path d="M120.4 187.194C120.291 187.355 120.17 187.506 120.037 187.646L118.94 188.898C118.464 189.447 117.867 190.101 117.141 190.828C116.416 191.555 115.625 192.444 114.666 193.251C113.706 194.059 112.69 195.117 111.521 196.086C110.351 197.055 109.101 198.097 107.746 199.155C104.791 201.401 101.699 203.462 98.4886 205.326C95.2606 207.166 91.9239 208.809 88.4968 210.244C86.8839 210.858 85.4001 211.48 83.9485 211.948C83.2308 212.191 82.5372 212.441 81.8679 212.651L79.9163 213.224C78.6825 213.604 77.5373 213.862 76.5454 214.105C75.5535 214.347 74.6825 214.541 73.9648 214.67L72.3519 214.969C72.1632 215.009 71.9718 215.036 71.7794 215.05C71.9587 214.976 72.1452 214.922 72.3358 214.888L73.9487 214.508C74.6583 214.355 75.5132 214.153 76.5051 213.878C77.497 213.604 78.626 213.337 79.8518 212.934L81.7792 212.344C82.4485 212.126 83.134 211.867 83.8517 211.617C85.2953 211.141 86.7872 210.511 88.3678 209.881C95.1885 207.017 101.625 203.31 107.529 198.848C108.876 197.806 110.166 196.821 111.311 195.82C112.456 194.818 113.521 193.905 114.472 193.033C115.424 192.161 116.254 191.337 116.988 190.61C117.722 189.883 118.343 189.27 118.835 188.737L119.988 187.541C120.116 187.414 120.253 187.298 120.4 187.194Z" fill="#F28080"/>
<path d="M111.69 81.9094L111.585 82.1274L111.254 82.7897L109.948 85.2126L105.045 94.0967L88.6739 123.301L88.5126 123.592L88.3191 123.325L87.6901 122.461L67.5291 94.7913L61.4566 86.3756L59.8438 84.0819C59.6744 83.8316 59.5373 83.6297 59.4244 83.4762C59.3758 83.407 59.3326 83.3341 59.2954 83.2581C59.3576 83.3175 59.4143 83.3824 59.4647 83.452C59.5776 83.5974 59.7228 83.7912 59.9163 84.0254L61.6099 86.2787L67.7872 94.6136L88.053 122.211L88.682 123.075H88.3272C94.7787 111.647 100.577 101.341 104.795 93.8706L109.803 85.0753L111.182 82.7009L111.553 82.0871C111.633 81.9821 111.682 81.9013 111.69 81.9094Z" fill="#2D2F34"/>
<path d="M96.0768 149.017C96.0414 148.852 96.0279 148.684 96.0365 148.516C96.0365 148.136 96.0365 147.66 95.9961 147.078C95.9961 145.77 95.9558 143.977 95.9316 141.788C95.9074 139.6 95.9316 136.886 95.8833 133.946C95.8833 132.468 95.8833 130.917 95.8833 129.318C95.8833 128.511 95.8833 127.703 95.8833 126.895V125.474C95.8898 125.38 95.9234 125.29 95.98 125.215C96.0334 125.152 96.1002 125.102 96.1756 125.069C96.251 125.035 96.333 125.019 96.4155 125.022H97.0606C103.875 124.9 110.028 125.022 114.488 125.102L119.762 125.223L121.197 125.288C121.365 125.283 121.533 125.3 121.697 125.336C121.531 125.351 121.364 125.351 121.197 125.336H119.762H114.48C110.02 125.336 103.851 125.256 97.0687 125.377H96.4397C96.2945 125.377 96.3429 125.377 96.3107 125.377C96.3064 125.39 96.3064 125.404 96.3107 125.417V129.262C96.3107 130.877 96.3107 132.411 96.3107 133.889C96.3107 136.829 96.3107 139.478 96.2623 141.732C96.2139 143.985 96.2139 145.713 96.1977 147.022V148.459C96.1854 148.65 96.1447 148.838 96.0768 149.017Z" fill="#2D2F34"/>
<path d="M122.375 146.779C122.384 146.863 122.384 146.946 122.375 147.03C122.375 147.223 122.375 147.466 122.375 147.773C122.375 148.451 122.318 149.388 122.286 150.599C122.181 153.095 122.036 156.624 121.858 160.953V161.058H121.754C118.689 162.27 115.133 163.627 111.213 165.016C107.294 166.405 102.972 167.689 98.4395 168.925C88.0767 171.695 78.5043 173.343 71.5932 174.53L63.3998 175.903L61.174 176.258L60.5853 176.339H60.3917C60.3917 176.339 60.4563 176.339 60.5772 176.283L61.1579 176.161L63.3756 175.725L71.5448 174.223C78.4398 172.963 87.9881 171.267 98.3266 168.505C102.859 167.269 107.197 166.009 111.084 164.628C114.971 163.247 118.56 161.923 121.641 160.743L121.536 160.889C121.77 156.568 121.963 153.03 122.1 150.543C122.173 149.348 122.237 148.403 122.278 147.716C122.278 147.417 122.318 147.175 122.334 146.981C122.339 146.913 122.353 146.845 122.375 146.779Z" fill="#2D2F34"/>
<path d="M110.641 149.59C113.198 149.254 115.773 149.068 118.351 149.033C119.66 149.1 120.961 149.284 122.238 149.582L121.682 161.252L113.512 164.523L110.641 149.59Z" fill="#FFBE9D"/>
<path d="M44.0539 106.833C44.2236 107.281 44.3531 107.744 44.441 108.214C44.6749 109.176 44.9813 110.46 45.3523 112.01C46.1587 115.281 47.1507 119.683 48.2877 124.553C49.4248 129.423 50.5216 133.873 51.3199 137.072L52.2715 140.859C52.4137 141.315 52.5163 141.783 52.578 142.257C52.3905 141.817 52.2369 141.363 52.1183 140.9C51.8361 140.02 51.4732 138.735 51.0296 137.144C50.1587 133.962 49.0377 129.544 47.8764 124.65C46.7152 119.756 45.7394 115.306 45.062 112.075C44.7394 110.508 44.4814 109.216 44.2555 108.247C44.1573 107.781 44.0899 107.308 44.0539 106.833Z" fill="#2D2F34"/>
<path d="M121.802 131.248C121.469 131.321 121.128 131.357 120.786 131.353C120.133 131.402 119.173 131.442 118.028 131.491C115.689 131.571 112.464 131.636 108.899 131.636C105.335 131.636 102.109 131.555 99.7784 131.466C98.6091 131.418 97.6656 131.37 97.0123 131.329C96.6733 131.327 96.3354 131.289 96.0043 131.216C96.3398 131.159 96.681 131.143 97.0204 131.168H99.7865L108.899 131.216H118.02H120.786C121.125 131.188 121.466 131.198 121.802 131.248Z" fill="#2D2F34"/>
<path d="M74.5455 151.028C74.5455 151.028 74.3439 150.801 74.0374 150.349L72.7874 148.435C71.731 146.82 70.2391 144.607 68.4891 142.232C66.7391 139.858 65.0779 137.782 63.844 136.288L62.3924 134.527C62.1956 134.325 62.0273 134.097 61.8925 133.849C62.1249 134.007 62.334 134.198 62.5134 134.414C62.8924 134.802 63.4247 135.375 64.0698 136.094C65.3601 137.54 67.0698 139.607 68.8278 141.99C70.5859 144.373 72.0536 146.618 73.0374 148.273C73.5374 149.081 73.9245 149.792 74.1826 150.268C74.3341 150.506 74.456 150.761 74.5455 151.028Z" fill="#2D2F34"/>
<path d="M79.1741 151.246C78.2975 150.276 77.6206 149.142 77.1822 147.91C76.6167 146.731 76.2853 145.452 76.2064 144.146C76.3274 144.146 76.7467 145.762 77.5693 147.749C78.3918 149.735 79.2789 151.181 79.1741 151.246Z" fill="#2D2F34"/>
<path d="M92.1497 116.711C92.0362 116.608 91.9359 116.491 91.8514 116.364L91.0449 115.338L88.1982 111.501L78.9403 98.7811L69.7711 85.9718L67.0292 82.0548L66.3034 80.9806C66.211 80.8578 66.1326 80.7251 66.0695 80.5848C66.1831 80.6877 66.2833 80.8043 66.3679 80.9321L67.1744 81.9578L70.0211 85.7942L79.2951 98.5307L88.4643 111.34L91.2062 115.257L91.932 116.331C92.0178 116.45 92.0908 116.577 92.1497 116.711Z" fill="#2D2F34"/>
<path d="M103.238 79.656C103.213 79.8008 103.169 79.9419 103.109 80.076C102.973 80.4814 102.811 80.8779 102.625 81.2632C101.954 82.6867 101.07 83.9994 100.004 85.156C98.4169 86.8762 96.5141 88.2745 94.3995 89.275C93.1513 89.8593 91.8531 90.3296 90.5205 90.6803C89.0811 91.0262 87.6122 91.2344 86.1335 91.3022C83.2623 91.3879 80.4097 90.8132 77.795 89.6223C75.6609 88.6668 73.716 87.3345 72.0531 85.6891C70.9322 84.5919 69.9614 83.3508 69.1661 81.9981C68.9475 81.6333 68.7509 81.2558 68.5774 80.8674C68.5041 80.7367 68.4447 80.5986 68.3999 80.4555C69.45 82.3005 70.7499 83.991 72.2628 85.4791C73.9256 87.0644 75.8525 88.3463 77.9562 89.2669C80.5216 90.4103 83.3106 90.9623 86.1174 90.8822C88.9272 90.7784 91.6881 90.1139 94.2382 88.9277C96.317 87.9581 98.1982 86.6108 99.7865 84.9541C100.853 83.8301 101.76 82.5635 102.48 81.1905C102.98 80.2132 103.19 79.6398 103.238 79.656Z" fill="#2D2F34"/>
<g opacity="0.2">
<path opacity="0.2" d="M60.3917 176.388C81.9156 178.189 104.576 178.665 122.383 160.8C103.649 168.497 80.4075 173.399 60.3917 176.388Z" fill="black"/>
</g>
<g opacity="0.2">
<path opacity="0.2" d="M122.326 149.55C119.383 146.868 118.963 142.442 119.052 138.461C119.205 131.798 120.818 124.391 122.673 117.995C122.294 129.35 121.447 139.349 122.197 149.59" fill="black"/>
</g>
<path d="M54.6582 150.923C54.6582 150.979 54.2711 151.246 53.6259 151.73C52.794 152.341 52.0691 153.086 51.4808 153.935C50.9303 154.819 50.4452 155.742 50.0292 156.697C49.8809 157.113 49.6687 157.502 49.4002 157.852C49.4466 157.413 49.5666 156.984 49.755 156.584C50.0994 155.572 50.5623 154.604 51.134 153.701C51.7403 152.805 52.5325 152.05 53.4565 151.488C53.8136 151.218 54.2228 151.026 54.6582 150.923Z" fill="#2D2F34"/>
<path d="M125.044 100.154C125.051 100.322 125.037 100.49 125.004 100.655C124.956 101.018 124.891 101.462 124.802 102.076C124.617 103.304 124.367 105.089 124.069 107.302C123.48 111.711 122.794 117.801 122.391 124.618C121.988 131.434 121.931 137.54 121.988 142.014C121.988 144.243 122.06 146.053 122.093 147.288C122.093 147.878 122.093 148.354 122.093 148.726C122.113 148.892 122.113 149.06 122.093 149.227C122.059 149.061 122.038 148.894 122.028 148.726C122.028 148.354 121.964 147.878 121.923 147.296C121.835 146.053 121.754 144.251 121.681 142.022C121.544 137.564 121.56 131.394 121.964 124.593C122.367 117.793 123.101 111.671 123.77 107.253C124.101 105.048 124.399 103.272 124.633 102.044C124.746 101.471 124.843 101.002 124.915 100.639C124.936 100.472 124.98 100.309 125.044 100.154Z" fill="#2D2F34"/>
</g>
<mask id="mask1" style="mask-type:alpha" maskUnits="userSpaceOnUse" x="44" y="0" width="68" height="72">
<rect x="44.6112" width="67.0571" height="71.197" fill="white"/>
</mask>
<g mask="url(#mask1)">
<path d="M99.7946 30.7289L100.399 79.2361C100.504 87.4821 98.972 99.621 85.94 99.193C74.6498 97.9654 71.666 87.2721 71.5854 79.5753C71.537 75.9166 71.4967 72.8718 71.4725 72.5003C71.4725 72.5003 59.1259 71.4908 58.0856 59.2792C57.5776 53.3753 57.5292 41.1395 57.6098 30.0666C57.6495 24.3251 59.8477 18.8093 63.7664 14.6183C67.6851 10.4273 73.0366 7.86881 78.7546 7.45259L79.932 7.36375C92.706 7.21029 99.9639 17.952 99.7946 30.7289Z" fill="#FFBE9D"/>
<path d="M71.4729 72.5003C77.1059 72.0729 82.4986 70.0381 87.0129 66.6368C87.0129 66.6368 83.7871 75.8439 71.5293 75.6339L71.4729 72.5003Z" fill="#EB996E"/>
<path d="M78.4563 35.074C78.6982 35.3163 80.1095 34.1856 82.1498 34.1291C84.1901 34.0726 85.7223 35.074 85.94 34.8156C86.0449 34.6944 85.7868 34.2422 85.1336 33.7737C84.2342 33.1768 83.1717 32.8748 82.0933 32.9095C81.0273 32.9414 80.0002 33.3183 79.166 33.9837C78.545 34.4925 78.3434 34.961 78.4563 35.074Z" fill="#2D2F34"/>
<path d="M80.5448 39.2737C80.5698 39.6965 80.7596 40.0926 81.0733 40.3766C81.3871 40.6606 81.7997 40.8098 82.2222 40.7921C82.65 40.7921 83.0602 40.6219 83.3627 40.319C83.6651 40.0161 83.8351 39.6052 83.8351 39.1768C83.8269 38.9618 83.7758 38.7506 83.685 38.5555C83.5941 38.3605 83.4653 38.1857 83.3061 38.0412C83.1468 37.8967 82.9603 37.7856 82.7576 37.7143C82.5548 37.6431 82.3399 37.6131 82.1254 37.6262C81.9136 37.6304 81.7047 37.6763 81.5106 37.7614C81.3165 37.8465 81.1411 37.969 80.9943 38.122C80.8475 38.275 80.7323 38.4555 80.6551 38.6531C80.578 38.8507 80.5405 39.0616 80.5448 39.2737Z" fill="#2D2F34"/>
<path d="M73.352 49.3047C73.352 49.1916 72.1746 49.0785 70.2633 48.9735C69.7795 48.9735 69.3198 48.9008 69.215 48.5778C69.1372 48.0849 69.2132 47.5801 69.4327 47.1321C69.7929 45.9368 70.1773 44.6849 70.5859 43.3766C72.1988 38.0299 73.2794 33.6848 73.0697 33.5879C72.8601 33.491 71.3924 37.8119 69.8037 43.1504L68.715 46.9302C68.4529 47.5292 68.4128 48.2022 68.6021 48.8282C68.681 48.9885 68.7942 49.1294 68.9335 49.2411C69.0729 49.3527 69.235 49.4323 69.4085 49.4743C69.6743 49.5233 69.9452 49.5396 70.2149 49.5227C71.2656 49.5855 72.32 49.5122 73.352 49.3047Z" fill="#2D2F34"/>
<path d="M79.3274 27.3772C79.529 27.8294 81.158 27.4902 83.1177 27.5952C85.0773 27.7002 86.6902 28.1283 86.916 27.6921C87.0128 27.4821 86.7144 27.0622 86.045 26.6584C85.1706 26.1599 84.1879 25.8827 83.1822 25.8507C82.1766 25.7955 81.1731 25.9926 80.2629 26.4241C79.5774 26.7714 79.2468 27.1591 79.3274 27.3772Z" fill="#2D2F34"/>
<path d="M59.9245 31.1731C60.1422 31.5366 61.739 31.1328 63.6663 31.0682C65.5937 31.0035 67.2066 31.2539 67.4082 30.8743C67.4969 30.6886 67.1744 30.3574 66.505 30.0667C65.5983 29.706 64.6244 29.5462 63.6502 29.5982C62.6624 29.6286 61.6922 29.868 60.8035 30.3009C60.1422 30.6401 59.8358 30.9955 59.9245 31.1731Z" fill="#2D2F34"/>
<path d="M99.464 39.8472C99.6656 39.7422 107.665 36.7539 108.004 45.1292C108.343 53.5044 99.8834 52.1234 99.8592 51.8811C99.835 51.6388 99.464 39.8472 99.464 39.8472Z" fill="#FFBE9D"/>
<path d="M102.287 48.6021C102.287 48.6021 102.432 48.699 102.682 48.804C103.035 48.9411 103.426 48.9411 103.779 48.804C104.641 48.4406 105.335 47.0111 105.311 45.4927C105.302 44.7755 105.134 44.0694 104.819 43.4251C104.73 43.1658 104.58 42.9322 104.38 42.7449C104.18 42.5576 103.938 42.4223 103.674 42.3509C103.51 42.3197 103.34 42.346 103.193 42.4254C103.046 42.5049 102.931 42.6326 102.867 42.7871C102.762 43.0213 102.819 43.1909 102.779 43.2071C102.738 43.2232 102.593 43.0698 102.649 42.7225C102.684 42.5112 102.793 42.3193 102.956 42.1813C103.068 42.0894 103.196 42.0206 103.335 41.979C103.473 41.9374 103.619 41.9238 103.762 41.9391C104.108 41.9934 104.434 42.1354 104.709 42.3518C104.985 42.5681 105.2 42.8514 105.335 43.1747C105.719 43.8845 105.924 44.6774 105.932 45.4846C105.932 47.1807 105.125 48.7959 103.956 49.1917C103.735 49.2676 103.499 49.2918 103.267 49.2624C103.035 49.233 102.813 49.1508 102.617 49.0221C102.311 48.804 102.254 48.6183 102.287 48.6021Z" fill="#EB996E"/>
<path d="M75.3197 55.1036C75.2229 54.8936 76.86 54.401 78.0132 52.8584C78.4964 52.1842 78.887 51.448 79.1744 50.6697C79.4164 50.0639 79.6018 49.6843 79.6906 49.7086C79.7793 49.7328 79.7551 50.1528 79.618 50.807C79.4407 51.6831 79.0746 52.51 78.5454 53.2299C77.9912 53.9511 77.2529 54.5092 76.4084 54.8452C75.7713 55.1602 75.3358 55.1763 75.3197 55.1036Z" fill="#CE6D6D"/>
<path d="M110.585 26.2546C108.835 23.3067 108.432 19.7934 107.481 16.482C106.529 13.1707 104.698 9.77053 101.465 8.6156H101.392C98.4968 7.45259 94.9404 7.43643 92.5211 9.42324C91.9324 5.07003 88.118 1.62947 83.8761 0.539146C79.6342 -0.551174 72.8279 0.0949384 68.7635 1.73446C65.6184 3.00246 62.5781 5.60307 58.8765 9.41516C57.3156 11.0211 55.8888 12.7526 54.6105 14.5922L50.9251 26.0042L54.0863 31.9888C54.2691 32.4046 54.4765 32.8092 54.7073 33.2003L57.554 45.8076C57.7395 42.3671 57.4895 30.4139 57.6669 26.9734C60.2491 26.8971 62.7892 26.2982 65.1342 25.2127C67.4792 24.1273 69.5806 22.5778 71.3118 20.6576C73.1908 18.5819 74.6585 15.9732 77.1666 14.7295C80.3923 13.1142 84.2551 14.2933 87.6503 15.4806L87.5051 15.3514C89.2856 16.1742 90.8903 17.3343 92.2308 18.7677C91.4605 25.5679 92.1619 32.4544 94.2872 38.9588C94.6098 39.9361 95.4808 41.9471 96.4404 42.3186C98.3114 43.0455 98.8194 41.1314 99.9484 40.1137C100.755 39.3626 102.021 39.3061 103.368 39.3061C104.307 36.4581 105.074 33.5561 105.666 30.6158C106.801 30.9676 108.003 31.0478 109.174 30.8501L108.093 28.2656C108.542 28.5926 109.052 28.8236 109.593 28.944C109.866 28.9987 110.149 28.9684 110.404 28.8572C110.66 28.7461 110.875 28.5593 111.021 28.3221C111.376 27.6437 110.948 26.9087 110.585 26.2546Z" fill="#2D2F34"/>
<path d="M88.6737 10.9093C89.1101 11.2519 89.5199 11.6272 89.8995 12.0319C90.8608 13.1937 91.5054 14.5849 91.7704 16.0702C91.9801 17.0906 92.0855 18.1297 92.085 19.1715C92.085 20.3022 91.9963 21.5056 91.9076 22.7736C91.7946 24.1166 91.765 25.4652 91.8188 26.8118C91.8556 27.5232 91.9473 28.2307 92.093 28.9279C92.201 29.6718 92.4982 30.3754 92.9559 30.9712C93.1672 31.2092 93.4366 31.3879 93.7378 31.4899C94.039 31.5919 94.3615 31.6135 94.6736 31.5527C95.2723 31.4427 95.8172 31.1357 96.222 30.6804C96.8858 29.7685 97.2925 28.6945 97.3994 27.571H97.1413C97.5098 28.4918 98.0096 29.3541 98.6252 30.1313C99.2248 30.8498 100.076 31.3121 101.004 31.4235C101.435 31.4649 101.87 31.3896 102.262 31.2054C102.618 31.023 102.914 30.7428 103.117 30.3978C103.296 30.0657 103.385 29.6926 103.375 29.3155C103.358 28.9639 103.218 28.6295 102.98 28.3706L102.851 28.4837C103.578 29.3157 104.471 29.9868 105.472 30.4543C105.819 30.6078 106.093 30.7047 106.278 30.7693C106.372 30.8056 106.469 30.83 106.569 30.842L106.294 30.7208C106.109 30.6481 105.843 30.5351 105.488 30.3655C104.518 29.8779 103.657 29.1994 102.956 28.3706L102.827 28.4837C103.027 28.7405 103.143 29.0536 103.157 29.3793C103.172 29.7051 103.084 30.0272 102.907 30.3009C102.72 30.6249 102.439 30.8841 102.101 31.0439C101.744 31.212 101.347 31.2764 100.956 31.2297C100.093 31.1161 99.3053 30.677 98.7542 30.002C98.1622 29.2395 97.6816 28.3965 97.3268 27.4983L97.1494 27.1026L97.0687 27.5306C96.9644 28.6008 96.5775 29.6238 95.9478 30.4947C95.5906 30.9141 95.1013 31.199 94.5607 31.3023C94.2963 31.3551 94.0228 31.3381 93.767 31.2532C93.5111 31.1682 93.2816 31.0182 93.1011 30.8177C92.677 30.2541 92.3998 29.5934 92.2946 28.8956C92.1545 28.214 92.0655 27.5229 92.0285 26.828C91.9711 25.5032 91.9953 24.1761 92.1011 22.8544C92.1817 21.5864 92.2624 20.3749 92.2462 19.2361C92.2388 18.1793 92.1199 17.1262 91.8914 16.0944C91.6044 14.5774 90.9197 13.1642 89.9076 11.9996C89.5596 11.5701 89.1426 11.2016 88.6737 10.9093Z" fill="#EDEDEF"/>
<path d="M50.9728 22.8059L51.0696 22.8867L51.3761 23.1128C51.5404 23.2348 51.7129 23.3454 51.8922 23.4439C52.1306 23.5896 52.3784 23.7191 52.6341 23.8316C54.268 24.5752 56.0617 24.8973 57.8518 24.7685C60.5184 24.5992 63.0776 23.6532 65.2145 22.0467C67.7933 20.0792 69.9446 17.6059 71.537 14.7779C72.4241 13.2918 73.1499 11.7815 73.9563 10.3762C74.6829 9.01369 75.6008 7.76257 76.6821 6.66107C77.6546 5.66142 78.8643 4.92505 80.1981 4.52081C80.8013 4.35247 81.4275 4.28158 82.053 4.31082C82.629 4.34513 83.1982 4.4537 83.7465 4.63388C84.6924 4.9591 85.5583 5.4822 86.2868 6.16841C86.8371 6.68721 87.3025 7.28955 87.6658 7.9533C87.9477 8.53711 88.1588 9.15261 88.2948 9.78665C88.2948 9.78665 88.2948 9.74627 88.2948 9.65743C88.2948 9.56859 88.2948 9.43937 88.2383 9.28592C88.1354 8.80923 87.9785 8.34586 87.7706 7.90484C87.4252 7.21485 86.9642 6.58929 86.4077 6.05534C85.6727 5.33435 84.7892 4.78304 83.8191 4.44005C83.255 4.24093 82.666 4.12133 82.0691 4.08468C81.42 4.04892 80.7694 4.11708 80.1417 4.28659C78.7672 4.69508 77.5167 5.44202 76.5047 6.45916C75.4013 7.57617 74.4643 8.84643 73.7224 10.2309C72.916 11.6442 72.1902 13.1545 71.3031 14.6164C69.7374 17.4366 67.6168 19.9094 65.0694 21.8852C62.9636 23.4784 60.4435 24.4291 57.8114 24.6231C56.0511 24.7764 54.28 24.4992 52.6502 23.8154C51.5777 23.2178 50.997 22.7655 50.9728 22.8059Z" fill="#EDEDEF"/>
<path d="M59.8358 35.8413C60.0777 36.0917 61.489 34.9529 63.5293 34.8963C65.5696 34.8398 67.0937 35.8494 67.3115 35.5828C67.4163 35.4698 67.1663 35.0175 66.505 34.5491C65.6104 33.9483 64.5492 33.6459 63.4728 33.6849C62.4056 33.7162 61.3766 34.0899 60.5374 34.751C59.9164 35.2679 59.7148 35.7282 59.8358 35.8413Z" fill="#2D2F34"/>
<path d="M62.642 39.2739C62.6502 39.4889 62.7012 39.7001 62.792 39.8951C62.8829 40.0902 63.0117 40.265 63.171 40.4095C63.3302 40.5539 63.5167 40.6651 63.7195 40.7363C63.9222 40.8076 64.1371 40.8376 64.3516 40.8245C64.7794 40.8245 65.1896 40.6543 65.4921 40.3514C65.7946 40.0485 65.9645 39.6376 65.9645 39.2092C65.9563 38.9942 65.9053 38.783 65.8144 38.588C65.7236 38.3929 65.5947 38.2181 65.4355 38.0736C65.2762 37.9292 65.0897 37.818 64.887 37.7467C64.6842 37.6755 64.4693 37.6455 64.2548 37.6586C63.8271 37.6586 63.4168 37.8287 63.1144 38.1317C62.8119 38.4346 62.642 38.8454 62.642 39.2739Z" fill="#2D2F34"/>
<path d="M55.6581 13.2433C54.634 14.6325 53.0533 15.9005 51.3437 15.739C50.7244 15.6147 50.1153 15.4447 49.5211 15.2302C48.9244 15.5936 49.0937 17.6531 49.5211 18.2023C49.9167 18.674 50.351 19.1116 50.8195 19.5107C48.8276 20.6171 46.9889 20.1083 44.8438 19.3572C45.0784 21.1798 45.7865 22.9089 46.8974 24.3715C48.0083 25.8342 49.4831 26.9792 51.1743 27.6921C51.6957 27.9606 52.2735 28.1007 52.8598 28.1007C53.4461 28.1007 54.0239 27.9606 54.5452 27.6921C55.3333 27.0153 55.8468 26.073 55.9888 25.043C56.9051 21.3636 57.3628 17.5847 57.3517 13.7926L55.6581 13.2433Z" fill="#2D2F34"/>
</g>
</svg>
