<svg width="176" height="203" viewBox="0 0 176 203" fill="none" xmlns="http://www.w3.org/2000/svg">
<ellipse cx="88" cy="115.083" rx="88" ry="87.9173" fill="#E6EAF7"/>
<mask id="mask0" style="mask-type:alpha" maskUnits="userSpaceOnUse" x="0" y="27" width="176" height="176">
<ellipse cx="88" cy="115.083" rx="88" ry="87.9173" fill="white"/>
</mask>
<g mask="url(#mask0)">
<path d="M121.88 19.2126C121.956 16.4385 119.413 14.3006 116.82 13.2825C114.226 12.2645 111.405 11.8827 109.115 10.3366C107.091 8.96223 105.731 6.82433 104.017 5.08094C101.901 2.92476 99.254 1.37352 96.3461 0.586406C93.4381 -0.200708 90.3743 -0.195342 87.469 0.60195C84.5638 1.39924 81.9218 2.95975 79.8141 5.12331C77.7065 7.28688 76.2091 9.97559 75.4756 12.9135C74.4952 16.8584 75.1657 21.5223 78.2589 24.1501C81.8518 27.1915 87.1716 26.5171 91.7703 25.569C96.369 24.621 101.581 23.6602 105.421 26.4026C107.736 28.0442 109.064 30.7102 110.481 33.1789C111.898 35.6477 113.644 38.161 116.351 39.0899C119.059 40.0189 122.677 38.4155 122.772 35.5713" fill="#F28080"/>
<path d="M121.697 20.7338C121.393 23.0562 123.063 25.1368 124.727 26.7784C126.391 28.42 128.269 30.157 128.567 32.5049C128.908 35.2218 126.935 37.8942 127.51 40.5729C127.871 42.2718 129.187 43.5761 129.984 45.1223C131.04 47.347 131.214 49.8929 130.471 52.2422C129.787 54.5837 128.693 59.8075 127.074 61.6273C122.602 66.6539 115.485 70.9933 108.951 72.5013C102.417 74.0092 95.6231 74.022 88.9306 73.6084C83.4527 73.2712 77.1461 73.5257 72.5791 65.9412C70.2133 62.0091 69.0431 56.7916 67.7906 52.3758C66.7026 48.5582 65.7664 44.5051 66.8924 40.7129C67.5249 38.5114 68.8723 36.5453 69.5175 34.3501C70.3272 31.5887 70.0299 28.6236 70.3525 25.7795C70.7048 22.6679 71.7907 19.6859 73.5199 17.0817C75.2491 14.4775 77.5715 12.3262 80.294 10.807C83.0165 9.28773 86.0603 8.44441 89.1721 8.34718C92.284 8.24994 95.374 8.90161 98.1849 10.248" fill="#2D2F34"/>
<path d="M72.9769 30.259C73.4893 22.35 78.7205 12.6532 86.5579 13.5058L111.013 19.7795C112.16 19.9064 113.219 20.4605 113.981 21.333C114.743 22.2055 115.153 23.3332 115.13 24.4943L112.379 83.8462L112.55 83.878C112.55 83.878 106.977 100.618 90.8024 95.5091C87.5953 94.4911 86.1278 90.9661 85.4952 87.333H85.3307C85.3307 86.9003 85.3307 86.4995 85.3307 86.0604C85.0158 83.3543 84.9841 80.6225 85.2358 77.9097C85.1916 73.1186 85.1979 71.1588 85.1916 71.2034C85.1852 71.2479 75.1466 69.4981 73.0971 56.3081C72.0534 49.799 72.4076 39.0459 72.9769 30.259Z" fill="#FFBE9D"/>
<path d="M76.918 38.2056C76.9111 38.6464 77.076 39.0724 77.3775 39.3923C77.679 39.7122 78.0931 39.9007 78.531 39.9173C78.745 39.9346 78.9602 39.9088 79.1641 39.8413C79.368 39.7739 79.5565 39.6662 79.7185 39.5246C79.8805 39.383 80.0128 39.2102 80.1076 39.0165C80.2024 38.8228 80.2578 38.612 80.2705 38.3965C80.2758 37.9551 80.1094 37.5291 79.8069 37.2094C79.5044 36.8896 79.0897 36.7014 78.6512 36.6848C78.4376 36.6675 78.2227 36.6934 78.0192 36.7608C77.8156 36.8283 77.6276 36.9361 77.4661 37.0778C77.3046 37.2195 77.1729 37.3923 77.0787 37.586C76.9846 37.7797 76.93 37.9904 76.918 38.2056Z" fill="#2D2F34"/>
<path d="M75.2799 35.8578C75.4886 36.0805 76.7664 35.1324 78.5755 35.1388C80.3846 35.1451 81.7382 36.0614 81.909 35.8387C82.0039 35.7433 81.7888 35.3424 81.2132 34.9224C80.4338 34.3717 79.5026 34.0802 78.5502 34.0889C77.6086 34.081 76.6891 34.3752 75.9251 34.9288C75.3684 35.3615 75.1723 35.756 75.2799 35.8578Z" fill="#2D2F34"/>
<path d="M94.6989 38.2056C94.6936 38.647 94.86 39.073 95.1625 39.3927C95.465 39.7125 95.8797 39.9007 96.3182 39.9173C96.5319 39.9346 96.7468 39.9088 96.9503 39.8413C97.1538 39.7738 97.3419 39.666 97.5034 39.5243C97.6649 39.3826 97.7966 39.2098 97.8907 39.0161C97.9848 38.8224 98.0395 38.6118 98.0515 38.3965C98.0584 37.9557 97.8934 37.5297 97.5919 37.2098C97.2904 36.8899 96.8764 36.7014 96.4384 36.6849C96.2243 36.6666 96.0087 36.6918 95.8045 36.7589C95.6002 36.826 95.4114 36.9336 95.2492 37.0754C95.087 37.2172 94.9547 37.3903 94.8602 37.5844C94.7657 37.7786 94.7108 37.9898 94.6989 38.2056Z" fill="#2D2F34"/>
<path d="M93.0667 36.2332C93.2754 36.4559 94.5532 35.5141 96.3623 35.5205C98.1714 35.5269 99.4935 36.4432 99.6896 36.2204C99.7844 36.1186 99.5757 35.7241 98.9937 35.2978C98.2121 34.7516 97.2824 34.4606 96.3307 34.4642C95.3906 34.4595 94.4734 34.7559 93.7119 35.3105C93.1552 35.7369 92.9655 36.1632 93.0667 36.2332Z" fill="#2D2F34"/>
<path d="M86.4696 49.7158C86.4696 49.614 85.3563 49.4168 83.5345 49.175C83.0727 49.1305 82.6363 49.035 82.554 48.7169C82.5173 48.237 82.6277 47.7574 82.8703 47.3425L84.2429 43.8048C86.1406 38.7719 87.5322 34.6297 87.3298 34.5597C87.1274 34.4897 85.4322 38.4983 83.5345 43.5376C83.0706 44.7762 82.632 45.9618 82.2188 47.0944C81.9254 47.6526 81.838 48.2973 81.9721 48.9141C82.0391 49.078 82.1423 49.2244 82.2738 49.3423C82.4053 49.4603 82.5616 49.5466 82.7311 49.5949C82.9869 49.6656 83.2504 49.7041 83.5155 49.7095C85.3246 49.8113 86.4632 49.824 86.4696 49.7158Z" fill="#2D2F34"/>
<path d="M85.1731 71.254C91.3461 71.362 97.4276 69.7429 102.739 66.5771C102.739 66.5771 98.3113 75.6954 85.1857 74.4355L85.1731 71.254Z" fill="#EB996E"/>
<path d="M87.2291 54.1062C87.5734 53.6708 88.0226 53.3313 88.5341 53.1197C89.0456 52.9081 89.6023 52.8315 90.1515 52.8972C90.5513 52.9329 90.9397 53.05 91.2931 53.2415C91.6465 53.4329 91.9576 53.6946 92.2073 54.0107C92.4449 54.3152 92.5848 54.6852 92.6086 55.0716C92.6323 55.458 92.5387 55.8425 92.3401 56.1741C92.0509 56.5029 91.6695 56.736 91.2462 56.8427C90.8228 56.9495 90.3773 56.9249 89.968 56.7723C89.1147 56.4654 88.33 55.9918 87.6592 55.3788C87.4547 55.2368 87.2804 55.0551 87.1469 54.8443C87.0827 54.7424 87.0487 54.6244 87.0487 54.5039C87.0487 54.3833 87.0827 54.2653 87.1469 54.1634" fill="#F28080"/>
<path d="M91.7898 50.9883C91.4988 50.9883 91.4925 52.9482 89.8036 54.3417C88.1146 55.7352 86.0082 55.5188 86.0082 55.7988C86.0082 55.9197 86.4763 56.1806 87.3556 56.2061C88.5059 56.2259 89.6262 55.836 90.5183 55.1053C91.3738 54.4037 91.9249 53.3953 92.0554 52.2928C92.144 51.4656 91.9289 50.9756 91.7898 50.9883Z" fill="#2D2F34"/>
<path d="M92.2512 33.0454C92.4283 33.5418 94.2375 33.3127 96.3565 33.5736C98.4756 33.8344 100.196 34.4199 100.481 33.9808C100.607 33.7708 100.31 33.2999 99.6142 32.8227C98.6999 32.2192 97.6536 31.848 96.5653 31.741C95.4802 31.605 94.3785 31.7315 93.3519 32.1101C92.5738 32.4282 92.1816 32.81 92.2512 33.0454Z" fill="#2D2F34"/>
<path d="M75.9563 30.5893C76.2789 31.0029 77.525 30.5893 79.0242 30.5893C80.5233 30.5893 81.7884 30.8693 82.0857 30.443C82.2123 30.233 82.0098 29.8067 81.4532 29.4249C80.7099 28.9529 79.8437 28.7142 78.965 28.7392C78.0864 28.7641 77.235 29.0515 76.5193 29.5649C75.9943 29.9657 75.8045 30.3921 75.9563 30.5893Z" fill="#2D2F34"/>
<path d="M120.166 63.167C118.355 63.5342 116.483 63.4626 114.705 62.9579C112.927 62.4533 111.294 61.5302 109.941 60.265C108.588 58.9998 107.554 57.4287 106.924 55.6818C106.294 53.9349 106.087 52.0623 106.319 50.2188C106.724 46.9802 108.463 43.6843 107.344 40.6174C105.87 36.5643 100.221 35.3172 98.722 31.2705C97.8491 28.9226 98.6335 26.1803 97.6467 23.8706C96.7168 21.7009 94.4523 20.4538 92.2446 19.6521C90.037 18.8504 87.6776 18.2968 85.8242 16.8525C83.9708 15.4081 82.8196 12.6721 84.0151 10.6424C93.8052 11.8215 103.42 14.1711 112.657 17.6415C114.802 18.4432 117.047 19.4103 118.312 21.3255C119.653 23.3489 119.577 25.964 119.476 28.3945L117.825 63.9115" fill="#2D2F34"/>
<path d="M119.343 67.697C119.343 67.697 119.425 67.6588 119.558 67.5634L120.14 67.118C120.646 66.7172 121.405 66.1254 122.31 65.3046C123.442 64.3247 124.474 63.2334 125.39 62.0469C126.644 60.4687 127.488 58.6012 127.845 56.6131C128.096 55.4036 128.075 54.1528 127.783 52.9526C127.49 51.7525 126.934 50.6334 126.156 49.6777C125.205 48.7269 124.184 47.8506 123.101 47.0562C122.01 46.2246 121.182 45.0932 120.716 43.7985C119.748 41.1134 120.178 38.002 119.805 34.8206C119.434 31.5016 118.146 28.3537 116.086 25.7346C115.024 24.4154 113.701 23.3321 112.202 22.5532C110.73 21.8799 109.193 21.3597 107.616 21.0007C106.147 20.6291 104.774 19.9482 103.586 19.0028C102.47 18.0622 101.487 16.9726 100.664 15.7642C99.0192 13.4099 97.7984 10.903 96.236 8.80965C95.4956 7.78471 94.6283 6.85889 93.6551 6.05457C92.7415 5.31682 91.7049 4.74808 90.5936 4.3748C89.644 4.01039 88.6231 3.87357 87.6119 3.97518C86.6006 4.07679 85.6268 4.41405 84.7677 4.96019C84.1636 5.43171 83.6666 6.02756 83.3099 6.70789C82.9531 7.38821 82.745 8.13732 82.6993 8.9051C82.6208 9.87782 82.9024 10.8454 83.49 11.622C83.6411 11.819 83.8201 11.9926 84.0213 12.1374C84.0861 12.194 84.1585 12.2411 84.2364 12.2774C84.1829 12.2107 84.1236 12.1489 84.0593 12.0928C83.8795 11.933 83.7202 11.7513 83.5848 11.552C83.0677 10.7806 82.8432 9.84807 82.9523 8.92418C83.0123 8.19788 83.2242 7.49254 83.5741 6.85436C83.9241 6.21619 84.4041 5.65959 84.9828 5.22105C85.8025 4.7221 86.726 4.42106 87.6809 4.34157C88.6357 4.26208 89.5959 4.40631 90.486 4.76293C91.5465 5.13035 92.5338 5.684 93.4021 6.39817C94.3342 7.1931 95.1669 8.09901 95.8817 9.09598C97.3999 11.1512 98.5954 13.6581 100.265 16.095C101.109 17.3519 102.122 18.4847 103.276 19.4609C104.501 20.4368 105.918 21.1414 107.432 21.5288C108.975 21.883 110.478 22.3947 111.917 23.0559C113.349 23.8057 114.611 24.8456 115.624 26.11C117.621 28.6397 118.875 31.6814 119.242 34.8906C119.628 37.9638 119.185 41.1261 120.216 43.983C120.714 45.3614 121.591 46.5686 122.746 47.4634C123.813 48.2361 124.821 49.0868 125.764 50.0085C126.506 50.9086 127.039 51.9641 127.324 53.0981C127.608 54.232 127.637 55.4156 127.408 56.5622C127.085 58.4923 126.294 60.3126 125.106 61.8624C124.214 63.0479 123.217 64.149 122.126 65.1519C121.235 65.9918 120.513 66.609 120.033 67.0607C119.79 67.2585 119.56 67.471 119.343 67.697Z" fill="#5F646F"/>
<path d="M121.741 69.3385C124.435 66.717 129.034 68.9949 131.299 71.9981C133.563 75.0013 135.163 78.8826 138.598 80.397C142.033 81.9113 146.492 80.6069 149.352 83.0121C153.324 86.3334 151.091 94.026 155.393 96.9147C157.094 98.06 159.346 98.0218 161.168 98.9635C165.463 101.19 165.412 107.286 164.748 112.103C163.843 118.879 162.819 125.878 159.112 131.604C155.405 137.331 148.188 141.333 141.774 139.132C135.606 137.013 132.437 130.319 129.926 124.268C126.459 115.878 122.989 107.507 119.514 99.1544C117.509 94.3123 115.478 89.3939 114.827 84.1892C114.175 78.9844 115.048 73.3725 118.344 69.2876" fill="#2D2F34"/>
<path d="M123.468 63.5612C125.422 63.3257 126.921 65.7373 126.403 67.6526C125.884 69.5679 124.062 70.8341 122.196 71.4704C121.166 71.8816 120.047 72.0111 118.951 71.8459C118.404 71.7599 117.888 71.5307 117.456 71.1811C117.024 70.8316 116.691 70.374 116.491 69.8542C116.285 69.4059 116.265 68.8942 116.433 68.4305C116.601 67.9669 116.945 67.589 117.389 67.379C118.654 66.5709 119.432 65.9346 120.45 65.3683C122.006 64.5093 121.912 64.3947 123.468 63.5294" fill="#F28080"/>
<path d="M78.4104 84.781L86.0137 78.9845L114.675 77.1393L115.826 81.0078L106.502 139.52L113.859 209.332H73.875L78.4104 84.781Z" fill="#F28080"/>
<g opacity="0.3">
<path opacity="0.3" d="M109.097 184.568C108.179 183.582 106.68 182.233 105.346 182.201C95.7687 181.991 85.9957 181.03 76.4188 180.814L75.6535 209.345C77.9433 205.285 80.113 201.073 80.7139 196.428C80.9796 194.405 81.3465 191.974 83.1492 191.122C84.1866 190.632 85.4075 190.823 86.5271 191.052C89.9872 191.739 93.422 192.636 96.939 192.859C100.456 193.081 104.144 192.56 107.098 190.625C108.147 190.003 108.991 189.085 109.527 187.985C109.782 187.432 109.877 186.819 109.801 186.214C109.725 185.61 109.481 185.039 109.097 184.568Z" fill="black"/>
</g>
<path d="M84.6095 85.9644L83.7176 77.5974C83.681 77.2469 83.714 76.8925 83.8147 76.5548C83.9155 76.2172 84.0819 75.9031 84.3044 75.6308C84.5269 75.3584 84.801 75.1333 85.1107 74.9685C85.4205 74.8036 85.7597 74.7024 86.1087 74.6706L112.486 72.2718C112.655 72.2588 112.825 72.2801 112.985 72.3342C113.146 72.3884 113.294 72.4744 113.42 72.5871C113.547 72.6998 113.65 72.837 113.723 72.9905C113.797 73.144 113.838 73.3107 113.846 73.4807L114.144 83.4384L106.502 96.4757L98.6523 98.989H89.0501L83.5279 93.0589L84.6095 85.9644Z" fill="#F28080"/>
<path d="M110.247 80.2444C109.893 80.2293 109.54 80.1932 109.191 80.1362C108.236 80.0463 107.276 80.0293 106.319 80.0853C104.896 80.1882 103.483 80.4009 102.093 80.7216C100.518 81.0525 98.804 81.517 96.9885 81.9624C95.2846 82.41 93.5481 82.7207 91.7952 82.8914C90.353 83.0282 88.8983 82.9293 87.4875 82.5987C86.5388 82.375 85.6328 81.9967 84.8055 81.4788C84.5851 81.3352 84.3739 81.1779 84.1729 81.0079C84.0338 80.8934 83.9642 80.8234 83.9768 80.817C83.9895 80.8107 84.2868 81.027 84.8814 81.3643C85.7198 81.8289 86.6212 82.1676 87.5571 82.3696C88.9458 82.6625 90.3715 82.7355 91.7826 82.586C93.518 82.3997 95.237 82.0828 96.9253 81.6379C98.7344 81.1988 100.455 80.7407 102.043 80.4225C103.45 80.119 104.881 79.9359 106.319 79.8753C107.289 79.8335 108.261 79.8847 109.222 80.028C109.564 80.0874 109.823 80.1383 110 80.1807C110.158 80.2062 110.253 80.2316 110.247 80.2444Z" fill="#2D2F34"/>
<g opacity="0.3">
<path opacity="0.3" d="M85.2362 81.5614C84.5278 83.5149 84.5088 85.9329 85.9447 87.4282C87.1086 88.6499 88.9873 88.9553 90.6383 88.6244C92.2733 88.201 93.8243 87.4995 95.2243 86.5501C98.8552 84.3803 102.549 82.1277 106.674 81.2051C106.944 81.1727 107.201 81.0647 107.414 80.8933C107.463 80.8475 107.502 80.7918 107.529 80.73C107.556 80.6681 107.57 80.6013 107.57 80.5338C107.57 80.4663 107.556 80.3995 107.529 80.3376C107.502 80.2758 107.463 80.2202 107.414 80.1743C107.31 80.1131 107.192 80.0802 107.072 80.0789C103.422 79.7098 99.7977 80.7152 96.2237 81.5551C92.6498 82.395 88.8228 82.9359 85.3754 81.6823" fill="black"/>
</g>
<path d="M90.2773 74.4032C89.9058 74.6073 89.594 74.9056 89.3728 75.2686C88.9553 75.9431 88.9806 77.0884 89.0122 78.3229C89.0818 80.7981 89.4866 82.777 89.3917 82.777C89.2074 82.3739 89.0858 81.9447 89.0312 81.5044C88.8311 80.4549 88.7148 79.391 88.6833 78.3229C88.6603 77.7309 88.673 77.138 88.7212 76.5476C88.7567 76.0485 88.9131 75.5657 89.1767 75.1413C89.3573 74.8541 89.6134 74.6229 89.9168 74.4732C90.1382 74.3841 90.271 74.3841 90.2773 74.4032Z" fill="#2D2F34"/>
<path d="M97.248 81.6763C97.2555 80.3249 97.1921 78.9741 97.0582 77.6294C96.7546 75.4087 96.0208 73.7225 96.1221 73.6843C96.3619 74.0087 96.5438 74.3726 96.6597 74.7597C97.0052 75.6693 97.2492 76.6147 97.3871 77.5785C97.5239 78.5437 97.5515 79.5213 97.4694 80.4928C97.4629 80.8971 97.388 81.2973 97.248 81.6763Z" fill="#F28080"/>
<path d="M105.743 72.978C105.978 73.2671 106.148 73.6034 106.243 73.9642C106.529 74.8177 106.647 75.7189 106.591 76.6176C106.531 77.5186 106.294 78.3987 105.895 79.2074C105.753 79.5538 105.537 79.8645 105.263 80.1173C105.835 79.0275 106.174 77.8285 106.255 76.5984C106.337 75.3684 106.161 74.1348 105.737 72.978H105.743Z" fill="#2D2F34"/>
<path d="M68.7518 88.5478C68.7518 88.5478 59.7569 94.6051 57.3658 105.549C55.5061 114.152 50.4077 159.594 50.4077 159.594L41.495 177.041L47.3145 190.963C52.2984 191.317 57.2472 189.896 61.294 186.948L65.2095 184.085L72.389 173.376L68.7518 88.5478Z" fill="#FAFAFC"/>
<path d="M83.9961 80.5179L68.7515 88.5477L65.1523 100.44L61.9452 134.92L67.9798 175.342L57.3908 209.211L75.6527 209.345L76.0892 189.493L77.9109 125.229L79.7011 84.291L83.9961 80.5179Z" fill="#FAFAFC"/>
<path d="M76.6149 134.092C76.5073 133.939 76.4121 133.777 76.3303 133.609L75.5712 132.203C75.2549 131.566 74.9386 130.79 74.5528 129.887C74.3693 129.428 74.2112 128.926 74.0277 128.398C73.8443 127.87 73.6419 127.31 73.4837 126.712C72.0478 121.946 71.099 115.068 71.3014 107.483C71.3014 106.898 71.3457 106.319 71.3836 105.74V105.638L71.4785 105.6L74.1479 104.467L74.11 104.747L71.4406 102.59L71.3836 102.546V102.482C71.3575 99.8759 71.7681 97.2839 72.5981 94.815C73.2687 92.5689 74.0024 90.6346 74.6476 89.0439C75.2929 87.4532 75.8558 86.2125 76.2544 85.3726C76.4568 84.9463 76.6149 84.6218 76.7224 84.4118C76.7743 84.2986 76.8357 84.1901 76.9059 84.0873C76.8754 84.2068 76.8308 84.3221 76.773 84.4309L76.3492 85.4172C75.9823 86.2698 75.451 87.5232 74.8311 89.1203C74.2112 90.7173 73.5027 92.6516 72.8575 94.8913C72.0593 97.3316 71.6682 99.8879 71.6999 102.457L71.6367 102.348L74.3124 104.493L74.5211 104.665L74.2744 104.773L71.605 105.905L71.7062 105.765C71.6683 106.332 71.643 106.911 71.624 107.496C71.4279 115.049 72.3325 121.895 73.7051 126.642C73.8506 127.246 74.0467 127.8 74.2175 128.328C74.3883 128.856 74.5401 129.365 74.7235 129.823C75.0968 130.726 75.3561 131.522 75.685 132.145L76.3809 133.577C76.4703 133.743 76.5485 133.915 76.6149 134.092Z" fill="#2D2F34"/>
<path d="M64.6464 158.233C64.589 158.07 64.5404 157.904 64.5009 157.736C64.4124 157.376 64.2922 156.892 64.1404 156.286C63.9822 155.649 63.8051 154.886 63.628 153.989C63.4509 153.092 63.2169 152.08 63.0397 150.916C62.8626 149.751 62.6223 148.523 62.4515 147.174C62.2807 145.825 62.1099 144.375 61.9517 142.854C61.6734 139.8 61.49 136.434 61.49 132.896C61.49 129.358 61.6987 125.993 61.9834 122.945C62.1542 121.424 62.2996 119.973 62.5084 118.625C62.7171 117.276 62.9006 116.022 63.103 114.883C63.3054 113.744 63.5205 112.72 63.7356 111.816C63.9506 110.913 64.1024 110.143 64.2606 109.519C64.4187 108.896 64.5326 108.431 64.6275 108.075C64.6639 107.904 64.7125 107.736 64.7729 107.572C64.7608 107.746 64.7333 107.919 64.6907 108.088L64.3871 109.545C64.2479 110.181 64.0771 110.951 63.919 111.855C63.7609 112.758 63.5331 113.763 63.3623 114.928C63.1916 116.092 62.9702 117.314 62.812 118.663C62.6539 120.012 62.4768 121.456 62.3186 122.97C62.0529 126.018 61.8632 129.371 61.8505 132.903C61.8379 136.434 62.0276 139.781 62.2807 142.828C62.4388 144.343 62.5653 145.794 62.7551 147.136C62.9449 148.479 63.1156 149.738 63.2991 150.877C63.4825 152.016 63.6786 153.047 63.8368 153.951C63.9949 154.854 64.1594 155.63 64.2985 156.26C64.4377 156.89 64.5262 157.355 64.5958 157.717C64.6309 157.887 64.6479 158.06 64.6464 158.233Z" fill="#2D2F34"/>
<path d="M68.7706 189.27C68.5924 189.816 68.3436 190.336 68.0306 190.816C67.3473 192.014 66.5665 193.153 65.6964 194.221C64.8278 195.29 63.8714 196.284 62.8373 197.192C62.4286 197.594 61.9718 197.942 61.4773 198.229C61.8494 197.799 62.251 197.395 62.6791 197.02C63.655 196.069 64.5778 195.064 65.4434 194.011C66.3013 192.951 67.0995 191.845 67.8345 190.696C68.1132 190.199 68.4261 189.723 68.7706 189.27Z" fill="#2D2F34"/>
<path d="M138.845 87.5615C142.048 88.8133 144.896 90.8373 147.14 93.4555C149.383 96.0738 150.953 99.2063 151.711 102.578C156.702 124.695 165.235 154.116 165.374 163.616C165.539 175.705 160.314 183.976 153.425 185.504C147.998 186.712 98.823 184.002 98.823 184.002L96.5205 165.55L136.372 159.652L130.919 129.059L136.315 86.6071L138.845 87.5615Z" fill="#FAFAFC"/>
<path d="M136.315 86.5752L125.302 82.0513L113.694 75.205L113.625 77.2092C115.05 79.6569 115.547 82.5408 115.023 85.3281L105.345 136.014L107.533 173.052L112.031 209.319H146.954L130.919 171.365L136.58 120.215L136.315 86.5752Z" fill="#FAFAFC"/>
<path d="M146.518 185.815L146.277 185.847L145.575 185.917C144.943 185.981 144.038 185.974 142.849 186.006C140.483 186.006 137.042 185.955 132.759 185.815C124.201 185.529 112.29 184.95 98.8355 184.167H98.7027V184.027C98.4307 181.832 98.1397 179.516 97.8487 177.168C97.349 173.192 96.8683 169.31 96.4065 165.601V165.442H96.5583L126.972 160.988L135.903 159.715L138.301 159.391L138.933 159.308H139.148L138.94 159.353L138.307 159.461L135.916 159.843L127.003 161.211L96.6405 165.773L96.7734 165.588C97.2415 169.304 97.7285 173.179 98.2219 177.156C98.5192 179.51 98.8039 181.826 99.0759 184.021L98.9241 183.881C112.372 184.67 124.29 185.287 132.842 185.637C137.118 185.803 140.553 185.898 142.918 185.93C144.101 185.93 145.025 185.93 145.638 185.892L146.34 185.854L146.518 185.815Z" fill="#2D2F34"/>
<path d="M130.597 125.929C130.642 126.039 130.672 126.154 130.685 126.272C130.736 126.533 130.799 126.852 130.875 127.252C131.04 128.15 131.261 129.378 131.508 130.873C132.045 133.978 132.773 138.184 133.583 142.835C134.392 147.486 135.05 151.704 135.569 154.816C135.803 156.317 135.993 157.545 136.132 158.449C136.189 158.85 136.233 159.181 136.271 159.442C136.285 159.558 136.285 159.675 136.271 159.792C136.223 159.684 136.191 159.571 136.176 159.454C136.125 159.193 136.062 158.869 135.98 158.474C135.815 157.571 135.588 156.349 135.309 154.854C134.759 151.794 134.044 147.569 133.235 142.892C132.425 138.215 131.742 133.984 131.255 130.911C131.027 129.409 130.837 128.175 130.698 127.271C130.647 126.873 130.603 126.542 130.565 126.279C130.563 126.161 130.574 126.044 130.597 125.929Z" fill="#2D2F34"/>
<path d="M118.762 78.7935C118.762 78.7935 118.762 78.8381 118.806 78.9208L118.907 79.2898C118.99 79.6207 119.129 80.0979 119.262 80.7342C119.648 82.5335 119.926 84.3543 120.097 86.1871C120.355 88.9532 120.424 91.7338 120.305 94.5096C120.198 97.6909 119.869 101.171 119.394 104.881V104.995H119.281L115.656 105.67L115.776 105.447C115.985 106.007 116.194 106.605 116.358 107.222C117.355 111.277 117.212 115.531 115.947 119.509C114.945 122.737 113.524 125.817 111.722 128.671C110.216 131.127 108.862 133.011 107.926 134.315L106.832 135.804C106.718 135.963 106.617 136.084 106.541 136.186C106.512 136.234 106.476 136.277 106.433 136.313C106.433 136.313 106.433 136.262 106.516 136.167L106.781 135.766C107.034 135.397 107.414 134.888 107.819 134.239C108.723 132.915 110.052 131.013 111.519 128.55C113.28 125.699 114.67 122.633 115.656 119.426C116.7 115.818 117.193 111.53 116.042 107.337C115.882 106.746 115.692 106.165 115.473 105.593L115.403 105.409L115.599 105.371L119.198 104.703L119.066 104.843C119.546 101.146 119.894 97.6591 120.014 94.5032C120.148 91.746 120.103 88.983 119.882 86.2316C119.733 84.4018 119.486 82.5815 119.141 80.7787C119.028 80.1424 118.901 79.6589 118.844 79.328C118.813 79.1753 118.787 79.0544 118.768 78.9526C118.756 78.9005 118.754 78.8465 118.762 78.7935Z" fill="#2D2F34"/>
<path d="M118.762 130.771V122.697C118.762 122.697 118.863 120.705 117.193 121.125C115.523 121.545 115.833 124.695 115.833 124.695C115.833 124.695 115.523 136.981 116.25 136.879C116.978 136.777 117.262 135.829 117.262 135.829V131.102L118.762 130.771Z" fill="#2D2F34"/>
<path d="M125.707 131.274C124.278 131.441 122.837 131.496 121.399 131.439C119.961 131.496 118.521 131.441 117.092 131.274C118.521 131.11 119.961 131.055 121.399 131.108C122.837 131.055 124.277 131.11 125.707 131.274Z" fill="#2D2F34"/>
<path d="M141.59 92.3591C141.301 92.4956 141 92.6084 140.692 92.6963C139.874 92.9901 139.075 93.3366 138.301 93.7334C135.75 95.0542 133.537 96.951 131.836 99.2754C131.355 99.9303 130.931 100.626 130.571 101.356C130.259 102.046 130.005 102.761 129.812 103.494C129.485 104.744 129.274 106.022 129.18 107.312C129.091 108.412 129.072 109.316 129.066 109.933C129.085 110.255 129.085 110.578 129.066 110.9C128.987 110.597 128.944 110.285 128.939 109.971C128.889 109.092 128.889 108.21 128.939 107.331C129.002 106.021 129.195 104.721 129.515 103.449C129.706 102.694 129.962 101.958 130.28 101.248C130.649 100.498 131.083 99.7826 131.577 99.11C133.302 96.7414 135.578 94.8342 138.206 93.5553C138.996 93.1722 139.814 92.8531 140.654 92.6009C140.957 92.4884 141.271 92.4074 141.59 92.3591Z" fill="#2D2F34"/>
<path d="M-0.140015 159.594L57.3909 181.024L105.889 188.481L48.2252 160.205L-0.140015 159.594Z" fill="#2D2F34"/>
<path d="M24.4792 182.705C24.0171 179.612 22.9738 176.636 21.405 173.936C21.066 173.428 20.8019 172.873 20.6206 172.288C20.5301 171.996 20.5122 171.686 20.5684 171.386C20.6247 171.085 20.7534 170.803 20.9432 170.564C21.6833 169.756 23.0306 170.112 23.9415 170.723C25.7852 172.073 27.1436 173.989 27.8128 176.182C28.472 178.36 28.8961 180.602 29.0779 182.87" fill="#FFBE9D"/>
<path d="M46.9037 177.194H44.0446C43.343 176.494 42.4701 175.994 41.5144 175.743C41.1607 175.683 40.7976 175.721 40.4634 175.852C40.1293 175.983 39.8367 176.203 39.6167 176.488C40.8818 174.369 42.2734 172.034 42.5391 171.397C43.0515 170.157 41.9066 169.228 40.0658 169.228C38.2251 169.228 30.0778 180.827 30.0778 180.827C30.0778 180.827 35.1382 171.493 35.6253 170.067C36.8524 166.504 32.9749 166.25 31.5706 167.961C29.8247 170.093 22.7717 180.827 22.7717 180.827C22.7717 180.827 21.4307 183.003 22.3542 185.071C23.2778 187.139 25.9598 186.343 25.9598 186.343C25.9995 186.948 26.1956 187.531 26.5284 188.035C26.8613 188.54 27.3194 188.948 27.8575 189.219C29.9196 190.377 32.6396 189.035 32.6396 189.035L43.1843 191.415L46.9797 191.033C49.57 190.772 51.9996 189.649 53.8834 187.842C55.7672 186.034 56.9974 183.646 57.3789 181.056L46.9037 177.194Z" fill="#FFBE9D"/>
<path d="M39.8125 176.322C39.9327 176.398 38.5474 178.613 36.713 181.273C35.8021 182.602 34.9608 183.818 34.3346 184.645C34.0263 185.125 33.6703 185.573 33.2719 185.981C33.5138 185.463 33.8062 184.971 34.1448 184.511C34.7205 183.627 35.5301 182.411 36.441 181.082C37.3519 179.752 38.1869 178.536 38.7941 177.696L39.5279 176.685C39.6118 176.556 39.7071 176.434 39.8125 176.322Z" fill="#EB996E"/>
<path d="M39.1801 188.132C39.4374 187.527 39.7509 186.947 40.1163 186.401C40.7489 185.358 41.6218 183.939 42.5959 182.361C43.083 181.578 43.5511 180.827 43.9306 180.134C44.0966 179.838 44.2027 179.511 44.2429 179.174C44.283 178.837 44.2564 178.494 44.1646 178.167C43.9786 177.551 43.6733 176.978 43.2664 176.481C43.2664 176.481 43.4372 176.57 43.6713 176.825C44.0012 177.19 44.2455 177.625 44.386 178.097C44.5036 178.453 44.548 178.828 44.5165 179.201C44.4849 179.574 44.3781 179.937 44.2026 180.267C43.8231 180.986 43.3613 181.743 42.8806 182.532C41.9001 184.111 40.9829 185.51 40.3124 186.522C39.9733 187.085 39.5949 187.623 39.1801 188.132Z" fill="#EB996E"/>
<path d="M44.7148 189.188C44.8208 188.614 45.0105 188.058 45.2778 187.54L46.0305 185.809C46.344 185.121 46.6021 184.408 46.8022 183.678C46.8979 183.329 46.9175 182.964 46.8597 182.607C46.8018 182.25 46.6678 181.91 46.467 181.61C46.263 181.371 46.0048 181.185 45.7142 181.069C45.4699 180.943 45.2034 180.868 44.9299 180.846C44.5305 180.906 44.1461 181.042 43.7976 181.247C43.6655 181.331 43.52 181.391 43.3674 181.425C43.3674 181.425 43.4876 181.304 43.7343 181.132C43.8873 181.028 44.0456 180.933 44.2087 180.846C44.4305 180.719 44.676 180.638 44.9299 180.611C45.2397 180.618 45.5451 180.687 45.8281 180.814C46.1642 180.937 46.4644 181.143 46.701 181.412C46.9408 181.745 47.1029 182.128 47.1752 182.532C47.2475 182.936 47.2281 183.352 47.1185 183.748C46.9169 184.502 46.6437 185.235 46.3025 185.936C46.0052 186.573 45.7206 187.152 45.4865 187.635C45.2567 188.166 44.9991 188.685 44.7148 189.188Z" fill="#EB996E"/>
<path d="M46.6564 179.173C46.8116 179.186 46.9623 179.231 47.0992 179.306C47.4906 179.472 47.8603 179.686 48.1998 179.943C49.3487 180.806 50.152 182.054 50.4642 183.462C50.7764 184.87 50.5767 186.344 49.9014 187.616C49.7078 187.999 49.4677 188.356 49.1866 188.679C48.9842 188.902 48.8513 189.004 48.8387 188.991C48.826 188.978 49.2562 188.469 49.6926 187.515C50.2803 186.276 50.4383 184.876 50.1413 183.536C49.8443 182.197 49.1095 180.997 48.0543 180.127C47.6063 179.783 47.1396 179.464 46.6564 179.173Z" fill="#EB996E"/>
<path d="M28.1219 173.083C27.42 174.412 26.623 175.688 25.7372 176.901C24.9465 178.198 24.0606 179.434 23.0868 180.598C23.7851 179.268 24.58 177.992 25.4652 176.78C26.2592 175.484 27.1472 174.248 28.1219 173.083Z" fill="#EB996E"/>
<path d="M96.3748 166.262L89.7962 164.767L83.4707 158.78C82.7007 158.054 81.7027 157.622 80.6495 157.558L69.1559 156.922C68.0057 156.85 66.8724 157.229 65.9931 157.978L57.7699 164.977L93.6422 182.507L98.5634 182.946L96.3748 166.262Z" fill="#FFBE9D"/>
<path d="M76.8864 163.177C76.8864 163.227 76.0388 163.075 74.6724 162.897C73.3061 162.718 71.3578 162.559 69.4665 163.444C68.586 163.871 67.7546 164.394 66.9869 165.003C66.2594 165.55 65.6079 166.059 65.0323 166.447C64.5805 166.762 64.1046 167.041 63.609 167.281C63.4326 167.378 63.2429 167.449 63.0461 167.491C63.0461 167.44 63.7988 167.09 64.8994 166.256C65.4498 165.849 66.0823 165.321 66.7971 164.755C67.576 164.12 68.425 163.578 69.3273 163.138C70.2526 162.728 71.2512 162.511 72.2624 162.502C73.0783 162.489 73.8936 162.553 74.6977 162.693C75.3872 162.801 75.9628 162.928 76.3044 163.024C76.5057 163.041 76.7025 163.093 76.8864 163.177Z" fill="#EB996E"/>
<path d="M79.2459 169.616C79.2459 169.667 78.7778 169.457 77.9808 169.38C76.9776 169.288 75.9667 169.429 75.0267 169.794C74.0802 170.166 73.1732 170.633 72.3194 171.187C71.9715 171.442 71.5958 171.655 71.1998 171.824C71.4887 171.503 71.8209 171.225 72.1866 170.996C73.0244 170.374 73.9413 169.867 74.9129 169.488C75.899 169.105 76.9677 168.989 78.0124 169.151C78.4592 169.184 78.8872 169.346 79.2459 169.616Z" fill="#EB996E"/>
<path d="M94.0408 170.685C93.9586 170.736 93.035 169.349 91.8142 167.707C90.5934 166.065 89.5433 164.774 89.6129 164.71C90.547 165.535 91.3737 166.476 92.0736 167.51C92.862 168.479 93.5232 169.546 94.0408 170.685Z" fill="#EB996E"/>
<path d="M75.9375 157.577L90.4863 143.929C90.6349 143.791 90.7515 143.621 90.8281 143.432C90.9047 143.243 90.9393 143.04 90.9297 142.837C90.9201 142.633 90.8663 142.434 90.7723 142.253C90.6782 142.073 90.5461 141.915 90.3851 141.791C90.1273 141.592 89.8084 141.491 89.4838 141.503C89.1592 141.516 88.8492 141.643 88.6076 141.861L71.5286 157.272" fill="#FF725E"/>
<path d="M75.9375 157.577L90.4863 143.929C90.6349 143.791 90.7515 143.621 90.8281 143.432C90.9047 143.243 90.9393 143.04 90.9297 142.837C90.9201 142.633 90.8663 142.434 90.7723 142.253C90.6782 142.073 90.5461 141.915 90.3851 141.791C90.1273 141.592 89.8084 141.491 89.4838 141.503C89.1592 141.516 88.8492 141.643 88.6076 141.861L71.5286 157.272" fill="#5F646F"/>
</g>
<mask id="mask1" style="mask-type:alpha" maskUnits="userSpaceOnUse" x="50" y="0" width="120" height="102">
<rect x="50.6737" width="118.391" height="101.532" fill="white"/>
</mask>
<g mask="url(#mask1)">
<path d="M121.88 19.2126C121.956 16.4385 119.413 14.3006 116.819 13.2825C114.226 12.2645 111.405 11.8827 109.115 10.3366C107.091 8.96223 105.731 6.82433 104.016 5.08094C101.901 2.92476 99.2539 1.37352 96.346 0.586406C93.438 -0.200708 90.3742 -0.195342 87.4689 0.60195C84.5637 1.39924 81.9217 2.95975 79.814 5.12331C77.7064 7.28688 76.209 9.97559 75.4755 12.9135C74.4951 16.8584 75.1656 21.5223 78.2588 24.1501C81.8517 27.1915 87.1715 26.5171 91.7702 25.569C96.3689 24.621 101.581 23.6602 105.421 26.4026C107.736 28.0442 109.064 30.7102 110.481 33.1789C111.898 35.6477 113.644 38.161 116.351 39.0899C119.059 40.0189 122.677 38.4155 122.772 35.5713" fill="#2D2F34"/>
<path d="M121.697 20.7338C121.393 23.0562 123.063 25.1368 124.727 26.7784C126.391 28.42 128.269 30.157 128.567 32.5049C128.908 35.2218 126.935 37.8942 127.51 40.5729C127.871 42.2718 129.186 43.5761 129.983 45.1223C131.04 47.347 131.214 49.8929 130.471 52.2422C129.787 54.5837 128.693 59.8075 127.074 61.6273C122.602 66.6539 115.485 70.9933 108.951 72.5013C102.417 74.0092 95.623 74.022 88.9305 73.6084C83.4526 73.2712 77.146 73.5257 72.579 65.9412C70.2132 62.0091 69.043 56.7916 67.7905 52.3758C66.7025 48.5582 65.7663 44.5051 66.8923 40.7129C67.5248 38.5114 68.8722 36.5453 69.5174 34.3501C70.3271 31.5887 70.0298 28.6236 70.3524 25.7795C70.7047 22.6679 71.7906 19.6859 73.5198 17.0817C75.2489 14.4775 77.5714 12.3262 80.2939 10.807C83.0164 9.28773 86.0602 8.44441 89.172 8.34718C92.2839 8.24994 95.3739 8.90161 98.1848 10.248" fill="#2D2F34"/>
<path d="M72.9768 30.259C73.4892 22.35 78.7204 12.6532 86.5578 13.5058L111.012 19.7795C112.16 19.9064 113.219 20.4605 113.981 21.333C114.743 22.2055 115.153 23.3332 115.13 24.4943L112.379 83.8462L112.55 83.878C112.55 83.878 106.977 100.618 90.8022 95.5091C87.5952 94.4911 86.1276 90.9661 85.4951 87.333H85.3306C85.3306 86.9003 85.3306 86.4995 85.3306 86.0604C85.0157 83.3543 84.9839 80.6225 85.2357 77.9097C85.1915 73.1186 85.1978 71.1588 85.1915 71.2034C85.1851 71.2479 75.1465 69.4981 73.097 56.3081C72.0533 49.799 72.4075 39.0459 72.9768 30.259Z" fill="#FFBE9D"/>
<path d="M76.9179 38.2056C76.911 38.6464 77.0759 39.0724 77.3774 39.3923C77.6789 39.7122 78.093 39.9007 78.5309 39.9173C78.7449 39.9346 78.9601 39.9088 79.164 39.8413C79.3679 39.7739 79.5564 39.6662 79.7184 39.5246C79.8804 39.383 80.0127 39.2102 80.1075 39.0165C80.2023 38.8228 80.2577 38.612 80.2705 38.3965C80.2757 37.9551 80.1093 37.5291 79.8068 37.2094C79.5043 36.8896 79.0896 36.7014 78.6511 36.6848C78.4375 36.6675 78.2226 36.6934 78.0191 36.7608C77.8155 36.8283 77.6275 36.9361 77.466 37.0778C77.3045 37.2195 77.1728 37.3923 77.0786 37.586C76.9845 37.7797 76.9299 37.9904 76.9179 38.2056Z" fill="#2D2F34"/>
<path d="M75.2798 35.8578C75.4885 36.0805 76.7663 35.1324 78.5754 35.1388C80.3845 35.1451 81.7381 36.0614 81.9089 35.8387C82.0038 35.7433 81.7887 35.3424 81.2131 34.9224C80.4337 34.3717 79.5025 34.0802 78.5501 34.0889C77.6085 34.081 76.689 34.3752 75.925 34.9288C75.3683 35.3615 75.1722 35.756 75.2798 35.8578Z" fill="#2D2F34"/>
<path d="M94.6988 38.2056C94.6936 38.647 94.8599 39.073 95.1624 39.3928C95.4649 39.7125 95.8797 39.9007 96.3182 39.9173C96.5318 39.9346 96.7467 39.9088 96.9502 39.8413C97.1538 39.7738 97.3418 39.666 97.5033 39.5243C97.6648 39.3826 97.7965 39.2098 97.8906 39.0161C97.9848 38.8224 98.0394 38.6118 98.0514 38.3965C98.0583 37.9557 97.8933 37.5297 97.5918 37.2098C97.2903 36.8899 96.8763 36.7014 96.4383 36.6849C96.2242 36.6666 96.0086 36.6918 95.8044 36.7589C95.6001 36.826 95.4113 36.9336 95.2491 37.0754C95.0869 37.2172 94.9546 37.3903 94.8601 37.5844C94.7656 37.7786 94.7107 37.9898 94.6988 38.2056Z" fill="#2D2F34"/>
<path d="M93.0666 36.2332C93.2753 36.4559 94.5531 35.5141 96.3622 35.5205C98.1713 35.5269 99.4934 36.4432 99.6895 36.2204C99.7843 36.1186 99.5756 35.7241 98.9936 35.2978C98.212 34.7516 97.2823 34.4606 96.3306 34.4642C95.3905 34.4595 94.4733 34.7559 93.7118 35.3105C93.1551 35.7369 92.9654 36.1632 93.0666 36.2332Z" fill="#2D2F34"/>
<path d="M86.4694 49.7158C86.4694 49.614 85.3561 49.4168 83.5344 49.175C83.0726 49.1305 82.6361 49.035 82.5539 48.7169C82.5172 48.237 82.6276 47.7574 82.8702 47.3425L84.2428 43.8048C86.1405 38.7719 87.5321 34.6297 87.3297 34.5597C87.1273 34.4897 85.4321 38.4983 83.5344 43.5376C83.0705 44.7762 82.6319 45.9618 82.2187 47.0944C81.9253 47.6526 81.8379 48.2973 81.972 48.9141C82.039 49.078 82.1422 49.2244 82.2737 49.3423C82.4051 49.4603 82.5615 49.5466 82.731 49.5949C82.9868 49.6656 83.2502 49.7041 83.5154 49.7095C85.3245 49.8113 86.4631 49.824 86.4694 49.7158Z" fill="#2D2F34"/>
<path d="M85.173 71.254C91.346 71.362 97.4275 69.7429 102.739 66.5771C102.739 66.5771 98.3112 75.6954 85.1856 74.4355L85.173 71.254Z" fill="#EB996E"/>
<path d="M87.229 54.1062C87.5733 53.6708 88.0225 53.3313 88.534 53.1197C89.0455 52.9081 89.6022 52.8315 90.1514 52.8972C90.5512 52.9329 90.9396 53.05 91.293 53.2415C91.6464 53.4329 91.9574 53.6946 92.2072 54.0107C92.4448 54.3153 92.5847 54.6852 92.6084 55.0716C92.6322 55.458 92.5385 55.8425 92.34 56.1742C92.0507 56.5029 91.6694 56.736 91.246 56.8427C90.8227 56.9495 90.3772 56.9249 89.9679 56.7723C89.1146 56.4654 88.3299 55.9918 87.6591 55.3788C87.4545 55.2368 87.2803 55.0551 87.1467 54.8443C87.0826 54.7425 87.0486 54.6244 87.0486 54.5039C87.0486 54.3833 87.0826 54.2653 87.1467 54.1634" fill="#F59999"/>
<path d="M91.7897 50.9883C91.4987 50.9883 91.4924 52.9482 89.8035 54.3417C88.1145 55.7352 86.0081 55.5188 86.0081 55.7988C86.0081 55.9197 86.4762 56.1806 87.3555 56.206C88.5058 56.2259 89.6261 55.836 90.5182 55.1052C91.3737 54.4036 91.9248 53.3953 92.0553 52.2928C92.1439 51.4656 91.9288 50.9756 91.7897 50.9883Z" fill="#2D2F34"/>
<path d="M92.2511 33.0454C92.4282 33.5417 94.2373 33.3127 96.3564 33.5736C98.4755 33.8344 100.196 34.4199 100.481 33.9808C100.607 33.7708 100.31 33.2999 99.6141 32.8227C98.6998 32.2192 97.6535 31.848 96.5651 31.741C95.4801 31.605 94.3784 31.7315 93.3518 32.1101C92.5737 32.4282 92.1815 32.81 92.2511 33.0454Z" fill="#2D2F34"/>
<path d="M75.9562 30.5893C76.2788 31.0029 77.5249 30.5893 79.0241 30.5893C80.5232 30.5893 81.7883 30.8693 82.0856 30.443C82.2121 30.233 82.0097 29.8067 81.4531 29.4249C80.7097 28.9529 79.8436 28.7142 78.9649 28.7392C78.0863 28.7641 77.2349 29.0515 76.5192 29.5649C75.9941 29.9657 75.8044 30.3921 75.9562 30.5893Z" fill="#2D2F34"/>
<path d="M120.166 63.1671C118.355 63.5343 116.483 63.4626 114.705 62.9579C112.927 62.4533 111.294 61.5302 109.941 60.265C108.588 58.9998 107.554 57.4287 106.924 55.6818C106.294 53.9349 106.087 52.0623 106.319 50.2188C106.724 46.9802 108.463 43.6843 107.344 40.6174C105.87 36.5643 100.221 35.3172 98.7219 31.2705C97.849 28.9226 98.6334 26.1803 97.6466 23.8706C96.7167 21.7009 94.4522 20.4538 92.2445 19.6521C90.0369 18.8504 87.6775 18.2968 85.8241 16.8525C83.9707 15.4081 82.8195 12.6721 84.015 10.6424C93.8051 11.8215 103.42 14.1711 112.657 17.6415C114.801 18.4432 117.047 19.4103 118.312 21.3255C119.653 23.3489 119.577 25.964 119.476 28.3945L117.825 63.9115" fill="#2D2F34"/>
<path d="M119.343 67.697C119.343 67.697 119.425 67.6589 119.558 67.5634L120.14 67.118C120.646 66.7172 121.405 66.1254 122.31 65.3046C123.442 64.3247 124.474 63.2334 125.39 62.0469C126.644 60.4687 127.488 58.6013 127.845 56.6131C128.096 55.4036 128.075 54.1528 127.783 52.9526C127.49 51.7525 126.934 50.6334 126.156 49.6777C125.205 48.7269 124.184 47.8506 123.101 47.0562C122.01 46.2246 121.181 45.0932 120.716 43.7985C119.748 41.1134 120.178 38.002 119.805 34.8206C119.434 31.5016 118.146 28.3537 116.085 25.7346C115.023 24.4154 113.701 23.3321 112.202 22.5532C110.729 21.8799 109.193 21.3597 107.616 21.0007C106.147 20.6291 104.774 19.9482 103.586 19.0028C102.47 18.0622 101.487 16.9726 100.664 15.7642C99.0191 13.4099 97.7983 10.903 96.2359 8.80965C95.4955 7.78471 94.6282 6.85889 93.655 6.05457C92.7414 5.31682 91.7048 4.74808 90.5935 4.3748C89.6439 4.01039 88.623 3.87357 87.6118 3.97518C86.6005 4.07679 85.6267 4.41405 84.7676 4.96019C84.1635 5.43171 83.6665 6.02756 83.3097 6.70789C82.953 7.38821 82.7449 8.13732 82.6992 8.9051C82.6207 9.87782 82.9023 10.8454 83.4898 11.622C83.641 11.819 83.82 11.9926 84.0212 12.1374C84.086 12.194 84.1584 12.2411 84.2363 12.2774C84.1828 12.2107 84.1235 12.1489 84.0592 12.0928C83.8794 11.933 83.72 11.7513 83.5847 11.552C83.0676 10.7806 82.8431 9.84807 82.9522 8.92418C83.0122 8.19789 83.2241 7.49254 83.574 6.85436C83.924 6.21619 84.404 5.65959 84.9827 5.22105C85.8024 4.7221 86.7259 4.42106 87.6808 4.34157C88.6356 4.26208 89.5958 4.40631 90.4859 4.76293C91.5464 5.13036 92.5337 5.68401 93.402 6.39817C94.3341 7.1931 95.1668 8.09901 95.8816 9.09598C97.3998 11.1512 98.5953 13.6581 100.265 16.095C101.109 17.3519 102.122 18.4847 103.276 19.4609C104.501 20.4368 105.918 21.1414 107.432 21.5288C108.975 21.883 110.478 22.3947 111.917 23.0559C113.349 23.8057 114.611 24.8456 115.624 26.11C117.621 28.6397 118.874 31.6814 119.242 34.8906C119.628 37.9638 119.185 41.1261 120.216 43.983C120.714 45.3614 121.591 46.5686 122.746 47.4634C123.813 48.2361 124.821 49.0868 125.764 50.0085C126.506 50.9086 127.039 51.9641 127.324 53.0981C127.608 54.232 127.637 55.4156 127.408 56.5622C127.085 58.4923 126.294 60.3126 125.106 61.8624C124.214 63.048 123.217 64.1491 122.126 65.1519C121.234 65.9918 120.513 66.609 120.033 67.0608C119.79 67.2585 119.56 67.471 119.343 67.697Z" fill="#5F646F"/>
<path d="M121.74 69.3385C124.435 66.717 129.034 68.9949 131.298 71.9981C133.563 75.0013 135.163 78.8826 138.598 80.397C142.033 81.9113 146.492 80.6069 149.352 83.0121C153.324 86.3334 151.091 94.026 155.392 96.9147C157.094 98.06 159.346 98.0218 161.168 98.9635C165.463 101.19 165.412 107.286 164.748 112.103C163.843 118.879 162.819 125.878 159.112 131.604C155.405 137.331 148.188 141.333 141.774 139.132C135.606 137.013 132.437 130.319 129.926 124.268C126.459 115.878 122.989 107.507 119.514 99.1544C117.509 94.3123 115.478 89.3939 114.827 84.1892C114.175 78.9844 115.048 73.3725 118.344 69.2876" fill="#2D2F34"/>
<path d="M123.468 63.5612C125.422 63.3257 126.921 65.7373 126.403 67.6526C125.884 69.5679 124.062 70.8342 122.196 71.4705C121.166 71.8816 120.047 72.0111 118.951 71.8459C118.403 71.7599 117.888 71.5307 117.456 71.1811C117.024 70.8316 116.691 70.374 116.49 69.8542C116.285 69.4059 116.265 68.8942 116.433 68.4306C116.601 67.9669 116.945 67.589 117.389 67.379C118.654 66.5709 119.432 65.9346 120.45 65.3683C122.006 64.5093 121.911 64.3947 123.468 63.5294" fill="#F28080"/>
<path d="M78.4103 84.781L86.0136 78.9845L114.675 77.1393L115.826 81.0078L106.502 139.52L113.859 209.332H73.8749L78.4103 84.781Z" fill="#F28080"/>
<path d="M84.6094 85.9644L83.7175 77.5974C83.6809 77.2468 83.7139 76.8925 83.8146 76.5548C83.9154 76.2172 84.0818 75.9031 84.3043 75.6308C84.5268 75.3584 84.8009 75.1333 85.1106 74.9684C85.4204 74.8036 85.7596 74.7023 86.1086 74.6705L112.486 72.2718C112.655 72.2588 112.825 72.28 112.985 72.3342C113.145 72.3884 113.293 72.4744 113.42 72.5871C113.547 72.6998 113.65 72.837 113.723 72.9905C113.796 73.144 113.838 73.3107 113.846 73.4807L114.144 83.4384L106.502 96.4757L98.6522 98.989H89.05L83.5278 93.0589L84.6094 85.9644Z" fill="#F28080"/>
<path d="M110.247 80.2444C109.893 80.2293 109.54 80.1932 109.19 80.1362C108.236 80.0463 107.276 80.0293 106.319 80.0853C104.896 80.1882 103.483 80.4009 102.093 80.7216C100.518 81.0525 98.8039 81.517 96.9884 81.9624C95.2845 82.41 93.548 82.7207 91.7951 82.8914C90.3529 83.0282 88.8982 82.9293 87.4874 82.5987C86.5387 82.375 85.6327 81.9967 84.8054 81.4788C84.585 81.3352 84.3738 81.1779 84.1728 81.0079C84.0337 80.8934 83.9641 80.8234 83.9767 80.817C83.9894 80.8107 84.2867 81.027 84.8813 81.3643C85.7197 81.8289 86.6211 82.1676 87.557 82.3696C88.9457 82.6625 90.3714 82.7355 91.7825 82.586C93.5179 82.3997 95.2369 82.0828 96.9252 81.6379C98.7343 81.1988 100.455 80.7407 102.043 80.4225C103.45 80.119 104.88 79.9359 106.319 79.8753C107.289 79.8335 108.261 79.8847 109.222 80.028C109.564 80.0874 109.823 80.1383 110 80.1807C110.158 80.2062 110.253 80.2316 110.247 80.2444Z" fill="#2D2F34"/>
<g opacity="0.3">
<path opacity="0.3" d="M85.2361 81.5614C84.5277 83.5149 84.5087 85.9329 85.9446 87.4282C87.1085 88.6499 88.9872 88.9553 90.6381 88.6244C92.2732 88.201 93.8242 87.4995 95.2242 86.5501C98.855 84.3803 102.549 82.1277 106.673 81.2051C106.944 81.1727 107.201 81.0647 107.414 80.8933C107.463 80.8474 107.502 80.7918 107.529 80.73C107.556 80.6681 107.57 80.6013 107.57 80.5338C107.57 80.4663 107.556 80.3995 107.529 80.3376C107.502 80.2758 107.463 80.2201 107.414 80.1743C107.31 80.1131 107.192 80.0802 107.072 80.0788C103.422 79.7098 99.7976 80.7151 96.2236 81.5551C92.6497 82.395 88.8227 82.9358 85.3753 81.6823" fill="black"/>
</g>
<path d="M90.2772 74.4032C89.9057 74.6073 89.5939 74.9056 89.3727 75.2686C88.9552 75.9431 88.9805 77.0884 89.0121 78.3229C89.0817 80.7981 89.4865 82.777 89.3916 82.777C89.2073 82.3739 89.0857 81.9447 89.0311 81.5044C88.831 80.4549 88.7147 79.391 88.6832 78.3229C88.6602 77.7309 88.6729 77.138 88.7211 76.5476C88.7566 76.0485 88.913 75.5657 89.1766 75.1413C89.3572 74.8541 89.6133 74.6229 89.9167 74.4732C90.1381 74.3841 90.2709 74.3841 90.2772 74.4032Z" fill="#2D2F34"/>
<path d="M97.2479 81.6763C97.2554 80.3249 97.192 78.9741 97.0581 77.6294C96.7545 75.4087 96.0207 73.7225 96.1219 73.6843C96.3618 74.0087 96.5437 74.3726 96.6596 74.7597C97.0051 75.6693 97.249 76.6147 97.387 77.5785C97.5238 78.5437 97.5514 79.5214 97.4693 80.4928C97.4628 80.8971 97.3879 81.2973 97.2479 81.6763Z" fill="#F28080"/>
<path d="M105.743 72.978C105.978 73.2671 106.148 73.6034 106.243 73.9642C106.528 74.8177 106.647 75.7189 106.591 76.6176C106.531 77.5186 106.294 78.3987 105.895 79.2074C105.753 79.5538 105.537 79.8645 105.262 80.1173C105.835 79.0275 106.174 77.8285 106.255 76.5984C106.337 75.3684 106.16 74.1348 105.737 72.978H105.743Z" fill="#2D2F34"/>
<path d="M68.7517 88.5477C68.7517 88.5477 59.7568 94.6051 57.3657 105.549C55.506 114.151 50.4076 159.594 50.4076 159.594L41.4949 177.041L47.3144 190.963C52.2983 191.317 57.2471 189.896 61.2939 186.948L65.2094 184.085L72.3889 173.376L68.7517 88.5477Z" fill="#FAFAFC"/>
<path d="M83.996 80.5179L68.7514 88.5477L65.1522 100.44L61.9451 134.92L67.9797 175.342L57.3907 209.211L75.6526 209.345L76.0891 189.493L77.9108 125.229L79.701 84.291L83.996 80.5179Z" fill="#FAFAFC"/>
<path d="M76.6148 134.092C76.5072 133.939 76.412 133.777 76.3301 133.609L75.5711 132.203C75.2548 131.566 74.9385 130.79 74.5527 129.887C74.3692 129.428 74.2111 128.926 74.0276 128.398C73.8442 127.87 73.6418 127.31 73.4836 126.712C72.0477 121.946 71.0989 115.068 71.3013 107.483C71.3013 106.898 71.3456 106.319 71.3835 105.74V105.638L71.4784 105.6L74.1478 104.467L74.1099 104.747L71.4405 102.59L71.3835 102.546V102.482C71.3574 99.8759 71.768 97.2839 72.598 94.815C73.2686 92.5689 74.0023 90.6346 74.6475 89.0439C75.2927 87.4532 75.8557 86.2125 76.2542 85.3726C76.4567 84.9463 76.6148 84.6218 76.7223 84.4118C76.7742 84.2986 76.8356 84.1901 76.9058 84.0873C76.8753 84.2068 76.8307 84.3221 76.7729 84.4309L76.3491 85.4172C75.9822 86.2698 75.4509 87.5232 74.831 89.1203C74.2111 90.7173 73.5026 92.6516 72.8574 94.8913C72.0592 97.3316 71.6681 99.8879 71.6998 102.457L71.6366 102.348L74.3123 104.493L74.521 104.665L74.2743 104.773L71.6049 105.905L71.7061 105.765C71.6682 106.332 71.6429 106.911 71.6239 107.496C71.4278 115.049 72.3324 121.895 73.705 126.642C73.8505 127.246 74.0466 127.8 74.2174 128.328C74.3882 128.856 74.54 129.365 74.7234 129.823C75.0967 130.726 75.356 131.522 75.6849 132.145L76.3808 133.577C76.4702 133.743 76.5484 133.915 76.6148 134.092Z" fill="#2D2F34"/>
<path d="M138.845 87.5615C142.048 88.8133 144.896 90.8373 147.14 93.4555C149.383 96.0738 150.953 99.2063 151.711 102.578C156.702 124.695 165.235 154.116 165.374 163.616C165.539 175.705 160.314 183.976 153.425 185.504C147.998 186.712 98.8229 184.002 98.8229 184.002L96.5204 165.55L136.371 159.652L130.919 129.059L136.315 86.6071L138.845 87.5615Z" fill="#FAFAFC"/>
<path d="M136.314 86.5752L125.302 82.0513L113.694 75.205L113.625 77.2092C115.05 79.6569 115.547 82.5408 115.023 85.3281L105.344 136.014L107.533 173.052L112.031 209.319H146.954L130.919 171.365L136.58 120.215L136.314 86.5752Z" fill="#FAFAFC"/>
<path d="M118.762 78.7935C118.762 78.7935 118.762 78.8381 118.806 78.9208L118.907 79.2898C118.99 79.6207 119.129 80.0979 119.262 80.7342C119.647 82.5335 119.926 84.3543 120.097 86.1871C120.354 88.9532 120.424 91.7339 120.305 94.5096C120.198 97.691 119.869 101.171 119.394 104.881V104.995H119.281L115.656 105.67L115.776 105.447C115.985 106.007 116.194 106.605 116.358 107.222C117.355 111.277 117.212 115.531 115.947 119.509C114.945 122.737 113.524 125.817 111.721 128.671C110.216 131.127 108.862 133.011 107.926 134.315L106.832 135.804C106.718 135.963 106.617 136.084 106.541 136.186C106.512 136.234 106.476 136.277 106.433 136.313C106.433 136.313 106.433 136.262 106.516 136.167L106.781 135.766C107.034 135.397 107.414 134.888 107.819 134.239C108.723 132.915 110.052 131.013 111.519 128.55C113.28 125.699 114.67 122.633 115.656 119.426C116.7 115.818 117.193 111.53 116.042 107.337C115.882 106.746 115.692 106.165 115.473 105.594L115.403 105.409L115.599 105.371L119.198 104.703L119.065 104.843C119.546 101.146 119.894 97.6591 120.014 94.5032C120.148 91.746 120.103 88.983 119.881 86.2316C119.733 84.4019 119.486 82.5815 119.141 80.7787C119.027 80.1424 118.901 79.6589 118.844 79.328C118.812 79.1753 118.787 79.0544 118.768 78.9526C118.756 78.9005 118.754 78.8465 118.762 78.7935Z" fill="#2D2F34"/>
<path d="M141.59 92.3591C141.3 92.4956 141 92.6084 140.692 92.6963C139.874 92.9901 139.075 93.3366 138.301 93.7334C135.75 95.0542 133.537 96.951 131.836 99.2754C131.355 99.9302 130.931 100.626 130.571 101.356C130.259 102.046 130.005 102.761 129.812 103.494C129.485 104.744 129.274 106.022 129.18 107.312C129.091 108.412 129.072 109.316 129.066 109.933C129.085 110.255 129.085 110.578 129.066 110.9C128.986 110.597 128.944 110.285 128.939 109.971C128.889 109.092 128.889 108.21 128.939 107.331C129.002 106.021 129.195 104.721 129.515 103.449C129.706 102.694 129.962 101.958 130.28 101.248C130.649 100.498 131.083 99.7826 131.577 99.1099C133.302 96.7413 135.578 94.8342 138.206 93.5553C138.996 93.1722 139.814 92.8531 140.654 92.6008C140.957 92.4884 141.271 92.4073 141.59 92.3591Z" fill="#2D2F34"/>
</g>
</svg>
