<svg width="176" height="203" viewBox="0 0 176 203" fill="none" xmlns="http://www.w3.org/2000/svg">
<ellipse cx="91.7849" cy="115.296" rx="84.2151" ry="87.7039" fill="#E6EAF7"/>
<mask id="mask0" style="mask-type:alpha" maskUnits="userSpaceOnUse" x="7" y="27" width="169" height="176">
<ellipse cx="91.7849" cy="115.296" rx="84.2151" ry="87.7039" fill="white"/>
</mask>
<g mask="url(#mask0)">
<path d="M89.8915 83.4617L76.9148 88.6283C75.2758 89.2954 73.8166 90.3668 72.6625 91.7504C69.8276 95.1382 64.8098 102.453 61.8048 114.446C57.7297 130.684 53.3852 142.9 53.3852 142.9L38.8564 131.718L18.7216 152.436C18.7216 152.436 52.6269 183.177 63.3711 183.037L56.2839 232.946H77.0991L94.1085 83.4691L95.0794 76.317C94.7321 76.4499 90.8554 82.0741 89.8915 83.4617Z" fill="#FAFAFC"/>
<path d="M32.0881 106.807C32.0881 106.807 33.952 114.638 35.1852 116.779C35.9102 117.978 36.3925 119.32 36.6027 120.72L37.3752 133.268L27.5239 143.401L8.41674 128.536C8.41674 128.536 1.57046 121.569 3.42023 118.941C3.42023 118.941 4.32739 117.657 5.92202 118.941C5.92202 118.941 -1.21482 113.177 0.436508 110.918C2.08783 108.66 4.54711 111.937 7.13395 114.218C9.72079 116.498 10.5571 117.17 10.5571 117.17L3.13674 109.693C3.13674 109.693 1.01057 107.767 2.89578 106.195C4.78098 104.622 7.50248 108.556 8.80653 109.376C10.1106 110.195 17.4175 117.45 17.4175 117.45C17.4175 117.45 12.3502 110.726 11.9887 110.365C11.6273 110.003 7.02763 106.416 8.75691 104.349C10.4862 102.283 14.8448 107.302 16.2906 108.453C17.7364 109.605 23.1795 116.365 24.3914 117.052C25.6033 117.738 27.8003 119.724 29.1469 119.096C30.4935 118.469 27.7294 113.192 28.1689 111.324C28.6083 109.457 29.3524 105.833 32.0881 106.807Z" fill="#FFBF9D"/>
<path d="M27.4106 131.031C27.1188 130.438 26.8816 129.818 26.7019 129.179C26.4158 127.607 26.5988 125.982 27.2263 124.521C27.8854 122.757 28.7855 121.303 29.2816 120.093C29.4872 119.629 29.6028 119.127 29.6218 118.617C29.6218 118.248 29.5368 118.056 29.5084 118.063C29.4332 118.722 29.246 119.362 28.9556 119.953C28.1271 121.351 27.3907 122.805 26.7515 124.307C26.0847 125.864 25.9448 127.61 26.3546 129.26C26.4969 129.961 26.8705 130.588 27.4106 131.031Z" fill="#FF9A6C"/>
<path d="M14.1008 126.95C14.1575 126.95 13.8669 126.211 12.9314 125.577C11.9959 124.942 10.5501 124.425 9.50121 123.244C9.03064 122.634 8.61988 121.976 8.27511 121.281C7.97153 120.687 7.5925 120.138 7.14824 119.65C6.3403 118.808 5.56779 118.749 5.57488 118.808C6.05941 119.109 6.50081 119.479 6.88602 119.908C7.26766 120.406 7.59565 120.945 7.86406 121.517C8.2021 122.26 8.62315 122.959 9.11849 123.599C9.67043 124.204 10.3331 124.688 11.0675 125.023C11.7124 125.355 12.2865 125.621 12.7401 125.894C13.2172 126.212 13.672 126.564 14.1008 126.95Z" fill="#FF9A6C"/>
<path d="M85.5683 28.0168C86.0983 22.233 88.6996 16.869 92.8546 12.9918C97.0096 9.11457 102.414 7.00835 107.992 7.09213H109.14C121.522 8.02949 127.674 19.5067 126.426 32.3715L124.031 75.328L123.896 77.4094L95.214 83.0041L95.4124 72.0435C95.4124 72.0435 83.52 69.94 83.5484 57.5328C83.5626 51.51 84.5335 39.1693 85.5683 28.0168Z" fill="#FFBF9D"/>
<path d="M95.3134 71.9991C100.842 72.0939 106.281 70.5338 110.983 67.5042C110.983 67.5042 107.192 76.3612 95.3204 75.0843L95.3134 71.9991Z" fill="#FF9A6C"/>
<path d="M90.2459 39.5013C90.2361 39.9632 90.3992 40.411 90.7008 40.7499C91.0024 41.0888 91.4188 41.2922 91.8618 41.317C92.0781 41.3372 92.296 41.3124 92.503 41.244C92.7099 41.1757 92.9018 41.0651 93.0673 40.9188C93.2328 40.7725 93.3688 40.5934 93.4673 40.3918C93.5657 40.1903 93.6246 39.9704 93.6407 39.7449C93.6505 39.2829 93.4874 38.8351 93.1858 38.4962C92.8842 38.1573 92.4678 37.954 92.0248 37.9292C91.8084 37.9079 91.59 37.932 91.3827 38C91.1753 38.068 90.9831 38.1785 90.8173 38.3249C90.6516 38.4714 90.5156 38.651 90.4175 38.853C90.3194 39.055 90.261 39.2754 90.2459 39.5013Z" fill="#2D2F34"/>
<path d="M88.0774 34.1207C88.2829 34.3569 89.587 33.3826 91.4155 33.3826C93.244 33.3826 94.5764 34.3864 94.7749 34.1576C94.8741 34.0542 94.6686 33.6335 94.0661 33.1833C93.282 32.5997 92.3438 32.2827 91.38 32.2755C90.4278 32.2571 89.4947 32.5544 88.7153 33.1242C88.1412 33.604 87.9427 34.0173 88.0774 34.1207Z" fill="#2D2F34"/>
<path d="M107.482 39.5013C107.472 39.9632 107.635 40.411 107.937 40.7499C108.238 41.0888 108.655 41.2922 109.098 41.317C109.314 41.3382 109.533 41.3141 109.74 41.2461C109.947 41.1782 110.14 41.0677 110.305 40.9212C110.471 40.7747 110.607 40.5952 110.705 40.3932C110.803 40.1911 110.862 39.9707 110.877 39.7449C110.887 39.2829 110.723 38.8351 110.422 38.4962C110.12 38.1573 109.704 37.954 109.261 37.9292C109.044 37.9079 108.826 37.932 108.619 38C108.411 38.068 108.219 38.1785 108.053 38.3249C107.888 38.4714 107.752 38.651 107.654 38.853C107.555 39.055 107.497 39.2754 107.482 39.5013Z" fill="#F28080"/>
<path d="M106.036 34.7481C106.242 34.9843 107.546 34.01 109.374 34.01C111.203 34.01 112.535 35.0138 112.734 34.785C112.833 34.6817 112.627 34.261 112.025 33.8107C111.241 33.2271 110.303 32.9101 109.339 32.9029C108.387 32.8881 107.455 33.185 106.674 33.7517C106.128 34.2314 105.937 34.6448 106.036 34.7481Z" fill="#2D2F34"/>
<path d="M99.1971 48.7864C99.1971 48.6831 98.0702 48.4616 96.2275 48.1886C95.7598 48.1295 95.3204 48.0262 95.2495 47.694C95.2168 47.1901 95.333 46.6878 95.5826 46.2548L97.0001 42.5644C98.9916 37.3166 100.444 32.9693 100.239 32.9176C100.033 32.8659 98.2545 37.0213 96.263 42.2765C95.7905 43.5706 95.3322 44.8008 94.888 45.9669C94.5836 46.5481 94.4881 47.2233 94.6187 47.8712C94.6815 48.047 94.7828 48.2052 94.9144 48.3333C95.046 48.4614 95.2044 48.5558 95.377 48.6093C95.633 48.6873 95.8972 48.732 96.1637 48.7421C98.0348 48.8676 99.1829 48.8971 99.1971 48.7864Z" fill="#2D2F34"/>
<path d="M104.562 50.1887C104.264 50.1887 104.236 52.2332 102.514 53.6799C100.792 55.1265 98.6796 54.8608 98.6583 55.1561C98.6583 55.2889 99.1261 55.5694 100.019 55.6063C101.184 55.6399 102.323 55.2453 103.237 54.4918C104.117 53.7627 104.687 52.7023 104.824 51.5394C104.916 50.698 104.697 50.1814 104.562 50.1887Z" fill="#2D2F34"/>
<path d="M105.668 27.2713C105.838 27.7953 107.673 27.5739 109.814 27.8765C111.954 28.1791 113.69 28.8138 113.981 28.3562C114.109 28.1348 113.811 27.6181 113.123 27.131C112.197 26.5018 111.145 26.1003 110.047 25.9571C108.949 25.8139 107.835 25.9326 106.787 26.3044C105.994 26.6291 105.59 27.0277 105.668 27.2713Z" fill="#2D2F34"/>
<path d="M88.7861 28.6147C89.0979 29.0575 90.3665 28.6147 91.8832 28.6147C93.3999 28.6147 94.7181 28.9468 94.9803 28.4966C95.115 28.2752 94.9166 27.8397 94.3637 27.4264C93.6223 26.9128 92.7448 26.6547 91.8549 26.6883C90.9628 26.6919 90.0938 26.9833 89.3673 27.5223C88.8428 27.9578 88.6585 28.3859 88.7861 28.6147Z" fill="#2D2F34"/>
<path d="M86.7945 22.341C86.7945 22.341 90.0476 14.6206 93.6691 12.864C98.0561 10.7383 99.8563 15.7425 104.024 14.5985C108.191 13.4544 112.379 11.4099 116.575 14.8125C121.168 18.5029 118.956 21.0715 119.162 26.5849C120.012 48.912 123.839 55.2817 125.101 44.7935C125.236 43.6421 128.319 42.7711 128.843 37.9145C129.552 31.6113 129.864 23.9574 128.574 19.4624C127.482 15.6761 125.455 13.0337 121.791 10.1035C116.001 5.47574 107.971 5.2617 102.507 5.74883C97.0427 6.23597 86.4331 12.6056 86.7945 22.341Z" fill="#2D2F34"/>
<path d="M124.343 44.4391C124.364 43.9835 124.473 43.5371 124.665 43.127C124.857 42.7169 125.126 42.3516 125.458 42.0534C125.789 41.7552 126.175 41.5303 126.593 41.3923C127.01 41.2542 127.45 41.206 127.886 41.2506C130.104 41.5015 132.564 42.8522 132.351 47.635C131.968 56.1082 123.846 53.9678 123.846 53.7242C123.846 53.4806 124.158 47.9893 124.343 44.4391Z" fill="#FFBF9D"/>
<path d="M125.781 50.6169C125.781 50.6169 125.916 50.7276 126.15 50.8531C126.479 51.0188 126.858 51.0452 127.206 50.9269C128.085 50.639 128.871 49.2514 128.978 47.731C129.033 47.0057 128.931 46.2768 128.68 45.5979C128.614 45.329 128.487 45.0806 128.309 44.8738C128.132 44.6669 127.909 44.5077 127.659 44.4096C127.499 44.3549 127.326 44.3612 127.17 44.4275C127.014 44.4938 126.886 44.6156 126.809 44.7713C126.688 45.0074 126.731 45.1772 126.688 45.192C126.646 45.2067 126.518 45.037 126.596 44.6901C126.653 44.484 126.775 44.3042 126.944 44.1808C127.175 44.0129 127.46 43.9466 127.737 43.9963C128.066 44.0852 128.369 44.2589 128.616 44.5014C128.864 44.7439 129.049 45.0473 129.155 45.3839C129.468 46.1366 129.599 46.9576 129.537 47.7753C129.41 49.4802 128.496 51.0376 127.305 51.3328C127.084 51.3885 126.854 51.3915 126.632 51.3417C126.41 51.2918 126.201 51.1904 126.022 51.045C125.781 50.8236 125.753 50.6316 125.781 50.6169Z" fill="#FF9A6C"/>
<path d="M124.413 28.0094C123.401 28.8351 122.208 29.3855 120.941 29.611C119.665 29.7291 118.219 28.9394 118.021 27.6256C117.936 27.0277 118.085 26.3487 117.716 25.8837C117.347 25.4187 116.454 25.4925 115.774 25.5589C114.582 25.6378 113.4 25.2868 112.427 24.5651C111.453 23.8433 110.749 22.7947 110.43 21.5954C109.814 22.5254 108.41 22.4664 107.503 21.839C106.667 21.1157 105.932 20.2734 105.32 19.3369C104.612 18.4733 103.619 17.691 102.542 17.8607C101.967 18.0531 101.372 18.1794 100.77 18.2371C99.7002 18.119 99.1971 16.8126 99.0482 15.7055C98.8994 14.5984 98.7931 13.2993 97.9001 12.6867C97.0071 12.0741 95.9724 12.421 94.9873 12.5613C94.0021 12.7015 92.7335 12.4358 92.4925 11.432C92.4547 11.1619 92.4697 10.8867 92.5367 10.6229C92.6037 10.359 92.7213 10.112 92.8824 9.89678C93.559 8.88308 94.5435 8.13602 95.6774 7.77587C96.8113 7.41572 98.0286 7.46343 99.1333 7.91133C99.5555 6.50696 100.368 5.26435 101.468 4.34038C102.568 3.41641 103.906 2.85251 105.313 2.71984C106.72 2.58718 108.134 2.89171 109.375 3.59499C110.616 4.29827 111.63 5.36877 112.287 6.67136C113.164 5.86647 114.215 5.29441 115.351 5.00395C116.486 4.7135 117.672 4.71325 118.807 5.00324C119.943 5.29324 120.994 5.86487 121.871 6.6694C122.749 7.47393 123.426 8.4875 123.846 9.62369C124.848 9.36568 125.899 9.41991 126.871 9.77964C127.843 10.1394 128.692 10.7887 129.312 11.6469C129.932 12.5051 130.296 13.5342 130.359 14.6062C130.422 15.6782 130.18 16.7458 129.665 17.6762C131.118 18.5693 132.351 20.1045 132.358 21.8611C132.365 23.6178 130.693 25.3375 129.077 24.8504C129.409 25.5483 129.471 26.3526 129.249 27.0967C129.028 27.8407 128.54 28.4674 127.886 28.847C127.233 29.2265 126.465 29.3298 125.74 29.1354C125.016 28.941 124.391 28.4638 123.995 27.8027" fill="#2D2F34"/>
<path d="M129.672 24.7988C129.703 25.0934 129.671 25.3915 129.579 25.672C129.487 25.9525 129.337 26.2087 129.14 26.4225C128.729 26.9529 128.143 27.3053 127.496 27.4116C127.083 27.4735 126.661 27.4394 126.262 27.3118C125.862 27.1842 125.495 26.9662 125.186 26.6735L125.533 26.6218C125.089 27.4067 124.529 28.1141 123.875 28.718C123.435 29.1222 122.928 29.4399 122.379 29.6554C121.668 29.8897 120.905 29.8899 120.193 29.6562C119.482 29.4224 118.857 28.9659 118.403 28.3489C118.081 27.8057 117.867 27.2009 117.772 26.5702C117.709 26.3478 117.689 26.1142 117.716 25.8838C117.716 25.8838 117.815 26.1126 117.95 26.5259C118.101 27.1031 118.34 27.6514 118.658 28.1497C119.41 29.3823 121.918 30.0392 123.549 28.3416C124.168 27.777 124.701 27.1174 125.129 26.3856L125.271 26.1347L125.469 26.334C125.729 26.5879 126.038 26.7807 126.375 26.8991C126.713 27.0176 127.071 27.0589 127.425 27.0204C127.996 26.9491 128.523 26.6692 128.914 26.2307C129.255 25.8103 129.513 25.3236 129.672 24.7988Z" fill="#4E535C"/>
<path d="M107.348 51.4657C107.213 51.4657 107.177 50.5726 106.497 49.8198C105.817 49.0669 104.987 48.9341 104.995 48.7938C105.002 48.6536 105.221 48.6684 105.597 48.7348C106.073 48.8442 106.505 49.1016 106.837 49.4729C107.174 49.8472 107.39 50.3222 107.454 50.831C107.489 51.2664 107.404 51.4731 107.348 51.4657Z" fill="#F28080"/>
<path d="M108.099 49.1333C107.985 49.2071 107.695 48.9045 107.262 48.6979C106.83 48.4912 106.433 48.4248 106.419 48.2919C106.405 48.159 106.901 47.9745 107.468 48.255C108.035 48.5355 108.219 49.0521 108.099 49.1333Z" fill="#FF9A6C"/>
<path d="M94.8551 76.5512L99.3021 79.4378L124.885 68.0904L126.049 73.9298L102.9 123.45L101.515 217.889L76.4673 215.776L91.957 88.23L94.8551 76.5512Z" fill="#F28080"/>
<path d="M118.864 78.819C118.588 79.0426 118.288 79.2332 117.971 79.3874L115.491 80.8635C113.4 82.074 110.53 83.7716 107.347 85.6758L103.364 88.0894L103.194 88.1927L103.102 88.0229C101.862 85.698 101.132 83.5944 100.494 82.1183C100.189 81.3802 99.9341 80.8266 99.7853 80.4354C99.6789 80.2432 99.5911 80.0405 99.5231 79.8302C99.5231 79.8302 99.679 80.0073 99.8916 80.3764C100.104 80.7454 100.395 81.3064 100.735 82.0223C101.444 83.4394 102.216 85.5504 103.456 87.8089L103.194 87.7351C104.413 86.997 105.76 86.1408 107.177 85.292C110.345 83.3878 113.251 81.7345 115.384 80.5831C116.447 80.0073 117.319 79.5645 117.929 79.2619C118.227 79.0843 118.54 78.9361 118.864 78.819Z" fill="#2D2F34"/>
<path d="M70.692 103.582C70.7027 103.655 70.7027 103.73 70.692 103.803C70.692 103.973 70.6566 104.187 70.6353 104.453C70.5715 105.051 70.4865 105.877 70.3731 106.925C70.1321 109.14 69.7919 112.21 69.3738 116.033C68.5375 123.717 67.4602 134.353 66.3901 146.103C65.3199 157.853 64.4552 168.511 63.8103 176.224C63.4914 180.047 63.2291 183.162 63.0449 185.347C62.9456 186.402 62.8748 187.229 62.8181 187.827C62.8181 188.092 62.7685 188.306 62.7472 188.476C62.7572 188.547 62.7572 188.619 62.7472 188.69C62.7394 188.617 62.7394 188.542 62.7472 188.469C62.7472 188.299 62.7472 188.085 62.7472 187.827C62.7472 187.221 62.8322 186.395 62.896 185.339C63.0448 183.125 63.2646 180.033 63.5339 176.195C64.1009 168.482 64.9514 157.824 65.9932 146.059C67.035 134.293 68.1831 123.68 69.0973 115.996C69.5438 112.158 69.9337 109.051 70.2242 106.903C70.366 105.862 70.4794 105.036 70.5644 104.438C70.5998 104.18 70.6353 103.966 70.6565 103.796C70.6615 103.723 70.6734 103.652 70.692 103.582Z" fill="#2D2F34"/>
<path d="M132.854 163.987C132.769 164.09 131.153 162.311 128.602 161.034C126.051 159.757 123.726 159.455 123.747 159.322C124.258 159.262 124.775 159.302 125.271 159.44C126.489 159.674 127.67 160.084 128.779 160.658C129.889 161.228 130.919 161.953 131.841 162.813C132.242 163.14 132.585 163.537 132.854 163.987Z" fill="#2D2F34"/>
<path d="M151.253 93.7285C151.253 93.7285 146.093 89.5361 140.884 85.1667C135.675 80.7972 127.057 74.3095 127.057 74.3095L125.498 68.855C125.498 68.855 120.912 73.8814 116.894 82.9746C111.118 96.0313 104.456 115.089 103.109 123.318L97.7016 232.879L152.982 232.843L140.778 157.964L151.253 93.7285Z" fill="#FAFAFC"/>
<path d="M102.705 130.979C102.784 130.776 102.876 130.579 102.982 130.389L103.832 128.743L107.028 122.742L117.702 103.006C117.893 102.659 118.077 102.312 118.269 101.973V102.135C117.82 100.551 117.383 99.0057 116.958 97.5L116.915 97.3597L117.036 97.2785L120.225 94.9241L120.154 95.0274C122.131 89.0046 123.825 83.8233 125.044 80.1033L126.462 75.8077L126.866 74.671C126.904 74.5377 126.957 74.4091 127.022 74.2872C127.006 74.4265 126.972 74.563 126.922 74.6932L126.582 75.852C126.263 76.9 125.81 78.3614 125.25 80.1845L120.501 95.1529V95.2119L120.452 95.2562L117.262 97.6107L117.34 97.3892L118.659 102.017V102.098L118.616 102.179L118.056 103.213L107.277 122.89L103.967 128.795L103.053 130.404C102.955 130.607 102.839 130.8 102.705 130.979Z" fill="#2D2F34"/>
<path d="M88.6797 133.888C88.6244 133.712 88.5841 133.532 88.5593 133.349C88.4955 132.95 88.4104 132.426 88.297 131.784C88.0844 130.374 87.7797 128.411 87.4111 126.012C86.7024 121.089 85.7031 114.38 84.6188 106.955C84.5054 106.217 84.399 105.427 84.2927 104.674V104.6L84.3282 104.541L87.0355 99.4338L87.1418 99.7217L84.4487 98.7991L84.2644 98.7326L84.3353 98.5481L88.297 87.6392L89.4523 84.5467C89.5869 84.2219 89.6862 83.9488 89.7783 83.7348C89.8066 83.6373 89.8497 83.5451 89.9059 83.4617C89.8934 83.5626 89.8696 83.6617 89.835 83.7569C89.7641 83.9783 89.6719 84.2514 89.5656 84.5909C89.3034 85.3659 88.949 86.414 88.5026 87.7204C87.5529 90.444 86.2347 94.2303 84.6755 98.681L84.5621 98.43L87.2623 99.3379L87.4891 99.4117L87.3757 99.6257C86.5182 101.257 85.611 102.969 84.6826 104.741V104.608C84.7889 105.346 84.9022 106.128 85.0086 106.896C86.0504 114.321 86.993 121.045 87.6875 125.968C87.9994 128.374 88.2616 130.345 88.4459 131.762C88.5215 132.411 88.5852 132.935 88.6372 133.334C88.6688 133.517 88.683 133.702 88.6797 133.888Z" fill="#2D2F34"/>
<path d="M94.0589 83.9635C94.6155 84.8574 95.0901 85.8039 95.4763 86.7904H95.1503C95.4905 86.104 95.9299 85.3511 96.4119 84.5762C97.2411 83.2402 98.0278 82.0593 98.5877 81.1957C98.8583 80.7114 99.1715 80.2543 99.5232 79.8303C99.3668 80.3757 99.1275 80.8915 98.8145 81.3581C98.3184 82.2659 97.5671 83.469 96.745 84.805C96.2559 85.543 95.8094 86.2811 95.4551 86.9749L95.2708 87.3144L95.1291 86.9675C94.6846 86.0025 94.3264 84.9969 94.0589 83.9635Z" fill="#2D2F34"/>
<path d="M87.1913 216.737C87.1787 216.62 87.1787 216.501 87.1913 216.383C87.1913 216.132 87.2267 215.785 87.2621 215.35C87.333 214.412 87.4464 213.077 87.581 211.364C87.8787 207.888 88.2898 202.891 88.8355 196.728C89.934 184.358 91.4507 167.301 93.1304 148.457C94.81 129.614 96.4117 112.564 97.5386 100.194C98.1198 94.0384 98.5946 89.0489 98.9561 85.5725C99.1261 83.8602 99.2608 82.5316 99.3529 81.6017C99.4025 81.1588 99.438 80.8193 99.4664 80.5683C99.4752 80.4492 99.4918 80.3308 99.516 80.2141C99.5269 80.3319 99.5269 80.4505 99.516 80.5683C99.516 80.8267 99.4734 81.1662 99.4451 81.609C99.3671 82.539 99.2608 83.8749 99.1191 85.5873C98.8214 89.0637 98.4104 94.0605 97.8646 100.223C96.7661 112.594 95.2494 129.651 93.6123 148.502C91.9751 167.352 90.3309 184.387 89.197 196.757C88.6158 202.92 88.148 207.91 87.7795 211.379L87.3826 215.357C87.3401 215.793 87.2976 216.14 87.2692 216.391C87.2507 216.508 87.2247 216.624 87.1913 216.737Z" fill="#2D2F34"/>
<g opacity="0.2">
<path opacity="0.2" d="M126.462 76.0513L120.806 97.286L118.446 98.2233L120.062 103.538L103.853 128.898L118.446 102.098L117.128 97.4705L120.317 95.1086L126.462 76.0513Z" fill="black"/>
</g>
<g opacity="0.2">
<path opacity="0.2" d="M100.161 81.0923L101.649 92.1415L116.086 80.4797L103.265 87.8827L100.161 81.0923Z" fill="black"/>
</g>
<g opacity="0.2">
<path opacity="0.2" d="M62.705 188.69L62.0955 193.724C62.0955 193.724 65.0084 197.621 67.8504 196.802C70.6923 195.982 82.5776 190.587 82.5776 190.587L82.3933 188.69C82.3933 188.69 75.462 185.738 75.0652 185.834C74.6683 185.93 62.705 188.69 62.705 188.69Z" fill="black"/>
</g>
<g opacity="0.2">
<path opacity="0.2" d="M85.5897 199.887L85.944 204.507C85.944 204.507 107.461 201.939 116.731 198.271C116.731 198.271 134.818 191.288 139.956 184.697C132.599 187.915 123.995 190.654 114.789 193.163L85.5897 199.887Z" fill="black"/>
</g>
<path d="M39.5723 155.683L37.0989 152.229L39.2534 147.202L43.9947 143.512L49.2393 142.383L51.897 146.088L39.5723 155.683Z" fill="#FAFAFC"/>
<path d="M38.906 145.357L46.8083 139.453L38.906 145.357Z" fill="#FAFAFC"/>
<path d="M45.2492 153.69L53.1444 147.786L45.2492 153.69Z" fill="#FAFAFC"/>
<path d="M51.5852 162.031L59.4804 156.126L51.5852 162.031Z" fill="#FAFAFC"/>
<path d="M25.0363 125.687L32.9386 119.783L25.0363 125.687Z" fill="#FAFAFC"/>
<path d="M110.861 171.022L80.9321 129.835C80.6238 129.403 80.1923 129.083 79.6991 128.922C79.206 128.76 78.6764 128.765 78.1862 128.936L32.3606 145.24C31.9846 145.373 31.6455 145.6 31.3723 145.9C31.0991 146.2 30.9 146.565 30.7921 146.963C30.6842 147.361 30.6708 147.781 30.753 148.185C30.8352 148.59 31.0105 148.968 31.2639 149.286L68.5323 195.994C68.8545 196.398 69.2889 196.689 69.7759 196.826C70.2629 196.963 70.7786 196.939 71.2523 196.759L114.09 180.509C114.458 180.37 114.788 180.141 115.054 179.843C115.319 179.544 115.513 179.184 115.618 178.792C115.724 178.4 115.738 177.988 115.66 177.589C115.582 177.19 115.414 176.816 115.17 176.498L110.861 171.022Z" fill="#5F646F"/>
<path d="M50.1055 143.864C50.114 144.126 50.1969 144.38 50.3435 144.593C50.4902 144.807 50.6942 144.97 50.9298 145.063C51.1654 145.156 51.4222 145.175 51.6678 145.116C51.9134 145.057 52.137 144.925 52.3103 144.734C52.4836 144.544 52.599 144.304 52.642 144.045C52.6849 143.787 52.6535 143.521 52.5517 143.281C52.4499 143.041 52.2822 142.837 52.0697 142.696C51.8572 142.555 51.6095 142.483 51.3575 142.488C51.1882 142.491 51.0212 142.53 50.8663 142.601C50.7114 142.672 50.5716 142.775 50.4551 142.903C50.3386 143.031 50.2477 143.182 50.1877 143.347C50.1277 143.512 50.0997 143.688 50.1055 143.864Z" fill="#2D2F34"/>
<path d="M59.362 140.6C59.3724 140.86 59.4566 141.112 59.6041 141.323C59.7517 141.534 59.9558 141.695 60.191 141.785C60.4261 141.875 60.6816 141.891 60.9254 141.831C61.1691 141.77 61.3901 141.635 61.5606 141.444C61.7311 141.253 61.8434 141.013 61.8833 140.756C61.9233 140.498 61.8891 140.234 61.7851 139.996C61.6811 139.759 61.512 139.559 61.299 139.421C61.0859 139.284 60.8386 139.215 60.5882 139.224C60.4207 139.229 60.256 139.27 60.1035 139.342C59.951 139.415 59.8139 139.518 59.6999 139.646C59.5859 139.774 59.4973 139.924 59.4393 140.087C59.3813 140.251 59.3551 140.425 59.362 140.6Z" fill="#2D2F34"/>
<path d="M80.0119 174.401L77.8432 173.892C77.8432 173.892 76.9573 170.157 75.9864 169.404C75.0154 168.651 65.3555 164.474 63.2294 163.367C61.1032 162.259 52.797 158.672 51.8402 160.776C50.7558 163.153 54.1436 164.946 55.9791 165.773C57.8147 166.599 63.0664 168.489 62.0316 169.81C60.9969 171.131 49.0407 171.057 49.0407 171.057L47.68 169.397C47.68 169.397 45.5538 171.611 45.9153 173.774C46.1088 175.022 46.5376 176.219 47.1768 177.294L48.0343 177.257C47.8078 177.645 47.688 178.091 47.688 178.545C47.688 179 47.8078 179.445 48.0343 179.833C48.7532 180.86 49.5495 181.825 50.4156 182.719C50.4156 182.719 51.8685 185.635 55.9721 186.638C56.454 186.756 75.5186 187.782 75.5186 187.782L82.4428 189.399L80.0119 174.401Z" fill="#FFBF9D"/>
<path d="M130.126 103.715C129.906 104.202 124.243 158.997 124.243 158.997L79.8348 173.021L84.0872 200.182C84.0872 200.182 144.074 189 150.268 177.302C155.534 167.338 156.795 124.957 157.057 112.49C157.125 109.451 156.791 106.416 156.065 103.471C155.186 99.9578 153.677 95.7212 151.267 93.7505C146.752 90.0454 130.126 103.715 130.126 103.715Z" fill="#FAFAFC"/>
<path d="M128.878 115.155C128.878 115.155 128.878 115.428 128.822 115.959C128.765 116.491 128.694 117.288 128.595 118.299C128.389 120.366 128.092 123.37 127.702 127.193C126.908 134.869 125.774 145.83 124.413 159.012V159.13L124.307 159.167L79.9056 173.191L80.0474 172.954C80.0474 173.131 80.1041 173.323 80.1395 173.515C81.557 182.83 82.9744 191.827 84.2785 200.123L84.0517 199.953C102.11 196.381 117.546 192.484 128.276 188.978C129.63 188.572 130.884 188.085 132.082 187.686L133.818 187.081L135.42 186.454C136.448 186.041 137.411 185.716 138.255 185.317L140.601 184.247C141.231 183.989 141.844 183.688 142.436 183.347L143.747 182.608C144.095 182.424 144.364 182.284 144.555 182.173C144.648 182.123 144.742 182.079 144.839 182.04L144.577 182.203L143.783 182.675L142.486 183.413C141.893 183.756 141.282 184.067 140.657 184.343L138.319 185.443C137.447 185.819 136.483 186.181 135.484 186.609L133.882 187.251L132.153 187.871C130.955 188.284 129.701 188.771 128.354 189.192C117.617 192.765 102.195 196.721 84.1226 200.323L83.9241 200.359V200.16C82.6272 191.864 81.2239 182.867 79.7639 173.552C79.7639 173.36 79.7072 173.168 79.6789 172.991V172.814L79.849 172.755L124.265 158.731L124.144 158.886C125.562 145.712 126.745 134.758 127.574 127.082C128 123.259 128.333 120.263 128.567 118.225C128.68 117.214 128.772 116.439 128.836 115.893C128.9 115.347 128.878 115.155 128.878 115.155Z" fill="#2D2F34"/>
<path d="M148.425 92.5328C148.425 92.6213 147.171 92.5327 145.186 92.7837C144.026 92.9469 142.883 93.2186 141.77 93.5956C140.409 94.065 139.097 94.6732 137.851 95.4113C136.618 96.1704 135.46 97.0529 134.392 98.0462C133.529 98.865 132.735 99.7589 132.018 100.718C130.806 102.379 130.275 103.567 130.204 103.523C130.284 103.228 130.401 102.945 130.551 102.681C130.693 102.355 130.856 102.04 131.04 101.737C131.26 101.382 131.479 100.999 131.791 100.541C132.485 99.5365 133.273 98.6068 134.144 97.7658C135.228 96.7277 136.416 95.8146 137.688 95.0422C138.958 94.2924 140.3 93.6839 141.692 93.2266C142.83 92.8597 144.001 92.6125 145.186 92.4885C145.64 92.4348 146.097 92.4077 146.554 92.4073C146.899 92.3841 147.244 92.3841 147.589 92.4073C147.871 92.4142 148.152 92.4563 148.425 92.5328Z" fill="#2D2F34"/>
<path d="M125.306 131.031H105.172V136.235H125.306V131.031Z" fill="#FAFAFC"/>
<path d="M125.306 136.235C125.298 136.112 125.298 135.988 125.306 135.866V134.832C125.306 133.91 125.271 132.618 125.25 131.031L125.356 131.149C120.841 131.194 113.499 131.223 105.228 131.223C105.306 131.142 105.037 131.415 105.406 131.031V136.198L105.221 136.013L119.537 136.094L123.79 136.146H124.945H125.363C125.241 136.156 125.117 136.156 124.995 136.146H123.875L119.672 136.198L105.228 136.286H105.051V136.094C105.051 135.253 105.051 134.397 105.051 133.533V130.898C105.42 130.514 105.157 130.795 105.242 130.706C113.513 130.706 120.834 130.706 125.37 130.788H125.484V130.898C125.484 132.529 125.434 133.851 125.42 134.773C125.42 135.179 125.42 135.511 125.42 135.777C125.403 135.934 125.365 136.089 125.306 136.235Z" fill="#2D2F34"/>
</g>
<mask id="mask1" style="mask-type:alpha" maskUnits="userSpaceOnUse" x="-3" y="0" width="144" height="144">
<rect x="-2.83868" width="142.882" height="143.381" fill="white"/>
</mask>
<g mask="url(#mask1)">
<path d="M89.8915 83.4617L76.9148 88.6283C75.2758 89.2955 73.8166 90.3669 72.6625 91.7504C69.8276 95.1382 64.8098 102.453 61.8048 114.447C57.7297 130.684 53.3852 142.9 53.3852 142.9L38.8564 131.718L18.7216 152.436C18.7216 152.436 52.6269 183.177 63.3711 183.037L56.2839 232.946H77.0991L94.1085 83.4691L95.0794 76.3171C94.7321 76.4499 90.8554 82.0741 89.8915 83.4617Z" fill="#FAFAFC"/>
<path d="M32.0881 106.807C32.0881 106.807 33.952 114.638 35.1852 116.779C35.9102 117.978 36.3925 119.32 36.6027 120.72L37.3752 133.268L27.5239 143.401L8.41674 128.536C8.41674 128.536 1.57046 121.569 3.42023 118.941C3.42023 118.941 4.32739 117.657 5.92202 118.941C5.92202 118.941 -1.21482 113.177 0.436508 110.918C2.08783 108.66 4.54711 111.937 7.13395 114.218C9.72079 116.498 10.5571 117.17 10.5571 117.17L3.13674 109.693C3.13674 109.693 1.01057 107.767 2.89578 106.195C4.78098 104.622 7.50248 108.556 8.80653 109.376C10.1106 110.195 17.4175 117.45 17.4175 117.45C17.4175 117.45 12.3502 110.726 11.9887 110.365C11.6273 110.003 7.02763 106.416 8.75691 104.349C10.4862 102.283 14.8448 107.302 16.2906 108.453C17.7364 109.605 23.1795 116.365 24.3914 117.052C25.6033 117.738 27.8003 119.724 29.1469 119.096C30.4935 118.469 27.7294 113.192 28.1689 111.324C28.6083 109.457 29.3524 105.833 32.0881 106.807Z" fill="#FFBF9D"/>
<path d="M27.4106 131.031C27.1188 130.438 26.8816 129.818 26.7019 129.179C26.4158 127.607 26.5988 125.982 27.2263 124.521C27.8854 122.757 28.7855 121.303 29.2816 120.093C29.4872 119.629 29.6028 119.127 29.6218 118.617C29.6218 118.248 29.5368 118.056 29.5084 118.063C29.4332 118.722 29.246 119.362 28.9556 119.953C28.1271 121.351 27.3907 122.805 26.7515 124.307C26.0847 125.864 25.9448 127.61 26.3546 129.26C26.4969 129.961 26.8705 130.588 27.4106 131.031Z" fill="#FF9A6C"/>
<path d="M14.1008 126.95C14.1575 126.95 13.8669 126.212 12.9314 125.577C11.9959 124.942 10.5501 124.425 9.50121 123.244C9.03064 122.634 8.61988 121.977 8.27511 121.281C7.97153 120.687 7.5925 120.139 7.14824 119.65C6.3403 118.809 5.56779 118.75 5.57488 118.809C6.05941 119.109 6.50081 119.479 6.88602 119.908C7.26766 120.406 7.59565 120.945 7.86406 121.517C8.2021 122.26 8.62315 122.959 9.11849 123.599C9.67043 124.204 10.3331 124.689 11.0675 125.023C11.7124 125.355 12.2865 125.621 12.7401 125.894C13.2172 126.212 13.672 126.565 14.1008 126.95Z" fill="#FF9A6C"/>
<path d="M113.591 4.64168C113.082 3.61154 112.275 2.77314 111.285 2.24377C110.295 1.7144 109.171 1.52055 108.07 1.68934C106.782 0.641312 105.194 0.0720215 103.559 0.0720215C101.925 0.0720215 100.337 0.641312 99.0483 1.68934C98.0873 1.07213 96.9887 0.72571 95.8602 0.684081C94.7318 0.642451 93.6124 0.907043 92.6118 1.45189C91.6112 1.99673 90.7638 2.80311 90.1527 3.79191C89.5417 4.78072 89.1879 5.91797 89.1262 7.09211C87.9998 6.88793 86.8403 7.05831 85.8122 7.57908C84.784 8.09984 83.9395 8.94456 83.3983 9.99338C82.8571 11.0422 82.6467 12.2419 82.7971 13.4222C82.9475 14.6025 83.4509 15.7036 84.236 16.5691C82.9943 16.9646 81.9381 17.827 81.2731 18.9885C80.6081 20.1501 80.3818 21.5277 80.6382 22.8534C80.8945 24.1792 81.6153 25.3582 82.6601 26.1611C83.705 26.964 84.9993 27.3334 86.2913 27.1975L112.514 10.9597C113.297 10.1506 113.821 9.10932 114.014 7.97836C114.206 6.84739 114.059 5.682 113.591 4.64168Z" fill="#2D2F34"/>
<path d="M85.5683 28.0169C86.0983 22.2331 88.6996 16.869 92.8546 12.9918C97.0096 9.11463 102.414 7.00842 107.992 7.09219H109.14C121.522 8.02956 127.674 19.5068 126.426 32.3716L124.031 75.3281L123.896 77.4095L95.214 83.0041L95.4124 72.0436C95.4124 72.0436 83.52 69.94 83.5484 57.5329C83.5626 51.5101 84.5335 39.1693 85.5683 28.0169Z" fill="#FFBF9D"/>
<path d="M95.3134 71.9992C100.842 72.094 106.281 70.5339 110.983 67.5043C110.983 67.5043 107.192 76.3613 95.3204 75.0844L95.3134 71.9992Z" fill="#FF9A6C"/>
<path d="M90.2459 39.5013C90.2361 39.9633 90.3992 40.4111 90.7008 40.75C91.0024 41.0889 91.4188 41.2922 91.8618 41.317C92.0781 41.3372 92.296 41.3124 92.503 41.2441C92.7099 41.1757 92.9018 41.0652 93.0673 40.9189C93.2328 40.7726 93.3688 40.5934 93.4673 40.3919C93.5657 40.1903 93.6246 39.9704 93.6407 39.7449C93.6505 39.283 93.4874 38.8352 93.1858 38.4963C92.8842 38.1574 92.4678 37.954 92.0248 37.9292C91.8084 37.908 91.59 37.9321 91.3827 38.0001C91.1753 38.068 90.9831 38.1785 90.8173 38.325C90.6516 38.4715 90.5156 38.651 90.4175 38.853C90.3194 39.0551 90.261 39.2755 90.2459 39.5013Z" fill="#2D2F34"/>
<path d="M88.0774 34.1207C88.2829 34.3569 89.587 33.3826 91.4155 33.3826C93.244 33.3826 94.5764 34.3864 94.7749 34.1576C94.8741 34.0543 94.6686 33.6336 94.0661 33.1834C93.282 32.5998 92.3438 32.2827 91.38 32.2755C90.4278 32.2572 89.4947 32.5544 88.7153 33.1243C88.1412 33.6041 87.9427 34.0174 88.0774 34.1207Z" fill="#2D2F34"/>
<path d="M107.482 39.5013C107.472 39.9633 107.635 40.4111 107.937 40.75C108.238 41.0889 108.655 41.2922 109.098 41.317C109.314 41.3383 109.533 41.3142 109.74 41.2462C109.947 41.1782 110.14 41.0678 110.305 40.9213C110.471 40.7748 110.607 40.5952 110.705 40.3932C110.803 40.1912 110.862 39.9708 110.877 39.7449C110.887 39.283 110.723 38.8352 110.422 38.4963C110.12 38.1574 109.704 37.954 109.261 37.9292C109.044 37.908 108.826 37.9321 108.619 38.0001C108.411 38.068 108.219 38.1785 108.053 38.325C107.888 38.4715 107.752 38.651 107.654 38.853C107.555 39.0551 107.497 39.2755 107.482 39.5013Z" fill="#2D2F34"/>
<path d="M106.036 34.7481C106.242 34.9843 107.546 34.0101 109.374 34.0101C111.203 34.0101 112.535 35.0139 112.734 34.7851C112.833 34.6817 112.627 34.261 112.025 33.8108C111.241 33.2272 110.303 32.9101 109.339 32.9029C108.387 32.8882 107.455 33.1851 106.674 33.7517C106.128 34.2315 105.937 34.6448 106.036 34.7481Z" fill="#2D2F34"/>
<path d="M99.1971 48.7865C99.1971 48.6831 98.0702 48.4617 96.2275 48.1886C95.7598 48.1296 95.3204 48.0262 95.2495 47.6941C95.2168 47.1902 95.333 46.6879 95.5826 46.2548L97.0001 42.5644C98.9916 37.3166 100.444 32.9693 100.239 32.9177C100.033 32.866 98.2545 37.0214 96.263 42.2766C95.7905 43.5707 95.3322 44.8008 94.888 45.967C94.5836 46.5482 94.4881 47.2233 94.6187 47.8712C94.6815 48.047 94.7828 48.2052 94.9144 48.3333C95.046 48.4614 95.2044 48.5559 95.377 48.6093C95.633 48.6874 95.8972 48.732 96.1637 48.7422C98.0348 48.8676 99.1829 48.8972 99.1971 48.7865Z" fill="#2D2F34"/>
<path d="M104.562 50.1888C104.264 50.1888 104.236 52.2333 102.514 53.6799C100.792 55.1266 98.6796 54.8609 98.6583 55.1561C98.6583 55.289 99.1261 55.5694 100.019 55.6063C101.184 55.6399 102.323 55.2454 103.237 54.4918C104.117 53.7627 104.687 52.7024 104.824 51.5395C104.916 50.6981 104.697 50.1814 104.562 50.1888Z" fill="#2D2F34"/>
<path d="M105.668 27.2713C105.838 27.7954 107.673 27.5739 109.814 27.8765C111.954 28.1792 113.69 28.8139 113.981 28.3563C114.109 28.1349 113.811 27.6182 113.123 27.1311C112.197 26.5018 111.145 26.1004 110.047 25.9572C108.949 25.8139 107.835 25.9327 106.787 26.3044C105.994 26.6292 105.59 27.0277 105.668 27.2713Z" fill="#2D2F34"/>
<path d="M88.7861 28.6147C89.0979 29.0576 90.3665 28.6147 91.8832 28.6147C93.3999 28.6147 94.7181 28.9469 94.9803 28.4966C95.115 28.2752 94.9166 27.8397 94.3637 27.4264C93.6223 26.9129 92.7448 26.6547 91.8549 26.6883C90.9628 26.6919 90.0938 26.9833 89.3673 27.5224C88.8428 27.9578 88.6585 28.3859 88.7861 28.6147Z" fill="#2D2F34"/>
<path d="M86.7945 22.341C86.7945 22.341 90.0476 14.6207 93.6691 12.864C98.0561 10.7383 99.8563 15.7426 104.024 14.5985C108.191 13.4545 112.379 11.41 116.575 14.8126C121.168 18.503 118.956 21.0715 119.162 26.585C120.012 48.912 123.839 55.2817 125.101 44.7935C125.236 43.6421 128.319 42.7712 128.843 37.9146C129.552 31.6114 129.864 23.9574 128.574 19.4625C127.482 15.6761 125.455 13.0338 121.791 10.1036C116.001 5.4758 107.971 5.26176 102.507 5.74889C97.0427 6.23603 86.4331 12.6057 86.7945 22.341Z" fill="#2D2F34"/>
<path d="M124.343 44.4392C124.364 43.9836 124.473 43.5371 124.665 43.127C124.857 42.7169 125.126 42.3517 125.458 42.0535C125.789 41.7553 126.175 41.5303 126.593 41.3923C127.01 41.2543 127.45 41.2061 127.886 41.2506C130.104 41.5016 132.564 42.8523 132.351 47.6351C131.968 56.1083 123.846 53.9678 123.846 53.7243C123.846 53.4807 124.158 47.9894 124.343 44.4392Z" fill="#FFBF9D"/>
<path d="M125.781 50.6169C125.781 50.6169 125.916 50.7277 126.15 50.8531C126.479 51.0188 126.858 51.0452 127.206 50.9269C128.085 50.6391 128.871 49.2515 128.978 47.731C129.033 47.0058 128.931 46.2769 128.68 45.598C128.614 45.3291 128.487 45.0807 128.309 44.8738C128.132 44.667 127.909 44.5078 127.659 44.4097C127.499 44.355 127.326 44.3613 127.17 44.4276C127.014 44.4938 126.886 44.6157 126.809 44.7713C126.688 45.0075 126.731 45.1773 126.688 45.192C126.646 45.2068 126.518 45.037 126.596 44.6901C126.653 44.484 126.775 44.3043 126.944 44.1808C127.175 44.013 127.46 43.9467 127.737 43.9963C128.066 44.0853 128.369 44.259 128.616 44.5015C128.864 44.7439 129.049 45.0474 129.155 45.3839C129.468 46.1367 129.599 46.9576 129.537 47.7753C129.41 49.4803 128.496 51.0377 127.305 51.3329C127.084 51.3885 126.854 51.3916 126.632 51.3417C126.41 51.2919 126.201 51.1905 126.022 51.045C125.781 50.8236 125.753 50.6317 125.781 50.6169Z" fill="#FF9A6C"/>
<path d="M124.413 28.0094C123.401 28.8352 122.208 29.3856 120.941 29.6111C119.665 29.7292 118.219 28.9394 118.021 27.6256C117.936 27.0278 118.085 26.3487 117.716 25.8837C117.347 25.4187 116.454 25.4926 115.774 25.559C114.582 25.6378 113.4 25.2869 112.427 24.5651C111.453 23.8433 110.749 22.7947 110.43 21.5955C109.814 22.5255 108.41 22.4664 107.503 21.839C106.667 21.1158 105.932 20.2735 105.32 19.3369C104.612 18.4734 103.619 17.691 102.542 17.8608C101.967 18.0532 101.372 18.1794 100.77 18.2372C99.7002 18.1191 99.1971 16.8127 99.0482 15.7056C98.8994 14.5984 98.7931 13.2994 97.9001 12.6868C97.0071 12.0742 95.9724 12.4211 94.9873 12.5613C94.0021 12.7016 92.7335 12.4359 92.4925 11.4321C92.4547 11.162 92.4697 10.8868 92.5367 10.6229C92.6037 10.3591 92.7213 10.1121 92.8824 9.89684C93.559 8.88314 94.5435 8.13608 95.6774 7.77593C96.8113 7.41578 98.0286 7.46349 99.1333 7.91139C99.5555 6.50702 100.368 5.26441 101.468 4.34044C102.568 3.41647 103.906 2.85257 105.313 2.7199C106.72 2.58724 108.134 2.89177 109.375 3.59505C110.616 4.29833 111.63 5.36883 112.287 6.67142C113.164 5.86653 114.215 5.29447 115.351 5.00401C116.486 4.71356 117.672 4.71331 118.807 5.00331C119.943 5.2933 120.994 5.86493 121.871 6.66946C122.749 7.47399 123.426 8.48756 123.846 9.62375C124.848 9.36574 125.899 9.41997 126.871 9.7797C127.843 10.1394 128.692 10.7888 129.312 11.647C129.932 12.5051 130.296 13.5342 130.359 14.6063C130.422 15.6783 130.18 16.7459 129.665 17.6763C131.118 18.5693 132.351 20.1045 132.358 21.8612C132.365 23.6178 130.693 25.3376 129.077 24.8504C129.409 25.5484 129.471 26.3527 129.249 27.0967C129.028 27.8408 128.54 28.4675 127.886 28.847C127.233 29.2266 126.465 29.3298 125.74 29.1354C125.016 28.941 124.391 28.4638 123.995 27.8028" fill="#2D2F34"/>
<path d="M129.672 24.7988C129.703 25.0935 129.671 25.3916 129.579 25.6721C129.487 25.9526 129.337 26.2088 129.14 26.4226C128.729 26.953 128.143 27.3054 127.496 27.4116C127.083 27.4735 126.661 27.4394 126.262 27.3118C125.862 27.1842 125.495 26.9663 125.186 26.6736L125.533 26.6219C125.089 27.4068 124.529 28.1141 123.875 28.7181C123.435 29.1223 122.928 29.4399 122.379 29.6554C121.668 29.8897 120.905 29.89 120.193 29.6562C119.482 29.4225 118.857 28.966 118.403 28.349C118.081 27.8058 117.867 27.201 117.772 26.5702C117.709 26.3479 117.689 26.1142 117.716 25.8838C117.716 25.8838 117.815 26.1126 117.95 26.5259C118.101 27.1032 118.34 27.6514 118.658 28.1497C119.41 29.3823 121.918 30.0392 123.549 28.3416C124.168 27.777 124.701 27.1175 125.129 26.3857L125.271 26.1348L125.469 26.334C125.729 26.588 126.038 26.7808 126.375 26.8992C126.713 27.0177 127.071 27.059 127.425 27.0205C127.996 26.9492 128.523 26.6693 128.914 26.2307C129.255 25.8103 129.513 25.3236 129.672 24.7988Z" fill="#4E535C"/>
<path d="M114.555 5.19529C114.555 5.19529 114.343 5.25433 113.974 5.40933C113.451 5.6311 113.005 6.01501 112.698 6.50908L112.599 6.67146L112.486 6.50908C111.484 5.05801 110.145 3.89501 108.595 3.12865C107.594 2.63789 106.505 2.37136 105.398 2.34629C104.315 2.33627 103.244 2.59955 102.279 3.11365C101.314 3.62775 100.483 4.3774 99.8563 5.29862C99.3535 6.0546 99.0326 6.92543 98.9208 7.83764V8.11072L98.6727 8.02953C97.5383 7.69719 96.3243 7.83472 95.285 8.41334C94.469 8.87 93.8119 9.58277 93.4069 10.4504C93.0639 11.2373 92.8782 12.0886 92.8612 12.9526C92.7827 12.731 92.7536 12.4937 92.7761 12.2588C92.7701 11.5947 92.9031 10.9374 93.1659 10.3324C93.5711 9.39828 94.2512 8.62276 95.1078 8.1181C96.2269 7.45657 97.5522 7.28405 98.7932 7.63835L98.5239 7.83025C98.6249 6.83756 98.9609 5.88651 99.5019 5.06243C100.165 4.06713 101.053 3.257 102.087 2.7035C103.122 2.15001 104.271 1.87018 105.434 1.88868C106.603 1.92791 107.75 2.22475 108.8 2.75961C110.397 3.57682 111.753 4.82594 112.727 6.37622H112.514C112.858 5.86072 113.356 5.47902 113.932 5.29125C114.129 5.2072 114.343 5.17427 114.555 5.19529Z" fill="#4E535C"/>
<path d="M107.348 51.4658C107.213 51.4658 107.177 50.5727 106.497 49.8199C105.817 49.067 104.987 48.9342 104.995 48.794C105.002 48.6537 105.221 48.6685 105.597 48.7349C106.073 48.8443 106.505 49.1017 106.837 49.473C107.174 49.8473 107.39 50.3223 107.454 50.8311C107.489 51.2665 107.404 51.4732 107.348 51.4658Z" fill="#FF9A6C"/>
<path d="M108.099 49.1334C107.985 49.2072 107.695 48.9046 107.262 48.6979C106.83 48.4912 106.433 48.4248 106.419 48.292C106.405 48.1591 106.901 47.9746 107.468 48.2551C108.035 48.5355 108.219 49.0522 108.099 49.1334Z" fill="#FF9A6C"/>
<path d="M95.0862 76.3097L99.5015 79.203L124.902 67.8291L126.057 73.6821L103.073 123.318L101.699 217.978L76.8295 215.859L92.2088 88.0157L95.0862 76.3097Z" fill="#F28080"/>
<path d="M118.864 78.8191C118.588 79.0426 118.288 79.2333 117.971 79.3874L115.491 80.8636C113.4 82.074 110.53 83.7716 107.347 85.6759L103.364 88.0894L103.194 88.1928L103.102 88.023C101.862 85.698 101.132 83.5945 100.494 82.1183C100.189 81.3802 99.9341 80.8267 99.7853 80.4355C99.6789 80.2432 99.5911 80.0405 99.5231 79.8303C99.5231 79.8303 99.679 80.0074 99.8916 80.3764C100.104 80.7455 100.395 81.3064 100.735 82.0224C101.444 83.4395 102.216 85.5504 103.456 87.809L103.194 87.7351C104.413 86.9971 105.76 86.1409 107.177 85.2921C110.345 83.3878 113.251 81.7345 115.384 80.5831C116.447 80.0074 117.319 79.5645 117.929 79.2619C118.227 79.0844 118.54 78.9361 118.864 78.8191Z" fill="#2D2F34"/>
<path d="M70.692 103.582C70.7027 103.655 70.7027 103.73 70.692 103.803C70.692 103.973 70.6566 104.187 70.6353 104.453C70.5715 105.051 70.4865 105.877 70.3731 106.925C70.1321 109.14 69.7919 112.21 69.3738 116.033C68.5375 123.717 67.4602 134.353 66.3901 146.103C65.3199 157.853 64.4552 168.511 63.8103 176.224C63.4914 180.047 63.2291 183.162 63.0449 185.347C62.9456 186.402 62.8748 187.229 62.8181 187.827C62.8181 188.092 62.7685 188.307 62.7472 188.476C62.7572 188.547 62.7572 188.619 62.7472 188.69C62.7394 188.617 62.7394 188.542 62.7472 188.469C62.7472 188.299 62.7472 188.085 62.7472 187.827C62.7472 187.222 62.8322 186.395 62.896 185.339C63.0448 183.125 63.2646 180.033 63.5339 176.195C64.1009 168.482 64.9514 157.824 65.9932 146.059C67.035 134.294 68.1831 123.68 69.0973 115.996C69.5438 112.158 69.9337 109.051 70.2242 106.903C70.366 105.863 70.4794 105.036 70.5644 104.438C70.5998 104.18 70.6353 103.966 70.6565 103.796C70.6615 103.724 70.6734 103.652 70.692 103.582Z" fill="#2D2F34"/>
<path d="M151.253 93.7285C151.253 93.7285 146.093 89.5362 140.884 85.1667C135.675 80.7973 127.057 74.3095 127.057 74.3095L125.498 68.8551C125.498 68.8551 120.912 73.8815 116.894 82.9747C111.118 96.0314 104.456 115.089 103.109 123.318L97.7016 232.879L152.982 232.843L140.778 157.964L151.253 93.7285Z" fill="#FAFAFC"/>
<path d="M102.705 130.98C102.784 130.776 102.876 130.579 102.982 130.389L103.832 128.743L107.028 122.743L117.702 103.006C117.893 102.659 118.077 102.312 118.269 101.973V102.135C117.82 100.551 117.383 99.0057 116.958 97.5L116.915 97.3598L117.036 97.2786L120.225 94.9241L120.154 95.0275C122.131 89.0047 123.825 83.8233 125.044 80.1034L126.462 75.8077L126.866 74.6711C126.904 74.5378 126.957 74.4092 127.022 74.2873C127.006 74.4265 126.972 74.563 126.922 74.6932L126.582 75.852C126.263 76.9001 125.81 78.3615 125.25 80.1846L120.501 95.1529V95.212L120.452 95.2563L117.262 97.6108L117.34 97.3893L118.659 102.017V102.098L118.616 102.179L118.056 103.213L107.277 122.89L103.967 128.795L103.053 130.404C102.955 130.607 102.839 130.8 102.705 130.98Z" fill="#2D2F34"/>
<path d="M88.6797 133.888C88.6244 133.712 88.5841 133.532 88.5593 133.349C88.4955 132.95 88.4104 132.426 88.297 131.784C88.0844 130.374 87.7797 128.411 87.4111 126.012C86.7024 121.089 85.7031 114.38 84.6188 106.955C84.5054 106.217 84.399 105.427 84.2927 104.674V104.6L84.3282 104.541L87.0355 99.4339L87.1418 99.7217L84.4487 98.7991L84.2644 98.7327L84.3353 98.5482L88.297 87.6393L89.4523 84.5467C89.5869 84.222 89.6862 83.9489 89.7783 83.7348C89.8066 83.6373 89.8497 83.5451 89.9059 83.4617C89.8934 83.5627 89.8696 83.6618 89.835 83.757C89.7641 83.9784 89.6719 84.2515 89.5656 84.591C89.3034 85.366 88.949 86.4141 88.5026 87.7205C87.5529 90.444 86.2347 94.2304 84.6755 98.681L84.5621 98.4301L87.2623 99.3379L87.4891 99.4117L87.3757 99.6258C86.5182 101.257 85.611 102.969 84.6826 104.741V104.608C84.7889 105.346 84.9022 106.128 85.0086 106.896C86.0504 114.321 86.993 121.045 87.6875 125.968C87.9994 128.374 88.2616 130.345 88.4459 131.762C88.5215 132.411 88.5852 132.936 88.6372 133.334C88.6688 133.517 88.683 133.702 88.6797 133.888Z" fill="#2D2F34"/>
<path d="M94.0589 83.9636C94.6155 84.8575 95.0901 85.8039 95.4763 86.7905H95.1503C95.4905 86.104 95.9299 85.3512 96.4119 84.5762C97.2411 83.2403 98.0278 82.0593 98.5877 81.1958C98.8583 80.7115 99.1715 80.2544 99.5232 79.8303C99.3668 80.3758 99.1275 80.8916 98.8145 81.3582C98.3184 82.266 97.5671 83.4691 96.745 84.805C96.2559 85.5431 95.8094 86.2812 95.4551 86.975L95.2708 87.3145L95.1291 86.9676C94.6846 86.0026 94.3264 84.997 94.0589 83.9636Z" fill="#2D2F34"/>
<path d="M87.1913 216.738C87.1787 216.62 87.1787 216.501 87.1913 216.383C87.1913 216.132 87.2267 215.785 87.2621 215.35C87.333 214.413 87.4464 213.077 87.581 211.364C87.8787 207.888 88.2898 202.891 88.8355 196.728C89.934 184.358 91.4507 167.301 93.1304 148.457C94.81 129.614 96.4117 112.564 97.5386 100.194C98.1198 94.0384 98.5946 89.049 98.9561 85.5726C99.1261 83.8603 99.2608 82.5317 99.3529 81.6017C99.4025 81.1589 99.438 80.8193 99.4664 80.5684C99.4752 80.4493 99.4918 80.3309 99.516 80.2141C99.5269 80.3319 99.5269 80.4506 99.516 80.5684C99.516 80.8267 99.4734 81.1662 99.4451 81.6091C99.3671 82.5391 99.2608 83.875 99.1191 85.5874C98.8214 89.0637 98.4104 94.0606 97.8646 100.224C96.7661 112.594 95.2494 129.651 93.6123 148.502C91.9751 167.352 90.3309 184.387 89.197 196.758C88.6158 202.921 88.148 207.91 87.7795 211.379L87.3826 215.357C87.3401 215.793 87.2976 216.14 87.2692 216.391C87.2507 216.508 87.2247 216.624 87.1913 216.738Z" fill="#2D2F34"/>
<g opacity="0.2">
<path opacity="0.2" d="M126.462 76.0513L120.806 97.286L118.446 98.2234L120.062 103.538L103.853 128.898L118.446 102.098L117.128 97.4705L120.317 95.1087L126.462 76.0513Z" fill="black"/>
</g>
<g opacity="0.2">
<path opacity="0.2" d="M100.161 81.0924L101.649 92.1415L116.086 80.4798L103.265 87.8828L100.161 81.0924Z" fill="black"/>
</g>
<path d="M39.5723 155.683L37.0989 152.229L39.2534 147.203L43.9947 143.512L49.2393 142.383L51.897 146.088L39.5723 155.683Z" fill="#FAFAFC"/>
<path d="M38.906 145.357L46.8083 139.453L38.906 145.357Z" fill="#FAFAFC"/>
<path d="M25.0363 125.687L32.9386 119.783L25.0363 125.687Z" fill="#FAFAFC"/>
<path d="M130.126 103.715C129.906 104.202 124.243 158.997 124.243 158.997L79.8348 173.021L84.0872 200.182C84.0872 200.182 144.074 189 150.268 177.302C155.534 167.338 156.795 124.957 157.057 112.491C157.125 109.451 156.791 106.416 156.065 103.471C155.186 99.9579 153.677 95.7213 151.267 93.7506C146.752 90.0454 130.126 103.715 130.126 103.715Z" fill="#FAFAFC"/>
<path d="M128.878 115.155C128.878 115.155 128.878 115.428 128.822 115.96C128.765 116.491 128.694 117.288 128.595 118.299C128.389 120.366 128.092 123.37 127.702 127.193C126.908 134.869 125.774 145.83 124.413 159.012V159.13L124.307 159.167L79.9056 173.191L80.0474 172.954C80.0474 173.132 80.1041 173.323 80.1395 173.515C81.557 182.83 82.9744 191.827 84.2785 200.123L84.0517 199.954C102.11 196.381 117.546 192.484 128.276 188.978C129.63 188.572 130.884 188.085 132.082 187.687L133.818 187.081L135.42 186.454C136.448 186.041 137.411 185.716 138.255 185.317L140.601 184.247C141.231 183.989 141.844 183.688 142.436 183.347L143.747 182.609C144.095 182.424 144.364 182.284 144.555 182.173C144.648 182.123 144.742 182.079 144.839 182.04L144.577 182.203L143.783 182.675L142.486 183.413C141.893 183.756 141.282 184.067 140.657 184.343L138.319 185.443C137.447 185.819 136.483 186.181 135.484 186.609L133.882 187.251L132.153 187.871C130.955 188.284 129.701 188.772 128.354 189.192C117.617 192.765 102.195 196.721 84.1226 200.323L83.9241 200.359V200.16C82.6272 191.864 81.2239 182.867 79.7639 173.552C79.7639 173.36 79.7072 173.168 79.6789 172.991V172.814L79.849 172.755L124.265 158.732L124.144 158.887C125.562 145.712 126.745 134.759 127.574 127.082C128 123.259 128.333 120.263 128.567 118.225C128.68 117.214 128.772 116.439 128.836 115.893C128.9 115.347 128.878 115.155 128.878 115.155Z" fill="#2D2F34"/>
<path d="M148.425 92.5328C148.425 92.6213 147.171 92.5327 145.186 92.7837C144.026 92.9469 142.883 93.2186 141.77 93.5956C140.409 94.065 139.097 94.6732 137.851 95.4113C136.618 96.1704 135.46 97.0529 134.392 98.0462C133.529 98.865 132.735 99.7589 132.018 100.718C130.806 102.379 130.275 103.567 130.204 103.523C130.284 103.228 130.401 102.945 130.551 102.681C130.693 102.355 130.856 102.039 131.04 101.737C131.26 101.382 131.479 100.999 131.791 100.541C132.485 99.5365 133.273 98.6068 134.144 97.7658C135.228 96.7277 136.416 95.8146 137.688 95.0422C138.958 94.2924 140.3 93.6839 141.692 93.2266C142.83 92.8597 144.001 92.6125 145.186 92.4885C145.64 92.4348 146.097 92.4077 146.554 92.4073C146.899 92.3841 147.244 92.3841 147.589 92.4073C147.871 92.4142 148.152 92.4563 148.425 92.5328Z" fill="#2D2F34"/>
<path d="M125.306 131.031H105.172V136.235H125.306V131.031Z" fill="#FAFAFC"/>
<path d="M125.306 136.235C125.298 136.112 125.298 135.989 125.306 135.866V134.832C125.306 133.91 125.271 132.618 125.25 131.031L125.356 131.149C120.841 131.194 113.499 131.223 105.228 131.223C105.306 131.142 105.037 131.415 105.406 131.031V136.198L105.221 136.013L119.537 136.094L123.79 136.146H124.945H125.363C125.241 136.157 125.117 136.157 124.995 136.146H123.875L119.672 136.198L105.228 136.286H105.051V136.094C105.051 135.253 105.051 134.397 105.051 133.533V130.898C105.42 130.515 105.157 130.795 105.242 130.706C113.513 130.706 120.834 130.706 125.37 130.788H125.484V130.898C125.484 132.53 125.434 133.851 125.42 134.773C125.42 135.179 125.42 135.511 125.42 135.777C125.403 135.935 125.365 136.089 125.306 136.235Z" fill="#2D2F34"/>
</g>
</svg>
