<svg width="176" height="203" viewBox="0 0 176 203" fill="none" xmlns="http://www.w3.org/2000/svg">
<ellipse cx="88" cy="114.653" rx="88" ry="88.3472" fill="#E6EAF7"/>
<mask id="mask0" style="mask-type:alpha" maskUnits="userSpaceOnUse" x="0" y="26" width="176" height="177">
<ellipse cx="88" cy="114.653" rx="88" ry="88.3472" fill="white"/>
</mask>
<g mask="url(#mask0)">
<path d="M121.812 185.717L124.697 188.616C125.012 188.924 125.433 189.1 125.872 189.106C126.092 189.106 126.31 189.064 126.513 188.98C126.715 188.896 126.9 188.772 127.055 188.616C127.21 188.46 127.333 188.275 127.417 188.071C127.501 187.867 127.543 187.649 127.542 187.428C127.536 186.986 127.362 186.564 127.055 186.247L124.169 183.349C124.016 183.191 123.832 183.066 123.63 182.98C123.427 182.895 123.21 182.851 122.99 182.851C122.771 182.851 122.553 182.895 122.351 182.98C122.149 183.066 121.965 183.191 121.812 183.349C121.656 183.503 121.532 183.687 121.447 183.89C121.363 184.092 121.318 184.31 121.317 184.53C121.325 184.974 121.502 185.399 121.812 185.717Z" fill="#F28080"/>
<path d="M132.284 142.004C130.136 142.236 127.968 142.236 125.819 142.004C127.968 141.771 130.136 141.771 132.284 142.004Z" fill="#5F646F"/>
<path d="M154.86 67.231C153.718 63.7487 155.782 51.262 153.064 51.2418C149.59 51.2083 150.586 65.3322 150.579 66.6204C150.572 67.9087 148.756 67.8684 148.822 66.7278C148.916 65.0906 149.49 48.9538 145.99 49.2356C144.06 49.39 144.307 52.9126 144.307 52.9126C144.307 52.9126 145.383 69.056 143.74 69.1366C142.096 69.2171 141.509 59.7967 141.375 56.4821C141.242 53.3084 139.912 52.047 138.456 53.1273C137 54.2075 137.294 63.7487 137.374 66.9358C137.455 70.1229 137.829 78.8522 134.162 74.6049C130.495 70.3577 126.147 68.4455 124.597 68.7474C123.048 69.0493 122.994 71.2971 124.564 72.0284C125.833 72.6189 127.663 74.256 128.985 75.5443C130.01 76.6561 130.906 77.8806 131.657 79.1944C132.686 80.8478 133.433 82.6619 133.868 84.5621C134.232 86.0567 134.907 87.4565 135.85 88.6687C136.793 89.881 137.982 90.8781 139.338 91.5938L139.164 97.5118L156.096 96.0357L156.423 84.8439C156.597 76.2891 158.086 70.5322 158.981 65.4462C160.417 57.3342 159.375 57.086 158.407 57.1329C156.296 57.2067 155.982 70.6261 154.86 67.231Z" fill="#B78876"/>
<path d="M154.859 78.2079C154.074 78.3555 153.298 78.5504 152.535 78.7917C150.73 79.4651 149.189 80.705 148.14 82.3277C147.827 82.8228 147.565 83.3489 147.359 83.8977L147.259 84.1527L147.052 83.9782C145.878 82.9954 144.551 82.2133 143.124 81.6634C142.056 81.2474 141.374 81.1065 141.388 81.0461C142.012 81.0725 142.628 81.2017 143.211 81.4286C144.702 81.9134 146.089 82.676 147.299 83.6763L146.992 83.7635C147.202 83.1863 147.473 82.633 147.8 82.113C148.4 81.1862 149.165 80.3787 150.057 79.731C150.786 79.2087 151.59 78.8014 152.442 78.5233C153.014 78.3394 153.606 78.2245 154.205 78.1811C154.423 78.1571 154.644 78.1662 154.859 78.2079Z" fill="#AA6550"/>
<path d="M152.502 90.1713C151.219 90.8181 149.825 91.21 148.394 91.3253C146.978 91.5652 145.53 91.531 144.126 91.2247C144.126 91.1039 146.03 91.2247 148.341 90.9228C150.652 90.6208 152.468 90.0572 152.502 90.1713Z" fill="#AA6550"/>
<path d="M107.058 90.6813C107.058 90.6813 115.881 95.2103 120.523 101.732C125.165 108.254 139.185 128.477 139.185 128.477L137.181 97.7868L158.835 94.9688C158.835 94.9688 165.133 125.88 166.609 136.569C167.985 146.573 167.41 156.416 157.686 161.784C146.211 168.118 133.18 159.563 128.846 156.315C123.462 152.29 113.524 145.707 113.524 145.707L107.058 90.6813Z" fill="#FAFAFC"/>
<path d="M96.1774 86.8501L89.9993 79.919L62.9958 77.839L59.496 83.5221L68.9602 142.862L64.699 202.807H99.8843L96.1774 86.8501Z" fill="#F28080"/>
<g opacity="0.3">
<path opacity="0.3" d="M66.3284 188.549C67.2568 187.556 68.7796 186.18 70.1355 186.153C79.8602 185.939 89.792 184.959 99.5234 184.744L99.8974 202.807L95.162 200.579C94.8948 198.566 94.5542 196.077 92.6907 195.211C91.6354 194.708 90.3998 194.903 89.2577 195.131C85.7445 195.802 82.258 196.741 78.6847 196.963C75.1114 197.184 71.3711 196.667 68.3722 194.701C67.3052 194.071 66.4478 193.137 65.9077 192.018C65.6429 191.459 65.5419 190.836 65.6164 190.222C65.6909 189.607 65.9379 189.027 66.3284 188.549Z" fill="black"/>
</g>
<path d="M89.9994 79.919L107.298 91.1644L110.958 103.228L114.458 140.843L110.598 179.336L117.263 202.807H99.8844L99.851 193.547L97.9942 128.37L96.1775 86.8501L89.9994 79.919Z" fill="#FAFAFC"/>
<path d="M99.3173 137.354C99.4236 137.199 99.5195 137.038 99.6045 136.871C99.7915 136.522 100.052 136.045 100.373 135.442C100.693 134.838 101 134.012 101.408 133.093C101.595 132.63 101.755 132.12 101.942 131.583C102.129 131.047 102.336 130.483 102.49 129.873C103.946 125.042 104.914 118.07 104.707 110.374C104.707 109.777 104.667 109.187 104.627 108.603V108.502L104.534 108.462L101.822 107.315L101.862 107.596L104.567 105.416L104.627 105.369V105.302C104.652 102.656 104.234 100.025 103.392 97.5185C102.724 95.2439 101.969 93.2847 101.314 91.6743C100.66 90.064 100.085 88.8026 99.678 87.9438C99.4776 87.5143 99.3173 87.1923 99.2038 86.9709C99.1509 86.8561 99.0884 86.7461 99.0168 86.6421C99.0511 86.7621 99.0958 86.8788 99.1503 86.991L99.5845 87.9907C99.9585 88.8563 100.5 90.1311 101.127 91.7482C101.755 93.3652 102.463 95.3311 103.131 97.599C103.941 100.075 104.338 102.669 104.307 105.275L104.367 105.161L101.655 107.341L101.441 107.516L101.695 107.623L104.4 108.771L104.3 108.63C104.34 109.2 104.36 109.79 104.38 110.381C104.587 118.043 103.665 124.988 102.269 129.839C102.123 130.45 101.922 131.013 101.748 131.55C101.575 132.087 101.421 132.597 101.241 133.06C100.854 133.979 100.573 134.791 100.259 135.421C99.9452 136.052 99.7247 136.515 99.5511 136.871C99.4603 137.025 99.3821 137.187 99.3173 137.354Z" fill="#2D2F34"/>
<path d="M111.465 161.844C111.524 161.677 111.573 161.507 111.612 161.334C111.706 160.972 111.826 160.482 111.98 159.871C112.133 159.261 112.32 158.449 112.501 157.536C112.681 156.624 112.915 155.584 113.102 154.423C113.289 153.262 113.523 151.994 113.696 150.626C113.87 149.257 114.044 147.787 114.204 146.244C114.484 143.151 114.671 139.736 114.671 136.146C114.671 132.556 114.458 129.148 114.17 126.082C113.997 124.538 113.85 123.069 113.636 121.7C113.422 120.331 113.242 119.063 113.035 117.902C112.828 116.742 112.608 115.708 112.421 114.796C112.234 113.883 112.053 113.098 111.893 112.461C111.733 111.823 111.612 111.36 111.519 110.998C111.487 110.825 111.435 110.656 111.365 110.495C111.383 110.669 111.412 110.841 111.452 111.012C111.532 111.381 111.632 111.877 111.766 112.494C111.9 113.112 112.073 113.917 112.24 114.836C112.407 115.755 112.628 116.789 112.801 117.949C112.975 119.11 113.195 120.372 113.362 121.74C113.529 123.109 113.703 124.565 113.863 126.108C114.13 129.195 114.324 132.597 114.337 136.173C114.351 139.749 114.157 143.151 113.897 146.237C113.743 147.781 113.616 149.243 113.416 150.612C113.215 151.981 113.055 153.249 112.868 154.403C112.681 155.557 112.481 156.604 112.32 157.516C112.16 158.429 111.993 159.221 111.853 159.865C111.713 160.509 111.626 160.972 111.546 161.341C111.502 161.505 111.475 161.674 111.465 161.844Z" fill="#2D2F34"/>
<path d="M107.277 193.326C107.46 193.877 107.711 194.402 108.026 194.889C108.722 196.101 109.515 197.254 110.397 198.338C111.281 199.423 112.253 200.433 113.302 201.357C113.716 201.764 114.181 202.116 114.685 202.404C114.304 201.971 113.895 201.563 113.462 201.183C112.473 200.217 111.537 199.198 110.657 198.13C109.786 197.059 108.976 195.939 108.233 194.775C107.946 194.272 107.627 193.788 107.277 193.326Z" fill="#2D2F34"/>
<g opacity="0.3">
<path opacity="0.3" d="M98.6417 161.831C96.8116 160.871 94.5741 161.374 92.6305 162.119C90.6869 162.864 88.7901 163.864 86.7262 163.844C83.921 163.844 79.947 162.79 78.4842 160.395C76.8749 157.651 75.6797 154.682 74.9377 151.585C72.7069 141.272 72.1992 132.221 69.9684 121.901C68.7528 116.292 67.21 109.824 65.1395 104.456C63.1357 99.2697 61.2656 93.9019 59.6893 88.5677C59.9699 100.645 60.2504 112.817 62.1072 124.8C63.3094 132.496 65.1528 140.078 66.1614 147.794C67.023 154.403 67.2634 161.079 67.4972 167.742L73.7555 175.431L91.0075 175.78L100.018 164.105L98.6417 161.831Z" fill="black"/>
</g>
<path d="M36.1126 90.1647C32.8559 91.4324 29.9589 93.4843 27.6763 96.14C25.3937 98.7958 23.7953 101.974 23.0217 105.396C17.9589 127.833 9.2895 157.671 9.15591 167.299C8.98226 179.558 14.3188 187.952 21.2851 189.501C26.7953 190.723 76.7214 187.978 76.7214 187.978L79.0858 167.044L38.6173 163.307L44.1543 132.221L38.6707 89.1649L36.1126 90.1647Z" fill="#FAFAFC"/>
<path d="M38.6841 89.1649L49.8716 84.5755L62.6486 77.6377L62.7689 78.0134C61.3262 80.496 59.79 85.0787 60.331 87.9035L70.1359 139.313L67.9118 176.887L64.6991 202.82H32.4859L44.1676 175.196L38.417 123.317L38.6841 89.1649Z" fill="#FAFAFC"/>
<path d="M44.4948 129.081C44.4476 129.19 44.4161 129.305 44.4013 129.423C44.3545 129.692 44.2877 130.02 44.2076 130.423C44.0406 131.335 43.8135 132.577 43.5397 134.093C42.992 137.24 42.2573 141.507 41.4358 146.224C40.6142 150.941 39.9463 155.222 39.432 158.375C39.1983 159.898 39.0046 161.146 38.8576 162.066L38.7241 163.072C38.7049 163.19 38.7049 163.31 38.7241 163.428C38.7633 163.314 38.7924 163.198 38.8109 163.079C38.871 162.817 38.9311 162.488 39.0179 162.086C39.1849 161.173 39.412 159.932 39.6858 158.416C40.2469 155.316 41.0216 151.035 41.8031 146.285C42.5845 141.534 43.3126 137.247 43.8068 134.133C44.0406 132.61 44.2343 131.362 44.3745 130.443C44.428 130.034 44.4681 129.705 44.5014 129.437C44.5097 129.318 44.5074 129.199 44.4948 129.081Z" fill="#2D2F34"/>
<path d="M56.5179 81.2609C56.5179 81.2609 56.5179 81.3011 56.4711 81.3816C56.4244 81.4621 56.411 81.6098 56.3643 81.7574C56.2841 82.0929 56.1372 82.576 56.0103 83.2201C55.6114 85.0457 55.3259 86.8944 55.1554 88.7556C54.8957 91.5612 54.8243 94.3811 54.9416 97.1964C55.0485 100.404 55.3891 103.953 55.87 107.71V107.831H55.9836L59.6437 108.502L59.5168 108.274C59.3097 108.838 59.0893 109.448 58.9224 110.072C57.913 114.187 58.0587 118.502 59.3431 122.539C60.3657 125.811 61.8094 128.935 63.6378 131.832C65.1606 134.314 66.5432 136.227 67.4916 137.555L68.6003 139.065L68.8942 139.454C68.961 139.534 69.0011 139.581 69.0078 139.575C68.9818 139.526 68.9528 139.479 68.9209 139.434C68.8541 139.32 68.7606 139.192 68.6538 139.024L67.5985 137.475C66.6834 136.133 65.3343 134.2 63.8382 131.704C62.0514 128.812 60.6396 125.703 59.637 122.452C58.3881 118.467 58.2541 114.215 59.2496 110.159C59.4099 109.549 59.6237 108.952 59.824 108.402L59.8975 108.207L59.7038 108.173L56.0437 107.502L56.1773 107.643C55.6897 103.893 55.3424 100.357 55.2088 97.1561C55.0773 94.3535 55.1242 91.5454 55.349 88.7489C55.4993 86.8934 55.7513 85.0477 56.1038 83.2201C56.2173 82.5491 56.3442 82.0861 56.4043 81.744C56.4043 81.5963 56.4578 81.4689 56.4778 81.3615C56.4942 81.3293 56.5077 81.2956 56.5179 81.2609Z" fill="#2D2F34"/>
<path d="M56.5167 133.992V125.793C56.5167 125.793 56.4099 123.78 58.1064 124.196C59.8029 124.612 59.4823 127.813 59.4823 127.813C59.4823 127.813 59.8029 140.279 59.0615 140.172C58.3201 140.065 58.0329 139.105 58.0329 139.105V134.314L56.5167 133.992Z" fill="#2D2F34"/>
<path d="M49.4307 134.502C52.343 134.726 55.268 134.726 58.1803 134.502C55.268 134.278 52.343 134.278 49.4307 134.502Z" fill="#2D2F34"/>
<path d="M33.3014 95.0359C33.5984 95.1687 33.9042 95.2808 34.2165 95.3714C35.0468 95.6741 35.8586 96.0259 36.6476 96.4248C39.2355 97.767 41.4801 99.6912 43.2065 102.048C43.6971 102.71 44.1284 103.415 44.4955 104.154C44.8163 104.855 45.0756 105.582 45.2703 106.328C45.6073 107.599 45.8309 108.896 45.9382 110.207C46.0317 111.32 46.0518 112.219 46.0585 112.89C46.0342 113.216 46.0342 113.544 46.0585 113.87C46.1301 113.548 46.166 113.22 46.1653 112.89C46.2113 111.996 46.2113 111.101 46.1653 110.207C46.0995 108.877 45.9026 107.558 45.5776 106.268C45.3872 105.501 45.1279 104.753 44.8028 104.034C44.4211 103.274 43.9741 102.548 43.467 101.866C41.7176 99.46 39.4084 97.5204 36.7411 96.2168C35.9377 95.8285 35.1046 95.5054 34.2498 95.2507C33.9417 95.1471 33.624 95.0752 33.3014 95.0359Z" fill="#2D2F34"/>
<path d="M76.7346 187.978C76.7257 187.846 76.7257 187.714 76.7346 187.582C76.7346 187.301 76.7947 186.911 76.8415 186.442C76.9417 185.422 77.0886 183.966 77.2756 182.141C77.683 178.43 78.2508 173.204 78.9187 167.024L79.0589 167.205L64.031 165.924L38.6505 163.676C36.0875 163.431 33.5091 163.942 31.2301 165.145C30.6149 165.474 30.0235 165.847 29.4601 166.259L29.026 166.594C28.9796 166.635 28.9279 166.669 28.8724 166.695C29.5564 166.033 30.3298 165.47 31.17 165.024C33.4566 163.755 36.068 163.199 38.6706 163.428L64.0844 165.575L79.1124 166.883H79.2727V167.044C78.5513 173.21 77.9368 178.45 77.5094 182.148L76.975 186.435C76.9149 186.911 76.8615 187.287 76.8281 187.569C76.8085 187.708 76.7772 187.845 76.7346 187.978Z" fill="#2D2F34"/>
<path d="M65.8684 188.535C65.7991 188.247 65.7588 187.953 65.7482 187.656C65.6947 187.086 65.6413 186.254 65.6012 185.227C65.4078 179.878 65.8789 174.525 67.0038 169.292C67.2242 168.292 67.4179 167.487 67.5782 166.93C67.6379 166.639 67.7297 166.355 67.8521 166.085C67.8338 166.382 67.7868 166.676 67.7118 166.964C67.5849 167.594 67.4313 168.393 67.2443 169.339C66.8703 171.352 66.4294 174.143 66.1556 177.25C65.8818 180.356 65.8283 183.181 65.8417 185.221C65.8417 186.194 65.8751 187.005 65.8818 187.643C65.9091 187.94 65.9046 188.239 65.8684 188.535Z" fill="#2D2F34"/>
<path d="M71.5989 181.973C71.5989 181.973 71.7659 181.886 72.0932 181.886C72.5632 181.903 73.0162 182.067 73.3889 182.356C73.6784 182.566 73.9113 182.845 74.0663 183.169C74.2214 183.492 74.2939 183.849 74.2772 184.208C74.2533 184.651 74.106 185.078 73.8521 185.441C73.5982 185.804 73.248 186.088 72.8412 186.261C72.4242 186.406 71.9748 186.428 71.5455 186.326C71.1162 186.224 70.7247 186.001 70.4167 185.684C70.1626 185.423 69.9837 185.099 69.899 184.744C69.8143 184.39 69.827 184.019 69.9358 183.671C70.0536 183.211 70.3247 182.806 70.7039 182.523C70.8337 182.409 70.9937 182.334 71.1648 182.309C71.1648 182.342 71.0178 182.416 70.7907 182.624C70.4797 182.923 70.2655 183.308 70.1763 183.731C70.1002 184.032 70.1033 184.347 70.1852 184.645C70.2672 184.944 70.4253 185.217 70.6438 185.435C70.9104 185.703 71.2467 185.89 71.6141 185.974C71.9816 186.058 72.3652 186.037 72.721 185.912C73.0655 185.761 73.3626 185.52 73.5803 185.212C73.7981 184.905 73.9282 184.543 73.9566 184.167C73.9781 183.857 73.9243 183.545 73.7999 183.26C73.6754 182.975 73.484 182.725 73.242 182.53C72.9103 182.251 72.5079 182.07 72.0798 182.007C71.919 182.004 71.7585 181.993 71.5989 181.973Z" fill="#2D2F34"/>
<path d="M62.7886 77.4633L62.5816 77.5907L61.9137 77.9598L59.4491 79.3621L49.9247 84.656L33.8949 91.406C30.5747 92.7454 27.7523 95.0906 25.8199 98.1156C24.7574 99.7308 23.9003 101.473 23.2685 103.302C22.5736 105.217 22.0963 107.204 21.8459 109.227C18.8804 121.975 15.5141 136.609 12.248 152.169C11.5801 155.524 10.9122 158.825 10.2443 162.092C10.0774 162.911 9.94378 163.73 9.79684 164.541C9.6499 165.353 9.49628 166.158 9.39609 166.97C9.16752 168.57 9.0848 170.187 9.14897 171.801C9.26113 174.948 9.98255 178.043 11.2729 180.913C11.8979 182.299 12.7019 183.596 13.664 184.771C14.6137 185.905 15.7418 186.875 17.0036 187.643C19.4614 189.121 22.3053 189.823 25.1654 189.656L33.2871 189.488C38.5235 189.361 43.4059 189.206 47.8609 189.052L68.9667 188.28L74.7041 188.059L76.2002 188.012H76.7078L76.2002 188.052L74.7108 188.139L68.9734 188.421C63.9908 188.656 56.7841 188.978 47.8742 189.307C43.4193 189.475 38.5235 189.642 33.2938 189.783L25.1654 189.971C22.2477 190.143 19.3458 189.43 16.8366 187.925C15.5435 187.138 14.3844 186.148 13.4035 184.993C12.4264 183.792 11.607 182.471 10.9657 181.061C9.65344 178.151 8.91839 175.013 8.80167 171.821C8.73415 170.187 8.81688 168.549 9.04879 166.93C9.14897 166.105 9.30928 165.3 9.44954 164.488C9.5898 163.676 9.73005 162.851 9.89702 162.039C10.5115 158.764 11.1794 155.45 11.9007 152.108C15.1668 136.555 18.5464 121.915 21.5386 109.166C21.7867 107.131 22.2616 105.13 22.9546 103.202C23.5953 101.351 24.4684 99.59 25.5528 97.9613C27.5207 94.8955 30.3929 92.5239 33.768 91.1778L49.8379 84.4682L59.4023 79.2547L61.927 77.9128L62.5949 77.5706L62.7886 77.4633Z" fill="#2D2F34"/>
<path d="M175.298 140.172L124.503 194.601L74.9581 194.91L73.7826 192.648L122.62 139.494L175.298 140.172Z" fill="#2D2F34"/>
<path d="M127.289 139.494C127.289 139.494 130.588 139.494 131.57 140.648C132.712 142.03 134.91 145.144 130.114 153.068C128.204 156.242 118.833 167.158 114.979 178.343C111.379 188.784 113.022 192.232 113.022 192.232L148.769 191.085L149.437 189.79C149.437 189.79 164.979 147.519 160.865 139.467C158.968 135.797 127.035 138.139 127.289 139.494Z" fill="#FAFAFC"/>
<path d="M154.707 190.011L116.255 190.333C115.794 180.551 119.174 173.445 124.203 165.051C126.127 161.837 128.758 159.086 130.675 155.866C132.693 152.474 133.873 148.645 134.115 144.701C134.215 143.131 134.115 141.433 133.16 140.192C132.205 138.951 128.772 138.884 127.289 139.521C128.95 138.314 130.909 137.587 132.953 137.421C136.059 137.159 161.479 137.334 166.208 137.374C167.35 137.424 168.482 137.609 169.581 137.924C173.027 139.716 173.735 144.433 173.248 147.828C172.787 151.042 170.803 154.074 168.312 157.469C167.588 158.442 166.919 159.454 166.308 160.502C163.683 165.071 156.437 177.887 155.134 182.309C154.503 184.825 154.358 187.44 154.707 190.011Z" fill="#D1D3D7"/>
<path d="M154.707 189.931L145.45 190.005L127.763 190.152L120.336 190.219H117.852C117.39 190.27 116.924 190.27 116.462 190.219C116.429 190.219 116.275 190.219 116.255 190.219C116.235 190.219 116.309 189.501 116.302 189.421C116.302 189.085 116.302 188.75 116.302 188.408C116.302 187.75 116.322 187.093 116.362 186.435C116.519 183.921 116.954 181.432 117.658 179.014C119.087 174.143 121.539 169.621 124.13 165.313C125.553 162.938 127.316 160.811 128.946 158.603C130.518 156.513 131.791 154.212 132.726 151.766C133.642 149.335 134.159 146.769 134.256 144.171C134.302 142.507 134.062 140.226 132.319 139.474C131.521 139.163 130.67 139.012 129.814 139.031C129.246 139.031 127.93 138.958 127.443 139.353C127.303 139.461 127.376 139.501 127.476 139.474C127.559 139.431 127.635 139.376 127.703 139.313C127.964 139.139 128.238 138.971 128.512 138.823C129.446 138.314 130.446 137.937 131.484 137.703C133.554 137.24 135.798 137.374 137.909 137.354C144.495 137.3 151.087 137.354 157.679 137.354L165.286 137.401C166.484 137.394 167.679 137.509 168.853 137.743C170.857 138.166 172.193 140.199 172.78 142.044C173.404 144.057 173.519 146.195 173.114 148.264C172.607 150.887 171.171 153.236 169.681 155.41C168.346 157.369 166.95 159.261 165.761 161.328C164.946 162.77 164.131 164.206 163.323 165.655C161.393 169.117 159.496 172.607 157.732 176.169C156.216 179.222 154.754 182.248 154.52 185.711C154.413 187.147 154.46 188.591 154.66 190.018C154.66 190.125 154.84 190.079 154.82 189.971C154.317 186.479 154.815 182.916 156.256 179.699C157.766 176.243 159.556 172.902 161.353 169.594C162.991 166.575 164.665 163.578 166.375 160.603C168.866 156.275 172.874 152.498 173.428 147.291C173.769 144.037 173.021 139.239 169.621 137.783C168.439 137.375 167.191 137.19 165.941 137.24H163.163C156.691 137.2 150.212 137.166 143.74 137.173C140.948 137.173 138.156 137.173 135.364 137.226C132.833 137.273 130.408 137.522 128.151 138.843C127.841 139.019 127.544 139.216 127.263 139.434C127.202 139.481 127.263 139.602 127.349 139.575C128.828 139.06 130.432 139.036 131.925 139.508C133.928 140.179 134.162 142.594 134.082 144.439C133.852 148.862 132.445 153.142 130.008 156.832C128.819 158.644 127.443 160.328 126.154 162.072C124.942 163.739 123.826 165.476 122.814 167.272C120.873 170.521 119.253 173.952 117.979 177.518C116.59 181.64 115.981 185.987 116.182 190.333C116.182 190.357 116.191 190.379 116.207 190.395C116.224 190.412 116.246 190.421 116.269 190.421L129.26 190.313L149.965 190.139L154.714 190.099C154.727 190.102 154.74 190.102 154.753 190.099C154.766 190.096 154.779 190.09 154.789 190.081C154.799 190.073 154.808 190.062 154.813 190.05C154.818 190.037 154.821 190.024 154.821 190.01C154.82 189.997 154.816 189.984 154.81 189.972C154.803 189.96 154.794 189.95 154.783 189.942C154.772 189.935 154.76 189.929 154.746 189.928C154.733 189.926 154.72 189.927 154.707 189.931Z" fill="#2D2F34"/>
<path d="M152.435 181.946C152.435 182.047 145.656 182.121 137.287 182.121C128.918 182.121 122.139 182.047 122.139 181.946C122.139 181.846 128.925 181.772 137.287 181.772C145.649 181.772 152.435 181.852 152.435 181.946Z" fill="#2D2F34"/>
<path d="M153.284 176.86C153.284 176.954 146.504 177.035 138.135 177.035C129.767 177.035 122.987 176.954 122.987 176.86C122.987 176.766 129.773 176.686 138.135 176.686C146.498 176.686 153.284 176.76 153.284 176.86Z" fill="#2D2F34"/>
<path d="M157.358 171.399C157.358 171.493 150.572 171.573 142.209 171.573C133.847 171.573 127.061 171.493 127.061 171.399C127.061 171.305 133.841 171.224 142.209 171.224C150.578 171.224 157.358 171.298 157.358 171.399Z" fill="#2D2F34"/>
<path d="M159.862 166.407C159.862 166.501 153.083 166.581 144.714 166.581C136.345 166.581 129.566 166.501 129.566 166.407C129.566 166.313 136.352 166.232 144.714 166.232C153.076 166.232 159.862 166.313 159.862 166.407Z" fill="#2D2F34"/>
<path d="M161.533 161.844C161.533 161.938 154.754 162.019 146.391 162.019C138.029 162.019 131.243 161.938 131.243 161.844C131.243 161.75 138.022 161.67 146.391 161.67C154.76 161.67 161.533 161.743 161.533 161.844Z" fill="#2D2F34"/>
<path d="M165.647 155.846C165.647 155.946 158.868 156.02 150.499 156.02C142.13 156.02 135.351 155.946 135.351 155.846C135.351 155.745 142.137 155.671 150.499 155.671C158.861 155.671 165.647 155.752 165.647 155.846Z" fill="#2D2F34"/>
<path d="M169.521 150.109C169.521 150.203 162.742 150.283 154.373 150.283C146.004 150.283 139.224 150.203 139.224 150.109C139.224 150.015 146.01 149.935 154.373 149.935C162.735 149.935 169.521 150.015 169.521 150.109Z" fill="#2D2F34"/>
<path d="M169.24 144.654C169.24 144.748 162.461 144.828 154.098 144.828C145.736 144.828 138.93 144.748 138.93 144.654C138.93 144.56 145.709 144.48 154.078 144.48C162.447 144.48 169.24 144.553 169.24 144.654Z" fill="#2D2F34"/>
<path d="M122.619 139.494C122.694 139.535 122.764 139.584 122.827 139.642L123.428 140.118L125.725 141.997L125.785 142.051L125.732 142.111C121.598 146.654 112.634 156.362 102.235 167.561C95.0616 175.458 88.1488 182.228 83.1462 187.106C80.6415 189.548 78.6044 191.501 77.1884 192.85L75.5454 194.393L75.1112 194.782L74.9576 194.91C74.9576 194.91 74.9977 194.856 75.0845 194.762L75.4986 194.339L77.0949 192.749L82.9792 186.932C87.9351 182 94.8078 175.223 101.981 167.319C112.38 156.121 121.397 146.466 125.618 142.004V142.118L123.361 140.179L122.786 139.675C122.724 139.621 122.668 139.561 122.619 139.494Z" fill="#5F646F"/>
<path d="M79.0448 169.446H86.2983C86.2983 169.446 91.2008 165.152 92.3095 164.823C94.6405 164.119 100.658 163.381 100.658 163.381L96.5507 167.863C95.5956 168.896 93.8457 169.829 94.8809 169.829H102.428C102.428 169.829 110.143 166.112 111.291 166.789C112.253 167.36 112.587 168.393 111.605 169.829C110.624 171.265 103.858 174.66 103.076 174.921L100.865 175.592L102.943 176.263L112.781 172.808C113.415 172.694 114.304 172.586 114.591 172.962C114.714 173.091 114.81 173.242 114.874 173.408C114.938 173.574 114.968 173.752 114.963 173.93C114.958 174.108 114.918 174.283 114.845 174.445C114.772 174.607 114.667 174.753 114.537 174.874C113.135 176.144 111.649 177.316 110.089 178.384C110.089 178.384 111.659 180.705 110.356 181.879C109.054 183.054 105.287 186.576 105.287 186.576C105.287 186.576 104.893 188.535 103.724 189.448C102.555 190.36 89.698 190.36 88.7696 190.36C87.8412 190.36 82.6582 187.361 82.6582 187.361L77.0144 186.938L79.0448 169.446Z" fill="#B78876"/>
<path d="M101.474 182.087C101.928 182.237 102.405 182.303 102.883 182.282C103.407 182.286 103.928 182.192 104.419 182.007C105.009 181.772 105.571 181.472 106.096 181.114C107.211 180.383 108.206 179.712 108.921 179.209C109.325 178.965 109.702 178.677 110.043 178.35C109.609 178.529 109.194 178.754 108.807 179.021C108.059 179.47 107.044 180.121 105.929 180.846C105.423 181.195 104.884 181.492 104.319 181.732C103.859 181.918 103.371 182.027 102.876 182.054C102.021 182.101 101.474 182.04 101.474 182.087Z" fill="#AA6550"/>
<path d="M100.86 186.925C101.111 187.222 101.46 187.417 101.842 187.475C102.756 187.681 103.714 187.522 104.514 187.032C105.296 186.586 106.02 186.045 106.671 185.422C107.165 184.946 107.433 184.61 107.399 184.583C106.427 185.363 105.415 186.091 104.367 186.764C103.629 187.217 102.757 187.395 101.902 187.267C101.545 187.187 101.196 187.072 100.86 186.925Z" fill="#AA6550"/>
<path d="M97.2394 176.223C97.9223 176.306 98.6149 176.251 99.2765 176.062C99.9585 175.972 100.615 175.743 101.207 175.391C100.529 175.452 99.8583 175.576 99.203 175.76C98.5349 175.849 97.8772 176.004 97.2394 176.223Z" fill="#AA6550"/>
<path d="M48.0282 30.9115C47.08 29.2091 45.8044 27.713 44.2757 26.5101C42.7469 25.3073 40.9954 24.4216 39.123 23.9047C37.2505 23.3878 35.2945 23.2499 33.3686 23.499C31.4426 23.7481 29.5851 24.3793 27.9041 25.3559C25.0254 27.0333 22.6276 30.0526 22.8213 33.4075C23.0017 36.561 25.3394 39.104 27.5434 41.3517C24.0303 42.8212 22.2736 47.2898 23.4224 50.9265C24.5712 54.5631 28.1913 57.1329 31.9717 57.4818C35.752 57.8307 39.5658 56.1801 42.2975 53.5231C44.9705 50.7793 46.838 47.3477 47.6942 43.6062" fill="#2D2F34"/>
<path d="M36.0315 39.0437C35.4213 39.3113 34.7715 39.4768 34.1079 39.5335C32.2833 39.7081 30.4486 39.3246 28.8448 38.4331C27.7307 37.8316 26.7511 37.0072 25.9662 36.0109C25.0676 34.8553 24.4645 33.4961 24.2096 32.0522C23.9189 30.4017 24.0171 28.7058 24.4961 27.1002C24.9751 25.4947 25.8217 24.0241 26.968 22.8063C28.147 21.6271 29.5578 20.7078 31.1103 20.107C32.6628 19.5063 34.323 19.2373 35.9848 19.3172C38.7259 19.3722 41.347 20.4566 43.3317 22.3567C44.6448 23.6604 45.418 25.4152 45.4958 27.2682C45.5119 27.7642 45.4647 28.2603 45.3555 28.7443C45.3221 28.9121 45.2687 29.0328 45.2486 29.1133C45.2286 29.1939 45.2019 29.2341 45.1952 29.2341C45.3287 28.5878 45.3847 27.9278 45.3622 27.2682C45.2312 25.4709 44.4467 23.7848 43.1581 22.5312C41.2054 20.709 38.6496 19.6787 35.9848 19.6393C34.3702 19.5704 32.7589 19.8376 31.252 20.4242C29.7452 21.0107 28.3753 21.904 27.2285 23.0478C26.123 24.2296 25.3061 25.6534 24.8425 27.2068C24.3788 28.7602 24.281 30.4006 24.5569 31.9985C24.7914 33.3929 25.3624 34.7083 26.22 35.8297C27.1481 37.012 28.3455 37.9528 29.7113 38.5728C31.0771 39.1929 32.5713 39.474 34.0679 39.3926C34.7297 39.322 35.3858 39.2055 36.0315 39.0437Z" fill="#2D2F34"/>
<path d="M40.3466 41.9691C40.2071 42.0882 40.052 42.1875 39.8857 42.2643C39.4595 42.5076 39.0124 42.7119 38.5499 42.8749C37.8563 43.1224 37.1405 43.3022 36.4126 43.4117C35.5165 43.5358 34.6101 43.5673 33.7076 43.5056C32.8015 43.4356 31.9057 43.2669 31.0359 43.0024C30.3317 42.7834 29.6496 42.4981 28.9988 42.1503C28.5611 41.917 28.1433 41.6477 27.7498 41.3451C27.476 41.1237 27.3357 40.9962 27.3491 40.9761C27.3624 40.9559 28.017 41.3921 29.1123 41.9288C29.7582 42.2387 30.4284 42.4945 31.1161 42.6937C32.8128 43.1778 34.5893 43.3125 36.3391 43.0896C37.0514 42.9974 37.755 42.8471 38.443 42.6401C39.6319 42.2777 40.3132 41.9087 40.3466 41.9691Z" fill="#5F646F"/>
<path d="M22.8084 33.998C22.8566 33.7176 22.9466 33.4462 23.0755 33.1928C23.3845 32.4692 23.8718 31.8365 24.4915 31.3544C25.4618 30.7092 26.5831 30.3299 27.7442 30.254C29.1429 30.1373 30.5508 30.205 31.932 30.4553C34.4404 30.8611 36.8604 31.6987 39.0853 32.9311C39.7559 33.3042 40.4028 33.7188 41.0222 34.1724C41.2666 34.3222 41.491 34.5026 41.6901 34.7092C41.4317 34.595 41.1873 34.4509 40.9621 34.2798C40.5012 33.998 39.8333 33.6088 38.9584 33.1526C36.7314 31.9991 34.3378 31.2044 31.8652 30.7975C30.5147 30.555 29.1396 30.4806 27.7709 30.576C26.6591 30.6316 25.5793 30.9686 24.6318 31.5557C24.0231 31.9961 23.5302 32.5787 23.1958 33.2532C23.0791 33.5078 22.9499 33.7564 22.8084 33.998Z" fill="#5F646F"/>
<path d="M43.2058 47.4575C43.2058 47.4575 43.2058 47.538 43.1123 47.6857C43.0188 47.8333 42.912 48.0279 42.7517 48.2895C42.2694 49.011 41.7045 49.6731 41.0685 50.2622C40.1195 51.136 39.0313 51.8436 37.8492 52.3556C36.3916 52.9824 34.8194 53.2955 33.234 53.2748C31.65 53.2698 30.0855 52.9244 28.6455 52.2617C27.4708 51.7104 26.4362 50.8982 25.6198 49.8864C25.0714 49.2014 24.6895 48.3973 24.5044 47.538C24.4536 47.3065 24.4245 47.0706 24.4176 46.8335C24.4176 46.6725 24.4176 46.592 24.4176 46.592C24.4176 46.592 24.4577 46.9275 24.618 47.5045C24.8514 48.3224 25.2543 49.0815 25.8002 49.7321C26.6146 50.687 27.6267 51.4518 28.7657 51.9731C30.1707 52.5993 31.6903 52.9238 33.2273 52.9259C34.7639 52.9429 36.2882 52.6485 37.709 52.0604C38.8704 51.5671 39.9442 50.8873 40.8882 50.0475C41.7509 49.27 42.5279 48.4018 43.2058 47.4575Z" fill="#5F646F"/>
<path d="M44.4823 50.9466C44.2659 51.2666 44.0199 51.5654 43.7476 51.839C43.2534 52.3892 42.5187 53.1809 41.5435 54.0733C41.0559 54.5229 40.5016 54.9992 39.8871 55.4823C37.7489 57.2921 34.9866 58.1817 32.1995 57.9582C30.2577 57.9025 28.3793 57.2517 26.8162 56.0929C25.59 55.098 24.6208 53.8206 23.9909 52.3691C23.5584 51.4014 23.3071 50.3619 23.2495 49.3027C23.2304 49.0145 23.2304 48.7254 23.2495 48.4372C23.2541 48.3373 23.2698 48.2383 23.2963 48.142C23.3109 48.2421 23.3109 48.3438 23.2963 48.4439C23.2927 48.7264 23.3084 49.0089 23.343 49.2893C23.4444 50.3224 23.7223 51.3302 24.1646 52.2684C24.809 53.6622 25.7698 54.8848 26.9698 55.838C28.4884 56.9384 30.301 57.5555 32.1728 57.6093C34.0421 57.7205 35.9098 57.3656 37.6095 56.576C38.3403 56.2026 39.0298 55.7528 39.6667 55.2341C40.2812 54.7644 40.8355 54.3014 41.3298 53.8922C42.3183 53.0266 43.0797 52.2751 43.6073 51.7518C43.883 51.4663 44.1751 51.1975 44.4823 50.9466Z" fill="#5F646F"/>
<path d="M50.0992 30.5089L51.0743 31.2806C50.6803 29.6166 48.8235 28.5967 47.127 28.7443C46.2824 28.8785 45.4785 29.2014 44.7745 29.6891C44.0706 30.1768 43.4845 30.8169 43.0594 31.5624C42.2205 33.0616 41.6657 34.7042 41.4231 36.4067C40.9021 39.2248 40.6416 42.2307 41.757 44.8609C42.8724 47.4911 45.7645 49.5577 48.5163 48.8867C51.268 48.2158 52.8109 45.1897 53.225 42.3716C53.517 40.2848 53.3909 38.1605 52.8541 36.1233C52.3173 34.0862 51.3807 32.1773 50.0992 30.5089Z" fill="#F28080"/>
<path d="M46.2726 43.2707C45.4696 43.7534 44.5305 43.9563 43.601 43.8478C42.9513 43.8177 42.3118 43.6747 41.7108 43.4251C41.2232 43.2305 41.0429 42.8614 41.1364 42.8547C41.3391 43.0045 41.5647 43.12 41.8043 43.1969C42.3991 43.3652 43.0106 43.4665 43.6277 43.4989C44.5135 43.4848 45.3973 43.4085 46.2726 43.2707Z" fill="#2D2F34"/>
<path d="M47.6274 38.2922C46.5649 38.438 45.4894 38.4627 44.4214 38.366C43.3504 38.3933 42.2796 38.301 41.2288 38.0909C42.2919 37.9533 43.3665 37.9285 44.4348 38.0171C45.5056 37.9979 46.5755 38.0901 47.6274 38.2922Z" fill="#2D2F34"/>
<path d="M46.5583 32.9714C46.5583 33.0854 45.5698 32.9714 44.4077 32.8372C43.9162 32.7955 43.4214 32.8249 42.9383 32.9244C42.5709 33.0049 42.3505 33.0988 42.3238 33.0519C42.2971 33.0049 42.4841 32.8372 42.8648 32.6828C43.3662 32.5079 43.8989 32.4416 44.4277 32.4883C45.1621 32.5111 45.8854 32.6751 46.5583 32.9714Z" fill="#2D2F34"/>
<path d="M53.3451 19.5117C53.2649 16.7071 55.8564 14.5332 58.4612 13.473C61.0661 12.4129 63.9581 12.0573 66.2824 10.4872C68.3396 9.09831 69.7222 6.93109 71.4587 5.15303C73.6064 2.96621 76.2947 1.39291 79.2476 0.59463C82.2005 -0.203652 85.3117 -0.198161 88.2618 0.610535C91.2119 1.41923 93.8946 3.002 96.0347 5.19638C98.1747 7.39076 99.6949 10.1177 100.439 13.0973C101.441 17.1231 100.76 21.8199 97.6206 24.5037C93.9739 27.5902 88.5638 26.9058 83.8952 25.9463C79.2265 24.9868 73.9367 24.0341 70.0361 26.7917C67.685 28.4557 66.3359 31.1597 64.8932 33.6624C63.4505 36.1652 61.6538 38.7148 58.9355 39.6542C56.2171 40.5935 52.5236 38.9832 52.4167 36.0846" fill="#2D2F34"/>
<path d="M53.533 21.0551C53.8402 23.4169 52.1437 25.5237 50.4539 27.1877C48.7641 28.8517 46.8606 30.6164 46.56 32.9715C46.2127 35.7292 48.2097 38.4399 47.6286 41.1506C47.2613 42.875 45.9322 44.2035 45.124 45.7668C44.0431 48.0202 43.8638 50.6042 44.6231 52.9864C45.291 55.3617 46.4264 60.6623 48.0695 62.5075C52.6112 67.6068 59.838 72.0084 66.477 73.5382C73.116 75.068 80.0088 75.0814 86.8081 74.6587C92.3717 74.3165 98.7703 74.5715 103.412 66.8822C105.81 62.8966 107.006 57.6027 108.281 53.1274C109.377 49.2693 110.332 45.1428 109.183 41.2982C108.515 39.0572 107.179 37.0711 106.511 34.8301C105.69 32.0321 105.99 29.0329 105.656 26.1075C105.298 22.9541 104.196 19.9321 102.441 17.2928C100.686 14.6535 98.3293 12.4732 95.5667 10.933C92.8042 9.39287 89.7156 8.53739 86.5578 8.4377C83.3999 8.33801 80.264 8.99699 77.4106 10.3599" fill="#2D2F34"/>
<path d="M62.9958 85.0721C62.9958 85.0721 62.9958 85.2399 63.0292 85.3204L62.9958 85.0721Z" fill="#B78876"/>
<path d="M103.01 30.7237C102.489 22.7056 97.1726 12.8692 89.2178 13.7348L64.3783 20.1022C63.2131 20.2281 62.1375 20.7889 61.3644 21.6737C60.5912 22.5584 60.1771 23.7026 60.2039 24.8795L62.9289 83.7301C62.9672 84.73 63.1939 85.7136 63.5969 86.6287C65.4403 90.7082 71.5717 101.088 84.8764 96.8878C88.1358 95.8612 89.6252 92.2782 90.2664 88.6013C90.2664 88.1652 90.4467 87.7761 90.4534 87.3601C90.7739 84.6157 90.8075 81.8451 90.5536 79.0937C90.6004 74.2359 90.5937 72.2431 90.5937 72.2901C90.5937 72.3371 100.793 70.5657 102.883 57.1866C103.945 50.5373 103.584 39.6341 103.01 30.7237Z" fill="#B78876"/>
<path d="M99.0094 39.4463C99.015 39.8933 98.8461 40.3246 98.539 40.6482C98.232 40.9717 97.8111 41.1616 97.3664 41.1774C97.1491 41.1957 96.9303 41.1699 96.7231 41.1017C96.5158 41.0335 96.3244 40.9242 96.1599 40.7803C95.9955 40.6364 95.8615 40.4608 95.7659 40.2639C95.6702 40.0671 95.6149 39.8529 95.6031 39.6341C95.5976 39.1883 95.7655 38.7579 96.0711 38.4345C96.3768 38.1112 96.796 37.9205 97.2395 37.9031C97.4571 37.8848 97.6762 37.9105 97.8839 37.9786C98.0915 38.0467 98.2834 38.1559 98.4484 38.2997C98.6133 38.4436 98.748 38.6191 98.8443 38.816C98.9407 39.0129 98.9968 39.2272 99.0094 39.4463Z" fill="#2D2F34"/>
<path d="M100.665 36.4C100.451 36.6214 99.1556 35.6619 97.3255 35.6686C95.4954 35.6753 94.1462 36.608 93.9459 36.3798C93.8457 36.2792 94.0661 35.8766 94.6472 35.4472C95.4411 34.8931 96.3855 34.598 97.3522 34.6018C98.3112 34.594 99.2475 34.8949 100.024 35.4606C100.578 35.89 100.772 36.2993 100.665 36.4Z" fill="#2D2F34"/>
<path d="M80.8227 39.4463C80.83 39.8926 80.6627 40.324 80.3567 40.6477C80.0507 40.9714 79.6304 41.1616 79.1863 41.1774C78.969 41.1957 78.7503 41.1699 78.543 41.1017C78.3358 41.0335 78.1443 40.9242 77.9799 40.7803C77.8155 40.6364 77.6815 40.4608 77.5858 40.2639C77.4902 40.0671 77.4348 39.8529 77.4231 39.6341C77.4158 39.1878 77.5832 38.7564 77.8892 38.4327C78.1952 38.109 78.6153 37.9188 79.0594 37.903C79.2768 37.8848 79.4955 37.9105 79.7028 37.9787C79.91 38.0469 80.1015 38.1562 80.2659 38.3001C80.4304 38.444 80.5644 38.6196 80.66 38.8165C80.7556 39.0134 80.811 39.2275 80.8227 39.4463Z" fill="#2D2F34"/>
<path d="M82.6052 36.7624C82.3914 36.9838 81.0957 36.0243 79.2656 36.0377C77.4356 36.0511 76.0864 36.9704 75.886 36.7489C75.7858 36.6483 75.9995 36.239 76.5539 35.8096C77.3499 35.2546 78.2967 34.9594 79.2656 34.9642C80.2242 34.9592 81.1596 35.2599 81.9373 35.823C82.5183 36.2793 82.712 36.6818 82.6052 36.7624Z" fill="#2D2F34"/>
<path d="M89.3045 50.4568C89.3045 50.3495 90.4399 50.1482 92.29 49.9066C92.7576 49.8596 93.1984 49.7657 93.2785 49.4436C93.3162 48.9573 93.2067 48.4709 92.9646 48.048C92.5171 46.9074 92.0562 45.7131 91.5687 44.4584C89.6317 39.3523 88.2291 35.1587 88.4295 35.0648C88.6299 34.9709 90.3731 39.0906 92.3101 44.1698C92.7776 45.4313 93.2229 46.6345 93.6459 47.7796C93.9448 48.3454 94.0324 48.9998 93.893 49.6248C93.8245 49.7881 93.7196 49.9335 93.5865 50.0498C93.4533 50.1661 93.2954 50.2503 93.1249 50.2958C92.8661 50.3686 92.5989 50.4069 92.3301 50.4098C90.4666 50.5507 89.3112 50.5575 89.3045 50.4568Z" fill="#2D2F34"/>
<path d="M90.621 72.3236C84.3584 72.4185 78.1923 70.7672 72.8079 67.553C72.8079 67.553 77.3096 76.8056 90.6343 75.5241L90.621 72.3236Z" fill="#AA6550"/>
<path d="M88.5354 54.8783C88.1827 54.4391 87.7255 54.0963 87.206 53.8816C86.6865 53.667 86.1214 53.5875 85.5632 53.6505C85.1585 53.6888 84.7655 53.8083 84.4075 54.0019C84.0496 54.1955 83.734 54.4593 83.4793 54.7777C83.2353 55.0864 83.0911 55.4626 83.066 55.856C83.0409 56.2494 83.1362 56.6411 83.3391 56.9785C83.6358 57.3084 84.0232 57.5425 84.4524 57.6512C84.8816 57.7599 85.3333 57.7383 85.7502 57.5891C86.6162 57.2755 87.4127 56.7945 88.0946 56.1733C88.3026 56.0262 88.4797 55.8392 88.6156 55.6231C88.6816 55.5238 88.7168 55.4071 88.7168 55.2876C88.7168 55.1682 88.6816 55.0515 88.6156 54.9522" fill="#AA6550"/>
<path d="M83.9018 51.7451C84.2024 51.7451 84.209 53.758 85.9055 55.1469C87.602 56.5358 89.7393 56.3412 89.7527 56.623C89.7527 56.7438 89.2785 57.0122 88.3835 57.039C87.2144 57.059 86.0761 56.662 85.1708 55.9185C84.3003 55.2085 83.7396 54.1855 83.6079 53.0669C83.5412 52.2282 83.7615 51.7317 83.9018 51.7451Z" fill="#2D2F34"/>
<path d="M83.427 33.5484C83.2467 34.0516 81.4233 33.8168 79.2593 34.0851C77.0953 34.3535 75.3587 34.944 75.0715 34.4944C74.9446 34.2797 75.2452 33.8235 75.9465 33.3202C76.883 32.7217 77.9429 32.3454 79.0458 32.2198C80.1487 32.0943 81.2655 32.2228 82.3116 32.5956C83.1064 32.9177 83.4938 33.3068 83.427 33.5484Z" fill="#2D2F34"/>
<path d="M99.9777 31.059C99.6571 31.475 98.3881 31.059 96.8652 31.059C95.3424 31.059 94.06 31.3476 93.7595 30.9114C93.6259 30.6967 93.8329 30.2807 94.394 29.8781C95.1495 29.4012 96.0291 29.1607 96.921 29.1869C97.8129 29.2132 98.6769 29.5052 99.4033 30.0257C99.9443 30.4216 100.118 30.851 99.9777 31.059Z" fill="#2D2F34"/>
<path d="M55.0877 64.0909C56.9242 64.4577 58.8212 64.3808 60.6224 63.8665C62.4235 63.3522 64.0771 62.4152 65.447 61.1327C66.8169 59.8503 67.8637 58.2592 68.5012 56.4905C69.1387 54.7218 69.3487 52.8262 69.1137 50.9601C68.6996 47.679 66.9364 44.3309 68.0718 41.2243C69.5679 37.118 75.3052 35.8566 76.828 31.7502C77.7164 29.3616 76.9216 26.5771 77.9234 24.2421C78.8652 22.0413 81.1628 20.7799 83.4069 19.9613C85.6511 19.1428 88.0489 18.6194 89.9257 17.1231C91.8025 15.6269 92.9781 12.8826 91.7691 10.8228C81.8249 12.0199 72.0581 14.403 62.6751 17.9216C60.5044 18.7402 58.2202 19.7198 56.9378 21.6589C55.602 23.712 55.642 26.3557 55.7556 28.8248C56.3122 40.8351 56.8688 52.8455 57.4254 64.8558" fill="#2D2F34"/>
<path d="M55.9231 68.6937C55.8435 68.6571 55.7694 68.6097 55.7027 68.5528L55.115 68.1032C54.6007 67.6939 53.8392 67.0968 52.9108 66.2648C51.7619 65.2673 50.7128 64.1594 49.7784 62.9569C48.5035 61.3582 47.6471 59.4645 47.2871 57.4482C47.0308 56.2218 47.0519 54.9533 47.349 53.7362C47.6461 52.5191 48.2116 51.3846 49.0036 50.4165C49.9677 49.442 51.0061 48.5447 52.1094 47.7326C53.2157 46.8842 54.0551 45.7334 54.5272 44.418C55.509 41.6872 55.0749 38.5337 55.4556 35.3063C55.8306 31.9392 57.138 28.7453 59.2293 26.0872C60.3075 24.744 61.6516 23.6405 63.1766 22.8464C64.6783 22.1642 66.2447 21.6359 67.8519 21.2697C69.3412 20.8977 70.7346 20.2115 71.9395 19.2568C73.0767 18.304 74.0769 17.1976 74.9117 15.969C76.5815 13.5871 77.8171 11.0441 79.4134 8.92384C80.1653 7.88197 81.0475 6.9416 82.0383 6.12591C82.9647 5.37718 84.0163 4.8001 85.1441 4.42165C86.1088 4.05422 87.1452 3.91631 88.1719 4.01875C89.1986 4.1212 90.1878 4.4612 91.0617 5.0121C91.6778 5.4932 92.1839 6.10159 92.5457 6.79613C92.9075 7.49067 93.1166 8.25516 93.159 9.03791C93.2385 10.0249 92.9531 11.0067 92.3575 11.7956C92.2029 11.9931 92.0207 12.1671 91.8165 12.3122C91.6829 12.4196 91.6094 12.4666 91.6027 12.4531C91.5961 12.4397 91.6562 12.386 91.7764 12.272C91.9602 12.1088 92.1239 11.9241 92.264 11.7218C92.8006 10.937 93.0378 9.98411 92.9319 9.03791C92.865 8.30127 92.6443 7.58707 92.2841 6.94193C91.9238 6.2968 91.4322 5.73524 90.8413 5.29391C90.0084 4.78808 89.0702 4.48304 88.1003 4.40271C87.1303 4.32238 86.155 4.46896 85.2509 4.83094C84.1757 5.20521 83.1743 5.76615 82.2921 6.48823C81.3436 7.30098 80.5 8.22964 79.7808 9.25262C78.2379 11.3393 77.0223 13.8756 75.3325 16.3246C74.4738 17.5968 73.4444 18.7438 72.2735 19.7331C71.0153 20.7421 69.5583 21.4716 67.9989 21.8735C66.4331 22.2371 64.9072 22.7563 63.4438 23.4235C61.9894 24.1828 60.7069 25.2359 59.6768 26.5166C57.6613 29.0872 56.3965 32.1697 56.0233 35.4204C55.6359 38.5404 56.0834 41.7476 55.0348 44.6462C54.519 46.0442 53.6179 47.266 52.4366 48.1688C51.3498 48.9517 50.3228 49.8152 49.3643 50.752C48.6131 51.6656 48.0736 52.7355 47.7848 53.8844C47.496 55.0332 47.4652 56.2322 47.6945 57.3946C48.0298 59.3487 48.8345 61.1912 50.0389 62.7623C50.9438 63.9686 51.9541 65.0914 53.0578 66.1171C53.9661 66.9626 54.7008 67.5933 55.1884 68.0294C55.4507 68.2306 55.6964 68.4528 55.9231 68.6937Z" fill="#5F646F"/>
<path d="M109.957 47.7796C110.313 47.4207 110.579 46.9812 110.732 46.498C110.884 45.8266 110.895 45.1305 110.764 44.4545C110.633 43.7786 110.362 43.1376 109.97 42.5729C109.509 41.8281 108.888 41.09 108.26 40.2513C107.544 39.3737 107.02 38.3539 106.724 37.2588C106.457 36.0405 106.407 34.7841 106.577 33.5483C106.717 32.2668 106.971 30.9651 107.138 29.6366C107.466 27.1289 107.167 24.5787 106.27 22.2157C105.541 20.2856 104.46 18.5086 103.084 16.9754C102.158 15.94 101.095 15.037 99.9248 14.2916C99.0966 13.7615 98.589 13.5199 98.589 13.4931C98.7175 13.5254 98.8411 13.5751 98.9563 13.6407C99.3031 13.7988 99.6399 13.9781 99.9649 14.1775C101.179 14.8899 102.282 15.7784 103.238 16.8144C104.666 18.3504 105.789 20.1475 106.544 22.1083C107.478 24.516 107.792 27.1214 107.459 29.6836C107.292 31.0255 107.031 32.3339 106.891 33.5886C106.718 34.7873 106.759 36.0073 107.011 37.1917C107.289 38.2465 107.782 39.2315 108.461 40.0836C109.075 40.9223 109.696 41.6805 110.157 42.4521C110.556 43.0468 110.822 43.721 110.937 44.4286C111.052 45.1361 111.014 45.8603 110.825 46.5517C110.702 46.9206 110.499 47.2574 110.231 47.538C110.15 47.6304 110.058 47.7117 109.957 47.7796Z" fill="#2D2F34"/>
</g>
<mask id="mask1" style="mask-type:alpha" maskUnits="userSpaceOnUse" x="20" y="0" width="146" height="125">
<rect x="20.0341" width="145.78" height="124.294" fill="white"/>
</mask>
<g mask="url(#mask1)">
<path d="M154.86 67.2311C153.718 63.7487 155.782 51.262 153.063 51.2419C149.59 51.2084 150.586 65.3322 150.579 66.6205C150.572 67.9087 148.755 67.8685 148.822 66.7278C148.916 65.0907 149.49 48.9539 145.99 49.2357C144.06 49.39 144.307 52.9126 144.307 52.9126C144.307 52.9126 145.383 69.0561 143.739 69.1366C142.096 69.2171 141.509 59.7967 141.375 56.4822C141.241 53.3085 139.912 52.0471 138.456 53.1273C137 54.2076 137.294 63.7487 137.374 66.9358C137.454 70.1229 137.828 78.8522 134.162 74.605C130.495 70.3578 126.147 68.4455 124.597 68.7474C123.048 69.0494 122.994 71.2971 124.564 72.0285C125.833 72.6189 127.663 74.2561 128.985 75.5444C130.01 76.6562 130.906 77.8806 131.657 79.1944C132.686 80.8478 133.433 82.6619 133.868 84.5622C134.232 86.0567 134.907 87.4565 135.85 88.6688C136.793 89.8811 137.982 90.8782 139.338 91.5939L139.164 97.5118L156.096 96.0357L156.423 84.844C156.597 76.2891 158.086 70.5322 158.981 65.4463C160.417 57.3343 159.375 57.086 158.407 57.133C156.296 57.2068 155.982 70.6262 154.86 67.2311Z" fill="#B78876"/>
<path d="M154.859 78.208C154.074 78.3555 153.297 78.5505 152.535 78.7917C150.73 79.4651 149.189 80.7051 148.14 82.3277C147.827 82.8229 147.565 83.349 147.359 83.8978L147.259 84.1528L147.052 83.9783C145.878 82.9955 144.551 82.2134 143.124 81.6635C142.056 81.2475 141.374 81.1066 141.388 81.0462C142.012 81.0726 142.628 81.2018 143.211 81.4286C144.702 81.9135 146.089 82.676 147.299 83.6764L146.991 83.7636C147.202 83.1863 147.473 82.6331 147.8 82.113C148.4 81.1863 149.165 80.3788 150.057 79.7311C150.786 79.2088 151.59 78.8015 152.442 78.5233C153.014 78.3394 153.606 78.2246 154.205 78.1811C154.423 78.1572 154.644 78.1662 154.859 78.208Z" fill="#AA6550"/>
<path d="M152.502 90.1714C151.219 90.8183 149.825 91.2101 148.394 91.3255C146.978 91.5653 145.529 91.5311 144.126 91.2248C144.126 91.104 146.03 91.2248 148.341 90.9229C150.652 90.6209 152.468 90.0573 152.502 90.1714Z" fill="#AA6550"/>
<path d="M107.058 90.6813C107.058 90.6813 115.881 95.2104 120.523 101.732C125.165 108.254 139.185 128.477 139.185 128.477L137.181 97.7869L158.835 94.9688C158.835 94.9688 165.133 125.88 166.609 136.569C167.985 146.573 167.41 156.416 157.686 161.784C146.211 168.118 133.18 159.563 128.845 156.315C123.462 152.29 113.524 145.707 113.524 145.707L107.058 90.6813Z" fill="#FAFAFC"/>
<path d="M96.1774 86.8501L89.9992 79.919L62.9957 77.839L59.4959 83.5221L68.9601 142.862L64.6989 202.807H99.8843L96.1774 86.8501Z" fill="#F28080"/>
<path d="M89.9993 79.9191L107.298 91.1645L110.958 103.228L114.458 140.843L110.598 179.336L117.263 202.807H99.8844L99.851 193.547L97.9942 128.37L96.1775 86.8502L89.9993 79.9191Z" fill="#FAFAFC"/>
<path d="M99.3173 137.354C99.4235 137.199 99.5195 137.038 99.6045 136.871C99.7915 136.522 100.052 136.046 100.373 135.442C100.693 134.838 101 134.012 101.408 133.093C101.595 132.63 101.755 132.12 101.942 131.584C102.129 131.047 102.336 130.483 102.49 129.873C103.946 125.042 104.914 118.07 104.707 110.374C104.707 109.777 104.667 109.187 104.627 108.603V108.502L104.534 108.462L101.822 107.315L101.862 107.596L104.567 105.416L104.627 105.369V105.302C104.652 102.656 104.234 100.025 103.392 97.5185C102.724 95.244 101.969 93.2847 101.314 91.6744C100.66 90.0641 100.085 88.8027 99.6779 87.9438C99.4776 87.5144 99.3173 87.1923 99.2037 86.9709C99.1509 86.8561 99.0883 86.7461 99.0167 86.6422C99.051 86.7621 99.0957 86.8789 99.1503 86.9911L99.5844 87.9908C99.9584 88.8564 100.499 90.1312 101.127 91.7482C101.755 93.3652 102.463 95.3312 103.131 97.5991C103.94 100.075 104.338 102.669 104.307 105.275L104.367 105.161L101.655 107.342L101.441 107.516L101.695 107.623L104.4 108.771L104.3 108.63C104.34 109.2 104.36 109.791 104.38 110.381C104.587 118.043 103.665 124.988 102.269 129.839C102.122 130.45 101.922 131.013 101.748 131.55C101.575 132.087 101.421 132.597 101.241 133.06C100.853 133.979 100.573 134.791 100.259 135.422C99.9451 136.052 99.7247 136.515 99.551 136.871C99.4602 137.025 99.382 137.187 99.3173 137.354Z" fill="#2D2F34"/>
<path d="M111.465 161.844C111.524 161.677 111.573 161.507 111.612 161.334C111.706 160.972 111.826 160.482 111.98 159.872C112.133 159.261 112.32 158.449 112.501 157.537C112.681 156.624 112.915 155.584 113.102 154.423C113.289 153.262 113.523 151.994 113.696 150.626C113.87 149.257 114.044 147.787 114.204 146.244C114.484 143.151 114.671 139.736 114.671 136.146C114.671 132.556 114.458 129.148 114.17 126.082C113.997 124.538 113.85 123.069 113.636 121.7C113.422 120.331 113.242 119.063 113.035 117.902C112.828 116.742 112.608 115.708 112.421 114.796C112.234 113.883 112.053 113.098 111.893 112.461C111.733 111.824 111.612 111.361 111.519 110.998C111.487 110.825 111.435 110.656 111.365 110.495C111.383 110.669 111.412 110.841 111.452 111.012C111.532 111.381 111.632 111.877 111.766 112.494C111.9 113.112 112.073 113.917 112.24 114.836C112.407 115.755 112.628 116.789 112.801 117.949C112.975 119.11 113.195 120.372 113.362 121.74C113.529 123.109 113.703 124.565 113.863 126.108C114.13 129.195 114.324 132.597 114.337 136.173C114.351 139.749 114.157 143.151 113.897 146.237C113.743 147.781 113.616 149.243 113.416 150.612C113.215 151.981 113.055 153.249 112.868 154.403C112.681 155.557 112.481 156.604 112.32 157.516C112.16 158.429 111.993 159.221 111.853 159.865C111.713 160.509 111.626 160.972 111.546 161.341C111.502 161.506 111.475 161.674 111.465 161.844Z" fill="#2D2F34"/>
<g opacity="0.3">
<path opacity="0.3" d="M98.6416 161.831C96.8116 160.871 94.5741 161.374 92.6305 162.119C90.6869 162.864 88.79 163.864 86.7262 163.844C83.921 163.844 79.9469 162.79 78.4842 160.395C76.8749 157.651 75.6797 154.682 74.9376 151.585C72.7068 141.272 72.1992 132.221 69.9684 121.901C68.7528 116.292 67.2099 109.824 65.1394 104.456C63.1357 99.2697 61.2655 93.9019 59.6893 88.5677C59.9698 100.645 60.2503 112.817 62.1071 124.8C63.3093 132.496 65.1528 140.078 66.1613 147.794C67.0229 154.403 67.2633 161.079 67.4971 167.742L73.7554 175.431L91.0075 175.78L100.018 164.105L98.6416 161.831Z" fill="black"/>
</g>
<path d="M36.1126 90.1647C32.8558 91.4325 29.9589 93.4844 27.6763 96.1401C25.3937 98.7958 23.7953 101.974 23.0216 105.396C17.9589 127.833 9.28943 157.671 9.15585 167.299C8.9822 179.558 14.3188 187.952 21.285 189.501C26.7953 190.723 76.7213 187.978 76.7213 187.978L79.0857 167.044L38.6172 163.307L44.1542 132.221L38.6707 89.165L36.1126 90.1647Z" fill="#FAFAFC"/>
<path d="M38.6841 89.165L49.8715 84.5756L62.6486 77.6378L62.7688 78.0135C61.3261 80.4961 59.7899 85.0788 60.3309 87.9036L70.1358 139.313L67.9117 176.887L64.699 202.82H32.4859L44.1676 175.196L38.4169 123.317L38.6841 89.165Z" fill="#FAFAFC"/>
<path d="M56.5178 81.2609C56.5178 81.2609 56.5178 81.3012 56.4711 81.3817C56.4243 81.4622 56.411 81.6098 56.3642 81.7574C56.2841 82.0929 56.1371 82.576 56.0102 83.2201C55.6114 85.0457 55.3258 86.8945 55.1553 88.7556C54.8956 91.5612 54.8242 94.3812 54.9416 97.1964C55.0484 100.404 55.3891 103.953 55.87 107.71V107.831H55.9835L59.6436 108.502L59.5167 108.274C59.3097 108.838 59.0893 109.448 58.9223 110.072C57.9129 114.187 58.0586 118.502 59.3431 122.539C60.3656 125.811 61.8094 128.935 63.6377 131.832C65.1605 134.314 66.5431 136.227 67.4916 137.555L68.6003 139.065L68.8942 139.454C68.961 139.534 69.001 139.581 69.0077 139.575C68.9818 139.526 68.9528 139.479 68.9209 139.434C68.8541 139.32 68.7606 139.192 68.6537 139.025L67.5984 137.475C66.6834 136.133 65.3342 134.2 63.8381 131.704C62.0513 128.812 60.6395 125.703 59.637 122.452C58.3881 118.467 58.2541 114.215 59.2496 110.16C59.4099 109.549 59.6236 108.952 59.824 108.402L59.8974 108.207L59.7038 108.173L56.0436 107.502L56.1772 107.643C55.6896 103.893 55.3423 100.357 55.2087 97.1561C55.0773 94.3536 55.1241 91.5455 55.349 88.7489C55.4992 86.8935 55.7512 85.0477 56.1037 83.2201C56.2173 82.5492 56.3442 82.0862 56.4043 81.744C56.4043 81.5964 56.4577 81.4689 56.4777 81.3616C56.4942 81.3293 56.5076 81.2956 56.5178 81.2609Z" fill="#2D2F34"/>
<path d="M56.5167 133.992V125.793C56.5167 125.793 56.4098 123.78 58.1063 124.196C59.8028 124.612 59.4822 127.813 59.4822 127.813C59.4822 127.813 59.8028 140.279 59.0614 140.172C58.3201 140.065 58.0328 139.105 58.0328 139.105V134.314L56.5167 133.992Z" fill="#2D2F34"/>
<path d="M33.3014 95.036C33.5984 95.1687 33.9041 95.2808 34.2164 95.3715C35.0467 95.6742 35.8585 96.026 36.6476 96.4249C39.2355 97.7671 41.48 99.6913 43.2064 102.048C43.697 102.71 44.1284 103.415 44.4955 104.154C44.8163 104.855 45.0755 105.582 45.2703 106.328C45.6073 107.599 45.8308 108.896 45.9382 110.207C46.0317 111.32 46.0517 112.22 46.0584 112.89C46.0342 113.217 46.0342 113.544 46.0584 113.87C46.1301 113.549 46.1659 113.22 46.1652 112.89C46.2113 111.996 46.2113 111.101 46.1652 110.207C46.0994 108.877 45.9025 107.558 45.5775 106.268C45.3872 105.501 45.1278 104.753 44.8027 104.034C44.421 103.274 43.9741 102.548 43.4669 101.866C41.7175 99.4601 39.4084 97.5205 36.7411 96.2169C35.9377 95.8285 35.1046 95.5054 34.2498 95.2507C33.9417 95.1471 33.6239 95.0752 33.3014 95.036Z" fill="#2D2F34"/>
<path d="M62.7886 77.4633L62.5815 77.5908L61.9136 77.9598L59.449 79.3622L49.9247 84.6561L33.8949 91.406C30.5746 92.7455 27.7522 95.0907 25.8199 98.1157C24.7573 99.7309 23.9002 101.473 23.2685 103.302C22.5735 105.217 22.0963 107.204 21.8458 109.227C18.8803 121.975 15.5141 136.609 12.248 152.169C11.5801 155.524 10.9122 158.825 10.2443 162.092C10.0773 162.911 9.94372 163.73 9.79678 164.542C9.64984 165.353 9.49622 166.159 9.39603 166.97C9.16746 168.57 9.08474 170.187 9.14891 171.801C9.26107 174.948 9.98249 178.043 11.2729 180.913C11.8979 182.299 12.7018 183.596 13.664 184.771C14.6136 185.905 15.7417 186.875 17.0035 187.643C19.4614 189.122 22.3053 189.823 25.1653 189.656L33.2871 189.488C38.5235 189.361 43.4059 189.206 47.8608 189.052L68.9667 188.28L74.704 188.059L76.2001 188.012H76.7077L76.2001 188.052L74.7107 188.139L68.9734 188.421C63.9908 188.656 56.7841 188.978 47.8742 189.307C43.4193 189.475 38.5235 189.642 33.2938 189.783L25.1653 189.971C22.2476 190.143 19.3457 189.43 16.8365 187.925C15.5434 187.138 14.3844 186.148 13.4035 184.993C12.4263 183.792 11.607 182.471 10.9656 181.061C9.65338 178.152 8.91833 175.013 8.80161 171.822C8.73409 170.187 8.81681 168.549 9.04873 166.93C9.14891 166.105 9.30922 165.3 9.44948 164.488C9.58974 163.676 9.72999 162.851 9.89696 162.039C10.5114 158.764 11.1793 155.45 11.9007 152.108C15.1668 136.555 18.5464 121.915 21.5386 109.167C21.7866 107.131 22.2616 105.13 22.9545 103.202C23.5952 101.351 24.4683 99.59 25.5527 97.9614C27.5207 94.8955 30.3929 92.5239 33.768 91.1779L49.8378 84.4682L59.4023 79.2548L61.927 77.9129L62.5949 77.5707L62.7886 77.4633Z" fill="#2D2F34"/>
<path d="M48.0281 30.9115C47.0799 29.2091 45.8044 27.713 44.2756 26.5102C42.7469 25.3073 40.9954 24.4217 39.1229 23.9048C37.2505 23.3879 35.2945 23.25 33.3685 23.4991C31.4425 23.7482 29.5851 24.3794 27.904 25.3559C25.0254 27.0334 22.6276 30.0527 22.8213 33.4075C23.0016 36.5611 25.3393 39.1041 27.5434 41.3518C24.0302 42.8212 22.2736 47.2899 23.4224 50.9265C24.5712 54.5632 28.1912 57.133 31.9716 57.4819C35.7519 57.8308 39.5657 56.1802 42.2975 53.5232C44.9705 50.7794 46.8379 47.3478 47.6941 43.6062" fill="#2D2F34"/>
<path d="M36.0315 39.0437C35.4212 39.3114 34.7714 39.4769 34.1079 39.5335C32.2832 39.7082 30.4486 39.3246 28.8448 38.4332C27.7307 37.8316 26.751 37.0073 25.9661 36.011C25.0675 34.8553 24.4644 33.4961 24.2095 32.0522C23.9189 30.4018 24.017 28.7058 24.496 27.1003C24.975 25.4947 25.8216 24.0242 26.968 22.8063C28.147 21.6271 29.5578 20.7079 31.1103 20.1071C32.6628 19.5064 34.3229 19.2374 35.9847 19.3173C38.7258 19.3723 41.347 20.4567 43.3317 22.3568C44.6448 23.6605 45.4179 25.4152 45.4957 27.2682C45.5118 27.7643 45.4647 28.2604 45.3554 28.7444C45.3221 28.9121 45.2686 29.0329 45.2486 29.1134C45.2285 29.1939 45.2018 29.2342 45.1952 29.2342C45.3286 28.5879 45.3847 27.9279 45.3621 27.2682C45.2312 25.471 44.4466 23.7849 43.158 22.5312C41.2053 20.7091 38.6496 19.6788 35.9847 19.6393C34.3701 19.5704 32.7588 19.8377 31.252 20.4242C29.7451 21.0108 28.3753 21.904 27.2284 23.0479C26.1229 24.2296 25.3061 25.6535 24.8424 27.2069C24.3788 28.7603 24.281 30.4007 24.5568 31.9986C24.7913 33.3929 25.3623 34.7084 26.2199 35.8298C27.148 37.012 28.3455 37.9528 29.7113 38.5729C31.0771 39.1929 32.5712 39.4741 34.0678 39.3926C34.7296 39.3221 35.3857 39.2055 36.0315 39.0437Z" fill="#2D2F34"/>
<path d="M40.3465 41.9692C40.207 42.0883 40.052 42.1876 39.8856 42.2644C39.4594 42.5076 39.0124 42.712 38.5498 42.875C37.8562 43.1225 37.1405 43.3023 36.4125 43.4118C35.5164 43.5359 34.61 43.5674 33.7075 43.5057C32.8014 43.4357 31.9056 43.2669 31.0359 43.0025C30.3316 42.7834 29.6496 42.4981 28.9987 42.1503C28.561 41.9171 28.1432 41.6478 27.7498 41.3452C27.4759 41.1237 27.3357 40.9963 27.349 40.9761C27.3624 40.956 28.0169 41.3921 29.1123 41.9289C29.7581 42.2388 30.4283 42.4946 31.116 42.6938C32.8127 43.1779 34.5893 43.3125 36.339 43.0897C37.0513 42.9975 37.755 42.8472 38.4429 42.6401C39.6318 42.2778 40.3131 41.9088 40.3465 41.9692Z" fill="#5F646F"/>
<path d="M22.8083 33.9981C22.8565 33.7177 22.9466 33.4462 23.0755 33.1929C23.3844 32.4692 23.8717 31.8365 24.4914 31.3544C25.4617 30.7093 26.583 30.3299 27.7441 30.254C29.1428 30.1374 30.5507 30.205 31.9319 30.4553C34.4403 30.8612 36.8603 31.6987 39.0852 32.9312C39.7558 33.3043 40.4027 33.7189 41.0221 34.1725C41.2665 34.3223 41.4909 34.5027 41.6901 34.7093C41.4316 34.595 41.1873 34.4509 40.962 34.2799C40.5012 33.9981 39.8333 33.6089 38.9583 33.1526C36.7313 31.9992 34.3377 31.2045 31.8651 30.7975C30.5146 30.555 29.1395 30.4807 27.7709 30.5761C26.659 30.6317 25.5792 30.9687 24.6317 31.5557C24.023 31.9961 23.5301 32.5787 23.1957 33.2533C23.0791 33.5079 22.9498 33.7565 22.8083 33.9981Z" fill="#5F646F"/>
<path d="M43.2058 47.4576C43.2058 47.4576 43.2058 47.5381 43.1123 47.6857C43.0188 47.8333 42.9119 48.0279 42.7516 48.2896C42.2694 49.0111 41.7045 49.6732 41.0685 50.2622C40.1195 51.136 39.0313 51.8437 37.8492 52.3557C36.3915 52.9824 34.8194 53.2956 33.2339 53.2749C31.65 53.2699 30.0854 52.9245 28.6454 52.2617C27.4708 51.7105 26.4362 50.8983 25.6198 49.8865C25.0714 49.2014 24.6895 48.3973 24.5044 47.5381C24.4536 47.3065 24.4245 47.0706 24.4175 46.8336C24.4175 46.6726 24.4175 46.592 24.4175 46.592C24.4175 46.592 24.4576 46.9275 24.6179 47.5046C24.8514 48.3225 25.2542 49.0816 25.8001 49.7322C26.6146 50.687 27.6266 51.4518 28.7656 51.9732C30.1706 52.5993 31.6902 52.9238 33.2272 52.926C34.7638 52.9429 36.2881 52.6485 37.7089 52.0604C38.8703 51.5672 39.9441 50.8873 40.8881 50.0475C41.7508 49.2701 42.5278 48.4018 43.2058 47.4576Z" fill="#5F646F"/>
<path d="M44.4822 50.9467C44.2658 51.2667 44.0198 51.5655 43.7475 51.8391C43.2533 52.3892 42.5186 53.181 41.5435 54.0734C41.0559 54.5229 40.5015 54.9993 39.887 55.4824C37.7488 57.2921 34.9865 58.1818 32.1994 57.9583C30.2576 57.9026 28.3792 57.2517 26.8161 56.093C25.5899 55.0981 24.6207 53.8206 23.9908 52.3691C23.5583 51.4014 23.307 50.362 23.2495 49.3028C23.2303 49.0146 23.2303 48.7254 23.2495 48.4372C23.2541 48.3374 23.2697 48.2384 23.2962 48.142C23.3108 48.2421 23.3108 48.3439 23.2962 48.444C23.2927 48.7265 23.3083 49.009 23.343 49.2894C23.4444 50.3225 23.7223 51.3303 24.1645 52.2685C24.809 53.6623 25.7697 54.8848 26.9697 55.838C28.4884 56.9385 30.301 57.5556 32.1727 57.6094C34.0421 57.7206 35.9098 57.3656 37.6095 56.5761C38.3402 56.2027 39.0298 55.7529 39.6666 55.2341C40.2811 54.7645 40.8355 54.3015 41.3297 53.8922C42.3182 53.0267 43.0796 52.2752 43.6073 51.7518C43.8829 51.4664 44.1751 51.1975 44.4822 50.9467Z" fill="#5F646F"/>
<path d="M50.0992 30.509L51.0743 31.2806C50.6802 29.6166 48.8234 28.5967 47.127 28.7444C46.2823 28.8786 45.4785 29.2015 44.7745 29.6892C44.0706 30.1769 43.4845 30.817 43.0594 31.5624C42.2205 33.0617 41.6657 34.7043 41.423 36.4068C40.9021 39.2249 40.6416 42.2308 41.757 44.861C42.8724 47.4912 45.7644 49.5578 48.5162 48.8868C51.268 48.2158 52.8109 45.1898 53.225 42.3717C53.517 40.2849 53.3909 38.1605 52.8541 36.1234C52.3173 34.0862 51.3806 32.1774 50.0992 30.509Z" fill="#F28080"/>
<path d="M46.2725 43.2708C45.4696 43.7535 44.5304 43.9563 43.6009 43.8478C42.9513 43.8178 42.3117 43.6747 41.7107 43.4251C41.2232 43.2305 41.0428 42.8615 41.1363 42.8548C41.339 43.0045 41.5646 43.1201 41.8042 43.197C42.399 43.3653 43.0106 43.4665 43.6276 43.4989C44.5135 43.4848 45.3973 43.4086 46.2725 43.2708Z" fill="#2D2F34"/>
<path d="M47.6273 38.2923C46.5648 38.438 45.4894 38.4628 44.4214 38.3661C43.3503 38.3933 42.2796 38.3011 41.2288 38.091C42.2919 37.9533 43.3664 37.9286 44.4347 38.0172C45.5055 37.998 46.5754 38.0901 47.6273 38.2923Z" fill="#2D2F34"/>
<path d="M46.5583 32.9714C46.5583 33.0855 45.5698 32.9714 44.4076 32.8372C43.9162 32.7956 43.4213 32.8249 42.9382 32.9244C42.5708 33.005 42.3504 33.0989 42.3237 33.0519C42.297 33.005 42.484 32.8372 42.8647 32.6829C43.3662 32.5079 43.8988 32.4416 44.4276 32.4883C45.162 32.5111 45.8853 32.6751 46.5583 32.9714Z" fill="#2D2F34"/>
<path d="M53.345 19.5118C53.2649 16.7072 55.8563 14.5332 58.4612 13.4731C61.066 12.413 63.9581 12.0573 66.2824 10.4873C68.3395 9.09837 69.7221 6.93115 71.4587 5.15309C73.6064 2.96627 76.2946 1.39297 79.2475 0.594691C82.2005 -0.203591 85.3116 -0.1981 88.2617 0.610596C91.2118 1.41929 93.8946 3.00206 96.0346 5.19644C98.1746 7.39082 99.6948 10.1178 100.439 13.0973C101.441 17.1232 100.76 21.8199 97.6206 24.5038C93.9738 27.5903 88.5638 26.9059 83.8951 25.9464C79.2264 24.9869 73.9366 24.0341 70.036 26.7918C67.685 28.4558 66.3358 31.1598 64.8931 33.6625C63.4505 36.1652 61.6538 38.7149 58.9354 39.6542C56.217 40.5936 52.5235 38.9833 52.4166 36.0847" fill="#2D2F34"/>
<path d="M53.5329 21.0552C53.8401 23.417 52.1436 25.5238 50.4538 27.1878C48.764 28.8518 46.8605 30.6165 46.5599 32.9716C46.2126 35.7292 48.2097 38.4399 47.6286 41.1506C47.2612 42.875 45.9321 44.2036 45.1239 45.7669C44.0431 48.0203 43.8638 50.6043 44.623 52.9865C45.2909 55.3617 46.4263 60.6624 48.0694 62.5076C52.6112 67.6069 59.8379 72.0085 66.4769 73.5383C73.1159 75.0681 80.0087 75.0815 86.808 74.6588C92.3717 74.3166 98.7703 74.5716 103.412 66.8823C105.81 62.8967 107.006 57.6028 108.281 53.1274C109.377 49.2694 110.332 45.1429 109.183 41.2983C108.515 39.0572 107.179 37.0712 106.511 34.8301C105.69 32.0322 105.99 29.033 105.656 26.1075C105.298 22.9541 104.196 19.9322 102.441 17.2929C100.686 14.6536 98.3292 12.4733 95.5667 10.9331C92.8042 9.39293 89.7156 8.53745 86.5577 8.43776C83.3999 8.33807 80.2639 8.99705 77.4106 10.3599" fill="#2D2F34"/>
<path d="M62.9957 85.0722C62.9957 85.0722 62.9957 85.2399 63.0291 85.3204L62.9957 85.0722Z" fill="#B78876"/>
<path d="M103.01 30.7237C102.489 22.7057 97.1725 12.8693 89.2177 13.7348L64.3783 20.1023C63.2131 20.2281 62.1374 20.789 61.3643 21.6737C60.5912 22.5585 60.177 23.7026 60.2038 24.8796L62.9289 83.7302C62.9672 84.7301 63.1938 85.7137 63.5968 86.6288C65.4402 90.7083 71.5716 101.088 84.8763 96.8879C88.1357 95.8613 89.6252 92.2783 90.2663 88.6014C90.2663 88.1653 90.4467 87.7761 90.4534 87.3601C90.7738 84.6157 90.8074 81.8452 90.5535 79.0938C90.6003 74.236 90.5936 72.2432 90.5936 72.2902C90.5936 72.3371 100.793 70.5658 102.883 57.1867C103.945 50.5374 103.584 39.6342 103.01 30.7237Z" fill="#B78876"/>
<path d="M99.0094 39.4463C99.0149 39.8933 98.8461 40.3246 98.539 40.6482C98.2319 40.9717 97.811 41.1616 97.3663 41.1774C97.149 41.1957 96.9303 41.1699 96.723 41.1017C96.5158 41.0335 96.3243 40.9242 96.1599 40.7803C95.9954 40.6364 95.8614 40.4608 95.7658 40.2639C95.6702 40.0671 95.6148 39.8529 95.6031 39.6341C95.5975 39.1883 95.7654 38.7579 96.0711 38.4345C96.3767 38.1112 96.7959 37.9205 97.2394 37.9031C97.4571 37.8848 97.6762 37.9105 97.8838 37.9786C98.0914 38.0467 98.2834 38.1559 98.4483 38.2997C98.6133 38.4436 98.7479 38.6191 98.8443 38.816C98.9406 39.0129 98.9968 39.2272 99.0094 39.4463Z" fill="#2D2F34"/>
<path d="M100.665 36.4C100.451 36.6215 99.1555 35.662 97.3254 35.6687C95.4954 35.6754 94.1462 36.608 93.9458 36.3799C93.8456 36.2792 94.0661 35.8767 94.6471 35.4472C95.441 34.8932 96.3855 34.598 97.3522 34.6018C98.3112 34.594 99.2475 34.895 100.024 35.4607C100.578 35.8901 100.772 36.2994 100.665 36.4Z" fill="#2D2F34"/>
<path d="M80.8227 39.4463C80.8299 39.8926 80.6626 40.324 80.3566 40.6477C80.0506 40.9714 79.6304 41.1616 79.1863 41.1774C78.969 41.1957 78.7502 41.1699 78.543 41.1017C78.3357 41.0335 78.1442 40.9242 77.9798 40.7803C77.8154 40.6364 77.6814 40.4608 77.5858 40.2639C77.4901 40.0671 77.4348 39.8529 77.423 39.6341C77.4157 39.1878 77.5831 38.7564 77.8891 38.4327C78.1951 38.109 78.6153 37.9188 79.0594 37.903C79.2767 37.8848 79.4955 37.9105 79.7027 37.9787C79.9099 38.0469 80.1014 38.1562 80.2659 38.3001C80.4303 38.444 80.5643 38.6196 80.6599 38.8165C80.7556 39.0134 80.8109 39.2275 80.8227 39.4463Z" fill="#2D2F34"/>
<path d="M82.6051 36.7624C82.3914 36.9838 81.0956 36.0244 79.2656 36.0378C77.4355 36.0512 76.0863 36.9704 75.8859 36.749C75.7857 36.6484 75.9995 36.2391 76.5538 35.8097C77.3498 35.2547 78.2967 34.9595 79.2656 34.9642C80.2242 34.9592 81.1596 35.2599 81.9372 35.8231C82.5183 36.2793 82.712 36.6819 82.6051 36.7624Z" fill="#2D2F34"/>
<path d="M89.3044 50.4569C89.3044 50.3495 90.4399 50.1482 92.29 49.9067C92.7575 49.8597 93.1983 49.7658 93.2784 49.4437C93.3161 48.9574 93.2067 48.4709 92.9645 48.0481C92.517 46.9075 92.0562 45.7131 91.5686 44.4584C89.6317 39.3524 88.2291 35.1588 88.4295 35.0649C88.6298 34.9709 90.3731 39.0907 92.31 44.1699C92.7775 45.4313 93.2228 46.6346 93.6458 47.7797C93.9447 48.3454 94.0324 48.9999 93.8929 49.6249C93.8244 49.7882 93.7195 49.9336 93.5864 50.0499C93.4533 50.1662 93.2954 50.2503 93.1248 50.2958C92.866 50.3686 92.5988 50.407 92.33 50.4099C90.4666 50.5508 89.3111 50.5575 89.3044 50.4569Z" fill="#2D2F34"/>
<path d="M90.6209 72.3236C84.3583 72.4186 78.1922 70.7672 72.8078 67.553C72.8078 67.553 77.3095 76.8057 90.6342 75.5241L90.6209 72.3236Z" fill="#AA6550"/>
<path d="M88.5353 54.8784C88.1827 54.4391 87.7255 54.0963 87.2059 53.8817C86.6864 53.6671 86.1214 53.5876 85.5631 53.6505C85.1584 53.6888 84.7654 53.8084 84.4075 54.002C84.0495 54.1956 83.7339 54.4594 83.4793 54.7778C83.2352 55.0864 83.091 55.4627 83.0659 55.8561C83.0409 56.2495 83.1361 56.6411 83.339 56.9785C83.6357 57.3085 84.0232 57.5426 84.4524 57.6513C84.8816 57.76 85.3332 57.7383 85.7502 57.5891C86.6162 57.2756 87.4126 56.7946 88.0945 56.1734C88.3026 56.0263 88.4796 55.8393 88.6155 55.6232C88.6815 55.5239 88.7168 55.4071 88.7168 55.2877C88.7168 55.1683 88.6815 55.0515 88.6155 54.9522" fill="#AA6550"/>
<path d="M83.9018 51.7451C84.2023 51.7451 84.209 53.758 85.9055 55.1469C87.602 56.5358 89.7393 56.3413 89.7527 56.6231C89.7527 56.7439 89.2785 57.0122 88.3835 57.0391C87.2144 57.0591 86.076 56.6621 85.1708 55.9186C84.3003 55.2086 83.7396 54.1856 83.6079 53.0669C83.5411 52.2282 83.7615 51.7317 83.9018 51.7451Z" fill="#2D2F34"/>
<path d="M83.427 33.5484C83.2466 34.0517 81.4232 33.8168 79.2592 34.0852C77.0952 34.3536 75.3586 34.944 75.0714 34.4945C74.9445 34.2798 75.2451 33.8235 75.9464 33.3203C76.8829 32.7218 77.9428 32.3455 79.0457 32.2199C80.1486 32.0943 81.2655 32.2228 82.3116 32.5957C83.1064 32.9177 83.4937 33.3069 83.427 33.5484Z" fill="#2D2F34"/>
<path d="M99.9776 31.0591C99.657 31.4751 98.388 31.0591 96.8652 31.0591C95.3423 31.0591 94.06 31.3476 93.7594 30.9115C93.6258 30.6968 93.8329 30.2808 94.3939 29.8782C95.1495 29.4013 96.029 29.1607 96.9209 29.187C97.8128 29.2133 98.6768 29.5052 99.4032 30.0258C99.9442 30.4217 100.118 30.8511 99.9776 31.0591Z" fill="#2D2F34"/>
<path d="M55.0876 64.091C56.9241 64.4578 58.8212 64.3809 60.6223 63.8666C62.4234 63.3523 64.0771 62.4153 65.4469 61.1329C66.8168 59.8504 67.8636 58.2593 68.5012 56.4906C69.1387 54.7219 69.3486 52.8264 69.1137 50.9602C68.6996 47.6791 66.9363 44.331 68.0717 41.2244C69.5678 37.1181 75.3052 35.8567 76.828 31.7504C77.7163 29.3617 76.9215 26.5772 77.9234 24.2422C78.8651 22.0415 81.1627 20.78 83.4069 19.9615C85.6511 19.1429 88.0488 18.6195 89.9257 17.1233C91.8025 15.627 92.978 12.8827 91.7691 10.8229C81.8249 12.02 72.058 14.4031 62.675 17.9217C60.5043 18.7403 58.2201 19.7199 56.9377 21.659C55.6019 23.7122 55.642 26.3558 55.7555 28.8249C56.3121 40.8353 56.8687 52.8456 57.4253 64.8559" fill="#2D2F34"/>
<path d="M55.9231 68.6937C55.8435 68.6572 55.7693 68.6098 55.7027 68.5528L55.1149 68.1033C54.6006 67.694 53.8392 67.0968 52.9108 66.2648C51.7619 65.2673 50.7127 64.1594 49.7783 62.9569C48.5035 61.3582 47.647 59.4645 47.287 57.4483C47.0307 56.2219 47.0519 54.9533 47.349 53.7362C47.6461 52.5192 48.2115 51.3847 49.0035 50.4166C49.9677 49.4421 51.0061 48.5447 52.1093 47.7327C53.2156 46.8843 54.0551 45.7335 54.5271 44.4181C55.509 41.6873 55.0748 38.5337 55.4555 35.3064C55.8305 31.9393 57.1379 28.7453 59.2292 26.0873C60.3074 24.7441 61.6516 23.6405 63.1765 22.8465C64.6782 22.1642 66.2446 21.636 67.8519 21.2697C69.3411 20.8977 70.7346 20.2116 71.9395 19.2568C73.0766 18.3041 74.0768 17.1976 74.9117 15.9691C76.5814 13.5871 77.8171 11.0442 79.4134 8.92391C80.1652 7.88203 81.0474 6.94166 82.0382 6.12597C82.9646 5.37724 84.0163 4.80016 85.144 4.42171C86.1088 4.05428 87.1451 3.91637 88.1719 4.01882C89.1986 4.12126 90.1877 4.46126 91.0616 5.01216C91.6777 5.49326 92.1838 6.10165 92.5456 6.79619C92.9074 7.49073 93.1166 8.25522 93.1589 9.03797C93.2384 10.0249 92.9531 11.0067 92.3574 11.7956C92.2028 11.9932 92.0206 12.1672 91.8164 12.3123C91.6828 12.4196 91.6093 12.4666 91.6027 12.4532C91.596 12.4398 91.6561 12.3861 91.7763 12.272C91.9602 12.1089 92.1239 11.9242 92.2639 11.7218C92.8006 10.937 93.0377 9.98417 92.9318 9.03797C92.865 8.30133 92.6442 7.58713 92.284 6.94199C91.9238 6.29686 91.4322 5.7353 90.8412 5.29397C90.0084 4.78814 89.0701 4.4831 88.1002 4.40277C87.1302 4.32245 86.1549 4.46902 85.2509 4.831C84.1757 5.20527 83.1742 5.76621 82.292 6.48829C81.3435 7.30104 80.4999 8.2297 79.7807 9.25268C78.2378 11.3394 77.0222 13.8756 75.3324 16.3247C74.4738 17.5969 73.4444 18.7439 72.2734 19.7332C71.0152 20.7422 69.5583 21.4717 67.9988 21.8736C66.433 22.2372 64.9071 22.7564 63.4437 23.4235C61.9893 24.1828 60.7068 25.2359 59.6767 26.5167C57.6613 29.0873 56.3964 32.1698 56.0232 35.4204C55.6358 38.5404 56.0834 41.7476 55.0347 44.6462C54.5189 46.0443 53.6178 47.266 52.4366 48.1688C51.3498 48.9517 50.3228 49.8152 49.3642 50.752C48.6131 51.6656 48.0736 52.7356 47.7848 53.8844C47.496 55.0333 47.4651 56.2323 47.6944 57.3946C48.0297 59.3488 48.8344 61.1913 50.0388 62.7624C50.9437 63.9687 51.954 65.0914 53.0577 66.1172C53.9661 66.9626 54.7008 67.5933 55.1883 68.0295C55.4506 68.2307 55.6963 68.4528 55.9231 68.6937Z" fill="#5F646F"/>
<path d="M109.957 47.7796C110.313 47.4207 110.579 46.9813 110.731 46.4981C110.884 45.8266 110.895 45.1306 110.764 44.4546C110.633 43.7786 110.362 43.1377 109.97 42.5729C109.509 41.8281 108.888 41.0901 108.26 40.2514C107.544 39.3738 107.02 38.354 106.724 37.2588C106.457 36.0405 106.407 34.7842 106.577 33.5484C106.717 32.2668 106.971 30.9652 107.138 29.6366C107.466 27.129 107.167 24.5788 106.27 22.2157C105.541 20.2856 104.46 18.5087 103.084 16.9755C102.158 15.9401 101.095 15.0371 99.9247 14.2916C99.0965 13.7616 98.5889 13.52 98.5889 13.4932C98.7174 13.5255 98.841 13.5752 98.9563 13.6408C99.303 13.7989 99.6398 13.9782 99.9648 14.1775C101.179 14.8899 102.282 15.7785 103.238 16.8145C104.666 18.3505 105.789 20.1476 106.544 22.1084C107.478 24.5161 107.792 27.1214 107.459 29.6836C107.292 31.0255 107.031 32.3339 106.891 33.5886C106.718 34.7873 106.759 36.0074 107.011 37.1917C107.289 38.2465 107.782 39.2315 108.461 40.0836C109.075 40.9223 109.696 41.6805 110.157 42.4521C110.556 43.0469 110.822 43.7211 110.937 44.4286C111.052 45.1362 111.014 45.8604 110.825 46.5517C110.702 46.9206 110.499 47.2575 110.231 47.5381C110.15 47.6305 110.058 47.7117 109.957 47.7796Z" fill="#2D2F34"/>
</g>
</svg>
