<svg width="184" height="223" viewBox="0 0 184 223" fill="none" xmlns="http://www.w3.org/2000/svg">
<g clip-path="url(#clip0)">
<path d="M92 222.5C142.534 222.5 183.5 181.534 183.5 131C183.5 80.4659 142.534 39.5 92 39.5C41.4659 39.5 0.5 80.4659 0.5 131C0.5 181.534 41.4659 222.5 92 222.5Z" fill="#E6EAF7"/>
<mask id="mask0" style="mask-type:alpha" maskUnits="userSpaceOnUse" x="0" y="-22" width="184" height="245">
<path fill-rule="evenodd" clip-rule="evenodd" d="M178 -22H4V105.849C1.72049 113.84 0.5 122.278 0.5 131C0.5 181.534 41.4659 222.5 92 222.5C142.534 222.5 183.5 181.534 183.5 131C183.5 119.999 181.559 109.452 178 99.6822V-22Z" fill="white"/>
</mask>
<g mask="url(#mask0)">
<path d="M86.2091 23.8057C87.8129 18.9943 83.1779 13.9984 79.2566 13.1404C75.3353 12.2824 71.7749 13.5333 68.7597 16.1876C66.4583 18.2084 64.4615 21.2476 61.3983 21.2797C59.7063 21.2797 58.1907 20.3495 56.5869 19.6759C54.9831 19.0023 53.0184 18.7617 51.7755 19.9325C51.3894 20.3606 51.1144 20.877 50.9745 21.4363C50.8347 21.9956 50.8344 22.5806 50.9736 23.1401C51.2452 24.2583 51.7121 25.3197 52.3529 26.2755C51.638 26.7549 51.1054 27.461 50.8406 28.2799C50.5759 29.0989 50.5945 29.9831 50.8934 30.7902C51.2214 31.587 51.7106 32.3075 52.3302 32.9064C52.9498 33.5053 53.6864 33.9697 54.4939 34.2705C56.1085 34.8623 57.7984 35.2241 59.5138 35.345C58.8482 37.5743 58.3591 40.0842 59.4497 42.1291C60.9653 44.9678 65.063 45.5773 67.9177 44.1338C70.7725 42.6904 72.6329 39.8036 73.9641 36.9167C75.2952 34.0299 76.2896 30.8784 78.142 28.2482C79.9944 25.618 83.0015 23.509 86.161 23.8137" fill="#2D2F34"/>
<path d="M61.7993 44.8958C61.7993 44.8958 61.8955 44.9519 62.088 45.0321C62.3717 45.1361 62.6642 45.214 62.9621 45.2647C64.0698 45.4461 65.2059 45.3242 66.2499 44.9118C67.0363 44.6186 67.7536 44.1659 68.3566 43.5822C68.9597 42.9984 69.4355 42.2963 69.7542 41.5198C70.4584 39.6166 70.7561 37.587 70.6282 35.5617C70.4985 33.5881 70.6853 31.6064 71.1815 29.6918C71.3819 28.9234 71.7398 28.2051 72.2326 27.5824C72.7255 26.9598 73.3425 26.4466 74.0443 26.0752C75.0145 25.5978 76.1302 25.5089 77.1637 25.8266C77.5357 25.9652 77.8908 26.1454 78.2222 26.3639C78.2222 26.3639 78.1581 26.2757 78.0057 26.1394C77.7659 25.9432 77.4948 25.7886 77.2038 25.6823C76.6728 25.4855 76.108 25.3963 75.5422 25.4197C74.9764 25.4431 74.4209 25.5787 73.908 25.8186C73.1583 26.1949 72.4956 26.724 71.9626 27.3717C71.4295 28.0194 71.0378 28.7714 70.8127 29.5795C70.2837 31.5295 70.0805 33.5535 70.2112 35.5697C70.3393 37.5366 70.0665 39.5091 69.4093 41.3674C69.0862 42.1539 68.606 42.8661 67.998 43.4604C67.4522 43.9619 66.8225 44.3636 66.1376 44.6472C65.1251 45.0715 64.0207 45.2289 62.93 45.1043C62.2163 45.0161 61.8474 44.8557 61.7993 44.8958Z" fill="#5F646F"/>
<path d="M119.464 36.2593C123.064 39.4027 123.842 44.9599 122.607 47.9831C121.982 49.5067 121.004 50.9902 121.092 52.6341C121.156 54.0534 121.982 55.3124 122.543 56.6436C123.478 58.8426 123.687 61.2826 123.14 63.6087C122.592 65.9347 121.317 68.0253 119.499 69.5765C117.682 71.1276 115.416 72.0583 113.033 72.2331C110.65 72.4079 108.273 71.8178 106.249 70.5485" fill="#2D2F34"/>
<path d="M118.67 57.3733C131.605 37.5343 110.178 23.3166 97.0188 24.9605C84.6936 26.5002 78.7515 31.6163 75.6081 39.2263C72.4646 46.8364 71.2458 55.4167 73.2024 63.4197C74.1647 67.373 76.3458 71.559 80.2591 72.6335" fill="#2D2F34"/>
<path d="M109.857 33.5168L87.7165 35.6659C86.7014 35.619 85.7056 35.9546 84.9261 36.6065C84.1466 37.2583 83.64 38.1789 83.5065 39.1863L78.1338 89.0966C77.8028 92.1964 78.6738 95.3051 80.5671 97.7818C82.4604 100.258 85.2318 101.914 88.3099 102.408C89.9143 102.668 91.5545 102.604 93.1338 102.22C94.713 101.835 96.1993 101.139 97.505 100.171C98.8107 99.203 99.9094 97.9835 100.736 96.5842C101.563 95.1849 102.101 93.6341 102.319 92.0235C102.985 87.1399 103.378 83.6677 103.37 83.6998C103.362 83.7318 112.351 83.5795 115.895 72.4331C117.667 66.8919 118.798 57.5338 119.472 49.8515C120.057 42.9311 116.793 33.8536 109.857 33.5168Z" fill="#FFBE9D"/>
<path d="M105.094 64.879C105.965 64.7507 106.847 64.7265 107.724 64.8069C108.125 64.8069 108.526 64.8069 108.63 64.5423C108.732 64.1316 108.701 63.6993 108.542 63.3073C108.317 62.2809 108.077 61.2117 107.82 60.0997C106.834 55.4888 106.216 51.7199 106.369 51.6798C106.521 51.6397 107.507 55.3525 108.494 59.9634C108.726 61.1021 108.951 62.1847 109.167 63.2271C109.356 63.7452 109.356 64.3129 109.167 64.8309C109.089 64.9663 108.981 65.0813 108.849 65.1663C108.718 65.2514 108.569 65.3041 108.414 65.3201C108.182 65.3486 107.948 65.3486 107.716 65.3201C106.826 65.2946 105.943 65.1462 105.094 64.879Z" fill="#2D2F34"/>
<path d="M103.338 83.6996C97.9469 82.9602 92.8669 80.7394 88.6631 77.2844C88.6631 77.2844 91.4457 85.552 103.033 86.2256L103.338 83.6996Z" fill="#EB996E"/>
<path d="M103.843 68.5759C103.6 68.1495 103.251 67.7933 102.829 67.5418C102.408 67.2903 101.928 67.152 101.438 67.1405C101.085 67.1188 100.732 67.168 100.398 67.285C100.065 67.4021 99.7586 67.5847 99.497 67.8221C99.2471 68.0534 99.0739 68.3556 99.0008 68.6882C98.9277 69.0208 98.9581 69.3677 99.088 69.6825C99.3033 69.9976 99.6071 70.2419 99.961 70.3846C100.315 70.5273 100.703 70.562 101.077 70.4844C101.861 70.3319 102.607 70.0268 103.274 69.5863C103.472 69.4876 103.649 69.3515 103.795 69.1853C103.867 69.1077 103.913 69.0104 103.929 68.9061C103.945 68.8018 103.929 68.6952 103.883 68.5999" fill="#EB996E"/>
<path d="M100.283 65.264C100.547 65.264 100.283 67.0041 101.566 68.4716C102.849 69.9391 104.693 69.9952 104.669 70.2358C104.669 70.348 104.22 70.5084 103.442 70.4122C102.438 70.2734 101.515 69.785 100.836 69.0329C100.187 68.3107 99.8417 67.3653 99.8736 66.3947C99.9137 65.6329 100.17 65.2399 100.283 65.264Z" fill="#2D2F34"/>
<path d="M102.279 49.6752C102.055 50.0761 100.515 49.6752 98.6307 49.579C96.7463 49.4827 95.1745 49.7955 94.9901 49.3705C94.9099 49.17 95.2307 48.8091 95.8963 48.4804C96.7787 48.0974 97.7364 47.9194 98.6975 47.9597C99.6586 48 100.598 48.2575 101.445 48.7129C102.087 49.0898 102.376 49.4747 102.279 49.6752Z" fill="#2D2F34"/>
<path d="M117.908 49.8916C117.58 50.2044 116.545 49.6671 115.246 49.4506C113.947 49.2341 112.792 49.3223 112.6 48.9133C112.512 48.7128 112.744 48.3841 113.281 48.1114C113.993 47.8041 114.779 47.7163 115.541 47.8592C116.303 48.0021 117.004 48.3691 117.556 48.9133C117.981 49.3463 118.053 49.7393 117.908 49.8916Z" fill="#2D2F34"/>
<path d="M83.1863 54.4545C83.0339 54.3503 77.4848 50.8139 76.3781 57.6621C75.2715 64.5103 82.3523 64.1976 82.3924 64.0052C82.4325 63.8127 83.1863 54.4545 83.1863 54.4545Z" fill="#FFBE9D"/>
<path d="M80.7245 61.054C80.7245 61.054 80.5962 61.1182 80.3797 61.1743C80.0784 61.2474 79.7606 61.2044 79.4896 61.054C78.8079 60.6691 78.391 59.4502 78.5594 58.1913C78.6335 57.6013 78.842 57.0361 79.1688 56.5393C79.2633 56.3303 79.4078 56.1477 79.5896 56.0079C79.7715 55.868 79.985 55.7751 80.2113 55.7374C80.3536 55.7257 80.4957 55.7631 80.6139 55.8434C80.732 55.9236 80.8192 56.0418 80.8608 56.1785C80.9169 56.387 80.8608 56.5153 80.8608 56.5313C80.8608 56.5474 81.0292 56.4431 81.0212 56.1544C81.0081 55.979 80.9376 55.8128 80.8207 55.6813C80.6536 55.5097 80.4266 55.4091 80.1872 55.4006C79.8984 55.4119 79.6173 55.4966 79.3703 55.6467C79.1234 55.7969 78.9188 56.0075 78.7759 56.2587C78.3887 56.8026 78.1409 57.4331 78.0542 58.095C77.8697 59.4743 78.3669 60.8776 79.3051 61.3026C79.48 61.3877 79.672 61.4319 79.8665 61.4319C80.0609 61.4319 80.2529 61.3877 80.4278 61.3026C80.6924 61.2144 80.7485 61.0701 80.7245 61.054Z" fill="#EB996E"/>
<path d="M112.656 30.4214C116.161 32.9634 116.546 40.9904 114.364 44.7273C112.183 48.4641 107.813 50.5651 103.491 50.8458C99.1683 51.1264 94.8862 49.8194 90.9328 48.0391C90.2272 50.7736 88.1262 53.3638 85.3195 53.6925C81.6067 54.1175 78.5114 50.3085 78.2708 46.5797C78.0303 42.8508 79.7784 39.3145 81.4784 35.9946" fill="#2D2F34"/>
<path d="M78.6875 50.6453C78.813 50.8554 78.9638 51.0494 79.1366 51.2227C79.5781 51.7236 80.0466 52.2001 80.5399 52.6501C81.2674 53.3388 82.098 53.9097 83.0017 54.3421C84.1264 54.8981 85.4016 55.0726 86.6343 54.8393C87.8616 54.5547 88.9575 53.8655 89.7457 52.8826C90.3839 52.1051 90.861 51.2082 91.149 50.2444C91.3511 49.6049 91.4881 48.9467 91.558 48.2797C91.5999 48.0356 91.5999 47.7861 91.558 47.542C91.4858 47.542 91.4056 48.5845 90.8603 50.1482C90.5455 51.0601 90.0642 51.9057 89.441 52.6421C88.6889 53.5396 87.6685 54.1721 86.5301 54.4463C85.3759 54.6592 84.184 54.505 83.122 54.0053C82.2503 53.6002 81.4404 53.0737 80.7163 52.4416C79.4894 51.351 78.7597 50.5892 78.6875 50.6453Z" fill="#2D2F34"/>
<path d="M63.2588 77.6775C63.2588 77.6775 63.2989 77.8058 63.4192 78.0223C63.6153 78.3391 63.8437 78.6347 64.1008 78.9044C64.6967 79.5278 65.4297 80.0038 66.2416 80.2944C67.0535 80.5851 67.922 80.6826 68.7782 80.5791C69.6344 80.4756 70.4546 80.1739 71.1738 79.6981C71.8931 79.2223 72.4915 78.5854 72.9217 77.8379C73.2592 77.316 73.4724 76.7236 73.5447 76.1062C73.617 75.4889 73.5465 74.8632 73.3387 74.2775C73.0651 73.651 72.5549 73.1581 71.9193 72.9062C71.5934 72.7616 71.236 72.7026 70.881 72.7349C70.5259 72.7672 70.185 72.8896 69.8905 73.0906C69.6137 73.311 69.391 73.5917 69.2395 73.9114C69.088 74.2311 69.0117 74.5813 69.0164 74.935C69.0239 75.6149 69.2807 76.2683 69.7381 76.7714C70.1637 77.2171 70.6734 77.5742 71.2377 77.8219C71.802 78.0697 72.4098 78.2032 73.0259 78.2148C74.059 78.2724 75.0875 78.0392 75.9947 77.5417C76.9019 77.0441 77.6514 76.3022 78.1581 75.4001C78.8103 74.1696 78.9818 72.7405 78.6392 71.3906C78.5454 71.0317 78.4109 70.6846 78.2383 70.3562C78.181 70.2418 78.111 70.1342 78.0298 70.0354C78.216 70.486 78.3687 70.9497 78.4869 71.4227C78.7615 72.7283 78.5565 74.089 77.9095 75.2558C77.4169 76.0948 76.701 76.7804 75.8415 77.2363C74.9821 77.6923 74.0129 77.9005 73.042 77.8379C72.4771 77.8245 71.9205 77.6993 71.4043 77.4694C70.8881 77.2396 70.4227 76.9096 70.0349 76.4987C69.6289 76.0643 69.4076 75.4893 69.4174 74.8949C69.4111 74.604 69.4714 74.3154 69.5937 74.0513C69.716 73.7873 69.8971 73.5547 70.1231 73.3713C70.358 73.2172 70.6277 73.124 70.9077 73.1002C71.1877 73.0764 71.4692 73.1227 71.7269 73.235C71.9955 73.3392 72.2408 73.4956 72.4486 73.6952C72.6565 73.8948 72.8227 74.1336 72.9377 74.3977C73.1241 74.9257 73.187 75.4893 73.1217 76.0453C73.0564 76.6013 72.8645 77.135 72.5608 77.6053C72.068 78.438 71.3628 79.1248 70.5174 79.5954C69.672 80.066 68.7168 80.3035 67.7494 80.2837C66.419 80.203 65.159 79.6582 64.189 78.744C63.8551 78.41 63.5443 78.0537 63.2588 77.6775Z" fill="#2D2F34"/>
<path d="M65.9053 66.2263C66.2502 66.7074 66.6963 67.107 67.2124 67.3971C68.4092 68.1941 69.7888 68.6742 71.2219 68.7924C72.0061 68.8689 72.7971 68.8338 73.5714 68.6881C74.2281 68.5843 74.8454 68.3075 75.3597 67.8862C75.7031 67.5891 75.9303 67.18 76.0012 66.7315C76.0012 66.4107 76.0012 66.2423 75.9371 66.2503C75.8729 66.2584 75.9371 66.4188 75.8488 66.6994C75.7306 67.085 75.4951 67.4241 75.1752 67.6697C74.3733 68.2952 72.8417 68.4716 71.262 68.3674C69.8906 68.2463 68.5627 67.8247 67.3728 67.1324C66.4345 66.6353 65.9534 66.1702 65.9053 66.2263Z" fill="#2D2F34"/>
<path d="M79.1119 34.1101C79.0638 34.1101 79.0157 34.6634 78.6468 35.5856C78.1004 36.8813 77.3141 38.0621 76.3293 39.0658C75.1265 40.381 73.4104 41.648 71.6382 43.2437C70.6933 44.0682 69.853 45.0054 69.1363 46.0344C68.3785 47.1576 67.8122 48.3986 67.4603 49.7071C66.7852 52.244 66.8352 54.9194 67.6046 57.4294C68.2523 59.4549 69.3024 61.3287 70.692 62.9384C71.6161 64.0249 72.6721 64.9919 73.8354 65.8172C74.2524 66.0979 74.5732 66.3144 74.8057 66.4427C74.92 66.5152 75.0408 66.577 75.1666 66.6271C75.1666 66.6271 74.7175 66.2984 73.9236 65.6889C72.8129 64.8284 71.8016 63.8467 70.9085 62.762C69.5761 61.1589 68.5732 59.3086 67.9575 57.3171C67.2314 54.873 67.1926 52.2761 67.8452 49.8113C68.1831 48.5478 68.7248 47.348 69.449 46.2589C70.1422 45.2524 70.9495 44.3294 71.8547 43.5084C73.5948 41.9046 75.3109 40.6135 76.5057 39.2503C77.4923 38.2115 78.2587 36.9841 78.7591 35.6417C78.889 35.277 78.9856 34.9012 79.0478 34.5191C79.0818 34.385 79.1033 34.2481 79.1119 34.1101Z" fill="#2D2F34"/>
<path d="M117.595 37.2215C117.595 37.2215 118.141 37.43 119.103 37.8791C120.457 38.4922 121.667 39.3828 122.655 40.4933C123.316 41.2653 123.82 42.1587 124.139 43.1235C124.494 44.2311 124.544 45.4141 124.283 46.5476C124.034 47.7585 123.537 48.9533 123.176 50.3166C122.978 50.9999 122.87 51.7062 122.856 52.4175C122.849 53.1657 123.019 53.9048 123.353 54.5747C124.117 55.7798 125.061 56.8614 126.151 57.7823C127.09 58.6512 127.772 59.7606 128.124 60.9899C128.42 62.0379 128.455 63.1422 128.227 64.2069C127.999 65.2717 127.515 66.2649 126.817 67.1003C125.846 68.2248 124.548 69.0182 123.104 69.3697C122.576 69.4852 122.04 69.563 121.5 69.6023C122.051 69.6779 122.611 69.6507 123.152 69.5221C124.657 69.2171 126.022 68.432 127.042 67.2848C127.798 66.4206 128.327 65.3813 128.58 64.2611C128.834 63.1409 128.804 61.9752 128.493 60.8696C128.14 59.5637 127.433 58.3812 126.448 57.4535C125.39 56.5532 124.474 55.499 123.73 54.3261C123.165 53.0595 123.107 51.6243 123.569 50.3166C123.914 49.0175 124.411 47.7826 124.66 46.5236C124.93 45.3287 124.863 44.0823 124.468 42.923C124.122 41.92 123.577 40.9978 122.864 40.2126C121.837 39.0912 120.575 38.212 119.167 37.6385C118.79 37.4795 118.404 37.3403 118.012 37.2215C117.874 37.2009 117.733 37.2009 117.595 37.2215Z" fill="#2D2F34"/>
<path d="M77.6289 34.6555C77.6803 34.8052 77.7447 34.9501 77.8214 35.0886C78.0339 35.4869 78.2696 35.8724 78.527 36.2433C79.4807 37.6149 80.7097 38.7729 82.1356 39.6434C83.1276 40.2504 84.2105 40.6945 85.3432 40.9585C86.6441 41.2504 87.9892 41.2886 89.3046 41.0707C90.7641 40.8431 92.1552 40.2954 93.3782 39.4669C94.653 38.5262 95.7112 37.323 96.4816 35.9386C97.2159 34.5904 98.1245 33.3448 99.184 32.2338C100.215 31.2534 101.442 30.5019 102.785 30.0286C105.076 29.2046 107.592 29.2646 109.841 30.197C111.352 30.8324 112.696 31.8064 113.771 33.0437C114.516 33.9338 114.813 34.5192 114.845 34.4952C114.798 34.3451 114.73 34.2022 114.645 34.0701C114.422 33.6777 114.17 33.3024 113.891 32.9475C112.84 31.6419 111.489 30.6101 109.954 29.9404C107.644 28.9354 105.039 28.8437 102.664 29.6838C101.267 30.1671 99.9883 30.9405 98.9113 31.9531C97.8259 33.0858 96.8931 34.3556 96.1368 35.7301C95.3968 37.068 94.3798 38.2327 93.1537 39.1462C91.9853 39.9607 90.6521 40.5082 89.2484 40.75C86.8492 41.1619 84.3818 40.6981 82.296 39.4429C80.8836 38.606 79.6493 37.4998 78.6634 36.1872C77.9577 35.2329 77.661 34.6555 77.6289 34.6555Z" fill="#5F646F"/>
<path d="M75.1511 42.6746C75.0421 43.2845 75.0421 43.909 75.1511 44.5189C75.3583 46.001 75.8718 47.4237 76.6587 48.6965C77.4456 49.9694 78.4888 51.0646 79.7219 51.9125C80.1998 52.2806 80.7444 52.5529 81.3257 52.7144C81.3257 52.6582 80.7323 52.3375 79.8422 51.6639C78.6997 50.7718 77.7226 49.6861 76.9553 48.4563C76.1876 47.2253 75.6445 45.8677 75.3515 44.4468C75.2312 43.4043 75.2232 42.6746 75.1511 42.6746Z" fill="#5F646F"/>
<path d="M73.0739 46.0586C72.9461 46.5098 72.9215 46.9839 73.0017 47.4459C73.1226 48.569 73.4794 49.6539 74.0487 50.6296C74.6181 51.6052 75.3871 52.4496 76.3055 53.1073C76.6659 53.4091 77.0914 53.6232 77.5485 53.7328C77.2104 53.4282 76.8543 53.1444 76.482 52.8828C75.6455 52.1942 74.937 51.3636 74.389 50.4289C73.8494 49.4922 73.4751 48.4695 73.2824 47.4058C73.2414 46.9528 73.1718 46.5028 73.0739 46.0586Z" fill="#5F646F"/>
<path d="M118.269 64.3257C118.638 64.3732 119.012 64.3177 119.352 64.1653C120.206 63.8701 120.97 63.3615 121.572 62.6878C122.174 62.0142 122.594 61.1978 122.792 60.3162C122.894 59.9598 122.894 59.582 122.792 59.2256C122.664 59.5567 122.562 59.8972 122.487 60.244C122.234 61.0401 121.818 61.7749 121.266 62.4016C120.714 63.0284 120.037 63.5334 119.279 63.8846C118.662 64.1733 118.253 64.2615 118.269 64.3257Z" fill="#5F646F"/>
<path d="M88.0376 44.0537C88.1284 44.121 88.2283 44.175 88.3343 44.2141C88.6253 44.3542 88.9254 44.4747 89.2324 44.575C90.3634 44.9556 91.5517 45.1374 92.7447 45.1122C94.5202 45.0906 96.2693 44.68 97.8689 43.9094C98.811 43.4476 99.6874 42.8624 100.475 42.1693C101.309 41.4104 102.032 40.5386 102.624 39.5791C103.851 37.6706 104.853 35.6979 106.441 34.5673C107.18 34.0415 108.042 33.7156 108.943 33.621C109.733 33.5616 110.528 33.6514 111.285 33.8856C112.397 34.2309 113.429 34.7983 114.316 35.5536C114.949 36.0828 115.246 36.4437 115.278 36.4116C115.226 36.3131 115.161 36.2215 115.086 36.139C114.881 35.8881 114.659 35.6522 114.42 35.4333C113.547 34.6143 112.508 33.9934 111.373 33.613C110.58 33.349 109.745 33.2401 108.911 33.2922C107.945 33.377 107.019 33.7144 106.225 34.2706C104.533 35.4574 103.498 37.4781 102.287 39.3626C101.203 41.1842 99.6082 42.6479 97.7005 43.5726C96.1544 44.3409 94.4621 44.7701 92.7367 44.8316C91.5703 44.8777 90.404 44.7397 89.2805 44.4226C88.4786 44.2061 88.0536 44.0136 88.0376 44.0537Z" fill="#5F646F"/>
<path d="M115.767 58.039C115.691 58.423 115.469 58.7624 115.147 58.9854C114.825 59.2084 114.429 59.2975 114.043 59.2338C113.665 59.1858 113.322 58.9899 113.089 58.6892C112.856 58.3885 112.752 58.0075 112.8 57.63C112.872 57.2456 113.093 56.905 113.413 56.6815C113.734 56.4581 114.13 56.3696 114.516 56.4352C114.894 56.4833 115.238 56.6789 115.472 56.9793C115.706 57.2798 115.812 57.6607 115.767 58.039Z" fill="#2D2F34"/>
<path d="M116.93 55.5049C116.706 55.6573 115.759 54.6068 114.18 54.286C112.6 53.9653 111.277 54.5186 111.149 54.286C111.076 54.1898 111.333 53.8771 111.95 53.6124C112.732 53.2808 113.597 53.1968 114.428 53.3719C115.25 53.5397 115.996 53.9636 116.561 54.5827C116.946 55.0879 117.034 55.5049 116.93 55.5049Z" fill="#2D2F34"/>
<path d="M100.122 55.1682C100.046 55.5522 99.824 55.8916 99.5022 56.1146C99.1805 56.3376 98.7846 56.4267 98.3983 56.363C98.211 56.3403 98.03 56.2806 97.8659 56.1875C97.7018 56.0943 97.5578 55.9696 97.4422 55.8204C97.3266 55.6713 97.2418 55.5007 97.1925 55.3185C97.1433 55.1364 97.1307 54.9463 97.1553 54.7592C97.2295 54.3758 97.4503 54.0365 97.7708 53.8134C98.0912 53.5902 98.4861 53.5009 98.8714 53.5644C99.2485 53.6145 99.5909 53.8106 99.8248 54.1105C100.059 54.4105 100.166 54.7903 100.122 55.1682Z" fill="#2D2F34"/>
<path d="M101.325 52.6422C101.101 52.7945 100.154 51.744 98.5747 51.4233C96.9949 51.1025 95.6718 51.6558 95.5355 51.4233C95.4713 51.3271 95.7279 51.0143 96.3374 50.7497C97.1196 50.4191 97.9841 50.3351 98.8153 50.5091C99.6382 50.6784 100.387 51.102 100.956 51.72C101.333 52.1931 101.429 52.578 101.325 52.6422Z" fill="#2D2F34"/>
<path d="M135.262 134.701L50.3403 174.555L69.3774 85.5441C69.3774 85.5441 81.2937 98.8717 90.4273 97.8372C103.081 96.4099 102.52 85.0068 102.841 85.0068C106.618 85.0068 119.079 90.0428 122.311 98.6391C122.311 98.6391 136.617 132.808 135.262 134.725" fill="#0031B2"/>
<path d="M131.862 122.752L154.868 210.777L138.517 215.275C138.517 215.275 107.179 147.611 107.684 146.504C108.189 145.398 131.862 122.752 131.862 122.752Z" fill="#0031B2"/>
<g opacity="0.2">
<path opacity="0.2" d="M113.786 117.933C116.866 117.981 119.632 120.066 121.268 122.672C122.904 125.278 123.578 128.358 124.099 131.389C125.071 137.05 125.578 142.781 125.615 148.525C125.615 151.589 125.615 154.86 127.218 157.459C128.822 160.057 131.933 161.468 134.548 163.232C138.085 165.64 140.972 168.885 142.953 172.677C144.934 176.47 145.947 180.693 145.903 184.972C145.734 193.496 140.121 199.109 133.024 203.528L121.509 167.081L112.199 125.735L113.786 117.933Z" fill="black"/>
</g>
<path d="M116.529 104.421C116.682 104.421 115.976 108.495 114.925 113.45C113.875 118.406 112.969 122.408 112.824 122.375C112.68 122.343 113.386 118.302 114.428 113.346C115.471 108.39 116.377 104.349 116.529 104.421Z" fill="#2D2F34"/>
<path d="M96.0567 108.583C95.9203 108.511 96.5298 107.195 97.4039 105.648C98.2779 104.1 99.0959 102.905 99.2322 102.977C99.3685 103.05 98.751 104.365 97.877 105.912C97.0029 107.46 96.185 108.655 96.0567 108.583Z" fill="#F7B3B3"/>
<path d="M109.312 113.811C109.192 113.883 108.229 112.528 107.444 110.643C106.658 108.759 106.369 107.115 106.513 107.083C106.658 107.051 107.171 108.591 107.949 110.435C108.727 112.279 109.448 113.731 109.312 113.811Z" fill="#F7B3B3"/>
<path d="M112.672 99.056C112.672 99.1924 111.132 98.9117 109.408 98.1739C107.684 97.4362 106.433 96.5701 106.513 96.4418C106.594 96.3135 107.933 96.9631 109.625 97.6768C111.317 98.3905 112.712 98.9037 112.672 99.056Z" fill="#F7B3B3"/>
<path d="M123.329 121.1C123.193 121.012 123.867 119.793 124.468 118.213C125.069 116.634 125.406 115.279 125.559 115.303C125.711 115.327 125.615 116.762 124.973 118.406C124.332 120.05 123.442 121.18 123.329 121.1Z" fill="#F7B3B3"/>
<path d="M133.593 160.321C133.505 160.442 132.31 159.744 130.915 158.766C129.519 157.787 128.461 156.889 128.549 156.769C128.637 156.649 129.832 157.346 131.227 158.325C132.623 159.303 133.681 160.193 133.593 160.321Z" fill="#F7B3B3"/>
<path d="M141.797 205.324C141.661 205.252 142.382 203.72 143.208 201.836C144.034 199.951 144.66 198.379 144.812 198.428C144.964 198.476 144.555 200.128 143.713 202.052C142.871 203.977 141.925 205.396 141.797 205.324Z" fill="#F7B3B3"/>
<g opacity="0.2">
<path opacity="0.2" d="M104.396 134.211C99.0477 133.746 93.4665 140.169 93.3301 145.767C93.2856 146.377 93.3731 146.99 93.5867 147.563C93.6996 147.846 93.8812 148.095 94.115 148.29C94.3489 148.485 94.6276 148.618 94.9259 148.678C95.3892 148.725 95.8556 148.623 96.2567 148.386C96.6578 148.15 96.9727 147.791 97.1552 147.362C97.4819 146.567 97.6639 145.72 97.6925 144.861C97.476 139.063 100.267 135.43 104.396 134.035" fill="black"/>
</g>
<path d="M140.514 214.706L144.443 225.708H175.268C175.268 225.708 173.552 223.118 167.249 222.5L155.726 221.394L152.879 211.314L140.514 214.706Z" fill="#FFBE9D"/>
<path d="M68.7919 185.677C69.8103 185.758 119.953 168.878 119.953 168.878C119.953 168.878 142.695 163.834 145.333 178.42C147.972 193.007 124.484 210.304 124.484 210.304L82.8813 231.233L61.2861 214.281L64.4055 201.451L68.7919 185.677Z" fill="#FFBE9D"/>
<path d="M87.1393 204.337L59.2652 221.306C58.4591 221.793 57.8723 222.574 57.6273 223.483C57.3822 224.393 57.4979 225.363 57.9501 226.189L76.1934 256.782C76.1934 256.782 79.4651 259.348 74.6377 236.542L98.9673 223.102L87.1393 204.337Z" fill="white"/>
<path d="M100.804 194.346C100.892 194.466 97.9412 196.816 94.2124 199.582C90.4835 202.349 87.3802 204.506 87.292 204.394C87.2038 204.282 90.1548 201.932 93.8836 199.157C97.6124 196.383 100.716 194.234 100.804 194.346Z" fill="#EB996E"/>
<path d="M74.1967 209.389C81.4138 195.926 88.1898 178.444 94.7574 158.709L101.606 196.84L105.535 218.7L122.255 217.096L120.298 135.142C120.298 135.142 116.248 118.422 101.702 117.452C89.1762 116.65 78.0939 123.923 70.2754 140.667C65.4526 150.949 59.8356 160.84 53.4756 170.249L74.1967 209.389Z" fill="#FFBE9D"/>
<path d="M15.1372 218.7C21.1613 222.793 28.1085 225.324 35.3537 226.066C42.5989 226.808 49.9149 225.737 56.6436 222.95L74.3575 211.074C74.3575 211.074 72.6495 190.417 66.8999 181.684L61.7918 182.959L65.1998 178.701L56.6436 165.991L34.1021 188.155L15.1372 218.7Z" fill="#2D2F34"/>
<path d="M92.9053 164.187C92.9053 164.187 92.9053 164.355 92.777 164.66C92.6487 164.964 92.4963 165.462 92.3038 165.983C91.8628 167.21 91.2694 168.838 90.5477 170.794C89.0722 174.884 87.1797 180.585 84.9344 186.832C83.0624 192.199 80.8086 197.424 78.1904 202.469C77.6852 203.432 77.196 204.29 76.739 205.027C76.2819 205.765 75.9371 206.407 75.5521 206.904L74.7502 208.058C74.6631 208.197 74.558 208.324 74.4375 208.435C74.4924 208.279 74.5679 208.131 74.662 207.994C74.8545 207.666 75.0951 207.273 75.3757 206.791C75.6564 206.31 76.0654 205.629 76.4823 204.875C76.8993 204.121 77.3805 203.271 77.8616 202.293C80.3642 197.214 82.56 191.99 84.4372 186.648C86.6986 180.417 88.6632 174.723 90.2269 170.658C91.0288 168.629 91.6623 166.985 92.1515 165.846C92.376 165.341 92.5604 164.916 92.7128 164.563C92.7619 164.431 92.8265 164.304 92.9053 164.187Z" fill="#EB996E"/>
<path d="M95.7598 164.315C95.9225 164.694 96.0357 165.093 96.0966 165.502C96.281 166.303 96.5216 167.386 96.8103 168.765C97.3876 171.532 98.1254 175.365 98.8792 179.607C99.6329 183.849 100.234 187.706 100.603 190.505C100.78 191.908 100.916 193.039 100.988 193.825C101.046 194.234 101.065 194.647 101.044 195.06C100.905 194.671 100.813 194.267 100.772 193.857C100.627 192.967 100.443 191.86 100.218 190.561C99.7212 187.658 99.0636 183.881 98.3419 179.695C97.6202 175.509 96.9466 171.74 96.4334 168.837C96.2169 167.538 96.0404 166.432 95.8881 165.542C95.805 165.138 95.762 164.727 95.7598 164.315Z" fill="#EB996E"/>
<path d="M121.701 191.636C121.549 191.636 121.349 183.801 121.244 174.138C121.14 164.475 121.172 156.633 121.325 156.633C121.477 156.633 121.677 164.467 121.782 174.13C121.886 183.793 121.854 191.636 121.701 191.636Z" fill="#EB996E"/>
<path d="M100.162 195.421L105.775 226.622C105.984 227.797 106.637 228.845 107.599 229.55C108.561 230.255 109.757 230.562 110.94 230.407L146.616 225.732C146.616 225.732 148.717 222.428 125.703 218.7L122.639 191.435L100.162 195.421Z" fill="white"/>
<path d="M57.1321 184.09C56.938 184.383 56.7091 184.653 56.4505 184.891C56.0014 185.381 55.3037 186.038 54.4217 186.832C49.7856 190.928 44.4139 194.106 38.5921 196.198C37.4775 196.599 36.5633 196.888 35.9218 197.056C35.5985 197.173 35.2617 197.249 34.9194 197.281C35.2247 197.125 35.5443 196.999 35.8737 196.904C36.4992 196.687 37.3973 196.359 38.4879 195.926C44.2119 193.687 49.5317 190.529 54.2372 186.575C55.1434 185.822 55.841 185.188 56.3462 184.747C56.587 184.504 56.8501 184.284 57.1321 184.09Z" fill="#707683"/>
<path d="M79.0643 81.334C79.0643 81.334 57.8861 84.9425 50.4124 94.7418C44.4863 102.512 36.4352 147.94 22.6426 160.746C18.1439 164.924 9.67583 173.705 7.47862 181.05C3.71771 193.632 4.69602 215.532 15.8825 218.699C15.8825 218.699 28.7129 212.116 34.8074 199.061C35.7159 197.076 36.772 195.162 37.9669 193.335L46.5472 180.553C46.5472 180.553 56.17 169.944 60.7408 161.195L68.9763 145.318L71.0292 140.643L78.3826 86.5944L79.0643 81.334Z" fill="#0031B2"/>
<path d="M64.3257 125.15C64.3257 125.286 62.0322 125.15 59.7628 123.546C57.4935 121.942 56.5151 119.905 56.6434 119.865C56.7717 119.825 57.9104 121.638 60.0756 123.073C62.2407 124.508 64.3577 124.99 64.3257 125.15Z" fill="#F7B3B3"/>
<path d="M32.7383 160.602C33.2362 160.516 33.7406 160.473 34.2459 160.474C34.727 160.474 35.3204 160.418 36.01 160.337C36.6997 160.257 37.4775 160.225 38.3275 160.081C40.3338 159.803 42.3209 159.401 44.2776 158.878C49.0739 157.581 53.6344 155.532 57.7896 152.807C59.4847 151.698 61.1054 150.48 62.6411 149.159C63.3228 148.614 63.8761 148.06 64.3813 147.555C64.8865 147.05 65.3115 146.673 65.6483 146.328C65.9835 145.947 66.354 145.598 66.7549 145.286C66.4736 145.709 66.1542 146.107 65.8006 146.472C65.4218 146.925 65.0203 147.359 64.5978 147.772C64.1006 148.261 63.5633 148.838 62.8977 149.375C61.3838 150.745 59.7761 152.007 58.0863 153.152C53.9233 155.956 49.3133 158.03 44.454 159.287C42.4734 159.8 40.4579 160.167 38.4238 160.385C37.5577 160.506 36.7638 160.522 36.0742 160.57C35.3846 160.618 34.7911 160.618 34.302 160.61C33.7818 160.66 33.2579 160.657 32.7383 160.602Z" fill="#2D2F34"/>
<path d="M18.0234 191.363C18.1251 190.913 18.2729 190.475 18.4645 190.056C18.9435 188.892 19.5286 187.776 20.2126 186.72C22.4568 183.181 25.6154 180.314 29.3546 178.423C33.0938 176.531 37.2746 175.685 41.455 175.974C42.7098 176.052 43.9551 176.243 45.1758 176.544C45.6297 176.632 46.0713 176.774 46.4909 176.969C44.8189 176.676 43.1326 176.472 41.4389 176.359C37.3404 176.18 33.2645 177.058 29.6033 178.908C25.9421 180.759 22.8187 183.521 20.5334 186.928C19.6216 188.363 18.7838 189.843 18.0234 191.363Z" fill="#2D2F34"/>
<path d="M49.7308 173.817C49.7308 173.97 46.4751 174.162 42.5137 174.499C38.5523 174.836 35.2565 175.188 35.2324 175.036C35.909 174.788 36.6155 174.632 37.3334 174.571C38.6405 174.362 40.4528 174.13 42.4656 173.962C44.4783 173.793 46.3067 173.713 47.6298 173.705C48.332 173.651 49.0383 173.689 49.7308 173.817Z" fill="#2D2F34"/>
<g opacity="0.2">
<path opacity="0.2" d="M46.0261 180.778C46.2667 180.882 46.7077 178.171 46.4912 176.969C42.4817 175.293 40.076 176.52 37.2694 176.103C36.9165 176.054 33.2037 177.538 32.9952 177.241C32.6023 176.664 35.2406 175.196 35.9222 175.036C41.2227 173.817 45.6252 173.2 49.0573 171.131C50.0111 170.656 50.8505 169.98 51.5178 169.149C52.1851 168.319 52.6643 167.353 52.9225 166.319L54.5263 161.203C54.831 160.249 54.9914 158.934 54.0852 158.509C53.4277 158.196 52.6739 158.629 52.0163 158.95C51.3588 159.271 50.4125 159.375 50.0597 158.709C49.6587 157.907 50.7253 157.186 51.5753 156.865C55.6647 155.265 59.2587 152.612 61.9933 149.176C64.728 145.74 66.5063 141.643 67.1482 137.299L66.7552 130.394L70.5162 140.931L60.1877 161.524C56.1927 168.445 51.4432 174.902 46.0261 180.778Z" fill="black"/>
</g>
<path d="M44.7993 135.126C44.647 135.126 44.3342 132.271 44.0936 128.71C43.8531 125.15 43.7889 122.295 43.9333 122.295C44.0776 122.295 44.3984 125.15 44.6389 128.71C44.8795 132.271 44.9437 135.11 44.7993 135.126Z" fill="#F7B3B3"/>
<path d="M57.7897 140.915C57.91 141.003 56.8515 142.671 55.384 144.636C53.9165 146.601 52.6896 148.132 52.5693 148.044C52.449 147.956 53.5156 146.288 54.975 144.323C56.4345 142.359 57.6694 140.827 57.7897 140.915Z" fill="#F7B3B3"/>
<path d="M39.2898 158.814C39.1535 158.87 38.6563 157.859 38.1912 156.576C37.7261 155.293 37.4695 154.171 37.6058 154.171C37.7422 154.171 38.2393 155.125 38.7044 156.416C39.1695 157.707 39.4342 158.766 39.2898 158.814Z" fill="#F7B3B3"/>
<path d="M28.2398 168.717C28.3601 168.821 27.3337 170.121 26.3233 171.861C25.3129 173.601 24.6634 175.132 24.519 175.068C24.3747 175.004 24.7997 173.376 25.8502 171.58C26.9007 169.784 28.1677 168.621 28.2398 168.717Z" fill="#F7B3B3"/>
<path d="M41.399 142.704C41.399 142.848 39.731 143.257 37.59 143.361C35.4489 143.465 33.7248 143.225 33.7408 143.08C33.7569 142.936 35.4649 142.92 37.5659 142.816C39.6669 142.712 41.3749 142.551 41.399 142.704Z" fill="#F7B3B3"/>
<path d="M60.0031 131.365C59.8508 131.365 60.0031 130.258 60.1154 128.959C60.2277 127.66 60.2196 126.553 60.372 126.553C60.5244 126.553 60.7649 127.636 60.6527 129.015C60.5404 130.394 60.1394 131.405 60.0031 131.365Z" fill="#F7B3B3"/>
<path d="M56.8275 109.136C56.8275 109.272 55.376 109.842 53.4354 110.098C51.4948 110.355 49.9071 110.219 49.9151 110.098C49.9231 109.978 51.4708 109.85 53.3632 109.585C55.2557 109.321 56.7793 108.992 56.8275 109.136Z" fill="#F7B3B3"/>
<path d="M174.554 110.724L159.679 122.063L153.336 124.893L159.679 115.327L171.707 106.827C172.223 106.466 172.86 106.323 173.48 106.426C174.101 106.529 174.656 106.872 175.027 107.38C175.403 107.888 175.565 108.523 175.476 109.149C175.388 109.775 175.056 110.34 174.554 110.724Z" fill="#2D2F34"/>
<path d="M115.575 137.339C116.248 137.339 136.584 129.32 137.034 128.197C137.483 127.074 137.25 124.019 141.292 122.897C145.333 121.774 149.495 120.362 149.495 120.362L159.84 113.482C159.84 113.482 162.726 114.436 160.12 117.492C158.644 119.181 157.035 120.75 155.309 122.183C154.371 122.985 155.766 123.787 155.766 123.787L170.377 113.482C170.068 116.106 169.06 118.599 167.458 120.699L165.437 123.386C165.797 124.406 165.837 125.512 165.55 126.556C165.264 127.6 164.664 128.531 163.833 129.223C160.922 131.91 156.263 138.846 151.331 139.063C146.4 139.279 142.936 139.632 142.936 139.632L117.275 152.174L115.575 137.339Z" fill="#FFBE9D"/>
<path d="M166.135 122.335C166.223 122.455 164.619 123.843 162.55 125.431C160.481 127.018 158.733 128.213 158.645 128.093C158.557 127.973 160.153 126.593 162.222 125.006C164.29 123.418 166.039 122.223 166.135 122.335Z" fill="#EB996E"/>
<path d="M59.9951 89.1125C59.9951 89.1125 72.5769 82.8176 80.2672 87.3644C86.4177 90.997 90.7961 107.227 94.974 116.064C96.0245 118.286 98.3019 119.946 99.1519 120.924C103.346 125.823 104.396 134.211 104.396 134.211L133.465 128.871L136.585 147.403C136.585 147.403 108.237 168.621 91.9508 163.761C75.0307 158.669 69.4335 138.101 69.4335 138.101L59.9951 89.1125Z" fill="#0031B2"/>
<path d="M97.7487 145.39C97.7423 145.312 97.7423 145.235 97.7487 145.157C97.7487 144.973 97.7086 144.74 97.6845 144.452C97.6362 144.066 97.6228 143.677 97.6444 143.289C97.6456 142.751 97.6965 142.214 97.7968 141.685C98.0312 140.207 98.6291 138.81 99.5369 137.619C100.771 136.002 102.44 134.77 104.348 134.067L133.409 128.638L133.642 128.59L133.682 128.831C134.644 134.516 135.711 140.771 136.833 147.354V147.523L136.697 147.619C130.478 152.002 123.891 155.839 117.01 159.086L114.998 160C114.332 160.297 113.642 160.546 112.961 160.802C112.279 161.059 111.614 161.34 110.932 161.604L108.871 162.286C107.516 162.775 106.112 163.088 104.741 163.441C104.052 163.609 103.354 163.713 102.664 163.858C101.976 164.001 101.28 164.106 100.579 164.17C97.8535 164.567 95.082 164.529 92.3679 164.058C89.7517 163.6 87.2668 162.576 85.0867 161.059C81.095 158.259 77.7169 154.673 75.1591 150.522C72.9102 146.941 71.0295 143.142 69.5458 139.183C68.1666 135.566 67.1401 132.239 66.1779 129.32C65.2156 126.401 64.4457 123.891 63.7722 121.846C63.0986 119.801 62.4811 118.245 62.0882 117.179C61.8877 116.674 61.7353 116.273 61.6151 115.976C61.5549 115.842 61.5066 115.702 61.4707 115.559C61.5518 115.685 61.619 115.82 61.6712 115.96C61.7915 116.249 61.9679 116.642 62.1844 117.139C62.6174 118.189 63.2509 119.745 63.9726 121.782C64.6943 123.819 65.5764 126.321 66.4986 129.223C67.4208 132.126 68.5435 135.454 69.9388 139.039C71.4276 142.96 73.3082 146.721 75.5521 150.265C78.0922 154.35 81.4372 157.875 85.3834 160.626C89.5212 163.593 95.1024 164.395 100.531 163.633C101.221 163.566 101.907 163.459 102.584 163.312C103.266 163.176 103.955 163.072 104.637 162.903C105.992 162.526 107.379 162.238 108.727 161.757L110.764 161.083C111.437 160.834 112.103 160.562 112.784 160.281C113.466 160 114.14 159.76 114.805 159.479L116.802 158.573C123.656 155.345 130.221 151.535 136.424 147.186L136.312 147.443C135.213 140.851 134.163 134.612 133.217 128.911L133.489 129.103L104.404 134.356C102.53 135.017 100.882 136.196 99.6492 137.756C98.7449 138.914 98.1391 140.277 97.885 141.725C97.7712 142.253 97.7068 142.789 97.6925 143.329C97.6601 143.71 97.6601 144.094 97.6925 144.476C97.6925 144.772 97.6925 145.005 97.6925 145.181C97.7195 145.248 97.7383 145.318 97.7487 145.39Z" fill="#2D2F34"/>
<path d="M104.396 134.211C104.316 134.002 104.263 133.784 104.236 133.562C104.148 133.129 104.027 132.495 103.835 131.685C103.323 129.398 102.515 127.187 101.429 125.11C100.058 122.496 97.596 119.905 95.1743 116.778C93.8996 115.138 92.823 113.354 91.9667 111.461C91.0748 109.425 90.3167 107.333 89.6973 105.199C89.122 103.073 88.4259 100.982 87.6124 98.9358C86.7965 97.055 85.8367 95.24 84.7416 93.5069C83.7721 91.9304 82.6637 90.4436 81.4297 89.0644C80.358 87.8773 79.0195 86.962 77.5244 86.394C75.3381 85.5679 73.0006 85.218 70.6682 85.3676C69.0163 85.4879 68.1262 85.7686 68.1182 85.7124C68.3211 85.6201 68.5336 85.5502 68.7517 85.5039C69.3811 85.345 70.0218 85.2351 70.6682 85.1752C73.0404 84.938 75.4355 85.2367 77.6768 86.0492C79.243 86.6134 80.6491 87.549 81.7745 88.7757C83.043 90.1644 84.1837 91.6646 85.1826 93.2583C86.3025 95.0045 87.2838 96.8358 88.1175 98.7353C88.9453 100.799 89.6522 102.909 90.2346 105.054C90.8417 107.171 91.5892 109.244 92.4719 111.261C93.3178 113.122 94.3753 114.879 95.6233 116.497C98.029 119.609 100.435 122.239 101.822 124.949C102.884 127.069 103.64 129.329 104.067 131.661C104.228 132.463 104.316 133.121 104.372 133.562C104.401 133.777 104.409 133.995 104.396 134.211Z" fill="#2D2F34"/>
<path d="M60.749 97.5565C60.6047 97.5565 60.749 96.089 61.0377 94.3489C61.3264 92.6087 61.7193 91.1894 61.8396 91.2134C61.9599 91.2375 61.8396 92.6889 61.5429 94.421C61.2462 96.1531 60.8934 97.5885 60.749 97.5565Z" fill="#F7B3B3"/>
<path d="M78.6871 93.8357C78.6871 93.9801 77.2517 94.2688 75.4795 94.4772C73.7073 94.6857 72.1998 94.7258 72.1837 94.5815C72.1677 94.4372 73.6111 94.1404 75.3913 93.94C77.1715 93.7395 78.6871 93.6834 78.6871 93.8357Z" fill="#F7B3B3"/>
<path d="M68.6152 115.118C68.4629 115.118 68.094 113.514 67.7732 111.518C67.4525 109.521 67.3242 107.853 67.4765 107.837C67.6289 107.821 67.9978 109.441 68.2784 111.429C68.5591 113.418 68.7596 115.094 68.6152 115.118Z" fill="#F7B3B3"/>
<path d="M86.5218 112.32C86.5218 112.464 84.918 112.504 83.0576 112.4C81.1972 112.296 79.6014 112.095 79.6094 111.943C79.6174 111.79 81.1731 111.758 83.0816 111.862C84.9902 111.967 86.5298 112.167 86.5218 112.32Z" fill="#F7B3B3"/>
<path d="M76.6586 130.635C76.5223 130.579 76.9954 128.991 77.7252 127.082C78.4549 125.174 79.1526 123.674 79.2889 123.731C79.4252 123.787 78.9601 125.374 78.2304 127.283C77.5006 129.191 76.803 130.691 76.6586 130.635Z" fill="#F7B3B3"/>
<path d="M94.3724 130.082C94.2441 130.154 93.3139 128.75 92.5842 126.81C91.8545 124.869 91.6139 123.201 91.7823 123.177C91.9507 123.153 92.3997 124.725 93.1215 126.617C93.8432 128.51 94.5087 129.985 94.3724 130.082Z" fill="#F7B3B3"/>
<path d="M86.5138 142.984C86.4577 143.121 85.2789 142.8 83.8756 142.255C82.4722 141.709 81.3816 141.156 81.4298 141.02C81.4779 140.883 82.6647 141.204 84.068 141.749C85.4713 142.295 86.5619 142.84 86.5138 142.984Z" fill="#F7B3B3"/>
<path d="M92.1267 156.953C92.0465 157.089 90.3545 156.151 88.1974 155.189C86.0403 154.227 84.236 153.585 84.2841 153.409C84.3323 153.232 86.2328 153.697 88.422 154.7C90.6111 155.702 92.2069 156.841 92.1267 156.953Z" fill="#F7B3B3"/>
<path d="M105.728 151.885C105.84 151.981 104.709 153.361 103.21 154.956C101.71 156.552 100.411 157.763 100.299 157.659C100.186 157.555 101.317 156.183 102.817 154.588C104.316 152.992 105.623 151.781 105.728 151.885Z" fill="#F7B3B3"/>
<path d="M107.243 142.768C107.099 142.84 106.393 141.557 105.27 140.177C104.148 138.798 103.057 137.836 103.153 137.708C103.25 137.579 104.533 138.389 105.695 139.841C106.858 141.292 107.371 142.719 107.243 142.768Z" fill="#F7B3B3"/>
<path d="M115.47 147.427C115.326 147.362 115.895 145.823 116.457 143.962C117.018 142.102 117.379 140.498 117.531 140.522C117.684 140.546 117.531 142.182 116.978 144.115C116.425 146.047 115.575 147.491 115.47 147.427Z" fill="#F7B3B3"/>
<path d="M126.681 135.847C126.681 136 124.989 135.992 122.928 135.847C120.867 135.703 119.199 135.446 119.207 135.294C119.215 135.142 120.907 135.15 122.968 135.294C125.029 135.438 126.697 135.695 126.681 135.847Z" fill="#F7B3B3"/>
<path d="M126.801 147.908C126.866 148.044 125.454 148.806 123.658 149.6C121.862 150.394 120.362 150.931 120.298 150.795C120.234 150.658 121.645 149.897 123.441 149.103C125.238 148.309 126.801 147.772 126.801 147.908Z" fill="#F7B3B3"/>
<path d="M28.6328 194.314C28.4805 194.314 28.6328 192.71 28.9215 190.817C29.2102 188.925 29.6031 187.377 29.7234 187.401C29.8437 187.425 29.7234 189.005 29.4347 190.906C29.1461 192.806 28.7772 194.338 28.6328 194.314Z" fill="#F7B3B3"/>
<path d="M22.2578 201.451C22.2096 201.595 20.5818 201.162 18.6252 200.488C16.6685 199.815 15.1128 199.157 15.169 199.013C15.2251 198.869 16.8449 199.302 18.8016 199.975C20.7582 200.649 22.3059 201.298 22.2578 201.451Z" fill="#2D2F34"/>
<path d="M16.9408 204.939C17.0931 204.939 16.8927 206.783 16.4997 209.005C16.1068 211.226 15.6978 213.014 15.5214 213.014C15.345 213.014 15.5695 211.162 15.9625 208.94C16.3554 206.719 16.7644 204.915 16.9408 204.939Z" fill="#2D2F34"/>
<path d="M16.6848 177.522C16.789 177.642 15.506 178.829 14.0626 180.409C12.6191 181.989 11.5366 183.36 11.4083 183.272C11.28 183.183 12.2102 181.668 13.6616 180.064C15.113 178.46 16.5966 177.394 16.6848 177.522Z" fill="#F7B3B3"/>
<path d="M50.6846 166.167C50.7648 166.279 49.1851 167.346 46.9397 167.907C44.6944 168.468 42.8019 168.316 42.818 168.18C42.834 168.043 44.6463 167.947 46.8275 167.378C49.0086 166.809 50.6205 166.015 50.6846 166.167Z" fill="#F7B3B3"/>
</g>
</g>
<defs>
<clipPath id="clip0">
<rect width="184" height="223" fill="white"/>
</clipPath>
</defs>
</svg>
