<svg width="184" height="211" viewBox="0 0 184 211" fill="none" xmlns="http://www.w3.org/2000/svg">
<g clip-path="url(#clip0)">
<path d="M92 211C142.534 211 183.5 170.034 183.5 119.5C183.5 68.9659 142.534 28 92 28C41.4659 28 0.5 68.9659 0.5 119.5C0.5 170.034 41.4659 211 92 211Z" fill="#E6EAF7"/>
<mask id="mask0" style="mask-type:alpha" maskUnits="userSpaceOnUse" x="0" y="-18" width="184" height="229">
<path fill-rule="evenodd" clip-rule="evenodd" d="M176 -18H9V80.935C3.54548 92.6544 0.5 105.722 0.5 119.5C0.5 170.034 41.4659 211 92 211C142.534 211 183.5 170.034 183.5 119.5C183.5 106.588 180.825 94.3002 176 83.1611V-18Z" fill="white"/>
</mask>
<g mask="url(#mask0)">
<path d="M95.411 79.4949C95.411 79.4949 83.674 82.6645 81.4739 91.5208C77.9967 105.505 67.3691 146.831 67.3691 146.831L56.1821 155.911L63.3418 167.779C63.3418 167.779 75.8432 163.667 81.0545 156.946C86.2657 150.224 91.6168 125.119 91.6168 125.119L95.411 79.4949Z" fill="#0031B2"/>
<path d="M116.88 16.7548C119.677 13.5572 126.687 13.8648 128.403 15.8784C129.633 15.2634 131.053 15.1449 132.368 15.5475C133.683 15.9501 134.794 16.8429 135.469 18.0412L142.983 19.5049C144.285 19.6437 145.53 20.1122 146.6 20.866C147.124 21.2559 147.486 21.8244 147.618 22.4635C147.75 23.1027 147.644 23.7682 147.318 24.3339C149.966 24.9585 151.094 28.8553 149.182 30.7944C149.445 31.078 149.646 31.4131 149.773 31.7784C149.9 32.1438 149.949 32.5314 149.919 32.9169C149.888 33.3023 149.778 33.6773 149.595 34.018C149.412 34.3587 149.161 34.6577 148.856 34.8963C150.985 37.3239 152.681 40.0987 153.872 43.1C154.483 44.3162 154.648 45.7086 154.338 47.0341C153.909 48.302 152.259 49.2342 151.112 48.4511C151.488 48.9633 151.711 49.5719 151.754 50.2058C151.797 50.8397 151.658 51.4728 151.355 52.031C152.613 52.031 153.042 53.9793 152.194 54.9116C151.345 55.8438 149.938 55.9837 148.67 55.9837C147.407 55.836 146.129 56.0869 145.015 56.7015C145.05 57.0112 145.204 57.2953 145.444 57.4939C146.532 58.2702 147.278 59.4367 147.527 60.75C147.775 62.0632 147.507 63.4217 146.777 64.5417L146.376 65.1383C145.668 66.1918 143.878 67.1893 142.769 67.8046C139.972 69.3614 138.229 69.119 135.05 69.6691C135.982 71.7107 130.901 76.3905 124.86 72.0556C114.338 75.3247 103.398 77.0579 92.3807 77.2016C90.6374 77.2482 88.5305 77.0618 87.7195 75.5142C87.0019 75.6689 86.2568 75.6389 85.554 75.4269C84.8513 75.215 84.2138 74.828 83.7015 74.3023C82.6888 73.2347 81.8659 72.0019 81.2683 70.6572C79.7461 70.2575 78.3853 69.3956 77.3734 68.1901C76.3616 66.9846 75.7486 65.4949 75.6189 63.9264C74.5732 63.1433 73.7017 62.1514 73.0598 61.0135C72.4178 59.8757 72.0194 58.6168 71.8899 57.3168C71.1681 57.0758 70.5038 56.6884 69.9387 56.1788C69.3735 55.6693 68.9196 55.0485 68.6054 54.3554C68.2913 53.6623 68.1236 52.9118 68.1129 52.1509C68.1021 51.39 68.2486 50.6351 68.5432 49.9334C69.0984 46.3063 70.2448 42.7949 71.9365 39.5389C69.9229 39.1473 69.1398 36.4624 69.8856 34.57C70.6314 32.6775 72.4586 31.419 74.1646 30.2816C72.673 30.7105 71.3213 28.8646 71.6382 27.3451C71.9552 25.8255 73.2976 24.7534 74.6028 23.9237C76.526 22.7079 78.5887 21.7282 80.7463 21.0058C81.3988 18.3489 84.699 15.2632 87.1415 14.0419C96.9953 9.09169 103.922 7.73061 116.861 16.7268" fill="#2D2F34"/>
<path d="M126.659 32.3512C126.708 31.3398 126.374 30.3471 125.725 29.57C125.076 28.7929 124.158 28.2883 123.154 28.1561L101.871 22.1245C95.0282 21.1923 90.2178 29.5265 89.5932 36.4065C88.8941 44.0416 88.3347 53.4014 89.0805 59.144C89.377 62.3065 90.6796 65.2906 92.7972 67.6581C94.9147 70.0256 97.7355 71.6519 100.845 72.298L100.668 80.6323L100.389 90.3276C103.661 89.8615 124.683 79.8119 124.683 79.8119L126.659 32.3512Z" fill="#FFBE9D"/>
<path d="M100.967 53.6624C100.141 53.381 99.2829 53.2025 98.4128 53.131C98.0026 53.075 97.6204 52.9818 97.5645 52.7022C97.5435 52.2824 97.6508 51.8662 97.8721 51.5089C98.273 50.5766 98.7018 49.5325 99.1493 48.4604C100.939 44.1255 102.244 40.5457 102.067 40.4804C101.89 40.4151 100.305 43.8738 98.5154 48.2087L97.2848 51.2758C97.0151 51.7573 96.9227 52.3181 97.0238 52.8606C97.0794 53.0056 97.167 53.1361 97.28 53.2426C97.3929 53.3492 97.5284 53.4289 97.6763 53.4759C97.898 53.5398 98.1264 53.5774 98.3569 53.5878C99.2201 53.7253 100.098 53.7504 100.967 53.6624Z" fill="#2D2F34"/>
<path d="M100.846 72.298C100.846 72.298 107.054 73.1091 114.829 68.7275C114.829 68.7275 112.732 77.2296 100.752 76.2694L100.846 72.298Z" fill="#EB996E"/>
<path d="M106.132 35.9032C106.281 36.3321 107.866 36.1736 109.721 36.4533C111.576 36.7329 113.058 37.283 113.319 36.9007C113.431 36.7236 113.189 36.3041 112.592 35.8753C111.799 35.3393 110.893 34.9917 109.945 34.8593C108.996 34.7268 108.03 34.8128 107.12 35.1108C106.43 35.3625 106.076 35.6981 106.132 35.9032Z" fill="#2D2F34"/>
<path d="M92.194 35.8939C92.4643 36.2668 93.5737 35.8939 94.8789 35.9405C96.184 35.9871 97.3027 36.2481 97.5637 35.8845C97.6849 35.6981 97.5171 35.3345 97.0417 34.9523C96.4056 34.5164 95.6499 34.2884 94.8789 34.2997C94.1068 34.2911 93.3511 34.5224 92.716 34.9616C92.2406 35.3532 92.0821 35.7167 92.194 35.8939Z" fill="#2D2F34"/>
<path d="M84.522 41.9999C84.5508 40.1779 85.2097 38.4222 86.3865 37.031C87.1171 36.3703 87.814 35.6734 88.4747 34.9428C89.7426 33.2181 89.5188 30.8689 90.0409 28.7993C90.384 27.463 91.0421 26.2283 91.9601 25.1984C92.878 24.1686 94.0292 23.3734 95.3174 22.8795C97.4522 22.0778 99.8947 22.1337 101.899 21.015C103.381 20.1946 104.5 18.8056 106.02 18.0784C108.993 16.6614 112.545 18.1344 115.342 19.7751C115.939 22.0125 114.55 23.9796 113.207 25.872C112.531 26.817 111.657 27.6028 110.646 28.1744C109.635 28.7461 108.511 29.0898 107.353 29.1815C105.563 29.3213 103.465 28.9484 102.225 30.2536C100.985 31.5587 101.47 33.9826 100.407 35.5394C98.8879 37.7768 95.3267 36.9937 93.0148 38.3921C91.2342 39.4735 90.507 41.6456 89.6307 43.5381C88.7544 45.4305 87.2255 47.4069 85.1373 47.3416C84.7255 45.591 84.519 43.7983 84.522 41.9999Z" fill="#2D2F34"/>
<path d="M110.904 23.961C116.159 23.7978 121.396 24.6558 126.324 26.4874C127.793 26.763 129.098 27.5961 129.967 28.8125C130.836 30.0288 131.201 31.534 130.985 33.0131C130.985 37.3201 129.353 42.6059 127.778 46.6146L122.464 49.9147C118.316 48.9825 120.096 41.8322 120.236 38.2523C118.786 37.6191 117.544 36.5911 116.65 35.2856C115.757 33.98 115.249 32.4496 115.183 30.8689C113.998 30.1121 112.998 29.0983 112.257 27.9025C111.516 26.7067 111.054 25.3596 110.904 23.961Z" fill="#2D2F34"/>
<path d="M122.548 48.3579C122.67 45.8967 125.681 45.3653 127.816 46.6052C128.99 47.2765 129.885 48.6375 129.783 51.2665C129.494 58.2303 122.548 56.5057 122.548 56.3099C122.548 56.1142 122.409 51.2385 122.548 48.3579Z" fill="#FFBE9D"/>
<path d="M124.786 53.7462C124.786 53.7462 124.907 53.8395 125.103 53.9327C125.246 54.0047 125.402 54.0476 125.562 54.0588C125.722 54.07 125.883 54.0493 126.035 53.998C126.494 53.7283 126.875 53.3427 127.138 52.8796C127.402 52.4166 127.539 51.8924 127.536 51.3597C127.575 50.7627 127.483 50.1644 127.265 49.6071C127.205 49.3925 127.094 49.1956 126.942 49.0332C126.789 48.8709 126.6 48.7479 126.389 48.6748C126.252 48.63 126.104 48.6354 125.971 48.6901C125.837 48.7448 125.728 48.8451 125.662 48.9731C125.559 49.1689 125.597 49.3088 125.559 49.3181C125.522 49.3274 125.41 49.1969 125.485 48.9079C125.528 48.7354 125.63 48.5835 125.774 48.4791C125.973 48.3433 126.217 48.2898 126.454 48.3299C126.738 48.4006 126.998 48.5421 127.212 48.741C127.425 48.9399 127.585 49.1898 127.676 49.4672C127.946 50.0825 128.065 50.7541 128.021 51.425C127.918 52.8327 127.144 54.1098 126.156 54.3615C125.967 54.4099 125.77 54.414 125.579 54.3736C125.388 54.3332 125.209 54.2493 125.056 54.1285C124.795 53.8954 124.758 53.7556 124.786 53.7462Z" fill="#EB996E"/>
<path d="M125.606 56.6923C125.608 56.7203 125.608 56.7483 125.606 56.7762C125.627 56.8708 125.662 56.9619 125.709 57.0466C125.896 57.367 126.185 57.6162 126.529 57.7551C127.074 57.9856 127.662 58.0969 128.254 58.0814C128.628 58.0892 129.003 58.0611 129.372 57.9975C129.799 57.9374 130.214 57.8116 130.603 57.6246H130.519C130.62 58.1551 130.84 58.6558 131.163 59.0886C131.486 59.5215 131.904 59.8752 132.383 60.123C132.97 60.4042 133.624 60.5166 134.271 60.4474C134.918 60.3783 135.533 60.1304 136.047 59.7314H135.935C136.043 59.8884 136.181 60.022 136.341 60.1245C136.501 60.2271 136.68 60.2963 136.867 60.3281C137.243 60.3983 137.632 60.3595 137.986 60.2162C138.375 60.0806 138.705 59.8136 138.918 59.4611C139.131 59.116 139.247 58.7199 139.254 58.3144C139.273 57.4742 138.992 56.6547 138.462 56.0025C137.915 55.341 137.288 54.7492 136.597 54.2405V54.4083C136.883 54.2199 137.126 53.9743 137.312 53.6871C137.499 53.3999 137.623 53.0773 137.679 52.7396C137.802 52.0478 137.721 51.3352 137.446 50.6887C137.147 50.0396 136.722 49.4565 136.196 48.9733C135.672 48.4788 135.115 48.0209 134.528 47.6029V47.7614C134.77 47.4856 134.953 47.1628 135.065 46.8132C135.178 46.4635 135.217 46.0945 135.18 45.7291C135.122 44.9751 134.836 44.2565 134.36 43.6688C133.404 42.651 132.231 41.8609 130.929 41.3569L130.985 41.4687C131.139 40.7435 131.117 39.9921 130.922 39.2769C130.727 38.5617 130.364 37.9033 129.864 37.3564C129.363 36.8095 128.74 36.3898 128.045 36.1322C127.35 35.8746 126.603 35.7865 125.867 35.8753L125.979 35.9871C126.111 35.3636 126.092 34.7174 125.924 34.1027C125.755 33.4879 125.441 32.9226 125.009 32.4539C124.647 32.019 124.194 31.6685 123.682 31.427C123.17 31.1855 122.611 31.0587 122.045 31.0556L122.138 31.1394C122.11 30.5472 121.949 29.9689 121.666 29.4475C121.384 28.9262 120.987 28.4753 120.507 28.1283C120.097 27.8081 119.625 27.5757 119.122 27.4458C118.618 27.3159 118.093 27.2912 117.579 27.3732L117.663 27.4384C117.616 26.8044 117.411 26.1924 117.067 25.6579C116.783 25.181 116.42 24.7555 115.995 24.3993C115.33 23.8088 114.486 23.4605 113.599 23.4111H113.338H113.086C112.939 23.4188 112.792 23.4375 112.648 23.4671C112.422 23.5151 112.201 23.5806 111.986 23.6628L111.604 23.84L111.473 23.9052H111.604L111.995 23.7467C112.213 23.676 112.433 23.6169 112.657 23.5696C112.802 23.5434 112.948 23.5278 113.095 23.523H113.338H113.589C114.456 23.5864 115.276 23.9375 115.92 24.5205C116.336 24.871 116.69 25.2904 116.964 25.7604C117.291 26.2766 117.483 26.8663 117.523 27.4757V27.5503H117.551C118.044 27.4819 118.545 27.5127 119.025 27.6408C119.505 27.7689 119.955 27.9917 120.348 28.2961C120.806 28.631 121.183 29.0646 121.451 29.5648C121.719 30.0651 121.871 30.6192 121.896 31.1861V31.27H121.98C122.534 31.2976 123.076 31.4411 123.571 31.6912C124.067 31.9413 124.504 32.2924 124.856 32.7219C125.207 33.1514 125.464 33.6498 125.611 34.1849C125.758 34.72 125.791 35.2799 125.709 35.8286V35.9685H125.848C126.557 35.8747 127.277 35.9539 127.948 36.1994C128.618 36.445 129.22 36.8495 129.7 37.3783C130.18 37.9071 130.525 38.5445 130.705 39.2358C130.885 39.9271 130.895 40.6517 130.733 41.3475V41.4315H130.808C132.081 41.9242 133.227 42.695 134.164 43.6875C134.607 44.2435 134.877 44.9181 134.938 45.6266C134.975 45.9618 134.941 46.3012 134.839 46.6225C134.736 46.9438 134.566 47.2398 134.341 47.4911L134.257 47.575L134.36 47.6495C135.552 48.3894 136.534 49.423 137.212 50.6514C137.471 51.2598 137.549 51.9297 137.436 52.5811C137.385 52.8914 137.271 53.1879 137.101 53.4525C136.931 53.717 136.709 53.944 136.448 54.1193L136.327 54.1939L136.439 54.2778C137.13 54.7691 137.756 55.3454 138.303 55.9931C138.806 56.6117 139.077 57.3868 139.068 58.1839C139.076 58.5541 138.975 58.9185 138.775 59.2307C138.576 59.5428 138.288 59.7885 137.949 59.9365C137.637 60.0882 137.284 60.1301 136.945 60.0557C136.607 59.9813 136.304 59.7947 136.084 59.5263V59.4518L136.019 59.5077C135.568 59.862 135.034 60.0942 134.467 60.1819C133.901 60.2696 133.321 60.2099 132.784 60.0085C132.248 59.807 131.772 59.4707 131.403 59.032C131.034 58.5932 130.784 58.0667 130.677 57.5034V57.4195H130.603C130.233 57.608 129.837 57.74 129.428 57.811C129.066 57.8804 128.697 57.9148 128.328 57.9136C127.745 57.9269 127.166 57.8255 126.622 57.6153C126.282 57.4918 125.996 57.2547 125.811 56.944C125.643 56.7856 125.625 56.6923 125.606 56.6923Z" fill="#5F646F"/>
<path d="M152.045 48.7681C152.141 48.6356 152.225 48.4953 152.297 48.3486C152.505 47.9138 152.622 47.4412 152.642 46.9595C152.69 46.1879 152.477 45.4225 152.036 44.7874C151.742 44.365 151.365 44.0078 150.927 43.7382C150.489 43.4687 150 43.2927 149.491 43.2212L149.547 43.3051C149.708 42.3821 149.598 41.4322 149.231 40.5702C148.864 39.7082 148.254 38.9711 147.477 38.4481C146.867 38.0986 146.224 37.8112 145.557 37.5905C145.223 37.4565 144.91 37.2778 144.624 37.0591C144.347 36.8297 144.127 36.5394 143.981 36.2107C143.655 35.5488 143.543 34.7658 143.142 34.0479C142.711 33.3229 142.074 32.7424 141.312 32.3805C140.55 32.0186 139.697 31.8916 138.863 32.0156L138.984 32.1368C139.088 31.2892 138.997 30.429 138.717 29.6221C138.437 28.8153 137.977 28.0832 137.37 27.482C136.763 26.8808 136.027 26.4266 135.218 26.154C134.409 25.8814 133.548 25.7977 132.701 25.9094L132.822 26.0213C132.905 25.0915 132.721 24.1573 132.291 23.3286C131.861 22.4999 131.204 21.8111 130.396 21.3431C129.588 20.8751 128.664 20.6474 127.731 20.6868C126.799 20.7261 125.897 21.0308 125.131 21.5652H125.243C124.534 20.9147 123.695 20.4222 122.782 20.1202C121.972 19.8369 121.129 19.6583 120.274 19.5888C118.891 19.4584 117.496 19.5752 116.154 19.9337C115.291 20.1566 114.47 20.5153 113.72 20.9965C113.523 21.1207 113.336 21.261 113.161 21.416L112.975 21.5745C112.975 21.5745 113.236 21.3694 113.748 21.0431C114.501 20.5815 115.323 20.2417 116.182 20.0363C117.515 19.7005 118.897 19.5995 120.265 19.7379C121.109 19.8075 121.939 19.9893 122.735 20.2787C123.623 20.5744 124.437 21.0577 125.122 21.6957V21.7423H125.187C125.923 21.2287 126.79 20.936 127.686 20.8986C128.582 20.8613 129.471 21.0808 130.247 21.5314C131.022 21.982 131.653 22.6448 132.065 23.4419C132.477 24.239 132.652 25.1372 132.57 26.0306V26.1611H132.692C133.507 26.0503 134.338 26.1285 135.118 26.3897C135.899 26.6509 136.609 27.088 137.194 27.6674C137.779 28.2468 138.222 28.9529 138.491 29.7311C138.759 30.5093 138.845 31.3388 138.742 32.1555V32.2953H138.882C139.674 32.1772 140.484 32.2977 141.208 32.6413C141.932 32.985 142.537 33.5363 142.946 34.225C143.329 34.8869 143.45 35.67 143.785 36.3692C143.945 36.7312 144.188 37.0505 144.494 37.3015C144.778 37.5263 145.092 37.7113 145.426 37.8515C146.073 38.0713 146.697 38.3522 147.291 38.6905C147.83 39.0476 148.287 39.5146 148.633 40.0609C149.269 41.0389 149.515 42.2198 149.323 43.3704V43.445H149.397C149.892 43.5079 150.367 43.673 150.794 43.9298C151.221 44.1866 151.59 44.5294 151.877 44.9366C152.304 45.5543 152.52 46.2932 152.493 47.0434C152.48 47.5159 152.376 47.9814 152.185 48.4138C152.101 48.6283 152.045 48.7681 152.045 48.7681Z" fill="#5F646F"/>
<path d="M85.4447 51.7699C85.4853 51.679 85.5063 51.5805 85.5063 51.4809C85.5063 51.3813 85.4853 51.2829 85.4447 51.1919C85.3534 50.971 85.2093 50.7757 85.0251 50.6233C84.766 50.4287 84.4715 50.2863 84.1582 50.2038C83.7755 50.115 83.4081 49.9705 83.0674 49.7749C82.6876 49.5012 82.4064 49.1121 82.2657 48.6656C82.0957 48.1555 82.0261 47.6173 82.0606 47.0807C82.0606 46.5027 82.1538 45.8875 82.1445 45.2162C81.9895 43.8182 81.6767 42.4421 81.2123 41.1144C81.0142 40.3666 80.9699 39.5864 81.0818 38.821C81.1329 38.4226 81.2693 38.0398 81.4816 37.6987C81.694 37.3577 81.9773 37.0664 82.3123 36.8447C83.0799 36.4532 83.8944 36.1618 84.7361 35.9777C85.1804 35.8465 85.5996 35.6417 85.9761 35.3717C86.3528 35.0782 86.648 34.693 86.8337 34.253C87.1649 33.3487 87.3963 32.4109 87.5236 31.4563C87.6083 30.9945 87.7623 30.5482 87.9804 30.1325C88.2061 29.7174 88.5636 29.3894 88.9965 29.2002C89.6218 29.0227 90.2671 28.9255 90.9169 28.9112C91.239 28.8712 91.5532 28.7832 91.8492 28.6502C92.1585 28.4974 92.4221 28.2659 92.6136 27.979C92.9272 27.417 93.1625 26.8148 93.3128 26.1891C93.5563 25.3395 94.0574 24.5865 94.747 24.0338C95.4367 23.4811 96.2808 23.156 97.163 23.1034C98.248 23.0589 99.3099 23.4251 100.137 24.1288L100.23 24.2127L100.286 24.0915C100.668 23.2309 101.229 22.4616 101.931 21.8347C102.634 21.2078 103.462 20.7377 104.36 20.4558C105.111 20.2276 105.899 20.1453 106.681 20.2134C107.346 20.2653 107.997 20.4358 108.602 20.7168C109.456 21.127 110.174 21.7742 110.671 22.5813C110.809 22.7874 110.928 23.0058 111.026 23.2339L111.109 23.4017V23.4576V23.3924L111.035 23.2152C110.944 22.9846 110.831 22.7631 110.699 22.5533C110.21 21.7402 109.489 21.0912 108.63 20.6888C108.018 20.3938 107.358 20.2137 106.681 20.1575C105.879 20.0734 105.068 20.1494 104.295 20.3812C103.368 20.6643 102.514 21.144 101.79 21.7875C101.066 22.4311 100.489 23.2234 100.1 24.1102H100.239C99.3803 23.3736 98.2753 22.9875 97.1443 23.0288C96.538 23.0577 95.9443 23.2118 95.4004 23.4814C94.8565 23.7509 94.3743 24.13 93.984 24.595C93.576 25.08 93.2743 25.6454 93.0984 26.2544C92.9515 26.8606 92.7226 27.444 92.4179 27.9883C92.2326 28.2364 91.994 28.4397 91.7197 28.5833C91.4455 28.7268 91.1424 28.8071 90.833 28.818C90.1643 28.8404 89.5006 28.9437 88.8567 29.1257C88.388 29.3329 87.9989 29.6861 87.7473 30.1325C87.5159 30.5681 87.3524 31.0365 87.2626 31.5215C87.1326 32.4465 86.9077 33.3556 86.5913 34.2344C86.4318 34.6278 86.1791 34.9765 85.8549 35.2505C85.4967 35.5025 85.1 35.6946 84.6802 35.8192C83.8206 36.0241 82.9904 36.3373 82.2098 36.7514C81.8261 36.9796 81.5056 37.3 81.2775 37.6837C81.0697 38.05 80.9306 38.4513 80.8673 38.8676C80.758 39.6554 80.8055 40.4569 81.0072 41.2262C81.4834 42.5405 81.8117 43.9038 81.986 45.2908C81.986 45.9248 81.9301 46.54 81.9208 47.1553C81.8868 47.7086 81.9629 48.2631 82.1445 48.7867C82.2953 49.256 82.5968 49.6624 83.0022 49.9427C83.3552 50.14 83.7353 50.2845 84.1302 50.3716C84.4374 50.4409 84.7265 50.5743 84.9785 50.7631C85.1598 50.9032 85.3039 51.0857 85.3981 51.2945C85.4599 51.445 85.4761 51.6103 85.4447 51.7699Z" fill="#5F646F"/>
<path d="M71.75 41.2075L71.8153 41.077L72.0017 40.6854L72.7009 39.1565C72.9992 38.504 73.3442 37.6743 73.8289 36.7793C74.3404 35.7332 75.1349 34.8515 76.1222 34.2343C76.6816 33.9266 77.3248 33.7122 77.9867 33.4046C78.3215 33.2575 78.635 33.0663 78.919 32.8359C79.2255 32.5877 79.4657 32.2674 79.6182 31.9037C79.9351 31.1765 79.9258 30.3561 80.1775 29.6103C80.3023 29.244 80.5286 28.9207 80.8301 28.6781C81.1721 28.4422 81.5498 28.2628 81.9488 28.1467C82.3696 28.0184 82.7783 27.853 83.17 27.6526C83.5748 27.4225 83.9 27.0746 84.1023 26.6551C84.4057 25.7794 84.5907 24.867 84.6523 23.9423C84.7103 23.4883 84.8594 23.0508 85.0904 22.6558C85.3457 22.2731 85.7405 22.0055 86.1905 21.91C87.1227 21.7049 88.055 22.0032 89.1084 21.8261C89.6143 21.7267 90.0769 21.4726 90.4322 21.0989C90.7625 20.7304 91.0473 20.3235 91.2806 19.887C91.5084 19.4706 91.7574 19.0661 92.0264 18.6751C92.2739 18.281 92.6212 17.9593 93.0332 17.7428C93.8889 17.4537 94.8158 17.4537 95.6714 17.7428C96.5295 17.9993 97.4335 18.0629 98.319 17.9293C99.1391 17.7088 99.9128 17.3425 100.603 16.8479C101.24 16.3899 101.921 15.9965 102.635 15.6733C103.963 15.2038 105.399 15.1357 106.765 15.4775C107.895 15.7455 108.95 16.2649 109.851 16.997C110.523 17.5641 111.105 18.2306 111.576 18.9734C111.869 19.4436 112.119 19.9398 112.321 20.4557L112.498 20.8565L112.554 20.9871C112.554 20.9871 112.554 20.9404 112.554 20.8472C112.554 20.754 112.461 20.6142 112.405 20.437C112.21 19.9138 111.97 19.4085 111.687 18.9268C111.22 18.1704 110.642 17.4885 109.972 16.9038C109.059 16.1514 107.988 15.613 106.84 15.3283C105.444 14.9743 103.975 15.0391 102.617 15.5148C101.89 15.8369 101.196 16.2304 100.547 16.6894C99.8737 17.1714 99.1189 17.5283 98.319 17.7428C97.4604 17.8665 96.5852 17.7997 95.7553 17.5471C95.3078 17.441 94.8528 17.3693 94.3943 17.3327C93.9145 17.3001 93.4342 17.3865 92.9959 17.5844C92.5574 17.795 92.1815 18.1163 91.9052 18.5166C91.6292 18.9114 91.3771 19.3223 91.15 19.7472C90.9232 20.1693 90.6479 20.5635 90.3297 20.9218C90.0077 21.2692 89.583 21.5044 89.1178 21.593C88.1855 21.7702 87.1787 21.4625 86.1905 21.6769C85.6907 21.7835 85.2524 22.0813 84.9692 22.5066C84.7191 22.9263 84.5574 23.3926 84.4938 23.877C84.4362 24.7816 84.2607 25.6748 83.9718 26.5339C83.7919 26.9277 83.4916 27.2542 83.1141 27.4662C82.7361 27.6658 82.3396 27.8282 81.9301 27.9509C81.5125 28.0736 81.1185 28.2658 80.7648 28.5196C80.4264 28.7918 80.1766 29.1585 80.047 29.573C79.7953 30.3748 79.7953 31.1765 79.497 31.8664C79.1806 32.5187 78.6271 33.0256 77.9494 33.2834C77.3155 33.5817 76.6629 33.7961 76.0849 34.1224C75.08 34.7597 74.2754 35.6677 73.7637 36.742C73.2789 37.6743 72.9526 38.4853 72.6543 39.1472C72.356 39.8091 72.1602 40.3218 72.0017 40.6854C71.9365 40.8532 71.8805 40.9837 71.8339 41.0863C71.8028 41.1244 71.7747 41.1649 71.75 41.2075Z" fill="#5F646F"/>
<path d="M79.0403 33.7963H78.9098C78.7837 33.7949 78.659 33.8237 78.5462 33.8802C78.3406 34.0176 78.1719 34.2033 78.0549 34.4211C77.9378 34.6389 77.8761 34.8821 77.875 35.1294C77.8756 35.4803 77.929 35.8292 78.0335 36.1642C78.156 36.5539 78.225 36.9585 78.2386 37.3668C78.197 37.8331 78.033 38.2801 77.7632 38.6626C77.5021 39.0915 77.1665 39.511 76.8962 40.0144C76.7399 40.2762 76.6459 40.5704 76.6217 40.8744C76.5974 41.1783 76.6435 41.4837 76.7563 41.767C76.98 42.3543 77.4275 42.8484 77.642 43.445C77.8399 44.0815 77.783 44.77 77.4835 45.3655C77.2224 46.0087 76.8496 46.6333 76.5978 47.3418C76.4582 47.7046 76.3887 48.0905 76.3927 48.4792C76.4033 48.8769 76.4987 49.2679 76.6724 49.6258C77.0636 50.3197 77.5193 50.9752 78.0335 51.5836C78.555 52.1952 78.8278 52.9804 78.7979 53.7837C78.6264 54.5992 78.3572 55.3911 77.9962 56.1422C77.84 56.5531 77.761 56.9892 77.7632 57.4287C77.7787 57.8664 77.8969 58.2943 78.1081 58.678C78.5433 59.3822 79.0595 60.033 79.6463 60.617C80.1927 61.1769 80.6179 61.8433 80.8955 62.5747C81.0996 63.3084 81.3518 64.0278 81.6506 64.7282C81.8235 65.0663 82.0685 65.3623 82.3685 65.5952C82.6712 65.8055 83.0089 65.9602 83.3659 66.052C83.6826 66.1469 83.9938 66.2589 84.2982 66.3876C84.5926 66.5249 84.8658 66.7039 85.1093 66.919C85.5649 67.3529 85.9572 67.8487 86.2746 68.392C86.6102 68.9047 86.9085 69.4081 87.2534 69.8556C87.8604 70.6888 88.7204 71.3035 89.7052 71.6082C90.4443 71.8344 91.2241 71.8949 91.9892 71.7853C92.468 71.7124 92.9331 71.5678 93.3689 71.3565C93.5169 71.278 93.6601 71.1908 93.7978 71.0955C93.1862 71.4392 92.5097 71.6515 91.8114 71.7189C91.1132 71.7864 90.4085 71.7074 89.7425 71.487C88.7897 71.184 87.9595 70.5826 87.3746 69.7717C87.039 69.3242 86.7407 68.8394 86.4424 68.2987C86.115 67.746 85.717 67.2383 85.2584 66.7885C85.0011 66.5589 84.7123 66.3674 84.4007 66.2198C84.0779 66.0869 83.748 65.9717 83.4126 65.8749C83.0791 65.7878 82.7635 65.6426 82.4803 65.4461C82.1988 65.2293 81.9694 64.9521 81.8091 64.635C81.5162 63.9407 81.2701 63.2274 81.0726 62.5002C80.787 61.7475 80.349 61.062 79.7861 60.4865C79.2141 59.9092 78.7105 59.2679 78.2852 58.5754C78.094 58.2183 77.9827 57.8238 77.9589 57.4194C77.9632 57.0078 78.0422 56.6003 78.192 56.2168C78.5564 55.4467 78.8287 54.6363 79.003 53.8023C79.0415 53.3731 78.9743 52.941 78.8073 52.5438C78.6451 52.1605 78.4386 51.7976 78.192 51.4624C77.6834 50.8638 77.2338 50.2176 76.8495 49.5326C76.6827 49.2024 76.5904 48.8396 76.5792 48.4698C76.5752 48.1071 76.6384 47.7468 76.7656 47.4071C77.008 46.7172 77.3809 46.0926 77.6513 45.4307C77.9597 44.7908 78.013 44.0576 77.8004 43.3798C77.558 42.7459 77.1106 42.2611 76.8682 41.7111C76.763 41.4478 76.7193 41.164 76.7403 40.8813C76.7613 40.5987 76.8465 40.3245 76.9894 40.0796C77.2504 39.5949 77.5767 39.1474 77.8471 38.7372C78.1209 38.3331 78.2818 37.8632 78.3132 37.3761C78.3006 36.9578 78.2284 36.5435 78.0987 36.1456C77.9877 35.8177 77.9249 35.4754 77.9123 35.1294C77.91 34.8928 77.9647 34.6592 78.0718 34.4482C78.1789 34.2373 78.3353 34.0552 78.5276 33.9175C78.6833 33.8286 78.8613 33.7866 79.0403 33.7963Z" fill="#5F646F"/>
<path d="M151.84 48.5443C152.025 48.5433 152.21 48.5214 152.39 48.479C153.074 48.3316 153.705 48.0001 154.214 47.5203C154.723 47.0406 155.092 46.4308 155.28 45.7569C155.423 45.1981 155.442 44.6148 155.336 44.048C155.229 43.4811 155 42.9443 154.665 42.4754C154.24 41.9605 153.765 41.489 153.248 41.0677C152.683 40.6301 152.227 40.0687 151.914 39.4269C151.665 38.7066 151.691 37.9193 151.989 37.2175C152.25 36.4624 152.642 35.7352 152.921 34.8962C153.186 33.9831 153.257 33.0247 153.131 32.0825C153.004 31.1402 152.682 30.2347 152.185 29.424C151.689 28.6133 151.028 27.9151 150.246 27.3741C149.465 26.8331 148.579 26.4613 147.645 26.2823L147.71 26.4407C148.027 25.9871 148.225 25.4616 148.288 24.9118C148.35 24.3591 148.309 23.7995 148.167 23.2618C148.015 22.7168 147.769 22.2026 147.44 21.7422C147.102 21.2802 146.696 20.8717 146.237 20.5303C144.861 19.5874 143.284 18.9778 141.632 18.7497C140.092 18.4822 138.523 18.4382 136.971 18.6192L137.082 18.7124C137.039 17.8112 136.749 16.9392 136.245 16.1913C135.74 15.4434 135.04 14.8483 134.22 14.4707C133.452 14.124 132.609 13.9765 131.769 14.0419C130.984 14.1412 130.217 14.3548 129.494 14.6758C129.149 14.8094 128.789 14.9002 128.422 14.9461C128.067 14.9773 127.71 14.9425 127.368 14.8436C126.715 14.6297 126.089 14.3387 125.504 13.9766C124.949 13.6441 124.354 13.3841 123.733 13.2028C122.954 12.9846 122.139 12.9275 121.338 13.0349C120.536 13.1423 119.765 13.4119 119.071 13.8274C118.426 14.2142 117.859 14.7204 117.403 15.319C117.115 15.6922 116.874 16.0992 116.685 16.5309C116.615 16.6777 116.559 16.8306 116.517 16.9878C116.517 16.9878 116.582 16.8293 116.713 16.5403C116.917 16.1243 117.164 15.7307 117.449 15.3656C117.913 14.7835 118.478 14.2907 119.118 13.9113C119.967 13.4121 120.93 13.1393 121.915 13.1189C122.497 13.1091 123.077 13.1813 123.639 13.3334C124.249 13.5179 124.832 13.7812 125.373 14.1164C125.958 14.4835 126.584 14.7807 127.238 15.0021C127.597 15.1101 127.974 15.1481 128.347 15.1139C128.726 15.0659 129.098 14.9752 129.457 14.8436C130.165 14.5286 130.916 14.3182 131.685 14.219C132.497 14.1669 133.31 14.3141 134.053 14.6478C134.836 15.0137 135.504 15.5865 135.986 16.3045C136.467 17.0224 136.743 17.8583 136.784 18.7217V18.8336H136.896C138.448 18.6509 140.018 18.6949 141.557 18.9641C143.178 19.1899 144.725 19.7865 146.079 20.7074C146.516 21.0406 146.905 21.4327 147.235 21.8727C147.547 22.3138 147.781 22.8059 147.924 23.327C148.062 23.837 148.103 24.3681 148.046 24.8932C147.981 25.4106 147.796 25.9057 147.505 26.3382L147.412 26.4687H147.57C148.481 26.6408 149.345 27.0017 150.108 27.5281C150.871 28.0545 151.515 28.7347 151.998 29.5251C152.482 30.3154 152.795 31.1984 152.917 32.117C153.039 33.0356 152.968 33.9697 152.707 34.8589C152.483 35.67 152.082 36.4064 151.831 37.1709C151.516 37.9119 151.493 38.7441 151.765 39.5015C152.094 40.1596 152.565 40.7361 153.145 41.1889C153.661 41.5983 154.133 42.0607 154.553 42.5686C154.884 43.0184 155.111 43.5357 155.219 44.0836C155.327 44.6315 155.313 45.1965 155.177 45.7382C154.97 46.5589 154.482 47.2812 153.798 47.7798C153.378 48.1015 152.895 48.3303 152.381 48.4511C152.045 48.5256 151.831 48.535 151.84 48.5443Z" fill="#2D2F34"/>
<path d="M76.5324 29.0511C76.5324 29.0511 76.5324 29.0511 76.5324 28.9113C76.5324 28.7714 76.5324 28.6875 76.5324 28.5197C76.5324 28.1655 76.5977 27.662 76.6443 27.0188C76.6909 26.3755 76.7842 25.5645 76.952 24.6509C77.1228 23.6138 77.4137 22.6002 77.8189 21.6304C78.3154 20.4591 79.0559 19.4072 79.9911 18.5447C80.5206 18.0807 81.1179 17.7003 81.7623 17.4167C82.4672 17.1559 83.1862 16.9349 83.9158 16.7548C84.7025 16.5669 85.444 16.2247 86.0973 15.7479C86.7545 15.2274 87.3433 14.626 87.8499 13.958C88.3813 13.2961 88.8754 12.5969 89.472 11.9723C90.0548 11.3236 90.7535 10.7893 91.5323 10.3968C93.1066 9.67012 94.8142 9.27657 96.5478 9.24087C98.1645 9.16283 99.7847 9.20333 101.395 9.36205C104.131 9.61192 106.805 10.3145 109.31 11.441C110.991 12.2075 112.539 13.2365 113.897 14.4894C114.139 14.7131 114.354 14.9089 114.531 15.086L114.96 15.5615L115.221 15.8505L115.323 15.9437L115.239 15.8412L114.988 15.5335L114.577 15.0488L113.953 14.4242C112.602 13.1425 111.054 12.0879 109.366 11.3011C106.854 10.1514 104.165 9.43286 101.414 9.1756C99.7948 9.00579 98.1649 8.95905 96.5384 9.03577C94.7766 9.0693 93.0406 9.46601 91.439 10.2011C90.6404 10.6122 89.9208 11.1614 89.3135 11.8232C88.7169 12.4664 88.2135 13.1749 87.6821 13.8275C87.1913 14.4855 86.618 15.0777 85.9761 15.5895C85.3405 16.0493 84.6218 16.3817 83.8599 16.5683C83.1225 16.7501 82.3971 16.9774 81.6878 17.2489C81.026 17.5372 80.4153 17.9308 79.8792 18.4142C78.9293 19.297 78.1818 20.3752 77.6884 21.5745C77.2824 22.5562 76.9945 23.5826 76.8308 24.6322C76.7029 25.4196 76.6158 26.2131 76.5697 27.0095C76.5231 27.6621 76.5045 28.1748 76.4858 28.5197V28.9113C76.5325 29.0045 76.5324 29.0511 76.5324 29.0511Z" fill="#2D2F34"/>
<path d="M105.666 56.021L100.576 57.988L100.091 58.1745C100.32 59.0597 100.661 59.9119 101.107 60.7102C101.306 61.049 101.575 61.341 101.897 61.5662C102.219 61.7914 102.585 61.9446 102.971 62.0153C103.629 62.0502 104.282 61.8774 104.836 61.5212C105.257 61.2301 105.612 60.854 105.878 60.4173C106.145 59.9805 106.317 59.4928 106.383 58.9855C106.47 58.4685 106.452 57.9393 106.328 57.4297C106.205 56.9202 105.979 56.441 105.666 56.021Z" fill="#EB996E"/>
<path d="M102.719 62.034C103.403 62.0289 104.073 61.8492 104.668 61.5119C105.278 61.1145 105.738 60.5236 105.973 59.8339C106.258 58.9839 106.258 58.0642 105.973 57.2143C105.896 56.9913 105.806 56.7734 105.703 56.5617C105.666 56.4738 105.615 56.392 105.553 56.3193C105.507 56.3193 105.553 56.3193 105.451 56.3193L104.211 56.8134L102.076 57.6431C101.429 57.9319 100.755 58.1537 100.062 58.305C100.65 57.9297 101.275 57.6172 101.927 57.3728L104.025 56.4405C104.435 56.2634 104.817 56.0956 105.292 55.9091C105.386 55.8758 105.488 55.8694 105.585 55.8909C105.682 55.9123 105.771 55.9606 105.842 56.0303C105.937 56.14 106.015 56.2624 106.076 56.3939C106.193 56.6243 106.289 56.8645 106.364 57.1117C106.701 58.0456 106.701 59.0678 106.364 60.0017C106.084 60.7661 105.543 61.4067 104.836 61.8103C104.365 62.0779 103.829 62.2102 103.288 62.1925C103.087 62.1982 102.889 62.143 102.719 62.034Z" fill="#2D2F34"/>
<path d="M129.671 55.4522C130.052 55.5906 130.407 55.7889 130.725 56.0396C131.614 56.7185 132.23 57.6946 132.459 58.7897C132.636 59.5407 132.636 60.3226 132.459 61.0737C132.236 61.935 131.811 62.7308 131.219 63.395C130.575 64.1334 129.754 64.695 128.832 65.0264C127.832 65.3761 126.75 65.4151 125.728 65.1383C124.702 64.8777 123.771 64.3314 123.043 63.5628C122.362 62.8491 121.905 61.9513 121.729 60.9805C121.578 60.1649 121.617 59.3256 121.842 58.5273C122.066 57.7289 122.471 56.9927 123.024 56.3752C123.473 55.928 124.005 55.5732 124.591 55.331C125.027 55.1384 125.488 55.0097 125.961 54.9488C126.269 54.8947 126.585 54.8947 126.893 54.9488C126.996 54.9619 127.097 54.9902 127.192 55.0327C126.802 54.9781 126.407 54.9781 126.017 55.0327C125.56 55.1107 125.114 55.2486 124.693 55.4429C124.134 55.6934 123.628 56.0477 123.202 56.487C122.68 57.0867 122.302 57.7968 122.096 58.5639C121.889 59.3309 121.859 60.1349 122.008 60.9152C122.184 61.8363 122.621 62.6875 123.267 63.367C123.966 64.0953 124.853 64.615 125.83 64.8679C126.801 65.1266 127.828 65.0876 128.776 64.7561C129.664 64.4462 130.457 63.9133 131.079 63.2085C131.649 62.5775 132.061 61.8203 132.282 60.9991C132.464 60.2819 132.48 59.5326 132.328 58.8083C132.117 57.7462 131.547 56.7888 130.715 56.0955C130.1 55.6387 129.671 55.4802 129.671 55.4522Z" fill="#90959F"/>
<path d="M108.472 46.0366C108.456 46.4311 108.596 46.8159 108.861 47.1086C109.126 47.4013 109.495 47.5787 109.889 47.6028C110.081 47.6233 110.275 47.6051 110.46 47.5493C110.645 47.4934 110.817 47.4011 110.966 47.2776C111.114 47.1542 111.237 47.0023 111.325 46.8307C111.414 46.6592 111.468 46.4716 111.483 46.279C111.496 45.8852 111.355 45.5017 111.091 45.2095C110.827 44.9173 110.459 44.7392 110.066 44.7128C109.874 44.6936 109.68 44.7127 109.496 44.7691C109.312 44.8254 109.14 44.9179 108.992 45.041C108.843 45.1642 108.721 45.3157 108.632 45.4866C108.543 45.6575 108.488 45.8445 108.472 46.0366Z" fill="#2D2F34"/>
<path d="M93.3971 45.2629C93.3818 45.6574 93.5215 46.0422 93.7863 46.3349C94.0512 46.6276 94.4201 46.805 94.8141 46.8291C95.0062 46.8496 95.2005 46.8314 95.3854 46.7756C95.5704 46.7197 95.7423 46.6274 95.8909 46.504C96.0395 46.3806 96.1619 46.2286 96.2508 46.057C96.3396 45.8855 96.3932 45.6979 96.4083 45.5053C96.4189 45.1121 96.2776 44.7299 96.0137 44.4382C95.7498 44.1465 95.3836 43.9678 94.9913 43.9391C94.7994 43.9199 94.6057 43.939 94.4213 43.9954C94.2368 44.0517 94.0655 44.1442 93.9171 44.2674C93.7688 44.3905 93.6464 44.542 93.5571 44.7129C93.4679 44.8838 93.4135 45.0708 93.3971 45.2629Z" fill="#2D2F34"/>
<path d="M91.3921 41.4592C91.5692 41.7296 92.9303 40.7694 94.6922 40.9372C96.4542 41.105 97.6474 42.2516 97.8712 42.0186C98.0949 41.7855 97.8152 41.4499 97.3025 40.9185C96.6335 40.2421 95.7456 39.8257 94.7978 39.7437C93.8499 39.6617 92.9038 39.9195 92.1285 40.4711C91.5412 40.9092 91.3082 41.3381 91.3921 41.4592Z" fill="#2D2F34"/>
<path d="M106.681 42.2703C106.905 42.5127 108.229 41.4499 110.121 41.4313C112.014 41.4126 113.403 42.4195 113.608 42.1678C113.71 42.0559 113.487 41.6177 112.881 41.1516C112.077 40.5397 111.094 40.2118 110.084 40.2194C109.095 40.2171 108.134 40.5452 107.353 41.1516C106.775 41.7203 106.579 42.1678 106.681 42.2703Z" fill="#2D2F34"/>
<path d="M51.9116 295.254L27.9995 220.833C27.9995 220.833 29.1462 208.714 31.5514 204.919C33.9566 201.125 102.859 181.539 102.859 181.539C102.859 181.539 120.348 178.089 131.759 182.741C143.169 187.393 154.645 192.996 153.2 201.069C152.954 202.296 152.605 203.5 152.156 204.668C149.984 210.292 146.136 215.113 141.134 218.48C136.132 221.846 130.217 223.595 124.189 223.49L115.165 224.124L68.981 230.966C68.4936 231.038 68.0267 231.212 67.6107 231.476C67.1947 231.74 66.8389 232.089 66.5664 232.499C66.2939 232.91 66.1107 233.373 66.0289 233.859C65.947 234.345 65.9682 234.843 66.0911 235.32L78.8442 285.251C78.8442 285.251 62.2223 292.467 51.9116 295.254Z" fill="#2D2F34"/>
<path d="M44.426 172.291C44.426 172.291 32.9314 170.892 31.1321 183.347C29.3329 195.802 20.8774 253.508 20.8774 253.508L52.4619 257.461L59.1089 198.002L102.831 181.501C102.831 181.501 52.1823 171.051 44.426 172.291Z" fill="#2D2F34"/>
<path d="M92.6326 157.431C92.6326 157.431 84.8205 176.747 86.107 178.994C87.3934 181.24 104.92 190.936 104.92 190.936L149.248 210.121C152.607 204.539 154.466 198.184 154.646 191.672C155.112 180.373 140.298 159.407 140.298 159.407L92.6326 157.431Z" fill="#2D2F34"/>
<path d="M105.032 180.681L104.817 180.783L104.165 181.054L101.62 182.061L92.1014 185.743L59.221 198.31L59.3795 198.114C58.727 203.987 58.0184 210.326 57.2913 216.889C55.5573 232.234 53.9539 246.376 52.6953 257.573V257.778H52.4996L32.9224 255.242L27.534 254.505L26.1263 254.3L25.6509 254.216C25.8122 254.204 25.9743 254.204 26.1356 254.216L27.5526 254.366L32.9504 254.981L52.5275 257.349L52.3038 257.526C53.5437 246.339 55.1005 232.178 56.7972 216.833C57.5337 210.308 58.2422 203.931 58.9041 198.058V197.909L59.0439 197.853L91.9802 185.463L101.554 181.902L104.127 180.97L104.789 180.746C104.865 180.709 104.947 180.687 105.032 180.681Z" fill="#5F646F"/>
<path d="M140.746 184.074C140.317 183.988 139.898 183.857 139.496 183.683L136.196 182.443C132.561 181.038 128.821 179.925 125.009 179.115C121.187 178.32 117.255 178.207 113.393 178.779C111.805 179.081 110.233 179.467 108.686 179.935C109.061 179.707 109.461 179.522 109.879 179.385C111.005 178.983 112.162 178.671 113.337 178.453C117.239 177.773 121.235 177.839 125.112 178.649C128.964 179.459 132.731 180.629 136.364 182.145C137.762 182.704 138.881 183.189 139.655 183.524C140.032 183.679 140.397 183.862 140.746 184.074Z" fill="#5F646F"/>
<path d="M134.807 173.475C133.5 173.339 132.187 173.277 130.873 173.288C129.661 173.288 128.207 173.447 126.594 173.568C124.981 173.689 123.219 173.838 121.383 174.109C118.233 174.476 115.188 175.464 112.424 177.017C111.318 177.72 110.262 178.499 109.264 179.348C109.453 179.043 109.685 178.766 109.954 178.527C110.646 177.84 111.412 177.23 112.238 176.71C115.006 175.042 118.098 173.984 121.308 173.605C123.173 173.335 124.953 173.204 126.566 173.111C128.179 173.018 129.643 172.925 130.873 172.934C131.848 172.932 132.821 173.017 133.782 173.186C134.137 173.226 134.483 173.323 134.807 173.475Z" fill="#5F646F"/>
<path d="M141.79 90.9523C141.79 90.9523 141.92 83.7088 141.212 82.8605L126.398 77.6958L115.734 80.9307C113.226 82.0307 108.425 89.1718 105.721 88.7989C102.691 88.3887 102.123 80.4086 100.874 78.134L95.4106 79.5416C95.4106 79.5416 86.0881 104.386 85.9389 111.424C85.7898 118.463 89.5188 127.935 88.9035 142.683C88.5865 150.392 87.8314 157.272 92.6325 157.477L140.261 159.454C140.261 159.454 151.14 156.927 151.877 150.476C152.613 144.025 141.79 90.9523 141.79 90.9523Z" fill="#0031B2"/>
<path d="M163.046 140.268L155.588 116.654C155.588 116.654 151.104 86.692 140.672 82.5342C136.206 80.7536 126.446 81.0705 123.49 87.1301C120.535 93.1897 124.18 97.5993 124.898 100.601C125.616 103.603 135.712 124.588 135.712 124.588C137.61 128.421 139.266 132.369 140.672 136.409L100.352 157.748L105.433 171.042L155.83 152.714C157.522 152.122 159.05 151.138 160.288 149.841C161.526 148.545 162.439 146.973 162.952 145.256C163.436 143.633 163.468 141.908 163.046 140.268Z" fill="#0031B2"/>
<path d="M69.1958 166.054L79.5624 161.616L99.4658 160.861L101.135 159.808L105.432 171.041C105.432 171.041 100.128 173.316 97.3869 173.419L80.7277 172.225L71.9646 172.775L69.1958 166.054Z" fill="#FFBE9D"/>
<path d="M13.6156 124.522L70.7996 127.319C72.6641 127.394 74.3887 128.363 74.5938 130.209L79.1152 172.16L108.584 173.381C109.021 173.427 109.424 173.637 109.712 173.97C109.999 174.302 110.149 174.732 110.13 175.172C110.111 175.611 109.924 176.026 109.609 176.333C109.294 176.64 108.874 176.814 108.434 176.821L79.4881 175.619L73.9972 175.386L14.3334 172.915L9.7281 128.643C9.67096 128.108 9.73037 127.567 9.90222 127.056C10.0741 126.546 10.3543 126.08 10.7236 125.688C11.093 125.297 11.5427 124.99 12.0419 124.788C12.5411 124.587 13.078 124.496 13.6156 124.522Z" fill="#2D2F34"/>
<path d="M13.6149 124.523C13.3037 124.488 12.9888 124.503 12.6827 124.569C11.7948 124.733 10.9965 125.213 10.436 125.921C10.0254 126.444 9.75575 127.063 9.65288 127.72C9.6023 128.508 9.64298 129.3 9.77407 130.079C9.94188 131.775 10.1376 133.733 10.3521 135.924C11.2843 144.715 12.5428 157.366 14.081 172.971V173.121H14.2302L105.618 176.952L108.079 177.055C108.524 177.112 108.976 177.044 109.385 176.859C109.806 176.651 110.138 176.296 110.317 175.861C110.495 175.431 110.514 174.95 110.368 174.507C110.223 174.064 109.924 173.688 109.524 173.447C109.122 173.252 108.673 173.175 108.229 173.223L107.017 173.167L97.4612 172.776L79.1145 172.021L79.3289 172.216C77.6975 157.198 76.178 143.177 74.8075 130.61C74.7951 129.775 74.4612 128.977 73.8753 128.382C73.2731 127.832 72.5257 127.466 71.7218 127.329C70.9589 127.22 70.1897 127.161 69.4192 127.151L67.1725 127.04L58.5678 126.629L43.2697 125.893L21.4831 124.877L15.6565 124.625L14.1463 124.569H13.6336H14.1463L15.6472 124.672L21.4738 124.989L43.251 126.135L58.5492 126.928L67.1632 127.366L69.4005 127.478C70.1522 127.494 70.9024 127.553 71.6473 127.655C72.3752 127.773 73.0543 128.097 73.6049 128.587C74.141 129.114 74.4489 129.831 74.4626 130.582C75.8051 143.158 77.306 157.179 78.9094 172.198V172.393H79.0959L97.4425 173.158L106.998 173.559L108.21 173.605C108.579 173.581 108.948 173.661 109.273 173.838C109.58 174.025 109.81 174.316 109.92 174.659C110.029 175.002 110.011 175.372 109.869 175.703C109.737 176.034 109.488 176.306 109.17 176.467C108.83 176.615 108.455 176.664 108.089 176.607L105.628 176.505L14.3327 172.776L14.5005 172.934C12.8505 157.356 11.4987 144.687 10.5665 135.905C10.3334 133.715 10.119 131.757 9.94187 130.069C9.81136 129.3 9.76448 128.518 9.80204 127.739C9.89199 127.101 10.1457 126.497 10.5385 125.986C11.0828 125.293 11.8502 124.808 12.7106 124.616C13.0095 124.563 13.3117 124.532 13.6149 124.523Z" fill="#2D2F34"/>
<path d="M44.715 149.479C44.6849 150.186 44.4459 150.868 44.0282 151.44C43.6105 152.011 43.0327 152.446 42.368 152.689C41.7033 152.932 40.9815 152.972 40.2937 152.805C39.6059 152.638 38.9831 152.271 38.5039 151.75C38.0247 151.23 37.7107 150.578 37.6015 149.879C37.4923 149.18 37.5928 148.464 37.8903 147.822C38.1879 147.179 38.6691 146.64 39.2732 146.271C39.8773 145.902 40.5772 145.721 41.2843 145.75C41.7546 145.769 42.2164 145.881 42.6434 146.079C43.0705 146.276 43.4543 146.557 43.7729 146.903C44.0916 147.249 44.3388 147.655 44.5004 148.097C44.6621 148.539 44.735 149.009 44.715 149.479Z" fill="white"/>
<path d="M76.6728 175.153C76.5889 175.153 75.2091 164.469 73.587 151.269C71.9649 138.068 70.7157 127.366 70.7903 127.356C70.8649 127.347 72.2539 138.04 73.876 151.241C75.4981 164.441 76.7567 175.143 76.6728 175.153Z" fill="#2D2F34"/>
<path d="M151.737 154.196L151.513 154.289L150.861 154.55L148.316 155.51L138.741 159.062L105.507 171.247L105.292 171.331L105.218 171.116C103.596 166.893 101.89 162.428 100.119 157.822L100.044 157.627L100.23 157.524C102.785 156.172 105.479 154.727 108.201 153.301L140.559 136.213L140.466 136.474L130.65 112.347C129.484 109.448 128.561 107.164 127.927 105.57L127.228 103.78L127.051 103.323C127.031 103.272 127.016 103.219 127.005 103.165C127.005 103.165 127.004 103.211 127.088 103.305C127.172 103.398 127.2 103.575 127.284 103.761C127.471 104.181 127.722 104.768 128.049 105.523L130.845 112.254C133.26 118.09 136.7 126.378 140.82 136.325L140.895 136.502L140.727 136.595L108.434 153.739L100.463 157.962L100.575 157.664C102.328 162.269 104.034 166.735 105.647 170.958L105.348 170.827L138.648 158.801L148.316 155.371L150.889 154.438L151.551 154.215C151.612 154.2 151.674 154.194 151.737 154.196Z" fill="#2D2F34"/>
<path d="M124.897 72.0369L109.683 79.0473L105.758 87.8384L105.161 78.8609L100.566 75.2158L98.123 78.7117L102.551 91.3996L109.543 91.6886L126.389 78.1524L126.948 77.8541L124.897 72.0369Z" fill="#0031B2"/>
<path d="M98.123 78.7119C98.5928 79.5706 99.0009 80.4616 99.3443 81.3781C100.062 83.0282 100.966 85.3775 102.141 87.8386L102.225 87.9971H101.796C102.868 85.536 103.595 83.1867 104.183 81.4714C104.444 80.5515 104.777 79.6537 105.18 78.7865C105.044 79.7376 104.819 80.6739 104.509 81.5832C103.89 83.8035 103.134 85.983 102.244 88.109L102.038 88.5658L101.815 88.1369L101.712 87.9505C100.519 85.4241 99.6892 83.0842 99.046 81.4248C98.6578 80.5499 98.349 79.642 98.123 78.7119Z" fill="#2D2F34"/>
<path d="M126.949 77.8542C126.665 78.1354 126.353 78.3854 126.016 78.6L123.387 80.4645C121.159 82.04 118.055 84.1935 114.615 86.5614L110.532 89.3582L110.205 89.5819V89.1904C110.01 86.2258 109.851 83.6901 109.767 81.8909C109.73 81.0581 109.702 80.3589 109.683 79.7933C109.645 79.5399 109.645 79.2823 109.683 79.0289C109.757 79.2714 109.801 79.5217 109.814 79.7747C109.87 80.3527 109.944 81.0425 110.028 81.8722C110.196 83.6621 110.411 86.1979 110.644 89.1531L110.289 88.9853L114.354 86.1885C117.794 83.8299 120.926 81.7138 123.201 80.2035L125.914 78.4416C126.238 78.2109 126.585 78.0141 126.949 77.8542Z" fill="#2D2F34"/>
<path d="M89.5839 155.51C89.5839 155.51 89.5 155.38 89.3695 155.109C89.2097 154.7 89.0941 154.275 89.0245 153.842C88.7685 152.235 88.6437 150.611 88.6516 148.985C88.5957 146.906 88.6517 144.398 88.7728 141.573C88.894 138.749 88.9966 135.607 89.1271 132.251L89.1923 132.419C85.8523 128.809 83.8516 124.162 83.5243 119.255C83.4268 117.268 83.555 115.276 83.9065 113.317C84.5652 110.041 85.415 106.807 86.4516 103.631C87.1136 101.486 87.6613 99.3079 88.0923 97.1051C88.3906 95.5483 88.4559 94.6626 88.5025 94.6719C88.5251 94.8858 88.5251 95.1014 88.5025 95.3152C88.5025 95.7347 88.4186 96.35 88.2974 97.1797C87.9354 99.4028 87.4341 101.601 86.7965 103.761C85.8168 106.939 85.0046 110.166 84.3633 113.429C84.0297 115.355 83.914 117.313 84.0184 119.265C84.1587 121.353 84.6145 123.409 85.3702 125.361C86.3262 127.864 87.7464 130.163 89.5559 132.139L89.6212 132.204V132.307C89.472 135.663 89.3322 138.832 89.2017 141.629C89.0712 144.426 88.9593 146.943 88.9779 149.013C88.9596 150.633 89.0561 152.253 89.2669 153.86C89.3233 154.419 89.4294 154.971 89.5839 155.51Z" fill="#2D2F34"/>
<path d="M103.391 155.324C103.352 155.096 103.327 154.865 103.317 154.634C103.317 154.14 103.242 153.487 103.195 152.667C103.083 150.961 102.981 148.481 102.897 145.423C102.72 139.299 102.683 130.834 103.074 121.493C103.466 112.152 104.221 103.715 104.939 97.6272C105.284 94.588 105.591 92.1269 105.871 90.4302L106.16 88.4818C106.184 88.2509 106.231 88.0229 106.3 87.8013C106.315 88.031 106.315 88.2614 106.3 88.4911C106.244 88.9852 106.179 89.6378 106.095 90.4582C105.908 92.2108 105.656 94.6626 105.34 97.6644C104.734 103.752 104.044 112.18 103.643 121.511C103.242 130.843 103.233 139.299 103.326 145.414C103.382 148.435 103.428 150.896 103.466 152.658C103.466 153.478 103.466 154.131 103.466 154.634C103.465 154.866 103.44 155.097 103.391 155.324Z" fill="#2D2F34"/>
<path d="M139.925 83.0003C139.925 83.0935 138.676 82.9257 136.728 83.2333C134.178 83.6093 131.785 84.6965 129.824 86.3701C127.864 88.0437 126.415 90.2361 125.643 92.6956C125.037 94.5601 125.009 95.828 124.916 95.8187C124.872 95.5282 124.872 95.2328 124.916 94.9423C124.977 94.1472 125.118 93.3603 125.336 92.5931C126.046 90.0265 127.507 87.731 129.533 86.0016C131.558 84.2722 134.054 83.1881 136.7 82.8884C137.493 82.8064 138.293 82.8064 139.086 82.8884C139.37 82.884 139.653 82.9217 139.925 83.0003Z" fill="#2D2F34"/>
<path d="M148.698 139.914C147.541 138.921 146.259 138.084 144.885 137.425C143.449 136.911 141.95 136.597 140.429 136.492C140.863 136.317 141.333 136.249 141.799 136.297C142.923 136.31 144.033 136.538 145.071 136.968C146.115 137.403 147.065 138.036 147.868 138.832C148.474 139.42 148.744 139.876 148.698 139.914Z" fill="#2D2F34"/>
<path d="M130.444 129.939C130.444 129.939 130.221 130.097 129.792 130.293C129.187 130.563 128.564 130.791 127.927 130.973C123.635 132.218 119.053 132.032 114.876 130.442C114.236 130.209 113.613 129.932 113.011 129.612C112.592 129.379 112.368 129.24 112.387 129.212C112.405 129.184 113.366 129.594 114.95 130.144C119.108 131.52 123.569 131.701 127.825 130.666C129.438 130.246 130.407 129.864 130.444 129.939Z" fill="#2D2F34"/>
</g>
</g>
<defs>
<clipPath id="clip0">
<rect width="184" height="211" fill="white"/>
</clipPath>
</defs>
</svg>
