<svg width="256" height="40" viewBox="0 0 256 40" fill="none" xmlns="http://www.w3.org/2000/svg">
<g clip-path="url(#clip0_6079:8780)">
<path fill-rule="evenodd" clip-rule="evenodd" d="M231.824 26.8281C228.344 23.3041 223.664 21.3258 218.803 21.3258V15.8235H232.064V2.22223H242.745V15.8853H255.945V26.8899H242.685V40.553H237.344C237.344 35.5453 235.424 30.723 232.004 27.1372L231.824 26.8281ZM218.803 34.927V40.4912C221.804 40.4912 224.204 40.4912 224.204 40.4912C224.204 37.4 221.804 34.927 218.803 34.927ZM232.904 40.553C232.904 32.5777 226.604 26.0862 218.803 26.0862V30.4139C224.264 30.4139 228.704 34.927 228.704 40.553H232.904Z" fill="#F28081"/>
<path d="M0 19.9998C0 8.42098 8.60917 0 20.1478 0C26.246 0 31.5072 2.291 35.0345 6.50149L30.4908 10.8977C27.7407 7.86371 24.3926 6.31574 20.4468 6.31574C12.6746 6.31574 6.99495 12.0123 6.99495 19.9998C6.99495 27.9874 12.6148 33.6839 20.4468 33.6839C24.3926 33.6839 27.7407 32.1979 30.4908 29.04L34.9748 33.4982C31.5072 37.7087 26.246 39.9997 20.0283 39.9997C8.60917 40.0616 0 31.6406 0 19.9998Z" fill="#0031B3"/>
<path d="M38.2032 24.6438C38.2032 15.7275 44.6601 9.47369 53.4486 9.47369C62.3567 9.47369 68.7538 15.7894 68.7538 24.6438C68.7538 33.4983 62.3567 39.8759 53.4486 39.8759C44.6601 39.8759 38.2032 33.5602 38.2032 24.6438ZM61.998 24.6438C61.998 18.9473 58.351 15.356 53.4486 15.356C48.6059 15.356 44.959 18.9473 44.959 24.6438C44.959 30.3404 48.6059 33.9317 53.4486 33.9317C58.351 33.9317 61.998 30.3404 61.998 24.6438Z" fill="#0031B3"/>
<path d="M104.027 22.4767V39.5044H97.3314V23.3435C97.3314 18.0804 94.8204 15.4798 90.5158 15.4798C85.733 15.4798 82.5045 18.5139 82.5045 24.4581V39.5044H75.8085V9.78329H82.2056V13.6223C84.4177 10.8978 87.8853 9.47369 92.0703 9.47369C98.8859 9.47369 104.027 13.4984 104.027 22.4767Z" fill="#0031B3"/>
<path d="M140.198 26.8729H117.659C118.436 31.2073 121.963 33.9936 126.926 33.9936C130.154 33.9936 132.665 32.941 134.698 30.7738L138.285 35.0462C135.714 38.2041 131.649 39.8759 126.746 39.8759C117.121 39.8759 110.903 33.4983 110.903 24.6438C110.903 15.7894 117.18 9.47369 125.73 9.47369C134.1 9.47369 140.258 15.5418 140.258 24.8296C140.318 25.3869 140.258 26.1918 140.198 26.8729ZM117.659 22.229H133.92C133.382 17.9566 130.214 14.9845 125.79 14.9845C121.485 15.0464 118.316 17.8947 117.659 22.229Z" fill="#0031B3"/>
<path d="M164.77 39.5041L157.416 29.2256L150.003 39.5041H142.589L153.769 24.3959L143.068 9.78302H150.541L157.596 19.5043L164.65 9.78302H171.884L161.123 24.334L172.363 39.5041H164.77Z" fill="#0031B3"/>
<path d="M201.299 22.1052V39.5044H194.962V35.9131C193.348 38.4518 190.239 39.9378 185.934 39.9378C179.358 39.9378 175.232 36.2227 175.232 31.0215C175.232 26.068 178.461 22.1671 187.13 22.1671H194.543V21.6717C194.543 17.5851 192.152 15.2322 187.369 15.2322C184.141 15.2322 180.793 16.3467 178.64 18.2043L176.01 13.1269C179.059 10.6502 183.543 9.47369 188.146 9.47369C196.516 9.47369 201.299 13.4984 201.299 22.1052ZM194.603 30.2166V26.7491H187.668C183.124 26.7491 181.869 28.5447 181.869 30.7119C181.869 33.1887 183.901 34.7986 187.369 34.7986C190.597 34.8605 193.467 33.2506 194.603 30.2166Z" fill="#0031B3"/>
</g>
<defs>
<clipPath id="clip0_6079:8780">
<rect width="256" height="40" fill="white"/>
</clipPath>
</defs>
</svg>
