<svg width="140" height="140" viewBox="0 0 140 140" fill="none" xmlns="http://www.w3.org/2000/svg">
<circle cx="70" cy="70" r="70" fill="#E6EAF7"/>
<mask id="mask0" mask-type="alpha" maskUnits="userSpaceOnUse" x="0" y="0" width="140" height="140">
<circle cx="70" cy="70" r="70" fill="#FFD6D7"/>
</mask>
<g mask="url(#mask0)">
<path d="M119.867 116.558C120.052 115.66 119.924 114.725 120.127 113.028C120.33 111.33 121.14 110.656 121.586 109.462C122.031 108.267 122.655 105.453 122.655 105.453H122.149C122.149 105.453 120.551 110.674 120.091 111.854C119.631 113.035 119.646 114.108 119.567 115.185C119.454 116.145 119.284 117.098 119.057 118.038C119.057 118.038 118.469 111.976 118.226 109.861C117.984 107.746 118.091 103.603 118.091 103.603L117.531 103.364V106.516C117.531 106.516 117.763 109.504 117.948 111.22C118.324 114.989 118.497 118.776 118.465 122.563C118.421 125.13 118.755 127.69 119.457 130.159C119.475 130.291 119.624 134.324 119.542 136.329C119.46 138.333 119.414 146.239 119.499 146.592L121.283 147.02C121.283 147.02 120.248 140.041 120.437 134.995C120.626 129.949 120.206 130.227 119.546 127.816C118.886 125.406 119.089 118.862 119.089 118.862C119.404 118.114 119.664 117.344 119.867 116.558Z" fill="#2D2F34"/>
<path d="M121.917 106.099C123.538 105.571 124.981 104.605 126.086 103.307C127.705 101.252 128.761 99.5729 130.44 98.7634C127.206 97.3369 125.216 100.19 123.597 101.067C121.978 101.944 120.363 102.561 120.612 104.241C120.862 105.92 121.917 106.099 121.917 106.099Z" fill="#F28080"/>
<path d="M132.327 80.6049C132.171 81.2233 131.978 81.8319 131.749 82.4271C131.461 83.1886 131.126 83.9317 130.747 84.6524C130.37 85.3886 129.927 86.0892 129.424 86.7457C128.998 87.3335 128.457 87.8286 127.834 88.2006C127.712 88.2662 127.586 88.3222 127.456 88.3682C126.036 88.8231 124.661 89.4068 123.347 90.112C122.585 88.739 122.278 87.1596 122.47 85.6009C122.551 85.0645 122.697 84.5399 122.905 84.039C123.105 83.5685 123.344 83.1153 123.618 82.6839L123.975 82.0884C124.086 81.9029 124.196 81.7317 124.332 81.532C124.966 80.5051 125.743 79.5734 126.639 78.7648C126.842 78.5829 127.056 78.4081 127.284 78.2298C127.558 78.0235 127.856 77.8522 128.172 77.7199C129.34 77.2835 130.581 77.0765 131.828 77.1101C131.828 77.1101 132.202 77.5452 132.512 79.0393C132.512 79.0714 132.512 79.1035 132.512 79.1392C132.529 79.6345 132.467 80.1294 132.327 80.6049Z" fill="#F28080"/>
<path d="M125.466 95.2722C125.466 95.2722 129.945 92.2232 135.604 92.7759C132.555 89.7875 130.07 89.9231 127.951 90.9715C125.833 92.0199 124.532 92.8472 125.466 95.2722Z" fill="#F28080"/>
<path d="M120.295 90.4223C120.295 90.4223 118.116 87.6193 115.132 86.874C113.025 86.4088 110.87 86.2005 108.713 86.2535C108.713 86.2535 110.392 83.825 114.062 84.014C117.731 84.203 118.869 85.1195 119.493 86.3783C120.117 87.6372 120.798 88.9887 120.295 90.4223Z" fill="#F28080"/>
<path d="M119.867 99.5051C119.867 99.8867 119.842 100.25 119.817 100.596C119.685 102.44 119.26 103.713 117.677 103.92C117.677 103.92 115.437 103.36 114.564 101.185C113.69 99.0094 114.207 98.635 112.884 97.2014C111.561 95.7678 110.894 92.2089 110.894 92.2089C112.432 91.8644 114.039 92.018 115.484 92.6475L115.587 92.6974C117.873 93.8172 119.938 97.1122 119.867 99.5051Z" fill="#F28080"/>
<path d="M113.954 106.035C113.954 106.035 113.58 106.534 111.28 106.719C108.98 106.905 108.427 108.773 105.802 109.216C103.178 109.658 102.818 109.59 101.698 108.905C102.204 107.336 103.481 106.862 104.622 105.96C105.001 105.669 105.341 105.33 105.631 104.951C105.67 104.904 105.706 104.851 105.742 104.801C106.28 104.108 107.032 103.613 107.881 103.392C108.547 103.193 109.237 103.09 109.932 103.085C110.731 103.056 111.528 103.195 112.271 103.492C113.894 104.234 113.894 105.165 113.954 106.035Z" fill="#F28080"/>
<path d="M127.231 132.192C126.599 131.517 125.833 130.983 124.981 130.624C124.13 130.264 123.212 130.088 122.288 130.106L122.239 130.152C121.864 132.031 122.723 134.028 124.171 135.284C125.619 136.539 127.573 137.106 129.488 137.142C129.279 135.294 128.489 133.561 127.231 132.192Z" fill="#0031B2"/>
<path d="M116.13 134.135C115.369 134.032 114.596 134.127 113.883 134.41C112.167 134.995 110.601 135.951 109.297 137.209C110.837 137.741 112.453 138.233 114.072 138.051C115.691 137.869 117.328 136.849 117.731 135.273C117.584 134.524 116.878 134.282 116.13 134.135Z" fill="#0031B2"/>
<path d="M121.143 126.408C120.519 124.871 121.143 122.817 122.349 121.679C123.14 120.937 124.182 120.534 125.202 120.163C126.05 119.852 126.905 119.55 127.766 119.258C127.961 119.165 128.183 119.148 128.39 119.211C128.679 119.347 128.718 119.739 128.7 120.06C128.652 121.364 128.294 122.638 127.655 123.776C127.007 124.918 125.976 125.794 124.745 126.251C123.518 126.672 122.213 127.146 121.143 126.408Z" fill="#0031B2"/>
<path d="M116.269 120.652C116.21 120.269 116.065 119.905 115.845 119.586C115.625 119.268 115.336 119.003 114.999 118.812C114.32 118.437 113.563 118.224 112.788 118.188C110.958 118.041 109.122 118.4 107.482 119.226C108.952 120.228 110.564 121.004 112.264 121.529C112.96 121.78 113.7 121.886 114.439 121.839C114.808 121.812 115.166 121.696 115.48 121.5C115.794 121.305 116.056 121.036 116.244 120.716" fill="#F28080"/>
<path d="M116.265 112.518C114.927 111.787 113.452 111.342 111.933 111.209C112.132 112.803 112.471 114.49 113.602 115.634C114.286 116.32 115.193 116.739 116.158 116.815C117.176 116.898 118.193 116.633 119.04 116.062V115.984C118.608 114.508 117.611 113.262 116.265 112.518Z" fill="#F28080"/>
<path d="M124.392 109.258C123.572 109.8 123.504 111.041 123.982 111.912C124.46 112.782 125.323 113.338 126.154 113.862C127.221 114.581 128.343 115.214 129.51 115.756C131.022 116.408 132.687 116.765 134.028 117.721C134.212 115.914 133.929 114.091 133.208 112.425C132.472 110.753 131.123 109.427 129.438 108.72C128.598 108.381 127.686 108.26 126.787 108.367C125.887 108.474 125.029 108.806 124.292 109.333" fill="#F28080"/>
<path d="M124.46 109.611C124.46 109.64 124.061 109.815 123.454 110.21C123.103 110.443 122.77 110.7 122.456 110.981C122.076 111.328 121.726 111.708 121.411 112.115C121.099 112.525 120.824 112.962 120.587 113.42C120.397 113.796 120.235 114.186 120.102 114.586C119.878 115.271 119.817 115.717 119.789 115.709C119.784 115.604 119.792 115.499 119.813 115.396C119.829 115.276 119.852 115.156 119.881 115.039C119.912 114.878 119.951 114.718 119.999 114.561C120.119 114.149 120.274 113.749 120.462 113.363C120.695 112.893 120.972 112.446 121.29 112.029C121.611 111.615 121.969 111.23 122.36 110.881C122.682 110.6 123.028 110.347 123.394 110.125C123.547 110.025 123.697 109.954 123.825 109.886C123.933 109.825 124.045 109.772 124.161 109.729C124.255 109.678 124.356 109.639 124.46 109.611Z" fill="#2D2F34"/>
<path d="M132.213 114.593C132.118 114.496 132.033 114.39 131.96 114.276C131.799 114.065 131.571 113.766 131.268 113.409C130.479 112.481 129.582 111.65 128.597 110.934C128.061 110.534 127.485 110.19 126.878 109.911C126.384 109.687 125.851 109.566 125.309 109.554C124.944 109.55 124.582 109.612 124.239 109.736C123.996 109.829 123.882 109.907 123.882 109.897C123.882 109.886 123.907 109.868 123.964 109.829C124.049 109.772 124.138 109.723 124.232 109.683C124.577 109.53 124.949 109.45 125.327 109.447C125.889 109.45 126.444 109.571 126.956 109.804C127.577 110.081 128.164 110.427 128.707 110.835C129.704 111.553 130.6 112.403 131.371 113.359C131.667 113.716 131.885 114.041 132.027 114.262C132.098 114.367 132.16 114.478 132.213 114.593Z" fill="#2D2F34"/>
<path d="M127.691 99.5443C127.691 99.5657 127.274 99.826 126.621 100.311C124.919 101.577 123.503 103.189 122.466 105.04C122.071 105.753 121.867 106.213 121.846 106.202C121.871 106.086 121.911 105.973 121.964 105.867C122.085 105.568 122.222 105.275 122.374 104.99C122.869 104.042 123.476 103.158 124.182 102.354C124.887 101.551 125.685 100.833 126.557 100.215C126.821 100.028 127.095 99.8555 127.377 99.6977C127.475 99.6332 127.58 99.5817 127.691 99.5443Z" fill="#2D2F34"/>
<path d="M113.876 93.7388C113.914 93.7534 113.95 93.7726 113.983 93.7958C114.047 93.8386 114.147 93.8957 114.265 93.9848C114.606 94.2249 114.927 94.4907 115.228 94.7801C116.224 95.7385 116.992 96.91 117.472 98.2068C117.953 99.5036 118.134 100.892 118.002 102.269C117.963 102.684 117.892 103.095 117.792 103.499C117.759 103.642 117.72 103.752 117.699 103.824C117.677 103.895 117.66 103.938 117.656 103.934C117.671 103.783 117.697 103.633 117.734 103.485C117.812 103.08 117.866 102.67 117.895 102.258C117.998 100.898 117.805 99.532 117.331 98.253C116.858 96.9741 116.113 95.8126 115.149 94.8478C114.86 94.5584 114.554 94.2869 114.233 94.0347C114.107 93.9443 113.988 93.8454 113.876 93.7388Z" fill="#2D2F34"/>
<path d="M106.865 105.129C106.924 105.039 106.996 104.959 107.079 104.89C107.295 104.686 107.534 104.509 107.792 104.362C108.638 103.857 109.632 103.66 110.606 103.803C111.581 103.946 112.476 104.42 113.141 105.147C113.342 105.364 113.517 105.604 113.665 105.86C113.723 105.951 113.769 106.049 113.801 106.152C113.576 105.828 113.33 105.519 113.063 105.229C112.399 104.546 111.529 104.101 110.587 103.963C109.645 103.825 108.684 104.002 107.853 104.466C107.508 104.662 107.178 104.884 106.865 105.129Z" fill="#2D2F34"/>
<path d="M118.922 115.852C118.113 115.524 117.322 115.151 116.554 114.736C115.764 114.366 114.997 113.948 114.257 113.484C115.067 113.812 115.857 114.185 116.625 114.6C117.415 114.971 118.182 115.389 118.922 115.852Z" fill="#2D2F34"/>
<path d="M109.953 118.883C110.039 118.863 110.128 118.854 110.217 118.858C110.455 118.846 110.693 118.846 110.93 118.858C111.722 118.902 112.507 119.033 113.27 119.25C114.032 119.466 114.769 119.765 115.466 120.142C115.734 120.288 115.944 120.417 116.083 120.499C116.161 120.541 116.232 120.595 116.294 120.659C116.294 120.681 115.958 120.488 115.416 120.224C114.007 119.53 112.483 119.098 110.92 118.951C110.31 118.915 109.953 118.908 109.953 118.883Z" fill="#2D2F34"/>
<path d="M127.705 119.875C127.613 119.957 127.512 120.028 127.402 120.085C127.199 120.21 126.91 120.395 126.56 120.634C124.732 121.876 123.139 123.433 121.853 125.231C121.607 125.587 121.415 125.858 121.283 126.058C121.221 126.164 121.149 126.265 121.069 126.358C121.11 126.241 121.165 126.13 121.233 126.026C121.347 125.816 121.529 125.523 121.764 125.17C122.39 124.248 123.107 123.392 123.904 122.613C124.7 121.837 125.573 121.144 126.51 120.545C126.867 120.317 127.167 120.142 127.381 120.035C127.484 119.973 127.593 119.919 127.705 119.875Z" fill="#2D2F34"/>
<path d="M117.745 135.177C117.452 135.214 117.156 135.235 116.861 135.241C116.151 135.289 115.447 135.399 114.757 135.569C114.066 135.738 113.391 135.966 112.738 136.25C112.473 136.384 112.2 136.503 111.922 136.607C111.98 136.551 112.046 136.505 112.118 136.468C112.25 136.386 112.446 136.279 112.692 136.154C113.341 135.841 114.021 135.596 114.721 135.423C115.422 135.251 116.139 135.154 116.861 135.134C117.139 135.134 117.36 135.134 117.517 135.134C117.595 135.135 117.672 135.149 117.745 135.177Z" fill="#2D2F34"/>
<path d="M128.208 136.343C128.176 136.371 126.782 135.038 125.106 133.362C123.43 131.685 122.082 130.302 122.11 130.27C122.139 130.238 123.536 131.575 125.213 133.251C126.889 134.927 128.237 136.314 128.208 136.343Z" fill="#2D2F34"/>
<path d="M122.513 130.284C122.098 130.305 121.687 130.363 121.283 130.459C120.893 130.601 120.518 130.78 120.163 130.994C120.453 130.673 120.825 130.437 121.239 130.311C121.653 130.185 122.093 130.175 122.513 130.28V130.284Z" fill="#2D2F34"/>
<path d="M120.341 133.743C120.32 133.743 120.177 133.472 119.888 133.055C119.504 132.515 119.062 132.018 118.572 131.571C118.002 131.044 117.445 130.612 117.042 130.298C116.816 130.138 116.603 129.961 116.404 129.767C116.657 129.889 116.896 130.037 117.117 130.209C117.668 130.591 118.194 131.01 118.69 131.461C119.187 131.914 119.623 132.429 119.988 132.994C120.096 133.167 120.193 133.347 120.277 133.533C120.323 133.665 120.352 133.74 120.341 133.743Z" fill="#2D2F34"/>
<path d="M119.763 135.098C119.42 135.232 119.053 135.293 118.685 135.278C118.317 135.264 117.955 135.173 117.624 135.013C117.624 134.966 118.102 135.105 118.694 135.127C119.286 135.148 119.753 135.045 119.763 135.098Z" fill="#2D2F34"/>
<path d="M121.96 125.184C121.981 125.184 121.785 125.488 121.514 125.98C120.8 127.259 120.345 128.665 120.173 130.12C120.105 130.68 120.095 131.029 120.07 131.029C120.05 130.949 120.042 130.866 120.048 130.783C120.042 130.558 120.047 130.333 120.066 130.109C120.123 129.371 120.266 128.642 120.494 127.937C120.721 127.232 121.032 126.557 121.421 125.926C121.537 125.734 121.663 125.548 121.799 125.37C121.896 125.245 121.953 125.177 121.96 125.184Z" fill="#2D2F34"/>
<path d="M118.847 123.516C118.825 123.516 118.757 123.298 118.579 122.974C118.337 122.552 118.028 122.172 117.663 121.85C117.292 121.532 116.901 121.238 116.493 120.969C116.315 120.87 116.149 120.75 115.997 120.613C116.193 120.68 116.379 120.772 116.55 120.887C116.983 121.131 117.389 121.419 117.763 121.747C118.143 122.075 118.453 122.478 118.672 122.931C118.775 123.109 118.835 123.31 118.847 123.516Z" fill="#2D2F34"/>
<path d="M118.373 110.71C118.351 110.71 118.166 110.371 117.817 109.833C117.364 109.132 116.848 108.475 116.276 107.868C115.7 107.265 115.07 106.717 114.393 106.231C113.872 105.856 113.53 105.653 113.544 105.632C113.634 105.658 113.72 105.698 113.798 105.749C114.023 105.869 114.242 106 114.454 106.142C115.864 107.078 117.045 108.32 117.909 109.775C118.073 110.054 118.195 110.285 118.266 110.449C118.314 110.531 118.35 110.618 118.373 110.71Z" fill="#2D2F34"/>
<path d="M129.378 93.4249C129.323 93.4601 129.264 93.4888 129.203 93.5105L128.69 93.7316C128.247 93.9206 127.62 94.1881 126.832 94.5732C125.93 95.013 125.09 95.5706 124.335 96.2314C123.434 97.0662 122.658 98.0272 122.032 99.0843C121.406 100.152 120.835 101.251 120.32 102.376C119.835 103.403 119.393 104.33 119.022 105.118C118.651 105.906 118.352 106.509 118.134 106.962L117.884 107.457C117.86 107.519 117.828 107.576 117.788 107.629C117.807 107.566 117.831 107.505 117.859 107.447L118.081 106.937C118.287 106.48 118.573 105.846 118.926 105.072L120.195 102.315C120.703 101.181 121.273 100.076 121.903 99.0058C122.534 97.9291 123.323 96.953 124.243 96.1102C125.014 95.4451 125.873 94.8895 126.796 94.4591C127.577 94.0847 128.222 93.8315 128.682 93.6567L129.207 93.4641C129.262 93.4456 129.32 93.4324 129.378 93.4249Z" fill="#2D2F34"/>
<path d="M119.078 87.7406C119.164 87.863 119.24 87.9918 119.307 88.1257C119.446 88.3789 119.631 88.7534 119.845 89.2205C120.962 91.6722 121.684 94.2851 121.985 96.9625C122.038 97.476 122.07 97.8932 122.081 98.1821C122.096 98.3303 122.096 98.4796 122.081 98.6279C122.049 98.4823 122.029 98.3344 122.02 98.1857C121.992 97.9004 121.942 97.4724 121.874 96.9768C121.514 94.3205 120.794 91.7256 119.735 89.2633C119.531 88.7926 119.36 88.4146 119.239 88.1543C119.173 88.0213 119.12 87.8829 119.078 87.7406Z" fill="#2D2F34"/>
<path d="M128.879 79.9238C128.856 79.9815 128.828 80.0365 128.793 80.0878L128.526 80.5336C128.29 80.9223 127.941 81.475 127.531 82.174C126.703 83.5647 125.594 85.5118 124.539 87.7442C124.018 88.8639 123.562 89.948 123.191 90.9537C122.82 91.9593 122.542 92.8794 122.335 93.6603C122.128 94.4413 122.003 95.0868 121.921 95.529C121.886 95.7394 121.857 95.9105 121.832 96.0425C121.829 96.1037 121.816 96.164 121.793 96.2208C121.788 96.1602 121.788 96.0994 121.793 96.0389C121.793 95.9212 121.821 95.7465 121.853 95.5218C121.94 94.8873 122.059 94.2576 122.21 93.6354C122.44 92.7115 122.716 91.7998 123.037 90.9037C123.394 89.8945 123.858 88.8069 124.382 87.6943C125.291 85.7806 126.308 83.9197 127.427 82.1205C127.852 81.4251 128.215 80.8795 128.465 80.5015C128.583 80.3267 128.683 80.1841 128.757 80.07C128.794 80.0183 128.835 79.9694 128.879 79.9238Z" fill="#2D2F34"/>
<path d="M26.0093 127.228H63.1394V123.38H26.0093V127.228Z" fill="#707683"/>
<path d="M49.4743 83.4294L25.9524 83.7182L26.0094 123.637L52.263 123.865L49.4743 83.4294Z" fill="#707683"/>
<path d="M22.7893 159.975L24.6294 159.947L28.6947 124.247L26.8832 124.04L22.7893 159.975Z" fill="#707683"/>
<path d="M33.5767 159.975L35.4168 159.947L39.4821 124.247L37.667 124.04L33.5767 159.975Z" fill="#707683"/>
<path d="M66.0922 160.043L64.2521 160.015L60.1868 124.643L61.9983 124.436L66.0922 160.043Z" fill="#707683"/>
<path d="M54.2277 160.043L52.3876 160.015L48.3223 124.643L50.1374 124.436L54.2277 160.043Z" fill="#707683"/>
<path d="M28.6951 123.48C28.6951 123.48 28.6416 123.566 28.531 123.726L28.0282 124.439L26.0384 127.246L26.0098 127.189L63.1399 127.224L63.0508 127.314V123.391L63.1399 123.484L48.8756 123.526L28.6951 123.58H28.6059V123.491C28.6059 111.883 28.6309 101.944 28.6416 94.9015C28.6416 91.3853 28.6416 88.5931 28.6666 86.6745C28.6666 85.7224 28.6666 84.9878 28.6666 84.485V83.9215C28.6666 83.7931 28.6666 83.7289 28.6666 83.7289C28.6666 83.7289 28.6666 83.7931 28.6666 83.9215V84.485V86.6745C28.6666 88.5931 28.6666 91.3853 28.6915 94.9015C28.6915 101.944 28.7129 111.883 28.7236 123.491L28.638 123.405L48.8185 123.341L63.0828 123.302H63.172V127.417H63.0828L25.9528 127.274H25.885L25.9242 127.217L27.9426 124.432L28.4597 123.719C28.6309 123.559 28.6951 123.48 28.6951 123.48Z" fill="#2D2F34"/>
<path d="M99.9755 64.8214C99.6616 62.4072 98.8557 60.0108 97.333 58.1243C95.8103 56.2379 93.5066 54.9149 91.0852 54.9149L94.0058 85.9184C94.6702 86.201 95.3759 86.3744 96.0956 86.4319C96.4575 86.4561 96.82 86.3925 97.1522 86.2466C97.4843 86.1007 97.7763 85.8768 98.0034 85.5939C98.2653 85.1603 98.4239 84.6722 98.467 84.1674C99.1137 80.1734 99.6046 76.1616 99.9398 72.1319C100.143 69.6891 100.289 67.2357 99.9755 64.8214Z" fill="#2D2F34"/>
<path d="M84.5272 56.0953C83.6143 56.9512 83.386 58.7485 82.8796 59.8968C82.0234 61.7154 81.3208 63.6025 80.7792 65.5383C80.2479 67.678 80.1159 69.9032 79.9911 72.107C79.8532 74.5462 79.713 76.9843 79.5703 79.4211C79.4501 80.5032 79.5042 81.5977 79.7308 82.6626C80.0125 83.7075 80.7079 84.706 81.7242 85.0591C82.2002 85.1995 82.7027 85.2253 83.1905 85.1342C83.6783 85.043 84.1376 84.8377 84.5307 84.5348C85.3171 83.9196 85.9394 83.1197 86.3423 82.2062L89.2701 55.2894C87.7295 54.808 85.704 54.997 84.5272 56.0953Z" fill="#2D2F34"/>
<path d="M106.156 123.245H69.0259V127.092H106.156V123.245Z" fill="#707683"/>
<path d="M77.7341 83.2938L101.26 83.5827L101.199 123.501L74.949 123.73L77.7341 83.2938Z" fill="#707683"/>
<path d="M109.376 159.918L107.536 159.893L103.471 124.111L105.282 123.904L109.376 159.918Z" fill="#707683"/>
<path d="M98.6347 159.904H96.7981L92.6829 124.111L94.4944 123.904L98.6347 159.904Z" fill="#707683"/>
<path d="M66.0728 159.904L67.9129 159.879L71.9782 124.507L70.1666 124.297L66.0728 159.904Z" fill="#707683"/>
<path d="M77.937 159.904L79.7771 159.879L83.8389 124.507L82.0273 124.297L77.937 159.904Z" fill="#707683"/>
<path d="M106.156 123.245C106.156 123.245 106.156 123.33 106.156 123.494C106.156 123.658 106.156 123.912 106.156 124.229C106.156 124.885 106.156 125.848 106.173 127.082V127.121H106.134L69.0041 127.264H68.9114V123.152H69.0112L95.4003 123.184L103.271 123.213H105.41H105.963H106.152H105.963H105.41L103.271 123.23L95.4003 123.259L69.0112 123.287L69.1039 123.195V127.117L69.0112 127.025L106.141 126.989L106.102 127.028C106.102 125.784 106.102 124.821 106.12 124.175C106.12 123.858 106.12 123.612 106.12 123.441C106.12 123.27 106.156 123.245 106.156 123.245Z" fill="#2D2F34"/>
<path d="M73.1907 82.2668C73.1907 82.2668 72.4347 82.8908 71.8178 85.4263C71.132 88.3584 70.673 91.339 70.4448 94.3415C70.2861 96.4837 70.5354 98.6364 71.1795 100.686L76.9458 103.856L77.2276 89.1957L73.1907 82.2668Z" fill="#FFBE9D"/>
<path d="M72.3494 82.5556L76.8248 89.0424L76.5645 100.026C76.5645 100.026 76.4539 107.711 78.8076 108.42C81.1612 109.13 94.4306 109.162 97.7078 109.515C100.985 109.868 102.854 110.182 102.854 109.993C102.854 109.804 100.714 100.621 100.044 98.5816C100.044 98.5816 100.639 94.1526 101.01 91.7526L101.206 90.2798L107.008 83.8894C107.008 83.8894 104.216 81.0365 101.613 79.7349C100.005 78.9467 98.2574 78.4849 96.4704 78.3762L85.2229 77.4026L77.2135 79.2285C76.3419 79.5918 75.5061 80.036 74.7173 80.5551L72.3494 82.5556Z" fill="#0031B2"/>
<path d="M76.6783 84.4064C76.7133 84.5849 76.7301 84.7666 76.7282 84.9485C76.746 85.3051 76.7603 85.8115 76.7674 86.4391C76.7888 87.6944 76.7888 89.431 76.7674 91.346C76.746 93.261 76.7353 94.9656 76.7211 96.253C76.7211 96.8556 76.7211 97.3549 76.7211 97.74C76.7275 97.9222 76.7203 98.1046 76.6997 98.2856C76.6645 98.1059 76.6478 97.9231 76.6498 97.74C76.6498 97.3834 76.6177 96.8806 76.6105 96.253C76.5891 94.9977 76.5891 93.261 76.6105 91.346C76.6319 89.431 76.6426 87.7265 76.6569 86.4391C76.6569 85.8364 76.6569 85.3372 76.6747 84.952C76.6622 84.7703 76.6634 84.588 76.6783 84.4064Z" fill="#2D2F34"/>
<path d="M89.6519 84.3779C89.519 84.4259 89.3795 84.4535 89.2383 84.4599C88.8558 84.4986 88.47 84.489 88.09 84.4314C86.8085 84.2602 85.6443 83.5958 84.8452 82.5795C84.046 81.5632 83.6749 80.2752 83.8107 78.9895C83.8433 78.6071 83.926 78.2306 84.0568 77.8698C84.0971 77.734 84.1559 77.6044 84.2315 77.4846C84.0873 77.9795 83.9906 78.487 83.9426 79.0002C83.8484 80.2448 84.2238 81.4795 84.9947 82.461C85.7657 83.4425 86.8764 84.0997 88.1078 84.303C88.6186 84.3804 89.136 84.4055 89.6519 84.3779Z" fill="#2D2F34"/>
<g opacity="0.3">
<path opacity="0.3" d="M96.9304 78.4083L92.7117 78.2407L86.6743 90.533C86.7009 90.956 86.8799 91.355 87.1783 91.656C87.4767 91.957 87.8741 92.1395 88.2969 92.1698C88.1214 92.5756 88.0913 93.0295 88.2114 93.455C88.3316 93.8805 88.5948 94.2515 88.9566 94.5056C89.3293 94.7419 89.7609 94.8689 90.2022 94.8721C90.6435 94.8752 91.0768 94.7544 91.4529 94.5234C91.8242 94.2834 92.1395 93.9661 92.377 93.5931C92.6146 93.2202 92.7689 92.8004 92.8294 92.3624C93.0569 92.4561 93.3017 92.5005 93.5476 92.4925C93.7935 92.4845 94.0349 92.4243 94.2558 92.316C94.6953 92.0892 95.0855 91.7778 95.4041 91.3995C97.1016 89.513 97.0445 86.8385 97.1515 84.303C97.2585 81.7675 97.3227 80.5693 96.9304 78.4083Z" fill="black"/>
</g>
<path d="M102.098 83.9571C102.148 83.9571 101.706 87.4269 101.11 91.6884C100.515 95.9499 99.9903 99.384 99.9404 99.384C99.8905 99.384 100.329 95.9178 100.928 91.6563C101.527 87.3948 102.048 83.95 102.098 83.9571Z" fill="#2D2F34"/>
<g opacity="0.3">
<path opacity="0.3" d="M86.3923 98.8669C87.0252 99.2976 87.794 99.4816 88.5534 99.384C89.3127 99.2944 90.0565 99.1024 90.7644 98.8134C91.5252 98.5615 92.2541 98.2216 92.9361 97.8006C93.6224 97.3778 94.1635 96.7558 94.4874 96.0176C91.9649 97.408 89.2295 98.3708 86.3923 98.8669Z" fill="black"/>
</g>
<path d="M95.4534 95.4863C95.3445 95.588 95.2249 95.6776 95.0968 95.7537C94.8614 95.9178 94.512 96.1353 94.0698 96.392C91.748 97.7113 89.1862 98.554 86.5346 98.8705C86.0247 98.9311 85.6146 98.9596 85.3293 98.9668C85.1812 98.9843 85.0316 98.9843 84.8835 98.9668C85.0268 98.9281 85.1739 98.9053 85.3222 98.899C85.6075 98.8705 86.014 98.8206 86.5168 98.7457C89.1369 98.362 91.6707 97.527 94.0056 96.2779C94.4549 96.0426 94.8151 95.8393 95.0576 95.6931C95.181 95.609 95.3139 95.5396 95.4534 95.4863Z" fill="#2D2F34"/>
<path d="M100.29 94.6304C100.213 94.6546 100.134 94.6701 100.054 94.6767L99.3697 94.7659C98.7777 94.8443 97.9147 94.9371 96.8484 95.0369C94.7088 95.233 91.7561 95.422 88.486 95.4541C85.2159 95.4862 82.2525 95.3543 80.1164 95.1974C79.0466 95.1189 78.1836 95.0405 77.588 94.9763L76.9033 94.8978C76.824 94.8906 76.7453 94.8775 76.668 94.8586C76.7473 94.8492 76.8275 94.8492 76.9069 94.8586L77.5952 94.905C78.1943 94.9478 79.0573 95.0048 80.1271 95.0654C82.2667 95.1903 85.2194 95.2972 88.486 95.2687C91.7525 95.2402 94.7017 95.069 96.8377 94.9121C97.9076 94.8301 98.767 94.7587 99.3625 94.7017L100.051 94.6446C100.13 94.6312 100.21 94.6264 100.29 94.6304Z" fill="white"/>
<path d="M100.749 93.3217C100.671 93.3417 100.591 93.3536 100.51 93.3573L99.8222 93.4179C99.2267 93.4679 98.3637 93.5249 97.2938 93.5891C95.1542 93.7139 92.205 93.8387 88.9385 93.878C85.672 93.9172 82.7157 93.878 80.576 93.7924C79.5062 93.7532 78.6432 93.7139 78.0441 93.6818L77.3559 93.6355C77.2754 93.6358 77.1951 93.6262 77.1169 93.6069C77.1977 93.6014 77.2787 93.6014 77.3594 93.6069H78.0477L80.5796 93.6604C82.7193 93.6997 85.672 93.7318 88.9349 93.6925C92.1979 93.6533 95.1506 93.5499 97.2867 93.4572L99.8186 93.343L100.507 93.3181C100.588 93.3109 100.669 93.3121 100.749 93.3217Z" fill="white"/>
<path d="M80.0447 76.775C80.1018 76.775 80.0839 76.4683 80.0162 75.9513C79.9484 75.4342 79.8272 74.6924 79.7095 73.7759C79.5626 72.7128 79.5042 71.6393 79.5348 70.5665C79.5729 69.2793 79.8511 68.0106 80.355 66.8256C80.9053 65.6285 81.522 64.4629 82.2022 63.3344C82.7669 62.3797 83.2443 61.3759 83.6286 60.3354C83.8926 59.6265 84.0512 58.8828 84.0994 58.128C84.1208 57.593 84.0601 57.3006 84.0066 57.2971C83.8747 57.2971 83.8355 58.456 83.0795 60.1178C82.6271 61.0927 82.1101 62.0363 81.5318 62.9422C80.7921 64.0803 80.1388 65.2723 79.5776 66.5083C79.4314 66.8435 79.3101 67.1894 79.1996 67.5317C79.1496 67.7065 79.0961 67.8883 79.0605 68.0524C79.0248 68.2164 78.9713 68.409 78.9464 68.5659C78.8188 69.2227 78.7555 69.8903 78.7574 70.5593C78.7578 71.6732 78.8774 72.7838 79.114 73.8722C79.2643 74.5955 79.4548 75.3098 79.6845 76.0119C79.8664 76.5218 79.9877 76.7893 80.0447 76.775Z" fill="#2D2F34"/>
<path d="M90.9357 55.942C89.1844 55.749 87.425 56.2266 86.0117 57.2786C84.5984 58.3307 83.6361 59.879 83.3185 61.612C82.7337 64.7252 81.9563 67.6744 81.9313 68.8369C81.86 72.2996 83.0297 73.1626 84.3883 74.2752C84.8024 74.6255 85.2504 74.9338 85.7256 75.1953L84.9554 78.5545C84.5167 81.1471 86.1928 82.6698 88.8103 83.1334C91.4278 83.597 93.2786 82.5057 93.7707 79.9239L96.8269 63.6875C96.9679 62.7895 96.9259 61.8723 96.7035 60.991C96.481 60.1096 96.0827 59.2824 95.5324 58.5589C94.9821 57.8354 94.2913 57.2306 93.5013 56.7809C92.7114 56.3312 91.8387 56.0458 90.9357 55.942Z" fill="#FFBE9D"/>
<path d="M84.0389 63.5698C84.0125 63.711 84.0426 63.8569 84.1226 63.9763C84.2026 64.0956 84.3261 64.1788 84.4668 64.2081C84.5354 64.2263 84.6069 64.2306 84.6772 64.2208C84.7476 64.2111 84.8152 64.1874 84.8763 64.1512C84.9374 64.1151 84.9906 64.0671 85.033 64.0101C85.0753 63.9531 85.1059 63.8883 85.1229 63.8194C85.1483 63.6783 85.1179 63.5328 85.0381 63.4137C84.9582 63.2946 84.8352 63.2112 84.695 63.1811C84.6264 63.1629 84.5548 63.1586 84.4845 63.1684C84.4142 63.1781 84.3466 63.2018 84.2855 63.238C84.2244 63.2741 84.1712 63.3221 84.1288 63.3791C84.0865 63.436 84.0559 63.5009 84.0389 63.5698Z" fill="#2D2F34"/>
<path d="M84.0962 62.5749C84.1496 62.6569 84.6204 62.4287 85.2088 62.5321C85.7972 62.6355 86.1787 63.0064 86.2572 62.9458C86.3357 62.8851 86.2572 62.7817 86.0825 62.6141C85.8603 62.3942 85.5762 62.2476 85.2683 62.1941C84.9603 62.1405 84.6434 62.1826 84.3601 62.3146C84.1532 62.4216 84.0676 62.5392 84.0962 62.5749Z" fill="#2D2F34"/>
<path d="M89.6162 64.8714C89.5901 65.0132 89.6212 65.1596 89.7027 65.2785C89.7843 65.3975 89.9096 65.4793 90.0512 65.5062C90.1199 65.5243 90.1914 65.5286 90.2617 65.5189C90.332 65.5091 90.3997 65.4855 90.4608 65.4493C90.5218 65.4131 90.5751 65.3651 90.6174 65.3082C90.6598 65.2512 90.6904 65.1864 90.7074 65.1175C90.7328 64.9763 90.7024 64.8309 90.6225 64.7118C90.5427 64.5926 90.4197 64.5092 90.2795 64.4791C90.2101 64.4599 90.1376 64.4549 90.0663 64.4644C89.995 64.4738 89.9263 64.4976 89.8644 64.5342C89.8025 64.5708 89.7486 64.6196 89.7059 64.6775C89.6633 64.7354 89.6328 64.8014 89.6162 64.8714Z" fill="#2D2F34"/>
<path d="M89.8728 63.7231C89.9263 63.8051 90.397 63.5733 90.989 63.6803C91.5809 63.7873 91.9554 64.1546 92.0338 64.094C92.1123 64.0333 92.0338 63.9264 91.8591 63.7588C91.6348 63.539 91.3485 63.3933 91.0389 63.3415C90.7329 63.2846 90.4168 63.3271 90.1367 63.4628C89.9298 63.5555 89.8442 63.6696 89.8728 63.7231Z" fill="#2D2F34"/>
<path d="M86.9417 67.6458C86.649 67.4882 86.3374 67.3683 86.0145 67.2892C85.8683 67.2464 85.7328 67.1929 85.7257 67.086C85.7395 66.9294 85.8019 66.7811 85.904 66.6616C86.1144 66.3264 86.3283 65.9769 86.5566 65.5918C87.4695 64.0869 88.1613 62.8387 88.1007 62.8031C88.0401 62.7674 87.2484 63.9585 86.3355 65.4634L85.7007 66.5332C85.5732 66.6954 85.5075 66.8976 85.5153 67.1038C85.5276 67.1601 85.5527 67.2128 85.5885 67.2579C85.6244 67.303 85.6701 67.3394 85.7221 67.3641C85.8016 67.4016 85.8855 67.4292 85.9717 67.4461C86.2856 67.5523 86.6114 67.6194 86.9417 67.6458Z" fill="#2D2F34"/>
<path d="M85.7256 75.1953C85.7256 75.1953 87.9686 75.7837 91.1246 74.5926C91.1246 74.5926 89.6982 77.4098 85.4795 76.258L85.7256 75.1953Z" fill="#EB996E"/>
<path d="M86.9349 69.1043C87.0733 68.9834 87.2401 68.8994 87.4196 68.8602C87.5991 68.8209 87.7857 68.8276 87.962 68.8797C88.0888 68.9149 88.2074 68.975 88.3108 69.0564C88.4143 69.1378 88.5005 69.239 88.5646 69.354C88.6281 69.466 88.6546 69.5952 88.6406 69.7232C88.6265 69.8513 88.5725 69.9716 88.4862 70.0672C88.3718 70.1552 88.234 70.2075 88.09 70.2176C87.946 70.2278 87.8023 70.1953 87.6767 70.1242C87.4161 69.978 87.187 69.7817 87.0027 69.5465C86.946 69.4886 86.9001 69.4209 86.8672 69.3468C86.8511 69.3108 86.8462 69.2708 86.8532 69.232C86.8602 69.1932 86.8787 69.1574 86.9064 69.1293" fill="#EB996E"/>
<path d="M88.6371 70.4774C88.5444 70.4988 88.4267 69.8676 87.7955 69.5146C87.1643 69.1616 86.4975 69.3506 86.4761 69.265C86.4547 69.1794 86.608 69.1152 86.8933 69.0546C87.2675 68.984 87.6545 69.0458 87.9881 69.2293C88.3077 69.4032 88.547 69.6949 88.655 70.0424C88.7263 70.2991 88.6835 70.4774 88.6371 70.4774Z" fill="#2D2F34"/>
<path d="M89.7944 62.6533C89.8229 62.8245 90.4256 62.853 91.1031 63.0563C91.7807 63.2595 92.3049 63.5484 92.4226 63.4129C92.4761 63.3523 92.4226 63.1882 92.2086 62.9921C91.9403 62.7499 91.6205 62.5718 91.2734 62.4711C90.9262 62.3704 90.5607 62.3498 90.2045 62.4108C89.9334 62.4572 89.7801 62.5606 89.7944 62.6533Z" fill="#2D2F34"/>
<path d="M84.5273 61.423C84.6093 61.5728 85.0408 61.5086 85.5293 61.587C86.0179 61.6655 86.4137 61.8367 86.535 61.7154C86.5885 61.6548 86.535 61.5086 86.3923 61.3588C86.1767 61.1639 85.9068 61.0395 85.6185 61.0022C85.3303 60.9576 85.0353 61.0024 84.7733 61.1306C84.5772 61.2269 84.4952 61.3517 84.5273 61.423Z" fill="#2D2F34"/>
<path d="M90.4363 81.6178C89.7584 83.5959 88.6529 85.4004 87.1983 86.9027C86.6518 87.3915 86.1721 87.9502 85.7719 88.5645C85.4153 89.2064 85.3118 90.0409 85.7219 90.6435C86.132 91.2462 87.1662 91.3853 87.5799 90.7862C87.4127 91.2125 87.3245 91.6656 87.3195 92.1235C87.3204 92.3523 87.3819 92.5768 87.4978 92.7741C87.6137 92.9715 87.7798 93.1346 87.9793 93.2468C88.5249 93.5 89.1596 93.1969 89.6482 92.8474C90.6299 92.1428 91.4475 91.234 92.0446 90.1835C91.6523 90.6293 92.1445 91.4031 92.7364 91.4459C93.3284 91.4887 93.8526 91.0536 94.2164 90.5829C95.1221 89.4025 95.4395 87.8905 95.6856 86.4249C96.3459 82.5043 96.6834 78.5362 96.6948 74.5605" fill="#2D2F34"/>
<path d="M93.0434 60.8204C93.8208 63.7481 93.2965 66.8649 92.537 69.8033C91.7774 72.7418 90.786 75.6553 90.622 78.6829C90.5578 79.8775 90.622 81.1078 90.1833 82.2204C89.9302 82.873 89.5165 83.4543 89.2276 84.0926C89.0634 84.4029 88.9664 84.7443 88.9431 85.0945C88.9197 85.4448 88.9705 85.796 89.0921 86.1253C89.2587 86.4367 89.5064 86.6972 89.809 86.8793C90.1116 87.0613 90.4578 87.1581 90.811 87.1595C91.5195 87.1515 92.2079 86.9221 92.7795 86.5033C94.0356 85.5873 94.9744 84.302 95.4647 82.8267C95.947 81.3598 96.2756 79.8468 96.4454 78.312C97.0255 74.337 97.6056 70.3632 98.1856 66.3906C98.4388 64.6717 98.6885 62.9137 98.3497 61.2126C97.9656 59.4303 97.0387 57.8108 95.6965 56.5767C94.1239 55.0932 91.8879 54.109 89.8053 54.6831C89.11 54.8721 88.3789 55.3714 88.3789 56.1096C88.3789 56.6801 88.8318 57.1366 89.2526 57.536L93.4249 61.3196" fill="#2D2F34"/>
<path d="M90.8001 82.4772C90.8571 82.4772 90.825 82.1384 90.7395 81.5607C90.6539 80.983 90.5148 80.1557 90.4114 79.1322C90.2834 77.9464 90.2918 76.7499 90.4363 75.5661C90.6714 74.1216 91.0946 72.7141 91.6952 71.3795C92.3163 70.0025 92.8627 68.5931 93.332 67.1573C93.7036 65.9492 93.8652 64.6863 93.8099 63.4236C93.7707 62.5679 93.5533 61.7298 93.1715 60.963C93.0966 60.831 93.0289 60.7169 92.9683 60.6064C92.9153 60.5253 92.8569 60.4478 92.7935 60.3746C92.6901 60.2533 92.6259 60.1998 92.6045 60.2141C92.5831 60.2284 92.6045 60.314 92.6473 60.4602L92.7472 60.7205C92.7828 60.8275 92.822 60.9487 92.872 61.0771C93.1152 61.8365 93.2356 62.6298 93.2286 63.4271C93.1981 64.6157 92.9877 65.7928 92.6045 66.9183C92.1909 68.1986 91.5347 69.5644 90.932 71.0479C90.3023 72.4495 89.8806 73.9356 89.6803 75.4591C89.5623 76.7085 89.6139 77.968 89.8337 79.2035C89.9759 80.0246 90.1749 80.8349 90.4292 81.6284C90.6075 82.1955 90.7644 82.4914 90.8001 82.4772Z" fill="#2D2F34"/>
<path d="M99.9116 63.9657C99.8755 63.9379 99.8374 63.9128 99.7975 63.8908L99.4588 63.6911C99.309 63.6091 99.1307 63.5056 98.9274 63.3773C98.7241 63.2489 98.4817 63.1134 98.2142 62.9458C97.7007 62.6213 97.098 62.2325 96.449 61.7476C95.8 61.2626 95.101 60.7312 94.3914 60.1321C93.6817 59.533 93.0398 58.9268 92.4692 58.3491C91.8987 57.7714 91.3994 57.2507 91 56.7943C90.7967 56.5696 90.6184 56.3592 90.4615 56.1738C90.3046 55.9883 90.1727 55.8172 90.0621 55.6995L89.8125 55.3964C89.7554 55.3286 89.7233 55.2929 89.7198 55.2965C89.7162 55.3001 89.7447 55.3357 89.8018 55.4071L90.0372 55.7209C90.1406 55.8564 90.269 56.0204 90.4259 56.2059C90.5828 56.3913 90.7539 56.6053 90.9572 56.8335C91.353 57.2971 91.8487 57.8284 92.4122 58.4026C92.9756 58.9767 93.6318 59.5794 94.3379 60.1856C95.0439 60.7918 95.7643 61.3268 96.4026 61.801C97.041 62.2753 97.665 62.6676 98.1857 62.985C98.4424 63.149 98.6813 63.2845 98.8989 63.4058C99.1164 63.527 99.2876 63.6305 99.4374 63.7089L99.794 63.8943C99.8306 63.9222 99.87 63.9461 99.9116 63.9657Z" fill="#707683"/>
<path d="M99.8151 64.5576L99.6868 64.5041L99.3302 64.3615L99.0627 64.2616L98.7453 64.1261C98.5207 64.0298 98.2568 63.93 97.9786 63.7909L97.54 63.5841C97.3866 63.5092 97.2333 63.4236 97.0728 63.3416C96.7483 63.1775 96.4131 62.985 96.0601 62.771C95.302 62.3087 94.5731 61.8002 93.8776 61.2483C93.1869 60.6882 92.5318 60.0856 91.9163 59.4438C91.6381 59.1443 91.3671 58.8626 91.1389 58.5773C91.0212 58.4382 90.9035 58.3063 90.8001 58.1743C90.6967 58.0424 90.5932 57.914 90.5005 57.7892C90.3044 57.5467 90.1439 57.3149 90.0048 57.1152L89.8051 56.8335L89.6447 56.591C89.5519 56.4519 89.4806 56.3413 89.4236 56.2593C89.4019 56.2175 89.3743 56.1791 89.3416 56.1452C89.3416 56.1452 89.363 56.188 89.4093 56.2664L89.6197 56.6231L89.773 56.8691C89.8301 56.9583 89.8943 57.0546 89.9656 57.1544C90.1083 57.3577 90.258 57.5966 90.4542 57.8391L90.7466 58.2278C90.85 58.3633 90.9677 58.4953 91.1032 58.6379C91.3314 58.9232 91.5989 59.2085 91.877 59.5116C92.4927 60.1578 93.149 60.7641 93.842 61.3267C94.542 61.8803 95.2756 62.3901 96.0387 62.853C96.3953 63.0563 96.7305 63.256 97.0586 63.4165C97.2226 63.4985 97.3759 63.5841 97.5293 63.6554L97.9715 63.8586C98.2532 63.9942 98.5171 64.0904 98.7453 64.1867L99.0627 64.3115L99.3373 64.4078L99.7153 64.5326C99.7479 64.5434 99.7813 64.5517 99.8151 64.5576Z" fill="white"/>
<path d="M92.9717 84.6881C92.9717 84.6881 92.9717 84.6881 92.9966 84.6382L93.0573 84.4849C93.1072 84.3493 93.1856 84.1532 93.2712 83.8893C93.5192 83.1551 93.7252 82.4074 93.8882 81.6498C94.1021 80.6941 94.2947 79.5387 94.4552 78.2513C94.6156 76.964 94.7547 75.5447 94.9081 74.0576C95.2112 71.0835 95.4822 68.3911 95.6819 66.4369C95.7746 65.4634 95.8531 64.6753 95.9066 64.1261C95.9315 63.8551 95.9494 63.6447 95.9636 63.4949V63.3308C95.9636 63.2952 95.9636 63.2773 95.9636 63.2773C95.9636 63.2773 95.9636 63.2952 95.9636 63.3308C95.9636 63.3665 95.9636 63.4271 95.9422 63.4949L95.8709 64.1225C95.8103 64.6717 95.7247 65.4598 95.6213 66.4298C95.4144 68.384 95.1327 71.0657 94.8225 74.0505C94.6691 75.5375 94.5336 76.9568 94.3767 78.2442C94.2198 79.5316 94.0201 80.6798 93.8275 81.6391C93.6681 82.3963 93.4705 83.1449 93.2356 83.8822C93.1571 84.1425 93.0822 84.3422 93.0359 84.4777L92.9859 84.6346L92.9717 84.6881Z" fill="#707683"/>
<path d="M92.8542 75.4912C92.8727 75.4499 92.887 75.4069 92.897 75.3628C92.922 75.2701 92.9612 75.1453 93.004 74.9884C93.0967 74.6639 93.2251 74.1896 93.3606 73.6048C93.6637 72.4351 94.0524 70.8125 94.4304 69.0045C94.8084 67.1965 95.0866 65.549 95.272 64.3686C95.3612 63.7731 95.4325 63.2988 95.4753 62.9422C95.4967 62.7817 95.5145 62.6533 95.5252 62.557C95.53 62.512 95.53 62.4666 95.5252 62.4215C95.5131 62.4649 95.5036 62.5089 95.4967 62.5535C95.4824 62.6509 95.461 62.7793 95.4325 62.9386C95.379 63.2952 95.297 63.7588 95.2007 64.365C95.0046 65.5561 94.7086 67.2179 94.3377 69.0009C93.9668 70.784 93.5888 72.4315 93.3 73.6048C93.1573 74.186 93.0397 74.6746 92.9434 74.9955C92.9077 75.1524 92.8756 75.2772 92.8507 75.3735C92.8493 75.4128 92.8504 75.4521 92.8542 75.4912Z" fill="#707683"/>
<path d="M84.0994 77.5488C84.0994 77.4989 84.1172 77.4561 84.1386 77.4561C84.16 77.4561 84.1778 77.4989 84.1778 77.5488C84.1778 77.5988 84.1778 77.6416 84.1386 77.6416C84.0994 77.6416 84.0994 77.5988 84.0994 77.5488Z" fill="#2D2F34"/>
<path d="M83.9428 122.61L83.3401 150.95L92.7011 152.137C92.7011 152.137 95.7251 139.913 96.5774 133.18C97.4297 126.447 96.934 123.173 96.934 123.173H103.082C103.082 123.173 105.667 119.514 105.671 115.874C105.671 110.785 101.185 105.011 101.185 105.011L88.757 110.168C88.757 110.168 83.0512 115.16 83.9428 122.61Z" fill="#2D2F34"/>
<path d="M93.0576 115.788C93.1824 115.831 99.6584 119.201 99.6584 119.201L103.082 114.675L96.8519 110.039L93.0576 115.788Z" fill="#FFBE9D"/>
<path d="M72.6058 97.4405C72.6058 97.4405 69.3357 97.1623 67.5455 99.9795C65.7553 102.797 65.9586 105.008 67.2994 109.715C68.6974 114.622 68.947 121.986 74.3318 123.173C79.7166 124.361 84.6128 122.375 84.6128 122.375C84.6128 122.375 83.8996 118.908 85.2083 116.758C86.5171 114.608 87.5976 114.262 87.5976 114.262L94.3981 116.886L98.5134 111.263C98.5134 111.263 92.2335 104.394 85.2083 100.778C78.283 97.2087 72.7199 97.4619 72.6058 97.4405Z" fill="#2D2F34"/>
<path d="M95.5647 108.321L95.6182 108.367L95.7751 108.51L96.3635 109.073C96.8806 109.579 97.6223 110.307 98.5566 111.213L98.5887 111.248L98.5602 111.288L94.4663 116.929L94.4271 116.979L94.3701 116.958L90.4474 115.453C89.7555 115.196 89.0602 114.893 88.3327 114.668C87.6052 114.444 86.8314 114.312 86.0504 114.148C83.5186 113.593 81.0245 112.878 78.583 112.008C77.5113 111.642 76.4601 111.218 75.4341 110.738C74.5432 110.311 73.6881 109.813 72.8773 109.248C71.6971 108.435 70.6484 107.447 69.7676 106.316C69.445 105.905 69.1575 105.467 68.9082 105.008C68.9082 105.008 68.9332 105.033 68.9724 105.09L69.14 105.339C69.2113 105.45 69.304 105.589 69.4217 105.742C69.5394 105.896 69.6642 106.099 69.8247 106.274C70.7222 107.372 71.7759 108.333 72.9521 109.127C73.762 109.68 74.6146 110.167 75.5019 110.585C76.5235 111.069 77.5712 111.497 78.6401 111.865C81.0779 112.722 83.5657 113.43 86.0896 113.984C86.8635 114.151 87.6444 114.272 88.3862 114.508C89.1279 114.743 89.8126 115.043 90.5258 115.299L94.4485 116.819L94.3522 116.847L98.4925 111.241V111.316L96.3528 109.134L95.7822 108.549L95.6396 108.395C95.5754 108.342 95.5611 108.324 95.5647 108.321Z" fill="#707683"/>
<path d="M83.768 132.759C83.7599 132.694 83.7599 132.628 83.768 132.563V129.956C83.768 128.198 83.768 125.819 83.793 123.18C83.793 121.861 83.818 120.602 83.8429 119.457C83.8429 118.88 83.8857 118.341 83.8857 117.831C83.887 117.352 83.9396 116.873 84.0426 116.405C84.1944 115.728 84.4953 115.093 84.9234 114.547C85.036 114.397 85.1612 114.258 85.2979 114.13C85.3409 114.081 85.3887 114.037 85.4405 113.998C85.4405 113.998 85.4049 114.058 85.3228 114.155C85.2408 114.251 85.1196 114.394 84.9662 114.59C84.5702 115.141 84.2944 115.769 84.1567 116.433C83.9677 117.268 84.0462 118.309 83.9998 119.45C83.9535 120.591 83.9749 121.857 83.9642 123.177C83.9428 125.819 83.9214 128.209 83.8857 129.952C83.8857 130.819 83.8465 131.518 83.8251 132.003C83.8251 132.245 83.8001 132.434 83.793 132.559C83.7932 132.627 83.7848 132.694 83.768 132.759Z" fill="#707683"/>
<path d="M96.2207 118.395C96.3597 118.615 96.4643 118.856 96.5309 119.108C96.9301 120.3 97.0841 121.56 96.9838 122.813C96.9781 123.072 96.9349 123.33 96.8554 123.576C96.7948 123.576 96.941 122.396 96.7592 120.959C96.5773 119.522 96.1636 118.413 96.2207 118.395Z" fill="#707683"/>
<path d="M97.5901 118.726C97.666 118.97 97.7045 119.224 97.7042 119.479C97.7445 120.095 97.7134 120.714 97.6115 121.322C97.5034 121.929 97.3447 122.525 97.1372 123.106C97.0667 123.355 96.9661 123.594 96.8376 123.819C96.8658 123.565 96.9245 123.316 97.0124 123.077C97.1817 122.49 97.321 121.895 97.4296 121.294C97.6614 119.892 97.5402 118.73 97.5901 118.726Z" fill="#707683"/>
<path d="M100.999 112.978L107.622 117.239L114.44 119.279C114.554 119.315 114.66 119.373 114.751 119.45C114.843 119.527 114.917 119.622 114.971 119.729C115.024 119.836 115.056 119.953 115.063 120.072C115.071 120.192 115.054 120.311 115.014 120.424C114.964 120.556 114.884 120.675 114.779 120.77C114.674 120.865 114.548 120.933 114.411 120.97C112.646 121.433 106.135 123.109 105.621 122.753C105.026 122.321 97.6223 118.331 97.6223 118.331L100.999 112.978Z" fill="#2D2F34"/>
<g opacity="0.6">
<path opacity="0.6" d="M115.014 120.424L105.122 122.439L105.435 122.631C105.705 122.797 106.025 122.861 106.338 122.813C107.176 122.681 109.476 122.264 114.401 120.991C114.541 120.954 114.671 120.882 114.778 120.784C114.885 120.685 114.966 120.561 115.014 120.424Z" fill="white"/>
</g>
<path d="M103.67 119.486C103.792 119.436 103.929 119.432 104.053 119.476C104.177 119.52 104.281 119.609 104.344 119.725C104.399 119.845 104.406 119.982 104.363 120.107C104.319 120.231 104.23 120.335 104.112 120.395C103.983 120.449 103.838 120.452 103.706 120.405C103.574 120.357 103.465 120.262 103.399 120.139C103.355 120.007 103.364 119.864 103.423 119.739C103.482 119.614 103.587 119.517 103.717 119.468" fill="#5F646F"/>
<path d="M110.763 120.153C110.641 119.835 110.581 119.498 110.585 119.158C110.642 118.822 110.763 118.5 110.941 118.209C110.941 118.191 110.813 118.249 110.681 118.405C110.517 118.618 110.418 118.873 110.396 119.14C110.369 119.406 110.421 119.674 110.545 119.91C110.645 120.092 110.734 120.167 110.763 120.153Z" fill="#5F646F"/>
<path d="M112.072 120.231C112.082 119.948 112.109 119.666 112.154 119.386C112.257 119.12 112.376 118.861 112.51 118.609C112.489 118.562 112.115 118.823 111.983 119.322C111.922 119.469 111.899 119.629 111.914 119.788C111.93 119.946 111.984 120.098 112.072 120.231Z" fill="#5F646F"/>
<path d="M108.898 120.36C108.879 119.921 108.892 119.481 108.938 119.044C109.046 118.617 109.184 118.199 109.351 117.792C109.012 118.113 108.8 118.544 108.752 119.008C108.64 119.462 108.692 119.941 108.898 120.36Z" fill="#5F646F"/>
<path d="M106.569 119.122C106.626 119.122 106.705 118.619 107.008 118.077C107.311 117.535 107.7 117.193 107.664 117.147C107.32 117.347 107.037 117.636 106.844 117.984C106.652 118.331 106.557 118.725 106.569 119.122Z" fill="#5F646F"/>
<path d="M104.401 117.803C104.493 117.418 104.637 117.047 104.829 116.701C105.072 116.389 105.355 116.111 105.671 115.874C105.671 115.852 105.521 115.874 105.314 115.988C105.051 116.134 104.828 116.344 104.665 116.598C104.498 116.848 104.392 117.136 104.358 117.436C104.344 117.664 104.376 117.806 104.401 117.803Z" fill="#5F646F"/>
<path d="M104.408 116.462C104.332 116.383 104.24 116.323 104.137 116.284C103.866 116.152 103.572 116.075 103.271 116.059C103.051 116.028 102.827 116.069 102.632 116.177C102.573 116.219 102.528 116.278 102.503 116.346C102.478 116.414 102.475 116.488 102.493 116.558C102.536 116.695 102.629 116.809 102.754 116.879C103.012 117.014 103.309 117.054 103.594 116.994C103.879 116.933 104.134 116.775 104.316 116.548C104.489 116.319 104.591 116.043 104.609 115.756C104.626 115.469 104.557 115.184 104.412 114.936C104.373 114.872 104.322 114.818 104.26 114.777C104.198 114.736 104.129 114.708 104.055 114.697C103.981 114.691 103.907 114.708 103.843 114.746C103.779 114.785 103.728 114.842 103.699 114.911C103.628 115.117 103.613 115.339 103.656 115.553C103.692 115.85 103.781 116.139 103.92 116.405C103.963 116.506 104.026 116.597 104.105 116.672C103.943 116.312 103.836 115.93 103.788 115.538C103.761 115.35 103.779 115.158 103.841 114.978C103.856 114.941 103.883 114.91 103.917 114.889C103.951 114.868 103.99 114.858 104.03 114.861C104.076 114.873 104.119 114.895 104.156 114.924C104.194 114.954 104.225 114.99 104.248 115.032C104.366 115.25 104.42 115.498 104.402 115.746C104.384 115.993 104.296 116.231 104.148 116.43C103.996 116.624 103.782 116.76 103.542 116.815C103.301 116.869 103.049 116.839 102.829 116.729C102.741 116.684 102.672 116.608 102.636 116.515C102.624 116.476 102.624 116.435 102.638 116.396C102.651 116.357 102.677 116.324 102.711 116.301C102.874 116.211 103.06 116.173 103.246 116.191C103.646 116.213 104.04 116.305 104.408 116.462Z" fill="#5F646F"/>
<path d="M74.5209 110.364C74.2277 110.333 73.9406 110.26 73.6686 110.146C72.9988 109.917 72.3507 109.628 71.7322 109.283C71.1146 108.936 70.5298 108.534 69.9848 108.082C69.7501 107.905 69.5392 107.699 69.3572 107.468C69.6088 107.618 69.8474 107.789 70.0704 107.978C70.6318 108.395 71.219 108.777 71.8285 109.119C73.2549 109.925 74.5387 110.31 74.5209 110.364Z" fill="#707683"/>
<path d="M106.53 84.4349C107.651 87.1931 108.347 90.1052 108.595 93.072C108.837 95.7715 109.743 104.483 108.705 106.063C107.668 107.643 97.3225 110.029 97.3225 110.029L93.0432 106.131L101.391 99.8511L100.618 94.1454L101.235 90.1514L106.53 84.4349Z" fill="#FFBE9D"/>
<path d="M104.398 100.86C103.959 100.486 103.455 100.194 102.911 100.001C102.349 99.8658 101.767 99.8367 101.195 99.9153C101.342 99.8154 101.514 99.7563 101.691 99.7441C102.116 99.6776 102.551 99.7071 102.963 99.8305C103.375 99.954 103.755 100.168 104.073 100.457C104.316 100.671 104.415 100.85 104.398 100.86Z" fill="#EB996E"/>
<path d="M58.6775 83.9071L58.6525 89.4381L56.7197 115.767C56.7197 115.767 57.7895 128.547 58.4564 135.762C59.0305 142.027 57.9999 152.929 57.9999 152.929L47.4301 152.882L43.8105 116.508L41.5638 93.8137L37.527 83.472L58.6775 83.9071Z" fill="#2D2F34"/>
<path d="M31.1438 83.3152L32.7093 120.484L43.2792 148.04L43.7641 149.701L50.0833 148.2L45.6756 83.0834L31.1438 83.3152Z" fill="#2D2F34"/>
<path d="M41.5885 94.067C41.5846 94.118 41.5846 94.1693 41.5885 94.2203C41.5885 94.3308 41.5885 94.4806 41.5885 94.6696C41.5885 95.0726 41.6134 95.6503 41.6348 96.392C41.6705 97.8862 41.7668 100.051 41.9094 102.722C42.2018 108.071 42.7653 115.439 43.6568 123.555C44.5483 131.671 45.5111 139.007 46.2244 144.31C46.581 146.952 46.8805 149.092 47.0838 150.586C47.1908 151.317 47.2728 151.891 47.3299 152.29C47.3584 152.479 47.3798 152.626 47.3976 152.733C47.4017 152.783 47.4113 152.834 47.4261 152.882C47.4309 152.833 47.4309 152.782 47.4261 152.733C47.4261 152.622 47.4012 152.472 47.3798 152.287C47.3299 151.884 47.2621 151.31 47.1729 150.575C46.9839 149.081 46.7094 146.934 46.3741 144.288C45.6966 138.982 44.7409 131.653 43.8779 123.534C43.0149 115.414 42.4015 108.053 42.0734 102.715C41.913 100.044 41.7953 97.8827 41.7347 96.3885C41.699 95.6503 41.674 95.0726 41.6526 94.6661C41.6526 94.4771 41.6526 94.3308 41.6277 94.2203C41.62 94.168 41.6068 94.1166 41.5885 94.067Z" fill="#707683"/>
<path d="M42.2126 91.8951C42.2126 91.8951 42.2126 91.9308 42.177 91.9736C42.1408 91.9968 42.0987 92.0091 42.0557 92.0091C42.0128 92.0091 41.9707 91.9968 41.9345 91.9736C41.8835 91.9331 41.8415 91.8824 41.8114 91.8246C41.7813 91.7668 41.7637 91.7034 41.7598 91.6384C41.7384 91.4922 41.717 91.3388 41.6956 91.1748C41.5993 90.4937 41.4816 89.5486 41.3639 88.5038C41.2462 87.4589 41.1535 86.5103 41.0929 85.8257C41.0394 85.4562 41.0215 85.0824 41.0394 84.7095C41.1335 85.0697 41.1979 85.4371 41.232 85.8078C41.3247 86.4925 41.4424 87.4375 41.5601 88.4824C41.6777 89.5272 41.774 90.4723 41.8311 91.1605C41.8739 91.4957 41.8311 91.8095 41.9737 91.9094C41.9999 91.9278 42.0302 91.9394 42.062 91.9431C42.0937 91.9468 42.1259 91.9426 42.1556 91.9308C42.1948 91.9344 42.2055 91.8951 42.2126 91.8951Z" fill="#707683"/>
<path d="M43.3397 85.2195C43.3397 85.2195 43.3932 85.1909 43.5002 85.2195C43.5939 85.2403 43.6822 85.2808 43.7592 85.3381C43.8362 85.3955 43.9002 85.4685 43.9471 85.5524C43.9939 85.6362 44.0224 85.729 44.0308 85.8247C44.0392 85.9203 44.0273 86.0167 43.9959 86.1074C43.9429 86.2427 43.8523 86.3599 43.7347 86.4453C43.6172 86.5306 43.4776 86.5804 43.3326 86.5888C43.1869 86.5916 43.0439 86.5497 42.9227 86.4687C42.8016 86.3877 42.7082 86.2716 42.655 86.136C42.6052 86.0302 42.5843 85.9131 42.5943 85.7966C42.6043 85.6801 42.645 85.5684 42.7121 85.4727C42.7566 85.4094 42.8139 85.356 42.8802 85.3161C42.9465 85.2762 43.0204 85.2506 43.0972 85.2409C43.2042 85.2409 43.2577 85.2658 43.2541 85.2765C43.1681 85.2887 43.0857 85.3191 43.0125 85.3659C42.9393 85.4127 42.877 85.4746 42.8298 85.5476C42.7864 85.6262 42.7636 85.7145 42.7636 85.8043C42.7636 85.8941 42.7864 85.9824 42.8298 86.0611C42.8728 86.1596 42.9436 86.2435 43.0335 86.3024C43.1235 86.3613 43.2286 86.3927 43.3362 86.3927C43.4445 86.3848 43.5487 86.3474 43.6373 86.2845C43.7259 86.2217 43.7957 86.1358 43.839 86.0361C43.8728 85.9535 43.885 85.8637 43.8744 85.775C43.8638 85.6864 43.8307 85.602 43.7783 85.5297C43.5786 85.248 43.329 85.2516 43.3397 85.2195Z" fill="#707683"/>
<path d="M33.8571 84.5775C33.9525 84.8025 33.9928 85.047 33.9748 85.2907C33.9744 85.8861 33.8036 86.4689 33.4827 86.9704C33.1618 87.4719 32.7056 87.8725 32.1668 88.1258C31.9492 88.2488 31.7036 88.3139 31.4536 88.3148C31.4536 88.2862 31.7139 88.2113 32.0919 88.0009C32.5841 87.7284 33.0017 87.3389 33.308 86.8669C33.6065 86.3888 33.7852 85.8456 33.8286 85.2836C33.8714 84.8557 33.825 84.5846 33.8571 84.5775Z" fill="#707683"/>
<path d="M36.853 85.8613C36.8031 85.8792 36.6497 85.5404 36.5784 85.0946C36.5039 84.8276 36.5114 84.5443 36.5998 84.2816C36.6569 84.2816 36.7032 84.6382 36.771 85.0625C36.8464 85.3217 36.8742 85.5923 36.853 85.8613Z" fill="#707683"/>
<path d="M38.0192 85.8649C37.8749 85.6161 37.7873 85.3385 37.7624 85.0519C37.6769 84.7763 37.6549 84.4849 37.6983 84.1996C37.9324 84.7225 38.0423 85.2925 38.0192 85.8649Z" fill="#707683"/>
<path d="M49.7371 85.8649C49.6836 85.8649 49.5837 85.6295 49.516 85.3157C49.4482 85.0019 49.4339 84.7416 49.4874 84.7309C49.5409 84.7202 49.6372 84.9627 49.7085 85.2765C49.7798 85.5903 49.7905 85.8506 49.7371 85.8649Z" fill="#707683"/>
<path d="M50.8855 86.2643C50.5602 85.6013 50.4516 84.8528 50.5752 84.1247C50.714 84.8323 50.8175 85.5464 50.8855 86.2643Z" fill="#707683"/>
<path d="M58.8271 90.1834C58.7293 90.2429 58.6219 90.2851 58.5098 90.3082C58.2075 90.3879 57.8946 90.4192 57.5826 90.4009C56.54 90.322 55.5646 89.8566 54.8474 89.0957C54.1535 88.3326 53.6554 87.4123 53.396 86.4141C53.3138 86.1158 53.2471 85.8135 53.1963 85.5083C53.1683 85.3977 53.1599 85.283 53.1713 85.1695C53.2034 85.1695 53.289 85.6367 53.5279 86.3713C53.8186 87.3314 54.3179 88.2155 54.99 88.9602C55.6772 89.6874 56.5992 90.1484 57.5933 90.2619C58.0062 90.2839 58.4203 90.2576 58.8271 90.1834Z" fill="#707683"/>
<path d="M47.765 28.9181C48.5878 27.3713 49.2773 25.7571 49.8262 24.0932C50.3723 22.421 50.4948 20.6394 50.1828 18.9081C50.1293 18.6478 49.598 16.8826 49.3305 16.8683C49.1415 16.8683 49.3911 18.4695 49.2735 18.6193C48.1394 20.0457 47.6188 21.8537 47.4904 23.6617C47.3875 25.4186 47.4796 27.1815 47.765 28.9181Z" fill="#2D2F34"/>
<path d="M36.6177 37.0595C36.7889 35.8363 36.9208 34.8664 36.9101 34.8664C36.8994 34.8664 32.777 33.7965 33.1265 29.6171C33.2941 27.588 33.9788 23.4371 34.6421 19.6927C34.9856 17.7493 36.0488 16.0068 37.6198 14.8125C39.1909 13.6182 41.1543 13.0599 43.1187 13.2487L43.5216 13.288C47.8616 13.9584 49.7159 18.0166 48.9064 22.3565L46.6241 37.5481L35.0344 47.8005L36.6177 37.0595Z" fill="#7F544E"/>
<path d="M36.9099 34.8664C38.8475 35.0445 40.7955 34.6633 42.5229 33.768C42.5229 33.768 40.9039 36.6922 36.753 35.9077L36.9099 34.8664Z" fill="#633A34"/>
<path d="M35.3552 23.2409C35.3381 23.3972 35.383 23.5539 35.4804 23.6774C35.5778 23.8008 35.7199 23.881 35.8759 23.9006C35.9514 23.9155 36.0292 23.9148 36.1045 23.8988C36.1798 23.8828 36.2511 23.8517 36.3141 23.8073C36.3771 23.763 36.4304 23.7064 36.4709 23.6409C36.5114 23.5755 36.5383 23.5025 36.5498 23.4263C36.567 23.2706 36.5225 23.1143 36.4259 22.991C36.3292 22.8677 36.1881 22.7871 36.0328 22.7666C35.957 22.7523 35.8792 22.7532 35.8039 22.7694C35.7285 22.7856 35.6572 22.8168 35.594 22.861C35.5309 22.9052 35.4772 22.9615 35.4362 23.0268C35.3952 23.092 35.3677 23.1648 35.3552 23.2409Z" fill="#2D2F34"/>
<path d="M35.3548 21.5185C35.4225 21.6041 35.9075 21.3117 36.553 21.3723C37.1984 21.4329 37.6228 21.8038 37.7155 21.7289C37.8082 21.654 37.6906 21.547 37.498 21.3723C37.2386 21.1517 36.9171 21.0171 36.5779 20.9871C36.2425 20.9551 35.9055 21.03 35.6151 21.2011C35.419 21.3438 35.3548 21.4793 35.3548 21.5185Z" fill="#2D2F34"/>
<path d="M41.3499 23.9506C41.3346 24.1065 41.3803 24.2623 41.4773 24.3853C41.5744 24.5083 41.7153 24.5889 41.8705 24.6103C42.0218 24.6362 42.1772 24.6013 42.3028 24.5131C42.4284 24.4249 42.514 24.2906 42.541 24.1396C42.5572 23.9835 42.5118 23.8272 42.4146 23.704C42.3174 23.5808 42.1759 23.5004 42.0203 23.4798C41.9453 23.466 41.8683 23.4673 41.7938 23.4836C41.7193 23.4998 41.6488 23.5308 41.5864 23.5746C41.524 23.6184 41.4709 23.6742 41.4303 23.7388C41.3897 23.8033 41.3624 23.8753 41.3499 23.9506Z" fill="#2D2F34"/>
<path d="M41.6602 22.3815C41.728 22.4635 42.2165 22.1711 42.8584 22.2353C43.5003 22.2994 43.9461 22.6667 44.021 22.5919C44.0959 22.517 43.9996 22.41 43.807 22.2353C43.5471 22.0132 43.224 21.8785 42.8834 21.8501C42.5478 21.8168 42.2104 21.8918 41.9205 22.0641C41.7101 22.2067 41.6281 22.3565 41.6602 22.3815Z" fill="#2D2F34"/>
<path d="M38.8785 27.11C38.5481 26.9726 38.2019 26.8768 37.8479 26.8248C37.6874 26.7891 37.5341 26.7427 37.5163 26.6286C37.5191 26.4571 37.5738 26.2905 37.6732 26.1508L38.2794 24.9454C39.1246 23.223 39.7558 21.8037 39.6844 21.7716C39.6131 21.7395 38.8714 23.1018 38.0262 24.8242L37.4414 26.0402C37.3181 26.2288 37.2663 26.4551 37.2952 26.6785C37.3131 26.7385 37.3446 26.7935 37.3873 26.8393C37.43 26.8851 37.4827 26.9204 37.5412 26.9424C37.6298 26.9756 37.722 26.9983 37.8158 27.0102C38.1641 27.0904 38.5214 27.1239 38.8785 27.11Z" fill="#2D2F34"/>
<path d="M41.9456 19.7675C41.992 19.9494 42.6588 19.928 43.3934 20.092C44.128 20.2561 44.7307 20.5164 44.8484 20.3702C44.8983 20.2989 44.8092 20.1241 44.5774 19.9316C44.2686 19.6922 43.9093 19.5264 43.5268 19.4467C43.1443 19.3669 42.7487 19.3755 42.37 19.4715C42.0811 19.5571 41.9278 19.6819 41.9456 19.7675Z" fill="#2D2F34"/>
<path d="M35.8438 19.4002C35.9436 19.5571 36.4037 19.4466 36.935 19.493C37.4664 19.5393 37.9121 19.6855 38.0334 19.5393C38.0833 19.4716 38.0334 19.3182 37.8444 19.1613C37.5943 18.9701 37.2932 18.8572 36.979 18.8369C36.6649 18.8166 36.3518 18.8898 36.0792 19.0472C35.8759 19.1791 35.801 19.3254 35.8438 19.4002Z" fill="#2D2F34"/>
<path d="M48.2859 25.4091C48.3608 25.3842 51.2493 24.8314 50.8856 27.6914C50.5218 30.5514 47.726 29.5921 47.7296 29.5101C47.7331 29.4281 48.2859 25.4091 48.2859 25.4091Z" fill="#7F544E"/>
<path d="M48.7419 28.5401C48.7419 28.5401 48.7883 28.5793 48.8667 28.6293C48.9742 28.6925 49.1015 28.7128 49.2233 28.6863C49.5407 28.6114 49.8545 28.1657 49.9366 27.6522C49.9705 27.4136 49.9535 27.1705 49.8866 26.9389C49.8712 26.8462 49.8336 26.7586 49.7772 26.6835C49.7207 26.6084 49.6469 26.548 49.5621 26.5075C49.5063 26.4854 49.4446 26.4833 49.3874 26.5015C49.3302 26.5196 49.2811 26.557 49.2483 26.6073C49.202 26.6822 49.2126 26.7428 49.1948 26.7464C49.177 26.7499 49.1413 26.6893 49.1948 26.5752C49.2222 26.508 49.2695 26.4508 49.3303 26.4112C49.3725 26.3852 49.4197 26.3682 49.4688 26.3615C49.518 26.3547 49.568 26.3583 49.6156 26.3719C49.7297 26.4109 49.832 26.478 49.9131 26.5672C49.9942 26.6564 50.0513 26.7646 50.0792 26.8819C50.1705 27.1452 50.195 27.427 50.1505 27.7021C50.0578 28.2727 49.6941 28.7719 49.2661 28.8432C49.1864 28.855 49.1051 28.8489 49.0281 28.8255C48.951 28.802 48.8801 28.7618 48.8204 28.7077C48.7384 28.6079 48.7312 28.5437 48.7419 28.5401Z" fill="#633A34"/>
<path d="M37.1381 15.2244C36.7138 14.907 38.3042 13.5982 39.5096 13.2381C41.3318 12.696 44.0171 12.5748 45.5398 13.2381C47.3692 14.0404 48.8242 15.203 49.5445 17.068C50.2243 18.9594 50.3892 20.9974 50.0224 22.9735C49.9626 23.584 49.741 24.1675 49.3805 24.6638C48.8955 25.2379 48.0753 25.5339 47.9897 26.4076C47.9797 26.5667 47.9379 26.7222 47.8669 26.8649C47.7958 27.0076 47.697 27.1346 47.5761 27.2385C46.977 27.7235 46.4099 27.1137 46.1853 26.5502C45.711 25.3449 45.8287 24.0005 45.9428 22.7131C45.9798 21.7916 46.1665 20.8823 46.4955 20.0207C46.6988 19.5643 46.9876 19.1471 47.166 18.6799C47.2709 18.4517 47.3253 18.2036 47.3253 17.9524C47.3253 17.7013 47.2709 17.4531 47.166 17.2249C47.1066 17.1317 47.0398 17.0435 46.9663 16.961C46.6157 16.5588 46.1643 16.2572 45.6585 16.0874C45.1527 15.9175 44.6107 15.8855 44.0884 15.9946C42.4017 16.3512 39.5417 16.8184 38.8962 16.1729C37.9726 15.2493 37.7979 14.7037 37.7979 14.7037L37.1381 15.2244Z" fill="#2D2F34"/>
<path d="M27.8666 58.0744C27.8666 58.0744 26.5792 77.6629 27.2996 80.2269C28.0199 82.7909 31.7073 88.2078 31.7073 88.2078C32.528 87.8641 33.2019 87.2432 33.6116 86.4533C34.2249 85.1909 33.9896 85.2943 33.9896 85.2943C33.9896 85.2943 31.0119 83.1832 31.6823 80.0308C32.3527 76.8784 32.2529 58.3454 32.2529 58.3454L27.8666 58.0744Z" fill="#7F544E"/>
<path d="M30.5694 42.8544C30.5694 42.8544 28.2871 44.7729 27.9697 48.6279C27.6844 52.1012 27.285 58.7662 27.285 58.7662L31.4146 58.6771L30.5694 42.8544Z" fill="#0031B2"/>
<path d="M29.913 43.7923C30.2696 42.4193 36.4318 38.3504 36.4318 38.3504C36.4318 38.3504 36.0039 42.7617 38.2363 43.104C40.4686 43.4464 46.9054 35.765 46.9054 35.765L55.0646 38.1186C56.133 39.0758 57.0271 40.2112 57.7071 41.4743C58.645 43.3643 59.269 68.3234 59.269 68.3234L58.2206 79.3033C58.2806 80.0604 58.5163 80.793 58.9089 81.443C59.508 82.3024 59.6791 85.2944 56.7407 85.166C53.9591 85.0483 42.6796 86.949 37.1058 86.6138C31.532 86.2786 30.7118 85.8828 30.6869 82.6911C30.6512 79.5922 31.7246 77.5809 32.0705 71.918C32.4164 66.255 29.5707 45.1795 29.913 43.7923Z" fill="#0031B2"/>
<path d="M30.9722 47.3655C30.9569 47.5768 30.9569 47.7889 30.9722 48.0002C30.9722 48.4068 30.9722 48.9952 31.0079 49.7227C31.0471 51.1776 31.1327 53.1889 31.2433 55.407C31.3538 57.6251 31.4572 59.6078 31.5321 61.0878C31.5713 61.801 31.5999 62.3751 31.6248 62.8102C31.627 63.0218 31.6461 63.2328 31.6819 63.4414C31.6995 63.2314 31.6995 63.0202 31.6819 62.8102C31.6819 62.4001 31.6819 61.8117 31.6498 61.0842C31.607 59.6292 31.525 57.618 31.4144 55.3999C31.3039 53.1818 31.2005 51.199 31.122 49.7191C31.0863 49.0059 31.0543 48.4317 31.0293 47.9967C31.0271 47.7851 31.008 47.574 30.9722 47.3655Z" fill="#2D2F34"/>
<path d="M31.4572 42.3052C31.1454 42.7678 30.9542 43.3011 30.9008 43.8564C30.7883 44.4029 30.8115 44.9686 30.9686 45.504C31.0257 45.504 30.9472 44.7658 31.0827 43.8849C31.2182 43.0041 31.5071 42.3266 31.4572 42.3052Z" fill="#2D2F34"/>
<path d="M38.4115 82.0634C38.612 82.1223 38.8172 82.1641 39.0248 82.1882C39.4242 82.256 40.0019 82.3309 40.7223 82.3986C44.4805 82.7447 48.2703 82.3954 51.902 81.368C52.5938 81.1683 53.1501 80.99 53.5281 80.8474C53.727 80.7836 53.9212 80.7061 54.1094 80.6156C53.9042 80.6531 53.7026 80.708 53.5067 80.7796C53.1216 80.8973 52.5617 81.0578 51.8663 81.2397C50.0542 81.7124 48.2069 82.0379 46.3424 82.2132C44.4771 82.3814 42.6013 82.4005 40.733 82.2703C40.0198 82.2168 39.4349 82.1633 39.0355 82.1134C38.8289 82.0828 38.6204 82.0661 38.4115 82.0634Z" fill="#2D2F34"/>
<path d="M35.8653 78.1693C35.9568 78.2552 36.0586 78.3295 36.1684 78.3904C36.3716 78.5259 36.6712 78.7042 37.0492 78.9146C39.0251 80.0029 41.1638 80.7651 43.3826 81.1719C43.8105 81.2468 44.1564 81.2967 44.3953 81.3181C44.5187 81.3417 44.6446 81.3489 44.7698 81.3395C44.7698 81.311 44.2491 81.2254 43.4111 81.0435C42.3235 80.8025 41.2517 80.4953 40.2016 80.1235C39.1481 79.7485 38.1201 79.3053 37.1241 78.7969C36.3431 78.4118 35.8831 78.1443 35.8653 78.1693Z" fill="#2D2F34"/>
<path d="M42.1309 69.7854C42.078 69.739 42.022 69.6961 41.9633 69.657L41.4712 69.3004L39.6097 67.9489C38.0192 66.7757 35.7797 65.0568 33.2371 62.8494L33.205 62.9885L42.9796 60.5136L43.8605 60.2925L44.0459 60.2462L43.8961 60.1285C40.9457 57.8647 37.6772 56.049 34.1964 54.7401V54.8828L40.3942 52.1226L42.1309 51.3595L42.5802 51.1491C42.6331 51.129 42.6834 51.1026 42.73 51.0706C42.6755 51.0868 42.622 51.1058 42.5695 51.1277L42.1131 51.3167L40.3728 52.0584L34.1464 54.7579L33.9753 54.8328L34.15 54.897C37.6033 56.2194 40.8465 58.0356 43.7784 60.2889L43.8105 60.1249L42.9297 60.3496L33.1693 62.8458L33.016 62.8851L33.1337 62.9849C35.6941 65.1852 37.9479 66.9076 39.5526 68.0416C40.3586 68.6193 41.0005 69.0579 41.4427 69.3539L41.949 69.6891C42.0067 69.7266 42.0675 69.7588 42.1309 69.7854Z" fill="white"/>
<g opacity="0.3">
<path opacity="0.3" d="M32.4201 61.5621C32.9176 61.2757 33.494 61.1569 34.0641 61.2233C38.5574 61.3374 42.7974 63.2346 46.8128 65.253C50.8283 67.2714 54.6582 69.493 59.0659 70.3132C59.0659 71.3831 58.2101 71.9287 57.1902 72.214C55.2431 72.7524 53.1391 72.4565 51.2419 71.7575C49.3448 71.0585 47.6224 69.9745 45.8928 68.9046L37.4947 63.6126C36.6031 63.0527 35.5761 62.4678 34.5562 62.7282C34.1354 62.8352 33.7645 63.0848 33.3509 63.2132C33.1511 63.2988 32.9317 63.3278 32.7166 63.2969C32.5014 63.2661 32.299 63.1767 32.1313 63.0384C31.7426 62.6283 31.953 61.8901 32.4201 61.5621Z" fill="black"/>
</g>
<path d="M60.5569 55.1003C60.5569 55.1003 60.7459 66.2657 60.5569 68.2378C60.3679 70.2098 58.7346 70.9837 56.249 70.734C53.7635 70.4844 39.4464 69.4979 36.7398 67.8539L37.9059 63.3571C37.9059 63.3571 47.4092 61.102 51.0319 61.102C51.0319 61.102 49.8158 59.319 50.0726 55.1074C50.3864 49.9723 60.5569 55.1003 60.5569 55.1003Z" fill="#7F544E"/>
<path d="M34.6632 60.9665C35.4574 61.2106 36.1972 61.6053 36.8421 62.1291C37.6552 62.8887 39.5916 63.8016 39.5916 63.8016L39.2265 68.6401C39.2265 68.6401 35.9247 67.9797 34.7167 66.9683C33.4508 66.8934 30.0059 67.9026 29.0431 67.9026C28.0802 67.9026 22.0571 64.7716 22.0571 64.7716C22.3732 64.5359 22.7392 64.376 23.1269 64.3044C23.6078 64.2637 24.0921 64.3158 24.5534 64.4577H29.2677L32.1634 63.3023C32.2271 63.2809 32.2835 63.2419 32.326 63.1897C32.3685 63.1376 32.3954 63.0746 32.4036 63.0079C32.4118 62.9411 32.4009 62.8734 32.3723 62.8126C32.3437 62.7518 32.2985 62.7002 32.2419 62.664C31.9801 62.4855 31.6707 62.3898 31.3539 62.3894C30.4873 62.3894 28.9646 62.2004 28.8897 61.5407C28.8148 60.881 29.3355 60.7668 30.6514 60.7668C31.9673 60.7668 33.6505 60.5636 34.6632 60.9665Z" fill="#7F544E"/>
<path d="M51.0457 61.0949C51.0457 61.1234 51.4023 61.0949 51.9587 61.1341C52.6839 61.1908 53.3866 61.4128 54.0127 61.7832C54.6229 62.1817 55.135 62.7133 55.5105 63.338C55.8136 63.8123 55.9562 64.1332 55.9812 64.1225C55.9139 63.8195 55.7931 63.5309 55.6246 63.2702C55.2788 62.5951 54.7553 62.0271 54.1106 61.6274C53.4659 61.2277 52.7243 61.0116 51.9658 61.0022C51.656 60.9738 51.3436 61.0053 51.0457 61.0949Z" fill="#633A34"/>
<path d="M24.4961 65.7665C24.4961 65.795 24.924 65.8628 25.6123 66.0161C26.5113 66.2482 27.4336 66.3786 28.3617 66.4048C29.2947 66.3842 30.2173 66.2045 31.0898 65.8735C31.352 65.775 31.606 65.6557 31.8493 65.5169C31.9432 65.4706 32.0287 65.4091 32.1025 65.335C32.0847 65.3065 31.7067 65.5347 31.0327 65.7629C30.1652 66.049 29.2606 66.2064 28.3475 66.2301C27.4324 66.2003 26.5219 66.0893 25.6265 65.8984C25.2563 65.8099 24.8768 65.7656 24.4961 65.7665Z" fill="#633A34"/>
<path d="M24.4959 65.7665C24.3114 65.7315 24.1421 65.6406 24.0109 65.5062C23.9391 65.4321 23.8887 65.3399 23.8648 65.2395C23.841 65.1391 23.8446 65.0341 23.8754 64.9356C23.9248 64.8128 24.0146 64.7105 24.13 64.6456C24.2455 64.5808 24.3796 64.5573 24.5102 64.579H27.363L29.2459 64.5576H29.278C30.1268 64.201 30.8471 63.9086 31.3535 63.6911C31.6253 63.5934 31.8888 63.4742 32.1416 63.3345C31.8578 63.3998 31.5808 63.4917 31.3143 63.6091C30.7972 63.7981 30.0661 64.0762 29.2138 64.4114H29.2459H27.363L24.5102 64.4507C24.3483 64.43 24.1843 64.4654 24.0454 64.5511C23.9065 64.6368 23.8012 64.7675 23.747 64.9214C23.7156 65.0393 23.7165 65.1634 23.7498 65.2808C23.7831 65.3982 23.8474 65.5044 23.936 65.5882C24.0062 65.6635 24.0946 65.7195 24.1926 65.7507C24.2907 65.782 24.3951 65.7874 24.4959 65.7665Z" fill="#633A34"/>
<path d="M47.5902 35.9861C47.5902 35.9861 53.8201 37.5409 55.079 38.1257C56.3378 38.7106 60.2569 41.7275 60.6385 46.6059C61.02 51.4843 61.2661 55.0932 61.2661 55.0932L49.1414 55.1324L47.5902 35.9861Z" fill="#0031B2"/>
<path d="M49.1345 55.1395C49.1345 55.193 51.8947 55.2323 55.3003 55.2323C58.7059 55.2323 61.4661 55.193 61.4661 55.1395C61.4661 55.086 58.7059 55.0468 55.3003 55.0468C51.8947 55.0468 49.1345 55.0896 49.1345 55.1395Z" fill="#2D2F34"/>
<path d="M48.931 46.606C48.8811 46.606 48.8882 48.4888 48.9524 50.8068C49.0166 53.1248 49.1058 55.0005 49.1593 55.0005C49.2127 55.0005 49.1985 53.1176 49.1379 50.7997C49.0772 48.4817 48.9845 46.606 48.931 46.606Z" fill="#2D2F34"/>
<path d="M22.0567 64.7822C22.1931 64.8846 22.3401 64.9719 22.4953 65.0425C22.7806 65.1959 23.2086 65.417 23.7185 65.6809C24.7634 66.2087 26.2148 66.9361 27.8302 67.6601C28.0335 67.7492 28.2403 67.8384 28.4436 67.9132C28.5493 67.9566 28.6593 67.9888 28.7717 68.0095C28.8844 68.0185 28.9977 68.0185 29.1104 68.0095C29.5348 67.9739 29.9342 67.9061 30.3158 67.8419C31.0753 67.7064 31.7422 67.5638 32.327 67.439C32.9119 67.3141 33.3576 67.2072 33.675 67.1251C33.8424 67.0947 34.0061 67.0469 34.1636 66.9825C33.9938 66.9899 33.8253 67.015 33.6608 67.0574L32.3021 67.3106C31.7279 67.4176 31.0468 67.5459 30.2872 67.6672C29.9092 67.7278 29.5063 67.792 29.0962 67.8241C28.9976 67.8312 28.8987 67.8312 28.8002 67.8241C28.6999 67.8061 28.6019 67.7774 28.5078 67.7385C28.3081 67.6636 28.1084 67.5745 27.9051 67.4889C26.2825 66.7757 24.8347 66.0624 23.7791 65.5596L22.5274 64.9748C22.3763 64.8973 22.2188 64.8329 22.0567 64.7822Z" fill="#633A34"/>
<path d="M49.2308 42.373C49.2629 42.373 49.3628 41.9486 49.6873 41.321C50.1074 40.5009 50.7244 39.798 51.4831 39.2751C52.2418 38.7523 53.1184 38.426 54.0343 38.3255C54.7476 38.2435 55.1791 38.3041 55.1826 38.272C55.0847 38.2337 54.981 38.212 54.8759 38.2078C54.5925 38.181 54.3071 38.181 54.0236 38.2078C53.0751 38.275 52.1618 38.5948 51.3786 39.1341C50.5954 39.6734 49.9708 40.4125 49.5696 41.2746C49.4483 41.5324 49.3516 41.8011 49.2807 42.077C49.2472 42.1721 49.2303 42.2722 49.2308 42.373Z" fill="#2D2F34"/>
<path d="M39.0923 29.8037C39.1851 29.8251 39.3028 29.1939 39.934 28.8409C40.5651 28.4878 41.232 28.6768 41.2534 28.5913C41.2748 28.5057 41.1215 28.4415 40.8362 28.3809C40.462 28.3103 40.075 28.3721 39.7414 28.5556C39.4217 28.7295 39.1825 29.0212 39.0745 29.3687C39.0032 29.6254 39.046 29.8037 39.0923 29.8037Z" fill="#2D2F34"/>
<path d="M-6.604 0H14.1487V160.167H-6.604V0Z" fill="#707683"/>
<path d="M3.92478 71.2306C5.17954 71.2306 6.19672 70.2138 6.19672 68.9596C6.19672 67.7053 5.17954 66.6885 3.92478 66.6885C2.67002 66.6885 1.65283 67.7053 1.65283 68.9596C1.65283 70.2138 2.67002 71.2306 3.92478 71.2306Z" fill="#B0B4BB"/>
</g>
</svg>
