<svg width="166" height="37" viewBox="0 0 166 37" fill="none" xmlns="http://www.w3.org/2000/svg">
<path fill-rule="evenodd" clip-rule="evenodd" d="M4.31156 6.25024C0.162718 9.56117 -1.05342 15.4848 1.98402 19.7849C2.75836 20.8557 3.61851 21.8618 4.55595 22.7932L7.29081 20.07C6.92423 19.7092 6.57509 19.3601 6.2376 18.9994C3.65403 16.1947 3.72386 12.2902 6.38307 9.73573C8.93173 7.27436 12.9176 7.40819 15.5943 10.0267C16.7232 11.1323 15.3325 9.73573 16.5021 10.8879L19.2893 8.11227C17.9335 6.7623 19.7082 8.51959 18.0091 6.87286C16.1822 5.13979 13.792 4.12296 11.2764 4.00861C8.7608 3.89427 6.28821 4.69007 4.31156 6.25024ZM24.3168 8.4905L21.5761 5.76727L4.5385 22.77L7.27336 25.4874L24.3168 8.4905Z" fill="#5E36E7"/>
<path fill-rule="evenodd" clip-rule="evenodd" d="M24.9974 31.396C29.1463 28.0851 30.3624 22.1615 27.3541 17.8613C26.5797 16.7905 25.7196 15.7844 24.7822 14.853L22.0473 17.582C22.4139 17.937 22.763 18.2861 23.0947 18.6527C25.6841 21.4516 25.6142 25.356 22.955 27.9105C20.4006 30.3719 16.4146 30.238 13.738 27.6195C12.6091 26.514 13.9998 27.9105 12.8302 26.7642L10.043 29.5281C11.393 30.8781 9.62403 29.1208 11.3231 30.7675C13.1479 32.4953 15.5331 33.5093 18.0434 33.6247C20.5537 33.7401 23.0219 32.9491 24.9974 31.396ZM24.7822 14.8995L22.0473 12.1821L4.99805 29.1615L7.73873 31.8557L24.7822 14.8995Z" fill="#1ED766"/>
<path d="M53.5933 29.1699H49.5528V26.7549C48.882 27.6941 48.0873 28.3959 47.1688 28.8603C46.2606 29.3144 45.342 29.5415 44.4132 29.5415C42.5245 29.5415 40.9042 28.7829 39.5522 27.2658C38.2105 25.7383 37.5397 23.6123 37.5397 20.8876C37.5397 18.1011 38.195 15.9854 39.5057 14.5405C40.8164 13.0853 42.4729 12.3577 44.4751 12.3577C46.3122 12.3577 47.9015 13.1214 49.2432 14.6488V6.47492H53.5933V29.1699ZM41.9827 20.5935C41.9827 22.348 42.2252 23.6174 42.7103 24.4018C43.4121 25.5371 44.3925 26.1047 45.6516 26.1047C46.6527 26.1047 47.5042 25.6816 48.206 24.8353C48.9078 23.9787 49.2587 22.7041 49.2587 21.0115C49.2587 19.1228 48.9181 17.7657 48.237 16.94C47.5558 16.104 46.6837 15.6861 45.6207 15.6861C44.5886 15.6861 43.7217 16.0989 43.0199 16.9245C42.3284 17.7399 41.9827 18.9628 41.9827 20.5935ZM56.8908 20.7174C56.8908 19.2725 57.2468 17.874 57.959 16.522C58.6711 15.17 59.6773 14.138 60.9777 13.4258C62.2885 12.7137 63.7488 12.3577 65.3588 12.3577C67.8461 12.3577 69.8844 13.1678 71.4738 14.7882C73.0632 16.3982 73.8578 18.4365 73.8578 20.9031C73.8578 23.3904 73.0528 25.4545 71.4428 27.0955C69.8431 28.7261 67.8255 29.5415 65.3898 29.5415C63.883 29.5415 62.4433 29.2009 61.0706 28.5197C59.7083 27.8386 58.6711 26.8426 57.959 25.5319C57.2468 24.2109 56.8908 22.606 56.8908 20.7174ZM61.3493 20.9496C61.3493 22.5802 61.7363 23.829 62.5103 24.6959C63.2844 25.5629 64.239 25.9963 65.3743 25.9963C66.5096 25.9963 67.4591 25.5629 68.2228 24.6959C68.9968 23.829 69.3839 22.5699 69.3839 20.9186C69.3839 19.3086 68.9968 18.0701 68.2228 17.2032C67.4591 16.3363 66.5096 15.9028 65.3743 15.9028C64.239 15.9028 63.2844 16.3363 62.5103 17.2032C61.7363 18.0701 61.3493 19.3189 61.3493 20.9496ZM91.6144 17.5902L87.3262 18.3643C87.1817 17.5076 86.8515 16.8626 86.3355 16.4291C85.8297 15.9957 85.1692 15.7789 84.3539 15.7789C83.2702 15.7789 82.4033 16.1556 81.7531 16.909C81.1132 17.6521 80.7933 18.9009 80.7933 20.6554C80.7933 22.606 81.1184 23.9838 81.7686 24.7888C82.4291 25.5938 83.3115 25.9963 84.4158 25.9963C85.2415 25.9963 85.9175 25.7641 86.4438 25.2997C86.9702 24.8249 87.3417 24.0148 87.5584 22.8692L91.8312 23.5968C91.3874 25.5577 90.5359 27.0387 89.2768 28.0398C88.0177 29.0409 86.3303 29.5415 84.2146 29.5415C81.8099 29.5415 79.8902 28.7829 78.4557 27.2658C77.0314 25.7486 76.3193 23.6484 76.3193 20.965C76.3193 18.2507 77.0366 16.1402 78.4712 14.6334C79.9057 13.1162 81.846 12.3577 84.292 12.3577C86.2942 12.3577 87.8835 12.7911 89.0601 13.6581C90.247 14.5147 91.0984 15.8254 91.6144 17.5902Z" fill="#5E36E7"/>
<path d="M94.8035 12.7292H98.8595V15.1442C99.3858 14.3186 100.098 13.6477 100.996 13.1317C101.894 12.6157 102.89 12.3577 103.984 12.3577C105.893 12.3577 107.513 13.1059 108.845 14.6024C110.176 16.0989 110.842 18.1836 110.842 20.8567C110.842 23.602 110.171 25.7383 108.829 27.2658C107.488 28.7829 105.862 29.5415 103.953 29.5415C103.045 29.5415 102.219 29.3609 101.476 28.9996C100.743 28.6384 99.969 28.0192 99.1536 27.1419V35.4242H94.8035V12.7292ZM99.1072 20.6709C99.1072 22.5183 99.4736 23.8858 100.206 24.7733C100.939 25.6506 101.832 26.0892 102.885 26.0892C103.896 26.0892 104.737 25.6867 105.408 24.8817C106.079 24.0664 106.414 22.735 106.414 20.8876C106.414 19.1641 106.068 17.8843 105.377 17.0484C104.685 16.2124 103.829 15.7944 102.807 15.7944C101.744 15.7944 100.862 16.2072 100.16 17.0329C99.4581 17.8482 99.1072 19.0609 99.1072 20.6709ZM117.56 17.745L113.613 17.0329C114.057 15.4435 114.82 14.267 115.904 13.5033C116.988 12.7395 118.598 12.3577 120.734 12.3577C122.674 12.3577 124.119 12.5899 125.069 13.0543C126.018 13.5084 126.684 14.0915 127.066 14.8036C127.458 15.5054 127.654 16.8007 127.654 18.6894L127.608 23.7671C127.608 25.212 127.675 26.2802 127.809 26.9716C127.953 27.6528 128.216 28.3856 128.598 29.1699H124.295C124.181 28.8809 124.042 28.4526 123.877 27.885C123.804 27.627 123.753 27.4567 123.722 27.3741C122.979 28.0966 122.184 28.6384 121.338 28.9996C120.491 29.3609 119.588 29.5415 118.629 29.5415C116.936 29.5415 115.6 29.0822 114.619 28.1637C113.649 27.2451 113.164 26.0841 113.164 24.6805C113.164 23.7516 113.386 22.926 113.83 22.2035C114.273 21.4708 114.893 20.9134 115.687 20.5316C116.492 20.1394 117.648 19.7988 119.155 19.5098C121.188 19.128 122.597 18.7719 123.381 18.4417V18.0082C123.381 17.1722 123.175 16.5788 122.762 16.2279C122.349 15.8667 121.57 15.6861 120.424 15.6861C119.65 15.6861 119.047 15.8409 118.613 16.1505C118.18 16.4498 117.829 16.9813 117.56 17.745ZM123.381 21.2747C122.824 21.4604 121.942 21.6823 120.734 21.9403C119.527 22.1984 118.737 22.4512 118.365 22.6989C117.798 23.1014 117.514 23.6123 117.514 24.2315C117.514 24.8404 117.741 25.3668 118.195 25.8106C118.649 26.2544 119.227 26.4762 119.929 26.4762C120.713 26.4762 121.462 26.2182 122.174 25.7022C122.7 25.31 123.046 24.8301 123.211 24.2625C123.324 23.8909 123.381 23.184 123.381 22.1416V21.2747ZM130.425 24.4792L134.791 23.8135C134.976 24.6598 135.353 25.3049 135.921 25.7486C136.488 26.1821 137.283 26.3988 138.305 26.3988C139.43 26.3988 140.276 26.1924 140.844 25.7796C141.226 25.4906 141.416 25.1036 141.416 24.6185C141.416 24.2883 141.313 24.0148 141.107 23.798C140.89 23.5916 140.405 23.4007 139.652 23.2253C136.143 22.4512 133.919 21.7443 132.979 21.1044C131.679 20.2168 131.029 18.9835 131.029 17.4044C131.029 15.9802 131.591 14.783 132.716 13.8129C133.841 12.8427 135.585 12.3577 137.949 12.3577C140.199 12.3577 141.871 12.724 142.965 13.4568C144.059 14.1896 144.812 15.2732 145.225 16.7078L141.122 17.4664C140.947 16.8265 140.611 16.3363 140.116 15.9957C139.631 15.6551 138.934 15.4848 138.026 15.4848C136.881 15.4848 136.06 15.6448 135.565 15.9647C135.234 16.1918 135.069 16.4859 135.069 16.8471C135.069 17.1567 135.214 17.4199 135.503 17.6367C135.895 17.9256 137.247 18.3333 139.559 18.8596C141.881 19.386 143.501 20.031 144.42 20.7948C145.328 21.5688 145.782 22.6473 145.782 24.0303C145.782 25.5371 145.153 26.8323 143.893 27.916C142.634 28.9996 140.771 29.5415 138.305 29.5415C136.065 29.5415 134.29 29.0874 132.979 28.1791C131.679 27.2709 130.828 26.0376 130.425 24.4792ZM148.073 24.4792L152.439 23.8135C152.625 24.6598 153.001 25.3049 153.569 25.7486C154.137 26.1821 154.931 26.3988 155.953 26.3988C157.078 26.3988 157.924 26.1924 158.492 25.7796C158.874 25.4906 159.065 25.1036 159.065 24.6185C159.065 24.2883 158.962 24.0148 158.755 23.798C158.538 23.5916 158.053 23.4007 157.3 23.2253C153.791 22.4512 151.567 21.7443 150.628 21.1044C149.327 20.2168 148.677 18.9835 148.677 17.4044C148.677 15.9802 149.24 14.783 150.364 13.8129C151.489 12.8427 153.234 12.3577 155.597 12.3577C157.847 12.3577 159.519 12.724 160.613 13.4568C161.707 14.1896 162.46 15.2732 162.873 16.7078L158.771 17.4664C158.595 16.8265 158.26 16.3363 157.764 15.9957C157.279 15.6551 156.583 15.4848 155.674 15.4848C154.529 15.4848 153.708 15.6448 153.213 15.9647C152.883 16.1918 152.718 16.4859 152.718 16.8471C152.718 17.1567 152.862 17.4199 153.151 17.6367C153.543 17.9256 154.895 18.3333 157.207 18.8596C159.529 19.386 161.149 20.031 162.068 20.7948C162.976 21.5688 163.43 22.6473 163.43 24.0303C163.43 25.5371 162.801 26.8323 161.542 27.916C160.283 28.9996 158.42 29.5415 155.953 29.5415C153.713 29.5415 151.938 29.0874 150.628 28.1791C149.327 27.2709 148.476 26.0376 148.073 24.4792Z" fill="#1ED766"/>
</svg>
