<svg width="177" height="177" viewBox="0 0 177 177" fill="none" xmlns="http://www.w3.org/2000/svg">
<mask id="mask0_908:14584" style="mask-type:alpha" maskUnits="userSpaceOnUse" x="10" y="15" width="155" height="155">
<path d="M87.947 169.161C130.476 169.161 164.953 134.811 164.953 92.4371C164.953 50.0638 130.476 15.7134 87.947 15.7134C45.4177 15.7134 10.9409 50.0638 10.9409 92.4371C10.9409 134.811 45.4177 169.161 87.947 169.161Z" fill="#9FD2C6"/>
</mask>
<g mask="url(#mask0_908:14584)">
<path opacity="0.25" d="M87.947 171.072C130.476 171.072 164.953 136.721 164.953 94.3478C164.953 51.9744 130.476 17.624 87.947 17.624C45.4177 17.624 10.9409 51.9744 10.9409 94.3478C10.9409 136.721 45.4177 171.072 87.947 171.072Z" fill="#F9C7C7"/>
<path d="M110.628 75.4761C110.628 75.4761 119.964 83.2512 122.056 106.436C124.148 129.621 123.796 132.934 123.796 132.934H110.628V75.4761Z" fill="#6F49E9"/>
<path d="M47.5734 118.449H31.2178V169.281H47.5734V118.449Z" fill="#B3714F"/>
<path d="M108.275 149.595C107.297 148.857 106.486 147.921 105.896 146.847C105.305 145.774 104.948 144.589 104.848 143.368C104.748 142.148 104.907 140.92 105.314 139.765C105.722 138.61 106.369 137.554 107.214 136.666L140.281 101.901L149.815 109.101L120.466 147.901C119.074 149.74 117.008 150.953 114.721 151.271C112.435 151.588 110.116 150.986 108.275 149.595Z" fill="#B3714F"/>
<path d="M110.51 169.28H42.6455V75.4751L77.8722 62.3931L110.773 75.4751L110.51 169.28Z" fill="#6F49E9"/>
<path d="M79.7866 74.8105H75.4629V88.4366H79.7866V74.8105Z" fill="#5DE993"/>
<path d="M77.9082 78.6236L88.7658 74.3336L96.14 81.6238C96.14 81.6238 97.5377 63.9337 86.0199 59.6177C76.8514 56.1838 77.9082 78.6236 77.9082 78.6236Z" fill="#5DE993"/>
<path d="M77.8502 78.6225L63.4568 74.3325L56.3454 80.7319C56.3454 80.7319 54.2239 63.0192 66.174 59.1829C78.1242 55.3466 77.8502 78.6225 77.8502 78.6225Z" fill="#5DE993"/>
<path d="M62.8081 67.6221L77.9086 78.6234L88.7663 67.6221H62.8081Z" fill="#B3714F"/>
<path d="M88.7663 67.6223C88.7663 67.6223 85.3576 70.7216 75.7872 70.7216C66.2168 70.7216 62.8081 67.6223 62.8081 67.6223L64.2067 48.1826H90.1649L88.7663 67.6223Z" fill="#B3714F"/>
<path d="M78.6727 52.3399C92.1141 52.3399 103.01 41.452 103.01 28.021C103.01 14.5901 92.1141 3.70215 78.6727 3.70215C65.2313 3.70215 54.335 14.5901 54.335 28.021C54.335 41.452 65.2313 52.3399 78.6727 52.3399Z" fill="#471D22"/>
<path d="M72.0437 9.32861H81.8141C86.173 9.33023 90.3528 11.0616 93.4344 14.1419C96.5161 17.2223 98.2472 21.3995 98.2472 25.755L97.5653 43.4851L63.9807 42.377C63.1451 42.3769 62.3176 42.2123 61.5456 41.8926C60.7736 41.573 60.0722 41.1045 59.4813 40.514C58.8905 39.9235 58.4219 39.2225 58.1022 38.451C57.7825 37.6795 57.618 36.8526 57.6182 36.0176V23.736C57.6185 21.8435 57.9919 19.9696 58.7171 18.2214C59.4422 16.4731 60.5049 14.8846 61.8445 13.5468C63.184 12.2089 64.7742 11.1478 66.5242 10.424C68.2742 9.70027 70.1498 9.32804 72.0437 9.32861Z" fill="#471D22"/>
<path d="M97.7713 62.9781C92.6984 64.965 87.1322 65.3245 81.8455 64.0065C76.5588 62.6886 71.8139 59.7587 68.2695 55.6236L68.2748 30.8397C68.2748 30.8397 66.8683 18.0749 79.4082 18.0767H84.5852C95.6316 18.0767 97.8008 27.7239 97.7765 34.3205L97.7713 62.9781Z" fill="#B3714F"/>
<path d="M84.6895 57.9146H96.5117V50.1933H84.6895V57.9146Z" fill="white"/>
<path d="M67.3024 13.1016C68.8692 13.1016 70.3718 13.7235 71.4797 14.8305C72.5876 15.9376 73.2101 17.439 73.2101 19.0046V22.575C73.2105 24.3395 72.8631 26.0867 72.1877 27.717C71.5122 29.3473 70.522 30.8287 69.2735 32.0765C68.025 33.3243 66.5428 34.3142 64.9114 34.9895C63.28 35.6649 61.5315 36.0125 59.7656 36.0125V36.0125V20.6325C59.7656 18.6352 60.5597 16.7196 61.9731 15.3073C63.3865 13.895 65.3035 13.1016 67.3024 13.1016V13.1016Z" fill="#471D22"/>
<path d="M63.3973 35.1616C62.9202 35.1615 62.4478 35.2553 62.007 35.4377C61.5662 35.62 61.1657 35.8873 60.8283 36.2244C60.4909 36.5614 60.2233 36.9616 60.0407 37.402C59.8581 37.8424 59.7642 38.3144 59.7642 38.7911V46.2933C59.764 46.7701 59.8579 47.2422 60.0404 47.6827C60.2229 48.1232 60.4904 48.5234 60.8276 48.8606C61.1649 49.1978 61.5654 49.4653 62.0062 49.6478C62.4469 49.8304 62.9193 49.9244 63.3964 49.9245H67.0713V38.8345C67.0714 38.3523 66.9765 37.8748 66.7919 37.4292C66.6073 36.9837 66.3367 36.5788 65.9956 36.2378C65.6544 35.8967 65.2494 35.6261 64.8035 35.4415C64.3577 35.2568 63.8799 35.1617 63.3973 35.1616Z" fill="#B3714F"/>
<path d="M88.605 46.5396H92.0528L91.4918 41.4805L89.9575 41.6491L90.3289 44.9978H88.605V46.5396Z" fill="#964935"/>
<path d="M81.3369 53.2707H86.0234C86.8325 53.2709 87.6338 53.1117 88.3814 52.8024C89.129 52.4931 89.8083 52.0397 90.3806 51.4681C90.9528 50.8964 91.4068 50.2178 91.7165 49.4708C92.0263 48.7239 92.1858 47.9233 92.1859 47.1147H87.4551C86.6518 47.1146 85.8565 47.2726 85.1143 47.5796C84.3722 47.8867 83.6979 48.3368 83.1299 48.9042C82.5618 49.4716 82.1112 50.1453 81.8037 50.8868C81.4962 51.6282 81.3379 52.4229 81.3378 53.2255L81.3369 53.2707Z" fill="#471D22"/>
<path d="M98.0161 53.2734L96.1765 53.2731C95.3673 53.2731 94.566 53.1138 93.8184 52.8043C93.0707 52.4948 92.3915 52.0412 91.8193 51.4694C91.2472 50.8975 90.7933 50.2187 90.4838 49.4716C90.1742 48.7245 90.0149 47.9238 90.0151 47.1152L92.3574 47.1156C93.1008 47.1157 93.8368 47.2622 94.5235 47.5465C95.2101 47.8309 95.834 48.2477 96.3595 48.773C96.885 49.2984 97.3017 49.922 97.586 50.6083C97.8703 51.2946 98.0164 52.0301 98.0162 52.7728L98.0161 53.2734Z" fill="#471D22"/>
<path d="M70.4533 30.7637C70.7478 35.7935 71.8311 40.7458 73.6638 45.4397C76.6785 53.0462 85.2555 51.965 85.2555 51.965C85.4605 53.1572 86.0837 54.2375 87.0134 55.0123C87.9431 55.7871 89.1185 56.2058 90.3291 56.1933C94.7259 56.1933 95.48 52.1954 95.7279 51.8764C97.6849 49.369 97.7754 38.9047 97.7754 38.9047L98.2477 63.4792C98.2477 63.4792 95.6191 64.7159 85.8357 64.7159C69.9376 63.3192 65.7895 57.915 65.7895 57.915L65.1807 32.9104L70.4533 30.7637Z" fill="#471D22"/>
<path d="M42.6487 75.4761C42.6487 75.4761 33.3089 83.2512 31.2179 106.436C29.1269 129.621 29.4783 132.934 29.4783 132.934H42.6487V75.4761Z" fill="#6F49E9"/>
<path d="M140.353 65.1948H132.533C130.131 65.1948 128.184 67.1404 128.184 69.5404V93.928C128.184 96.328 130.131 98.2736 132.533 98.2736H140.353C142.754 98.2736 144.701 96.328 144.701 93.928V69.5404C144.701 67.1404 142.754 65.1948 140.353 65.1948Z" fill="white"/>
<path d="M141.056 65.1948H133.236C130.834 65.1948 128.887 67.1404 128.887 69.5404V93.928C128.887 96.328 130.834 98.2736 133.236 98.2736H141.056C143.458 98.2736 145.405 96.328 145.405 93.928V69.5404C145.405 67.1404 143.458 65.1948 141.056 65.1948Z" fill="#FF7376"/>
<path d="M135.636 84.5449C139.396 84.5449 143.003 86.0375 145.661 88.6942C148.32 91.351 149.814 94.9544 149.814 98.7116V109.124C146.054 109.124 142.448 107.631 139.789 104.974C137.13 102.318 135.636 98.7142 135.636 94.957V84.5449Z" fill="#B3714F"/>
<path d="M143.701 52.0093C149.226 52.0093 153.704 47.5345 153.704 42.0144C153.704 36.4944 149.226 32.0195 143.701 32.0195C138.177 32.0195 133.699 36.4944 133.699 42.0144C133.699 47.5345 138.177 52.0093 143.701 52.0093Z" fill="white"/>
<path d="M137.548 40.2324L138.849 41.5322C139.53 40.8545 140.337 40.3175 141.226 39.952C142.114 39.5864 143.066 39.3996 144.027 39.4021C144.989 39.3996 145.943 39.5872 146.833 39.9541C147.723 40.321 148.531 40.8601 149.212 41.5402L150.512 40.241C148.791 38.5289 146.461 37.567 144.032 37.5654C141.603 37.5638 139.272 38.5226 137.548 40.2324V40.2324Z" fill="#5D888A"/>
<path d="M143.156 44.083C142.982 44.2564 142.864 44.4774 142.816 44.718C142.768 44.9586 142.793 45.208 142.887 45.4346C142.981 45.6612 143.14 45.8549 143.344 45.9912C143.548 46.1275 143.788 46.2002 144.034 46.2002C144.279 46.2002 144.519 46.1275 144.723 45.9912C144.927 45.8549 145.086 45.6612 145.18 45.4346C145.274 45.208 145.299 44.9586 145.251 44.718C145.203 44.4774 145.085 44.2564 144.911 44.083C144.679 43.8504 144.363 43.7197 144.034 43.7197C143.704 43.7197 143.389 43.8504 143.156 44.083V44.083Z" fill="#5D888A"/>
<path d="M139.759 42.4419L141.059 43.7411C141.855 42.9645 142.923 42.5297 144.035 42.5296C145.147 42.5295 146.214 42.9641 147.01 43.7405L148.31 42.4419C147.17 41.3193 145.634 40.6899 144.034 40.6899C142.434 40.6899 140.899 41.3193 139.759 42.4419V42.4419Z" fill="#5D888A"/>
</g>
<path d="M78.6732 52.8458C92.1146 52.8458 103.011 41.9578 103.011 28.5269C103.011 15.0959 92.1146 4.20801 78.6732 4.20801C65.2318 4.20801 54.3354 15.0959 54.3354 28.5269C54.3354 41.9578 65.2318 52.8458 78.6732 52.8458Z" fill="#471D22"/>
<path d="M72.0442 9.83447H81.8146C86.1735 9.83609 90.3533 11.5674 93.4349 14.6478C96.5165 17.7282 98.2477 21.9054 98.2477 26.2609L97.5658 43.9909L63.9812 42.8828C63.1456 42.8827 62.3181 42.7181 61.5461 42.3985C60.7741 42.0788 60.0727 41.6104 59.4818 41.0198C58.891 40.4293 58.4224 39.7283 58.1027 38.9568C57.783 38.1853 57.6185 37.3585 57.6187 36.5235V24.2419C57.619 22.3494 57.9924 20.4755 58.7175 18.7272C59.4427 16.9789 60.5054 15.3905 61.845 14.0526C63.1845 12.7147 64.7747 11.6536 66.5247 10.9299C68.2747 10.2061 70.1502 9.8339 72.0442 9.83447Z" fill="#471D22"/>
<path d="M97.7718 63.4839C92.6988 65.4709 87.1327 65.8303 81.846 64.5124C76.5593 63.1945 71.8144 60.2646 68.27 56.1294L68.2752 31.3456C68.2752 31.3456 66.8688 18.5808 79.4086 18.5825H84.5857C95.6321 18.5825 97.8013 28.2298 97.777 34.8264L97.7718 63.4839Z" fill="#B3714F"/>
<path d="M84.6899 58.4204H96.5122V50.6991H84.6899V58.4204Z" fill="white"/>
<path d="M67.3029 13.6074C68.8697 13.6074 70.3723 14.2294 71.4802 15.3364C72.5881 16.4434 73.2105 17.9449 73.2105 19.5105V23.0808C73.211 24.8453 72.8636 26.5926 72.1881 28.2229C71.5127 29.8532 70.5225 31.3345 69.274 32.5824C68.0255 33.8302 66.5433 34.8201 64.9119 35.4954C63.2805 36.1707 61.532 36.5183 59.7661 36.5183V36.5183V21.1384C59.7661 19.141 60.5602 17.2255 61.9736 15.8132C63.387 14.4009 65.304 13.6074 67.3029 13.6074V13.6074Z" fill="#471D22"/>
<path d="M88.6055 47.0455H92.0533L91.4923 41.9863L89.958 42.1549L90.3294 45.5037H88.6055V47.0455Z" fill="#964935"/>
<path d="M81.3374 53.7766H86.0239C86.833 53.7767 87.6343 53.6176 88.3819 53.3083C89.1295 52.999 89.8088 52.5456 90.381 51.9739C90.9533 51.4023 91.4072 50.7236 91.717 49.9767C92.0268 49.2297 92.1863 48.4291 92.1864 47.6206H87.4555C86.6523 47.6205 85.857 47.7785 85.1148 48.0855C84.3727 48.3925 83.6984 48.8426 83.1303 49.4101C82.5623 49.9775 82.1117 50.6512 81.8042 51.3926C81.4967 52.1341 81.3384 52.9288 81.3383 53.7314L81.3374 53.7766Z" fill="#471D22"/>
<path d="M98.0166 53.7793L96.177 53.779C95.3678 53.7789 94.5665 53.6196 93.8188 53.3102C93.0712 53.0007 92.392 52.5471 91.8198 51.9752C91.2477 51.4034 90.7938 50.7246 90.4843 49.9775C90.1747 49.2304 90.0154 48.4296 90.0156 47.621L92.3579 47.6215C93.1012 47.6216 93.8373 47.768 94.5239 48.0524C95.2106 48.3368 95.8345 48.7535 96.36 49.2789C96.8855 49.8042 97.3022 50.4278 97.5865 51.1141C97.8708 51.8004 98.0169 52.5359 98.0167 53.2787L98.0166 53.7793Z" fill="#471D22"/>
<path d="M70.4538 31.2695C70.7483 36.2993 71.8316 41.2517 73.6643 45.9455C76.679 53.5521 85.256 52.4709 85.256 52.4709C85.461 53.6631 86.0842 54.7434 87.0139 55.5182C87.9436 56.293 89.119 56.7117 90.3295 56.6992C94.7264 56.6992 95.4805 52.7012 95.7284 52.3822C97.6854 49.8748 97.7759 39.4106 97.7759 39.4106L98.2482 63.985C98.2482 63.985 95.6196 65.2218 85.8362 65.2218C69.938 63.8251 65.79 58.4209 65.79 58.4209L65.1812 33.4163L70.4538 31.2695Z" fill="#471D22"/>
<path d="M159.27 20.2343H128.822C128.065 20.1853 127.305 20.2982 126.595 20.5657C125.885 20.8332 125.239 21.249 124.703 21.7854C124.166 22.3218 123.75 22.9664 123.482 23.6763C123.214 24.3861 123.101 25.1449 123.15 25.9019V48.7084C123.101 49.4654 123.214 50.2242 123.482 50.934C123.75 51.6439 124.166 52.2885 124.703 52.8249C125.239 53.3613 125.885 53.7771 126.595 54.0446C127.305 54.312 128.065 54.425 128.822 54.376H147.973V62.2241L155.828 54.376H159.27C160.028 54.425 160.787 54.312 161.498 54.0446C162.208 53.7771 162.853 53.3613 163.39 52.8249C163.927 52.2885 164.343 51.6439 164.611 50.934C164.878 50.2242 164.991 49.4654 164.942 48.7084V25.9019C164.991 25.1449 164.878 24.3861 164.611 23.6763C164.343 22.9664 163.927 22.3218 163.39 21.7854C162.853 21.249 162.208 20.8332 161.498 20.5657C160.787 20.2982 160.028 20.1853 159.27 20.2343Z" fill="#149043"/>
<path fill-rule="evenodd" clip-rule="evenodd" d="M150.834 29.0264C151.229 29.0264 151.549 29.3462 151.549 29.7408V37.0999C151.549 37.4945 151.229 37.8144 150.834 37.8144C150.44 37.8144 150.12 37.4945 150.12 37.0999V29.7408C150.12 29.3462 150.44 29.0264 150.834 29.0264Z" fill="white"/>
<path fill-rule="evenodd" clip-rule="evenodd" d="M133.687 29.0264C134.081 29.0264 134.401 29.3462 134.401 29.7408V38.2831C134.401 39.467 135.361 40.4265 136.545 40.4265H145.416C145.811 40.4265 146.13 40.7464 146.13 41.141C146.13 41.5356 145.811 41.8555 145.416 41.8555H136.545C134.571 41.8555 132.972 40.2562 132.972 38.2831V29.7408C132.972 29.3462 133.292 29.0264 133.687 29.0264Z" fill="white"/>
<path fill-rule="evenodd" clip-rule="evenodd" d="M135.592 28.5188C134.934 28.5188 134.401 29.0515 134.401 29.7096V29.741C134.401 30.1937 134.652 30.61 135.054 30.8219C135.054 30.8219 135.053 30.8218 135.054 30.8219L140.818 33.8577C141.721 34.3337 142.8 34.3339 143.703 33.8587C143.703 33.8586 143.703 33.8587 143.703 33.8587L149.484 30.8141C149.875 30.6082 150.12 30.202 150.12 29.7601V29.741C150.12 29.0658 149.573 28.5188 148.897 28.5188H135.592ZM132.972 29.7096C132.972 28.2623 134.145 27.0898 135.592 27.0898H148.897C150.362 27.0898 151.549 28.2766 151.549 29.741V29.7601C151.549 30.7318 151.01 31.6251 150.15 32.0784C150.15 32.0784 150.15 32.0784 150.15 32.0784L144.369 35.123C143.049 35.8175 141.472 35.8177 140.152 35.122L134.387 32.086C133.518 31.6273 132.972 30.7248 132.972 29.741V29.7096Z" fill="white"/>
<path fill-rule="evenodd" clip-rule="evenodd" d="M150.56 38.7111C148.12 38.7111 146.142 40.6896 146.142 43.1291C146.142 45.5686 148.12 47.5471 150.56 47.5471C153 47.5471 154.978 45.5687 154.978 43.1291C154.978 40.6895 153 38.7111 150.56 38.7111ZM150.56 49.1063C153.862 49.1063 156.537 46.4297 156.537 43.1291C156.537 39.8285 153.862 37.1519 150.56 37.1519C147.259 37.1519 144.583 39.8284 144.583 43.1291C144.583 46.4298 147.259 49.1063 150.56 49.1063Z" fill="white"/>
<path fill-rule="evenodd" clip-rule="evenodd" d="M153.432 41.4125C153.742 41.7229 153.742 42.2263 153.432 42.5367L150.544 45.4245C150.395 45.5736 150.193 45.6573 149.982 45.6573C149.771 45.6573 149.569 45.5735 149.42 45.4243L147.688 43.6914C147.377 43.3809 147.378 42.8776 147.688 42.5673C147.999 42.2569 148.502 42.2571 148.812 42.5676L149.982 43.738L152.308 41.4125C152.618 41.1021 153.121 41.1021 153.432 41.4125Z" fill="white"/>
</svg>
