<svg width="152" height="175" viewBox="0 0 152 175" xmlns="http://www.w3.org/2000/svg">
<ellipse cx="75.8621" cy="99.3932" rx="75.8621" ry="75.6068" fill="#E6EAF7"/>
<mask id="mask0" style="mask-type:alpha" maskUnits="userSpaceOnUse" x="0" y="0" width="152" height="175">
<path d="M150 0H0V92H0.358093C0.121216 94.4325 0 96.8987 0 99.3932C0 141.15 33.9646 175 75.8621 175C117.76 175 151.724 141.15 151.724 99.3932C151.724 95.8672 151.482 92.3976 151.013 89H150V0Z" fill="#fff"/>
</mask>
<g mask="url(#mask0)">
<path d="M107.722 25.338C105.92 23.3379 103.723 21.4401 103.13 18.8196C102.588 16.4107 103.489 13.7099 102.258 11.5201C100.735 8.885 96.8312 8.60033 94.9928 6.16231C94.0993 4.9871 93.8136 3.44692 92.9347 2.26441C91.4699 0.249764 88.5842 -0.246598 86.0794 0.0745773C83.5746 0.395753 81.1869 1.30088 78.6747 1.53447C75.2324 1.81915 71.6656 0.753423 68.3697 1.78265C64.7077 2.91406 62.5471 6.16232 60.2107 9.31568L57.1639 12.9654C56.5419 13.5965 55.86 14.1661 55.1278 14.6662C53.8387 15.5202 52.352 16.1261 51.246 17.2064C50.6863 17.8073 50.2545 18.515 49.9767 19.2867C49.6988 20.0584 49.5806 20.8782 49.6292 21.6967C49.6778 22.5152 49.8921 23.3154 50.2594 24.0491C50.6266 24.7828 51.1391 25.4348 51.766 25.9657C50.4504 26.4367 49.3215 27.3168 48.5461 28.4761C47.7707 29.6353 47.3897 31.0123 47.4595 32.4038C47.6933 33.9081 48.109 35.3787 48.6972 36.7835C49.1733 38.2434 49.4736 39.8493 48.8803 41.2581C48.2871 42.6669 46.5073 43.6523 45.167 42.915C45.4248 43.9011 45.8996 44.8175 46.5571 45.5978C47.2147 46.3781 48.0383 47.0026 48.9682 47.4261C48.2455 48.1765 47.2638 48.6252 46.2217 48.6816C49.1074 55.1854 56.7611 58.5139 63.8947 58.4483C71.0284 58.3826 77.8105 55.5869 84.4022 52.8423L103.533 47.5867C105.217 47.1779 105.884 45.1268 105.832 43.4041C105.781 41.6814 105.32 39.8931 105.913 38.2945C106.733 36.1046 109.289 34.8637 110.139 32.6593C111.098 30.0972 109.524 27.338 107.722 25.338Z" fill="#2D2F34"/>
<path d="M80.1399 4.85572L79.0852 4.81192C67.6523 4.98711 61.4195 14.7611 61.9102 26.1409L61.4854 65.3389C61.4467 68.7546 62.7253 72.0546 65.0572 74.558C67.3891 77.0613 70.5963 78.5769 74.0169 78.7918V78.7918C75.788 78.9042 77.5637 78.6642 79.2408 78.0857C80.9178 77.5073 82.4625 76.602 83.785 75.4226C85.1074 74.2432 86.1811 72.8132 86.9435 71.2161C87.7059 69.619 88.1418 67.8866 88.2256 66.12C88.3282 64.0615 88.4014 62.6162 88.4087 62.6162C88.4161 62.6162 99.4388 61.3899 100.047 50.4773C100.34 45.2071 100.047 34.3017 99.6805 24.4328C99.4882 19.3193 97.3708 14.4655 93.7497 10.8376C90.1286 7.20982 85.2696 5.07413 80.1399 4.85572V4.85572Z" fill="#FFBE9D"/>
<path d="M88.4087 62.6162C83.3492 62.3872 78.4615 60.7179 74.3245 57.8059C74.3245 57.8059 77.2541 65.9229 88.2403 65.4046L88.4087 62.6162Z" fill="#EB996E"/>
<path d="M95.0881 33.163C95.0748 33.5696 94.9027 33.955 94.6087 34.2372C94.3146 34.5194 93.9217 34.6761 93.5134 34.6739C93.3138 34.6859 93.1138 34.657 92.9258 34.589C92.7378 34.521 92.5658 34.4154 92.4203 34.2786C92.2748 34.1418 92.159 33.9768 92.08 33.7937C92.0009 33.6106 91.9603 33.4134 91.9607 33.214C91.974 32.8074 92.146 32.422 92.4401 32.1398C92.7342 31.8576 93.1272 31.701 93.5354 31.7031C93.735 31.6911 93.935 31.72 94.123 31.788C94.311 31.856 94.483 31.9616 94.6285 32.0984C94.7739 32.2352 94.8898 32.4002 94.9688 32.5833C95.0479 32.7664 95.0885 32.9636 95.0881 33.163Z" fill="#2D2F34"/>
<path d="M97.1463 28.8636C96.9412 29.0607 95.7986 28.1336 94.1141 28.0679C92.4295 28.0022 91.1845 28.7979 90.9867 28.5716C90.8988 28.4767 91.1112 28.119 91.6679 27.7541C92.4167 27.2809 93.2945 27.0513 94.18 27.0971C95.0554 27.1321 95.8968 27.444 96.5823 27.9876C97.0877 28.4037 97.2415 28.7468 97.1463 28.8636Z" fill="#2D2F34"/>
<path d="M79.1143 33.163C79.0991 33.5703 78.9255 33.9557 78.6302 34.2377C78.335 34.5197 77.9412 34.6761 77.5323 34.674C77.3341 34.6798 77.1368 34.6467 76.9515 34.5764C76.7662 34.5062 76.5966 34.4003 76.4524 34.2647C76.3082 34.1291 76.1922 33.9666 76.1111 33.7863C76.0299 33.606 75.9853 33.4116 75.9796 33.2141C75.9966 32.8081 76.171 32.4245 76.4661 32.1441C76.7611 31.8636 77.1538 31.7081 77.5616 31.7104C77.7606 31.6985 77.9599 31.7272 78.1474 31.7947C78.3349 31.8623 78.5066 31.9672 78.652 32.1032C78.7974 32.2392 78.9133 32.4034 78.9928 32.5856C79.0723 32.7678 79.1136 32.9643 79.1143 33.163Z" fill="#2D2F34"/>
<path d="M80.6233 28.8417C80.4182 29.0314 79.2683 28.1117 77.5911 28.0387C75.9139 27.9657 74.6615 28.7687 74.4638 28.5497C74.3759 28.4548 74.5883 28.0898 75.1449 27.7248C75.8956 27.256 76.7721 27.0268 77.657 27.0679C78.5345 27.1033 79.3781 27.4151 80.0667 27.9584C80.5647 28.3745 80.7258 28.7468 80.6233 28.8417Z" fill="#2D2F34"/>
<path d="M86.109 41.988C87.0082 41.752 87.9331 41.6269 88.8629 41.6157C89.295 41.6157 89.7052 41.5208 89.7931 41.2361C89.8479 40.7941 89.7661 40.346 89.5587 39.9514L88.4308 36.6302C86.8635 31.9148 85.7502 28.0387 85.9406 27.9803C86.131 27.9219 87.5593 31.6958 89.1193 36.4112C89.5001 37.5791 89.859 38.6911 90.1959 39.7471C90.4482 40.2752 90.5027 40.8758 90.3497 41.4405C90.2802 41.5884 90.1783 41.7189 90.0516 41.8225C89.9248 41.9261 89.7765 42.0001 89.6173 42.0391C89.3767 42.0902 89.1308 42.1122 88.8849 42.1048C87.1711 42.1267 86.109 42.0902 86.109 41.988Z" fill="#2D2F34"/>
<path d="M81.1068 42.9369C81.3778 42.9369 81.3045 44.7545 82.8133 46.1195C84.322 47.4844 86.2703 47.3604 86.2776 47.5793C86.2776 47.6961 85.8308 47.9151 85.0032 47.9005C83.9209 47.8781 82.8821 47.4718 82.0735 46.7545C81.3046 46.073 80.8318 45.1202 80.7552 44.0975C80.7552 43.3457 80.975 42.9223 81.1068 42.9369Z" fill="#2D2F34"/>
<path d="M80.8134 22.024C80.623 22.4766 78.9531 22.1846 76.9683 22.3379C74.9834 22.4912 73.3575 22.9583 73.1158 22.5423C73.0059 22.3379 73.3062 21.9218 73.9654 21.5057C74.8452 20.9937 75.834 20.6961 76.8511 20.6371C77.8668 20.555 78.8873 20.7204 79.8247 21.1189C80.5571 21.4473 80.9086 21.8123 80.8134 22.024Z" fill="#2D2F34"/>
<path d="M96.6921 23.2576C96.3772 23.6225 95.2273 23.1773 93.843 23.1043C92.4588 23.0313 91.2503 23.2503 91.0013 22.8415C90.8914 22.6371 91.0892 22.2649 91.6238 21.9291C92.3295 21.5108 93.1502 21.3268 93.9676 21.4035C94.7859 21.4531 95.5688 21.754 96.2087 22.2648C96.6848 22.6809 96.8313 23.0751 96.6921 23.2576Z" fill="#2D2F34"/>
<path d="M62.4594 34.2652C62.2763 34.1776 55.0255 31.725 54.9449 39.1996C54.8643 46.6742 62.4082 45.2143 62.4228 44.9953C62.4375 44.7764 62.4594 34.2652 62.4594 34.2652Z" fill="#FFBE9D"/>
<path d="M60.1666 42.1412C60.1299 42.1412 60.0347 42.2288 59.8077 42.331C59.4955 42.458 59.1458 42.458 58.8336 42.331C58.0426 42.0317 57.3688 40.7689 57.3688 39.4112C57.3554 38.7695 57.4881 38.1331 57.7569 37.5498C57.8287 37.3169 57.9562 37.1049 58.1284 36.9319C58.3007 36.759 58.5125 36.6304 58.7457 36.5571C58.8965 36.5175 59.0565 36.5324 59.1973 36.5992C59.3381 36.666 59.4506 36.7804 59.5147 36.9221C59.6173 37.1338 59.566 37.2871 59.6026 37.2944C59.6392 37.3017 59.7637 37.1776 59.7125 36.8637C59.6726 36.6787 59.5689 36.5134 59.4195 36.3965C59.3174 36.3153 59.2 36.2553 59.0741 36.2202C58.9483 36.1851 58.8167 36.1755 58.6871 36.1922C58.3788 36.2507 58.0905 36.3867 57.8495 36.5872C57.6086 36.7877 57.423 37.0462 57.3102 37.3382C56.9818 37.9819 56.8183 38.6965 56.8341 39.4185C56.8341 40.9222 57.6178 42.3383 58.7017 42.6668C58.9018 42.7272 59.1129 42.7421 59.3195 42.7105C59.526 42.679 59.7229 42.6016 59.8956 42.4843C60.1446 42.3237 60.1885 42.1558 60.1666 42.1412Z" fill="#EB996E"/>
<path d="M62.2106 12.3523C63.3952 10.2118 65.0656 8.37702 67.0884 6.99448C69.22 5.20597 71.6662 3.82736 74.3026 2.92869C76.3583 2.21002 78.5365 1.9045 80.7113 2.02979C82.8861 2.15508 85.0144 2.70869 86.9733 3.65864C88.3979 4.36771 89.6273 5.41256 90.5548 6.7025C93.2427 8.36678 95.916 11.469 94.854 12.053L93.3892 10.4836C93.3892 10.4836 92.7447 11.8194 90.0275 13.8706C89.9654 13.9177 89.8992 13.9593 89.8297 13.9946C89.5872 14.1716 89.3241 14.3187 89.046 14.4326L88.8923 14.5275C85.6916 15.5932 83.6116 15.1626 80.4256 14.053C78.2283 13.3231 76.2142 12.0384 74.0756 11.1333C72.1917 11.1292 70.3701 11.8061 68.9487 13.0384C68.7255 13.2238 68.5196 13.4291 68.3335 13.6516C67.9776 14.1972 67.7454 14.8135 67.6531 15.4578C67.5607 16.102 67.6105 16.7585 67.7989 17.3816C68.0918 18.6517 68.6778 19.8269 69.044 21.0751C69.7104 23.3671 69.6079 25.8051 69.498 28.1848C69.3442 31.5425 69.1538 35.0389 67.4986 37.9587C66.7662 39.331 65.045 40.696 63.6754 39.2361C63.1237 38.6068 62.8446 37.7853 62.8991 36.9514C62.9943 34.674 60.9875 33.6229 59.9694 31.9732C59.1859 30.5638 58.7964 28.9706 58.8415 27.3599C58.6076 22.148 59.7705 16.968 62.2106 12.3523V12.3523Z" fill="#2D2F34"/>
<path d="M62.4591 64.6089C62.4591 64.6089 71.475 72.9449 78.7405 72.9011C86.006 72.8573 87.7491 69.0616 87.7491 69.0616L91.8433 74.2515C91.8433 74.2515 92.2242 108.114 92.6783 108.698C93.1324 109.282 88.4083 112.238 88.4083 112.238L64.2974 77.7479L62.4591 64.6089Z" fill="#F28080"/>
<path d="M113.523 189.006C113.523 189.006 116.936 187.889 117.866 184.736C118.796 181.583 116.247 150.064 116.247 150.064L114.328 148.166L115.793 146.99V136.983L112.38 115.902C112.38 115.902 109.019 86.9453 104.939 84.8722L98.611 113.544L103.262 180.787L113.523 189.006Z" fill="#FAFAFC"/>
<path d="M87.7493 69.0617L88.2253 66.1419C89.324 66.9959 92.2389 71.5435 92.2389 71.5435C96.2452 74.9158 104.602 83.4416 106.118 86.7774C108.315 91.5148 108.498 113.26 108.498 113.26L107.429 220.81L35.2575 220.919L36.4221 172.196L38.7145 76.0691L56.4315 67.1857L61.1775 61.9812L91.0232 110.457L90.8108 77.8137C90.7941 74.6384 89.7169 71.5591 87.7493 69.0617V69.0617Z" fill="#FAFAFC"/>
<path d="M11.6448 157.254C9.77186 153.599 9.39381 149.363 10.5902 145.436C14.6477 131.917 27.2745 90.0767 29.5742 84.8503C32.101 79.1349 39.3006 75.7333 39.3006 75.7333L50.382 104.741L47.5622 118.26L37.411 147.151L67.1175 181.787L45.8776 199.189C45.8776 199.189 13.8641 161.451 11.7034 157.356L11.6448 157.254Z" fill="#FAFAFC"/>
<path d="M92.2246 220.897C92.2137 220.8 92.2137 220.702 92.2246 220.605V219.737V216.423C92.2246 213.503 92.2685 209.35 92.2978 204.211C92.3711 193.904 92.5468 179.663 92.5175 163.933C92.5175 156.071 92.4297 148.604 92.2978 141.764C92.2246 138.355 92.1513 135.114 92.0781 132.085C92.0049 129.056 91.8144 126.245 91.6972 123.669C91.4775 118.559 91.2944 114.369 91.1699 111.471C91.1187 110.048 91.0747 108.931 91.0454 108.15C91.0454 107.785 91.0454 107.501 91.0454 107.289C91.0327 107.192 91.0327 107.094 91.0454 106.997C91.0454 106.997 91.0454 107.092 91.0454 107.289C91.0454 107.486 91.0454 107.785 91.104 108.15C91.1553 108.924 91.2212 110.041 91.3018 111.464C91.4556 114.384 91.6826 118.523 91.9536 123.654C92.0854 126.231 92.2246 129.048 92.3857 132.078C92.5468 135.107 92.5469 138.348 92.6347 141.757C92.7812 148.567 92.8691 156.064 92.8837 163.933C92.8837 179.663 92.6933 193.904 92.5542 204.211C92.4736 209.32 92.4077 213.518 92.3564 216.423C92.3564 217.846 92.3051 218.963 92.2905 219.737C92.2905 220.102 92.2905 220.394 92.2905 220.605C92.278 220.705 92.256 220.802 92.2246 220.897V220.897Z" fill="#2D2F34"/>
<path d="M56.4319 67.1638C56.5267 67.2612 56.6102 67.369 56.681 67.485L57.3474 68.4631C57.9334 69.3463 58.761 70.5945 59.801 72.1493L68.2457 85.0401L68.1432 84.9598L74.4712 86.5365L74.6982 86.5949L74.5957 86.8066C73.8633 88.1862 73.1309 89.6315 72.3985 91.0987C72.2886 91.325 72.1714 91.5512 72.0615 91.7556V91.5585L85.9407 109.501C87.6765 111.778 89.0901 113.632 90.0935 114.939L91.2067 116.399L91.485 116.793C91.551 116.88 91.5803 116.931 91.5729 116.939C91.5283 116.903 91.4888 116.861 91.4558 116.815L91.1408 116.45L89.9763 114.99L85.7283 109.617L71.7613 91.741L71.688 91.6461L71.7466 91.5439C71.8492 91.3322 71.9663 91.106 72.0835 90.8797L74.2808 86.5876L74.3979 86.8577L68.0772 85.2664H68.004L67.9674 85.208L59.6326 72.2442L57.2669 68.4996L56.6517 67.4996C56.5703 67.3931 56.4968 67.2809 56.4319 67.1638V67.1638Z" fill="#2D2F34"/>
<path d="M91.5365 116.968C91.5719 116.799 91.6259 116.635 91.6976 116.479C91.8075 116.165 92.0126 115.749 92.2176 115.114C92.6498 113.924 93.2064 112.194 93.807 110.004C95.0008 105.625 96.3631 99.4346 97.5569 92.4855V92.6096L97.0002 91.7118L94.012 86.8504L93.7777 86.4708L94.2098 86.573L97.762 87.427L97.5496 87.6533C95.9749 82.9671 94.62 78.9523 93.6532 76.0691L92.5692 72.7259L92.3129 71.8135C92.2733 71.8062 92.238 71.7845 92.2137 71.7526C92.1894 71.7206 92.178 71.6808 92.1817 71.6409C92.1854 71.601 92.2039 71.564 92.2335 71.537C92.2632 71.51 92.3019 71.495 92.3421 71.495C92.3823 71.495 92.4211 71.51 92.4508 71.537C92.4804 71.564 92.4989 71.601 92.5026 71.6409C92.5063 71.6808 92.4948 71.7206 92.4706 71.7526C92.4463 71.7845 92.411 71.8062 92.3715 71.8135C92.4593 72.0471 92.5618 72.3318 92.701 72.6894C92.9866 73.4997 93.3895 74.6092 93.8802 75.9961C94.8836 78.8721 96.2825 82.8721 97.9085 87.5438L98.0183 87.8431L97.7034 87.7701L94.1512 86.9379L94.3489 86.6606C95.3157 88.2153 96.3191 89.8431 97.3518 91.5147L97.9085 92.4125V92.4782V92.5439C96.9231 98.446 95.6323 104.293 94.0413 110.063C93.4041 112.252 92.8035 113.997 92.3275 115.172C92.1077 115.771 91.8807 116.209 91.7489 116.515C91.6866 116.67 91.6157 116.821 91.5365 116.968Z" fill="#2D2F34"/>
<path d="M108.11 102.34C108.213 102.34 108.301 118.822 108.301 139.151C108.301 159.48 108.213 175.969 108.11 175.969C108.008 175.969 107.92 159.487 107.92 139.151C107.92 118.815 108.001 102.34 108.11 102.34Z" fill="#2D2F34"/>
<path d="M27.9995 177.896C27.9995 177.896 28.124 178.013 28.3364 178.261L29.3032 179.371C30.1454 180.371 31.3759 181.809 32.9652 183.641C36.0999 187.356 40.5896 192.663 46.0314 199.116H45.819L67.0222 181.685V181.955L60.1815 173.984L37.3377 147.297L37.2791 147.224V147.137C40.3625 138.465 42.9186 131.253 44.713 126.194L46.8151 120.355L47.379 118.829C47.5109 118.479 47.5841 118.304 47.5841 118.304C47.5841 118.304 47.5402 118.493 47.423 118.844C47.3058 119.194 47.13 119.727 46.9103 120.391C46.4342 121.756 45.7531 123.742 44.8888 126.231L37.5647 147.217V147.056L60.4525 173.706L67.2859 181.678L67.4104 181.823L67.2639 181.948L46.0241 199.328L45.9069 199.422L45.8117 199.306L32.8407 183.743L29.2739 179.422L28.3437 178.283C28.08 178.035 27.9995 177.896 27.9995 177.896Z" fill="#2D2F34"/>
<path d="M34.2765 79.7188C34.3783 79.7014 34.4823 79.7014 34.5841 79.7188C34.7892 79.7188 35.0895 79.7188 35.4777 79.7188C36.5727 79.7619 37.6613 79.9061 38.7296 80.1495C42.2877 80.9369 45.5504 82.7098 48.1419 85.2642C50.7334 87.8186 52.5484 91.0505 53.3778 94.5878C53.6395 95.6481 53.7989 96.7309 53.8538 97.8214C53.8538 98.2083 53.8538 98.5076 53.8538 98.712C53.8713 98.8134 53.8713 98.9171 53.8538 99.0185C53.7839 98.6277 53.7398 98.2327 53.722 97.836C53.606 96.7622 53.4101 95.6984 53.136 94.6535C52.25 91.1931 50.4344 88.0387 47.8845 85.5295C45.3346 83.0204 42.1468 81.2512 38.6637 80.4122C37.615 80.1478 36.5474 79.9647 35.4703 79.8648C35.0695 79.8442 34.6705 79.7954 34.2765 79.7188Z" fill="#2D2F34"/>
<path d="M25.9708 149.334C26.4005 148.926 26.8956 148.593 27.4356 148.348C29.9489 147.011 32.8346 146.536 35.6459 146.998C36.2309 147.057 36.8011 147.217 37.3304 147.472C33.4418 146.702 29.4047 147.366 25.9708 149.341V149.334Z" fill="#2D2F34"/>
<path d="M78.741 117.377C79.0129 117.599 79.2306 117.881 79.3777 118.199C79.5249 118.518 79.5977 118.865 79.5907 119.216C79.5174 120.348 79.5907 128.056 79.5907 128.056C79.5907 128.056 79.8763 129.187 78.741 129.187V117.377Z" fill="#2D2F34"/>
<path d="M78.9676 116.121H76.5946V119.99H78.9676V116.121Z" fill="#2D2F34"/>
<path d="M77.0706 116.566H78.5354V115.107C78.5354 114.913 78.4582 114.727 78.3209 114.59C78.1835 114.454 77.9972 114.377 77.803 114.377C77.6087 114.377 77.4225 114.454 77.2851 114.59C77.1478 114.727 77.0706 114.913 77.0706 115.107V116.566Z" fill="#2D2F34"/>
<path d="M58.6948 119.756C58.6948 119.647 64.0194 119.566 70.5818 119.566C77.1442 119.566 82.4761 119.647 82.4761 119.756C82.4761 119.866 77.1515 119.946 70.5818 119.946C64.0121 119.946 58.6948 119.858 58.6948 119.756Z" fill="#2D2F34"/>
<g opacity="0.2">
<path opacity="0.2" d="M89.5075 114.347L88.4089 113.311L68.3994 94.2447L70.5893 87.9964H67.1177L60.1598 72.9012L68.0992 85.135L74.4272 86.719L71.8784 91.668" fill="black"/>
</g>
<g opacity="0.2">
<path opacity="0.2" d="M72.823 140.041C74.8059 139.969 76.7352 139.38 78.4186 138.333C79.9223 137.123 81.0271 135.49 81.5899 133.647C81.4514 135.341 81.1397 137.016 80.6597 138.647C80.1652 140.168 79.1787 141.482 77.8546 142.385C76.3019 143.348 74.361 143.45 72.5373 143.304C70.0872 143.108 67.6866 142.508 65.433 141.53C63.829 140.837 62.1518 139.742 61.8222 138.034C65.2564 139.63 69.0441 140.321 72.823 140.041V140.041Z" fill="black"/>
</g>
</g>
</svg>
