<svg width="152" height="177" viewBox="0 0 152 177" xmlns="http://www.w3.org/2000/svg">
<ellipse cx="76.1938" cy="100.385" rx="75.8062" ry="75.7349" fill="#E6EAF7"/>
<mask id="mask0" style="mask-type:alpha" maskUnits="userSpaceOnUse" x="0" y="0" width="152" height="177">
<path d="M150.751 0H0.861487L0.193636 93.0564V94.93C0.0652767 96.7318 0 98.5509 0 100.385C0 142.212 33.9396 176.12 75.8062 176.12C117.673 176.12 151.612 142.212 151.612 100.385C151.612 98.5509 151.547 96.7318 151.419 94.93L151.139 92.4319L150.751 0Z" fill="#ffffff"/>
</mask>
<g mask="url(#mask0)">
<path d="M117.1 152.97C115.52 144.176 108.61 75.1088 108.61 75.1088L91.6309 69.0381L84.3305 60.5652L63.202 63.5225L56.2576 70.4604C56.2576 70.4604 42.9329 74.6319 39.5735 76.9994C39.5735 76.9994 32.3079 81.9167 29.9294 89.6698C28.1065 95.6104 19.3825 124.94 19.3825 124.94C19.3825 124.94 17.004 132.095 17.7853 136.934C18.2367 139.692 20.129 145.173 24.6777 147.584C28.4649 149.514 32.8402 149.951 36.9346 148.807L32.3686 227.049C32.3686 227.049 32.7593 234.933 53.6881 238.324C74.617 241.714 124.278 231.602 124.278 231.602C124.278 231.602 118.68 161.729 117.1 152.97Z" fill="#fff"/>
<path d="M117.1 152.97C117.1 152.97 117.438 154.825 117.855 158.39C118.271 161.954 118.818 167.227 119.461 174C120.754 187.581 122.482 207.233 124.487 231.516V231.663H124.348C117.733 232.981 110.74 234.21 103.367 235.349C96.0058 236.476 88.2888 237.517 80.2332 238.263C72.1777 239.009 63.7402 239.572 55.1204 238.592C50.7426 238.064 46.4387 237.043 42.2905 235.548C40.1611 234.787 38.1414 233.749 36.2835 232.461C35.3441 231.796 34.4924 231.015 33.7488 230.137C32.9541 229.25 32.4143 228.165 32.1863 226.997C33.5491 203.642 35.0248 178.232 36.5266 151.877C36.5873 150.828 36.6481 149.787 36.7088 148.763L37.004 148.989C34.6049 149.649 32.0933 149.793 29.6342 149.414C28.4159 149.234 27.2238 148.908 26.0838 148.443C24.9312 148.002 23.8514 147.391 22.8807 146.63C21.0153 145.044 19.572 143.021 18.6793 140.742C18.2171 139.623 17.8681 138.461 17.6376 137.273C17.4357 136.081 17.3716 134.871 17.4467 133.665C17.615 131.292 18.0192 128.942 18.6533 126.649C19.3304 124.394 19.9988 122.148 20.6585 119.91C21.9953 115.453 23.3147 111.041 24.6168 106.676C25.9189 102.311 27.2123 97.9952 28.497 93.7284C29.072 91.5846 29.7646 89.474 30.5717 87.4062C31.4774 85.396 32.664 83.5243 34.096 81.8472C35.4827 80.178 37.0456 78.6632 38.7575 77.3289C39.6185 76.6722 40.5502 76.1138 41.5352 75.6638C42.4901 75.2041 43.471 74.7965 44.4519 74.3976C48.3755 72.8192 52.2644 71.4923 56.2054 70.2435L56.1186 70.2955L63.0631 63.401L63.1152 63.3489H63.1759L84.3044 60.4003H84.3999L84.4694 60.4784L91.7697 68.934L91.6916 68.8819L108.662 74.9526H108.758V75.0567C111.153 99.1313 113.167 118.61 114.626 132.06C115.346 138.79 115.945 144.011 116.362 147.541C116.587 149.275 116.744 150.663 116.883 151.565C117.021 152.467 117.074 152.935 117.074 152.935C117.074 152.935 116.726 151.088 116.266 147.558C115.806 144.028 115.181 138.808 114.435 132.078C112.924 118.627 110.858 99.1226 108.419 75.0914L108.523 75.2301L91.544 69.1595H91.5006L84.1916 60.6865L84.3565 60.7472L63.2367 63.7305L63.3495 63.6785L56.4051 70.6164C52.5248 71.8653 48.5925 73.2181 44.6863 74.7618C43.7141 75.1608 42.7419 75.5684 41.7957 76.028C40.8338 76.4583 39.9274 77.0028 39.096 77.6497C37.4066 78.9629 35.8641 80.4546 34.4953 82.0987C33.087 83.748 31.9181 85.5873 31.0231 87.5623C30.2219 89.6157 29.5351 91.7119 28.9658 93.8411C27.6984 98.1022 26.4108 102.418 25.1029 106.789C23.7951 111.16 22.4756 115.574 21.1446 120.032C20.4849 122.258 19.8194 124.495 19.1481 126.744C18.5214 129.012 18.123 131.336 17.9588 133.682C17.8865 134.842 17.9477 136.006 18.1411 137.151C18.3629 138.31 18.7032 139.444 19.1567 140.533C20.0197 142.75 21.4219 144.717 23.2366 146.257C27.0213 149.128 32.3165 149.813 36.9346 148.538L37.2471 148.451V148.772C37.1863 149.796 37.1255 150.836 37.0648 151.886C35.5196 178.241 34.0352 203.642 32.6724 227.006C32.8972 228.077 33.4001 229.07 34.1307 229.885C34.8519 230.736 35.6739 231.496 36.5786 232.149C38.4136 233.41 40.4033 234.43 42.4988 235.184C46.6138 236.666 50.8825 237.681 55.2245 238.211C63.8009 239.191 72.2211 238.584 80.2506 237.907C88.2801 237.231 96.0058 236.173 103.367 235.019C110.728 233.866 117.725 232.669 124.331 231.368L124.2 231.542C122.239 207.259 120.563 187.599 119.322 174.018C118.714 167.227 118.185 161.954 117.803 158.407C117.594 156.621 117.464 155.259 117.317 154.349C117.169 153.438 117.1 152.97 117.1 152.97Z" fill="#2D2F34"/>
<path d="M105.65 88.1869L105.485 107.908L107.707 128.418L90.0856 130.396L91.3095 153.742C91.3095 153.742 113.983 153.499 124.843 149.154C135.702 144.809 133.098 134.021 132.334 129.207C131.049 121.203 118.662 82.2723 116.145 79.5145C113.115 76.1843 107.924 74.8574 107.924 74.8574L105.65 88.1869Z" fill="#fff"/>
<path d="M82.7504 60.5823C83.5136 61.4699 84.083 62.5069 84.4223 63.6268C84.7616 64.7468 84.8633 65.9252 84.7209 67.0866C84.3302 71.232 81.3702 79.0719 79.5907 81.4394C77.8111 83.807 66.9604 103.988 66.9604 103.988L61.4309 75.1259L61.0837 65.6817L63.2017 63.5569L82.7504 60.5823Z" fill="#F28080"/>
<path d="M69.5648 103.424C69.7356 103.334 69.8983 103.23 70.0509 103.112L71.3704 102.149C72.5596 101.282 74.2002 100.051 76.2054 98.5503L83.3322 93.1734L87.5336 89.9733C87.9493 89.7076 88.3082 89.3624 88.5898 88.9576C88.8713 88.5528 89.07 88.0963 89.1742 87.6144C89.2178 86.6179 89.0245 85.6253 88.61 84.7178C87.7968 82.8262 86.8239 81.0071 85.702 79.2802L85.4416 79.5924L92.9763 82.9313L93.2801 83.0701V82.7405C92.8114 78.6818 92.4121 75.2909 92.1343 72.854C91.9867 71.7092 91.8739 70.7813 91.7871 70.0962C91.7585 69.7685 91.7034 69.4436 91.6222 69.1248C91.6153 69.4521 91.6298 69.7795 91.6655 70.1048C91.7263 70.7986 91.8131 71.7266 91.9173 72.88C92.1603 75.3169 92.4989 78.7165 92.8982 82.7839L93.1673 82.5931L85.6326 79.1935L85.0076 78.9073L85.3721 79.5057C86.4712 81.2131 87.4265 83.0086 88.228 84.8739C88.6146 85.7131 88.8018 86.6303 88.7749 87.5537C88.5746 88.4137 88.0448 89.161 87.2992 89.6351L83.1239 92.8439L76.0492 98.3075L71.3009 102.019L70.0249 103.043C69.856 103.15 69.7014 103.278 69.5648 103.424Z" fill="#2D2F34"/>
<path d="M66.9606 103.971C66.8818 103.812 66.7888 103.661 66.6829 103.52L65.8148 102.288L62.6638 97.77C61.3357 95.862 59.7558 93.5985 58.037 91.0488C57.169 89.774 56.3009 88.4471 55.3895 87.0248C54.9381 86.3224 54.5214 85.6026 54.0787 84.8567C53.5932 84.1732 53.294 83.3752 53.2106 82.5412C53.2791 81.9918 53.4583 81.4618 53.7372 80.9834C54.0162 80.505 54.3893 80.0879 54.8339 79.7574C55.6659 79.0443 56.5881 78.4436 57.577 77.9709L58.6186 77.4592L57.4641 77.5719L49.3044 78.3351L49.452 78.6299L54.4519 72.7067L55.8148 71.0503C55.9773 70.8571 56.128 70.6544 56.2662 70.4432C56.0676 70.6022 55.8871 70.7825 55.728 70.9809L54.2957 72.5679L49.1829 78.3958L48.8877 78.7253H49.3304L57.5075 78.0229L57.4033 77.624C56.3715 78.1031 55.4106 78.7218 54.5474 79.4625C54.0912 79.8507 53.691 80.3002 53.3582 80.7981C53.0059 81.3112 52.8017 81.9112 52.7679 82.5325C52.759 82.7693 52.7853 83.006 52.846 83.235L52.9328 83.5819L53.0717 83.8941C53.2563 84.2978 53.462 84.6915 53.688 85.0736C54.1134 85.8281 54.5561 86.5565 55.0162 87.259C55.8842 88.6726 56.8217 90.0082 57.6898 91.2743C59.4259 93.8153 61.0405 96.0702 62.4033 97.9521C63.7662 99.834 64.886 101.343 65.6673 102.384L66.5787 103.572C66.6893 103.72 66.8176 103.854 66.9606 103.971Z" fill="#2D2F34"/>
<path d="M66.0234 239C66.1449 239 66.5963 208.647 67.0303 171.243C67.4643 133.839 67.7161 103.477 67.5945 103.477C67.473 103.477 67.0216 133.83 66.5876 171.234C66.1536 208.638 65.9018 238.992 66.0234 239Z" fill="#2D2F34"/>
<path d="M126.978 130.604C126.797 130.403 126.593 130.225 126.37 130.074C125.789 129.628 125.174 129.227 124.53 128.878C123.577 128.351 122.577 127.912 121.544 127.568C119.008 126.71 116.319 126.397 113.653 126.649C112.566 126.753 111.491 126.956 110.441 127.256C109.736 127.444 109.048 127.691 108.384 127.993C108.13 128.086 107.89 128.214 107.672 128.375C107.672 128.453 108.749 127.984 110.519 127.551C111.561 127.306 112.621 127.141 113.688 127.056C114.989 126.968 116.296 126.992 117.594 127.126C118.893 127.304 120.174 127.594 121.422 127.993C122.439 128.316 123.429 128.719 124.382 129.199C126.014 129.979 126.926 130.673 126.978 130.604Z" fill="#2D2F34"/>
<path d="M120.685 121.48C120.685 121.48 120.476 121.402 120.086 121.358C119.528 121.311 118.968 121.311 118.41 121.358C116.563 121.481 114.76 121.984 113.117 122.836C111.474 123.688 110.025 124.871 108.862 126.31C108.51 126.741 108.199 127.202 107.933 127.689C107.742 128.036 107.655 128.236 107.681 128.253C107.707 128.27 108.185 127.542 109.105 126.519C110.299 125.175 111.728 124.061 113.323 123.232C114.927 122.412 116.664 121.886 118.454 121.679C119.816 121.48 120.685 121.558 120.685 121.48Z" fill="#2D2F34"/>
<path d="M92.4637 130.213C92.8496 130.224 93.2357 130.204 93.6182 130.152L96.804 129.84L107.698 128.626H107.898V128.418C107.759 126.857 107.603 125.192 107.403 123.483C106.769 117.924 106.031 112.912 105.467 109.295C105.181 107.483 104.938 106.017 104.755 105.011C104.669 104.543 104.599 104.144 104.538 103.849C104.52 103.712 104.485 103.578 104.434 103.45C104.413 103.588 104.413 103.728 104.434 103.866C104.434 104.179 104.512 104.569 104.573 105.037C104.712 106.121 104.903 107.569 105.137 109.373C105.623 113.007 106.309 118.046 106.952 123.57C107.143 125.305 107.308 126.935 107.455 128.496L107.646 128.262L96.804 129.563L93.6356 130.005C93.2399 130.042 92.848 130.112 92.4637 130.213Z" fill="#2D2F34"/>
<path d="M109.599 76.0973C109.711 76.1481 109.828 76.1888 109.947 76.2187L110.971 76.5222C112.285 76.8861 113.527 77.4727 114.643 78.2567C116.075 79.3061 117.247 81.2053 118.254 83.5122C119.261 85.819 120.094 88.5942 121.084 91.6209C123.02 97.6915 125.242 104.942 127.62 113.024C129.764 121.133 133.402 129.927 132.725 139.735V140.603C132.278 142.749 131.251 144.731 129.756 146.335C128.161 147.754 126.295 148.833 124.27 149.509C122.305 150.191 120.291 150.721 118.245 151.096C116.243 151.507 114.267 151.845 112.316 152.111C110.372 152.388 108.471 152.544 106.605 152.649L101.162 153.004L91.2922 153.646L91.4658 153.793C90.9276 146.699 90.4935 140.949 90.1897 136.943C90.0335 134.966 89.9119 133.474 89.8251 132.355C89.773 131.852 89.7383 131.488 89.7123 131.167C89.6862 130.846 89.6602 130.759 89.6602 130.759C89.6525 130.895 89.6525 131.031 89.6602 131.167C89.6602 131.462 89.6602 131.852 89.721 132.364C89.7817 133.439 89.8772 134.966 90.0074 136.951C90.2679 140.958 90.6585 146.717 91.1359 153.819V153.923H91.2922L101.145 153.316L106.587 152.978C108.454 152.883 110.389 152.727 112.334 152.458C114.278 152.189 116.275 151.851 118.297 151.452C120.36 151.074 122.392 150.541 124.374 149.856C126.463 149.164 128.387 148.048 130.025 146.578C131.582 144.916 132.651 142.857 133.115 140.629C133.115 140.36 133.115 140.074 133.115 139.761C133.185 134.913 132.976 130.066 131.587 125.651C130.398 121.22 129.148 116.979 127.959 112.929C125.554 104.846 123.306 97.5961 121.327 91.5341C120.32 88.5161 119.435 85.767 118.428 83.4254C117.421 81.0839 116.179 79.1933 114.686 78.1353C113.551 77.3508 112.284 76.7778 110.945 76.4442C110.494 76.3141 110.146 76.236 109.912 76.184C109.809 76.1494 109.705 76.1205 109.599 76.0973Z" fill="#2D2F34"/>
<path d="M95.3287 132.113C95.0683 131.852 90.0509 128.383 90.0509 128.383C90.0509 128.383 89.7645 125.972 88.4711 125.547C88.0765 124.839 87.4859 124.26 86.77 123.878C86.054 123.497 85.2432 123.329 84.4346 123.397H76.9606L70.5197 130.612C70.5723 131.088 70.8085 131.524 71.178 131.829C71.5476 132.133 72.0214 132.282 72.4988 132.243L70.7627 135.564C70.7627 135.564 72.794 137.047 74.5127 135.85C76.2315 134.654 78.5752 132.589 78.5752 132.589L75.103 137.992C75.103 137.992 75.3981 139.198 77.3165 138.339C78.7833 137.509 80.0745 136.401 81.1186 135.078L86.8738 134.471L82.0474 136.102L78.2627 139.571C78.2627 139.571 78.6099 140.776 80.3287 140.343C81.6436 139.931 82.8899 139.326 84.0266 138.547L86.6308 138.712C86.7393 139.32 86.99 139.894 87.3627 140.387C87.7353 140.88 88.2192 141.278 88.7749 141.548C90.1469 142.18 91.6492 142.477 93.1586 142.415L98.8183 144.384C98.8444 141.036 97.0648 136.006 95.3287 132.113Z" fill="#936760"/>
<path d="M72.4988 132.243C72.9844 131.761 73.4314 131.242 73.8356 130.69C74.302 130.127 74.8036 129.594 75.3373 129.095C75.9557 128.468 76.7189 128.004 77.5595 127.742C79.1092 127.241 80.711 126.918 82.3338 126.779C83.0156 126.749 83.6943 126.67 84.3651 126.545C83.69 126.417 82.9994 126.391 82.3165 126.467C80.6486 126.52 78.9969 126.812 77.412 127.334C76.9455 127.477 76.5013 127.684 76.0925 127.95C75.7223 128.207 75.3765 128.497 75.0596 128.817C74.5239 129.354 74.0333 129.934 73.5925 130.552C73.1527 131.063 72.7847 131.632 72.4988 132.243Z" fill="#6F4C47"/>
<path d="M78.5752 132.59C78.636 132.59 78.9137 132.321 79.4433 131.922C80.1168 131.418 80.8933 131.069 81.7176 130.899C82.5558 130.734 83.4069 130.644 84.261 130.63C84.6277 130.658 84.9964 130.614 85.346 130.5C85.346 130.439 84.9381 130.37 84.2697 130.318C83.3847 130.237 82.4926 130.286 81.6221 130.465C80.7319 130.647 79.909 131.07 79.2436 131.688C78.7488 132.174 78.5752 132.555 78.5752 132.59Z" fill="#6F4C47"/>
<path d="M91.2921 133.977C91.3355 133.977 91.5612 133.847 91.7609 133.457C92.0192 132.928 92.0735 132.322 91.9134 131.756C91.7533 131.19 91.3899 130.702 90.8928 130.387C90.5195 130.153 90.2418 130.127 90.2244 130.179C90.2071 130.231 91.1619 130.725 91.4831 131.913C91.5946 132.606 91.5289 133.316 91.2921 133.977Z" fill="#6F4C47"/>
<path d="M95.8496 141.123C95.7715 141.028 95.1812 141.383 94.4 141.678C93.6187 141.973 92.9329 142.086 92.9416 142.216C92.9503 142.346 93.6968 142.415 94.5562 142.086C95.4156 141.756 95.9364 141.21 95.8496 141.123Z" fill="#6F4C47"/>
<path d="M92.5593 130.257C92.5593 130.257 92.95 130.387 93.5663 130.786C94.4163 131.37 95.1034 132.161 95.5628 133.084C96.2416 134.469 96.8218 135.901 97.2989 137.368C97.9377 139.14 98.3546 140.984 98.5403 142.858C98.6813 144.414 98.5222 145.983 98.0715 147.48C97.6972 148.781 97.012 149.971 96.075 150.949C95.3547 151.699 94.4854 152.29 93.5229 152.684C92.9233 152.926 92.2918 153.081 91.6479 153.143H91.3788L91.6218 153.23C91.8189 153.324 92.03 153.386 92.2468 153.412C92.0688 153.29 91.8764 153.191 91.6739 153.117V153.23C92.3433 153.231 93.0076 153.114 93.6357 152.883C94.6577 152.511 95.5853 151.919 96.3528 151.149C97.3438 150.157 98.0795 148.94 98.4969 147.602C98.976 146.054 99.1471 144.428 99.0003 142.814C98.8161 140.904 98.3813 139.026 97.7069 137.229C97.2171 135.737 96.6075 134.287 95.884 132.893C95.3815 131.945 94.6277 131.153 93.7052 130.604C93.4548 130.457 93.1864 130.343 92.9066 130.265C92.6635 130.248 92.5593 130.239 92.5593 130.257Z" fill="#2D2F34"/>
<path d="M106.553 92.4534C105.956 93.4509 105.489 94.5205 105.164 95.6361C104.702 96.7012 104.375 97.82 104.192 98.9663C105.252 96.9044 106.046 94.7158 106.553 92.4534Z" fill="#2D2F34"/>
<path d="M36.7004 149.769C36.6817 149.573 36.6817 149.376 36.7004 149.18C36.7004 148.746 36.7177 148.182 36.7525 147.488C36.8045 145.971 36.874 143.863 36.9521 141.288C37.0997 136.084 37.2038 128.808 37.1778 120.812C37.1518 112.816 37.065 105.609 37.0215 100.319C37.0215 97.7175 37.0215 95.6361 37.0215 94.1098C37.0215 93.416 37.0215 92.861 37.0215 92.4273C37.0007 92.2313 37.0007 92.0336 37.0215 91.8376C37.0613 92.0316 37.0788 92.2294 37.0736 92.4273C37.0736 92.8523 37.117 93.416 37.1431 94.1098C37.1431 95.6275 37.2386 97.7349 37.308 100.319C37.4295 105.523 37.5771 112.799 37.5945 120.803C37.6118 128.808 37.4643 136.058 37.2386 141.296C37.1257 143.898 37.0042 146.031 36.8913 147.497C36.8393 148.191 36.7958 148.755 36.7611 149.18C36.7634 149.378 36.743 149.576 36.7004 149.769Z" fill="#2D2F34"/>
<path d="M35.719 123.744C35.1014 123.802 34.4789 123.71 33.9048 123.475C32.9412 123.215 32.1687 122.902 32.2207 122.781C32.8348 122.722 33.4539 122.812 34.0263 123.041C34.9898 123.31 35.7537 123.622 35.719 123.744Z" fill="#2D2F34"/>
<path d="M23.497 102.123C23.497 102.123 21.6827 98.5157 19.7643 98.5591C18.4796 98.5591 17.6115 101.551 17.6115 101.551C17.6115 101.551 15.0942 99.7559 14.1393 101.551C13.1845 103.346 15.0074 106.095 15.0074 106.095C15.0074 106.095 13.089 107.171 12.8459 108.697C12.7076 109.69 12.7076 110.697 12.8459 111.689C12.2278 112.688 12.0136 113.885 12.247 115.037C12.7331 116.71 17.1602 123.527 17.1602 123.527L22.0647 126.285L23.1411 129.962C27.8286 129.043 30.1897 127.057 30.7105 121.446C30.7105 121.446 33.9223 111.906 33.3147 110.171C32.707 108.437 29.7209 105.983 29.7209 105.983L27.3511 104.248C26.7653 104.935 26.4315 105.801 26.405 106.702C26.405 108.142 26.1272 108.038 26.1272 108.038L23.497 102.123Z" fill="#936760"/>
<path d="M26.5874 105.54C26.5857 106.415 26.3246 107.269 25.8371 107.995C25.3496 108.721 24.6576 109.287 23.8485 109.62C23.0394 109.954 22.1495 110.04 21.2913 109.868C20.4331 109.697 19.6451 109.275 19.0268 108.656C18.4086 108.037 17.9878 107.249 17.8177 106.391C17.6475 105.533 17.7357 104.645 18.071 103.837C18.4064 103.029 18.9738 102.339 19.7017 101.853C20.4295 101.368 21.2851 101.109 22.1603 101.109C22.7424 101.109 23.3188 101.223 23.8565 101.446C24.3942 101.669 24.8826 101.995 25.2938 102.407C25.705 102.819 26.0309 103.307 26.2529 103.845C26.4749 104.383 26.5885 104.959 26.5874 105.54Z" fill="#FAFAFC"/>
<path d="M26.5872 105.54C26.5438 105.54 26.5872 105.141 26.3702 104.482C26.1006 103.55 25.5337 102.731 24.7556 102.149C24.1259 101.68 23.3777 101.394 22.5948 101.325C21.812 101.255 21.0252 101.405 20.3226 101.757C19.6199 102.109 19.0292 102.649 18.6163 103.317C18.2034 103.985 17.9848 104.755 17.9848 105.54C17.9848 106.326 18.2034 107.095 18.6163 107.764C19.0292 108.432 19.6199 108.972 20.3226 109.324C21.0252 109.676 21.812 109.825 22.5948 109.756C23.3777 109.687 24.1259 109.401 24.7556 108.931C25.5351 108.35 26.1047 107.531 26.3789 106.598C26.5612 105.931 26.5525 105.54 26.5959 105.54C26.6393 105.54 26.5959 105.636 26.5959 105.827C26.6022 106.101 26.573 106.375 26.5091 106.642C26.2928 107.65 25.7271 108.55 24.9119 109.183C24.3072 109.658 23.5922 109.972 22.8333 110.096C22.0744 110.22 21.2963 110.151 20.5716 109.894C19.7041 109.588 18.9483 109.029 18.4014 108.29C17.8096 107.495 17.4899 106.531 17.4899 105.54C17.4899 104.55 17.8096 103.586 18.4014 102.791C18.7691 102.301 19.231 101.889 19.7602 101.579C20.2893 101.269 20.875 101.068 21.4829 100.987C22.0909 100.907 22.7088 100.948 23.3006 101.109C23.8923 101.269 24.4461 101.547 24.9292 101.924C25.7434 102.561 26.3085 103.463 26.5265 104.474C26.5907 104.741 26.6199 105.015 26.6133 105.289C26.6133 105.445 26.6046 105.54 26.5872 105.54Z" fill="#2D2F34"/>
<path d="M22.1515 109.694C21.336 109.694 20.5388 109.453 19.8608 109C19.1827 108.547 18.6542 107.904 18.3421 107.151C18.03 106.399 17.9484 105.57 18.1075 104.771C18.2666 103.972 18.6593 103.238 19.2359 102.662C19.8126 102.086 20.5473 101.694 21.3471 101.535C22.147 101.376 22.976 101.457 23.7294 101.769C24.4829 102.081 25.1268 102.609 25.5799 103.286C26.033 103.964 26.2748 104.76 26.2748 105.575C26.2748 106.667 25.8404 107.715 25.0671 108.488C24.2939 109.26 23.2451 109.694 22.1515 109.694ZM22.1515 102.323C21.5077 102.323 20.8784 102.513 20.343 102.871C19.8077 103.228 19.3905 103.736 19.1441 104.33C18.8977 104.925 18.8333 105.579 18.9589 106.209C19.0845 106.84 19.3945 107.42 19.8497 107.875C20.305 108.329 20.885 108.639 21.5165 108.765C22.1479 108.89 22.8024 108.826 23.3972 108.58C23.9921 108.333 24.5004 107.917 24.8581 107.382C25.2158 106.847 25.4067 106.218 25.4067 105.575C25.4022 104.715 25.0572 103.893 24.4472 103.286C23.8372 102.68 23.0119 102.34 22.1515 102.34V102.323Z" fill="#fff"/>
<path d="M44.7209 143.664C44.2829 143.672 43.8449 143.649 43.4102 143.595C35.9796 142.84 29.9726 136.9 26.049 126.432C24.2208 121.428 22.9856 116.226 22.3685 110.935L24.1046 110.77C24.1046 111.065 27.1515 140.195 43.6272 141.878C44.1133 141.938 54.9119 143.239 57.9241 131.228C59.5464 124.227 60.5743 117.102 60.997 109.929C61.2227 106.529 62.4987 95.6364 63.1064 91.5864L63.7053 87.944L65.4414 88.2215L64.8425 91.8553C64.2348 95.8619 62.9675 106.676 62.7505 110.024C62.3197 117.306 61.2743 124.538 59.6255 131.644C56.8216 142.589 48.0456 143.664 44.7209 143.664Z" fill="#5F646F"/>
<path d="M14.8425 106.095C14.8425 106.095 15.129 105.93 15.7106 105.991C16.0517 106.041 16.3777 106.165 16.6655 106.355C17.0349 106.593 17.3913 106.851 17.7332 107.127C18.6403 107.832 19.5095 108.585 20.3373 109.382C20.8311 109.843 21.2977 110.332 21.7349 110.848C21.9719 111.135 22.1784 111.446 22.3512 111.775C22.4671 111.963 22.5334 112.176 22.544 112.396C22.5546 112.616 22.5092 112.835 22.412 113.033C22.277 113.218 22.1058 113.373 21.9088 113.489C21.7118 113.605 21.4931 113.68 21.2662 113.709C20.8663 113.79 20.4567 113.81 20.0509 113.77L20.2766 113.458C20.3276 113.67 20.3315 113.892 20.288 114.106C20.2445 114.32 20.1547 114.522 20.0248 114.698C19.8213 115.008 19.5726 115.286 19.287 115.522C18.9865 115.744 18.619 115.858 18.2453 115.843C17.9264 115.846 17.6083 115.809 17.2991 115.73C16.3512 115.49 15.4422 115.116 14.5995 114.62H14.721C14.3184 114.896 13.8877 115.128 13.4363 115.314C13.7932 114.986 14.183 114.695 14.5995 114.447H14.6429H14.7123C15.5544 114.876 16.4467 115.199 17.3686 115.409C17.643 115.492 17.9313 115.518 18.2161 115.487C18.5009 115.455 18.7766 115.367 19.0266 115.227C19.2754 115.016 19.4893 114.768 19.6603 114.49C19.8291 114.25 19.9061 113.958 19.8773 113.666L19.7644 113.337H20.103C20.7627 113.38 21.6654 113.337 22.03 112.807C22.0905 112.668 22.1151 112.515 22.1015 112.364C22.0878 112.212 22.0364 112.067 21.9519 111.94C21.7986 111.63 21.6093 111.339 21.3877 111.073C20.9705 110.559 20.5211 110.073 20.0422 109.616C19.1741 108.749 18.3061 107.934 17.5682 107.309C17.048 106.772 16.4129 106.36 15.7106 106.104C15.422 106.076 15.1316 106.073 14.8425 106.095Z" fill="#6F4C47"/>
<path d="M29.9637 114.213C29.8943 114.213 29.7294 113.632 29.1478 112.834C28.5662 112.036 27.5766 111.099 26.7259 109.729C26.3199 109.088 26.0839 108.354 26.0401 107.596C26.0251 106.981 26.1282 106.368 26.3439 105.792C26.4912 105.257 26.7618 104.764 27.1339 104.352C27.1946 104.352 26.9169 104.942 26.6478 105.887C26.494 106.434 26.4295 107.002 26.4568 107.57C26.5177 108.255 26.7441 108.916 27.1165 109.495C27.9065 110.753 28.9134 111.759 29.4169 112.66C29.753 113.11 29.9438 113.652 29.9637 114.213Z" fill="#6F4C47"/>
<path d="M20.0247 113.553C19.9813 113.605 19.5473 113.285 18.9397 112.686C18.7834 112.547 18.6098 112.391 18.4189 112.235L17.7852 111.784L16.3442 110.726C15.8761 110.414 15.327 110.245 14.7643 110.241C14.3056 110.265 13.8645 110.425 13.497 110.7C13.1467 110.957 12.8662 111.296 12.681 111.689C12.681 111.689 12.6202 111.55 12.681 111.307C12.7972 110.966 13.0079 110.666 13.2886 110.44C13.69 110.084 14.1949 109.865 14.7296 109.816C15.3868 109.789 16.035 109.975 16.5786 110.345C17.1254 110.726 17.5942 111.108 18.0369 111.455L18.6619 111.949C18.8442 112.122 19.0091 112.296 19.1567 112.452C19.4914 112.781 19.7831 113.151 20.0247 113.553Z" fill="#6F4C47"/>
<path d="M18.5663 102.939C18.4448 102.939 18.2451 102.635 18.0194 102.227C17.7937 101.82 17.6114 101.473 17.7069 101.36C17.8024 101.247 18.1583 101.525 18.4101 101.985C18.6618 102.444 18.6791 102.904 18.5663 102.939Z" fill="#6F4C47"/>
<path d="M36.2401 128.774C35.1643 127.516 34.2054 126.164 33.3755 124.732C32.4138 123.366 31.5798 121.915 30.8842 120.396C31.9614 121.656 32.9202 123.011 33.7488 124.446C34.7115 125.809 35.5455 127.257 36.2401 128.774Z" fill="#2D2F34"/>
<path d="M65.3804 89.3837L65.12 89.2449C64.9203 89.1495 60.1981 86.7212 57.9759 83.417C55.7537 80.1129 60.5801 65.4912 61.5523 62.6033L63.1929 63.167C60.8492 70.0095 58.1235 80.5118 59.4169 82.4457C61.153 84.9781 64.6773 87.0334 65.6582 87.5711C68.2624 87.0855 74.3388 85.7326 76.0315 84.4317C78.4447 82.6018 85.5107 70.0789 88.028 65.4131L89.5558 66.237C88.6096 67.9715 80.2242 83.4171 77.0818 85.8106C74.6426 87.6665 66.5783 89.1669 65.6669 89.3316L65.3804 89.3837Z" fill="#5F646F"/>
<path d="M82.49 10.4472C85.4241 7.61134 92.1688 8.51327 93.6445 10.6033C94.8824 10.1251 96.2563 10.1371 97.4856 10.6367C98.715 11.1364 99.707 12.086 100.259 13.2918L107.36 15.3385C108.602 15.586 109.76 16.1439 110.728 16.9602C111.596 17.8274 111.961 19.4232 111.11 20.3598C113.61 21.227 114.356 25.0255 112.351 26.7253C112.575 27.0225 112.736 27.3621 112.824 27.7234C112.912 28.0847 112.926 28.4601 112.864 28.8268C112.802 29.1936 112.666 29.5439 112.465 29.8565C112.263 30.1691 112 30.4375 111.691 30.6453C113.525 33.163 114.914 35.9759 115.797 38.9621C116.284 40.181 116.324 41.5325 115.91 42.778C115.381 43.9661 113.723 44.7032 112.716 43.8707C113.038 44.3947 113.203 45.0003 113.191 45.6153C113.178 46.2304 112.99 46.8289 112.646 47.3396C113.862 47.4524 114.096 49.3516 113.202 50.1842C112.308 51.0167 110.945 51.0514 109.73 50.9127C108.514 50.7739 107.204 50.6525 106.153 51.2856C106.154 51.4351 106.186 51.5828 106.245 51.7199C106.305 51.857 106.392 51.9807 106.5 52.0835C107.477 52.9271 108.091 54.1136 108.215 55.3972C108.34 56.6807 107.965 57.9629 107.169 58.978L106.735 59.507C105.962 60.461 104.131 61.2415 103.028 61.7618C100.181 63.0107 98.5578 62.6291 95.4501 62.8806C96.1619 64.9186 90.8755 68.9513 85.4414 64.2855C75.0271 66.5433 64.3403 67.2823 53.7139 66.4796C52.0299 66.3756 50.016 66.0113 49.3737 64.459C48.6685 64.5448 47.953 64.4507 47.2942 64.1852C46.6354 63.9198 46.0546 63.4918 45.6063 62.9413C44.7236 61.8325 44.0394 60.5797 43.5837 59.2382C42.1588 58.7208 40.9283 57.777 40.06 56.5354C39.1916 55.2938 38.7276 53.8149 38.7313 52.3003C37.7969 51.4561 37.0476 50.4276 36.5307 49.2798C36.0138 48.132 35.7404 46.8897 35.7278 45.6312C35.0526 45.3386 34.445 44.9098 33.9433 44.3718C33.4416 43.8338 33.0564 43.198 32.8119 42.5044C32.5675 41.8108 32.469 41.0743 32.5226 40.3409C32.5763 39.6075 32.7809 38.893 33.1237 38.2423C33.9621 34.7997 35.3672 31.5203 37.2816 28.5379C35.3806 27.9915 34.8164 25.3464 35.7365 23.5859C36.6566 21.8254 38.4796 20.7847 40.2157 19.8308C38.7487 20.117 37.6115 18.2264 38.0455 16.7954C38.4796 15.3645 39.8598 14.4452 41.1966 13.7601C43.1506 12.7546 45.2204 11.9916 47.3598 11.4879C48.2278 8.99026 51.6567 6.28446 54.1133 5.33917C64.0178 1.42792 70.8234 0.725451 82.4813 10.4819" fill="#2D2F34"/>
<path d="M54.322 45.7786C53.9779 45.3344 53.5311 44.9802 53.0199 44.7466H53.124C53.0285 44.7466 52.9331 44.6946 52.8376 44.6686C52.6645 44.5956 52.4786 44.558 52.2907 44.558C52.1028 44.558 51.9169 44.5956 51.7438 44.6686C51.1258 44.836 50.5912 45.225 50.2421 45.7613C49.9647 46.2427 49.8253 46.791 49.8391 47.3463C49.8528 47.9015 50.0193 48.4423 50.3202 48.9094C50.5241 49.3399 50.856 49.6971 51.2705 49.9323C51.685 50.1675 52.1621 50.2693 52.6366 50.2238C53.1112 50.1783 53.5602 49.9877 53.9223 49.678C54.2845 49.3683 54.5423 48.9545 54.6605 48.4931C54.8346 48.0482 54.8948 47.567 54.8357 47.093C54.7765 46.619 54.6 46.1672 54.322 45.7786Z" fill="#90959F"/>
<path d="M54.53 26.9856C55.7279 20.4293 61.0752 12.8409 67.5509 14.3152L87.5162 21.9469C88.4689 22.1635 89.3059 22.7289 89.8619 23.5316C90.4179 24.3343 90.6526 25.316 90.5197 26.2831L84.3651 69.1248L68.4884 80.7892C68.3582 79.922 61.5005 69.1248 61.5005 69.1248C61.1446 65.9334 60.78 62.4037 60.78 62.4211C60.78 62.4384 52.4988 60.0188 52.0995 48.7967C51.8564 43.2203 53.2019 34.2444 54.53 26.9856Z" fill="#936760"/>
<path d="M55.6583 36.2651C55.6108 36.6323 55.7085 37.0034 55.9305 37.2998C56.1526 37.5961 56.4815 37.7943 56.8475 37.8522C57.0261 37.8873 57.2098 37.8865 57.388 37.85C57.5663 37.8135 57.7354 37.7418 57.8857 37.6393C58.036 37.5368 58.1643 37.4055 58.2633 37.2529C58.3622 37.1004 58.4298 36.9297 58.4621 36.7508C58.5094 36.3824 58.4106 36.0101 58.1867 35.7135C57.9629 35.4169 57.6318 35.2196 57.2642 35.1637C57.0861 35.1275 56.9025 35.1274 56.7243 35.1635C56.5462 35.1996 56.3772 35.2712 56.2273 35.374C56.0775 35.4768 55.9498 35.6086 55.8521 35.7617C55.7543 35.9148 55.6884 36.086 55.6583 36.2651Z" fill="#2D2F34"/>
<path d="M55.9275 31.8854C56.0837 32.0936 57.2469 31.4258 58.766 31.6079C60.2851 31.79 61.3094 32.692 61.5004 32.5185C61.6913 32.3451 61.4483 32.0936 61.0056 31.6513C60.4005 31.1172 59.6462 30.7813 58.8441 30.6886C58.0547 30.5975 57.2565 30.7551 56.5611 31.1396C56.049 31.4778 55.8493 31.7987 55.9275 31.8854Z" fill="#2D2F34"/>
<path d="M69.5127 37.5832C69.4677 37.9513 69.5674 38.3224 69.7909 38.6185C70.0143 38.9145 70.3441 39.1123 70.7106 39.1703C70.8887 39.2053 71.0719 39.2045 71.2496 39.1678C71.4272 39.1312 71.5958 39.0595 71.7454 38.9569C71.895 38.8543 72.0225 38.7229 72.1206 38.5704C72.2187 38.4179 72.2853 38.2474 72.3166 38.0689C72.3639 37.7004 72.265 37.3281 72.0412 37.0316C71.8173 36.735 71.4862 36.5377 71.1186 36.4818C70.9405 36.4455 70.7569 36.4455 70.5788 36.4816C70.4007 36.5177 70.2316 36.5893 70.0818 36.6921C69.9319 36.7949 69.8043 36.9267 69.7065 37.0798C69.6088 37.2329 69.5429 37.4041 69.5127 37.5832Z" fill="#2D2F34"/>
<path d="M70.8492 33.9408C70.9968 34.149 72.1686 33.4812 73.6877 33.6633C75.2068 33.8454 76.2311 34.7387 76.4221 34.5305C76.6131 34.3224 76.37 34.1056 75.9273 33.6633C75.3212 33.1324 74.5669 32.7995 73.7659 32.7093C72.9762 32.6134 72.1765 32.7713 71.4829 33.1603C70.9707 33.5332 70.7624 33.8454 70.8492 33.9408Z" fill="#2D2F34"/>
<path d="M63.9919 44.5561C63.2176 44.2129 62.4043 43.9653 61.57 43.8189C61.1881 43.7322 60.8321 43.6108 60.7974 43.3419C60.8112 42.9381 60.9474 42.5479 61.1881 42.2232L62.6898 39.448C64.7818 35.424 66.353 32.1025 66.162 32.0244C65.9711 31.9464 64.1655 35.1291 62.0735 39.1445C61.57 40.1418 61.0839 41.0871 60.6238 41.989C60.3233 42.4284 60.188 42.9599 60.2419 43.4893C60.2817 43.6331 60.354 43.7657 60.4534 43.877C60.5527 43.9883 60.6764 44.0752 60.8148 44.1311C61.0206 44.2161 61.2365 44.2744 61.4571 44.3046C62.288 44.4952 63.1397 44.5798 63.9919 44.5561Z" fill="#2D2F34"/>
<path d="M60.8058 62.4212C65.9861 63.1214 71.2593 62.3739 76.0402 60.2617C76.0402 60.2617 72.6287 67.9542 61.1877 65.9942L60.8058 62.4212Z" fill="#6F4C47"/>
<path d="M63.8182 48.1983C64.2208 47.7365 64.7301 47.3798 65.3019 47.1591C65.8737 46.9385 66.4907 46.8606 67.0995 46.9321C67.4958 46.983 67.8734 47.1307 68.1989 47.3621C68.5244 47.5936 68.7878 47.9016 68.9658 48.259C69.1639 48.67 69.232 49.1316 69.1611 49.5822C69.0902 50.0329 68.8836 50.4513 68.5688 50.7817C68.254 51.1122 67.846 51.3391 67.399 51.4322C66.952 51.5254 66.4872 51.4803 66.0665 51.303C65.2529 50.9276 64.5415 50.3625 63.9919 49.6553C63.8105 49.4788 63.6685 49.266 63.5752 49.0309C63.5302 48.9014 63.521 48.7621 63.5485 48.6279C63.576 48.4936 63.6392 48.3691 63.7314 48.2677" fill="#6F4C47"/>
<path d="M68.3403 46.1431C68.0973 46.0997 67.8976 47.7475 66.3438 48.7448C64.79 49.7422 63.0538 49.3519 63.0191 49.6121C63.0191 49.7075 63.375 49.9763 64.1129 50.0891C65.0795 50.2115 66.0586 49.9938 66.882 49.4733C67.6724 48.9728 68.2338 48.1815 68.4445 47.2705C68.592 46.5767 68.4532 46.1431 68.3403 46.1431Z" fill="#2D2F34"/>
<path d="M70.919 27.6015C71.0145 28.0351 72.5596 28.0177 74.3218 28.4687C76.0839 28.9197 77.4642 29.5528 77.7419 29.2145C77.8721 29.0498 77.6638 28.6248 77.1343 28.1565C76.4202 27.5662 75.5748 27.1558 74.669 26.9597C73.7702 26.7456 72.8335 26.7456 71.9346 26.9597C71.2402 27.1158 70.8756 27.402 70.919 27.6015Z" fill="#2D2F34"/>
<path d="M57.082 26.7167C57.3077 27.0983 58.4014 26.8641 59.6862 26.9942C60.9709 27.1243 61.9865 27.5059 62.2903 27.1677C62.4205 27.0116 62.2903 26.6387 61.865 26.3004C61.2846 25.8374 60.5799 25.5565 59.8399 25.4932C59.0999 25.4299 58.3577 25.5871 57.707 25.9449C57.1775 26.1964 56.9865 26.5346 57.082 26.7167Z" fill="#2D2F34"/>
<path d="M49.174 31.929C49.345 30.1833 50.1148 28.5503 51.3528 27.3066C52.1178 26.7372 52.851 26.1263 53.549 25.4767C54.9119 23.933 54.9032 21.6522 55.5803 19.7096C56.0336 18.4622 56.7766 17.3401 57.7485 16.4356C58.7203 15.531 59.8931 14.8697 61.1706 14.5061C63.2973 13.9164 65.641 14.1939 67.6636 13.3007C69.1567 12.6416 70.3546 11.4014 71.8824 10.829C74.8685 9.72763 78.1063 11.4534 80.7105 13.2746C81.0925 15.4774 79.5907 17.2466 78.1063 18.9464C77.3742 19.7943 76.4664 20.4732 75.4456 20.9359C74.4249 21.3986 73.3157 21.6341 72.1949 21.6262C70.4588 21.6262 68.4709 21.0711 67.1602 22.2072C65.8494 23.3433 66.1185 25.7282 64.9553 27.1418C63.2973 29.1538 59.9466 28.0958 57.6028 29.2405C55.7886 30.1078 54.9119 32.1458 53.9049 33.8976C52.898 35.6494 51.2487 37.3666 49.2521 37.1671C49.0196 35.4303 48.9934 33.672 49.174 31.929Z" fill="#2D2F34"/>
<path d="M76.11 16.8997C81.1778 17.1826 86.1424 18.4462 90.7281 20.6201C92.1512 21.1575 93.367 22.1323 94.2003 23.404C94.7271 24.627 94.8957 25.9743 94.6864 27.2892C94.3392 31.4259 92.2906 36.3692 90.4329 40.081L85.0336 42.7955C81.1187 41.564 83.4537 34.8255 83.8965 31.3912C82.5566 30.6583 81.4498 29.564 80.7023 28.233C79.9549 26.9021 79.5968 25.388 79.669 23.8636C78.5922 23.0427 77.7133 21.9909 77.0974 20.7857C76.4814 19.5804 76.144 18.2525 76.11 16.8997Z" fill="#2D2F34"/>
<path d="M85.2158 41.3123C85.5457 38.9621 88.4884 38.7106 90.4242 40.0808C91.4919 40.8353 92.2384 42.2229 91.9085 44.7206C91.0405 51.3983 84.504 49.1435 84.5214 48.9527C84.5388 48.7619 84.8252 44.0701 85.2158 41.3123Z" fill="#936760"/>
<path d="M86.8999 46.6896C86.8999 46.6896 87.004 46.785 87.1863 46.8977C87.4479 47.0514 87.7579 47.101 88.0544 47.0365C88.8009 46.8631 89.5388 45.8224 89.7297 44.6256C89.8233 44.0468 89.7877 43.4545 89.6256 42.8911C89.5883 42.6745 89.4995 42.47 89.3665 42.2949C89.2336 42.1199 89.0604 41.9793 88.8617 41.8851C88.7326 41.8338 88.5899 41.8281 88.4572 41.8692C88.3246 41.9102 88.21 41.9954 88.1325 42.1106C88.0197 42.2927 88.0457 42.4315 88.011 42.4315C87.9762 42.4315 87.8808 42.3014 87.9676 42.0325C88.0294 41.8733 88.1424 41.7391 88.2888 41.6509C88.3887 41.5927 88.4994 41.555 88.6142 41.5401C88.729 41.5252 88.8456 41.5334 88.9571 41.5642C89.224 41.6552 89.4631 41.8129 89.6515 42.0224C89.8399 42.232 89.9715 42.4862 90.0335 42.761C90.2452 43.3768 90.2989 44.0357 90.1898 44.6776C89.9728 46.0132 89.1221 47.1839 88.1151 47.3314C87.9292 47.3598 87.7393 47.3466 87.5591 47.2926C87.3789 47.2386 87.213 47.1452 87.0735 47.0192C86.8912 46.8544 86.8738 46.6983 86.8999 46.6896Z" fill="#6F4C47"/>
<path d="M90.5459 48.4584C90.1992 48.0191 89.7529 47.6683 89.2438 47.4351H89.348C89.2549 47.401 89.1591 47.3748 89.0615 47.357C88.8884 47.2841 88.7025 47.2465 88.5147 47.2465C88.3268 47.2465 88.1408 47.2841 87.9678 47.357C87.3497 47.5244 86.8151 47.9135 86.466 48.4498C86.1891 48.9294 86.0491 49.4756 86.0613 50.0292C86.0736 50.5827 86.2376 51.1223 86.5355 51.5892C86.7387 52.0198 87.0698 52.3774 87.4838 52.6132C87.8977 52.8491 88.3744 52.9517 88.8488 52.9071C89.3232 52.8626 89.7724 52.673 90.1351 52.3642C90.4978 52.0555 90.7565 51.6425 90.8758 51.1816C91.0503 50.7358 91.1115 50.2537 91.0539 49.7785C90.9964 49.3033 90.8218 48.8498 90.5459 48.4584Z" fill="#90959F"/>
<path d="M87.4381 49.56C87.4361 49.5918 87.4361 49.6236 87.4381 49.6554C87.4562 49.7443 87.4824 49.8314 87.5162 49.9156C87.6627 50.2421 87.9171 50.5085 88.2367 50.6701C88.7452 50.9367 89.3042 51.0933 89.8773 51.1297C90.2352 51.1648 90.5958 51.1648 90.9537 51.1297C91.367 51.0999 91.7735 51.0093 92.1603 50.8609L92.0822 50.8088C92.1323 51.3837 92.3306 51.9357 92.6579 52.4112C92.9851 52.8866 93.4301 53.2692 93.9495 53.5216C94.4688 53.7741 95.0448 53.8877 95.6212 53.8516C96.1976 53.8154 96.7548 53.6306 97.2384 53.3152H97.1256C97.2196 53.4759 97.3448 53.6163 97.4939 53.728C97.6429 53.8397 97.8129 53.9205 97.9936 53.9656C98.3501 54.0742 98.7309 54.0742 99.0874 53.9656C99.46 53.8611 99.7869 53.6352 100.016 53.3238C100.248 53.0046 100.395 52.6314 100.442 52.2398C100.53 51.4328 100.326 50.6209 99.8687 49.9503C99.4028 49.2672 98.8514 48.6465 98.228 48.103V48.2591C98.5184 48.0984 98.7729 47.8801 98.9759 47.6176C99.1789 47.3552 99.3261 47.0541 99.4086 46.7328C99.5871 46.0772 99.569 45.3836 99.3565 44.7381C99.1218 44.0976 98.7651 43.5086 98.3062 43.0037C97.8419 42.4879 97.3462 42.0013 96.8218 41.5467V41.6941C97.0809 41.4531 97.286 41.1601 97.4236 40.8342C97.5613 40.5084 97.6283 40.1571 97.6204 39.8035C97.6291 39.0757 97.4173 38.3622 97.0127 37.7569C96.1808 36.6921 95.1183 35.8293 93.9051 35.2332L93.9572 35.3546C94.1823 34.6688 94.2376 33.9388 94.1186 33.2269C93.9995 32.5151 93.7096 31.8427 93.2735 31.2673C92.8375 30.6919 92.2684 30.2306 91.615 29.9229C90.9615 29.6153 90.2431 29.4704 89.5214 29.5007L89.6169 29.6221C89.7652 29.0527 89.782 28.4571 89.6663 27.8802C89.5505 27.3033 89.305 26.7602 88.9485 26.2919C88.6347 25.8448 88.2279 25.4708 87.7559 25.1954C87.284 24.92 86.758 24.7497 86.2141 24.6962L86.2923 24.7829C86.3166 24.2119 86.2123 23.6426 85.9869 23.1172C85.7615 22.5919 85.4209 22.1238 84.9902 21.7476C84.6205 21.4086 84.1864 21.1472 83.7137 20.9789C83.2411 20.8106 82.7394 20.7387 82.2384 20.7676L82.3079 20.8457C82.315 20.2419 82.1718 19.6459 81.8912 19.1112C81.6486 18.6095 81.3196 18.1545 80.919 17.767C80.3266 17.1471 79.5449 16.7414 78.6968 16.6135H78.445C78.367 16.6092 78.2887 16.6092 78.2106 16.6135C78.069 16.6043 77.9269 16.6043 77.7853 16.6135C77.5624 16.6401 77.3418 16.6836 77.1256 16.7436L76.7436 16.8737L76.6134 16.9257C76.6134 16.9257 76.6568 16.9257 76.7523 16.9257L77.1342 16.813C77.3484 16.7604 77.5659 16.7227 77.7853 16.7002C77.9269 16.6914 78.069 16.6914 78.2106 16.7002H78.445H78.6881C79.5173 16.8382 80.2775 17.2469 80.8495 17.8624C81.2099 18.2377 81.5034 18.6718 81.7176 19.1459C81.9931 19.6815 82.1275 20.2784 82.1082 20.8803V20.9584H82.1777C82.6536 20.9342 83.1296 21.0062 83.5771 21.1701C84.0246 21.334 84.4343 21.5865 84.7818 21.9124C85.1939 22.2742 85.5195 22.7239 85.7343 23.2282C85.9492 23.7326 86.0479 24.2787 86.0231 24.8263V24.9043H86.1099C86.6294 24.9602 87.1307 25.127 87.58 25.3933C88.0293 25.6596 88.4161 26.0193 88.7141 26.448C89.0532 26.893 89.2865 27.4093 89.3963 27.9578C89.5061 28.5062 89.4895 29.0724 89.3478 29.6135V29.7435H89.4867C90.1761 29.7142 90.8624 29.8525 91.4865 30.1466C92.1107 30.4407 92.654 30.8818 93.0698 31.432C93.4856 31.9822 93.7615 32.625 93.8737 33.3053C93.986 33.9855 93.9312 34.6828 93.7141 35.3372V35.4153H93.7923C94.9741 35.999 96.0095 36.8408 96.8218 37.8783C97.2075 38.4458 97.4105 39.1176 97.4034 39.8035C97.4074 40.1279 97.3438 40.4496 97.2168 40.7482C97.0898 41.0468 96.9021 41.3158 96.6655 41.538L96.5787 41.6074L96.6655 41.6855C97.7491 42.5002 98.6066 43.5778 99.1568 44.8162C99.3529 45.4232 99.368 46.074 99.2003 46.6894C99.1277 46.9841 98.9945 47.2604 98.8092 47.5008C98.6239 47.7412 98.3905 47.9404 98.1239 48.0857L98.0023 48.1464L98.0978 48.2418C98.711 48.7748 99.2536 49.3839 99.7124 50.0543C100.148 50.6885 100.342 51.4576 100.259 52.2224C100.237 52.5775 100.109 52.9179 99.8931 53.2005C99.6767 53.4831 99.3812 53.695 99.044 53.8095C98.7339 53.9215 98.3954 53.9278 98.0813 53.8274C97.7673 53.727 97.4953 53.5255 97.3079 53.2544L97.2645 53.1764L97.1951 53.2198C96.6896 53.5433 96.1048 53.7217 95.5046 53.7355C94.9044 53.7493 94.312 53.5979 93.7923 53.2978C93.361 53.0336 92.996 52.6742 92.7252 52.2473C92.4543 51.8204 92.2849 51.3373 92.2298 50.8348V50.7221H92.1603C91.786 50.872 91.3907 50.9627 90.9884 50.9909C90.6361 51.0211 90.2818 51.0211 89.9294 50.9909C89.3679 50.9541 88.8192 50.8067 88.3148 50.5573C87.9973 50.4067 87.7402 50.1529 87.5857 49.8375C87.5293 49.749 87.4799 49.6562 87.4381 49.56Z" fill="#5F646F"/>
<path d="M113.523 44.2525C113.634 44.1374 113.73 44.0093 113.81 43.8709C114.041 43.4698 114.195 43.0283 114.261 42.57C114.37 41.8287 114.23 41.0722 113.862 40.4193C113.618 39.9847 113.286 39.6059 112.887 39.3072C112.487 39.0085 112.03 38.7965 111.544 38.6848L111.596 38.7628C111.907 37.6414 111.777 36.4436 111.232 35.4153C110.942 34.8371 110.53 34.3283 110.025 33.9236C109.479 33.5377 108.898 33.2038 108.289 32.9263C107.972 32.7733 107.68 32.5746 107.421 32.3366C107.169 32.0963 106.978 31.7988 106.865 31.4693C106.614 30.8102 106.579 30.0384 106.249 29.3186C105.899 28.5827 105.337 27.9682 104.634 27.554C103.932 27.1398 103.122 26.9449 102.308 26.9944L102.421 27.1158C102.596 26.3098 102.583 25.4744 102.384 24.674C102.185 23.8737 101.804 23.1297 101.271 22.4996C100.739 21.8694 100.068 21.3699 99.312 21.0396C98.5556 20.7092 97.7334 20.5568 96.9087 20.5941L97.0128 20.7156C97.1744 19.8288 97.0789 18.9143 96.7374 18.08C96.3959 17.2457 95.8228 16.5264 95.0856 16.0068C94.3483 15.4872 93.4778 15.1891 92.5765 15.1475C91.6753 15.106 90.7809 15.3227 89.999 15.7723H90.1031C89.4801 15.0835 88.7164 14.5364 87.8635 14.1679C87.1074 13.8266 86.3112 13.5818 85.4937 13.4394C84.1735 13.2002 82.8209 13.2002 81.5007 13.4394C80.6494 13.5753 79.8257 13.8476 79.0614 14.2459C78.861 14.3484 78.6693 14.4674 78.4885 14.6015L78.2975 14.7316C78.2975 14.7316 78.5666 14.5581 79.0875 14.2893C79.8551 13.9171 80.6745 13.6627 81.5181 13.5348C82.8279 13.3229 84.165 13.3434 85.4677 13.5955C86.2717 13.7402 87.0536 13.988 87.7941 14.3327C88.6263 14.6907 89.37 15.2265 89.9729 15.9024L90.0163 15.9544H90.0771C90.7957 15.5614 91.6046 15.3627 92.4237 15.3779C93.2428 15.3931 94.0437 15.6217 94.7472 16.0411C95.511 16.5335 96.1136 17.2386 96.4808 18.0693C96.8479 18.9 96.9635 19.82 96.8132 20.7156V20.837H96.9347C97.7274 20.8052 98.5168 20.9547 99.2429 21.2742C99.9689 21.5936 100.612 22.0746 101.124 22.6803C101.636 23.286 102.002 24.0004 102.195 24.7691C102.388 25.5378 102.403 26.3405 102.239 27.1158V27.2545H102.369C103.142 27.2089 103.911 27.3939 104.579 27.7862C105.247 28.1784 105.783 28.7601 106.119 29.4573C106.431 30.1338 106.475 30.897 106.735 31.5994C106.861 31.9503 107.066 32.2677 107.334 32.5274C107.593 32.7725 107.885 32.9798 108.202 33.1431C108.808 33.4167 109.388 33.7417 109.938 34.1144C110.426 34.5028 110.826 34.9906 111.11 35.5454C111.641 36.5402 111.775 37.6995 111.483 38.7888V38.8582H111.553C112.022 38.9606 112.465 39.1592 112.853 39.4413C113.242 39.7234 113.567 40.083 113.81 40.4973C114.17 41.128 114.316 41.8581 114.226 42.5787C114.17 43.0318 114.029 43.4703 113.81 43.8709C113.619 44.1224 113.515 44.2438 113.523 44.2525Z" fill="#5F646F"/>
<path d="M49.2175 41.3992C49.2689 41.3189 49.3018 41.2283 49.3138 41.1338C49.3259 41.0393 49.3167 40.9433 49.2869 40.8528C49.2175 40.6305 49.0954 40.4282 48.931 40.2631C48.7001 40.0514 48.4283 39.8891 48.1324 39.7861C47.7696 39.6685 47.4271 39.4959 47.1168 39.2744C46.7741 38.9824 46.5364 38.5865 46.4397 38.147C46.3214 37.6379 46.3037 37.1105 46.3876 36.5946C46.4484 36.0483 46.5786 35.4672 46.622 34.8602C46.5854 33.4991 46.3961 32.1464 46.0578 30.8275C45.9335 30.0959 45.9571 29.347 46.1272 28.6247C46.2109 28.2448 46.375 27.8873 46.6086 27.5762C46.8422 27.265 47.1398 27.0075 47.4814 26.8208C48.2576 26.5163 49.0679 26.3066 49.8946 26.1964C50.3319 26.1117 50.7517 25.9533 51.1359 25.7281C51.5258 25.4805 51.8456 25.1371 52.0647 24.7308C52.4457 23.8968 52.7367 23.0246 52.9328 22.1291C53.0581 21.6927 53.2483 21.2775 53.497 20.8976C53.7494 20.5232 54.1187 20.2427 54.5474 20.0997C55.1651 19.983 55.7951 19.9451 56.4224 19.987C56.748 19.9814 57.0705 19.9228 57.3772 19.8135C57.6899 19.7021 57.964 19.5035 58.1671 19.2411C58.5341 18.7332 58.8264 18.1754 59.0352 17.5847C59.2462 17.0368 59.5717 16.54 59.9901 16.1278C60.3852 15.734 60.8574 15.426 61.3773 15.2231C61.8971 15.0201 62.4532 14.9266 63.0109 14.9483C64.0606 14.9954 65.0533 15.4386 65.7887 16.1885L65.8668 16.2752L65.9276 16.1711C66.3683 15.3751 66.9743 14.6824 67.7049 14.1395C68.4355 13.5965 69.2738 13.2159 70.1637 13.023C70.9088 12.8762 71.6755 12.8762 72.4206 13.023C73.0564 13.1307 73.6679 13.351 74.2262 13.6735C75.0105 14.1322 75.6463 14.8065 76.0578 15.6161C76.1659 15.8271 76.2615 16.0443 76.3442 16.2665L76.405 16.44V16.5007V16.44L76.3529 16.2578C76.2824 16.028 76.1924 15.8046 76.0838 15.5901C75.6877 14.757 75.0534 14.0598 74.2609 13.5867C73.6947 13.2475 73.0709 13.0153 72.4206 12.9016C71.6608 12.7553 70.8801 12.7553 70.1203 12.9016C69.2102 13.0978 68.3524 13.4854 67.604 14.0387C66.8556 14.592 66.2338 15.2982 65.78 16.1104H65.9189C65.1554 15.3249 64.1227 14.8571 63.0283 14.8009C62.1349 14.7748 61.2553 15.0248 60.5096 15.5169C59.7638 16.0089 59.1883 16.719 58.8616 17.55C58.6678 18.1178 58.3992 18.6574 58.063 19.1544C57.8656 19.3804 57.619 19.5581 57.3421 19.6739C57.0652 19.7896 56.7654 19.8404 56.4657 19.8222C55.8205 19.7845 55.173 19.8282 54.5387 19.9523C54.0671 20.1078 53.6589 20.4122 53.3755 20.8195C53.1169 21.2182 52.9208 21.6539 52.7939 22.1117C52.5951 22.9898 52.3042 23.8444 51.9258 24.6614C51.7206 25.0421 51.4219 25.3644 51.0577 25.598C50.6898 25.8063 50.2915 25.9556 49.8772 26.0403C49.0347 26.1556 48.2096 26.3741 47.4206 26.6907C47.0468 26.8829 46.7252 27.1626 46.4831 27.506C46.251 27.8402 46.0805 28.2132 45.9796 28.6073C45.8085 29.3561 45.7878 30.1314 45.9189 30.8882C46.2585 32.1926 46.4535 33.5305 46.5005 34.8775C46.5005 35.4932 46.3442 36.0743 46.2834 36.612C46.205 37.1406 46.2286 37.6793 46.3529 38.199C46.4626 38.6603 46.7183 39.074 47.0821 39.3785C47.4054 39.5992 47.7592 39.7716 48.1324 39.8902C48.4202 39.9829 48.6861 40.1334 48.9136 40.3325C49.078 40.4839 49.2006 40.675 49.2696 40.8875C49.3044 41.0594 49.2862 41.2378 49.2175 41.3992Z" fill="#5F646F"/>
<path d="M36.9518 30.0644L37.03 29.943L37.2383 29.5874L38.0369 28.1825C38.3841 27.5754 38.7834 26.8122 39.339 25.9884C39.9172 25.0258 40.7571 24.2469 41.7608 23.7422C42.3251 23.4907 42.9675 23.3433 43.6185 23.1091C43.953 22.9884 44.2732 22.8313 44.5733 22.6408C44.8889 22.4165 45.1451 22.1189 45.3199 21.7736C45.6845 21.1058 45.7539 20.3166 46.0577 19.6141C46.2016 19.2571 46.4535 18.9539 46.7782 18.7469C47.1226 18.5468 47.4982 18.4061 47.8893 18.3306C48.3046 18.2422 48.7113 18.1175 49.1046 17.9577C49.518 17.7805 49.8644 17.4768 50.0942 17.0905C50.4659 16.277 50.723 15.416 50.8581 14.5321C50.9523 14.1002 51.1356 13.6926 51.3963 13.3353C51.5367 13.1653 51.7096 13.0249 51.9048 12.9222C52.1 12.8195 52.3137 12.7565 52.5334 12.7369C53.4015 12.6155 54.3564 12.9884 55.3546 12.9104C55.8501 12.8549 56.3166 12.6491 56.6914 12.3206C57.038 11.9918 57.3466 11.6253 57.6116 11.2279C57.8626 10.8435 58.138 10.4756 58.4362 10.1265C58.7127 9.7856 59.0711 9.52009 59.4779 9.35468C60.3215 9.13824 61.2133 9.20842 62.0126 9.55414C62.8166 9.87695 63.6826 10.0162 64.5473 9.96175C65.3566 9.81067 66.1326 9.51702 66.839 9.09451C67.4886 8.70959 68.1748 8.39004 68.8876 8.14054C70.2056 7.79923 71.5954 7.85657 72.8807 8.30531C73.947 8.65945 74.9179 9.25277 75.7192 10.0398C76.3161 10.644 76.8194 11.3338 77.2123 12.0865C77.4485 12.5672 77.6459 13.066 77.8026 13.5781C77.8546 13.7429 77.8981 13.8817 77.9241 13.9771L77.9762 14.1158C77.9762 14.1158 77.9762 14.0638 77.9762 13.9771C77.9762 13.8903 77.9154 13.7342 77.8633 13.5695C77.7268 13.0471 77.5407 12.5389 77.3078 12.0518C76.9267 11.2833 76.4289 10.5782 75.8321 9.96175C75.0008 9.17006 74.0006 8.57703 72.9067 8.22727C71.5921 7.76463 70.1703 7.69828 68.8182 8.03647C68.0916 8.28615 67.391 8.60563 66.7262 8.99044C66.0413 9.41214 65.2853 9.706 64.4953 9.85768C63.6594 9.89934 62.8244 9.76031 62.0473 9.45008C61.6261 9.30651 61.1934 9.19916 60.7539 9.1292C60.2946 9.04973 59.8226 9.08853 59.3824 9.24194C58.9396 9.43218 58.5516 9.73036 58.2539 10.1092C57.9414 10.4647 57.6897 10.855 57.3859 11.2279C57.1367 11.6117 56.8456 11.9666 56.5178 12.286C56.174 12.5906 55.7425 12.7788 55.2852 12.8236C54.365 12.9104 53.4362 12.5288 52.464 12.6502C51.9734 12.7109 51.527 12.9635 51.2227 13.3527C50.9431 13.7321 50.7478 14.1667 50.6497 14.6275C50.5127 15.4912 50.2648 16.3336 49.9119 17.1338C49.7114 17.4846 49.4086 17.766 49.0439 17.9404C48.6632 18.098 48.2677 18.2171 47.8633 18.2959C47.4502 18.3798 47.0541 18.5323 46.6914 18.7469C46.3427 18.9812 46.071 19.313 45.9102 19.7009C45.5977 20.438 45.5369 21.2185 45.1897 21.8516C44.8277 22.4522 44.2504 22.8926 43.5751 23.0831C42.9414 23.3086 42.299 23.4647 41.7175 23.7335C40.6947 24.252 39.8421 25.0526 39.2608 26.0404C38.714 26.9076 38.3233 27.6535 37.9848 28.2605C37.6462 28.8676 37.4032 29.3532 37.2209 29.6828C37.1428 29.8389 37.0734 29.9603 37.03 30.0557C36.9865 30.1511 36.9084 30.0644 36.9518 30.0644Z" fill="#5F646F"/>
<path d="M44.6079 23.5688H44.4864C44.3624 23.5512 44.2359 23.5692 44.1218 23.6208C43.9117 23.733 43.7328 23.8956 43.601 24.0938C43.4692 24.2921 43.3887 24.5199 43.3666 24.7569C43.3397 25.0967 43.3631 25.4386 43.436 25.7715C43.5229 26.1554 43.5521 26.5499 43.5228 26.9423C43.4425 27.3862 43.2481 27.8016 42.9586 28.1478C42.6722 28.538 42.3076 28.9023 42.0037 29.3706C41.8323 29.6097 41.7174 29.8846 41.6678 30.1746C41.6181 30.4645 41.6351 30.7619 41.7173 31.0444C41.8909 31.6341 42.2728 32.1371 42.4291 32.7788C42.5614 33.4063 42.4497 34.0606 42.1166 34.6087C41.8041 35.1984 41.3874 35.7708 41.0836 36.4299C40.9188 36.7668 40.8187 37.1316 40.7885 37.5053C40.7681 37.889 40.8272 38.2729 40.9621 38.6327C41.2814 39.3326 41.6619 40.003 42.0992 40.636C42.5491 41.2673 42.7472 42.0434 42.6548 42.8128C42.4123 43.5818 42.0832 44.3208 41.6739 45.0156C41.4878 45.3963 41.373 45.8078 41.3354 46.2298C41.3167 46.6492 41.3939 47.0673 41.561 47.4526C41.9194 48.1685 42.3592 48.8407 42.8718 49.4559C43.3484 50.0404 43.6999 50.7163 43.9048 51.4419C44.0379 52.1647 44.2206 52.8775 44.4517 53.5753C44.5894 53.9069 44.8 54.2033 45.068 54.4425C45.3396 54.6691 45.6479 54.848 45.9795 54.9715C46.2913 55.0855 46.5957 55.2187 46.8909 55.3705C47.164 55.527 47.4127 55.7227 47.6288 55.9515C48.023 56.4125 48.3556 56.9227 48.6183 57.4692C48.8961 57.9895 49.1392 58.5012 49.4343 58.9608C49.9458 59.8155 50.7233 60.4795 51.6479 60.8514C52.3344 61.1356 53.0759 61.263 53.818 61.2243C54.2879 61.1988 54.7507 61.0993 55.1895 60.9295C55.3392 60.8711 55.4843 60.8015 55.6236 60.7213C55.0525 60.9712 54.4407 61.1152 53.818 61.1463C53.0884 61.1711 52.3622 61.0349 51.6913 60.7474C50.7971 60.3761 50.0477 59.7248 49.5559 58.8915C49.2781 58.4318 49.035 57.9202 48.7659 57.3911C48.4966 56.8317 48.1551 56.3098 47.7503 55.8388C47.5249 55.5938 47.2646 55.3834 46.9777 55.2144C46.6763 55.058 46.3662 54.9191 46.0489 54.7981C45.7326 54.6859 45.4387 54.5185 45.1808 54.3038C44.9249 54.0648 44.7313 53.7672 44.6166 53.4365C44.3923 52.744 44.2154 52.037 44.0871 51.3205C43.876 50.5695 43.5126 49.8698 43.0194 49.2651C42.5169 48.6653 42.0884 48.0072 41.7433 47.3051C41.5838 46.9486 41.5123 46.5589 41.535 46.169C41.5652 45.7728 41.6745 45.3865 41.8562 45.033C42.2752 44.3236 42.6075 43.5666 42.8458 42.7781C42.9189 42.3673 42.8922 41.9449 42.7676 41.5466C42.6425 41.167 42.4735 40.8032 42.2642 40.4626C41.8295 39.8417 41.4518 39.1828 41.1357 38.494C41.0091 38.1592 40.9529 37.802 40.9708 37.4446C41.0027 37.0954 41.0968 36.7548 41.2485 36.4386C41.535 35.7968 41.9517 35.2331 42.2642 34.6174C42.6241 34.0346 42.7395 33.3334 42.5854 32.6661C42.4031 32.0243 42.0211 31.5213 41.8562 30.9316C41.7752 30.67 41.7574 30.393 41.8041 30.1232C41.8509 29.8533 41.961 29.5984 42.1253 29.3793C42.4117 28.9283 42.7676 28.512 43.0541 28.1565C43.3564 27.7941 43.5545 27.3564 43.627 26.8903C43.652 26.4855 43.6169 26.0793 43.5228 25.6848C43.4492 25.3607 43.42 25.0281 43.436 24.6962C43.4529 24.4687 43.525 24.2488 43.646 24.0554C43.7669 23.862 43.9333 23.7009 44.1305 23.5861C44.286 23.5425 44.4497 23.5365 44.6079 23.5688Z" fill="#5F646F"/>
<path d="M113.376 44.0182C113.552 44.0373 113.729 44.0373 113.905 44.0182C114.421 43.9556 114.919 43.7841 115.363 43.5152C116.089 43.0943 116.642 42.4308 116.926 41.6419C117.114 41.1186 117.183 40.5602 117.129 40.0069C117.075 39.4536 116.899 38.9191 116.613 38.4418C116.255 37.9041 115.838 37.4069 115.372 36.9588C114.868 36.4931 114.479 35.9173 114.235 35.2764C114.058 34.5593 114.153 33.802 114.504 33.1517C114.808 32.4492 115.259 31.7814 115.563 31.0009C115.897 30.1457 116.048 29.2303 116.007 28.3133C115.966 27.3963 115.734 26.4979 115.325 25.6758C114.917 24.8536 114.341 24.1258 113.634 23.5389C112.928 22.9521 112.106 22.5191 111.223 22.2678L111.275 22.4239C111.615 22.0108 111.853 21.5236 111.969 21.0016C112.068 20.4743 112.068 19.9332 111.969 19.4059C111.87 18.8685 111.679 18.3522 111.405 17.8796C111.116 17.4104 110.763 16.9841 110.355 16.6134C109.108 15.5884 107.64 14.867 106.067 14.506C104.602 14.1106 103.087 13.9324 101.57 13.977L101.674 14.081C101.71 13.2094 101.507 12.3445 101.086 11.5802C100.665 10.8158 100.043 10.1811 99.2871 9.74484C98.5837 9.33905 97.79 9.11546 96.978 9.09441C96.2124 9.12325 95.4549 9.26349 94.7298 9.51069C94.3872 9.60497 94.0346 9.65739 93.6794 9.66679C93.3379 9.67207 92.9987 9.61019 92.6812 9.48467C92.0637 9.22822 91.4805 8.89613 90.945 8.49601C90.4395 8.13489 89.8877 7.84321 89.3044 7.62877C88.7632 7.42952 88.196 7.30975 87.6204 7.27321C86.6419 7.20664 85.663 7.39804 84.7818 7.82824C84.1265 8.14537 83.5374 8.58385 83.0457 9.12043C82.7373 9.4531 82.472 9.82313 82.2558 10.2218C82.1779 10.3579 82.1112 10.5 82.0562 10.6468C82.0562 10.6468 82.1256 10.4993 82.2818 10.2392C82.511 9.85247 82.7817 9.49188 83.0891 9.16379C83.585 8.64324 84.1738 8.21971 84.8253 7.91496C85.5143 7.59142 86.2619 7.41078 87.0228 7.38395C87.7837 7.35712 88.5421 7.48466 89.2523 7.75886C89.8238 7.97534 90.3639 8.26699 90.8582 8.6261C91.3933 9.03628 91.9762 9.37992 92.5943 9.64945C92.9323 9.77851 93.2915 9.84322 93.6534 9.84024C94.0229 9.83212 94.3901 9.77971 94.7471 9.68414C95.4577 9.43954 96.2009 9.30216 96.952 9.27653C97.7353 9.29335 98.502 9.50498 99.1829 9.89227C99.9065 10.3108 100.502 10.9191 100.904 11.6513C101.307 12.3835 101.501 13.2118 101.466 14.0464V14.1504H101.57C103.066 14.1146 104.56 14.2927 106.006 14.6794C107.548 15.0358 108.986 15.7454 110.207 16.7521C110.603 17.1052 110.945 17.5143 111.223 17.9663C111.487 18.4163 111.669 18.9096 111.761 19.4232C111.857 19.9246 111.857 20.4395 111.761 20.9409C111.655 21.4322 111.432 21.8905 111.11 22.2765L111.015 22.3979L111.162 22.4412C112.021 22.685 112.819 23.1052 113.506 23.6748C114.193 24.2444 114.753 24.951 115.151 25.7493C115.549 26.5476 115.775 27.42 115.817 28.3109C115.858 29.2018 115.712 30.0914 115.39 30.9229C115.094 31.6774 114.652 32.3538 114.339 33.0649C113.977 33.7524 113.884 34.5502 114.079 35.3024C114.336 35.962 114.74 36.555 115.259 37.0369C115.718 37.4765 116.131 37.9618 116.492 38.4852C116.772 38.9451 116.947 39.4611 117.004 39.9963C117.061 40.5316 116.999 41.0728 116.822 41.5812C116.55 42.3517 116.019 43.0044 115.32 43.4285C114.888 43.7018 114.403 43.8819 113.896 43.9575C113.558 44.0182 113.376 44.0095 113.376 44.0182Z" fill="#2D2F34"/>
<path d="M42.5768 18.7902C42.5768 18.7902 42.5768 18.7468 42.5768 18.6601L42.6376 18.2872C42.6983 17.949 42.7764 17.4633 42.8806 16.8476C42.9848 16.2318 43.141 15.4687 43.3754 14.6014C43.6266 13.6191 43.9938 12.67 44.4691 11.7742C45.0485 10.6911 45.8536 9.74476 46.8303 8.99906C47.3759 8.59394 47.9824 8.27781 48.6271 8.06243C49.3297 7.87112 50.0426 7.72055 50.7626 7.61147C51.5322 7.49318 52.2719 7.2282 52.9414 6.83095C53.6207 6.39013 54.2394 5.86242 54.7817 5.26125C55.3459 4.67153 55.8928 4.04711 56.5178 3.52677C57.1385 2.93348 57.87 2.4679 58.6706 2.15653C60.2493 1.59168 61.9284 1.36131 63.6011 1.48008C65.1633 1.54313 66.7186 1.72286 68.2539 2.01776C70.8591 2.49043 73.3674 3.39314 75.6758 4.68887C77.2306 5.57043 78.6343 6.69469 79.8338 8.01907C80.0421 8.25323 80.2331 8.46136 80.3893 8.65216L80.7626 9.13782L80.997 9.44135L81.0751 9.53675C81.0751 9.53675 81.0751 9.53674 81.0143 9.43268L80.7973 9.12047L80.4414 8.6088L79.8945 7.96704C78.7116 6.61327 77.3125 5.46454 75.7539 4.56745C73.4351 3.24614 70.9121 2.31998 68.2886 1.82698C66.7419 1.52863 65.1751 1.346 63.6011 1.28061C61.902 1.15853 60.1962 1.39187 58.5924 1.96573C57.787 2.28281 57.048 2.74754 56.4136 3.33597C55.7799 3.90835 55.2331 4.53276 54.6775 5.12249C54.1494 5.71075 53.5485 6.22948 52.8893 6.66617C52.2372 7.05724 51.5146 7.31654 50.7626 7.42935C50.0395 7.54068 49.3236 7.69415 48.6185 7.88899C47.9528 8.10878 47.328 8.43697 46.7695 8.8603C45.7799 9.62412 44.9658 10.5912 44.3823 11.6962C43.9064 12.6059 43.542 13.5698 43.2973 14.5667C43.1049 15.3128 42.9513 16.0683 42.8372 16.8302C42.733 17.4547 42.6723 17.9403 42.6289 18.2699C42.6289 18.426 42.6289 18.556 42.6289 18.6514C42.6289 18.7468 42.5768 18.7902 42.5768 18.7902Z" fill="#2D2F34"/>
</g>
</svg>
