<svg width="122" height="140" viewBox="0 0 122 140" fill="none" xmlns="http://www.w3.org/2000/svg">
<ellipse cx="61" cy="79.3675" rx="60.6897" ry="60.6326" fill="#E6EAF7"/>
<mask id="mask0" style="mask-type:alpha" maskUnits="userSpaceOnUse" x="0" y="18" width="122" height="122">
<ellipse cx="61" cy="79.3675" rx="60.6897" ry="60.6326" fill="white"/>
</mask>
<g mask="url(#mask0)">
<path d="M93.7489 121.466C92.484 114.426 86.9522 59.1313 86.9522 59.1313L73.3588 54.2711L67.5142 47.4878L50.599 49.8554L45.0393 55.4098C45.0393 55.4098 34.3717 58.7494 31.6822 60.6449C31.6822 60.6449 25.8654 64.5816 23.9612 70.7886C22.5018 75.5446 15.5175 99.026 15.5175 99.026C15.5175 99.026 13.6133 104.754 14.2388 108.628C14.6002 110.836 16.1152 115.224 19.7568 117.154C22.7887 118.7 26.2916 119.049 29.5696 118.133L25.9141 180.773C25.9141 180.773 26.2268 187.085 42.9822 189.799C59.7376 192.514 99.4961 184.418 99.4961 184.418C99.4961 184.418 95.0137 128.478 93.7489 121.466Z" fill="white"/>
<path d="M93.7487 121.466C93.7487 121.466 94.0197 122.952 94.3533 125.805C94.6869 128.659 95.1247 132.88 95.639 138.303C96.6745 149.176 98.0574 164.909 99.6628 184.349V184.467H99.5516C94.256 185.522 88.657 186.506 82.7545 187.418C76.8612 188.32 70.6831 189.154 64.2338 189.751C57.7846 190.348 51.0297 190.799 44.1287 190.015C40.624 189.591 37.1783 188.774 33.8573 187.578C32.1525 186.968 30.5355 186.137 29.0482 185.106C28.2961 184.573 27.6142 183.948 27.0189 183.245C26.3827 182.535 25.9505 181.667 25.768 180.732C26.859 162.034 28.0405 141.691 29.2427 120.591C29.2914 119.751 29.34 118.918 29.3887 118.099L29.625 118.279C27.7043 118.807 25.6935 118.923 23.7248 118.619C22.7494 118.476 21.795 118.214 20.8824 117.842C19.9596 117.489 19.0951 117 18.318 116.391C16.8246 115.121 15.6691 113.501 14.9544 111.676C14.5844 110.781 14.305 109.85 14.1205 108.899C13.9588 107.945 13.9075 106.976 13.9676 106.011C14.1023 104.111 14.4259 102.229 14.9336 100.394C15.4756 98.5886 16.0108 96.7904 16.5389 94.9991C17.6092 91.4304 18.6655 87.8987 19.7079 84.404C20.7504 80.9093 21.7859 77.454 22.8144 74.038C23.2747 72.3217 23.8292 70.632 24.4753 68.9766C25.2004 67.3672 26.1504 65.8688 27.2969 64.5261C28.4071 63.1898 29.6583 61.977 31.0288 60.9088C31.7181 60.3831 32.464 59.936 33.2526 59.5757C34.0171 59.2077 34.8024 58.8814 35.5877 58.562C38.7289 57.2984 41.8423 56.2361 44.9974 55.2363L44.9279 55.278L50.4876 49.7582L50.5293 49.7166H50.5779L67.4932 47.356H67.5696L67.6252 47.4184L73.4698 54.1879L73.4073 54.1462L86.9937 59.0064H87.0701V59.0897C88.9882 78.3636 90.6005 93.9576 91.7681 104.726C92.3449 110.114 92.8244 114.294 93.158 117.12C93.3387 118.508 93.4638 119.619 93.5749 120.341C93.6861 121.063 93.7278 121.438 93.7278 121.438C93.7278 121.438 93.4499 119.959 93.0815 117.133C92.7132 114.308 92.2128 110.128 91.6152 104.74C90.4059 93.9715 88.7519 78.3566 86.7991 59.1175L86.8825 59.2285L73.2891 54.3684H73.2544L67.4029 47.5851L67.5349 47.6337L50.6266 50.0221L50.7169 49.9804L45.1573 55.5349C42.0508 56.5347 38.9026 57.6178 35.7753 58.8536C34.997 59.173 34.2186 59.4993 33.4611 59.8673C32.6911 60.2118 31.9654 60.6477 31.2998 61.1657C29.9473 62.217 28.7124 63.4112 27.6165 64.7274C26.489 66.0479 25.5532 67.5204 24.8367 69.1015C24.1953 70.7455 23.6455 72.4237 23.1897 74.1283C22.175 77.5397 21.1442 80.995 20.0971 84.4943C19.05 87.9936 17.9937 91.5276 16.9281 95.0963C16.3999 96.8783 15.8671 98.6696 15.3297 100.47C14.828 102.285 14.509 104.146 14.3776 106.025C14.3197 106.953 14.3687 107.885 14.5236 108.802C14.7011 109.73 14.9736 110.637 15.3366 111.51C16.0275 113.284 17.1501 114.859 18.603 116.092C21.633 118.39 25.8722 118.939 29.5694 117.918L29.8196 117.849V118.106C29.7709 118.925 29.7223 119.758 29.6736 120.598C28.4366 141.698 27.2482 162.034 26.1571 180.739C26.3371 181.596 26.7398 182.391 27.3247 183.044C27.902 183.725 28.5601 184.333 29.2844 184.856C30.7535 185.866 32.3464 186.682 34.0241 187.286C37.3185 188.473 40.736 189.285 44.2121 189.709C51.0783 190.494 57.8194 190.008 64.2477 189.466C70.6761 188.924 76.8612 188.077 82.7545 187.154C88.6477 186.231 94.249 185.272 99.5377 184.231L99.4334 184.37C97.8628 164.929 96.5216 149.19 95.5278 138.317C95.0413 132.88 94.6174 128.659 94.3116 125.819C94.1448 124.389 94.0406 123.299 93.9224 122.57C93.8043 121.841 93.7487 121.466 93.7487 121.466Z" fill="#2D2F34"/>
<path d="M84.5822 69.6016L84.4501 85.3901L86.2292 101.81L72.1216 103.393L73.1015 122.084C73.1015 122.084 91.2537 121.89 99.9477 118.411C108.642 114.933 106.557 106.296 105.945 102.442C104.917 96.0338 94.9996 64.8665 92.9842 62.6586C90.5588 59.9925 86.4029 58.9302 86.4029 58.9302L84.5822 69.6016Z" fill="white"/>
<path d="M66.2491 47.5015C66.8601 48.2121 67.316 49.0422 67.5876 49.9389C67.8592 50.8355 67.9406 51.7789 67.8266 52.7087C67.5139 56.0275 65.1441 62.304 63.7194 64.1995C62.2948 66.0949 53.6078 82.2514 53.6078 82.2514L49.1809 59.1449L48.903 51.584L50.5987 49.8829L66.2491 47.5015Z" fill="#F28080"/>
<path d="M55.6929 81.8003C55.8296 81.7284 55.9598 81.6448 56.082 81.5503L57.1384 80.7797C58.0905 80.0854 59.4039 79.0994 61.0093 77.8983L66.7149 73.5936L70.0785 71.0316C70.4113 70.8189 70.6986 70.5426 70.9241 70.2185C71.1495 69.8944 71.3085 69.5289 71.392 69.1431C71.4269 68.3453 71.2721 67.5506 70.9402 66.8242C70.2892 65.3097 69.5103 63.8534 68.6121 62.4709L68.4036 62.7208L74.4359 65.3939L74.6791 65.505V65.2411C74.3038 61.9918 73.9841 59.2771 73.7618 57.3261C73.6436 56.4096 73.5533 55.6667 73.4838 55.1182C73.4609 54.8558 73.4168 54.5958 73.3517 54.3406C73.3463 54.6026 73.3579 54.8647 73.3865 55.1251C73.4351 55.6806 73.5046 56.4235 73.588 57.3469C73.7826 59.2979 74.0536 62.0196 74.3733 65.2759L74.5888 65.1231L68.5565 62.4014L68.0562 62.1723L68.348 62.6514C69.2279 64.0183 69.9927 65.4558 70.6345 66.9491C70.944 67.621 71.0938 68.3552 71.0723 69.0945C70.9119 69.783 70.4878 70.3813 69.8908 70.7609L66.5481 73.3298L60.8842 77.7039L57.0828 80.6755L56.0612 81.4948C55.926 81.5806 55.8022 81.6833 55.6929 81.8003Z" fill="#2D2F34"/>
<path d="M53.6081 82.2378C53.5449 82.111 53.4705 81.9902 53.3857 81.8768L52.6907 80.8908L50.168 77.2735C49.1047 75.746 47.8399 73.9339 46.4639 71.8927C45.7689 70.872 45.074 69.8097 44.3443 68.6711C43.9829 68.1087 43.6493 67.5324 43.2949 66.9353C42.9062 66.3881 42.6667 65.7492 42.5999 65.0815C42.6548 64.6416 42.7982 64.2174 43.0215 63.8344C43.2449 63.4513 43.5435 63.1174 43.8995 62.8528C44.5656 62.2819 45.3039 61.801 46.0956 61.4226L46.9295 61.0129L46.0052 61.1032L39.4726 61.7142L39.5908 61.9502L43.5937 57.2081L44.6848 55.882C44.8149 55.7274 44.9356 55.5651 45.0462 55.396C44.8872 55.5233 44.7427 55.6676 44.6153 55.8265L43.4686 57.097L39.3753 61.7628L39.139 62.0266H39.4935L46.04 61.4642L45.9566 61.1448C45.1305 61.5285 44.3612 62.0237 43.6702 62.6168C43.3049 62.9276 42.9845 63.2874 42.7181 63.686C42.436 64.0968 42.2725 64.5772 42.2455 65.0746C42.2384 65.2641 42.2595 65.4536 42.308 65.637L42.3775 65.9147L42.4887 66.1646C42.6365 66.4878 42.8012 66.803 42.9822 67.1089C43.3227 67.7129 43.6771 68.2962 44.0454 68.8586C44.7404 69.9903 45.491 71.0595 46.1859 72.0732C47.5758 74.1075 48.8684 75.9127 49.9595 77.4193C51.0506 78.926 51.9471 80.1341 52.5726 80.9672L53.3023 81.9184C53.3908 82.0369 53.4935 82.1441 53.6081 82.2378Z" fill="#2D2F34"/>
<path d="M52.8576 190.341C52.9549 190.341 53.3163 166.04 53.6637 136.095C54.0112 106.15 54.2128 81.8423 54.1155 81.8423C54.0182 81.8423 53.6568 106.143 53.3093 136.088C52.9618 166.034 52.7603 190.334 52.8576 190.341Z" fill="#2D2F34"/>
<path d="M101.657 103.56C101.513 103.399 101.349 103.257 101.171 103.136C100.706 102.779 100.213 102.458 99.6972 102.178C98.9341 101.756 98.1339 101.405 97.3066 101.13C95.2762 100.443 93.1235 100.192 90.9894 100.394C90.1193 100.477 89.2586 100.64 88.4181 100.88C87.8536 101.03 87.3027 101.228 86.771 101.47C86.5676 101.544 86.3757 101.647 86.2012 101.775C86.2012 101.838 87.0629 101.463 88.4806 101.116C89.3149 100.92 90.1629 100.788 91.0172 100.72C92.0593 100.65 93.1056 100.668 94.1445 100.776C95.1843 100.918 96.2097 101.15 97.2093 101.47C98.0235 101.729 98.8159 102.051 99.5791 102.435C100.886 103.06 101.615 103.615 101.657 103.56Z" fill="#2D2F34"/>
<path d="M96.6188 96.2555C96.6188 96.2555 96.452 96.193 96.1393 96.1582C95.693 96.1201 95.2443 96.1201 94.798 96.1582C93.3189 96.2561 91.8761 96.6588 90.5604 97.3411C89.2447 98.0234 88.0848 98.9705 87.1535 100.123C86.8723 100.467 86.6234 100.837 86.4099 101.227C86.257 101.504 86.1875 101.664 86.2083 101.678C86.2292 101.692 86.6114 101.109 87.3481 100.289C88.304 99.214 89.4487 98.3222 90.7256 97.6579C92.0092 97.0015 93.4003 96.5806 94.8328 96.4151C95.9238 96.2555 96.6188 96.3179 96.6188 96.2555Z" fill="#2D2F34"/>
<path d="M74.0255 103.247C74.3344 103.256 74.6435 103.24 74.9498 103.199L77.5003 102.949L86.222 101.977H86.3819V101.81C86.2707 100.56 86.1456 99.2272 85.9857 97.8595C85.4784 93.409 84.8877 89.3959 84.436 86.5006C84.2066 85.0496 84.0121 83.8762 83.8661 83.0708C83.7966 82.6959 83.741 82.3765 83.6924 82.1404C83.6779 82.0309 83.6499 81.9236 83.609 81.821C83.5922 81.9315 83.5922 82.0439 83.609 82.1543C83.609 82.4043 83.6715 82.7167 83.7202 83.0916C83.8314 83.9595 83.9843 85.119 84.1719 86.5631C84.5611 89.4723 85.1101 93.5062 85.6243 97.9289C85.7772 99.3175 85.9093 100.623 86.0274 101.873L86.1803 101.685L77.5003 102.727L74.9637 103.081C74.6469 103.11 74.3331 103.166 74.0255 103.247Z" fill="#2D2F34"/>
<path d="M87.7442 59.9226C87.8337 59.9633 87.9267 59.9959 88.0222 60.0198L88.8422 60.2628C89.8945 60.5541 90.8888 61.0238 91.7819 61.6514C92.9285 62.4915 93.8667 64.0121 94.6729 65.8589C95.479 67.7058 96.1462 69.9275 96.9385 72.3506C98.4882 77.2108 100.267 83.0151 102.171 89.486C103.888 95.9778 106.8 103.018 106.258 110.871V111.565C105.901 113.283 105.078 114.87 103.881 116.154C102.604 117.29 101.11 118.154 99.489 118.695C97.916 119.241 96.3036 119.666 94.666 119.966C93.0629 120.295 91.4807 120.565 89.9194 120.778C88.3627 121 86.8407 121.125 85.3466 121.209L80.9892 121.493L73.0875 122.007L73.2265 122.125C72.7956 116.446 72.4482 111.843 72.2049 108.635C72.0798 107.052 71.9825 105.858 71.913 104.962C71.8713 104.559 71.8435 104.268 71.8227 104.011C71.8018 103.754 71.781 103.685 71.781 103.685C71.7748 103.793 71.7748 103.902 71.781 104.011C71.781 104.247 71.781 104.559 71.8296 104.969C71.8783 105.83 71.9548 107.052 72.059 108.642C72.2675 111.85 72.5802 116.46 72.9624 122.146V122.229H73.0875L80.9753 121.743L85.3327 121.473C86.8268 121.396 88.3766 121.271 89.9333 121.056C91.49 120.841 93.0884 120.57 94.7076 120.251C96.3593 119.948 97.9855 119.521 99.5723 118.973C101.245 118.419 102.786 117.526 104.097 116.349C105.343 115.018 106.199 113.37 106.571 111.586C106.571 111.37 106.571 111.141 106.571 110.891C106.626 107.01 106.459 103.129 105.347 99.5951C104.395 96.0472 103.395 92.6521 102.443 89.4097C100.517 82.9388 98.7175 77.1344 97.133 72.2812C96.3269 69.865 95.618 67.6641 94.8119 65.7895C94.0057 63.9149 93.0119 62.4013 91.8166 61.5542C90.9081 60.9261 89.8933 60.4675 88.8214 60.2003C88.46 60.0962 88.182 60.0337 87.9944 59.992C87.9123 59.9644 87.8288 59.9412 87.7442 59.9226Z" fill="#2D2F34"/>
<path d="M76.3191 104.768C76.1107 104.56 72.0938 101.782 72.0938 101.782C72.0938 101.782 71.8645 99.8523 70.829 99.5121C70.5131 98.945 70.0403 98.4809 69.4671 98.1755C68.8939 97.8701 68.2448 97.7364 67.5974 97.7902H61.6139L56.4573 103.567C56.4994 103.948 56.6885 104.297 56.9844 104.541C57.2802 104.784 57.6596 104.903 58.0418 104.872L56.6519 107.531C56.6519 107.531 58.2781 108.719 59.6541 107.76C61.0301 106.802 62.9065 105.15 62.9065 105.15L60.1266 109.475C60.1266 109.475 60.3629 110.44 61.8988 109.753C63.073 109.088 64.1068 108.201 64.9427 107.142L69.5503 106.656L65.6863 107.962L62.6563 110.739C62.6563 110.739 62.9343 111.704 64.3103 111.357C65.363 111.027 66.3608 110.543 67.2708 109.92L69.3557 110.052C69.4425 110.538 69.6433 110.998 69.9416 111.392C70.2399 111.787 70.6273 112.105 71.0722 112.322C72.1706 112.827 73.3734 113.065 74.5817 113.016L79.1129 114.592C79.1337 111.912 77.7091 107.885 76.3191 104.768Z" fill="#936760"/>
<path d="M58.0417 104.872C58.4305 104.487 58.7884 104.071 59.112 103.629C59.4854 103.179 59.887 102.752 60.3142 102.352C60.8093 101.85 61.4203 101.478 62.0933 101.269C63.334 100.868 64.6163 100.609 65.9156 100.498C66.4614 100.474 67.0048 100.411 67.5418 100.311C67.0013 100.208 66.4485 100.187 65.9017 100.248C64.5664 100.291 63.2441 100.525 61.9752 100.942C61.6017 101.057 61.2461 101.222 60.9189 101.435C60.6224 101.641 60.3456 101.873 60.0919 102.13C59.6631 102.56 59.2703 103.024 58.9174 103.518C58.5653 103.928 58.2707 104.383 58.0417 104.872Z" fill="#6F4C47"/>
<path d="M62.9065 105.15C62.9551 105.15 63.1775 104.935 63.6015 104.615C64.1407 104.212 64.7624 103.932 65.4222 103.796C66.0933 103.665 66.7747 103.593 67.4585 103.581C67.7521 103.603 68.0472 103.568 68.3272 103.477C68.3272 103.428 68.0005 103.373 67.4654 103.331C66.7569 103.266 66.0427 103.306 65.3458 103.449C64.6331 103.594 63.9743 103.933 63.4416 104.428C63.0455 104.817 62.9065 105.122 62.9065 105.15Z" fill="#6F4C47"/>
<path d="M73.0875 106.261C73.1223 106.261 73.303 106.157 73.4628 105.844C73.6696 105.421 73.7131 104.936 73.5849 104.483C73.4567 104.029 73.1658 103.639 72.7678 103.386C72.469 103.199 72.2466 103.178 72.2327 103.22C72.2188 103.261 72.9833 103.657 73.2404 104.608C73.3297 105.163 73.2771 105.732 73.0875 106.261Z" fill="#6F4C47"/>
<path d="M76.7363 111.982C76.6737 111.906 76.2012 112.19 75.5757 112.426C74.9502 112.662 74.4012 112.753 74.4081 112.857C74.4151 112.961 75.0128 113.016 75.7008 112.753C76.3888 112.489 76.8058 112.051 76.7363 111.982Z" fill="#6F4C47"/>
<path d="M74.1021 103.282C74.1021 103.282 74.4148 103.386 74.9083 103.706C75.5888 104.174 76.1389 104.807 76.5067 105.546C77.0501 106.655 77.5146 107.801 77.8966 108.976C78.408 110.394 78.7418 111.87 78.8904 113.37C79.0033 114.617 78.8759 115.873 78.5151 117.071C78.2154 118.113 77.6669 119.066 76.9167 119.848C76.34 120.448 75.6441 120.921 74.8735 121.237C74.3935 121.431 73.8879 121.555 73.3724 121.605H73.157L73.3516 121.674C73.5093 121.75 73.6783 121.799 73.8519 121.82C73.7094 121.723 73.5553 121.643 73.3933 121.584V121.674C73.9291 121.676 74.461 121.582 74.9639 121.397C75.782 121.099 76.5246 120.625 77.1391 120.008C77.9325 119.214 78.5215 118.24 78.8556 117.168C79.2393 115.929 79.3762 114.627 79.2587 113.336C79.1112 111.806 78.7631 110.303 78.2232 108.864C77.8311 107.67 77.343 106.509 76.7638 105.393C76.3615 104.634 75.7581 104 75.0195 103.56C74.8191 103.442 74.6041 103.351 74.3801 103.289C74.1855 103.275 74.1021 103.268 74.1021 103.282Z" fill="#2D2F34"/>
<path d="M85.305 73.0171C84.8273 73.8157 84.4537 74.672 84.193 75.5652C83.823 76.4179 83.5615 77.3136 83.4147 78.2313C84.264 76.5806 84.8992 74.8284 85.305 73.0171Z" fill="#2D2F34"/>
<path d="M29.3819 118.904C29.367 118.747 29.367 118.589 29.3819 118.432C29.3819 118.084 29.3958 117.633 29.4236 117.078C29.4653 115.863 29.5209 114.175 29.5834 112.113C29.7016 107.948 29.785 102.122 29.7641 95.7209C29.7433 89.3194 29.6738 83.5497 29.639 79.3145C29.639 77.2315 29.639 75.5652 29.639 74.3432C29.639 73.7878 29.639 73.3434 29.639 72.9963C29.6224 72.8394 29.6224 72.6811 29.639 72.5242C29.6709 72.6794 29.6849 72.8378 29.6807 72.9963C29.6807 73.3365 29.7155 73.7878 29.7363 74.3432C29.7363 75.5583 29.8128 77.2454 29.8684 79.3145C29.9657 83.4803 30.0838 89.3055 30.0977 95.7139C30.1116 102.122 29.9935 107.927 29.8128 112.12C29.7224 114.203 29.6251 115.911 29.5348 117.085C29.4931 117.64 29.4583 118.091 29.4305 118.432C29.4324 118.59 29.4161 118.749 29.3819 118.904Z" fill="#2D2F34"/>
<path d="M28.5962 98.0679C28.1018 98.1145 27.6034 98.0406 27.1438 97.8526C26.3724 97.6443 25.7539 97.3944 25.7956 97.2972C26.2871 97.2503 26.7828 97.3217 27.2411 97.5055C28.0125 97.7207 28.624 97.9707 28.5962 98.0679Z" fill="#2D2F34"/>
<path d="M18.8114 80.7589C18.8114 80.7589 17.359 77.8706 15.8231 77.9053C14.7946 77.9053 14.0996 80.3007 14.0996 80.3007C14.0996 80.3007 12.0842 78.8635 11.3198 80.3007C10.5553 81.7379 12.0147 83.9388 12.0147 83.9388C12.0147 83.9388 10.4789 84.7998 10.2843 86.0218C10.1736 86.8164 10.1736 87.6225 10.2843 88.4171C9.7894 89.2171 9.61795 90.1753 9.80478 91.0971C10.194 92.4371 13.7382 97.8943 13.7382 97.8943L17.6647 100.102L18.5265 103.046C22.2793 102.31 24.1695 100.72 24.5865 96.228C24.5865 96.228 27.1578 88.5907 26.6714 87.2021C26.1849 85.8135 23.7943 83.8486 23.7943 83.8486L21.897 82.46C21.428 83.0097 21.1608 83.7028 21.1395 84.4248C21.1395 85.5774 20.9171 85.4941 20.9171 85.4941L18.8114 80.7589Z" fill="#936760"/>
<path d="M21.2856 83.4944C21.2842 84.1945 21.0752 84.8784 20.6849 85.4598C20.2946 86.0411 19.7406 86.4939 19.0928 86.7609C18.4451 87.0278 17.7327 87.0969 17.0456 86.9595C16.3585 86.8221 15.7277 86.4843 15.2327 85.9888C14.7377 85.4933 14.4008 84.8624 14.2646 84.1757C14.1284 83.489 14.199 82.7774 14.4675 82.1308C14.7359 81.4842 15.1902 80.9316 15.7729 80.5428C16.3556 80.154 17.0406 79.9465 17.7413 79.9465C18.2073 79.9465 18.6688 80.0383 19.0992 80.2167C19.5297 80.3951 19.9207 80.6566 20.2499 80.9861C20.5792 81.3156 20.8401 81.7068 21.0178 82.1372C21.1955 82.5676 21.2865 83.0288 21.2856 83.4944Z" fill="#FAFAFC"/>
<path d="M21.2855 83.4945C21.2508 83.4945 21.2855 83.1751 21.1118 82.6474C20.8959 81.9009 20.4421 81.2451 19.8191 80.7798C19.315 80.4036 18.716 80.175 18.0893 80.1195C17.4625 80.064 16.8326 80.1838 16.2701 80.4655C15.7076 80.7473 15.2346 81.1798 14.9041 81.7147C14.5735 82.2496 14.3985 82.8658 14.3985 83.4945C14.3985 84.1231 14.5735 84.7394 14.9041 85.2743C15.2346 85.8092 15.7076 86.2417 16.2701 86.5234C16.8326 86.8051 17.4625 86.9249 18.0893 86.8695C18.716 86.814 19.315 86.5853 19.8191 86.2092C20.4432 85.7435 20.8992 85.0881 21.1187 84.3415C21.2647 83.8069 21.2577 83.4945 21.2925 83.4945C21.3272 83.4945 21.2925 83.5708 21.2925 83.7236C21.2975 83.9432 21.2741 84.1626 21.223 84.3762C21.0498 85.1836 20.5969 85.904 19.9442 86.4106C19.4602 86.7906 18.8877 87.0422 18.2801 87.1417C17.6726 87.2413 17.0497 87.1856 16.4695 86.9799C15.775 86.7346 15.1699 86.2872 14.7321 85.6954C14.2582 85.0593 14.0023 84.2874 14.0023 83.4945C14.0023 82.7015 14.2582 81.9297 14.7321 81.2935C15.0264 80.9009 15.3962 80.571 15.8199 80.323C16.2435 80.075 16.7124 79.914 17.1991 79.8493C17.6858 79.7846 18.1805 79.8177 18.6543 79.9464C19.128 80.0752 19.5713 80.2971 19.9581 80.5992C20.61 81.1095 21.0624 81.8317 21.2369 82.6405C21.2883 82.8541 21.3117 83.0735 21.3064 83.2931C21.3064 83.4181 21.2994 83.4945 21.2855 83.4945Z" fill="#2D2F34"/>
<path d="M17.7343 86.82C17.0814 86.82 16.4432 86.6266 15.9003 86.2642C15.3575 85.9018 14.9344 85.3868 14.6845 84.7841C14.4347 84.1815 14.3693 83.5184 14.4967 82.8787C14.624 82.2389 14.9384 81.6513 15.4001 81.1901C15.8617 80.7288 16.4499 80.4147 17.0903 80.2875C17.7306 80.1602 18.3943 80.2256 18.9975 80.4752C19.6007 80.7248 20.1163 81.1475 20.479 81.6898C20.8417 82.2322 21.0353 82.8698 21.0353 83.5221C21.0353 84.3967 20.6875 85.2356 20.0685 85.8541C19.4494 86.4726 18.6098 86.82 17.7343 86.82ZM17.7343 80.9184C17.2188 80.9184 16.715 81.0711 16.2864 81.3572C15.8578 81.6433 15.5238 82.05 15.3266 82.5257C15.1293 83.0015 15.0777 83.525 15.1783 84.03C15.2788 84.5351 15.527 84.999 15.8915 85.3631C16.256 85.7273 16.7203 85.9752 17.2258 86.0757C17.7314 86.1761 18.2554 86.1246 18.7316 85.9275C19.2078 85.7305 19.6148 85.3967 19.9012 84.9686C20.1875 84.5404 20.3404 84.037 20.3404 83.5221C20.3367 82.834 20.0605 82.1753 19.5722 81.69C19.0838 81.2047 18.423 80.9323 17.7343 80.9323V80.9184Z" fill="white"/>
<path d="M35.8031 114.016C35.4524 114.022 35.1018 114.004 34.7537 113.96C28.8049 113.356 23.9958 108.6 20.8546 100.22C19.3909 96.2136 18.402 92.0495 17.908 87.813L19.2979 87.6811C19.2979 87.9171 21.7372 111.239 34.9275 112.586C35.3166 112.634 43.9619 113.676 46.3734 104.06C47.6722 98.4549 48.4952 92.7507 48.8336 87.0076C49.0142 84.2859 50.0358 75.5655 50.5223 72.3231L51.0018 69.407L52.3917 69.6292L51.9122 72.5383C51.4257 75.746 50.4111 84.404 50.2374 87.084C49.8925 92.9137 49.0556 98.7039 47.7355 104.393C45.4908 113.155 38.4648 114.016 35.8031 114.016Z" fill="#5F646F"/>
<path d="M11.8828 83.9386C11.8828 83.9386 12.1121 83.8066 12.5777 83.8552C12.8509 83.8953 13.1119 83.9948 13.3422 84.1468C13.6379 84.3375 13.9233 84.5437 14.197 84.7648C14.9232 85.3295 15.6191 85.9321 16.2819 86.57C16.6772 86.9392 17.0508 87.331 17.4007 87.7433C17.5905 87.9733 17.7558 88.2222 17.8942 88.4862C17.9869 88.6362 18.04 88.8073 18.0485 88.9833C18.057 89.1594 18.0206 89.3348 17.9428 89.493C17.8348 89.6408 17.6977 89.765 17.54 89.8581C17.3823 89.9513 17.2072 90.0113 17.0255 90.0346C16.7054 90.0989 16.3775 90.1153 16.0525 90.0831L16.2332 89.8332C16.274 90.0034 16.2772 90.1804 16.2424 90.3519C16.2076 90.5234 16.1356 90.6852 16.0317 90.8261C15.8688 91.0741 15.6697 91.2964 15.441 91.4856C15.2004 91.6637 14.9062 91.7544 14.607 91.7425C14.3517 91.7454 14.097 91.7151 13.8495 91.6523C13.0906 91.4598 12.3629 91.1606 11.6882 90.7636H11.7855C11.4631 90.9843 11.1184 91.1705 10.757 91.319C11.0427 91.0563 11.3548 90.8236 11.6882 90.6247H11.723H11.7785C12.4527 90.9686 13.167 91.2275 13.9051 91.3954C14.1248 91.4613 14.3556 91.4824 14.5836 91.4573C14.8117 91.4323 15.0323 91.3616 15.2325 91.2496C15.4317 91.0809 15.6029 90.8817 15.7398 90.6594C15.875 90.4675 15.9366 90.2334 15.9135 89.9998L15.8232 89.736H16.0942C16.6224 89.7707 17.3451 89.736 17.637 89.3125C17.6855 89.2007 17.7051 89.0787 17.6942 88.9574C17.6833 88.8361 17.6421 88.7195 17.5745 88.6182C17.4518 88.3698 17.3002 88.1367 17.1228 87.9239C16.7888 87.5126 16.429 87.1231 16.0456 86.7574C15.3506 86.0631 14.6557 85.4105 14.065 84.9106C13.6484 84.4809 13.14 84.151 12.5777 83.9455C12.3467 83.9233 12.1142 83.9209 11.8828 83.9386Z" fill="#6F4C47"/>
<path d="M23.9887 90.4377C23.9331 90.4377 23.801 89.9725 23.3354 89.3337C22.8698 88.695 22.0775 87.9451 21.3965 86.8481C21.0714 86.3345 20.8825 85.7468 20.8475 85.1402C20.8354 84.6477 20.918 84.1574 21.0907 83.696C21.2086 83.2678 21.4252 82.8731 21.7231 82.5435C21.7717 82.5435 21.5494 83.0156 21.3339 83.7724C21.2108 84.2102 21.1592 84.6651 21.181 85.1193C21.2298 85.6682 21.4111 86.1971 21.7092 86.6607C22.3416 87.6674 23.1478 88.4728 23.5508 89.1949C23.82 89.555 23.9727 89.9886 23.9887 90.4377Z" fill="#6F4C47"/>
<path d="M16.0317 89.9097C15.9969 89.9514 15.6495 89.6945 15.163 89.2154C15.0379 89.1043 14.8989 88.9794 14.746 88.8544L14.2387 88.4933L13.0851 87.6463C12.7103 87.3965 12.2708 87.2613 11.8203 87.2575C11.453 87.277 11.0999 87.4051 10.8056 87.6255C10.5252 87.8308 10.3007 88.1029 10.1524 88.417C10.1524 88.417 10.1037 88.3059 10.1524 88.1115C10.2454 87.8387 10.4141 87.5979 10.6388 87.4172C10.9602 87.1319 11.3644 86.9567 11.7925 86.9173C12.3186 86.8961 12.8376 87.0446 13.2727 87.3408C13.7105 87.6463 14.0858 87.9518 14.4403 88.2295L14.9406 88.6253C15.0866 88.7641 15.2186 88.903 15.3367 89.028C15.6047 89.2914 15.8382 89.5877 16.0317 89.9097Z" fill="#6F4C47"/>
<path d="M14.8639 81.4114C14.7666 81.4114 14.6068 81.1684 14.4261 80.8421C14.2454 80.5158 14.0995 80.238 14.1759 80.1478C14.2524 80.0575 14.5373 80.2797 14.7388 80.6477C14.9404 81.0157 14.9543 81.3837 14.8639 81.4114Z" fill="#6F4C47"/>
<path d="M29.0135 102.095C28.1521 101.088 27.3845 100.005 26.7201 98.8595C25.9501 97.7658 25.2825 96.6038 24.7256 95.3879C25.5879 96.3962 26.3556 97.4816 27.0189 98.6303C27.7897 99.721 28.4574 100.881 29.0135 102.095Z" fill="#2D2F34"/>
<path d="M52.3428 70.5597L52.1343 70.4486C51.9745 70.3723 48.1939 68.4282 46.4148 65.7829C44.6357 63.1376 48.4997 51.4317 49.2781 49.1196L50.5915 49.5709C48.7151 55.049 46.533 63.457 47.5684 65.0053C48.9584 67.0327 51.7799 68.6782 52.5652 69.1086C54.6501 68.7198 59.5148 67.6367 60.8699 66.5953C62.8019 65.1303 68.4589 55.1045 70.4742 51.3692L71.6974 52.0288C70.9398 53.4174 64.2266 65.7829 61.7108 67.6992C59.758 69.185 53.3019 70.3862 52.5721 70.5181L52.3428 70.5597Z" fill="#5F646F"/>
<path d="M66.0406 7.36394C68.3896 5.09356 73.7894 5.81564 74.9708 7.48891C75.9618 7.10607 77.0618 7.11564 78.046 7.51566C79.0301 7.91567 79.8244 8.67596 80.2664 9.64125L85.9512 11.2798C86.9454 11.478 87.8731 11.9247 88.6476 12.5782C89.3425 13.2725 89.6344 14.55 88.9534 15.2998C90.9548 15.9941 91.5525 19.0352 89.9472 20.396C90.1263 20.634 90.255 20.9058 90.3256 21.1951C90.3962 21.4843 90.4071 21.7849 90.3577 22.0785C90.3083 22.3721 90.1995 22.6525 90.0382 22.9028C89.8768 23.1531 89.6661 23.3679 89.419 23.5343C90.8872 25.5499 91.999 27.802 92.7061 30.1926C93.0957 31.1685 93.1277 32.2505 92.7965 33.2476C92.3726 34.1988 91.0452 34.7889 90.239 34.1224C90.4972 34.542 90.6292 35.0268 90.6194 35.5192C90.6095 36.0116 90.4582 36.4907 90.1834 36.8996C91.1564 36.9899 91.344 38.5104 90.6282 39.1769C89.9124 39.8435 88.8213 39.8712 87.8484 39.7602C86.8755 39.6491 85.8261 39.5519 84.9852 40.0587C84.986 40.1784 85.0112 40.2967 85.0589 40.4064C85.1067 40.5162 85.1762 40.6152 85.2632 40.6975C86.0447 41.3729 86.5362 42.3228 86.6359 43.3504C86.7355 44.378 86.4356 45.4045 85.7983 46.2172L85.4508 46.6407C84.8323 47.4044 83.3659 48.0293 82.4833 48.4459C80.2039 49.4457 78.9043 49.1402 76.4163 49.3415C76.9862 50.9732 72.7539 54.2017 68.4035 50.4663C60.0659 52.2739 51.5102 52.8655 43.0028 52.2229C41.6546 52.1396 40.0423 51.848 39.528 50.6052C38.9635 50.6739 38.3907 50.5985 37.8632 50.386C37.3358 50.1735 36.8708 49.8309 36.5119 49.3901C35.8053 48.5025 35.2575 47.4995 34.8927 46.4255C33.7519 46.0113 32.7668 45.2557 32.0716 44.2617C31.3764 43.2677 31.0049 42.0837 31.0079 40.871C30.2598 40.1952 29.6599 39.3718 29.2461 38.4529C28.8323 37.534 28.6134 36.5394 28.6033 35.5318C28.0627 35.2976 27.5763 34.9543 27.1746 34.5236C26.7729 34.0929 26.4646 33.5839 26.2689 33.0286C26.0732 32.4733 25.9943 31.8836 26.0373 31.2965C26.0802 30.7093 26.244 30.1374 26.5184 29.6164C27.1897 26.8603 28.3146 24.2348 29.8473 21.8471C28.3253 21.4097 27.8736 19.2921 28.6102 17.8826C29.3469 16.4732 30.8063 15.64 32.1962 14.8763C31.0217 15.1054 30.1114 13.5918 30.4588 12.4462C30.8063 11.3006 31.9113 10.5647 32.9815 10.0162C34.5459 9.21121 36.2029 8.60033 37.9157 8.1971C38.6107 6.19751 41.3558 4.03128 43.3225 3.27449C51.252 0.143177 56.7004 -0.419209 66.0337 7.39171" fill="#2D2F34"/>
<path d="M43.4896 35.6499C43.2142 35.2942 42.8565 35.0107 42.4472 34.8236H42.5306C42.4541 34.8236 42.3777 34.782 42.3012 34.7611C42.1627 34.7027 42.0138 34.6726 41.8634 34.6726C41.713 34.6726 41.5641 34.7027 41.4256 34.7611C40.9308 34.8952 40.5028 35.2066 40.2233 35.636C40.0012 36.0213 39.8896 36.4603 39.9006 36.9049C39.9117 37.3494 40.045 37.7824 40.2859 38.1563C40.4491 38.501 40.7148 38.7869 41.0466 38.9752C41.3785 39.1636 41.7604 39.2451 42.1404 39.2086C42.5203 39.1722 42.8797 39.0196 43.1697 38.7716C43.4596 38.5237 43.666 38.1924 43.7606 37.823C43.9 37.4669 43.9482 37.0816 43.9009 36.7021C43.8535 36.3226 43.7122 35.961 43.4896 35.6499Z" fill="#90959F"/>
<path d="M43.6562 20.6045C44.6152 15.3555 48.8962 9.28038 54.0805 10.4607L70.0646 16.5706C70.8273 16.7439 71.4974 17.1966 71.9425 17.8392C72.3876 18.4819 72.5755 19.2678 72.4691 20.0421L67.5419 54.3407L54.8311 63.6791C54.7269 62.9848 49.2367 54.3407 49.2367 54.3407C48.9518 51.7857 48.6599 48.9599 48.6599 48.9737C48.6599 48.9876 42.03 47.0505 41.7103 38.0662C41.5157 33.6018 42.5929 26.4158 43.6562 20.6045Z" fill="#936760"/>
<path d="M44.5595 28.0335C44.5214 28.3274 44.5996 28.6246 44.7774 28.8618C44.9552 29.0991 45.2185 29.2577 45.5115 29.3041C45.6545 29.3322 45.8016 29.3316 45.9443 29.3023C46.087 29.273 46.2224 29.2157 46.3427 29.1336C46.463 29.0516 46.5658 28.9464 46.645 28.8243C46.7242 28.7022 46.7783 28.5655 46.8042 28.4223C46.842 28.1273 46.7629 27.8293 46.5837 27.5918C46.4045 27.3544 46.1394 27.1964 45.8451 27.1517C45.7025 27.1227 45.5555 27.1226 45.4129 27.1515C45.2703 27.1805 45.135 27.2378 45.015 27.32C44.895 27.4023 44.7929 27.5079 44.7146 27.6305C44.6363 27.753 44.5836 27.8901 44.5595 28.0335Z" fill="#2D2F34"/>
<path d="M44.775 24.5271C44.9 24.6938 45.8313 24.1592 47.0475 24.305C48.2636 24.4508 49.0837 25.1728 49.2366 25.034C49.3895 24.8951 49.1949 24.6938 48.8405 24.3397C48.3561 23.9121 47.7521 23.6432 47.11 23.569C46.478 23.496 45.8389 23.6222 45.2823 23.93C44.8723 24.2008 44.7124 24.4577 44.775 24.5271Z" fill="#2D2F34"/>
<path d="M55.6512 29.0886C55.6151 29.3833 55.6949 29.6804 55.8738 29.9174C56.0527 30.1545 56.3167 30.3128 56.6102 30.3592C56.7527 30.3873 56.8994 30.3866 57.0417 30.3573C57.1839 30.3279 57.3189 30.2705 57.4386 30.1884C57.5584 30.1063 57.6605 30.0011 57.739 29.879C57.8175 29.7569 57.8709 29.6204 57.8959 29.4775C57.9338 29.1825 57.8546 28.8844 57.6754 28.647C57.4962 28.4096 57.2311 28.2516 56.9369 28.2069C56.7943 28.1778 56.6473 28.1778 56.5047 28.2067C56.3621 28.2356 56.2267 28.2929 56.1067 28.3752C55.9868 28.4575 55.8846 28.5631 55.8063 28.6856C55.7281 28.8082 55.6753 28.9453 55.6512 29.0886Z" fill="#2D2F34"/>
<path d="M56.7211 26.1726C56.8393 26.3392 57.7774 25.8046 58.9936 25.9504C60.2098 26.0962 61.0298 26.8114 61.1827 26.6447C61.3356 26.4781 61.141 26.3045 60.7866 25.9504C60.3013 25.5254 59.6975 25.2589 59.0562 25.1867C58.424 25.1099 57.7838 25.2363 57.2284 25.5477C56.8184 25.8463 56.6516 26.0962 56.7211 26.1726Z" fill="#2D2F34"/>
<path d="M51.2312 34.671C50.6113 34.3963 49.9602 34.1981 49.2923 34.0809C48.9865 34.0114 48.7016 33.9142 48.6738 33.699C48.6848 33.3757 48.7939 33.0634 48.9865 32.8033L50.1888 30.5816C51.8636 27.36 53.1215 24.7008 52.9686 24.6383C52.8157 24.5758 51.3702 27.1239 49.6954 30.3386C49.2923 31.137 48.9031 31.8938 48.5348 32.6159C48.2942 32.9677 48.1859 33.3931 48.229 33.817C48.2608 33.9321 48.3188 34.0383 48.3983 34.1274C48.4779 34.2165 48.5769 34.2861 48.6877 34.3308C48.8525 34.3989 49.0253 34.4456 49.2019 34.4697C49.8671 34.6223 50.549 34.69 51.2312 34.671Z" fill="#2D2F34"/>
<path d="M48.6805 48.9737C52.8278 49.5343 57.0495 48.9359 60.877 47.2449C60.877 47.2449 58.1459 53.4033 48.9863 51.8342L48.6805 48.9737Z" fill="#6F4C47"/>
<path d="M51.0922 37.5871C51.4145 37.2173 51.8222 36.9318 52.28 36.7551C52.7378 36.5785 53.2318 36.5161 53.7192 36.5734C54.0364 36.6141 54.3387 36.7324 54.5994 36.9176C54.86 37.1029 55.0709 37.3495 55.2133 37.6357C55.3719 37.9647 55.4264 38.3342 55.3697 38.695C55.3129 39.0558 55.1475 39.3908 54.8955 39.6553C54.6435 39.9199 54.3168 40.1016 53.959 40.1761C53.6011 40.2507 53.229 40.2146 52.8922 40.0727C52.2408 39.7721 51.6712 39.3197 51.2312 38.7535C51.086 38.6122 50.9724 38.4418 50.8977 38.2536C50.8617 38.1499 50.8543 38.0385 50.8763 37.931C50.8983 37.8234 50.9489 37.7238 51.0227 37.6426" fill="#6F4C47"/>
<path d="M54.7126 35.9416C54.518 35.9069 54.3582 37.2261 53.1142 38.0245C51.8702 38.823 50.4803 38.5105 50.4525 38.7188C50.4525 38.7952 50.7375 39.0104 51.3282 39.1007C52.102 39.1987 52.8859 39.0244 53.5451 38.6077C54.1779 38.207 54.6273 37.5735 54.796 36.8442C54.9142 36.2887 54.803 35.9416 54.7126 35.9416Z" fill="#2D2F34"/>
<path d="M56.7771 21.0974C56.8535 21.4446 58.0906 21.4307 59.5013 21.7917C60.9121 22.1528 62.0171 22.6596 62.2394 22.3888C62.3437 22.2569 62.1769 21.9167 61.753 21.5418C61.1813 21.0692 60.5045 20.7406 59.7793 20.5837C59.0597 20.4122 58.3098 20.4122 57.5902 20.5837C57.0342 20.7086 56.7423 20.9378 56.7771 21.0974Z" fill="#2D2F34"/>
<path d="M45.6992 20.3892C45.8799 20.6947 46.7556 20.5072 47.7841 20.6114C48.8126 20.7155 49.6257 21.021 49.869 20.7502C49.9732 20.6252 49.869 20.3267 49.5284 20.0559C49.0638 19.6852 48.4996 19.4603 47.9072 19.4096C47.3147 19.359 46.7205 19.4848 46.1996 19.7713C45.7757 19.9726 45.6228 20.2434 45.6992 20.3892Z" fill="#2D2F34"/>
<path d="M39.3682 24.5621C39.5051 23.1645 40.1214 21.8572 41.1125 20.8615C41.725 20.4056 42.3119 19.9165 42.8708 19.3965C43.9619 18.1606 43.9549 16.3346 44.497 14.7794C44.8599 13.7808 45.4548 12.8824 46.2328 12.1582C47.0108 11.434 47.9498 10.9046 48.9725 10.6135C50.6751 10.1414 52.5515 10.3636 54.1708 9.64846C55.3661 9.12079 56.3251 8.12794 57.5483 7.6697C59.9389 6.78793 62.5311 8.1696 64.616 9.62763C64.9218 11.3912 63.7195 12.8075 62.5311 14.1684C61.945 14.8472 61.2182 15.3907 60.401 15.7611C59.5838 16.1316 58.6958 16.3201 57.7984 16.3138C56.4085 16.3138 54.8171 15.8694 53.7677 16.779C52.7183 17.6885 52.9337 19.5978 52.0025 20.7296C50.6751 22.3403 47.9926 21.4933 46.1162 22.4098C44.6638 23.1041 43.9618 24.7357 43.1557 26.1382C42.3495 27.5407 41.0291 28.9154 39.4307 28.7557C39.2446 27.3652 39.2236 25.9576 39.3682 24.5621Z" fill="#2D2F34"/>
<path d="M60.9329 12.5298C64.9901 12.7563 68.9647 13.7679 72.6359 15.5083C73.7753 15.9386 74.7486 16.7189 75.4158 17.7371C75.8376 18.7162 75.9725 19.7948 75.8049 20.8475C75.527 24.1594 73.8869 28.1169 72.3997 31.0885L68.077 33.2617C64.9428 32.2758 66.8122 26.881 67.1666 24.1316C66.0939 23.5448 65.2078 22.6687 64.6094 21.6032C64.011 20.5376 63.7244 19.3255 63.7822 18.105C62.9201 17.4479 62.2165 16.6058 61.7234 15.6409C61.2302 14.676 60.9601 13.6128 60.9329 12.5298Z" fill="#2D2F34"/>
<path d="M68.2229 32.0741C68.4869 30.1925 70.8428 29.9912 72.3926 31.0882C73.2474 31.6922 73.845 32.8031 73.581 34.8027C72.886 40.1489 67.653 38.3437 67.6669 38.1909C67.6808 38.0382 67.9101 34.282 68.2229 32.0741Z" fill="#936760"/>
<path d="M69.571 36.3791C69.571 36.3791 69.6544 36.4555 69.8004 36.5458C70.0098 36.6688 70.258 36.7085 70.4953 36.6569C71.093 36.518 71.6837 35.6848 71.8366 34.7267C71.9115 34.2633 71.883 33.7892 71.7532 33.3381C71.7234 33.1647 71.6523 33.001 71.5458 32.8608C71.4394 32.7206 71.3008 32.6081 71.1416 32.5327C71.0383 32.4916 70.9241 32.4871 70.8179 32.52C70.7116 32.5528 70.6199 32.621 70.5579 32.7132C70.4675 32.859 70.4884 32.9701 70.4606 32.9701C70.4328 32.9701 70.3563 32.866 70.4258 32.6507C70.4754 32.5233 70.5658 32.4158 70.683 32.3452C70.763 32.2986 70.8516 32.2684 70.9435 32.2565C71.0354 32.2446 71.1288 32.2512 71.2181 32.2758C71.4317 32.3486 71.6231 32.4749 71.774 32.6427C71.9248 32.8104 72.0301 33.014 72.0798 33.2339C72.2493 33.7269 72.2923 34.2545 72.2049 34.7684C72.0312 35.8376 71.3501 36.7749 70.544 36.8929C70.3951 36.9157 70.2431 36.9051 70.0988 36.8619C69.9546 36.8186 69.8218 36.7439 69.71 36.643C69.5641 36.5111 69.5502 36.3861 69.571 36.3791Z" fill="#6F4C47"/>
<path d="M72.4902 37.7953C72.2126 37.4435 71.8553 37.1627 71.4477 36.976H71.5311C71.4566 36.9486 71.3799 36.9277 71.3018 36.9135C71.1632 36.8551 71.0144 36.825 70.864 36.825C70.7136 36.825 70.5647 36.8551 70.4262 36.9135C69.9314 37.0475 69.5033 37.359 69.2239 37.7883C69.0021 38.1723 68.8901 38.6096 68.8999 39.0528C68.9097 39.4959 69.041 39.9279 69.2795 40.3017C69.4422 40.6464 69.7072 40.9327 70.0387 41.1215C70.3701 41.3103 70.7517 41.3925 71.1315 41.3568C71.5113 41.3212 71.8709 41.1694 72.1613 40.9222C72.4517 40.675 72.6587 40.3444 72.7543 39.9754C72.894 39.6185 72.943 39.2325 72.8969 38.8521C72.8508 38.4717 72.7111 38.1086 72.4902 37.7953Z" fill="#90959F"/>
<path d="M70.0019 38.6773C70.0003 38.7027 70.0003 38.7282 70.0019 38.7537C70.0165 38.8248 70.0374 38.8945 70.0645 38.962C70.1818 39.2234 70.3854 39.4367 70.6413 39.566C71.0484 39.7795 71.4959 39.9048 71.9548 39.934C72.2413 39.9621 72.53 39.9621 72.8165 39.934C73.1474 39.9101 73.4729 39.8376 73.7825 39.7187L73.72 39.6771C73.7601 40.1373 73.9189 40.5793 74.1809 40.9599C74.4429 41.3405 74.7991 41.6468 75.2149 41.8489C75.6307 42.051 76.0918 42.142 76.5533 42.1131C77.0147 42.0841 77.4608 41.9361 77.848 41.6836H77.7577C77.8329 41.8123 77.9332 41.9247 78.0525 42.0141C78.1718 42.1035 78.3079 42.1682 78.4526 42.2044C78.738 42.2913 79.0429 42.2913 79.3283 42.2044C79.6265 42.1207 79.8882 41.9398 80.0719 41.6906C80.2575 41.435 80.3747 41.1362 80.4124 40.8227C80.4829 40.1766 80.3202 39.5266 79.9537 38.9897C79.5807 38.4429 79.1393 37.9459 78.6403 37.5109V37.6358C78.8728 37.5071 79.0765 37.3324 79.239 37.1222C79.4015 36.9121 79.5194 36.6711 79.5854 36.4139C79.7283 35.889 79.7138 35.3337 79.5437 34.817C79.3558 34.3042 79.0702 33.8326 78.7028 33.4284C78.3311 33.0154 77.9342 32.6259 77.5144 32.2619V32.3799C77.7219 32.187 77.8861 31.9524 77.9963 31.6915C78.1064 31.4307 78.1601 31.1494 78.1538 30.8664C78.1608 30.2837 77.9912 29.7125 77.6673 29.2278C77.0012 28.3754 76.1507 27.6847 75.1794 27.2074L75.2211 27.3046C75.4013 26.7556 75.4456 26.1711 75.3503 25.6012C75.2549 25.0313 75.0228 24.493 74.6737 24.0323C74.3247 23.5717 73.8691 23.2024 73.3459 22.9561C72.8228 22.7098 72.2476 22.5938 71.6698 22.618L71.7463 22.7152C71.865 22.2594 71.8785 21.7825 71.7858 21.3207C71.6931 20.8588 71.4966 20.424 71.2112 20.0491C70.9599 19.6912 70.6342 19.3917 70.2564 19.1712C69.8786 18.9507 69.4575 18.8144 69.022 18.7716L69.0846 18.841C69.1041 18.3838 69.0206 17.9281 68.8401 17.5075C68.6597 17.0869 68.387 16.7122 68.0422 16.411C67.7462 16.1396 67.3987 15.9303 67.0203 15.7955C66.6418 15.6608 66.2402 15.6033 65.8391 15.6264L65.8947 15.6889C65.9005 15.2056 65.7858 14.7284 65.5612 14.3003C65.367 13.8987 65.1035 13.5344 64.7828 13.2241C64.3086 12.7279 63.6828 12.4031 63.0037 12.3007H62.8022C62.7397 12.2972 62.677 12.2972 62.6145 12.3007C62.5011 12.2933 62.3874 12.2933 62.274 12.3007C62.0956 12.322 61.919 12.3568 61.7458 12.4048L61.4401 12.509L61.3358 12.5506C61.3358 12.5506 61.3706 12.5506 61.447 12.5506L61.7528 12.4604C61.9242 12.4182 62.0984 12.3881 62.274 12.3701C62.3874 12.363 62.5011 12.363 62.6145 12.3701H62.8022H62.9968C63.6607 12.4806 64.2692 12.8078 64.7272 13.3005C65.0157 13.601 65.2507 13.9485 65.4222 14.3281C65.6427 14.7569 65.7503 15.2348 65.7349 15.7167V15.7791H65.7905C66.1716 15.7598 66.5526 15.8174 66.9109 15.9486C67.2691 16.0799 67.5972 16.282 67.8754 16.5429C68.2053 16.8326 68.4659 17.1926 68.6379 17.5964C68.8099 18.0001 68.8889 18.4374 68.8691 18.8757V18.9382H68.9386C69.3545 18.983 69.7559 19.1165 70.1156 19.3297C70.4753 19.5429 70.7849 19.8309 71.0235 20.1741C71.295 20.5304 71.4818 20.9437 71.5697 21.3828C71.6576 21.8218 71.6443 22.2751 71.5308 22.7083V22.8124H71.642C72.194 22.7889 72.7434 22.8996 73.2431 23.1351C73.7428 23.3706 74.1777 23.7237 74.5106 24.1642C74.8435 24.6047 75.0644 25.1193 75.1543 25.6639C75.2441 26.2085 75.2003 26.7668 75.0265 27.2907V27.3532H75.089C76.0352 27.8205 76.8641 28.4944 77.5144 29.325C77.8233 29.7794 77.9857 30.3172 77.9801 30.8664C77.9832 31.1261 77.9324 31.3836 77.8307 31.6227C77.729 31.8617 77.5787 32.077 77.3893 32.255L77.3198 32.3105L77.3893 32.373C78.2568 33.0253 78.9433 33.888 79.3839 34.8794C79.5408 35.3654 79.5529 35.8865 79.4186 36.3791C79.3605 36.615 79.2539 36.8362 79.1055 37.0287C78.9572 37.2211 78.7703 37.3806 78.5569 37.497L78.4596 37.5456L78.536 37.6219C79.0269 38.0487 79.4613 38.5363 79.8286 39.073C80.1776 39.5807 80.3329 40.1965 80.2665 40.8088C80.2486 41.0931 80.1465 41.3656 79.9733 41.5918C79.8001 41.8181 79.5634 41.9877 79.2935 42.0794C79.0452 42.169 78.7743 42.1741 78.5228 42.0937C78.2714 42.0133 78.0536 41.852 77.9036 41.635L77.8689 41.5725L77.8133 41.6073C77.4086 41.8663 76.9404 42.0091 76.4599 42.0202C75.9794 42.0312 75.5052 41.91 75.089 41.6697C74.7438 41.4582 74.4516 41.1705 74.2347 40.8287C74.0179 40.487 73.8822 40.1001 73.8381 39.6979V39.6077H73.7825C73.4829 39.7277 73.1663 39.8003 72.8443 39.8229C72.5622 39.8471 72.2786 39.8471 71.9965 39.8229C71.5469 39.7934 71.1076 39.6754 70.7038 39.4757C70.4496 39.3551 70.2438 39.152 70.1201 38.8995C70.0749 38.8286 70.0354 38.7543 70.0019 38.6773Z" fill="#5F646F"/>
<path d="M90.8856 34.4279C90.9742 34.3359 91.0512 34.2333 91.1149 34.1225C91.3004 33.8013 91.423 33.4479 91.4763 33.081C91.5635 32.4875 91.4511 31.8819 91.1566 31.3591C90.9613 31.0112 90.6954 30.708 90.3758 30.4688C90.0562 30.2297 89.6902 30.0599 89.3011 29.9705L89.3428 30.033C89.5919 29.1352 89.4874 28.1762 89.0509 27.353C88.8187 26.8901 88.4892 26.4828 88.0849 26.1588C87.6476 25.8498 87.1823 25.5825 86.695 25.3603C86.4414 25.2379 86.2072 25.0788 86 24.8882C85.7981 24.6958 85.6455 24.4577 85.5552 24.1939C85.3537 23.6662 85.3259 23.0483 85.0618 22.472C84.7816 21.8829 84.3315 21.3909 83.7693 21.0593C83.207 20.7278 82.5584 20.5717 81.9067 20.6113L81.9971 20.7085C82.1372 20.0632 82.127 19.3944 81.9675 18.7537C81.8079 18.1129 81.5032 17.5173 81.0768 17.0128C80.6504 16.5083 80.1137 16.1084 79.5082 15.844C78.9026 15.5795 78.2443 15.4575 77.5841 15.4873L77.6675 15.5846C77.7969 14.8746 77.7204 14.1425 77.447 13.4746C77.1736 12.8066 76.7147 12.2307 76.1245 11.8148C75.5343 11.3988 74.8373 11.1601 74.1158 11.1268C73.3943 11.0936 72.6783 11.2671 72.0522 11.627H72.1356C71.6368 11.0756 71.0254 10.6376 70.3426 10.3426C69.7373 10.0693 69.0998 9.87337 68.4454 9.75934C67.3884 9.56785 66.3056 9.56785 65.2486 9.75934C64.5671 9.86811 63.9077 10.0861 63.2958 10.405C63.1353 10.4871 62.9818 10.5823 62.8371 10.6897L62.6842 10.7939C62.6842 10.7939 62.8996 10.655 63.3166 10.4398C63.9311 10.1418 64.5872 9.93813 65.2625 9.83572C66.3112 9.66606 67.3816 9.68251 68.4246 9.88432C69.0682 10.0002 69.6942 10.1985 70.287 10.4745C70.9533 10.7611 71.5487 11.1901 72.0314 11.7312L72.0661 11.7728H72.1148C72.6901 11.4582 73.3377 11.2991 73.9934 11.3113C74.6492 11.3234 75.2904 11.5065 75.8536 11.8423C76.4651 12.2364 76.9476 12.8009 77.2415 13.466C77.5354 14.131 77.628 14.8676 77.5076 15.5846V15.6818H77.6049C78.2395 15.6563 78.8716 15.776 79.4528 16.0318C80.034 16.2875 80.5491 16.6726 80.9587 17.1575C81.3684 17.6424 81.6617 18.2144 81.8163 18.8298C81.971 19.4452 81.9829 20.0878 81.8511 20.7085V20.8196H81.9554C82.5744 20.7831 83.1904 20.9312 83.7249 21.2452C84.2595 21.5592 84.6886 22.0249 84.9576 22.5831C85.2078 23.1247 85.2425 23.7357 85.451 24.2981C85.5521 24.579 85.7161 24.8331 85.9305 25.041C86.1377 25.2372 86.3717 25.4032 86.6255 25.5339C87.1102 25.753 87.5752 26.0131 88.0154 26.3115C88.406 26.6225 88.7258 27.013 88.9536 27.4571C89.379 28.2536 89.4858 29.1817 89.2524 30.0538V30.1094H89.308C89.6836 30.1914 90.0382 30.3503 90.3492 30.5762C90.6602 30.8021 90.9209 31.0899 91.1149 31.4216C91.4031 31.9266 91.5201 32.5111 91.4485 33.0879C91.4037 33.4507 91.2905 33.8018 91.1149 34.1225C90.962 34.3238 90.8786 34.421 90.8856 34.4279Z" fill="#5F646F"/>
<path d="M39.403 32.1437C39.4442 32.0794 39.4705 32.0069 39.4801 31.9312C39.4897 31.8556 39.4824 31.7787 39.4586 31.7062C39.403 31.5283 39.3052 31.3663 39.1736 31.2341C38.9888 31.0647 38.7712 30.9347 38.5343 30.8523C38.2438 30.7581 37.9696 30.62 37.7212 30.4426C37.4469 30.2088 37.2565 29.8919 37.1791 29.54C37.0844 29.1324 37.0702 28.7102 37.1374 28.2972C37.1861 27.8598 37.2903 27.3946 37.3251 26.9086C37.2958 25.8189 37.1442 24.736 36.8733 23.6801C36.7739 23.0944 36.7928 22.4948 36.9289 21.9166C36.9959 21.6125 37.1273 21.3262 37.3143 21.0771C37.5014 20.828 37.7396 20.6218 38.0131 20.4724C38.6345 20.2286 39.2832 20.0608 39.945 19.9725C40.2952 19.9047 40.6312 19.7779 40.9388 19.5976C41.251 19.3994 41.507 19.1245 41.6824 18.7991C41.9875 18.1315 42.2204 17.4332 42.3774 16.7162C42.4777 16.3669 42.63 16.0345 42.8291 15.7303C43.0312 15.4306 43.3269 15.206 43.67 15.0916C44.1645 14.9981 44.669 14.9677 45.1711 15.0013C45.4318 14.9968 45.69 14.9499 45.9356 14.8624C46.1859 14.7732 46.4054 14.6142 46.568 14.4042C46.8618 13.9975 47.0958 13.551 47.2629 13.0781C47.4318 12.6394 47.6925 12.2417 48.0274 11.9116C48.3437 11.5964 48.7218 11.3498 49.138 11.1873C49.5541 11.0249 49.9994 10.95 50.4459 10.9674C51.2862 11.0051 52.081 11.3599 52.6697 11.9602L52.7322 12.0297L52.7809 11.9464C53.1338 11.3091 53.6189 10.7545 54.2038 10.3198C54.7887 9.88517 55.4599 9.58042 56.1723 9.42603C56.7688 9.30851 57.3826 9.30851 57.9792 9.42603C58.4882 9.51226 58.9777 9.6886 59.4247 9.94676C60.0526 10.314 60.5616 10.8538 60.8911 11.502C60.9776 11.671 61.0542 11.8448 61.1204 12.0227L61.169 12.1616V12.2102V12.1616L61.1273 12.0158C61.0709 11.8318 60.9988 11.6529 60.9119 11.4812C60.5948 10.8142 60.0869 10.2561 59.4525 9.87733C58.9992 9.60577 58.4998 9.41984 57.9792 9.32883C57.3709 9.21168 56.7458 9.21168 56.1376 9.32883C55.409 9.48588 54.7222 9.79622 54.123 10.2392C53.5239 10.6821 53.0261 11.2475 52.6628 11.8978H52.774C52.1627 11.2689 51.336 10.8944 50.4597 10.8494C49.7446 10.8285 49.0403 11.0287 48.4433 11.4226C47.8463 11.8165 47.3855 12.385 47.124 13.0503C46.9688 13.5049 46.7538 13.9368 46.4846 14.3348C46.3266 14.5157 46.1292 14.6579 45.9075 14.7506C45.6858 14.8433 45.4457 14.8839 45.2059 14.8694C44.6893 14.8392 44.1709 14.8742 43.6631 14.9735C43.2856 15.098 42.9587 15.3417 42.7318 15.6678C42.5248 15.987 42.3678 16.3358 42.2662 16.7023C42.1071 17.4053 41.8741 18.0895 41.5712 18.7436C41.407 19.0484 41.1678 19.3064 40.8763 19.4934C40.5817 19.6602 40.2628 19.7797 39.9311 19.8475C39.2567 19.9399 38.5961 20.1147 37.9644 20.3683C37.6652 20.5221 37.4077 20.746 37.2139 21.0209C37.028 21.2885 36.8915 21.5871 36.8108 21.9027C36.6738 22.5021 36.6572 23.1228 36.7621 23.7287C37.0341 24.773 37.1902 25.8441 37.2278 26.9225C37.2278 27.4155 37.1027 27.8806 37.054 28.3111C36.9913 28.7343 37.0101 29.1656 37.1096 29.5817C37.1974 29.951 37.4022 30.2821 37.6934 30.5259C37.9522 30.7027 38.2355 30.8407 38.5343 30.9356C38.7647 31.0099 38.9775 31.1303 39.1597 31.2897C39.2913 31.4109 39.3895 31.5639 39.4447 31.734C39.4725 31.8716 39.458 32.0145 39.403 32.1437Z" fill="#5F646F"/>
<path d="M29.5833 23.0692L29.6459 22.972L29.8126 22.6874L30.452 21.5626C30.73 21.0766 31.0497 20.4656 31.4944 19.806C31.9574 19.0354 32.6298 18.4118 33.4334 18.0078C33.8851 17.8064 34.3994 17.6884 34.9206 17.5009C35.1884 17.4043 35.4447 17.2785 35.685 17.126C35.9377 16.9464 36.1428 16.7081 36.2827 16.4317C36.5746 15.8971 36.6302 15.2653 36.8734 14.7029C36.9886 14.4171 37.1902 14.1743 37.4502 14.0086C37.7259 13.8484 38.0266 13.7358 38.3398 13.6753C38.6722 13.6046 38.9978 13.5047 39.3127 13.3768C39.6436 13.2348 39.921 12.9918 40.105 12.6825C40.4025 12.0312 40.6084 11.3419 40.7165 10.6343C40.792 10.2884 40.9387 9.96213 41.1474 9.67611C41.2599 9.54003 41.3982 9.42762 41.5545 9.34538C41.7108 9.26314 41.8819 9.21272 42.0578 9.19704C42.7527 9.09984 43.5172 9.39839 44.3164 9.33591C44.7131 9.2915 45.0866 9.12673 45.3866 8.86378C45.6641 8.60054 45.9112 8.3071 46.1233 7.98896C46.3242 7.68121 46.5447 7.38668 46.7835 7.10719C47.0049 6.83425 47.2918 6.62168 47.6174 6.48926C48.2929 6.31598 49.0068 6.37216 49.6467 6.64895C50.2904 6.90738 50.9837 7.01888 51.676 6.97527C52.3239 6.85432 52.9452 6.61923 53.5107 6.28097C54.0308 5.97281 54.5801 5.71698 55.1508 5.51724C56.2059 5.24398 57.3186 5.28989 58.3476 5.64915C59.2013 5.93267 59.9786 6.40767 60.6201 7.03776C61.098 7.52144 61.5009 8.07372 61.8154 8.67631C62.0046 9.06116 62.1626 9.4605 62.288 9.87052C62.3297 10.0024 62.3644 10.1135 62.3853 10.1899L62.427 10.301C62.427 10.301 62.427 10.2593 62.427 10.1899C62.427 10.1205 62.3783 9.9955 62.3366 9.86358C62.2273 9.44539 62.0784 9.03854 61.8919 8.64855C61.5868 8.03327 61.1883 7.46883 60.7104 6.97527C60.0449 6.34146 59.2442 5.86668 58.3684 5.58667C57.3159 5.21628 56.1777 5.16316 55.0952 5.43392C54.5135 5.6338 53.9526 5.88958 53.4203 6.19765C52.872 6.53526 52.2668 6.77052 51.6343 6.89195C50.9651 6.92531 50.2967 6.81401 49.6745 6.56564C49.3373 6.4507 48.9909 6.36475 48.639 6.30874C48.2713 6.24512 47.8934 6.27619 47.541 6.399C47.1865 6.55131 46.8758 6.79003 46.6376 7.0933C46.3874 7.37797 46.1858 7.6904 45.9426 7.98896C45.7432 8.29622 45.5101 8.58032 45.2476 8.83601C44.9724 9.07988 44.627 9.23055 44.2608 9.26648C43.5242 9.33591 42.7806 9.03041 42.0022 9.12761C41.6095 9.1762 41.252 9.37846 41.0084 9.69C40.7846 9.99376 40.6282 10.3417 40.5497 10.7106C40.44 11.4021 40.2415 12.0765 39.959 12.7172C39.7985 12.998 39.5561 13.2233 39.2641 13.3629C38.9593 13.489 38.6427 13.5844 38.3189 13.6475C37.9882 13.7147 37.6711 13.8367 37.3807 14.0086C37.1016 14.1961 36.884 14.4618 36.7553 14.7723C36.5051 15.3625 36.4564 15.9873 36.1785 16.4942C35.8887 16.975 35.4265 17.3275 34.8858 17.4801C34.3785 17.6606 33.8643 17.7856 33.3986 18.0008C32.5798 18.4159 31.8972 19.0569 31.4319 19.8477C30.9941 20.542 30.6813 21.1391 30.4103 21.6251C30.1393 22.1111 29.9447 22.4999 29.7987 22.7637C29.7362 22.8887 29.6806 22.9859 29.6459 23.0623C29.6111 23.1387 29.5486 23.0692 29.5833 23.0692Z" fill="#5F646F"/>
<path d="M35.7127 17.8689H35.6154C35.5161 17.8548 35.4149 17.8693 35.3235 17.9106C35.1553 18.0004 35.0121 18.1305 34.9066 18.2893C34.801 18.448 34.7366 18.6304 34.7189 18.8201C34.6974 19.0921 34.7161 19.3659 34.7745 19.6324C34.844 19.9397 34.8674 20.2556 34.844 20.5697C34.7797 20.9251 34.624 21.2577 34.3923 21.5348C34.1629 21.8473 33.8711 22.1389 33.6278 22.5138C33.4905 22.7052 33.3986 22.9253 33.3588 23.1574C33.3191 23.3896 33.3327 23.6277 33.3985 23.8538C33.5375 24.3259 33.8432 24.7286 33.9683 25.2424C34.0743 25.7448 33.9848 26.2686 33.7182 26.7074C33.468 27.1795 33.1344 27.6378 32.8912 28.1654C32.7593 28.4351 32.6791 28.7272 32.6549 29.0264C32.6386 29.3336 32.6859 29.6409 32.7939 29.929C33.0495 30.4893 33.3542 31.026 33.7043 31.5328C34.0644 32.0382 34.223 32.6596 34.149 33.2755C33.9549 33.8911 33.6914 34.4828 33.3637 35.039C33.2147 35.3438 33.1229 35.6732 33.0927 36.0111C33.0778 36.3469 33.1396 36.6816 33.2734 36.99C33.5603 37.5632 33.9124 38.1014 34.3228 38.5939C34.7043 39.0618 34.9858 39.603 35.1498 40.1838C35.2563 40.7625 35.4026 41.3332 35.5876 41.8918C35.6979 42.1573 35.8665 42.3946 36.081 42.5861C36.2985 42.7676 36.5452 42.9108 36.8107 43.0096C37.0604 43.1009 37.3041 43.2076 37.5404 43.329C37.7591 43.4543 37.9581 43.6111 38.1311 43.7942C38.4467 44.1633 38.713 44.5717 38.9234 45.0092C39.1458 45.4258 39.3404 45.8355 39.5766 46.2034C39.9862 46.8877 40.6086 47.4193 41.3488 47.717C41.8985 47.9445 42.492 48.0465 43.0862 48.0156C43.4624 47.9951 43.8329 47.9155 44.1842 47.7795C44.304 47.7327 44.4202 47.677 44.5317 47.6129C44.0745 47.8129 43.5847 47.9282 43.0862 47.9531C42.502 47.973 41.9207 47.8639 41.3835 47.6337C40.6676 47.3365 40.0677 46.8151 39.6739 46.1479C39.4516 45.7799 39.257 45.3703 39.0415 44.9468C38.8259 44.4988 38.5525 44.081 38.2284 43.7039C38.048 43.5078 37.8396 43.3394 37.6099 43.204C37.3686 43.0789 37.1203 42.9676 36.8663 42.8708C36.6131 42.781 36.3778 42.647 36.1714 42.475C35.9665 42.2838 35.8114 42.0454 35.7196 41.7807C35.5401 41.2263 35.3984 40.6603 35.2957 40.0866C35.1267 39.4854 34.8358 38.9253 34.4409 38.4411C34.0386 37.9609 33.6956 37.4341 33.4193 36.872C33.2916 36.5866 33.2344 36.2746 33.2525 35.9625C33.2767 35.6452 33.3642 35.336 33.5097 35.0529C33.8452 34.4851 34.1111 33.879 34.3019 33.2477C34.3605 32.9188 34.3391 32.5807 34.2394 32.2618C34.1392 31.9579 34.0039 31.6666 33.8363 31.3939C33.4883 30.8968 33.1859 30.3693 32.9329 29.8179C32.8315 29.5499 32.7865 29.2639 32.8008 28.9778C32.8264 28.6982 32.9017 28.4255 33.0232 28.1724C33.2525 27.6586 33.5861 27.2073 33.8363 26.7143C34.1245 26.2477 34.2169 25.6864 34.0934 25.1522C33.9475 24.6384 33.6417 24.2357 33.5097 23.7635C33.4448 23.5541 33.4306 23.3323 33.468 23.1163C33.5055 22.9003 33.5936 22.6962 33.7251 22.5207C33.9545 22.1597 34.2394 21.8264 34.4687 21.5418C34.7108 21.2517 34.8693 20.9013 34.9274 20.5281C34.9474 20.204 34.9193 19.8788 34.844 19.563C34.785 19.3035 34.7617 19.0373 34.7745 18.7715C34.788 18.5894 34.8457 18.4133 34.9425 18.2585C35.0394 18.1037 35.1726 17.9747 35.3305 17.8828C35.455 17.8479 35.586 17.8431 35.7127 17.8689Z" fill="#5F646F"/>
<path d="M90.7673 34.2405C90.9082 34.2558 91.0503 34.2558 91.1912 34.2405C91.6045 34.1904 92.0025 34.0531 92.3587 33.8378C92.9396 33.5008 93.3826 32.9697 93.6097 32.3381C93.7599 31.9191 93.8154 31.4721 93.7722 31.0291C93.7289 30.5861 93.588 30.1582 93.3595 29.7761C93.0722 29.3456 92.739 28.9475 92.3657 28.5889C91.9624 28.216 91.6508 27.755 91.4553 27.2419C91.3132 26.6678 91.39 26.0615 91.6707 25.5409C91.914 24.9785 92.2753 24.4439 92.5186 23.819C92.7857 23.1343 92.9068 22.4014 92.874 21.6673C92.8413 20.9331 92.6554 20.2139 92.3282 19.5557C92.0011 18.8975 91.54 18.3149 90.9744 17.845C90.4088 17.3752 89.7512 17.0286 89.0438 16.8274L89.0855 16.9523C89.3577 16.6216 89.5481 16.2315 89.6415 15.8137C89.7206 15.3915 89.7206 14.9583 89.6415 14.5362C89.5622 14.106 89.4094 13.6926 89.1897 13.3142C88.9584 12.9385 88.6753 12.5973 88.3488 12.3005C87.3508 11.4799 86.1755 10.9023 84.9158 10.6133C83.743 10.2968 82.5301 10.1541 81.3159 10.1898L81.3993 10.2731C81.4282 9.57532 81.2654 8.8829 80.9286 8.27095C80.5917 7.65899 80.0935 7.15085 79.4881 6.80161C78.925 6.47674 78.2896 6.29773 77.6396 6.28088C77.0265 6.30397 76.4202 6.41625 75.8396 6.61415C75.5654 6.68963 75.283 6.7316 74.9987 6.73913C74.7253 6.74335 74.4538 6.69381 74.1995 6.59332C73.7052 6.38801 73.2383 6.12214 72.8096 5.80181C72.4048 5.5127 71.9631 5.27918 71.4961 5.10751C71.0628 4.94798 70.6087 4.8521 70.1479 4.82285C69.3645 4.76956 68.5809 4.92279 67.8754 5.2672C67.3508 5.52109 66.8791 5.87214 66.4855 6.30171C66.2386 6.56805 66.0261 6.86429 65.8531 7.18348C65.7907 7.2924 65.7373 7.40617 65.6932 7.52369C65.6932 7.52369 65.7488 7.40565 65.8739 7.19736C66.0574 6.88777 66.2741 6.59909 66.5202 6.33643C66.9173 5.91968 67.3886 5.58061 67.9102 5.33663C68.4618 5.0776 69.0603 4.93298 69.6695 4.9115C70.2786 4.89002 70.8858 4.99213 71.4544 5.21165C71.912 5.38496 72.3443 5.61846 72.7401 5.90596C73.1684 6.23435 73.6352 6.50946 74.13 6.72524C74.4006 6.82856 74.6882 6.88037 74.9779 6.87798C75.2737 6.87149 75.5677 6.82953 75.8535 6.75301C76.4224 6.55719 77.0173 6.4472 77.6187 6.42669C78.2458 6.44015 78.8596 6.60958 79.4047 6.91964C79.984 7.2547 80.4606 7.7417 80.7827 8.3279C81.1049 8.91411 81.2604 9.57719 81.2325 10.2454V10.3287H81.3159C82.5138 10.3 83.7096 10.4426 84.8671 10.7522C86.1018 11.0375 87.2533 11.6056 88.2307 12.4116C88.5477 12.6943 88.8216 13.0217 89.0438 13.3836C89.2553 13.7439 89.4012 14.1388 89.4747 14.55C89.5511 14.9515 89.5511 15.3637 89.4747 15.7651C89.3901 16.1584 89.2112 16.5253 88.9535 16.8343L88.877 16.9315L88.9951 16.9662C89.6826 17.1614 90.3216 17.4978 90.8715 17.9538C91.4214 18.4098 91.8699 18.9755 92.1885 19.6146C92.507 20.2537 92.6886 20.9522 92.7215 21.6654C92.7544 22.3786 92.6379 23.0908 92.3796 23.7565C92.1433 24.3606 91.7889 24.9021 91.5387 25.4714C91.2485 26.0218 91.1742 26.6605 91.3302 27.2627C91.5365 27.7908 91.8596 28.2655 92.2753 28.6514C92.6429 29.0033 92.9736 29.3918 93.2622 29.8108C93.4864 30.179 93.6263 30.5921 93.6719 31.0206C93.7176 31.4491 93.6678 31.8825 93.5263 32.2895C93.3084 32.9064 92.8836 33.4289 92.324 33.7684C91.9777 33.9872 91.5895 34.1314 91.1843 34.1919C90.9132 34.2405 90.7673 34.2336 90.7673 34.2405Z" fill="#2D2F34"/>
</g>
<mask id="mask1" style="mask-type:alpha" maskUnits="userSpaceOnUse" x="25" y="0" width="69" height="57">
<rect x="25.8607" width="67.7451" height="56.6314" fill="white"/>
</mask>
<g mask="url(#mask1)">
<path d="M93.7486 121.466C92.4838 114.426 86.9519 59.1313 86.9519 59.1313L73.3586 54.2711L67.514 47.4878L50.5987 49.8554L45.0391 55.4098C45.0391 55.4098 34.3715 58.7494 31.682 60.6448C31.682 60.6448 25.8652 64.5816 23.961 70.7886C22.5016 75.5446 15.5173 99.026 15.5173 99.026C15.5173 99.026 13.6131 104.754 14.2386 108.628C14.5999 110.836 16.1149 115.224 19.7565 117.154C22.7885 118.7 26.2913 119.049 29.5693 118.133L25.9138 180.773C25.9138 180.773 26.2266 187.085 42.982 189.799C59.7374 192.514 99.4959 184.418 99.4959 184.418C99.4959 184.418 95.0134 128.478 93.7486 121.466Z" fill="white"/>
<path d="M93.7486 121.466C93.7486 121.466 94.0196 122.952 94.3532 125.805C94.6867 128.659 95.1246 132.88 95.6388 138.303C96.6743 149.176 98.0573 164.909 99.6626 184.349V184.467H99.5514C94.2559 185.522 88.6568 186.506 82.7543 187.418C76.8611 188.32 70.6829 189.154 64.2337 189.751C57.7845 190.348 51.0295 190.799 44.1286 190.015C40.6238 189.591 37.1782 188.774 33.8571 187.578C32.1524 186.968 30.5354 186.137 29.048 185.106C28.2959 184.573 27.6141 183.948 27.0188 183.245C26.3826 182.535 25.9504 181.667 25.7678 180.732C26.8589 162.034 28.0403 141.691 29.2426 120.591C29.2913 119.751 29.3399 118.918 29.3886 118.099L29.6248 118.279C27.7042 118.807 25.6934 118.923 23.7247 118.619C22.7493 118.476 21.7949 118.214 20.8823 117.842C19.9595 117.489 19.095 117 18.3179 116.391C16.8245 115.121 15.6689 113.501 14.9543 111.676C14.5843 110.781 14.3049 109.85 14.1203 108.899C13.9587 107.945 13.9074 106.976 13.9675 106.011C14.1022 104.111 14.4258 102.229 14.9335 100.394C15.4755 98.5886 16.0106 96.7904 16.5388 94.9991C17.609 91.4304 18.6654 87.8987 19.7078 84.404C20.7502 80.9093 21.7857 77.454 22.8143 74.038C23.2746 72.3217 23.8291 70.632 24.4752 68.9766C25.2003 67.3672 26.1503 65.8688 27.2968 64.5261C28.4069 63.1898 29.6582 61.977 31.0287 60.9088C31.718 60.3831 32.4639 59.936 33.2525 59.5757C34.017 59.2077 34.8023 58.8814 35.5876 58.562C38.7288 57.2984 41.8422 56.2361 44.9973 55.2363L44.9278 55.278L50.4875 49.7582L50.5292 49.7166H50.5778L67.4931 47.356H67.5695L67.6251 47.4184L73.4697 54.1879L73.4071 54.1462L86.9936 59.0064H87.07V59.0897C88.9881 78.3636 90.6004 93.9576 91.7679 104.726C92.3447 110.114 92.8243 114.294 93.1578 117.12C93.3385 118.508 93.4636 119.619 93.5748 120.341C93.686 121.063 93.7277 121.438 93.7277 121.438C93.7277 121.438 93.4497 119.959 93.0814 117.133C92.7131 114.308 92.2127 110.128 91.615 104.74C90.4058 93.9715 88.7518 78.3566 86.799 59.1175L86.8824 59.2285L73.289 54.3684H73.2543L67.4027 47.5851L67.5348 47.6337L50.6264 50.0221L50.7168 49.9804L45.1571 55.5349C42.0507 56.5347 38.9025 57.6178 35.7752 58.8536C34.9969 59.173 34.2185 59.4993 33.461 59.8673C32.691 60.2118 31.9653 60.6477 31.2997 61.1657C29.9472 62.217 28.7123 63.4112 27.6164 64.7274C26.4889 66.0479 25.5531 67.5204 24.8366 69.1015C24.1952 70.7455 23.6454 72.4237 23.1895 74.1283C22.1749 77.5397 21.1441 80.995 20.097 84.4943C19.0499 87.9936 17.9936 91.5276 16.928 95.0963C16.3998 96.8783 15.867 98.6696 15.3296 100.47C14.8279 102.285 14.5089 104.146 14.3775 106.025C14.3196 106.953 14.3686 107.885 14.5234 108.802C14.701 109.73 14.9734 110.637 15.3365 111.51C16.0274 113.284 17.15 114.859 18.6028 116.092C21.6328 118.39 25.8721 118.939 29.5693 117.918L29.8194 117.849V118.106C29.7708 118.925 29.7221 119.758 29.6735 120.598C28.4365 141.698 27.2481 162.034 26.157 180.739C26.337 181.596 26.7396 182.391 27.3245 183.044C27.9019 183.725 28.56 184.333 29.2843 184.856C30.7534 185.866 32.3463 186.682 34.0239 187.286C37.3183 188.473 40.7358 189.285 44.212 189.709C51.0782 190.494 57.8193 190.008 64.2476 189.466C70.676 188.924 76.8611 188.077 82.7543 187.154C88.6476 186.231 94.2489 185.272 99.5375 184.231L99.4333 184.37C97.8627 164.929 96.5214 149.19 95.5276 138.317C95.0412 132.88 94.6172 128.659 94.3115 125.819C94.1447 124.389 94.0404 123.299 93.9223 122.57C93.8041 121.841 93.7486 121.466 93.7486 121.466Z" fill="#2D2F34"/>
<path d="M66.2488 47.5015C66.8598 48.2121 67.3157 49.0422 67.5874 49.9389C67.859 50.8355 67.9404 51.7789 67.8264 52.7087C67.5137 56.0275 65.1439 62.304 63.7192 64.1995C62.2945 66.0949 53.6076 82.2514 53.6076 82.2514L49.1807 59.1449L48.9027 51.584L50.5984 49.8829L66.2488 47.5015Z" fill="#F28080"/>
<path d="M55.6927 81.8003C55.8295 81.7284 55.9597 81.6448 56.0819 81.5503L57.1383 80.7797C58.0904 80.0854 59.4038 79.0994 61.0092 77.8983L66.7148 73.5936L70.0784 71.0316C70.4111 70.8189 70.6985 70.5426 70.9239 70.2185C71.1493 69.8944 71.3084 69.5289 71.3918 69.1431C71.4267 68.3453 71.2719 67.5506 70.9401 66.8242C70.2891 65.3097 69.5102 63.8534 68.612 62.4709L68.4035 62.7208L74.4357 65.3939L74.679 65.505V65.2411C74.3037 61.9918 73.984 59.2771 73.7616 57.3261C73.6435 56.4096 73.5531 55.6667 73.4837 55.1182C73.4608 54.8558 73.4166 54.5958 73.3516 54.3406C73.3461 54.6026 73.3577 54.8647 73.3863 55.1251C73.435 55.6806 73.5045 56.4235 73.5879 57.3469C73.7825 59.2979 74.0535 62.0196 74.3732 65.2759L74.5886 65.1231L68.5564 62.4014L68.056 62.1723L68.3479 62.6514C69.2278 64.0183 69.9926 65.4558 70.6343 66.9491C70.9438 67.621 71.0937 68.3552 71.0722 69.0945C70.9118 69.783 70.4876 70.3813 69.8907 70.7609L66.548 73.3298L60.8841 77.7039L57.0827 80.6755L56.0611 81.4948C55.9258 81.5806 55.8021 81.6833 55.6927 81.8003Z" fill="#2D2F34"/>
<path d="M53.6079 82.2378C53.5448 82.111 53.4704 81.9902 53.3855 81.8767L52.6906 80.8908L50.1679 77.2735C49.1046 75.746 47.8398 73.9339 46.4638 71.8927C45.7688 70.872 45.0739 69.8097 44.3442 68.6711C43.9828 68.1087 43.6492 67.5324 43.2948 66.9353C42.9061 66.3881 42.6666 65.7492 42.5998 65.0815C42.6547 64.6416 42.7981 64.2174 43.0214 63.8344C43.2448 63.4513 43.5434 63.1174 43.8994 62.8528C44.5655 62.2819 45.3038 61.801 46.0954 61.4225L46.9294 61.0129L46.0051 61.1032L39.4725 61.7142L39.5907 61.9502L43.5936 57.2081L44.6847 55.882C44.8148 55.7274 44.9355 55.5651 45.0461 55.396C44.8871 55.5233 44.7426 55.6676 44.6152 55.8265L43.4685 57.097L39.3752 61.7628L39.1389 62.0266H39.4934L46.0399 61.4642L45.9564 61.1448C45.1304 61.5285 44.3611 62.0237 43.6701 62.6168C43.3048 62.9276 42.9844 63.2874 42.718 63.686C42.4359 64.0968 42.2724 64.5772 42.2454 65.0746C42.2383 65.2641 42.2593 65.4536 42.3079 65.637L42.3774 65.9147L42.4886 66.1646C42.6364 66.4878 42.801 66.803 42.982 67.1089C43.3226 67.7129 43.677 68.2962 44.0453 68.8585C44.7403 69.9903 45.4908 71.0595 46.1858 72.0732C47.5757 74.1075 48.8683 75.9127 49.9594 77.4193C51.0505 78.926 51.947 80.134 52.5725 80.9672L53.3022 81.9184C53.3907 82.0369 53.4934 82.1441 53.6079 82.2378Z" fill="#2D2F34"/>
<path d="M52.3428 70.5597L52.1343 70.4486C51.9745 70.3723 48.1939 68.4282 46.4148 65.7829C44.6357 63.1376 48.4997 51.4317 49.2781 49.1196L50.5915 49.5709C48.7151 55.049 46.533 63.457 47.5684 65.0053C48.9584 67.0327 51.7799 68.6782 52.5652 69.1086C54.6501 68.7198 59.5148 67.6367 60.8699 66.5953C62.8019 65.1303 68.4589 55.1045 70.4743 51.3692L71.6974 52.0288C70.9399 53.4174 64.2266 65.7829 61.7108 67.6992C59.758 69.185 53.3019 70.3862 52.5721 70.5181L52.3428 70.5597Z" fill="#5F646F"/>
<path d="M66.0405 7.36394C68.3895 5.09356 73.7893 5.81564 74.9707 7.48891C75.9617 7.10607 77.0617 7.11564 78.0459 7.51566C79.03 7.91567 79.8243 8.67596 80.2663 9.64125L85.9511 11.2798C86.9453 11.478 87.873 11.9247 88.6475 12.5782C89.3424 13.2725 89.6343 14.55 88.9533 15.2998C90.9548 15.9941 91.5524 19.0352 89.9471 20.396C90.1262 20.634 90.2549 20.9058 90.3255 21.1951C90.396 21.4843 90.407 21.7849 90.3576 22.0785C90.3082 22.3721 90.1994 22.6525 90.0381 22.9028C89.8767 23.1531 89.666 23.3679 89.4189 23.5343C90.8871 25.5499 91.9989 27.802 92.706 30.1927C93.0956 31.1685 93.1276 32.2505 92.7964 33.2476C92.3725 34.1988 91.0451 34.7889 90.2389 34.1224C90.4971 34.542 90.6291 35.0268 90.6193 35.5192C90.6094 36.0116 90.4581 36.4907 90.1833 36.8996C91.1563 36.9899 91.3439 38.5104 90.6281 39.1769C89.9123 39.8435 88.8212 39.8712 87.8483 39.7602C86.8754 39.6491 85.826 39.5519 84.9851 40.0587C84.9859 40.1784 85.011 40.2967 85.0588 40.4064C85.1066 40.5162 85.1761 40.6152 85.2631 40.6975C86.0446 41.3729 86.5361 42.3228 86.6358 43.3504C86.7354 44.378 86.4355 45.4045 85.7982 46.2172L85.4507 46.6407C84.8322 47.4044 83.3658 48.0293 82.4832 48.4459C80.2038 49.4457 78.9042 49.1402 76.4162 49.3416C76.9861 50.9732 72.7538 54.2017 68.4034 50.4663C60.0658 52.2739 51.5101 52.8655 43.0027 52.2229C41.6545 52.1396 40.0422 51.848 39.5279 50.6052C38.9633 50.6739 38.3906 50.5985 37.8631 50.386C37.3356 50.1736 36.8707 49.8309 36.5118 49.3902C35.8051 48.5025 35.2573 47.4995 34.8925 46.4255C33.7518 46.0113 32.7667 45.2557 32.0714 44.2617C31.3762 43.2677 31.0048 42.0837 31.0077 40.871C30.2597 40.1952 29.6598 39.3718 29.246 38.4529C28.8321 37.534 28.6133 36.5394 28.6032 35.5319C28.0626 35.2976 27.5762 34.9543 27.1745 34.5236C26.7728 34.0929 26.4645 33.5839 26.2688 33.0286C26.073 32.4733 25.9942 31.8836 26.0371 31.2965C26.0801 30.7093 26.2439 30.1374 26.5183 29.6164C27.1895 26.8603 28.3145 24.2348 29.8471 21.8471C28.3252 21.4097 27.8735 19.2921 28.6101 17.8826C29.3468 16.4732 30.8062 15.64 32.1961 14.8763C31.0216 15.1054 30.1112 13.5918 30.4587 12.4462C30.8062 11.3006 31.9112 10.5647 32.9814 10.0162C34.5458 9.21121 36.2028 8.60033 37.9156 8.1971C38.6106 6.19751 41.3556 4.03128 43.3224 3.27449C51.2518 0.143177 56.7003 -0.419209 66.0336 7.39171" fill="#2D2F34"/>
<path d="M43.4895 35.6499C43.2141 35.2942 42.8564 35.0107 42.447 34.8236H42.5304C42.454 34.8236 42.3776 34.782 42.3011 34.7611C42.1626 34.7027 42.0137 34.6726 41.8633 34.6726C41.7129 34.6726 41.564 34.7027 41.4255 34.7611C40.9307 34.8952 40.5026 35.2066 40.2232 35.636C40.0011 36.0213 39.8895 36.4603 39.9005 36.9049C39.9116 37.3494 40.0448 37.7824 40.2857 38.1563C40.449 38.501 40.7147 38.7869 41.0465 38.9752C41.3784 39.1636 41.7603 39.2451 42.1402 39.2086C42.5202 39.1722 42.8796 39.0196 43.1696 38.7716C43.4595 38.5237 43.6659 38.1924 43.7605 37.823C43.8999 37.4669 43.9481 37.0816 43.9008 36.7021C43.8534 36.3226 43.7121 35.961 43.4895 35.6499Z" fill="#90959F"/>
<path d="M43.6559 20.6045C44.615 15.3555 48.8959 9.28038 54.0803 10.4607L70.0643 16.5706C70.8271 16.7439 71.4971 17.1966 71.9423 17.8392C72.3874 18.4819 72.5753 19.2678 72.4689 20.0421L67.5417 54.3407L54.8309 63.6791C54.7266 62.9848 49.2365 54.3407 49.2365 54.3407C48.9515 51.7857 48.6596 48.9598 48.6596 48.9737C48.6596 48.9876 42.0298 47.0505 41.7101 38.0662C41.5155 33.6018 42.5927 26.4158 43.6559 20.6045Z" fill="#936760"/>
<path d="M44.5592 28.0335C44.5212 28.3274 44.5994 28.6246 44.7771 28.8618C44.9549 29.0991 45.2183 29.2577 45.5113 29.3041C45.6542 29.3322 45.8013 29.3316 45.944 29.3023C46.0867 29.273 46.2222 29.2157 46.3425 29.1336C46.4628 29.0516 46.5655 28.9464 46.6447 28.8243C46.724 28.7022 46.7781 28.5655 46.8039 28.4223C46.8418 28.1273 46.7627 27.8293 46.5834 27.5918C46.4042 27.3544 46.1392 27.1964 45.8449 27.1517C45.7023 27.1227 45.5553 27.1226 45.4127 27.1515C45.2701 27.1805 45.1347 27.2378 45.0148 27.32C44.8948 27.4023 44.7926 27.5079 44.7143 27.6305C44.6361 27.753 44.5833 27.8901 44.5592 28.0335Z" fill="#2D2F34"/>
<path d="M44.7747 24.5271C44.8998 24.6938 45.831 24.1592 47.0472 24.305C48.2634 24.4508 49.0834 25.1728 49.2363 25.034C49.3892 24.8951 49.1946 24.6938 48.8402 24.3397C48.3558 23.9121 47.7519 23.6432 47.1098 23.569C46.4777 23.496 45.8387 23.6222 45.282 23.93C44.872 24.2008 44.7122 24.4577 44.7747 24.5271Z" fill="#2D2F34"/>
<path d="M55.6509 29.0886C55.6149 29.3833 55.6947 29.6804 55.8736 29.9175C56.0525 30.1545 56.3165 30.3128 56.61 30.3592C56.7525 30.3873 56.8992 30.3866 57.0414 30.3573C57.1837 30.3279 57.3186 30.2705 57.4384 30.1884C57.5581 30.1063 57.6603 30.0011 57.7388 29.879C57.8173 29.7569 57.8706 29.6204 57.8957 29.4775C57.9335 29.1825 57.8544 28.8844 57.6752 28.647C57.496 28.4096 57.2309 28.2516 56.9366 28.2069C56.794 28.1778 56.647 28.1778 56.5044 28.2067C56.3618 28.2356 56.2265 28.2929 56.1065 28.3752C55.9865 28.4575 55.8844 28.5631 55.8061 28.6856C55.7278 28.8082 55.6751 28.9453 55.6509 29.0886Z" fill="#2D2F34"/>
<path d="M56.7209 26.1726C56.839 26.3392 57.7772 25.8046 58.9934 25.9504C60.2095 26.0962 61.0296 26.8114 61.1825 26.6447C61.3354 26.4781 61.1408 26.3045 60.7864 25.9504C60.3011 25.5254 59.6972 25.2589 59.0559 25.1867C58.4237 25.1099 57.7835 25.2363 57.2282 25.5477C56.8182 25.8463 56.6514 26.0962 56.7209 26.1726Z" fill="#2D2F34"/>
<path d="M51.2311 34.671C50.6112 34.3963 49.9601 34.1981 49.2922 34.0809C48.9864 34.0114 48.7014 33.9142 48.6736 33.699C48.6847 33.3757 48.7937 33.0634 48.9864 32.8033L50.1887 30.5816C51.8635 27.36 53.1214 24.7008 52.9685 24.6383C52.8156 24.5758 51.3701 27.1239 49.6952 30.3386C49.2922 31.137 48.903 31.8938 48.5347 32.6159C48.294 32.9677 48.1857 33.3931 48.2289 33.817C48.2607 33.9321 48.3187 34.0383 48.3982 34.1274C48.4777 34.2165 48.5768 34.2861 48.6876 34.3308C48.8523 34.3989 49.0252 34.4455 49.2018 34.4697C49.867 34.6223 50.5489 34.69 51.2311 34.671Z" fill="#2D2F34"/>
<path d="M48.6803 48.9737C52.8276 49.5343 57.0493 48.9359 60.8768 47.2449C60.8768 47.2449 58.1456 53.4033 48.9861 51.8342L48.6803 48.9737Z" fill="#6F4C47"/>
<path d="M51.092 37.5871C51.4143 37.2173 51.822 36.9318 52.2798 36.7551C52.7375 36.5785 53.2316 36.5161 53.7189 36.5734C54.0362 36.6141 54.3385 36.7324 54.5991 36.9176C54.8597 37.1029 55.0706 37.3495 55.2131 37.6357C55.3717 37.9647 55.4262 38.3342 55.3694 38.695C55.3126 39.0558 55.1473 39.3908 54.8953 39.6553C54.6433 39.9199 54.3166 40.1016 53.9587 40.1761C53.6009 40.2507 53.2288 40.2146 52.8919 40.0727C52.2406 39.7721 51.671 39.3197 51.231 38.7535C51.0858 38.6122 50.9721 38.4418 50.8974 38.2536C50.8614 38.1499 50.854 38.0385 50.8761 37.931C50.8981 37.8234 50.9486 37.7238 51.0225 37.6426" fill="#6F4C47"/>
<path d="M54.7124 35.9416C54.5178 35.9069 54.3579 37.2261 53.114 38.0245C51.87 38.823 50.4801 38.5105 50.4523 38.7188C50.4523 38.7952 50.7372 39.0104 51.3279 39.1007C52.1018 39.1987 52.8857 39.0244 53.5448 38.6077C54.1777 38.207 54.6271 37.5735 54.7958 36.8442C54.9139 36.2887 54.8027 35.9416 54.7124 35.9416Z" fill="#2D2F34"/>
<path d="M56.7768 21.0972C56.8533 21.4443 58.0903 21.4305 59.5011 21.7915C60.9118 22.1525 62.0168 22.6594 62.2392 22.3886C62.3435 22.2567 62.1767 21.9165 61.7527 21.5416C61.1811 21.069 60.5042 20.7404 59.7791 20.5834C59.0594 20.412 58.3096 20.412 57.5899 20.5834C57.034 20.7084 56.7421 20.9375 56.7768 21.0972Z" fill="#2D2F34"/>
<path d="M45.699 20.3892C45.8797 20.6947 46.7553 20.5072 47.7839 20.6114C48.8124 20.7155 49.6255 21.021 49.8687 20.7502C49.973 20.6252 49.8687 20.3267 49.5282 20.0559C49.0636 19.6852 48.4994 19.4603 47.9069 19.4096C47.3145 19.359 46.7203 19.4848 46.1993 19.7713C45.7754 19.9726 45.6225 20.2434 45.699 20.3892Z" fill="#2D2F34"/>
<path d="M39.3681 24.5621C39.505 23.1645 40.1212 21.8572 41.1124 20.8615C41.7248 20.4056 42.3118 19.9165 42.8707 19.3965C43.9617 18.1606 43.9548 16.3346 44.4969 14.7794C44.8597 13.7808 45.4546 12.8824 46.2327 12.1582C47.0107 11.434 47.9497 10.9046 48.9724 10.6135C50.675 10.1414 52.5514 10.3636 54.1706 9.64846C55.366 9.12079 56.325 8.12794 57.5481 7.6697C59.9388 6.78793 62.531 8.1696 64.6158 9.62763C64.9216 11.3912 63.7194 12.8075 62.531 14.1684C61.9448 14.8472 61.218 15.3907 60.4008 15.7611C59.5837 16.1316 58.6957 16.3201 57.7983 16.3138C56.4084 16.3138 54.817 15.8694 53.7676 16.779C52.7182 17.6885 52.9336 19.5978 52.0024 20.7296C50.675 22.3403 47.9925 21.4933 46.1161 22.4098C44.6636 23.1041 43.9617 24.7357 43.1556 26.1382C42.3494 27.5407 41.029 28.9154 39.4306 28.7557C39.2444 27.3652 39.2234 25.9576 39.3681 24.5621Z" fill="#2D2F34"/>
<path d="M60.9326 12.5298C64.9899 12.7563 68.9645 13.7679 72.6357 15.5083C73.7751 15.9386 74.7484 16.7189 75.4155 17.7371C75.8373 18.7162 75.9723 19.7948 75.8047 20.8475C75.5267 24.1594 73.8866 28.1169 72.3994 31.0885L68.0768 33.2617C64.9425 32.2758 66.812 26.881 67.1664 24.1316C66.0937 23.5448 65.2076 22.6687 64.6092 21.6032C64.0108 20.5376 63.7242 19.3255 63.7819 18.105C62.9198 17.4479 62.2162 16.6058 61.7231 15.6409C61.23 14.676 60.9599 13.6128 60.9326 12.5298Z" fill="#2D2F34"/>
<path d="M68.2227 32.0741C68.4868 30.1925 70.8427 29.9912 72.3925 31.0882C73.2473 31.6922 73.8449 32.8031 73.5809 34.8027C72.8859 40.1489 67.6529 38.3437 67.6668 38.1909C67.6807 38.0382 67.91 34.282 68.2227 32.0741Z" fill="#936760"/>
<path d="M69.5709 36.3791C69.5709 36.3791 69.6543 36.4555 69.8003 36.5458C70.0097 36.6688 70.2578 36.7085 70.4952 36.6569C71.0929 36.518 71.6836 35.6848 71.8365 34.7267C71.9114 34.2633 71.8829 33.7892 71.7531 33.3381C71.7233 33.1647 71.6521 33.001 71.5457 32.8608C71.4393 32.7206 71.3006 32.6081 71.1415 32.5327C71.0382 32.4916 70.924 32.4871 70.8177 32.52C70.7115 32.5528 70.6198 32.621 70.5578 32.7132C70.4674 32.859 70.4883 32.9701 70.4605 32.9701C70.4327 32.9701 70.3562 32.866 70.4257 32.6507C70.4753 32.5233 70.5657 32.4158 70.6829 32.3452C70.7629 32.2986 70.8515 32.2684 70.9434 32.2565C71.0353 32.2446 71.1286 32.2512 71.218 32.2758C71.4316 32.3486 71.623 32.4749 71.7739 32.6427C71.9247 32.8104 72.03 33.014 72.0797 33.2339C72.2492 33.7269 72.2922 34.2545 72.2048 34.7684C72.0311 35.8376 71.35 36.7749 70.5439 36.8929C70.395 36.9157 70.2429 36.9051 70.0987 36.8619C69.9544 36.8186 69.8216 36.7439 69.7099 36.643C69.564 36.5111 69.5501 36.3861 69.5709 36.3791Z" fill="#6F4C47"/>
<path d="M72.4899 37.7953C72.2124 37.4435 71.8551 37.1627 71.4475 36.976H71.5309C71.4564 36.9486 71.3796 36.9277 71.3015 36.9135C71.163 36.8551 71.0141 36.825 70.8637 36.825C70.7133 36.825 70.5645 36.8551 70.4259 36.9135C69.9311 37.0475 69.5031 37.359 69.2236 37.7883C69.0019 38.1723 68.8898 38.6096 68.8996 39.0528C68.9094 39.4959 69.0407 39.9279 69.2792 40.3017C69.4419 40.6464 69.707 40.9327 70.0384 41.1215C70.3698 41.3103 70.7514 41.3925 71.1312 41.3568C71.5111 41.3212 71.8707 41.1694 72.161 40.9222C72.4514 40.675 72.6585 40.3444 72.754 39.9754C72.8937 39.6185 72.9427 39.2326 72.8966 38.8521C72.8506 38.4717 72.7108 38.1086 72.4899 37.7953Z" fill="#90959F"/>
<path d="M70.0017 38.6773C70.0001 38.7027 70.0001 38.7282 70.0017 38.7537C70.0162 38.8248 70.0372 38.8946 70.0642 38.962C70.1815 39.2234 70.3852 39.4367 70.6411 39.566C71.0482 39.7795 71.4957 39.9048 71.9545 39.934C72.2411 39.9621 72.5297 39.9621 72.8163 39.934C73.1471 39.9101 73.4726 39.8376 73.7823 39.7188L73.7197 39.6771C73.7598 40.1373 73.9186 40.5793 74.1806 40.9599C74.4426 41.3405 74.7989 41.6468 75.2147 41.8489C75.6304 42.051 76.0916 42.142 76.553 42.1131C77.0145 42.0841 77.4606 41.9361 77.8478 41.6836H77.7574C77.8327 41.8123 77.9329 41.9247 78.0523 42.0141C78.1716 42.1035 78.3076 42.1682 78.4524 42.2044C78.7378 42.2913 79.0426 42.2913 79.328 42.2044C79.6263 42.1207 79.888 41.9398 80.0716 41.6906C80.2573 41.435 80.3745 41.1362 80.4122 40.8227C80.4826 40.1766 80.32 39.5267 79.9535 38.9897C79.5805 38.4429 79.1391 37.9459 78.64 37.5109V37.6358C78.8725 37.5071 79.0762 37.3324 79.2388 37.1223C79.4013 36.9121 79.5191 36.6711 79.5852 36.4139C79.7281 35.889 79.7136 35.3337 79.5435 34.817C79.3555 34.3042 79.07 33.8326 78.7026 33.4284C78.3309 33.0154 77.934 32.6259 77.5142 32.2619V32.38C77.7216 32.187 77.8858 31.9524 77.996 31.6915C78.1062 31.4307 78.1599 31.1495 78.1535 30.8664C78.1606 30.2837 77.991 29.7125 77.6671 29.2278C77.001 28.3754 76.1504 27.6847 75.1791 27.2074L75.2208 27.3046C75.401 26.7556 75.4453 26.1711 75.35 25.6012C75.2547 25.0313 75.0226 24.493 74.6735 24.0323C74.3244 23.5717 73.8688 23.2024 73.3457 22.9561C72.8225 22.7098 72.2474 22.5938 71.6696 22.618L71.746 22.7152C71.8647 22.2594 71.8782 21.7825 71.7856 21.3207C71.6929 20.8588 71.4964 20.424 71.2109 20.0491C70.9597 19.6912 70.634 19.3917 70.2562 19.1712C69.8783 18.9507 69.4573 18.8144 69.0218 18.7716L69.0844 18.841C69.1039 18.3838 69.0203 17.9281 68.8399 17.5075C68.6595 17.0869 68.3868 16.7122 68.0419 16.411C67.7459 16.1396 67.3984 15.9303 67.02 15.7955C66.6416 15.6608 66.24 15.6033 65.8389 15.6264L65.8945 15.6889C65.9002 15.2056 65.7856 14.7284 65.5609 14.3003C65.3667 13.8987 65.1033 13.5344 64.7826 13.2241C64.3083 12.7279 63.6825 12.4031 63.0035 12.3007H62.8019C62.7394 12.2972 62.6768 12.2972 62.6143 12.3007C62.5009 12.2933 62.3872 12.2933 62.2738 12.3007C62.0953 12.322 61.9188 12.3568 61.7456 12.4048L61.4398 12.509L61.3356 12.5506C61.3356 12.5506 61.3703 12.5506 61.4468 12.5506L61.7525 12.4604C61.924 12.4182 62.0981 12.3881 62.2738 12.3701C62.3872 12.363 62.5009 12.363 62.6143 12.3701H62.8019H62.9965C63.6604 12.4806 64.269 12.8078 64.727 13.3005C65.0155 13.601 65.2505 13.9485 65.4219 14.3281C65.6425 14.7569 65.7501 15.2348 65.7347 15.7167V15.7791H65.7903C66.1713 15.7598 66.5524 15.8174 66.9106 15.9486C67.2689 16.0799 67.5969 16.282 67.8751 16.5429C68.2051 16.8326 68.4657 17.1926 68.6377 17.5964C68.8097 18.0001 68.8887 18.4374 68.8689 18.8757V18.9382H68.9384C69.3543 18.983 69.7556 19.1165 70.1153 19.3297C70.4751 19.5429 70.7847 19.8309 71.0233 20.1741C71.2948 20.5304 71.4815 20.9437 71.5694 21.3828C71.6573 21.8218 71.644 22.2751 71.5306 22.7083V22.8124H71.6418C72.1938 22.7889 72.7432 22.8997 73.2428 23.1351C73.7425 23.3706 74.1775 23.7237 74.5104 24.1642C74.8433 24.6047 75.0642 25.1193 75.154 25.6639C75.2439 26.2085 75.2 26.7668 75.0262 27.2907V27.3532H75.0888C76.035 27.8205 76.8639 28.4944 77.5142 29.325C77.823 29.7794 77.9855 30.3172 77.9798 30.8664C77.983 31.1261 77.9321 31.3836 77.8305 31.6227C77.7288 31.8617 77.5785 32.077 77.3891 32.255L77.3196 32.3105L77.3891 32.373C78.2566 33.0253 78.9431 33.888 79.3836 34.8795C79.5406 35.3654 79.5527 35.8865 79.4184 36.3792C79.3603 36.615 79.2536 36.8362 79.1053 37.0287C78.9569 37.2211 78.7701 37.3806 78.5566 37.497L78.4593 37.5456L78.5358 37.622C79.0267 38.0487 79.4611 38.5364 79.8284 39.073C80.1773 39.5807 80.3327 40.1965 80.2662 40.8088C80.2483 41.0931 80.1463 41.3656 79.973 41.5918C79.7998 41.8181 79.5632 41.9878 79.2933 42.0794C79.045 42.1691 78.774 42.1741 78.5226 42.0937C78.2711 42.0133 78.0534 41.852 77.9034 41.635L77.8686 41.5725L77.813 41.6073C77.4084 41.8663 76.9402 42.0091 76.4597 42.0202C75.9792 42.0312 75.5049 41.91 75.0888 41.6697C74.7435 41.4582 74.4513 41.1705 74.2345 40.8287C74.0177 40.487 73.882 40.1002 73.8379 39.6979V39.6077H73.7823C73.4826 39.7277 73.1661 39.8003 72.8441 39.8229C72.562 39.8471 72.2783 39.8471 71.9962 39.8229C71.5467 39.7934 71.1074 39.6754 70.7036 39.4757C70.4494 39.3552 70.2436 39.152 70.1198 38.8995C70.0747 38.8286 70.0352 38.7543 70.0017 38.6773Z" fill="#5F646F"/>
<path d="M90.8853 34.428C90.974 34.3359 91.051 34.2333 91.1147 34.1225C91.3001 33.8014 91.4228 33.4479 91.476 33.081C91.5633 32.4875 91.4509 31.8819 91.1564 31.3591C90.9611 31.0112 90.6951 30.708 90.3756 30.4688C90.056 30.2297 89.6899 30.0599 89.3008 29.9705L89.3425 30.033C89.5916 29.1352 89.4872 28.1763 89.0506 27.353C88.8184 26.8901 88.4889 26.4828 88.0847 26.1588C87.6474 25.8498 87.182 25.5825 86.6947 25.3604C86.4412 25.2379 86.207 25.0788 85.9998 24.8882C85.7979 24.6958 85.6453 24.4577 85.555 24.1939C85.3535 23.6663 85.3257 23.0483 85.0616 22.472C84.7814 21.8829 84.3313 21.3909 83.769 21.0593C83.2068 20.7278 82.5582 20.5717 81.9065 20.6113L81.9968 20.7085C82.1369 20.0632 82.1268 19.3944 81.9672 18.7537C81.8077 18.1129 81.503 17.5173 81.0766 17.0128C80.6502 16.5084 80.1135 16.1084 79.5079 15.844C78.9024 15.5795 78.2441 15.4575 77.5838 15.4874L77.6672 15.5846C77.7966 14.8746 77.7201 14.1425 77.4467 13.4746C77.1733 12.8066 76.7145 12.2307 76.1243 11.8148C75.5341 11.3988 74.8371 11.1601 74.1156 11.1268C73.394 11.0936 72.678 11.2671 72.052 11.627H72.1354C71.6366 11.0756 71.0252 10.6376 70.3424 10.3426C69.737 10.0693 69.0996 9.87337 68.4452 9.75934C67.3882 9.56785 66.3053 9.56785 65.2484 9.75934C64.5669 9.86811 63.9074 10.0861 63.2955 10.405C63.135 10.4871 62.9816 10.5823 62.8369 10.6897L62.684 10.7939C62.684 10.7939 62.8994 10.655 63.3164 10.4398C63.9309 10.1418 64.5869 9.93813 65.2623 9.83572C66.3109 9.66606 67.3814 9.68251 68.4243 9.88432C69.068 10.0002 69.694 10.1985 70.2868 10.4745C70.9531 10.7611 71.5485 11.1901 72.0311 11.7312L72.0659 11.7728H72.1145C72.6899 11.4582 73.3374 11.2991 73.9932 11.3113C74.649 11.3234 75.2902 11.5065 75.8534 11.8423C76.4648 12.2364 76.9473 12.8009 77.2413 13.466C77.5352 14.131 77.6277 14.8676 77.5074 15.5846V15.6818H77.6047C78.2393 15.6563 78.8713 15.776 79.4526 16.0318C80.0338 16.2875 80.5489 16.6726 80.9585 17.1575C81.3681 17.6424 81.6614 18.2144 81.8161 18.8298C81.9707 19.4452 81.9827 20.0878 81.8509 20.7085V20.8196H81.9551C82.5742 20.7831 83.1901 20.9312 83.7247 21.2452C84.2593 21.5592 84.6883 22.0249 84.9573 22.5831C85.2075 23.1247 85.2423 23.7357 85.4508 24.2981C85.5518 24.579 85.7158 24.8331 85.9303 25.041C86.1375 25.2373 86.3714 25.4032 86.6252 25.5339C87.1099 25.753 87.5749 26.0131 88.0152 26.3115C88.4058 26.6225 88.7256 27.0131 88.9534 27.4571C89.3787 28.2536 89.4855 29.1817 89.2522 30.0538V30.1094H89.3078C89.6834 30.1914 90.0379 30.3503 90.3489 30.5762C90.66 30.8021 90.9207 31.09 91.1147 31.4216C91.4029 31.9266 91.5199 32.5111 91.4482 33.088C91.4034 33.4507 91.2902 33.8018 91.1147 34.1225C90.9618 34.3238 90.8784 34.421 90.8853 34.428Z" fill="#5F646F"/>
<path d="M39.4027 32.1437C39.4439 32.0794 39.4703 32.0069 39.4799 31.9312C39.4895 31.8555 39.4821 31.7787 39.4583 31.7062C39.4027 31.5283 39.305 31.3663 39.1734 31.2341C38.9885 31.0646 38.771 30.9347 38.534 30.8522C38.2436 30.7581 37.9694 30.6199 37.7209 30.4426C37.4466 30.2088 37.2563 29.8919 37.1789 29.54C37.0841 29.1324 37.07 28.7102 37.1372 28.2972C37.1858 27.8598 37.2901 27.3946 37.3248 26.9086C37.2955 25.8189 37.144 24.736 36.8731 23.6801C36.7736 23.0944 36.7925 22.4948 36.9287 21.9166C36.9957 21.6124 37.1271 21.3262 37.3141 21.0771C37.5011 20.828 37.7394 20.6218 38.0128 20.4724C38.6343 20.2286 39.283 20.0607 39.9448 19.9725C40.2949 19.9047 40.631 19.7779 40.9386 19.5976C41.2508 19.3994 41.5068 19.1245 41.6822 18.7991C41.9872 18.1315 42.2202 17.4332 42.3771 16.7162C42.4775 16.3668 42.6298 16.0345 42.8289 15.7303C43.031 15.4306 43.3266 15.206 43.6698 15.0916C44.1643 14.9981 44.6687 14.9677 45.1709 15.0013C45.4316 14.9968 45.6898 14.9499 45.9353 14.8624C46.1856 14.7732 46.4051 14.6142 46.5677 14.4042C46.8615 13.9975 47.0956 13.551 47.2627 13.0781C47.4316 12.6394 47.6922 12.2417 48.0272 11.9116C48.3435 11.5964 48.7216 11.3498 49.1377 11.1873C49.5539 11.0249 49.9992 10.95 50.4456 10.9674C51.286 11.0051 52.0807 11.3599 52.6695 11.9602L52.732 12.0297L52.7807 11.9464C53.1335 11.3091 53.6187 10.7545 54.2036 10.3198C54.7885 9.88517 55.4596 9.58042 56.1721 9.42603C56.7686 9.30851 57.3824 9.30851 57.9789 9.42603C58.488 9.51226 58.9775 9.6886 59.4244 9.94676C60.0524 10.314 60.5614 10.8538 60.8908 11.502C60.9774 11.671 61.0539 11.8448 61.1201 12.0227L61.1688 12.1616V12.2102V12.1616L61.1271 12.0158C61.0707 11.8318 60.9986 11.6529 60.9117 11.4812C60.5946 10.8142 60.0867 10.2561 59.4523 9.87733C58.999 9.60577 58.4996 9.41984 57.9789 9.32883C57.3707 9.21168 56.7456 9.21168 56.1373 9.32883C55.4087 9.48588 54.722 9.79622 54.1228 10.2392C53.5237 10.6821 53.0258 11.2475 52.6625 11.8977H52.7737C52.1625 11.2689 51.3357 10.8944 50.4595 10.8494C49.7443 10.8285 49.0401 11.0287 48.4431 11.4226C47.846 11.8165 47.3853 12.385 47.1237 13.0503C46.9686 13.5049 46.7535 13.9368 46.4843 14.3348C46.3263 14.5157 46.1289 14.6579 45.9072 14.7506C45.6855 14.8433 45.4455 14.8839 45.2056 14.8694C44.689 14.8392 44.1707 14.8742 43.6628 14.9735C43.2853 15.098 42.9585 15.3417 42.7316 15.6678C42.5246 15.987 42.3675 16.3358 42.266 16.7023C42.1068 17.4053 41.8739 18.0895 41.571 18.7436C41.4067 19.0484 41.1676 19.3064 40.876 19.4934C40.5815 19.6602 40.2626 19.7797 39.9309 19.8475C39.2564 19.9398 38.5959 20.1147 37.9642 20.3683C37.6649 20.5221 37.4074 20.746 37.2136 21.0209C37.0278 21.2885 36.8913 21.5871 36.8106 21.9027C36.6735 22.5021 36.657 23.1228 36.7619 23.7287C37.0338 24.773 37.19 25.8441 37.2275 26.9225C37.2275 27.4154 37.1024 27.8806 37.0538 28.3111C36.991 28.7343 37.0099 29.1656 37.1094 29.5817C37.1972 29.951 37.4019 30.2821 37.6931 30.5259C37.952 30.7027 38.2353 30.8407 38.534 30.9356C38.7645 31.0098 38.9773 31.1303 39.1595 31.2897C39.2911 31.4109 39.3892 31.5639 39.4444 31.734C39.4723 31.8716 39.4578 32.0145 39.4027 32.1437Z" fill="#5F646F"/>
<path d="M29.5831 23.0692L29.6456 22.972L29.8124 22.6874L30.4518 21.5626C30.7297 21.0766 31.0494 20.4656 31.4942 19.806C31.9572 19.0354 32.6295 18.4118 33.4331 18.0078C33.8848 17.8064 34.3991 17.6884 34.9203 17.5009C35.1881 17.4043 35.4445 17.2785 35.6848 17.126C35.9374 16.9464 36.1426 16.7081 36.2825 16.4317C36.5743 15.8971 36.6299 15.2653 36.8732 14.7029C36.9884 14.4171 37.19 14.1743 37.45 14.0086C37.7257 13.8484 38.0264 13.7358 38.3395 13.6753C38.672 13.6046 38.9976 13.5047 39.3125 13.3768C39.6434 13.2348 39.9208 12.9918 40.1047 12.6825C40.4023 12.0312 40.6081 11.3419 40.7163 10.6343C40.7917 10.2884 40.9385 9.96213 41.1472 9.67611C41.2596 9.54003 41.398 9.42762 41.5543 9.34538C41.7105 9.26314 41.8816 9.21272 42.0575 9.19704C42.7525 9.09984 43.517 9.39839 44.3162 9.33591C44.7128 9.2915 45.0863 9.12673 45.3864 8.86378C45.6638 8.60054 45.9109 8.3071 46.1231 7.98896C46.324 7.68121 46.5445 7.38668 46.7832 7.10719C47.0046 6.83425 47.2915 6.62168 47.6172 6.48926C48.2926 6.31598 49.0066 6.37216 49.6465 6.64895C50.2901 6.90738 50.9834 7.01888 51.6758 6.97527C52.3237 6.85432 52.9449 6.61923 53.5105 6.28097C54.0305 5.97281 54.5799 5.71698 55.1505 5.51724C56.2057 5.24398 57.3183 5.28989 58.3473 5.64915C59.201 5.93267 59.9784 6.40767 60.6199 7.03776C61.0977 7.52144 61.5006 8.07372 61.8152 8.67631C62.0043 9.06116 62.1623 9.4605 62.2877 9.87052C62.3294 10.0024 62.3642 10.1135 62.385 10.1899L62.4267 10.301C62.4267 10.301 62.4267 10.2593 62.4267 10.1899C62.4267 10.1205 62.3781 9.9955 62.3364 9.86358C62.2271 9.44539 62.0781 9.03854 61.8916 8.64855C61.5865 8.03327 61.188 7.46883 60.7102 6.97527C60.0447 6.34146 59.2439 5.86668 58.3682 5.58667C57.3157 5.21628 56.1774 5.16316 55.095 5.43392C54.5133 5.6338 53.9524 5.88958 53.4201 6.19765C52.8718 6.53526 52.2666 6.77052 51.6341 6.89195C50.9649 6.92531 50.2964 6.81401 49.6743 6.56564C49.3371 6.4507 48.9906 6.36475 48.6388 6.30874C48.2711 6.24512 47.8932 6.27619 47.5408 6.399C47.1862 6.55131 46.8756 6.79003 46.6373 7.0933C46.3871 7.37797 46.1856 7.6904 45.9424 7.98896C45.7429 8.29622 45.5098 8.58032 45.2474 8.83601C44.9721 9.07988 44.6267 9.23055 44.2606 9.26648C43.5239 9.33591 42.7803 9.03041 42.002 9.12761C41.6092 9.1762 41.2518 9.37846 41.0082 9.69C40.7844 9.99376 40.628 10.3417 40.5495 10.7106C40.4398 11.4021 40.2413 12.0765 39.9588 12.7172C39.7983 12.998 39.5558 13.2233 39.2638 13.3629C38.9591 13.489 38.6424 13.5844 38.3187 13.6475C37.988 13.7147 37.6708 13.8367 37.3805 14.0086C37.1013 14.1961 36.8838 14.4618 36.755 14.7723C36.5048 15.3625 36.4562 15.9873 36.1782 16.4942C35.8884 16.975 35.4262 17.3275 34.8856 17.4801C34.3783 17.6606 33.864 17.7856 33.3984 18.0008C32.5796 18.4159 31.897 19.0569 31.4316 19.8477C30.9938 20.542 30.6811 21.1391 30.4101 21.6251C30.139 22.1111 29.9444 22.4999 29.7985 22.7637C29.7359 22.8887 29.6804 22.9859 29.6456 23.0623C29.6109 23.1387 29.5483 23.0692 29.5831 23.0692Z" fill="#5F646F"/>
<path d="M35.7126 17.8689H35.6153C35.516 17.8548 35.4148 17.8693 35.3234 17.9106C35.1552 18.0004 35.0119 18.1305 34.9064 18.2893C34.8009 18.448 34.7365 18.6304 34.7188 18.8201C34.6973 19.0921 34.716 19.3659 34.7744 19.6324C34.8439 19.9397 34.8673 20.2556 34.8439 20.5697C34.7796 20.9251 34.6239 21.2577 34.3922 21.5348C34.1628 21.8473 33.8709 22.1389 33.6277 22.5138C33.4904 22.7052 33.3984 22.9253 33.3587 23.1574C33.319 23.3896 33.3326 23.6277 33.3984 23.8538C33.5374 24.3259 33.8431 24.7286 33.9682 25.2424C34.0741 25.7448 33.9847 26.2686 33.718 26.7074C33.4679 27.1795 33.1343 27.6378 32.891 28.1654C32.7591 28.4351 32.679 28.7272 32.6548 29.0264C32.6384 29.3336 32.6858 29.6409 32.7938 29.929C33.0494 30.4893 33.354 31.026 33.7041 31.5328C34.0643 32.0382 34.2229 32.6596 34.1489 33.2755C33.9547 33.8911 33.6913 34.4828 33.3636 35.039C33.2146 35.3438 33.1228 35.6732 33.0926 36.0111C33.0777 36.3469 33.1395 36.6816 33.2733 36.99C33.5602 37.5632 33.9123 38.1014 34.3227 38.5939C34.7042 39.0618 34.9856 39.6029 35.1497 40.1838C35.2562 40.7625 35.4025 41.3332 35.5875 41.8918C35.6978 42.1573 35.8664 42.3946 36.0809 42.5861C36.2984 42.7676 36.5451 42.9108 36.8106 43.0096C37.0602 43.1009 37.3039 43.2075 37.5403 43.329C37.759 43.4543 37.958 43.6111 38.131 43.7942C38.4466 44.1633 38.7129 44.5717 38.9233 45.0092C39.1456 45.4258 39.3402 45.8355 39.5765 46.2034C39.986 46.8877 40.6084 47.4193 41.3487 47.717C41.8983 47.9445 42.4919 48.0465 43.0861 48.0156C43.4622 47.9951 43.8328 47.9154 44.1841 47.7795C44.3039 47.7327 44.4201 47.677 44.5316 47.6129C44.0744 47.8129 43.5846 47.9282 43.0861 47.9531C42.5019 47.973 41.9206 47.8639 41.3834 47.6337C40.6675 47.3365 40.0676 46.8151 39.6738 46.1479C39.4514 45.7799 39.2569 45.3703 39.0414 44.9468C38.8258 44.4988 38.5524 44.081 38.2283 43.7039C38.0479 43.5078 37.8395 43.3394 37.6098 43.204C37.3685 43.0789 37.1202 42.9676 36.8662 42.8708C36.6129 42.781 36.3776 42.647 36.1712 42.475C35.9664 42.2838 35.8113 42.0454 35.7195 41.7807C35.5399 41.2263 35.3983 40.6603 35.2956 40.0866C35.1266 39.4854 34.8356 38.9253 34.4408 38.4411C34.0385 37.9609 33.6955 37.4341 33.4192 36.872C33.2915 36.5866 33.2343 36.2746 33.2524 35.9625C33.2766 35.6452 33.3641 35.336 33.5096 35.0529C33.845 34.4851 34.111 33.879 34.3018 33.2477C34.3604 32.9188 34.3389 32.5807 34.2393 32.2618C34.1391 31.9579 34.0038 31.6666 33.8362 31.3939C33.4882 30.8968 33.1858 30.3693 32.9327 29.8179C32.8314 29.5499 32.7864 29.2639 32.8007 28.9778C32.8263 28.6982 32.9016 28.4255 33.0231 28.1724C33.2524 27.6586 33.586 27.2073 33.8362 26.7143C34.1244 26.2477 34.2168 25.6864 34.0933 25.1522C33.9474 24.6384 33.6416 24.2357 33.5096 23.7635C33.4447 23.5541 33.4304 23.3323 33.4679 23.1163C33.5053 22.9003 33.5934 22.6962 33.725 22.5207C33.9543 22.1597 34.2392 21.8264 34.4686 21.5418C34.7106 21.2517 34.8692 20.9013 34.9273 20.5281C34.9473 20.204 34.9192 19.8788 34.8439 19.563C34.7849 19.3035 34.7615 19.0373 34.7744 18.7715C34.7879 18.5894 34.8456 18.4133 34.9424 18.2585C35.0393 18.1037 35.1724 17.9747 35.3303 17.8828C35.4548 17.8479 35.5859 17.8431 35.7126 17.8689Z" fill="#5F646F"/>
<path d="M90.7672 34.2405C90.908 34.2558 91.0502 34.2558 91.1911 34.2405C91.6044 34.1904 92.0024 34.0531 92.3586 33.8378C92.9395 33.5008 93.3825 32.9697 93.6095 32.3381C93.7598 31.9191 93.8153 31.4721 93.772 31.0291C93.7288 30.5861 93.5879 30.1582 93.3594 29.7761C93.0721 29.3456 92.7388 28.9475 92.3656 28.5889C91.9623 28.216 91.6507 27.755 91.4552 27.2419C91.3131 26.6678 91.3899 26.0615 91.6706 25.5409C91.9138 24.9785 92.2752 24.4439 92.5184 23.819C92.7856 23.1343 92.9067 22.4014 92.8739 21.6673C92.8411 20.9331 92.6552 20.2139 92.3281 19.5557C92.001 18.8975 91.5399 18.3149 90.9743 17.845C90.4087 17.3752 89.7511 17.0286 89.0437 16.8274L89.0854 16.9523C89.3575 16.6216 89.548 16.2315 89.6413 15.8137C89.7204 15.3915 89.7204 14.9583 89.6413 14.5362C89.5621 14.106 89.4093 13.6926 89.1896 13.3142C88.9583 12.9385 88.6752 12.5973 88.3487 12.3005C87.3507 11.4799 86.1754 10.9023 84.9156 10.6133C83.7429 10.2968 82.53 10.1541 81.3157 10.1898L81.3991 10.2731C81.4281 9.57532 81.2653 8.8829 80.9284 8.27095C80.5915 7.65899 80.0934 7.15085 79.488 6.80161C78.9249 6.47674 78.2894 6.29773 77.6394 6.28088C77.0264 6.30397 76.42 6.41625 75.8395 6.61415C75.5653 6.68963 75.2829 6.7316 74.9986 6.73913C74.7252 6.74335 74.4536 6.69381 74.1994 6.59332C73.7051 6.38801 73.2382 6.12214 72.8095 5.80181C72.4047 5.5127 71.9629 5.27918 71.496 5.10751C71.0627 4.94798 70.6086 4.8521 70.1478 4.82285C69.3644 4.76956 68.5807 4.92279 67.8753 5.2672C67.3506 5.52109 66.879 5.87214 66.4854 6.30171C66.2385 6.56805 66.026 6.86429 65.8529 7.18348C65.7906 7.2924 65.7372 7.40617 65.6931 7.52369C65.6931 7.52369 65.7487 7.40565 65.8738 7.19736C66.0573 6.88777 66.274 6.59909 66.5201 6.33643C66.9171 5.91968 67.3885 5.58061 67.91 5.33663C68.4617 5.0776 69.0602 4.93298 69.6694 4.9115C70.2785 4.89002 70.8857 4.99213 71.4543 5.21165C71.9118 5.38496 72.3442 5.61846 72.74 5.90596C73.1683 6.23435 73.635 6.50946 74.1299 6.72524C74.4005 6.82856 74.6881 6.88037 74.9777 6.87798C75.2736 6.87149 75.5676 6.82953 75.8534 6.75301C76.4223 6.55719 77.0172 6.4472 77.6186 6.42669C78.2457 6.44015 78.8595 6.60958 79.4046 6.91964C79.9839 7.2547 80.4605 7.7417 80.7826 8.3279C81.1048 8.91411 81.2603 9.57719 81.2323 10.2454V10.3287H81.3157C82.5136 10.3 83.7095 10.4426 84.867 10.7522C86.1017 11.0375 87.2532 11.6056 88.2306 12.4116C88.5476 12.6943 88.8215 13.0217 89.0437 13.3836C89.2551 13.7439 89.401 14.1388 89.4745 14.55C89.551 14.9515 89.551 15.3637 89.4745 15.7651C89.39 16.1584 89.2111 16.5253 88.9533 16.8343L88.8769 16.9315L88.995 16.9662C89.6824 17.1614 90.3215 17.4978 90.8714 17.9538C91.4212 18.4098 91.8698 18.9755 92.1884 19.6146C92.5069 20.2537 92.6884 20.9522 92.7213 21.6654C92.7543 22.3786 92.6378 23.0908 92.3795 23.7565C92.1432 24.3606 91.7888 24.9021 91.5386 25.4714C91.2484 26.0218 91.174 26.6605 91.3301 27.2627C91.5364 27.7908 91.8595 28.2655 92.2752 28.6514C92.6428 29.0033 92.9734 29.3918 93.2621 29.8108C93.4862 30.179 93.6262 30.5921 93.6718 31.0206C93.7175 31.4491 93.6677 31.8825 93.5261 32.2895C93.3083 32.9064 92.8835 33.4289 92.3239 33.7684C91.9776 33.9872 91.5894 34.1314 91.1841 34.1919C90.9131 34.2405 90.7672 34.2336 90.7672 34.2405Z" fill="#2D2F34"/>
<path d="M34.0863 14.0432C34.0863 14.0432 34.0863 14.0085 34.0863 13.9391L34.135 13.6405C34.1836 13.3698 34.2461 12.981 34.3295 12.488C34.4129 11.995 34.538 11.3841 34.7257 10.6897C34.9268 9.90329 35.2207 9.14348 35.6013 8.42632C36.0651 7.55919 36.7097 6.80155 37.4916 6.20455C37.9284 5.88022 38.414 5.62713 38.9302 5.4547C39.4926 5.30153 40.0634 5.18098 40.6397 5.09366C41.2559 4.99895 41.8481 4.78681 42.3841 4.46879C42.9279 4.11587 43.4232 3.69339 43.8574 3.2121C44.3091 2.73997 44.7469 2.24007 45.2473 1.82349C45.7443 1.34851 46.3299 0.975769 46.9708 0.726488C48.2347 0.274277 49.579 0.0898475 50.9182 0.184932C52.1688 0.235411 53.414 0.379299 54.6431 0.615397C56.7288 0.993811 58.7369 1.71651 60.585 2.75385C61.8298 3.45963 62.9536 4.3597 63.9139 5.41998C64.0807 5.60745 64.2335 5.77408 64.3586 5.92682L64.6575 6.31564L64.8451 6.55864L64.9077 6.63502C64.9077 6.63502 64.9076 6.63501 64.859 6.5517L64.6853 6.30175L64.4003 5.89211L63.9625 5.37832C63.0155 4.29451 61.8953 3.37485 60.6476 2.65665C58.7911 1.59882 56.7713 0.857344 54.6709 0.462655C53.4326 0.223799 52.1782 0.077586 50.9182 0.0252399C49.5579 -0.0724997 48.1922 0.114313 46.9083 0.573741C46.2635 0.827589 45.6718 1.19965 45.1639 1.67074C44.6566 2.12898 44.2188 2.62888 43.774 3.10101C43.3512 3.57196 42.8701 3.98725 42.3424 4.33687C41.8204 4.64995 41.2419 4.85754 40.6397 4.94786C40.0609 5.03699 39.4877 5.15986 38.9232 5.31584C38.3903 5.4918 37.8901 5.75455 37.4429 6.09346C36.6507 6.70496 35.999 7.47918 35.5318 8.36383C35.1507 9.09217 34.8591 9.8638 34.6631 10.662C34.5091 11.2593 34.3862 11.8641 34.2948 12.4741C34.2114 12.974 34.1627 13.3628 34.128 13.6267C34.128 13.7516 34.128 13.8558 34.128 13.9321C34.128 14.0085 34.0863 14.0432 34.0863 14.0432Z" fill="#2D2F34"/>
</g>
</svg>
