<svg width="152" height="177" viewBox="0 0 152 177" xmlns="http://www.w3.org/2000/svg">
<ellipse cx="75.8621" cy="100" rx="75.8621" ry="76.7242" fill="#E6EAF7"/>
<mask id="mask0" style="mask-type:alpha" maskUnits="userSpaceOnUse" x="0" y="0" width="152" height="177">
<path d="M152 0H0V102H0.0252726C1.07395 143.449 34.6258 176.724 75.8621 176.724C117.098 176.724 150.65 143.449 151.699 102H152V0Z" fill="#fff"/>
</mask>
<g mask="url(#mask0)">
<path d="M112.415 131.557C112.415 131.557 128.937 127.56 129.485 126.869L115.893 91.461C114.575 87.8233 112.466 84.5312 109.723 81.827C106.98 79.1228 103.672 77.0754 100.043 75.8358C94.8883 74.0208 89.45 73.1712 83.9945 73.3287L61.0517 72.1009C54.7342 72.4958 48.5679 74.2212 42.9481 77.1665C35.235 81.2335 29.21 87.9507 25.957 96.1097L15.6686 122.1L41.6437 127.588L42.6319 155.515L38.7187 194.047H110.354L109.857 132.974L112.415 131.557Z" fill="#FAFAFC"/>
<g opacity="0.3">
<path opacity="0.3" d="M126.656 122.243C126.656 122.323 122.392 123.739 117.056 125.401C111.72 127.063 107.417 128.354 107.395 128.256C107.372 128.159 111.652 126.76 116.994 125.093C122.336 123.425 126.633 122.163 126.656 122.243Z" fill="#fff"/>
</g>
<path d="M51.6837 97.3546C51.5175 97.1659 51.37 96.9613 51.2433 96.7435C50.9835 96.3437 50.5826 95.7726 50.0631 95.0873C49.4554 94.2905 48.8051 93.5279 48.115 92.8029C47.2706 91.9107 46.3729 91.0715 45.4271 90.2901C44.4697 89.5196 43.4685 88.8064 42.4287 88.1542C41.5748 87.6306 40.6946 87.1522 39.7916 86.7208C39.0237 86.3496 38.3856 86.0755 37.9395 85.8984C37.7007 85.8227 37.4714 85.7192 37.2562 85.59C37.5024 85.6354 37.7442 85.7023 37.979 85.7899C38.6233 86.003 39.2566 86.2489 39.8763 86.5266C40.8 86.9382 41.6993 87.4035 42.5698 87.9201C43.6266 88.5657 44.6413 89.2791 45.6078 90.056C46.5651 90.8465 47.4687 91.7013 48.3126 92.6145C48.9969 93.3631 49.6361 94.1527 50.2269 94.9788C50.6352 95.5277 51.0123 96.0998 51.3562 96.6921C51.4887 96.9003 51.5985 97.1224 51.6837 97.3546Z" fill="#2D2F34"/>
<path d="M48.3011 105.807C48.3801 105.807 47.5783 114.339 46.511 124.847C45.4438 135.355 44.5121 143.87 44.433 143.859C44.354 143.847 45.1502 135.327 46.2231 124.819C47.2959 114.31 48.2389 105.795 48.3011 105.807Z" fill="#2D2F34"/>
<path d="M104.707 90.0332C104.554 89.4692 104.432 88.8973 104.34 88.3199C104.053 86.9333 103.676 85.5673 103.211 84.2309C102.733 82.8956 102.167 81.5944 101.517 80.336C101.222 79.8274 100.954 79.3031 100.715 78.7655C100.715 78.7655 100.839 78.8855 101.014 79.1367C101.189 79.388 101.426 79.7649 101.703 80.2332C102.411 81.4757 103.008 82.7791 103.488 84.1281C103.967 85.4766 104.324 86.8663 104.555 88.28C104.639 88.8225 104.69 89.2622 104.713 89.5706C104.732 89.7243 104.73 89.88 104.707 90.0332V90.0332Z" fill="#2D2F34"/>
<path d="M106.153 119.816C106.084 119.54 106.039 119.259 106.017 118.976C105.944 118.439 105.859 117.651 105.763 116.692C105.577 114.75 105.379 112.055 105.277 109.079C105.176 106.104 105.181 103.397 105.232 101.444C105.261 100.467 105.289 99.679 105.323 99.1593C105.323 98.8754 105.351 98.5922 105.407 98.3141C105.44 98.5945 105.451 98.8771 105.441 99.1593V101.455C105.441 103.403 105.469 106.098 105.571 109.073C105.673 112.049 105.836 114.733 105.972 116.68C106.034 117.611 106.085 118.394 106.13 118.965C106.165 119.247 106.173 119.532 106.153 119.816V119.816Z" fill="#2D2F34"/>
<path d="M71.4586 114.83C65.4356 115.184 59.3946 115.07 53.3889 114.487V116.875H71.4586V114.83Z" fill="#F28080"/>
<g opacity="0.3">
<path opacity="0.3" d="M89.4606 75.3447C89.499 75.4613 89.5236 75.582 89.534 75.7045L89.6921 76.7553C89.805 77.6805 89.9631 79.0397 90.093 80.753C90.364 84.1795 90.6012 89.0624 90.6577 94.8247V95.0417L90.46 94.9503C86.8574 93.1742 82.82 91.2439 78.6018 89.1195L58.0645 78.7256L51.8531 75.5446L50.1591 74.6708L49.7299 74.4309C49.6774 74.4092 49.628 74.3804 49.5831 74.3453C49.6384 74.3587 49.6916 74.3799 49.7412 74.4081L50.1873 74.6137L51.8813 75.4418L58.1266 78.5371L78.7317 88.8511C82.9329 90.9755 86.9647 92.9116 90.5899 94.6991L90.3979 94.819C90.3358 89.0681 90.1382 84.1909 89.9123 80.7587C89.8107 79.0454 89.6751 77.6919 89.5904 76.761C89.5396 76.3155 89.5001 75.9615 89.4719 75.7045C89.4619 75.5848 89.4582 75.4647 89.4606 75.3447V75.3447Z" fill="#2D2F34"/>
</g>
<g opacity="0.3">
<path opacity="0.3" d="M46.2912 124.676C46.1895 124.674 46.0887 124.656 45.992 124.624L45.1506 124.424L42.0618 123.631C39.453 122.951 35.8504 122.032 31.8638 121.055C27.8771 120.078 24.2519 119.233 21.6262 118.628L18.5204 117.908L17.6791 117.703C17.5801 117.683 17.4836 117.652 17.3911 117.611C17.4904 117.597 17.5911 117.597 17.6904 117.611L18.543 117.765C19.2828 117.903 20.35 118.12 21.6713 118.394C24.3084 118.965 27.9392 119.759 31.9315 120.735C35.9238 121.712 39.5208 122.671 42.0957 123.396C43.3945 123.762 44.4447 124.065 45.1619 124.282L45.992 124.539C46.0964 124.573 46.1968 124.619 46.2912 124.676Z" fill="#fff"/>
</g>
<path d="M86.2814 71.0215C86.2814 70.9358 87.8343 71.7582 89.3307 74.0026C90.8271 76.247 92.188 79.7135 92.9616 83.7112C93.3172 85.5963 93.538 87.5049 93.6222 89.4221C93.6222 90.3016 93.6618 91.1354 93.6222 91.9178C93.5827 92.7002 93.5714 93.4255 93.5036 94.088C93.4359 94.7505 93.3681 95.3387 93.3117 95.8698C93.2552 96.4009 93.1535 96.8349 93.0914 97.2004C93.0564 97.5925 92.9651 97.9772 92.8204 98.3426C92.7857 97.9615 92.8009 97.5775 92.8656 97.2004L92.9841 95.8641C93.018 95.333 93.0519 94.7219 93.0858 94.088C93.1197 93.4541 93.0858 92.7116 93.1366 91.9407C93.1874 91.1697 93.0971 90.3416 93.0689 89.4793C92.9544 87.6007 92.7224 85.7314 92.3743 83.8825C91.7836 80.5206 90.6383 77.2831 88.9862 74.3053C88.4555 73.4264 87.8244 72.6137 87.1059 71.8839C86.8158 71.6117 86.5406 71.3239 86.2814 71.0215Z" fill="#2D2F34"/>
<path d="M60.6057 71.1871C60.2573 71.7913 59.8587 72.3645 59.4142 72.9004C58.3371 74.4651 57.4445 76.1517 56.7546 77.926C55.765 80.5687 55.1031 83.3252 54.7838 86.1326C54.3716 89.2965 54.2192 92.8372 53.9651 96.5436C53.7109 100.25 53.7674 103.779 53.7618 106.995C53.7561 110.21 53.7618 113.111 53.7618 115.561C53.7618 118.011 53.6996 119.976 53.6319 121.341C53.6383 122.05 53.5683 122.759 53.423 123.454C53.3032 122.754 53.2577 122.044 53.2874 121.335C53.2479 119.947 53.2027 117.982 53.1406 115.567C53.0785 113.151 52.9994 110.233 52.9543 107C52.9091 103.768 52.8978 100.227 53.0898 96.4922C53.2818 92.7573 53.5189 89.2336 53.982 86.0184C54.3493 83.153 55.0898 80.3493 56.1842 77.6804C56.9381 75.8871 57.9359 74.209 59.1488 72.6948C59.5642 72.1274 60.0544 71.6202 60.6057 71.1871V71.1871Z" fill="#2D2F34"/>
<path d="M98.5744 118.925C98.4826 118.301 98.4449 117.671 98.4614 117.04C98.4275 115.824 98.3993 114.065 98.3767 111.9C98.3767 110.81 98.3767 109.616 98.3428 108.348C98.3089 107.08 98.3428 105.698 98.2694 104.293C98.2309 102.838 97.7255 101.435 96.8295 100.296C96.3372 99.7183 95.7316 99.2506 95.0512 98.9222C94.3707 98.5939 93.6303 98.4121 92.8768 98.3883C91.3373 98.3924 89.8543 98.9744 88.7151 100.022C87.6628 101.016 86.9309 102.307 86.6145 103.728C86.2644 105.087 86.1176 106.452 85.9087 107.726L85.344 111.232C85.0052 113.374 84.7172 115.11 84.5082 116.304C84.4307 116.93 84.3023 117.549 84.1243 118.154C84.1217 117.522 84.1746 116.891 84.2824 116.269C84.4236 115.064 84.6438 113.322 84.9317 111.169C85.0786 110.09 85.2423 108.914 85.4117 107.651C85.5811 106.389 85.728 105.03 86.0781 103.602C86.4108 102.068 87.1988 100.674 88.3368 99.6047C89.5689 98.4606 91.1759 97.8178 92.8485 97.8001C93.6886 97.8208 94.515 98.0201 95.2738 98.3852C96.0327 98.7502 96.707 99.2728 97.253 99.9188C98.2235 101.152 98.767 102.672 98.8002 104.248C98.8849 105.71 98.8002 107.063 98.8002 108.342C98.8002 109.622 98.772 110.81 98.7551 111.895C98.7551 114.065 98.693 115.824 98.6534 117.035C98.678 117.666 98.6515 118.298 98.5744 118.925V118.925Z" fill="#2D2F34"/>
<path d="M93.1253 92.8144C92.9389 94.8132 92.3065 97.0576 90.9343 98.5254C92.1372 98.2624 93.3841 98.2859 94.5765 98.5939C93.7182 96.8806 93.5827 94.7676 93.6053 92.8316" fill="#2D2F34"/>
<path d="M98.5917 105.807C98.4844 105.807 98.4223 104.847 97.6995 103.522C97.2768 102.764 96.7198 102.09 96.0563 101.535C95.2583 100.857 94.3018 100.397 93.2781 100.199C92.2488 100.027 91.1931 100.134 90.2175 100.507C89.4109 100.806 88.6689 101.26 88.0322 101.843C86.9367 102.848 86.5753 103.762 86.4793 103.711C86.3833 103.659 86.6488 102.7 87.7442 101.541C88.3824 100.873 89.1518 100.348 90.003 99.9987C91.0641 99.5586 92.2251 99.4242 93.3571 99.6104C94.4824 99.8265 95.5285 100.348 96.3838 101.118C97.0811 101.732 97.6462 102.484 98.0439 103.328C98.7385 104.79 98.6425 105.812 98.5917 105.807Z" fill="#2D2F34"/>
<path d="M113.702 170.5C117.09 170.5 120.072 168.05 121.653 165.052C123.234 162.054 123.641 158.564 123.793 155.166C124.206 146.156 123.114 137.14 120.563 128.496L105.836 131.095L109.851 171.237L113.702 170.5Z" fill="#FFBE9D"/>
<path d="M54.0946 175.497L102.081 173.733L113.719 116.863L63.1746 119.702L54.0946 175.497Z" fill="#2D2F34"/>
<path d="M78.7937 118.725L79.5165 117.274L83.345 116.995C83.345 116.995 84.3163 114.453 89.7936 114.19C94.695 113.962 94.8757 116.475 94.8757 116.475H97.5184V117.691L78.7937 118.725Z" fill="#5F646F"/>
<path d="M105.548 157.171L109.185 156.103C109.869 155.9 110.591 155.867 111.291 156.006V156.006C112.144 156.175 112.93 156.594 113.549 157.211C114.752 158.41 116.695 160.392 116.971 160.986C117.378 161.848 117.378 163.344 116.971 163.893C116.565 164.441 117.864 167.279 117.7 168.222C117.615 169.026 117.367 169.803 116.971 170.506C116.644 170.9 116.971 172.248 116.158 173.264C115.691 173.855 115.175 174.405 114.617 174.909C114.617 174.909 104.622 175.383 103.651 174.909C102.679 174.435 100.968 172.625 100.968 172.625C100.968 172.625 100.076 170.974 101.454 170.814L95.7678 168.616C95.4375 168.494 95.1669 168.247 95.0131 167.928C94.8593 167.608 94.8343 167.24 94.9434 166.902C94.984 166.777 95.0495 166.662 95.136 166.564C95.2224 166.466 95.3279 166.387 95.4459 166.331C95.4459 166.331 92.8936 165.515 92.3007 165.252C91.1205 164.727 90.6744 161.951 93.1195 162.305C94.4069 162.494 96.1518 162.876 96.1518 162.876C96.1518 162.876 95.2201 161.346 96.5245 160.432C97.315 159.861 100.873 160.552 100.873 160.552L105.548 157.177V157.171Z" fill="#FFBE9D"/>
<path d="M106.813 172.339C105.811 172.37 104.81 172.219 103.86 171.894C102.878 171.672 101.952 171.248 101.138 170.649C101.178 170.58 102.369 171.168 103.962 171.608C105.554 172.048 106.825 172.271 106.813 172.339Z" fill="#EB996E"/>
<path d="M104.639 168.747C103.074 168.495 101.525 168.146 100.003 167.702C98.4555 167.357 96.9315 166.913 95.4402 166.371C98.5517 166.972 101.624 167.765 104.639 168.747V168.747Z" fill="#EB996E"/>
<path d="M105.836 165.172C102.489 164.584 99.1779 163.801 95.9203 162.825C99.2678 163.412 102.579 164.196 105.836 165.172Z" fill="#EB996E"/>
<path d="M109.523 160.569C109.112 160.752 108.682 160.892 108.242 160.986L106.83 161.351L105.994 161.563C105.681 161.642 105.357 161.673 105.034 161.654C104.718 161.631 104.404 161.579 104.097 161.5L103.256 161.306L101.844 160.963C101.4 160.88 100.966 160.747 100.551 160.569C101.001 160.582 101.447 160.645 101.883 160.757L103.318 161.037C103.89 161.174 104.468 161.281 105.051 161.357C105.625 161.346 106.195 161.255 106.745 161.089L108.174 160.78C108.615 160.66 109.067 160.59 109.523 160.569V160.569Z" fill="#EB996E"/>
<path d="M110.162 162.505C110.196 162.505 110.331 162.608 110.438 162.882C110.584 163.246 110.598 163.65 110.478 164.024C110.364 164.394 110.129 164.714 109.812 164.932C109.569 165.092 109.388 165.115 109.371 165.081C109.354 165.046 109.936 164.692 110.196 163.938C110.292 163.464 110.281 162.974 110.162 162.505Z" fill="#EB996E"/>
<path d="M109.958 166.411C110.026 166.377 110.252 166.782 110.218 167.336C110.184 167.89 109.924 168.273 109.857 168.227C109.789 168.182 109.902 167.805 109.924 167.319C109.947 166.834 109.874 166.44 109.958 166.411Z" fill="#EB996E"/>
<path d="M110.015 170.649C110.088 170.62 110.241 170.894 110.167 171.254C110.094 171.614 109.857 171.825 109.795 171.751C109.733 171.677 109.829 171.477 109.879 171.18C109.93 170.883 109.936 170.672 110.015 170.649Z" fill="#F28080"/>
<path d="M111.105 160.335C110.784 160.37 110.46 160.355 110.145 160.289L109.117 160.152C108.714 160.068 108.301 160.047 107.891 160.089C107.501 160.181 107.133 160.35 106.807 160.586C106.491 160.797 106.243 161.037 105.955 161.191C105.687 161.391 105.366 161.503 105.034 161.511C105.034 161.46 105.379 161.363 105.842 161.014C106.405 160.451 107.095 160.034 107.852 159.798C108.081 159.775 108.312 159.775 108.541 159.798C108.772 159.798 108.959 159.867 109.156 159.901L110.178 160.095C110.497 160.13 110.809 160.211 111.105 160.335V160.335Z" fill="#EB996E"/>
<path d="M116.876 170.689C116.943 170.448 117.028 170.214 117.13 169.986C117.593 168.903 117.659 167.688 117.316 166.56C117.203 166.057 116.972 165.555 116.847 164.955C116.773 164.33 116.815 163.697 116.972 163.087C117.038 162.457 116.924 161.821 116.644 161.254C116.36 160.674 116.011 160.128 115.605 159.627C115.215 159.13 114.837 158.644 114.476 158.21C113.837 157.415 113.028 156.776 112.11 156.343C111.486 156.062 110.8 155.955 110.122 156.034C109.648 156.103 109.399 156.229 109.388 156.206C109.377 156.183 109.444 156.16 109.563 156.097C109.744 156.018 109.934 155.959 110.128 155.92C110.829 155.796 111.551 155.873 112.211 156.143C113.174 156.566 114.025 157.212 114.696 158.028C115.091 158.467 115.475 158.947 115.87 159.444C116.293 159.972 116.655 160.547 116.949 161.157C117.254 161.775 117.374 162.47 117.293 163.156C117.145 163.735 117.097 164.336 117.152 164.932C117.26 165.503 117.485 166.011 117.593 166.525C117.718 167.004 117.78 167.498 117.779 167.993C117.752 168.706 117.581 169.406 117.277 170.049C117.172 170.279 117.037 170.494 116.876 170.689Z" fill="#EB996E"/>
<path d="M83.283 142.574L43.8855 148.902L45.636 128.108L23.7266 123.825L21.0613 154.612L20.5983 161.671C20.4459 164.022 20.8917 166.374 21.893 168.501C22.8944 170.629 24.4179 172.461 26.3184 173.824V173.824C28.0513 175.067 30.0471 175.883 32.1469 176.208C34.2468 176.534 36.3927 176.359 38.4138 175.697L46.884 172.905L88.1731 158.056" fill="#FFBE9D"/>
<path d="M107.124 138.273C107.151 138.108 107.142 137.939 107.098 137.778C107.053 137.617 106.974 137.468 106.867 137.341C106.759 137.214 106.625 137.113 106.474 137.044C106.323 136.975 106.16 136.941 105.994 136.943C103.775 136.943 97.7781 136.943 95.6605 137.577C93.0404 138.325 83.2772 142.562 83.2772 142.562L87.4163 157.982L102.397 158.142C102.397 158.142 107.869 155.6 107.937 154.498C107.931 153.809 107.886 153.121 107.801 152.437L109.456 151.54C111.918 149.964 110.336 146.931 110.336 146.931C110.336 146.931 112.031 145.972 112.121 144.236C112.162 143.727 112.06 143.218 111.826 142.766C111.592 142.314 111.236 141.938 110.8 141.683C110.8 141.683 111.477 139.239 110.235 138.582C108.993 137.925 106.847 138.765 106.847 138.765C106.99 138.636 107.087 138.463 107.124 138.273V138.273Z" fill="#FFBE9D"/>
<path d="M107.987 138.525C107.843 138.605 107.686 138.66 107.524 138.69C107.225 138.776 106.779 138.873 106.231 138.97C105.102 139.17 103.6 139.336 101.912 139.541C100.473 139.673 99.0431 139.894 97.6313 140.204C96.5527 140.455 95.9372 140.775 95.9372 140.775C96.0602 140.665 96.1993 140.574 96.3495 140.506C96.748 140.307 97.1638 140.144 97.5918 140.021C99.0012 139.651 100.438 139.398 101.889 139.267C103.583 139.084 105.113 138.953 106.209 138.81C107.304 138.668 107.971 138.485 107.987 138.525Z" fill="#EB996E"/>
<path d="M110.805 141.62C110.485 141.859 110.128 142.042 109.749 142.163C108.864 142.508 107.952 142.778 107.022 142.968C105.932 143.196 104.944 143.345 104.198 143.442C103.814 143.52 103.421 143.551 103.03 143.533C103.03 143.436 104.78 143.116 106.937 142.677C107.855 142.487 108.764 142.25 109.659 141.968C110.03 141.818 110.414 141.701 110.805 141.62V141.62Z" fill="#EB996E"/>
<path d="M110.353 146.988C108.291 147.95 106.052 148.464 103.781 148.496C103.781 148.405 105.271 148.216 107.078 147.799C108.885 147.382 110.353 146.903 110.353 146.988Z" fill="#EB996E"/>
<path d="M109.462 151.569C107.887 152.378 106.146 152.802 104.38 152.808C106.076 152.406 107.77 151.992 109.462 151.569V151.569Z" fill="#EB996E"/>
<path d="M101.646 148.856C101.646 148.89 101.494 148.987 101.189 149.016C100.787 149.05 100.387 148.939 100.059 148.702C99.7297 148.465 99.4921 148.12 99.3875 147.725C99.3141 147.422 99.3536 147.234 99.3875 147.234C99.4213 147.234 99.5456 147.971 100.223 148.456C100.659 148.703 101.147 148.84 101.646 148.856Z" fill="#EB996E"/>
<path d="M101.319 153.619C101.319 153.699 100.754 153.733 100.218 153.27C99.6812 152.808 99.653 152.202 99.7489 152.208C99.8449 152.214 99.9805 152.665 100.415 153.048C100.85 153.43 101.319 153.533 101.319 153.619Z" fill="#EB996E"/>
<path d="M99.6248 143.893C99.6586 143.973 99.2464 144.104 98.8625 143.807C98.4785 143.51 98.4898 143.076 98.5745 143.088C98.6592 143.099 98.7552 143.368 99.0375 143.573C99.3199 143.779 99.5852 143.813 99.6248 143.893Z" fill="#EB996E"/>
<path d="M83.2828 142.574L83.4014 142.505L83.7572 142.34L85.1462 141.717C86.3659 141.186 88.1334 140.415 90.3751 139.484C91.5045 139.027 92.7242 138.519 94.0794 138.011C94.7757 137.728 95.4933 137.503 96.2252 137.337C97.0138 137.195 97.8092 137.096 98.6082 137.04C100.246 136.909 101.996 136.851 103.792 136.829H105.164H105.864C106.122 136.815 106.379 136.871 106.61 136.988C106.855 137.11 107.053 137.312 107.169 137.563C107.285 137.813 107.313 138.096 107.248 138.365C107.213 138.446 107.153 138.514 107.078 138.559L106.909 138.667L106.57 138.827C106.339 138.927 106.101 139.011 105.859 139.079C105.822 139.088 105.783 139.082 105.751 139.063C105.718 139.044 105.694 139.012 105.684 138.976C105.678 138.958 105.677 138.938 105.679 138.919C105.682 138.9 105.688 138.882 105.697 138.866C105.707 138.849 105.72 138.835 105.735 138.823C105.75 138.812 105.767 138.803 105.785 138.799C106.397 138.619 107.019 138.478 107.649 138.376C108.301 138.256 108.966 138.233 109.625 138.308C109.983 138.348 110.321 138.495 110.596 138.73C110.851 138.994 111.018 139.331 111.076 139.695C111.177 140.392 111.133 141.102 110.946 141.78L110.873 141.603C111.196 141.791 111.479 142.044 111.703 142.345C111.983 142.728 112.168 143.173 112.243 143.643C112.317 144.113 112.28 144.594 112.132 145.047C111.821 145.915 111.223 146.647 110.438 147.12L110.495 146.92C110.901 147.734 111.066 148.651 110.969 149.558C110.906 150.001 110.746 150.424 110.502 150.798C110.258 151.171 109.935 151.485 109.557 151.717V151.717L107.908 152.614L107.982 152.471C108.021 152.871 108.061 153.27 108.089 153.664C108.089 153.859 108.089 154.058 108.117 154.236C108.117 154.333 108.117 154.435 108.117 154.538C108.102 154.654 108.062 154.765 107.999 154.864C107.761 155.183 107.473 155.461 107.146 155.686C106.841 155.915 106.525 156.12 106.214 156.314C105.008 157.035 103.766 157.693 102.493 158.285H102.442L91.5384 158.113L88.523 158.05L87.7325 158.022C87.6424 158.032 87.5515 158.032 87.4614 158.022C87.5516 158.013 87.6423 158.013 87.7325 158.022H88.523H91.5384L102.442 158.085H102.391C103.654 157.492 104.885 156.832 106.079 156.109C106.384 155.92 106.694 155.715 106.988 155.492C107.287 155.288 107.55 155.035 107.767 154.744C107.81 154.684 107.839 154.616 107.852 154.544V154.264C107.852 154.07 107.852 153.876 107.852 153.693C107.824 153.305 107.784 152.911 107.739 152.517C107.735 152.489 107.74 152.46 107.753 152.436C107.767 152.411 107.787 152.391 107.812 152.379L109.461 151.477C109.805 151.267 110.098 150.982 110.32 150.643C110.541 150.305 110.686 149.92 110.743 149.518C110.827 148.671 110.67 147.817 110.291 147.057C110.275 147.023 110.273 146.983 110.284 146.947C110.296 146.911 110.32 146.881 110.353 146.863C111.081 146.429 111.639 145.756 111.935 144.955C112.066 144.548 112.099 144.114 112.031 143.691C111.964 143.268 111.797 142.867 111.545 142.522C111.348 142.258 111.1 142.037 110.816 141.871C110.787 141.855 110.764 141.829 110.751 141.798C110.738 141.767 110.735 141.733 110.743 141.7C110.916 141.066 110.958 140.403 110.867 139.753C110.833 139.448 110.692 139.166 110.471 138.957C110.249 138.747 109.962 138.625 109.659 138.61C109.03 138.539 108.395 138.562 107.773 138.679C107.155 138.773 106.544 138.908 105.943 139.084L105.87 138.805C106.097 138.745 106.32 138.668 106.536 138.576C106.643 138.53 106.756 138.479 106.852 138.428C106.948 138.376 107.05 138.273 107.084 138.285C107.104 138.08 107.073 137.874 106.994 137.685C106.896 137.498 106.744 137.344 106.559 137.245C106.369 137.148 106.156 137.104 105.943 137.12H103.877C102.07 137.12 100.336 137.188 98.7041 137.308C97.9151 137.361 97.1292 137.455 96.3494 137.588C95.6284 137.751 94.9205 137.969 94.2319 138.239C92.8823 138.736 91.6457 139.233 90.522 139.678L85.2648 141.831L83.8588 142.402L83.4917 142.551L83.2828 142.574Z" fill="#EB996E"/>
<path d="M44.0437 148.856C42.9742 149.578 41.9974 150.432 41.1356 151.397C40.3511 152.43 39.6985 153.558 39.1931 154.755C39.2206 154.359 39.3201 153.972 39.4867 153.613C40.1819 151.846 41.4137 150.349 43.0047 149.336C43.3205 149.115 43.6722 148.953 44.0437 148.856V148.856Z" fill="#EB996E"/>
<path d="M95.4913 25.6424C95.0997 20.6002 92.8453 15.8921 89.1767 12.4549C85.5082 9.01774 80.6946 7.10353 75.6938 7.09323H74.6604C63.5476 7.72715 57.8669 17.6242 58.8043 28.8462L60.7185 73.8198C60.7336 74.187 60.8465 74.5433 61.0453 74.8509C61.2441 75.1585 61.5214 75.4061 61.8479 75.5674L86.7953 87.4061L86.0725 63.8028C86.0725 63.8028 96.7619 62.1467 96.9143 51.3416C96.9595 46.1275 96.2367 35.3681 95.4913 25.6424Z" fill="#FFBE9D"/>
<path d="M86.1348 63.7629C81.1737 63.7581 76.3185 62.311 72.1478 59.5939C72.1478 59.5939 75.4229 67.3722 86.084 66.447L86.1348 63.7629Z" fill="#EB996E"/>
<path d="M91.7192 32.3527C91.721 32.7545 91.5682 33.1411 91.2931 33.431C91.0181 33.7209 90.6424 33.8913 90.2454 33.9061C90.0511 33.9224 89.8556 33.899 89.6705 33.8372C89.4853 33.7754 89.3144 33.6766 89.1679 33.5465C89.0214 33.4164 88.9023 33.2579 88.8177 33.0802C88.7331 32.9026 88.6848 32.7096 88.6756 32.5126C88.6709 32.111 88.822 31.7235 89.0965 31.4331C89.3709 31.1428 89.7468 30.9727 90.1438 30.9592C90.3382 30.9437 90.5337 30.9677 90.7188 31.0297C90.9039 31.0917 91.0749 31.1905 91.2217 31.3204C91.3685 31.4502 91.4881 31.6084 91.5736 31.7857C91.659 31.963 91.7085 32.1558 91.7192 32.3527V32.3527Z" fill="#2D2F34"/>
<path d="M93.1874 30.925C92.9954 31.1248 91.8435 30.2568 90.2003 30.2568C88.5571 30.2568 87.3769 31.0906 87.1793 30.885C87.0889 30.7936 87.2809 30.4338 87.8061 30.0455C88.5184 29.5503 89.3642 29.2891 90.2285 29.2973C91.0833 29.2944 91.9165 29.5686 92.6058 30.0797C93.1084 30.4681 93.2778 30.8336 93.1874 30.925Z" fill="#2D2F34"/>
<path d="M75.5696 32.8553C75.5742 33.2579 75.4223 33.6462 75.1467 33.9367C74.8711 34.2272 74.4937 34.3967 74.0958 34.4086C73.9016 34.4242 73.7064 34.4002 73.5216 34.3381C73.3368 34.276 73.1662 34.1771 73.0199 34.0472C72.8735 33.9173 72.7545 33.759 72.6696 33.5818C72.5848 33.4045 72.5359 33.2118 72.526 33.0152C72.5228 32.613 72.6751 32.2255 72.9504 31.9353C73.2258 31.6451 73.6023 31.4752 73.9998 31.4618C74.1939 31.4463 74.3891 31.4703 74.5739 31.5323C74.7587 31.5944 74.9293 31.6933 75.0756 31.8233C75.222 31.9532 75.3411 32.1114 75.4259 32.2887C75.5108 32.4659 75.5596 32.6586 75.5696 32.8553V32.8553Z" fill="#2D2F34"/>
<path d="M77.0374 31.2105C76.851 31.4104 75.6934 30.5481 74.0559 30.5481C72.4183 30.5481 71.2325 31.3761 71.0292 31.1705C70.9445 31.0792 71.1365 30.7194 71.6616 30.3368C72.3722 29.8372 73.2188 29.5737 74.0841 29.5829C74.9365 29.5844 75.7665 29.8582 76.4558 30.3653C76.9696 30.7479 77.1447 31.1134 77.0374 31.2105Z" fill="#2D2F34"/>
<path d="M82.9837 43.5233C82.9837 43.4319 83.9945 43.2549 85.649 43.0436C86.0668 42.9979 86.4678 42.918 86.5355 42.6267C86.5732 42.1891 86.4766 41.7504 86.2588 41.3703L85.0279 38.1379C83.3338 33.5692 82.0746 29.76 82.2609 29.6914C82.4473 29.6229 83.955 33.295 85.6942 37.8981L86.8743 41.1476C87.1373 41.6586 87.2133 42.2472 87.0889 42.8095C87.0277 42.9593 86.9332 43.0928 86.8128 43.1998C86.6923 43.3067 86.5492 43.3842 86.3944 43.4262C86.1623 43.4901 85.9233 43.5246 85.6829 43.529C84.0227 43.6147 82.9894 43.6204 82.9837 43.5233Z" fill="#2D2F34"/>
<path d="M78.1672 44.6655C78.4326 44.6655 78.4326 46.4473 79.9572 47.7323C81.4818 49.0173 83.3735 48.8174 83.3904 49.0687C83.3904 49.1829 82.967 49.4227 82.1651 49.4399C81.1204 49.4535 80.1044 49.0935 79.2966 48.4233C78.5236 47.7803 78.0276 46.859 77.9131 45.8534C77.8284 45.0996 78.026 44.6541 78.1672 44.6655Z" fill="#2D2F34"/>
<path d="M77.4892 24.6944C77.3255 25.1455 75.6879 24.9285 73.7624 25.1627C71.8368 25.3968 70.2783 25.9222 70.0186 25.5167C69.9056 25.3226 70.1767 24.8943 70.8091 24.4602C71.644 23.9177 72.5942 23.583 73.5817 23.4837C74.5669 23.3646 75.5661 23.486 76.4954 23.8377C77.2012 24.129 77.557 24.4831 77.4892 24.6944Z" fill="#2D2F34"/>
<path d="M92.5945 26.1221C92.3009 26.4933 91.1715 26.1221 89.8106 26.0821C88.4498 26.0421 87.3035 26.3277 87.0381 25.9336C86.9195 25.7451 87.1059 25.3625 87.6028 25.0084C88.2794 24.5837 89.0652 24.3712 89.8611 24.3976C90.657 24.424 91.4274 24.6882 92.075 25.1569C92.5606 25.5453 92.7187 25.9336 92.5945 26.1221Z" fill="#2D2F34"/>
<path d="M60.4024 36.8415C60.2217 36.7615 53.0616 34.6314 53.2874 42.0213C53.5133 49.4113 60.792 47.658 60.7976 47.4467C60.8033 47.2354 60.4024 36.8415 60.4024 36.8415Z" fill="#FFBE9D"/>
<path d="M59.1262 44.7169C59.0923 44.7169 59.0019 44.8082 58.7874 44.9168C58.4895 45.0567 58.1497 45.0751 57.8387 44.9681C57.0595 44.6997 56.3706 43.4833 56.2971 42.1527C56.2615 41.5211 56.3637 40.8894 56.5964 40.3023C56.6582 40.069 56.7754 39.8545 56.9378 39.6773C57.1001 39.5002 57.3028 39.3658 57.5281 39.2858C57.6728 39.243 57.8277 39.2521 57.9665 39.3114C58.1054 39.3707 58.2198 39.4766 58.2904 39.6113C58.3921 39.8169 58.3525 39.9654 58.3864 39.9768C58.4203 39.9882 58.5446 39.8512 58.4768 39.5485C58.4273 39.3665 58.3202 39.206 58.1719 39.0916C57.9673 38.9447 57.7137 38.8852 57.466 38.926C57.1677 38.9944 56.8917 39.139 56.6643 39.3459C56.437 39.5529 56.2658 39.8153 56.1673 40.1081C55.8757 40.7576 55.7458 41.4693 55.7889 42.1812C55.8793 43.6718 56.6755 45.0367 57.7371 45.3165C57.9308 45.3639 58.1324 45.3674 58.3276 45.3269C58.5228 45.2865 58.7068 45.203 58.8664 45.0824C59.1149 44.9167 59.1488 44.7283 59.1262 44.7169Z" fill="#EB996E"/>
<path d="M65.1797 14.8887L95.6271 15.5683C94.591 13.4746 93.0536 11.6763 91.1548 10.3371C87.1963 7.23579 82.3701 5.47886 77.3654 5.31714C72.4019 5.22577 62.2886 11.3479 58.6916 14.8087C55.8117 17.5785 55.8343 19.9771 55.8343 19.9771C55.3769 23.9748 57.5848 28.5093 58.4657 32.4327C58.9174 34.4543 59.7927 40.5708 59.7927 40.5708C61.4867 40.5708 62.0909 39.2173 61.8368 37.5383L61.5263 30.9535C61.5263 30.9535 67.2295 26.8531 64.5247 19.3489C64.1068 18.7493 63.1808 16.008 65.1797 14.8887Z" fill="#2D2F34"/>
<path d="M71.5832 38.2464C71.5587 38.2472 71.5343 38.243 71.5114 38.2343C71.4885 38.2255 71.4676 38.2122 71.4497 38.1953C71.4319 38.1783 71.4176 38.1579 71.4075 38.1353C71.3975 38.1128 71.3919 38.0884 71.3912 38.0636C71.3791 38.0144 71.3865 37.9624 71.4118 37.9187C71.4371 37.8749 71.4784 37.8429 71.5267 37.8295C71.5775 37.8229 71.6288 37.8364 71.6699 37.8673C71.7109 37.8982 71.7386 37.944 71.7469 37.9951C71.7555 38.0226 71.7578 38.0517 71.7539 38.0802C71.7499 38.1087 71.7397 38.136 71.724 38.1601C71.7084 38.1841 71.6876 38.2044 71.6632 38.2193C71.6388 38.2342 71.6115 38.2435 71.5832 38.2464V38.2464Z" fill="#EB996E"/>
<path d="M74.7224 37.5325C74.6208 37.5325 74.5247 37.4697 74.4965 37.3441C74.482 37.2911 74.4879 37.2345 74.5131 37.1857C74.5382 37.1369 74.5807 37.0996 74.632 37.0814C74.6865 37.0782 74.7401 37.0968 74.7813 37.1331C74.8225 37.1693 74.8479 37.2205 74.8523 37.2755C74.8683 37.327 74.8637 37.3829 74.8394 37.431C74.8151 37.479 74.7731 37.5155 74.7224 37.5325V37.5325Z" fill="#EB996E"/>
<path d="M76.8342 37.4926C76.7326 37.4926 76.6366 37.3841 76.614 37.2185C76.5914 37.0528 76.6592 36.9101 76.7608 36.8986C76.8625 36.8872 76.9528 37.0071 76.9754 37.1728C76.998 37.3384 76.9302 37.4926 76.8342 37.4926Z" fill="#EB996E"/>
<path d="M73.1189 40.2396C73.0229 40.2396 72.9382 40.1882 72.9382 40.1253C72.9382 40.0625 73.0229 40.0054 73.1189 40.0054C73.2149 40.0054 73.2996 40.0625 73.2996 40.1253C73.2996 40.1882 73.2205 40.2396 73.1189 40.2396Z" fill="#EB996E"/>
<path d="M75.9987 39.5714C75.9448 39.5759 75.8913 39.5586 75.85 39.5233C75.8087 39.4879 75.783 39.4374 75.7785 39.3829C75.774 39.3284 75.7911 39.2743 75.8261 39.2325C75.861 39.1907 75.9109 39.1647 75.9648 39.1602C75.99 39.1594 76.0152 39.1637 76.0387 39.1728C76.0623 39.1818 76.0839 39.1955 76.1023 39.213C76.1206 39.2305 76.1354 39.2515 76.1457 39.2748C76.1561 39.298 76.1618 39.3231 76.1625 39.3486C76.169 39.4 76.1556 39.4519 76.1251 39.4934C76.0945 39.535 76.0492 39.5629 75.9987 39.5714V39.5714Z" fill="#EB996E"/>
<path d="M90.968 37.7952C90.9431 37.7992 90.9177 37.7981 90.8932 37.7919C90.8687 37.7856 90.8457 37.7744 90.8257 37.7589C90.8056 37.7434 90.7889 37.724 90.7765 37.7018C90.764 37.6795 90.7562 37.655 90.7535 37.6296C90.7412 37.5797 90.7484 37.5269 90.7737 37.4822C90.7989 37.4375 90.8402 37.4044 90.889 37.3898C90.9398 37.3831 90.9911 37.3967 91.0322 37.4276C91.0732 37.4585 91.1008 37.5043 91.1092 37.5554C91.1159 37.5805 91.1176 37.6068 91.1142 37.6326C91.1107 37.6584 91.1021 37.6832 91.0889 37.7056C91.0757 37.7279 91.0582 37.7474 91.0375 37.7628C91.0167 37.7782 90.9931 37.7892 90.968 37.7952V37.7952Z" fill="#EB996E"/>
<path d="M93.1084 37.6011C93.0629 37.6162 93.0138 37.6167 92.968 37.6024C92.9222 37.5881 92.8819 37.5598 92.8526 37.5214C92.8234 37.4829 92.8067 37.4362 92.8048 37.3878C92.8029 37.3393 92.816 37.2915 92.8421 37.2508C92.8683 37.2102 92.9063 37.1788 92.9509 37.1609C92.9954 37.1431 93.0444 37.1396 93.091 37.1511C93.1376 37.1626 93.1795 37.1884 93.2109 37.2251C93.2424 37.2617 93.2618 37.3072 93.2665 37.3555C93.2767 37.4092 93.2659 37.4647 93.2364 37.5105C93.2069 37.5563 93.1611 37.5887 93.1084 37.6011V37.6011Z" fill="#EB996E"/>
<path d="M89.0822 37.8467C89.0388 37.8574 88.993 37.851 88.9542 37.8287C88.9153 37.8064 88.8864 37.7699 88.8733 37.7267C88.8636 37.679 88.8729 37.6294 88.8994 37.5887C88.9259 37.548 88.9673 37.5196 89.0145 37.5097C89.0616 37.4999 89.1107 37.5094 89.151 37.5362C89.1912 37.5629 89.2193 37.6048 89.229 37.6525C89.2339 37.6977 89.2214 37.7432 89.1941 37.7793C89.1667 37.8155 89.1267 37.8396 89.0822 37.8467Z" fill="#EB996E"/>
<path d="M90.6632 40.0111C90.6264 40.0355 90.5831 40.0478 90.5391 40.0465C90.4952 40.0451 90.4527 40.0302 90.4174 40.0036C90.3821 39.977 90.3558 39.9402 90.342 39.8979C90.3281 39.8557 90.3274 39.8102 90.34 39.7676C90.3525 39.725 90.3777 39.6873 90.4121 39.6596C90.4466 39.632 90.4886 39.6157 90.5325 39.613C90.5764 39.6102 90.62 39.6212 90.6576 39.6444C90.6951 39.6676 90.7246 39.7019 90.7422 39.7427C90.7665 39.789 90.7717 39.843 90.757 39.8932C90.7422 39.9434 90.7085 39.9858 90.6632 40.0111V40.0111Z" fill="#EB996E"/>
<path d="M92.487 39.6456C92.444 39.6372 92.4059 39.6123 92.3806 39.5761C92.3553 39.5399 92.3449 39.4952 92.3515 39.4514C92.3716 39.4139 92.4035 39.3845 92.4422 39.3677C92.4809 39.351 92.5241 39.3481 92.5647 39.3593C92.6053 39.3706 92.6409 39.3954 92.6658 39.4297C92.6906 39.4641 92.7033 39.5059 92.7016 39.5485C92.6852 39.5896 92.6537 39.6227 92.6137 39.6408C92.5737 39.6589 92.5283 39.6606 92.487 39.6456V39.6456Z" fill="#EB996E"/>
<path d="M58.5045 15.2199C58.1653 13.8552 58.1434 12.4296 58.4407 11.0549C58.738 9.68025 59.3464 8.39401 60.218 7.2972C61.0897 6.20039 62.2009 5.32288 63.4643 4.73358C64.7278 4.14428 66.1091 3.85923 67.4998 3.90083C68.9228 3.95794 70.3232 4.36341 71.7462 4.20922C74.3833 3.91796 76.4161 1.78207 78.8611 0.74268C80.7912 -0.018229 82.9175 -0.10439 84.9016 0.497907C86.8856 1.1002 88.6135 2.35635 89.8102 4.06645C90.7363 5.46563 91.3405 7.19604 92.7635 8.0641C93.9888 8.82366 95.5361 8.76084 96.9139 9.20629C99.7034 10.0515 101.612 13.0498 101.465 15.9909C101.347 17.4637 100.831 18.8755 99.9739 20.072C99.1165 21.2685 97.9506 22.2037 96.6033 22.7755C95.2479 23.3227 93.7884 23.5554 92.3323 23.4566C90.8762 23.3578 89.4605 22.9299 88.1896 22.2044C85.8914 20.908 83.836 18.7036 81.2046 18.7778C78.4828 18.8578 76.1225 21.4505 73.4346 20.9137C72.0342 20.6339 70.9557 19.5431 69.928 18.538C68.9002 17.5328 67.7257 16.5106 66.2971 16.4249C64.8684 16.3393 64.1287 18.3209 64.6426 19.6687L58.5045 15.2199Z" fill="#2D2F34"/>
<path d="M95.0508 11.6563C95.0362 11.6935 95.0192 11.7297 95 11.7648C94.9473 11.8671 94.8889 11.9662 94.8249 12.0617C94.5778 12.434 94.2835 12.7719 93.9497 13.0669C93.4189 13.5359 92.8034 13.8967 92.1371 14.1291C91.2485 14.4362 90.2941 14.4935 89.3758 14.2947C88.2553 14.0558 87.2366 13.4688 86.4621 12.6157C85.632 11.6962 85.1351 10.457 84.3615 9.3719C83.9828 8.81079 83.4777 8.34882 82.8877 8.02411C82.26 7.71002 81.5662 7.55517 80.8661 7.57295C80.1404 7.5949 79.4302 7.79062 78.7938 8.14404C78.1458 8.51483 77.6167 9.06584 77.2691 9.73168C76.9021 10.4113 76.6367 11.1537 76.1963 11.8105C75.9872 12.152 75.7012 12.4387 75.3616 12.6472C75.0221 12.8556 74.6386 12.9798 74.2425 13.0098C73.49 13.0213 72.751 12.8067 72.1193 12.393C71.5247 12.0152 70.9818 11.5602 70.5043 11.0395C69.5613 10.08 68.6352 9.12062 67.4833 8.86362C66.9514 8.75931 66.4037 8.77 65.8763 8.89501C65.3488 9.02001 64.8534 9.25649 64.4227 9.58891C63.6878 10.1294 63.1041 10.8536 62.7287 11.6905C62.4414 12.3236 62.2291 12.9888 62.0963 13.6722C61.9833 14.2433 61.9325 14.6774 61.8986 14.98C61.8864 15.1356 61.8638 15.2902 61.8309 15.4426C61.8251 15.4029 61.8251 15.3624 61.8309 15.3227C61.8309 15.2427 61.8309 15.1285 61.8309 14.9743C61.8544 14.5299 61.9054 14.0874 61.9833 13.6494C62.0871 12.9524 62.2768 12.2713 62.548 11.622C62.914 10.751 63.4978 9.99129 64.2421 9.41758C64.694 9.05922 65.2167 8.80295 65.7748 8.66602C66.3329 8.52909 66.9135 8.51468 67.4776 8.62376C68.7256 8.89217 69.6912 9.8973 70.6285 10.8453C71.0954 11.3446 71.6228 11.7821 72.1983 12.1474C72.7831 12.53 73.467 12.7287 74.1634 12.7185C74.5142 12.6881 74.8532 12.5752 75.1532 12.3888C75.4532 12.2024 75.706 11.9476 75.8913 11.6449C76.3035 11.0281 76.569 10.2914 76.9473 9.58891C77.3206 8.8698 77.8911 8.27491 78.5905 7.87563C79.2693 7.50212 80.0259 7.29663 80.7984 7.27598C81.5461 7.26044 82.2864 7.42899 82.9554 7.76712C83.582 8.11493 84.1181 8.60816 84.5196 9.20628C85.3158 10.3485 85.7901 11.5592 86.5807 12.4501C87.3172 13.2724 88.2879 13.8431 89.3589 14.0834C90.2416 14.2893 91.163 14.2479 92.0241 13.9635C92.6772 13.7517 93.2847 13.4164 93.8142 12.9755C94.282 12.5928 94.6979 12.1492 95.0508 11.6563V11.6563Z" fill="#5F646F"/>
<path d="M100.568 11.7933C100.641 11.9751 100.683 12.1683 100.692 12.3644C100.736 12.9194 100.684 13.4779 100.539 14.0149C100.323 14.8124 99.9373 15.5529 99.4099 16.185C98.7517 16.9539 97.9291 17.5613 97.0044 17.9611C95.3221 18.6538 93.4833 18.8633 91.6908 18.5665C91.1545 18.49 90.6229 18.3832 90.0984 18.2467C89.9015 18.2116 89.711 18.1461 89.5337 18.0525C89.5337 18.0068 90.3638 18.2124 91.719 18.3552C93.4695 18.5852 95.249 18.355 96.8858 17.687C97.7716 17.3058 98.5638 16.7327 99.2067 16.008C99.7189 15.4085 100.103 14.7086 100.336 13.9521C100.531 13.2505 100.61 12.5209 100.568 11.7933Z" fill="#5F646F"/>
<path d="M48.6008 130.758C48.7172 131.925 49.1598 133.034 49.877 133.956C50.532 134.818 51.859 135.669 52.9262 135.595C53.7303 135.636 54.5313 135.466 55.2509 135.101C55.9705 134.735 56.584 134.188 57.0314 133.511C58.3358 131.42 58.6521 127.063 57.5961 124.487C56.879 122.717 55.264 121.061 53.3723 121.021C50.8878 120.964 49.3292 122.78 48.7984 124.619" fill="#FAFAFC"/>
<path d="M48.8042 124.619C48.8869 124.183 49.0436 123.766 49.2672 123.385C49.511 122.925 49.8255 122.506 50.1989 122.146C50.6936 121.662 51.2958 121.306 51.9551 121.106C52.338 120.988 52.735 120.923 53.1352 120.912C53.573 120.888 54.0115 120.946 54.4283 121.084C55.3398 121.408 56.141 121.988 56.7379 122.757C57.4058 123.587 57.8702 124.566 58.0931 125.612C58.3322 126.724 58.4177 127.864 58.3472 128.999C58.2286 130.786 57.8842 132.568 56.9016 133.927C56.4183 134.569 55.7697 135.063 55.0269 135.355C54.3549 135.628 53.6326 135.751 52.9094 135.715V135.715C52.3781 135.719 51.8542 135.589 51.3847 135.338C50.9735 135.121 50.5935 134.848 50.2554 134.527C49.7202 133.993 49.296 133.356 49.0074 132.654C48.8193 132.21 48.6865 131.744 48.6121 131.266C48.593 131.141 48.5817 131.015 48.5783 130.889C48.5686 130.846 48.5686 130.801 48.5783 130.758C48.6874 131.393 48.8772 132.011 49.1429 132.597C49.4466 133.267 49.8719 133.873 50.3965 134.384C50.7374 134.686 51.1174 134.94 51.5259 135.138C51.962 135.366 52.4468 135.482 52.9376 135.475V135.475C53.653 135.511 54.3666 135.374 55.0195 135.077C55.6724 134.779 56.2459 134.328 56.6927 133.762C57.6018 132.488 57.9519 130.735 58.0649 128.987C58.1834 126.703 57.8108 124.453 56.5402 122.934C55.9773 122.203 55.2246 121.646 54.3662 121.323C53.975 121.192 53.564 121.133 53.1522 121.146C52.7701 121.15 52.3902 121.206 52.0228 121.312C51.3905 121.493 50.8098 121.824 50.3288 122.277C49.9528 122.615 49.6292 123.007 49.3688 123.442C49.1585 123.823 48.97 124.216 48.8042 124.619Z" fill="#2D2F34"/>
<path d="M47.2793 130.872C47.3966 132.039 47.8392 133.148 48.5555 134.07C49.2105 134.933 50.5375 135.783 51.6048 135.709C52.4089 135.751 53.2099 135.58 53.9294 135.215C54.649 134.85 55.2625 134.302 55.71 133.625C57.0087 131.529 57.3306 127.177 56.2746 124.601C55.5575 122.825 53.9482 121.175 52.0565 121.135C51.0057 121.126 49.9825 121.476 49.1525 122.127C48.3225 122.779 47.7342 123.695 47.4826 124.727" fill="#EDEDEF"/>
<path d="M47.4939 124.727C47.5774 124.294 47.734 123.879 47.9569 123.499C48.1989 123.038 48.5136 122.619 48.8886 122.26C49.6777 121.488 50.727 121.047 51.8249 121.026C52.2627 121.002 52.7012 121.06 53.1181 121.198C54.0304 121.52 54.832 122.101 55.4276 122.871C56.0956 123.702 56.56 124.68 56.7828 125.727C57.0228 126.838 57.1065 127.978 57.0313 129.113C56.9183 130.901 56.5739 132.677 55.5913 134.042C55.1081 134.683 54.4594 135.177 53.7166 135.469C53.0446 135.742 52.3223 135.865 51.5991 135.829V135.829C51.0674 135.831 50.5434 135.7 50.0744 135.447C49.6613 135.235 49.2809 134.964 48.9451 134.641C48.4086 134.106 47.9842 133.467 47.6971 132.762C47.5058 132.321 47.3729 131.857 47.3019 131.38C47.2828 131.256 47.2714 131.13 47.268 131.003C47.2583 130.96 47.2583 130.915 47.268 130.872C47.3777 131.505 47.5674 132.121 47.8327 132.705C48.1328 133.379 48.5584 133.988 49.0863 134.499C49.4271 134.8 49.8071 135.054 50.2156 135.252C50.6527 135.477 51.1368 135.593 51.6273 135.589V135.589C52.3427 135.625 53.0563 135.489 53.7092 135.191C54.3621 134.893 54.9356 134.442 55.3824 133.876C56.2916 132.597 56.6416 130.849 56.7489 129.102C56.8732 126.817 56.5005 124.567 55.2243 123.048C54.6663 122.315 53.9146 121.757 53.056 121.438C52.6648 121.307 52.2537 121.247 51.8419 121.261C51.4599 121.265 51.0801 121.321 50.7125 121.426C50.0804 121.608 49.4999 121.939 49.0185 122.391C48.6461 122.731 48.3263 123.126 48.0698 123.562C47.8581 123.94 47.6658 124.329 47.4939 124.727V124.727Z" fill="#2D2F34"/>
<path d="M49.6733 124.088C49.0469 124.008 48.4119 124.137 47.8647 124.456C47.3175 124.774 46.8879 125.265 46.641 125.852C46.1749 127.051 46.1749 128.383 46.641 129.581C46.8375 130.201 47.1586 130.773 47.584 131.26C48.021 131.748 48.6285 132.045 49.2781 132.089C49.7518 132.065 50.2129 131.927 50.622 131.684C51.0311 131.441 51.3759 131.102 51.6271 130.695C52.0641 130.066 52.3614 129.349 52.4989 128.593C52.6363 127.837 52.6105 127.06 52.4233 126.315C52.1635 125.321 51.4464 124.31 50.4356 124.282" fill="#F28080"/>
<path d="M50.413 124.299C50.413 124.299 50.4864 124.299 50.6332 124.299C50.8509 124.324 51.0608 124.396 51.2487 124.51C51.5834 124.733 51.8703 125.022 52.0924 125.36C52.3145 125.697 52.4674 126.076 52.5418 126.475C52.8116 127.647 52.6885 128.876 52.1917 129.97C51.9055 130.622 51.4723 131.197 50.9269 131.649C50.6313 131.906 50.2795 132.088 49.9004 132.181C49.5214 132.273 49.1261 132.273 48.7472 132.18C48.007 131.94 47.3838 131.426 47.0023 130.741C46.6559 130.127 46.4117 129.459 46.2796 128.765C46.1384 128.185 46.1156 127.582 46.2127 126.993C46.3098 126.403 46.5247 125.841 46.8443 125.338C47.0736 125.006 47.3658 124.722 47.7041 124.505C48.0423 124.287 48.4199 124.139 48.815 124.07C49.0284 124.038 49.2453 124.038 49.4587 124.07C49.5998 124.099 49.6733 124.122 49.6733 124.133C49.3918 124.123 49.1101 124.141 48.8319 124.185C48.088 124.36 47.438 124.816 47.0136 125.458C46.7224 125.944 46.5307 126.484 46.4502 127.046C46.3697 127.608 46.4019 128.181 46.545 128.731C46.679 129.391 46.9173 130.025 47.2508 130.609C47.5951 131.229 48.1577 131.694 48.8262 131.912C49.16 131.994 49.5085 131.995 49.8425 131.913C50.1765 131.832 50.4864 131.671 50.7462 131.443C51.2602 131.023 51.6701 130.487 51.9433 129.878C52.4307 128.84 52.5695 127.669 52.3386 126.543C52.2169 125.783 51.8129 125.099 51.2092 124.63C50.9659 124.472 50.6961 124.359 50.413 124.299Z" fill="#2D2F34"/>
<path d="M52.5192 133.476C52.4797 133.476 52.4176 133.294 52.2199 133.065C51.9636 132.771 51.6311 132.555 51.26 132.443C50.8732 132.334 50.4753 132.271 50.0742 132.254C49.758 132.254 49.5603 132.203 49.5547 132.163C49.549 132.123 49.7467 132.077 50.0685 132.043C50.4972 131.996 50.9307 132.035 51.3447 132.157C51.7761 132.283 52.1474 132.563 52.3893 132.945C52.57 133.242 52.5531 133.471 52.5192 133.476Z" fill="#2D2F34"/>
<path d="M52.9654 123.311C52.9654 123.311 52.8807 123.511 52.6153 123.722C52.266 123.992 51.8572 124.172 51.4238 124.247C50.9935 124.328 50.5504 124.304 50.1307 124.179C49.8088 124.07 49.6395 123.945 49.6564 123.91C50.2169 123.998 50.7861 124.014 51.3504 123.956C51.913 123.809 52.4554 123.592 52.9654 123.311Z" fill="#2D2F34"/>
</g>
</svg>
