<svg width="152" height="175" viewBox="0 0 152 175" xmlns="http://www.w3.org/2000/svg">
<ellipse cx="75.8184" cy="99.2011" rx="75.8184" ry="75.7845" fill="#E6EAF7"/>
<mask id="mask0" style="mask-type:alpha" maskUnits="userSpaceOnUse" x="0" y="0" width="152" height="175">
<path d="M151 0H0V93H0.250183C0.0844727 95.0452 0 97.1133 0 99.2011C0 141.056 33.9451 174.986 75.8184 174.986C117.692 174.986 151.637 141.056 151.637 99.2011C151.637 96.7724 151.522 94.3703 151.299 92H151V0Z" fill="#fff"/>
</mask>
<g mask="url(#mask0)">
<path d="M107.406 25.9653L105.41 77.4839L79.601 76.6496C79.2975 73.6569 78.959 62.065 78.959 62.065C78.959 62.065 68.1849 60.8983 67.5487 50.2224C67.2394 45.0361 67.4729 34.2668 67.7939 24.5535C67.9689 19.3776 70.1622 14.4754 73.9051 10.8944C77.648 7.31341 82.6436 5.33766 87.8245 5.38936C90.4718 5.42253 93.0858 5.98487 95.5123 7.04327C97.9389 8.10167 100.129 9.63473 101.954 11.5521C103.778 13.4696 105.201 15.7326 106.137 18.2079C107.074 20.6832 107.505 23.3208 107.406 25.9653V25.9653Z" fill="#FFBE9D"/>
<path d="M78.9471 62.0649C83.8897 61.923 88.6782 60.3146 92.7036 57.4445C92.7036 57.4445 89.7854 65.2911 79.058 64.836L78.9471 62.0649Z" fill="#EB996E"/>
<path d="M71.3016 32.1958C71.3168 32.5941 71.4869 32.9706 71.7759 33.2452C72.0648 33.5198 72.4496 33.6708 72.8482 33.666C73.043 33.6722 73.2371 33.6395 73.4191 33.5698C73.6011 33.5001 73.7674 33.3948 73.9082 33.26C74.049 33.1253 74.1614 32.9638 74.239 32.7851C74.3165 32.6064 74.3576 32.414 74.3599 32.2192C74.3447 31.8204 74.1747 31.4433 73.886 31.1677C73.5972 30.8922 73.2124 30.7399 72.8132 30.7432C72.6181 30.7378 72.4239 30.7712 72.2419 30.8416C72.0598 30.9119 71.8936 31.0178 71.7529 31.153C71.6122 31.2882 71.4999 31.45 71.4224 31.6291C71.3449 31.8081 71.3038 32.0008 71.3016 32.1958V32.1958Z" fill="#2D2F34"/>
<path d="M70.3502 29.9965C70.5486 30.189 71.6634 29.279 73.3093 29.2031C74.9551 29.1273 76.1983 29.8974 76.3675 29.6873C76.4493 29.594 76.2392 29.244 75.6964 28.8823C74.96 28.4235 74.0997 28.2034 73.2334 28.2522C72.3815 28.2914 71.5641 28.5998 70.8988 29.1331C70.4086 29.5357 70.251 29.9149 70.3502 29.9965Z" fill="#2D2F34"/>
<path d="M86.8792 32.1432C86.8929 32.5394 87.06 32.9149 87.3453 33.1902C87.6306 33.4656 88.0118 33.6194 88.4084 33.6192C88.6037 33.6254 88.7982 33.5925 88.9806 33.5225C89.163 33.4524 89.3296 33.3466 89.4704 33.2112C89.6113 33.0759 89.7236 32.9137 89.8008 32.7343C89.8781 32.5549 89.9186 32.3619 89.92 32.1666C89.905 31.7749 89.7395 31.4042 89.4579 31.1315C89.1764 30.8587 88.8005 30.705 88.4084 30.7023C88.2124 30.6929 88.0166 30.723 87.8326 30.791C87.6485 30.859 87.4801 30.9633 87.3374 31.0978C87.1946 31.2324 87.0805 31.3943 87.0017 31.5739C86.923 31.7535 86.8814 31.9471 86.8792 32.1432V32.1432Z" fill="#2D2F34"/>
<path d="M86.5229 29.5356C86.7214 29.7223 87.8361 28.8122 89.482 28.7422C91.1279 28.6722 92.4002 29.4306 92.5403 29.2206C92.622 29.1273 92.4119 28.7772 91.8691 28.4214C91.1344 27.9637 90.2764 27.7437 89.412 27.7913C88.5595 27.8277 87.7412 28.1364 87.0774 28.6722C86.5813 29.0864 86.4237 29.454 86.5229 29.5356Z" fill="#2D2F34"/>
<path d="M81.1301 42.0083C81.1301 41.915 80.1088 41.7866 78.4396 41.6524C78.0193 41.6524 77.6166 41.5649 77.5349 41.2791C77.4771 40.8481 77.5546 40.4098 77.7567 40.0248C78.101 38.9864 78.4629 37.9071 78.8422 36.7695C80.3539 32.1374 81.422 28.3396 81.2352 28.2813C81.0484 28.223 79.6535 31.9274 78.1652 36.5362C77.8034 37.6757 77.459 38.7647 77.1322 39.8031C76.8898 40.3211 76.8401 40.9086 76.9921 41.4599C77.06 41.605 77.1598 41.7328 77.2842 41.8338C77.4085 41.9349 77.5541 42.0065 77.71 42.0433C77.9458 42.0937 78.1869 42.1153 78.4279 42.1075C80.0971 42.1425 81.1301 42.1016 81.1301 42.0083Z" fill="#2D2F34"/>
<path d="M86.0213 42.9125C85.7587 42.9125 85.8345 44.6627 84.3696 46.0336C82.9046 47.4046 80.9961 47.2646 80.9903 47.5154C80.9903 47.6263 81.4339 47.8421 82.2335 47.8246C83.2797 47.7895 84.28 47.3867 85.0583 46.687C85.8079 46.018 86.2647 45.0816 86.3306 44.0793C86.3656 43.3326 86.1439 42.895 86.0213 42.9125Z" fill="#2D2F34"/>
<path d="M85.7936 23.1183C85.9745 23.5617 87.6087 23.27 89.5464 23.41C91.4841 23.5501 93.0483 23.9934 93.3051 23.5909C93.4101 23.3925 93.1241 23.0075 92.4705 22.5875C91.606 22.0972 90.6413 21.8099 89.6494 21.7472C88.6574 21.6845 87.6642 21.8482 86.7449 22.2258C86.0737 22.535 85.7119 22.9142 85.7936 23.1183Z" fill="#2D2F34"/>
<path d="M70.7295 25.2129C71.0388 25.5745 72.1477 25.1312 73.5134 25.0495C74.8792 24.9678 76.0348 25.1837 76.2857 24.7812C76.3908 24.5828 76.1924 24.1978 75.6729 23.8886C74.9754 23.4991 74.1782 23.3245 73.3817 23.3868C72.5851 23.4491 71.8248 23.7455 71.1964 24.2386C70.7353 24.647 70.5952 25.0378 70.7295 25.2129Z" fill="#2D2F34"/>
<path d="M95.2487 14.951L95.3129 14.9919C97.0793 16.2556 98.2914 18.1503 98.6981 20.2832C98.6981 20.359 98.6981 20.429 98.7389 20.499C99.3226 23.5268 99.3692 26.6362 99.9646 29.6581C100.56 32.6801 101.756 35.7311 104.108 37.7205C105.077 38.543 106.741 39.0564 107.459 38.0122C107.693 37.5778 107.802 37.0871 107.774 36.5946C107.996 29.2031 109.694 22.5934 109.32 14.881C109.274 13.8493 108.982 12.8434 108.47 11.9466C107.957 11.0498 107.239 10.2879 106.373 9.72392C104.704 8.64466 102.679 7.54207 100.928 8.46965C99.1767 9.39723 97.0113 12.8684 95.6748 14.356" fill="#2D2F34"/>
<path d="M104.044 31.1516C104.219 31.0641 111.287 28.6314 111.398 35.9529C111.509 43.2743 104.137 41.8742 104.12 41.6642C104.102 41.4542 104.044 31.1516 104.044 31.1516Z" fill="#FFBE9D"/>
<path d="M106.314 38.8697C106.349 38.8697 106.443 38.9572 106.659 39.0506C106.966 39.1727 107.309 39.1727 107.616 39.0506C108.386 38.753 109.017 37.5163 109.034 36.1978C109.043 35.57 108.912 34.9481 108.649 34.3777C108.577 34.1494 108.451 33.9419 108.281 33.7732C108.111 33.6045 107.903 33.4796 107.674 33.4092C107.527 33.3726 107.372 33.3887 107.235 33.4548C107.099 33.5209 106.99 33.6328 106.927 33.7709C106.828 33.981 106.881 34.1268 106.84 34.1385C106.799 34.1501 106.682 34.016 106.735 33.7126C106.772 33.5314 106.871 33.3686 107.015 33.2517C107.216 33.0968 107.469 33.0257 107.721 33.0534C108.022 33.1079 108.305 33.2391 108.541 33.4342C108.777 33.6294 108.959 33.8819 109.069 34.1676C109.391 34.7976 109.553 35.4966 109.542 36.2037C109.542 37.6796 108.783 39.0681 107.733 39.3889C107.537 39.4489 107.331 39.4643 107.129 39.434C106.927 39.4037 106.734 39.3285 106.565 39.2139C106.332 39.0331 106.291 38.8697 106.314 38.8697Z" fill="#EB996E"/>
<path d="M102.03 10.7332C104.143 8.02047 99.6958 3.30673 96.194 1.77827C92.6921 0.249802 87.807 1.49241 84.1009 2.28581C81.7663 2.78752 79.4025 3.58676 77.0388 3.23089C75.4695 2.89646 73.9588 2.33019 72.5564 1.55075C71.1487 0.77258 69.5983 0.286445 67.9981 0.12146C66.3989 0.0572874 64.6714 0.704841 63.9126 2.13413C63.1539 3.56342 63.7901 5.63443 65.3426 6.04863C63.4516 4.71852 60.3816 5.85612 59.8038 8.09631C59.226 10.3365 61.3679 12.81 63.6675 12.565C62.722 11.6666 60.9886 12.7867 60.9769 14.0935C60.9652 15.4003 62.0333 16.4679 63.1656 17.1212C66.0838 18.7839 69.6382 18.7431 72.8949 18.0313C76.1516 17.3196 79.245 15.9837 82.4842 15.1903C85.7234 14.3968 91.163 12.9267 94.1571 14.3735C96.3749 15.4353 97.6589 18.3814 99.0363 17.9088C99.6854 17.6497 100.264 17.2418 100.727 16.7179C101.189 16.194 101.522 15.5688 101.698 14.8927C102.026 13.5321 102.13 12.1273 102.007 10.7332" fill="#2D2F34"/>
<path d="M65.7514 6.57937C65.7514 6.57937 65.6114 6.64354 65.3837 6.80689C65.0499 7.04696 64.7908 7.37665 64.6367 7.7578C64.385 8.35522 64.3298 9.01715 64.4791 9.64797C64.5756 10.0623 64.7551 10.4527 65.0069 10.7957C65.2587 11.1386 65.5775 11.4269 65.9441 11.6431C66.8472 12.1664 67.8709 12.4459 68.9148 12.454C70.1171 12.4611 71.3135 12.286 72.4633 11.9348C74.9205 11.2231 77.3543 9.77047 79.9223 8.29451C82.4904 6.81855 85.1109 5.58762 87.714 5.27259C88.939 5.11272 90.1834 5.18997 91.3793 5.50011C92.4275 5.77254 93.4167 6.23527 94.2975 6.86523C95.5763 7.7594 96.6066 8.96391 97.2916 10.3655C97.5562 10.8681 97.7525 11.4037 97.8752 11.9582C97.8402 11.9582 97.7001 11.3748 97.204 10.418C96.4884 9.06987 95.4547 7.91646 94.1924 7.05774C93.3349 6.45858 92.3759 6.01978 91.3618 5.76263C90.1945 5.47015 88.9818 5.40479 87.7899 5.57011C85.2568 5.89097 82.6713 7.11608 80.1208 8.58037C77.5702 10.0447 75.0956 11.4973 72.5917 12.2207C71.4112 12.5758 70.1825 12.7451 68.9498 12.7224C67.8638 12.7061 66.8019 12.4 65.874 11.8357C65.4738 11.5778 65.1254 11.2473 64.8468 10.8614C64.5375 10.4049 64.35 9.87696 64.302 9.3277C64.254 8.77844 64.3471 8.22602 64.5725 7.7228C64.7472 7.33179 65.0335 7.00101 65.3954 6.77189C65.5045 6.69143 65.6244 6.62663 65.7514 6.57937V6.57937Z" fill="#4E535C"/>
<path d="M91.6242 2.88082C91.7826 2.85349 91.9444 2.85349 92.1028 2.88082C92.5339 2.91018 92.9606 2.98647 93.3751 3.10834C94.7655 3.50003 96.0047 4.30316 96.9297 5.41211C97.8548 6.52105 98.4224 7.88388 98.5579 9.32137C98.6002 9.75204 98.6002 10.1858 98.5579 10.6165C98.5522 10.7747 98.5186 10.9307 98.4587 11.0774C98.4003 11.0774 98.4995 10.4065 98.3478 9.3272C98.1639 7.94755 97.5934 6.648 96.7021 5.57858C95.8109 4.50916 94.6353 3.71347 93.3109 3.28335C92.2954 2.96249 91.6184 2.93915 91.6242 2.88082Z" fill="#4E535C"/>
<path d="M109.169 21.6366C108.99 21.7375 108.79 21.7936 108.585 21.8C108.011 21.8493 107.436 21.7253 106.933 21.4441C106.182 21.0381 105.571 20.4135 105.182 19.6531C104.729 18.7378 104.392 17.7697 104.178 16.7712C103.97 15.7956 103.643 14.8493 103.204 13.9535C102.84 13.2346 102.268 12.6412 101.564 12.25C101.091 11.9819 100.554 11.8487 100.011 11.865C99.6318 11.865 99.4275 11.9641 99.4275 11.935C99.6044 11.8272 99.8045 11.7632 100.011 11.7483C100.582 11.6832 101.16 11.7909 101.669 12.0575C102.429 12.4443 103.053 13.0552 103.455 13.8076C103.916 14.7236 104.253 15.6966 104.459 16.7012C104.668 17.6762 104.989 18.6237 105.416 19.5248C105.77 20.2511 106.328 20.859 107.021 21.2749C107.487 21.552 108.019 21.699 108.562 21.7008C108.947 21.6775 109.157 21.6075 109.169 21.6366Z" fill="#4E535C"/>
<path d="M108.783 26.4729C108.783 26.4729 108.725 26.4729 108.602 26.5195C108.429 26.5561 108.254 26.5795 108.077 26.5895C107.423 26.6378 106.766 26.5867 106.128 26.4378C103.987 25.9397 102.112 24.6548 100.875 22.8384C99.6659 21.0403 98.9257 18.9688 98.7212 16.812C98.6997 16.4496 98.643 16.0901 98.5519 15.7386C98.4798 15.4825 98.3311 15.2546 98.1259 15.0852C97.9439 14.9452 97.7246 14.862 97.4955 14.846C97.6154 14.8069 97.7433 14.7992 97.867 14.8237C97.9906 14.8483 98.1059 14.9041 98.2017 14.986C98.4386 15.1596 98.6159 15.4021 98.7095 15.6803C98.8221 16.039 98.8964 16.4085 98.9313 16.7829C99.1941 18.8872 99.9456 20.901 101.126 22.6634C102.323 24.4139 104.108 25.6783 106.157 26.2278C107.018 26.4226 107.901 26.505 108.783 26.4729V26.4729Z" fill="#4E535C"/>
<path d="M57.5802 211.265L140.458 210.729L132.094 160.663L130.641 74.5845L114.089 69.5324L105.918 64.9237L79.0291 68.3248L75.5681 72.706C75.5681 72.706 63.8018 76.673 58.7124 79.0007L58.3622 79.1583C54.7527 80.8039 51.6947 83.4554 49.5551 86.7947L27.1256 121.675L-5.67517 102.558L-17.2313 119.377C-17.2313 119.377 23.0401 152.886 30.3415 152.204C37.6429 151.521 40.1759 151.515 42.6972 148.085C44.6291 145.448 52.2223 136.516 55.8409 130.548L59.5354 171.788L57.5802 211.265Z" fill="#FAFAFC"/>
<path d="M83.8383 211.318C83.7508 211.318 83.0854 192.976 82.3559 170.347C81.6263 147.717 81.0894 129.364 81.1886 129.364C81.2878 129.364 81.9357 147.7 82.671 170.341C83.4064 192.982 83.9201 211.318 83.8383 211.318Z" fill="#2D2F34"/>
<path d="M79.134 67.9865L81.2176 130.607L105.894 64.9237L79.134 67.9865Z" fill="#FFBE9D"/>
<path d="M81.4044 134.136C81.3698 134.075 81.3424 134.011 81.3227 133.944C81.2644 133.804 81.1943 133.617 81.1068 133.36C80.9025 132.847 80.6224 132.123 80.2605 131.196C79.5076 129.329 78.4045 126.628 76.8754 123.367C76.0933 121.739 75.2178 119.972 74.1789 118.116C73.1044 116.158 71.8079 114.33 70.3152 112.668C69.4981 111.828 68.5234 110.947 68.1791 109.657C68.031 109.018 68.0471 108.352 68.2258 107.721C68.3833 107.09 68.6051 106.484 68.8094 105.871C69.6207 103.404 70.467 100.854 71.3249 98.2464L71.3774 98.0831L71.535 98.2814L61.6131 99.1798V98.8881L66.9067 88.3872C68.5351 85.1903 70.0059 82.3725 71.2724 80.0507C72.5389 77.7288 73.607 75.897 74.3482 74.6661C74.7276 74.0477 75.031 73.5751 75.2412 73.2601L75.4805 72.9101C75.5388 72.8284 75.568 72.7876 75.5738 72.7934L75.5038 72.9217L75.282 73.2893C75.0836 73.6335 74.7976 74.106 74.4357 74.7186C73.7062 75.967 72.6848 77.8047 71.4358 80.1382C70.1868 82.4717 68.7394 85.2953 67.1285 88.5039L64.5955 93.5793L63.2356 96.2979L62.5294 97.698L62.1617 98.4039L61.9691 98.7539L61.8699 98.9348L61.8115 99.0223C61.7704 99.0872 61.7088 99.1365 61.6364 99.1623V98.8706L71.5584 97.9606H71.786L71.7159 98.1822L71.6634 98.3397C70.7996 100.947 69.9533 103.497 69.1421 105.965C68.7569 107.184 68.1966 108.409 68.5117 109.587C68.8269 110.766 69.7491 111.629 70.5662 112.469C72.0771 114.164 73.3837 116.03 74.4591 118.029C75.498 119.884 76.3617 121.663 77.1322 123.279C78.638 126.558 79.7177 129.277 80.4356 131.161C80.7858 132.106 81.0542 132.841 81.2235 133.343C81.313 133.592 81.3772 133.786 81.4161 133.926C81.4168 133.996 81.4129 134.066 81.4044 134.136V134.136Z" fill="#2D2F34"/>
<path d="M81.3228 134.725C81.3138 134.658 81.3138 134.589 81.3228 134.521L81.4162 133.938C81.5539 133.175 81.759 132.425 82.029 131.698C83.0882 129.033 84.4325 126.49 86.0386 124.114C87.0367 122.597 88.1748 120.963 89.4646 119.248C90.8256 117.419 92.2869 115.666 93.842 113.998C95.571 112.126 97.4636 110.412 99.4975 108.876C100.584 108.072 101.712 107.326 102.877 106.641C104.044 105.941 105.27 105.276 106.437 104.5L106.396 104.71C104.805 102.336 102.649 100.393 100.122 99.0574L99.9119 98.9466L100.104 98.8065C103.713 96.1175 107.918 94.3385 112.361 93.6203L112.25 93.7428L113.517 76.3346C113.68 74.2345 113.808 72.566 113.902 71.4109C113.948 70.8275 113.984 70.4191 114.013 70.1099L114.048 69.7774C114.041 69.7388 114.041 69.6993 114.048 69.6607C114.052 69.6995 114.052 69.7386 114.048 69.7774V70.1099C114.048 70.425 114.007 70.8625 113.978 71.4167C113.908 72.5835 113.803 74.2403 113.674 76.3463C113.388 80.5992 112.991 86.6139 112.507 93.7661V93.8711H112.402C108.002 94.5922 103.84 96.361 100.268 99.0282V98.7774C102.84 100.134 105.034 102.109 106.653 104.524L106.74 104.646L106.612 104.734C105.445 105.515 104.207 106.186 103.034 106.886C101.877 107.562 100.757 108.298 99.6784 109.092C97.663 110.615 95.7844 112.311 94.0637 114.161C92.5072 115.828 91.0458 117.581 89.6864 119.412C88.3907 121.109 87.2409 122.731 86.2371 124.242C84.6165 126.591 83.2471 129.104 82.1516 131.739C81.8689 132.456 81.6464 133.195 81.4862 133.95C81.4337 134.195 81.3928 134.393 81.3636 134.533C81.3571 134.598 81.3434 134.663 81.3228 134.725Z" fill="#2D2F34"/>
<path d="M108.778 146.16C108.683 146.203 108.583 146.232 108.48 146.247L107.616 146.434C106.551 146.655 105.473 146.809 104.389 146.895C102.766 147.042 101.131 146.843 99.591 146.311C97.6746 145.645 96.087 144.269 95.1553 142.467C94.3283 140.649 93.9157 138.67 93.9471 136.674C93.9471 134.848 94.0055 133.232 94.0113 131.855C94.0172 130.478 94.058 129.376 94.0989 128.606C94.0989 128.221 94.1397 127.923 94.1572 127.725C94.1567 127.62 94.1725 127.516 94.2039 127.416C94.2112 127.518 94.2112 127.622 94.2039 127.725C94.2039 127.964 94.2039 128.256 94.2039 128.611C94.2039 129.422 94.2039 130.519 94.2039 131.855V136.668C94.1874 138.621 94.5977 140.554 95.4062 142.333C96.3001 144.067 97.8216 145.396 99.661 146.049C101.158 146.575 102.747 146.788 104.33 146.673C105.408 146.607 106.481 146.487 107.546 146.311L108.421 146.183C108.539 146.161 108.658 146.153 108.778 146.16V146.16Z" fill="#2D2F34"/>
<path d="M111.929 127.013C111.929 127.095 107.96 127.258 103.069 127.369C98.1785 127.48 94.2039 127.509 94.2039 127.421C94.2039 127.334 98.1668 127.182 103.064 127.066C107.96 126.949 111.929 126.961 111.929 127.013Z" fill="#2D2F34"/>
<path d="M103.297 127.135V121.354C103.297 120.904 103.476 120.472 103.794 120.154C104.113 119.835 104.545 119.657 104.995 119.657V119.657C105.446 119.657 105.878 119.835 106.196 120.154C106.515 120.472 106.694 120.904 106.694 121.354V130.881C106.699 130.957 106.689 131.034 106.665 131.107C106.641 131.18 106.602 131.247 106.552 131.305C106.45 131.422 106.306 131.494 106.151 131.505C105.996 131.516 105.844 131.465 105.726 131.363C105.609 131.261 105.537 131.117 105.527 130.962C105.527 130.892 105.527 130.811 105.527 130.735C105.527 129.282 105.363 127.065 105.363 127.065L103.297 127.135Z" fill="#00227D"/>
<path d="M102.999 137.123C102.848 135.767 102.798 134.403 102.847 133.039C102.797 131.676 102.848 130.311 102.999 128.956C103.15 130.311 103.201 131.676 103.151 133.039C103.2 134.403 103.15 135.767 102.999 137.123V137.123Z" fill="#2D2F34"/>
<path d="M106.285 144.69C106.204 144.69 106.134 141.773 106.134 138.191C106.134 134.609 106.204 131.692 106.285 131.692C106.367 131.692 106.437 134.609 106.437 138.191C106.437 141.773 106.373 144.69 106.285 144.69Z" fill="#2D2F34"/>
<path d="M79.572 81.1592L87.6788 91.0476C93.4044 85.2721 97.5191 79.5666 101.103 77.0464C101.103 77.0464 81.2238 131.488 81.1946 130.583C81.1654 129.679 79.572 81.1592 79.572 81.1592Z" fill="#F28080"/>
<path d="M101.126 77.0696C101.065 77.1519 100.997 77.2281 100.922 77.2971L100.291 77.8805C99.7426 78.3997 98.9605 79.1698 98.0034 80.1265C96.0832 82.0342 93.5327 84.7936 90.7487 87.8272C87.9647 90.8608 85.3792 93.6027 83.4181 95.4812C82.4376 96.4205 81.6322 97.1613 81.0543 97.6572L80.389 98.2406C80.3148 98.3121 80.2325 98.3748 80.1439 98.4273C80.1439 98.4273 80.2081 98.3398 80.3481 98.1998L80.9726 97.6164C81.5271 97.0972 82.3092 96.3271 83.2664 95.3704C85.1807 93.4627 87.7312 90.7033 90.5211 87.6697C93.3109 84.6361 95.8906 81.8942 97.8516 80.0157C98.8321 79.0765 99.6376 78.3356 100.215 77.8397L100.875 77.2563C101.032 77.1221 101.114 77.0579 101.126 77.0696Z" fill="#2D2F34"/>
<path d="M87.6261 91.0067C87.5619 91.0592 85.7059 88.9007 83.4823 86.1822C81.2586 83.4636 79.5076 81.2117 79.5718 81.1592C79.636 81.1067 81.492 83.2652 83.7157 85.9896C85.9394 88.7141 87.6903 90.9542 87.6261 91.0067Z" fill="#2D2F34"/>
<path d="M53.1678 100.073C53.2055 100.206 53.229 100.343 53.2379 100.481C53.2787 100.778 53.3254 101.169 53.3838 101.648C53.5063 102.669 53.6639 104.145 53.8507 105.976C54.2184 109.634 54.6561 114.692 55.1114 120.281C55.5666 125.87 55.9868 130.899 56.2787 134.591C56.4304 136.394 56.553 137.87 56.6405 138.926C56.6814 139.416 56.7106 139.807 56.7339 140.093C56.7443 140.231 56.7443 140.369 56.7339 140.507C56.6956 140.373 56.6702 140.237 56.658 140.098C56.623 139.801 56.5763 139.41 56.5121 138.932C56.3896 137.911 56.232 136.435 56.051 134.603C55.6833 130.945 55.2398 125.887 54.7845 120.298C54.3293 114.71 53.9149 109.681 53.6173 105.988C53.4655 104.185 53.3429 102.709 53.2496 101.654C53.2145 101.163 53.1853 100.773 53.162 100.487C53.1497 100.349 53.1516 100.21 53.1678 100.073V100.073Z" fill="#2D2F34"/>
<path d="M129.444 74.4563C129.444 74.4563 142.436 74.4563 145.693 99.4367C148.95 124.417 156.111 170.23 143.09 178.917C130.069 187.603 69.7317 186.991 69.7317 186.991V162.792L119.236 157.332C119.236 157.332 119.05 152.828 121.571 152.863L118.758 95.7614C118.758 95.7614 118.174 75.5414 129.444 74.4563Z" fill="#FAFAFC"/>
<path d="M118.886 114.739C118.886 114.739 118.886 114.972 118.938 115.427C118.991 115.882 119.003 116.594 119.055 117.457C119.148 119.248 119.289 121.862 119.469 125.21C119.814 131.925 120.31 141.574 120.917 153.329V153.452H120.789C120.37 153.462 119.968 153.617 119.65 153.889C119.328 154.197 119.088 154.58 118.95 155.004C118.657 155.903 118.53 156.848 118.577 157.792V157.915H118.46L69.7489 162.926L69.8831 162.774V186.991L69.7372 186.845C90.8126 187.072 109.192 186.261 122.178 184.599C125.428 184.185 128.329 183.712 130.856 183.216C133.005 182.792 135.131 182.257 137.224 181.612C138.07 181.326 138.817 181.028 139.459 180.801C140.101 180.573 140.627 180.299 141.041 180.083L141.963 179.558L142.284 179.389C142.284 179.389 142.185 179.459 141.981 179.582L141.064 180.13C140.65 180.352 140.113 180.579 139.488 180.877C138.864 181.174 138.105 181.414 137.253 181.705C135.162 182.37 133.036 182.924 130.886 183.362C128.358 183.875 125.452 184.36 122.207 184.785C109.209 186.471 90.8184 187.352 69.7314 187.119H69.5854V186.973C69.5854 179.973 69.5854 172.587 69.5854 164.985V162.652H69.7255L118.436 157.693L118.32 157.827C118.267 156.839 118.402 155.849 118.717 154.91C118.867 154.451 119.13 154.036 119.481 153.703C119.846 153.394 120.305 153.217 120.783 153.201L120.666 153.329C120.082 141.574 119.645 131.925 119.329 125.205C119.178 121.856 119.055 119.242 118.973 117.451C118.938 116.565 118.915 115.888 118.892 115.421C118.868 114.955 118.886 114.739 118.886 114.739Z" fill="#2D2F34"/>
<path d="M127.921 159.222C127.868 159.222 127.676 158.72 127.232 157.962C126.648 156.977 125.9 156.099 125.02 155.365C124.136 154.638 123.136 154.064 122.061 153.668C121.238 153.37 120.689 153.277 120.701 153.224C121.188 153.22 121.672 153.301 122.131 153.464C123.26 153.809 124.308 154.376 125.216 155.13C126.124 155.884 126.872 156.811 127.419 157.857C127.667 158.278 127.837 158.74 127.921 159.222V159.222Z" fill="#2D2F34"/>
<path d="M122.102 163.714C121.401 161.405 120.11 159.32 118.355 157.664C118.682 157.817 118.978 158.03 119.225 158.294C119.869 158.877 120.427 159.549 120.882 160.289C121.342 161.026 121.696 161.823 121.933 162.658C122.059 162.995 122.117 163.354 122.102 163.714V163.714Z" fill="#2D2F34"/>
<path d="M-48.9411 92.7393L-13.4555 187.049L61.817 188.572L30.7963 93.3869L-48.9411 92.7393Z" fill="#F28080"/>
<path d="M-48.9411 92.7393L30.7964 93.2585H30.8839L30.9131 93.346C39.6269 120.053 50.1033 152.174 61.3735 186.687L61.9571 188.502L62.0271 188.706H61.8112L-13.4789 187.172H-13.5723L-13.6073 187.084L-48.9411 92.7393C-48.5209 93.8652 -34.4375 131.126 -13.3388 187.002L-13.4614 186.915L61.8287 188.42L61.6828 188.618C61.4844 188.035 61.2859 187.417 61.0992 186.804L30.6913 93.4277L30.808 93.5152L-48.9411 92.7393Z" fill="#2D2F34"/>
<path d="M69.8484 164.764H62.3019C62.3019 164.764 58.4382 161.036 57.3876 160.511C56.337 159.986 51.1776 158.428 51.1776 158.428L53.1679 163.947C53.4793 164.036 53.7853 164.143 54.0842 164.268C55.4032 164.781 55.0355 165.948 53.985 165.948H46.3859C46.3859 165.948 38.6001 162.215 37.4445 162.897C36.4756 163.481 36.1371 164.501 37.1293 165.948C38.1215 167.395 44.9443 170.796 45.7264 171.059L47.9559 171.712L45.8606 172.365L35.9387 168.906C35.2909 168.789 34.4037 168.684 34.1119 169.058C33.986 169.185 33.8871 169.336 33.8214 169.502C33.7556 169.669 33.7242 169.847 33.7291 170.026C33.734 170.204 33.7751 170.38 33.8499 170.543C33.9247 170.705 34.0317 170.851 34.1644 170.971C35.5782 172.249 37.0778 173.428 38.6526 174.501C38.6526 174.501 37.071 176.834 38.3783 178.001C39.6857 179.168 43.491 182.72 43.491 182.72C43.491 182.72 43.8879 184.686 45.0669 185.602C46.2458 186.518 59.2261 186.518 60.1424 186.518C61.0587 186.518 66.3057 183.508 66.3057 183.508L69.7375 183.146L69.8484 164.764Z" fill="#FFBE9D"/>
<path d="M47.3489 178.246C46.8911 178.393 46.411 178.458 45.9306 178.438C45.4009 178.44 44.8752 178.347 44.3781 178.164C43.7837 177.929 43.2179 177.628 42.6914 177.266C41.5649 176.536 40.5611 175.86 39.8374 175.358C39.4319 175.112 39.0542 174.822 38.7109 174.495C39.1505 174.677 39.5692 174.906 39.9599 175.177C40.707 175.632 41.7109 176.28 42.8782 177.009C43.3884 177.359 43.9319 177.658 44.5007 177.902C44.9654 178.09 45.4588 178.199 45.9598 178.222C46.8002 178.263 47.3489 178.193 47.3489 178.246Z" fill="#EB996E"/>
<path d="M51.6384 172.36C50.95 172.445 50.2514 172.391 49.584 172.202C48.8967 172.111 48.2342 171.885 47.6346 171.537C48.3158 171.597 48.9898 171.72 49.6482 171.904C50.3241 171.995 50.9903 172.148 51.6384 172.36V172.36Z" fill="#EB996E"/>
</g>
</svg>
