<svg width="152" height="175" viewBox="0 0 152 175" xmlns="http://www.w3.org/2000/svg">
<ellipse cx="75.8621" cy="99.0244" rx="75.8621" ry="75.9756" fill="#E6EAF7"/>
<mask id="mask0" style="mask-type:alpha" maskUnits="userSpaceOnUse" x="0" y="0" width="152" height="175">
<path d="M149 0H3V99H3.8147e-06L0 99.0244C0 140.985 33.9646 175 75.8621 175C117.76 175 151.724 140.985 151.724 99.0244V99H149V0Z" fill="#fff"/>
</mask>
<g mask="url(#mask0)">
<path d="M86.0298 26.4904L86.5512 68.3069C86.6416 75.4156 85.3207 85.8802 74.0861 85.5112C64.3533 84.4529 61.781 75.2346 61.7115 68.5994C61.6698 65.4454 61.635 62.8205 61.6142 62.5003C61.6142 62.5003 50.9706 61.6299 50.0738 51.1027C49.6358 46.0132 49.5941 35.465 49.6636 25.9195C49.6978 20.9699 51.5928 16.2149 54.971 12.602C58.3492 8.98906 62.9626 6.78345 67.8919 6.42464L68.9069 6.34805C79.9189 6.21576 86.1758 15.4758 86.0298 26.4904Z" fill="#FFBE9D"/>
<path d="M61.6145 62.5003C66.4705 62.1318 71.1195 60.3777 75.0111 57.4455C75.0111 57.4455 72.2303 65.3827 61.6632 65.2017L61.6145 62.5003Z" fill="#EB996E"/>
<path d="M67.6347 30.2362C67.8432 30.4451 69.0598 29.4704 70.8187 29.4216C72.5776 29.3729 73.8984 30.2362 74.0861 30.0134C74.1765 29.909 73.9541 29.5191 73.3909 29.1153C72.6156 28.6007 71.6997 28.3404 70.77 28.3703C69.851 28.3978 68.9656 28.7227 68.2464 29.2963C67.7111 29.7349 67.5373 30.1388 67.6347 30.2362Z" fill="#2D2F34"/>
<path d="M69.4351 33.8567C69.4567 34.2212 69.6203 34.5626 69.8907 34.8074C70.1612 35.0522 70.5169 35.1809 70.8811 35.1656C71.2499 35.1656 71.6035 35.0189 71.8643 34.7578C72.125 34.4966 72.2715 34.1425 72.2715 33.7731C72.2645 33.5878 72.2205 33.4057 72.1422 33.2375C72.0638 33.0694 71.9528 32.9187 71.8155 32.7941C71.6782 32.6696 71.5174 32.5738 71.3427 32.5124C71.1679 32.4509 70.9826 32.4251 70.7977 32.4363C70.6151 32.44 70.435 32.4796 70.2677 32.5529C70.1004 32.6263 69.9491 32.7319 69.8226 32.8638C69.6961 32.9957 69.5967 33.1513 69.5302 33.3216C69.4637 33.492 69.4314 33.6738 69.4351 33.8567Z" fill="#2D2F34"/>
<path d="M63.2344 42.504C63.2344 42.4066 62.2194 42.3091 60.5718 42.2186C60.1547 42.2186 59.7584 42.1559 59.668 41.8774C59.6009 41.4526 59.6665 41.0173 59.8557 40.6312C60.1662 39.6007 60.4976 38.5215 60.8499 37.3936C62.2403 32.7845 63.1718 29.0387 62.9911 28.9551C62.8103 28.8716 61.5451 32.5965 60.1755 37.1987L59.237 40.4571C59.011 40.9735 58.9765 41.5537 59.1396 42.0933C59.2077 42.2315 59.3052 42.353 59.4254 42.4492C59.5455 42.5455 59.6853 42.6141 59.8348 42.6503C60.064 42.6925 60.2975 42.7065 60.53 42.692C61.4358 42.7461 62.3448 42.683 63.2344 42.504V42.504Z" fill="#2D2F34"/>
<path d="M68.3856 23.601C68.5594 23.9909 69.9637 23.6985 71.6531 23.789C73.3424 23.8795 74.7329 24.2485 74.9275 23.8725C75.0109 23.6915 74.7537 23.3295 74.1767 22.9814C73.4228 22.5517 72.5757 22.3127 71.7087 22.2851C70.8418 22.2375 69.9768 22.4074 69.1921 22.7794C68.6012 23.0788 68.3161 23.413 68.3856 23.601Z" fill="#2D2F34"/>
<path d="M51.659 26.8734C51.8467 27.1867 53.2232 26.8386 54.8847 26.7829C56.5463 26.7272 57.9367 26.943 58.1105 26.6158C58.187 26.4557 57.9089 26.1702 57.3319 25.9196C56.5502 25.6086 55.7107 25.4709 54.8708 25.5157C54.0193 25.5419 53.1829 25.7483 52.4168 26.1215C51.8467 26.4139 51.5825 26.7202 51.659 26.8734Z" fill="#2D2F34"/>
<path d="M85.7448 34.351C85.9186 34.2605 92.815 31.6844 93.107 38.9045C93.399 46.1245 86.1063 44.934 86.0855 44.7251C86.0646 44.5162 85.7448 34.351 85.7448 34.351Z" fill="#FFBE9D"/>
<path d="M88.178 41.8984C88.178 41.8984 88.3032 41.9819 88.5187 42.0724C88.8228 42.1906 89.1601 42.1906 89.4642 42.0724C90.2081 41.7591 90.8059 40.5268 90.7851 39.2178C90.7772 38.5996 90.6323 37.9908 90.361 37.4354C90.2848 37.2119 90.1549 37.0105 89.9828 36.849C89.8106 36.6876 89.6015 36.5709 89.3738 36.5094C89.2324 36.4825 89.0861 36.5051 88.9595 36.5736C88.8328 36.6421 88.7336 36.7522 88.6786 36.8854C88.5882 37.0873 88.6369 37.2335 88.6021 37.2475C88.5674 37.2614 88.4422 37.1291 88.4909 36.8297C88.5205 36.6476 88.6142 36.4821 88.7551 36.3632C88.8513 36.2839 88.9623 36.2246 89.0817 36.1888C89.2011 36.1529 89.3263 36.1412 89.4503 36.1543C89.7483 36.2012 90.0293 36.3236 90.2666 36.5101C90.504 36.6966 90.6896 36.9409 90.8059 37.2196C91.1369 37.8314 91.3135 38.515 91.3204 39.2109C91.3204 40.673 90.6252 42.0655 89.6171 42.4066C89.4264 42.4721 89.2232 42.4929 89.0232 42.4676C88.8231 42.4422 88.6315 42.3714 88.4631 42.2604C88.1989 42.0724 88.1502 41.9123 88.178 41.8984Z" fill="#EB996E"/>
<path d="M64.9307 47.5031C64.8473 47.3221 66.2586 46.8974 67.2527 45.5676C67.6693 44.9864 68.006 44.3517 68.2538 43.6807C68.4624 43.1586 68.6223 42.8313 68.6987 42.8522C68.7752 42.8731 68.7544 43.2351 68.6362 43.7991C68.4833 44.5544 68.1678 45.2672 67.7115 45.8878C67.2338 46.5096 66.5973 46.9907 65.8693 47.2803C65.32 47.5519 64.9446 47.5658 64.9307 47.5031Z" fill="#2D2F34"/>
<path d="M95.3322 22.6332C93.8236 20.0919 93.4759 17.0633 92.6556 14.2087C91.8353 11.3541 90.2571 8.42287 87.4694 7.42724H87.4068C84.911 6.42464 81.8452 6.41072 79.7595 8.12348C79.252 4.37072 75.9637 1.40471 72.3069 0.464781C68.6502 -0.47515 62.7826 0.0818434 59.2788 1.49522C56.5675 2.58833 53.9466 4.83023 50.7556 8.11651C49.4099 9.50094 48.1799 10.9936 47.078 12.5795L43.9009 22.4174L46.6261 27.5766C46.7837 27.935 46.9624 28.2838 47.1614 28.621V28.621L49.6155 39.4893C49.7754 36.5233 49.5598 26.2189 49.7128 23.2529C51.9388 23.1871 54.1286 22.6708 56.1501 21.7351C58.1717 20.7994 59.9832 19.4637 61.4757 17.8083C63.0955 16.0189 64.3608 13.77 66.5229 12.6978C69.3037 11.3053 72.6337 12.3218 75.5605 13.3453L75.4354 13.2339C76.9703 13.9433 78.3537 14.9434 79.5093 16.179C78.8453 22.0413 79.4499 27.9779 81.282 33.5852C81.5601 34.4276 82.311 36.1613 83.1382 36.4816C84.7511 37.1082 85.1891 35.4581 86.1624 34.5808C86.8576 33.9333 87.9491 33.8846 89.1101 33.8846C89.9197 31.4294 90.5814 28.9277 91.0914 26.393C92.0698 26.6962 93.1056 26.7653 94.1155 26.5949L93.1839 24.3669C93.5702 24.6488 94.0104 24.8479 94.477 24.9517C94.7123 24.9989 94.9563 24.9728 95.1762 24.8769C95.3962 24.7811 95.5816 24.6201 95.7075 24.4156C96.0134 23.8308 95.645 23.1972 95.3322 22.6332Z" fill="#2D2F34"/>
<path d="M76.4428 9.40456C76.819 9.69989 77.1722 10.0234 77.4995 10.3723C78.3282 11.3738 78.8839 12.5732 79.1124 13.8536C79.2932 14.7332 79.384 15.629 79.3835 16.5271C79.3835 17.5019 79.3071 18.5393 79.2306 19.6324C79.1332 20.7901 79.1077 21.9528 79.1541 23.1136C79.1858 23.7269 79.2648 24.3368 79.3905 24.9378C79.4836 25.5791 79.7397 26.1857 80.1343 26.6993C80.3165 26.9044 80.5488 27.0586 80.8084 27.1465C81.0681 27.2344 81.3461 27.253 81.6151 27.2006C82.1312 27.1058 82.601 26.8411 82.9499 26.4486C83.5222 25.6625 83.8728 24.7366 83.9649 23.7681H83.7425C84.0601 24.5618 84.491 25.3053 85.0216 25.9752C85.5386 26.5947 86.2721 26.9931 87.0725 27.0892C87.4443 27.1249 87.8188 27.06 88.157 26.9012C88.4637 26.7439 88.7193 26.5024 88.8939 26.205C89.048 25.9187 89.1247 25.5971 89.1164 25.272C89.1017 24.9689 88.9811 24.6806 88.7757 24.4574L88.6645 24.5549C89.2917 25.2721 90.0612 25.8507 90.9239 26.2537C91.2229 26.386 91.4592 26.4695 91.6191 26.5252C91.6996 26.5566 91.7837 26.5776 91.8694 26.5879L91.633 26.4835C91.4732 26.4208 91.2437 26.3233 90.9378 26.1771C90.1021 25.7568 89.3596 25.1718 88.7549 24.4574L88.6437 24.5549C88.8166 24.7763 88.9162 25.0462 88.9286 25.327C88.9411 25.6078 88.8658 25.8855 88.7132 26.1214C88.5518 26.4007 88.3093 26.6242 88.018 26.762C87.7104 26.9069 87.3683 26.9624 87.0308 26.9221C86.2867 26.8242 85.6079 26.4457 85.1329 25.8638C84.6225 25.2065 84.2082 24.4797 83.9024 23.7054L83.7494 23.3643L83.6799 23.7333C83.5899 24.6558 83.2564 25.5378 82.7136 26.2885C82.4057 26.6501 81.9839 26.8957 81.5178 26.9848C81.2899 27.0302 81.0541 27.0156 80.8335 26.9424C80.613 26.8692 80.4151 26.7398 80.2595 26.567C79.8939 26.0811 79.655 25.5116 79.5643 24.91C79.4435 24.3224 79.3668 23.7266 79.3349 23.1276C79.2853 21.9855 79.3062 20.8415 79.3974 19.702C79.467 18.6089 79.5365 17.5646 79.5226 16.5828C79.5162 15.6718 79.4136 14.7639 79.2167 13.8745C78.9692 12.5667 78.379 11.3485 77.5065 10.3445C77.2065 9.97423 76.847 9.65657 76.4428 9.40456V9.40456Z" fill="#5F646F"/>
<path d="M43.942 19.6603L44.0254 19.7299L44.2896 19.9248C44.4313 20.03 44.58 20.1254 44.7346 20.2103C44.9401 20.3359 45.1537 20.4476 45.3741 20.5445C46.7826 21.1855 48.329 21.4632 49.8721 21.3522C52.171 21.2062 54.3771 20.3907 56.2193 19.0058C58.4424 17.3097 60.297 15.1775 61.6697 12.7396C62.4345 11.4585 63.0602 10.1565 63.7554 8.94505C64.3817 7.77045 65.173 6.69189 66.1052 5.74233C66.9435 4.88056 67.9864 4.24576 69.1362 3.89727C69.6562 3.75215 70.196 3.69105 70.7352 3.71625C71.2318 3.74583 71.7225 3.83943 72.1952 3.99475C73.0106 4.27512 73.7571 4.72606 74.3851 5.31762C74.8595 5.76487 75.2607 6.28412 75.5738 6.85632C75.8169 7.35961 75.9989 7.8902 76.1161 8.4368C76.1161 8.4368 76.1161 8.40198 76.1161 8.32539C76.1161 8.24881 76.1161 8.13741 76.0674 8.00513C75.9787 7.59419 75.8435 7.19473 75.6642 6.81454C75.3665 6.21973 74.9691 5.68045 74.4893 5.22015C73.8557 4.5986 73.0941 4.12334 72.2577 3.82765C71.7715 3.656 71.2637 3.5529 70.7491 3.5213C70.1896 3.49047 69.6287 3.54923 69.0876 3.69537C67.9026 4.04751 66.8247 4.69142 65.9522 5.56827C65.0011 6.53121 64.1933 7.62626 63.5537 8.81973C62.8585 10.0382 62.2329 11.3401 61.4681 12.6003C60.1184 15.0315 58.2902 17.1633 56.0942 18.8666C54.2789 20.24 52.1063 21.0596 49.8374 21.2268C48.3198 21.359 46.793 21.12 45.388 20.5306C44.4634 20.0154 43.9629 19.6255 43.942 19.6603Z" fill="#5F646F"/>
<path d="M51.5825 30.8977C51.7911 31.1135 53.0077 30.1318 54.7666 30.0831C56.5254 30.0343 57.8394 30.9046 58.0271 30.6749C58.1174 30.5774 57.9019 30.1875 57.3319 29.7837C56.5606 29.2658 55.6458 29.0051 54.7179 29.0387C53.7979 29.0657 52.9108 29.3878 52.1873 29.9577C51.652 30.4033 51.4782 30.8002 51.5825 30.8977Z" fill="#2D2F34"/>
<path d="M54.0016 33.8567C54.0087 34.0421 54.0527 34.2242 54.131 34.3923C54.2093 34.5605 54.3204 34.7112 54.4577 34.8357C54.595 34.9603 54.7557 35.0561 54.9305 35.1175C55.1053 35.179 55.2906 35.2048 55.4755 35.1935C55.8442 35.1935 56.1979 35.0468 56.4587 34.7857C56.7194 34.5245 56.8659 34.1704 56.8659 33.801C56.8588 33.6157 56.8149 33.4336 56.7365 33.2655C56.6582 33.0973 56.5472 32.9466 56.4099 32.8221C56.2726 32.6975 56.1118 32.6017 55.937 32.5403C55.7622 32.4788 55.577 32.453 55.3921 32.4643C55.0233 32.4643 54.6696 32.611 54.4089 32.8721C54.1481 33.1332 54.0016 33.4874 54.0016 33.8567Z" fill="#2D2F34"/>
<path d="M47.9811 11.4167C47.0982 12.6142 45.7356 13.7073 44.2617 13.5681C43.7279 13.461 43.2028 13.3144 42.6906 13.1295C42.1761 13.4428 42.3221 15.2182 42.6906 15.6917C43.0316 16.0983 43.406 16.4756 43.8099 16.8196C42.0927 17.7734 40.5076 17.3348 38.6584 16.6873C38.8606 18.2585 39.4711 19.7491 40.4288 21.01C41.3864 22.2709 42.6578 23.2579 44.1157 23.8725C44.5652 24.104 45.0633 24.2248 45.5687 24.2248C46.0741 24.2248 46.5722 24.104 47.0217 23.8725C47.7011 23.2891 48.1437 22.4768 48.2661 21.5889C49.056 18.4169 49.4507 15.1592 49.441 11.8902L47.9811 11.4167Z" fill="#2D2F34"/>
<path d="M56.6575 70.6115L61.5239 68.0145C61.5239 68.0145 66.6754 75.6732 74.3226 74.9143C81.9699 74.1554 86.8363 67.3809 86.8363 67.3809L91.7028 69.8526L75.0178 97.2638L56.6575 70.6115Z" fill="#F28080"/>
<path d="M111.488 150.359L105.85 111.704L109.987 75.4086L90.7364 68.669L74.9831 94.4301L56.9772 69.4697L46.2919 74.1554C36.9832 78.2424 28.5781 87.0708 26.6524 97.0619C26.6524 97.1942 26.6037 97.3265 26.5759 97.4587C24.1079 110.841 26.8401 129.918 26.8401 129.918L45.0962 121.827L43.6224 115.373L47.0984 130.106C47.0984 130.106 32.1862 184.538 34.3066 202.383C34.3066 202.383 62.4555 208.649 88.3797 204.395C114.304 200.141 121.339 198.937 121.339 198.937L111.488 150.359Z" fill="#FAFAFC"/>
<path d="M109.987 75.4087C109.987 75.4087 121.187 85.1562 122.424 98.6982C123.661 112.24 125.949 124.341 125.949 124.341L103.375 126.757C103.375 126.757 102.847 117.469 103.375 116.905C103.904 116.341 107.609 88.4703 107.609 88.4703L109.987 75.4087Z" fill="#FAFAFC"/>
<g opacity="0.2">
<path opacity="0.2" d="M42.3775 149.19L41.5641 152.929L55.2457 157.802C60.1122 159.543 65.0203 161.284 70.1231 162.168C79.4736 163.776 89.0605 162.384 98.4527 160.991C103.695 160.218 109.576 159.042 112.468 154.586C88.968 156.016 65.3832 154.2 42.3775 149.19V149.19Z" fill="black"/>
</g>
<path d="M28.5156 129.159C28.6894 129.347 34.7725 147.017 38.3041 150.171C41.8358 153.325 62.2887 152.218 70.9301 149.057C79.5715 145.897 97.9249 142.06 97.9249 142.06L95.1441 127.808C95.1441 127.808 88.4284 128.504 79.5993 129.897C76.4014 130.419 47.1471 130.085 47.1471 130.085L45.1241 121.806L28.5156 129.159Z" fill="#F28080"/>
<path d="M124.745 124.473C124.697 124.473 124.189 147.756 121.721 150.735C119.253 153.715 110.598 157.238 104.091 157.983C97.5838 158.728 57.8807 156.918 52.0618 152.058L75.0036 136.045L98.3764 141.823L104.918 139.004L105.516 126.527L124.745 124.473Z" fill="#F28080"/>
<path d="M103.793 161.374C103.699 161.512 103.595 161.643 103.48 161.764L102.534 162.843C102.124 163.317 101.61 163.881 100.984 164.507C100.358 165.134 99.6771 165.9 98.8498 166.596C98.0225 167.292 97.1465 168.204 96.1385 169.04C95.1304 169.875 94.0529 170.773 92.8849 171.685C90.3367 173.622 87.6713 175.398 84.904 177.005C82.1213 178.592 79.2448 180.008 76.2904 181.245C74.9 181.774 73.6208 182.31 72.3694 182.714C71.7507 182.923 71.1528 183.139 70.5758 183.32L68.8934 183.814C67.8298 184.141 66.8426 184.364 65.9874 184.573C65.1323 184.782 64.3815 184.949 63.7628 185.06L62.3724 185.318C62.2096 185.352 62.0447 185.376 61.8788 185.388C62.0334 185.324 62.1942 185.278 62.3585 185.248L63.7489 184.921C64.3607 184.789 65.0976 184.615 65.9527 184.378C66.8078 184.141 67.7811 183.912 68.8378 183.563L70.4993 183.055C71.0764 182.867 71.6673 182.644 72.286 182.429C73.5304 182.018 74.8166 181.475 76.1792 180.932C82.0591 178.463 87.6081 175.268 92.6972 171.421C93.8582 170.523 94.9706 169.673 95.9578 168.81C96.9449 167.947 97.8626 167.16 98.6829 166.408C99.5033 165.656 100.219 164.946 100.852 164.319C101.485 163.693 102.02 163.163 102.444 162.704L103.438 161.673C103.548 161.564 103.667 161.464 103.793 161.374Z" fill="#3A3C41"/>
<path d="M96.2842 70.6115L96.1938 70.7995L95.9088 71.3704L94.7825 73.4591L90.5557 81.1178L76.443 106.294L76.304 106.545L76.1371 106.315L75.5949 105.57L58.2147 81.7166L52.9798 74.4617L51.5894 72.4844C51.4434 72.2686 51.3253 72.0945 51.2279 71.9622C51.186 71.9026 51.1488 71.8397 51.1167 71.7742C51.1703 71.8254 51.2192 71.8813 51.2627 71.9413C51.36 72.0667 51.4852 72.2338 51.652 72.4357L53.1119 74.3782L58.4372 81.5635L75.9077 105.354L76.45 106.099H76.1441C81.7057 96.2473 86.7042 87.3632 90.3402 80.9229L94.6574 73.3408L95.8462 71.2938L96.166 70.7647C96.2355 70.6742 96.2772 70.6045 96.2842 70.6115Z" fill="#2D2F34"/>
<path d="M82.8248 128.463C82.7943 128.321 82.7827 128.176 82.79 128.031C82.79 127.704 82.79 127.293 82.7553 126.792C82.7553 125.664 82.7205 124.118 82.6997 122.231C82.6788 120.344 82.6997 118.005 82.658 115.471C82.658 114.197 82.658 112.86 82.658 111.481C82.658 110.785 82.658 110.089 82.658 109.392V108.167C82.6636 108.086 82.6926 108.009 82.7414 107.944C82.7874 107.89 82.845 107.847 82.91 107.818C82.975 107.789 83.0457 107.775 83.1168 107.777H83.673C89.5474 107.673 94.8519 107.777 98.6964 107.847L103.243 107.951L104.48 108.007C104.625 108.003 104.77 108.017 104.911 108.049C104.768 108.061 104.624 108.061 104.48 108.049H103.243H98.6894C94.8449 108.049 89.5266 107.979 83.6799 108.084H83.1377C83.0125 108.084 83.0542 108.084 83.0264 108.084C83.0227 108.095 83.0227 108.107 83.0264 108.118V111.432C83.0264 112.825 83.0264 114.148 83.0264 115.422C83.0264 117.956 83.0264 120.24 82.9847 122.183C82.943 124.125 82.943 125.615 82.9291 126.743V127.982C82.9185 128.147 82.8833 128.309 82.8248 128.463Z" fill="#2D2F34"/>
<path d="M105.495 126.534C105.503 126.606 105.503 126.678 105.495 126.75C105.495 126.917 105.495 127.126 105.495 127.39C105.495 127.975 105.447 128.783 105.419 129.827C105.328 131.979 105.203 135.021 105.05 138.753V138.844H104.96C102.318 139.888 99.2524 141.058 95.8737 142.255C92.495 143.453 88.7687 144.56 84.8616 145.625C75.9282 148.013 67.6761 149.433 61.7182 150.457L54.655 151.641L52.7362 151.947L52.2287 152.016H52.0618C52.0618 152.016 52.1175 152.016 52.2217 151.968L52.7223 151.863L54.6341 151.487L61.6765 150.192C67.6205 149.106 75.8518 147.644 84.7643 145.263C88.6713 144.198 92.4115 143.111 95.7624 141.921C99.1133 140.73 102.207 139.588 104.863 138.572L104.772 138.697C104.974 134.972 105.141 131.923 105.259 129.778C105.322 128.748 105.377 127.933 105.412 127.342C105.412 127.084 105.447 126.875 105.461 126.708C105.465 126.649 105.477 126.59 105.495 126.534V126.534Z" fill="#2D2F34"/>
<path d="M95.3806 128.957C97.5848 128.667 99.8039 128.507 102.027 128.477C103.156 128.534 104.277 128.693 105.378 128.95L104.898 139.011L97.8555 141.831L95.3806 128.957Z" fill="#FFBE9D"/>
<path d="M37.9775 92.0977C38.1238 92.4839 38.2355 92.8823 38.3112 93.2883C38.5128 94.1168 38.777 95.2239 39.0968 96.5607C39.792 99.3805 40.6471 103.175 41.6274 107.373C42.6076 111.572 43.5531 115.408 44.2413 118.165L45.0617 121.431C45.1843 121.824 45.2726 122.227 45.3258 122.635C45.1643 122.256 45.0318 121.865 44.9296 121.465C44.6863 120.706 44.3734 119.599 43.9911 118.228C43.2402 115.485 42.2739 111.676 41.2728 107.457C40.2717 103.238 39.4305 99.4014 38.8465 96.6164C38.5685 95.2657 38.346 94.1516 38.1513 93.3161C38.0666 92.9143 38.0086 92.5073 37.9775 92.0977V92.0977Z" fill="#2D2F34"/>
<path d="M105.002 113.145C104.714 113.208 104.42 113.238 104.126 113.236C103.563 113.277 102.736 113.312 101.748 113.354C99.7323 113.424 96.9515 113.479 93.8786 113.479C90.8058 113.479 88.025 113.41 86.0159 113.333C85.0078 113.291 84.1945 113.25 83.6313 113.215C83.339 113.213 83.0477 113.181 82.7623 113.117C83.0516 113.068 83.3457 113.054 83.6383 113.076H86.0228L93.8786 113.117H101.741H104.126C104.418 113.093 104.712 113.102 105.002 113.145V113.145Z" fill="#2D2F34"/>
<path d="M64.2634 130.196C64.2634 130.196 64.0896 130.001 63.8254 129.611L62.7478 127.961C61.8371 126.569 60.551 124.661 59.0424 122.614C57.5338 120.567 56.1016 118.778 55.038 117.49L53.7866 115.972C53.6169 115.798 53.4719 115.601 53.3556 115.387C53.556 115.523 53.7362 115.688 53.8909 115.874C54.2176 116.209 54.6765 116.703 55.2326 117.323C56.345 118.569 57.8188 120.351 59.3344 122.405C60.8499 124.459 62.1152 126.395 62.9633 127.822C63.3943 128.518 63.7281 129.131 63.9505 129.542C64.0811 129.746 64.1862 129.966 64.2634 130.196V130.196Z" fill="#2D2F34"/>
<path d="M68.2535 130.384C67.4978 129.548 66.9143 128.571 66.5364 127.509C66.0489 126.492 65.7632 125.39 65.6952 124.264C65.7995 124.264 66.161 125.657 66.8701 127.369C67.5792 129.082 68.3439 130.328 68.2535 130.384Z" fill="#2D2F34"/>
<path d="M79.4394 100.613C79.3415 100.524 79.2551 100.424 79.1822 100.313L78.487 99.4292L76.0329 96.122L68.052 85.1561L60.1475 74.1137L57.7838 70.7369L57.1581 69.8109C57.0784 69.705 57.0108 69.5906 56.9565 69.4697C57.0544 69.5583 57.1408 69.6589 57.2137 69.7691L57.9089 70.6533L60.363 73.9605L68.3578 84.9403L76.2623 95.9828L78.626 99.3596L79.2517 100.286C79.3257 100.388 79.3886 100.497 79.4394 100.613V100.613Z" fill="#2D2F34"/>
<path d="M88.9983 68.669C88.9765 68.7938 88.9391 68.9155 88.8871 69.031C88.7695 69.3805 88.6301 69.7224 88.47 70.0545C87.8915 71.2816 87.1296 72.4133 86.2105 73.4104C84.8422 74.8933 83.2018 76.0988 81.3789 76.9612C80.3029 77.4649 79.1837 77.8704 78.0349 78.1727C76.7941 78.4709 75.5278 78.6504 74.253 78.7088C71.7779 78.7827 69.3187 78.2873 67.0646 77.2606C65.2249 76.4369 63.5482 75.2884 62.1148 73.8699C61.1484 72.9241 60.3115 71.8541 59.6259 70.6881C59.4375 70.3736 59.268 70.0481 59.1184 69.7133C59.0553 69.6006 59.004 69.4816 58.9655 69.3582C59.8707 70.9487 60.9913 72.4061 62.2955 73.6889C63.729 75.0555 65.39 76.1607 67.2036 76.9543C69.4152 77.94 71.8194 78.4158 74.2391 78.3468C76.6614 78.2572 79.0414 77.6844 81.2398 76.6619C83.0319 75.826 84.6537 74.6645 86.0228 73.2363C86.9427 72.2674 87.7241 71.1755 88.3448 69.9918C88.7758 69.1494 88.9566 68.655 88.9983 68.669Z" fill="#2D2F34"/>
<g opacity="0.2">
<path opacity="0.2" d="M52.0618 152.058C70.6168 153.611 90.1521 154.022 105.502 138.621C89.3526 145.256 69.3168 149.482 52.0618 152.058Z" fill="black"/>
</g>
<g opacity="0.2">
<path opacity="0.2" d="M105.454 128.922C102.916 126.611 102.555 122.795 102.631 119.363C102.763 113.619 104.154 107.234 105.753 101.72C105.426 111.509 104.696 120.129 105.342 128.957" fill="black"/>
</g>
<path d="M47.1191 130.106C47.1191 130.154 46.7854 130.384 46.2293 130.802C45.5121 131.329 44.8872 131.971 44.38 132.703C43.9055 133.465 43.4872 134.261 43.1286 135.084C43.0008 135.442 42.8178 135.778 42.5864 136.079C42.6264 135.701 42.7298 135.331 42.8923 134.986C43.1892 134.114 43.5882 133.279 44.0811 132.501C44.6037 131.728 45.2866 131.077 46.0832 130.593C46.3911 130.36 46.7438 130.194 47.1191 130.106Z" fill="#2D2F34"/>
<path d="M107.797 86.3397C107.802 86.4845 107.791 86.6293 107.762 86.7714C107.72 87.0847 107.665 87.4676 107.588 87.9968C107.428 89.0551 107.213 90.5938 106.956 92.5015C106.448 96.303 105.857 101.553 105.51 107.429C105.162 113.305 105.113 118.569 105.162 122.426C105.162 124.348 105.225 125.907 105.252 126.973C105.252 127.481 105.252 127.892 105.252 128.212C105.27 128.355 105.27 128.5 105.252 128.644C105.223 128.501 105.205 128.357 105.197 128.212C105.197 127.892 105.141 127.481 105.106 126.98C105.03 125.907 104.96 124.355 104.898 122.433C104.78 118.59 104.794 113.27 105.141 107.408C105.489 101.546 106.121 96.2682 106.698 92.4597C106.983 90.5589 107.241 89.0272 107.442 87.9689C107.54 87.4746 107.623 87.0708 107.686 86.7574C107.704 86.6138 107.741 86.4733 107.797 86.3397V86.3397Z" fill="#2D2F34"/>
</g>
</svg>
