<svg width="75" height="84" viewBox="0 0 75 84" xmlns="http://www.w3.org/2000/svg">
<path opacity="0.3" d="M3.83796 50.2703C11.0087 67.1021 30.1061 76.5318 46.6691 73.9885C49.3642 73.5759 56.7527 72.3408 63.2946 66.5239C75.8883 55.3272 78.5807 33.1562 68.4208 17.5295C61.0268 6.15632 47.7743 -0.290308 35.1806 0.0327025C32.4692 0.103276 22.0724 0.529432 12.9361 8.0401C11.594 9.14213 8.63478 11.7642 5.96685 15.9226C-0.297326 25.6944 -0.833634 39.3015 3.83796 50.2703Z" fill="url(#paint0_linear)"/>
<path d="M43.4784 0.0788131C45.3296 0.198245 46.7807 1.71015 46.8242 3.55864C47.1046 14.864 48.0166 53.8614 47.581 67.6802C47.5348 69.1433 46.3587 70.3186 44.8886 70.3674C37.6253 70.6036 16.7366 71.2062 4.85615 70.7067C2.38151 70.6036 0.413238 68.6058 0.364235 66.1357C0.116499 54.2685 -0.427975 20.8926 0.867874 5.60256C1.02305 3.77036 2.46591 2.31274 4.30078 2.12816C12.212 1.34371 33.2178 -0.583493 43.4784 0.0788131Z" fill="url(#paint1_linear)"/>
<path d="M40.9222 4.09613C42.5284 4.18299 43.8079 5.4696 43.876 7.07108C44.2735 16.3298 45.523 47.1325 45.1256 58.522C45.0684 60.1859 43.7508 61.5322 42.0847 61.63C35.2161 62.0317 17.6024 62.9138 7.52962 62.1104C5.71652 61.9665 4.29272 60.5035 4.19471 58.6903C3.6829 49.2443 2.21827 20.5615 2.5994 9.29958C2.65929 7.50267 4.05587 6.03691 5.85264 5.87404C13.282 5.21445 32.3631 3.63197 40.9222 4.09613Z" fill="url(#paint2_linear)"/>
<path opacity="0.5" d="M28.8783 2.0549C28.8783 2.40233 28.6061 2.68734 28.2604 2.70634C26.5453 2.79592 21.7131 3.04835 19.5542 3.17321C19.1295 3.19764 18.7947 2.81492 18.8764 2.39962L18.89 2.32905C18.9444 2.04404 19.1813 1.82961 19.4726 1.80246C20.9317 1.66946 25.3365 1.30031 28.2549 1.40345C28.6034 1.41702 28.8783 1.70474 28.8783 2.0549Z" fill="#3F67F9"/>
<path d="M30.8303 22.2389C30.8303 22.2389 31.6034 19.34 27.4926 18.8568C23.3818 18.3737 22.2384 25.4283 25.4971 26.3811C28.7558 27.3338 30.8303 22.2389 30.8303 22.2389Z" fill="url(#paint3_linear)"/>
<path d="M2.8171 37.5725C4.09117 36.199 5.87704 35.4118 7.75276 35.3982L32.3467 35.2245C34.3476 35.211 36.2533 36.0768 37.5546 37.5942C38.8559 39.1115 39.4194 41.1066 39.0927 43.0772L34.1679 72.9462H3.20912L1.03394 42.6375C0.897825 40.77 1.54575 38.9459 2.8171 37.5725Z" fill="url(#paint4_linear)"/>
<path d="M36.0544 52.1078L27.5606 51.7468L25.606 55.2267L36.0544 54.4341V52.1078Z" fill="url(#paint5_linear)"/>
<path d="M28.9763 83.9665V74.3549H32.2786L31.6824 83.9665H28.9763Z" fill="url(#paint6_linear)"/>
<path d="M6.97144 83.9664L6.37524 74.3549H9.44335V83.9664H6.97144Z" fill="url(#paint7_linear)"/>
<path d="M0.100135 72.5173C0.100135 74.4662 1.68455 76.0487 3.64194 76.0487H34.4973C36.452 76.0487 38.0391 74.4689 38.0391 72.5173V72.2404C38.0391 70.2915 36.4547 68.709 34.4973 68.709H3.63922C1.68456 68.709 0.0974121 70.2887 0.0974121 72.2404V72.5173H0.100135Z" fill="url(#paint8_linear)"/>
<path d="M44.5947 83.9665C41.856 78.2989 38.0719 69.4147 40.6255 65.3377L30.7188 63.6657L39.9476 58.2587L44.2272 59.5561C44.7744 59.7217 45.1963 60.1506 45.3488 60.6989C45.8878 62.6261 47.2844 74.5422 48.3379 83.9638H44.5947V83.9665Z" fill="url(#paint9_linear)"/>
<path d="M38.7087 83.9665C36.4355 78.136 33.8003 69.868 36.4519 66.2063L26.4009 66.6597L36.2586 59.0974L40.4402 60.6826C40.9737 60.8862 41.3658 61.3422 41.4801 61.8986C42.0464 64.6184 43.4947 73.4727 43.1326 83.9611H38.7087V83.9665Z" fill="url(#paint10_linear)"/>
<path d="M9.95518 66.5538C10.2873 63.8258 14.3191 57.8461 14.3191 57.8461C14.3191 57.8461 29.9592 57.3385 31.7859 58.0442C33.2042 58.5925 38.9893 58.2831 41.5075 58.1175C41.6028 58.1121 41.6899 58.1745 41.7117 58.2668C41.7334 58.3591 41.6872 58.4568 41.5973 58.4948C35.4448 61.163 34.854 62.6831 34.04 67.8567C34.04 67.8567 27.8493 71.6106 15.2883 70.5737C11.0686 70.2236 9.62305 69.2817 9.95518 66.5538Z" fill="url(#paint11_linear)"/>
<path d="M25.2223 56.9584C25.2223 56.9584 29.9184 52.5014 32.2296 49.5482C33.4792 47.9522 33.8712 45.8512 33.2941 43.9105C32.2378 40.3655 30.3621 36.6929 30.1933 36.1229C29.932 35.2462 24.6669 35.2842 24.6669 35.2842C24.6669 35.2842 14.3055 41.9887 10.2356 53.3456L14.8065 54.7652C14.8065 54.7652 17.5125 50.2404 20.1859 47.3631C20.1859 47.3631 15.5606 53.4542 15.3972 55.9487L25.2223 56.9584Z" fill="url(#paint12_linear)"/>
<path d="M30.8303 31.2262C30.7758 31.4081 29.401 35.9519 29.2949 36.0442C29.1887 36.1392 26.2812 36.2939 24.9119 35.3629L27.705 29.204L30.8303 31.2262Z" fill="url(#paint13_linear)"/>
<path d="M34.609 26.1232C34.609 26.1232 35.5863 28.3761 34.4375 31.8016C33.2886 35.2272 31.4102 35.5257 30.2205 34.6789C29.0308 33.832 27.4873 32.3174 27.2967 29.2148C27.1034 26.1123 33.2614 23.2731 34.609 26.1232Z" fill="url(#paint14_linear)"/>
<path d="M29.3492 22.3176C30.4681 21.7042 31.6387 21.5332 32.7222 21.6906C33.5444 21.8073 34.3148 22.1113 34.9845 22.5511C35.6651 22.9962 36.2069 23.5798 36.6098 24.253C36.7404 24.5244 36.833 24.8121 36.8929 25.1134C37.1161 26.2481 36.8139 27.4234 36.0707 28.311C35.5154 28.976 34.9546 29.5243 34.9546 29.5243L34.8566 28.8267C34.8566 27.9527 34.1678 27.0108 33.313 26.7394C32.4581 26.4679 31.557 26.6824 30.9064 27.2931C30.0652 28.0884 29.6024 29.1524 29.6024 29.1524L29.322 29.071C29.322 29.071 29.3438 27.7138 28.4808 28.0314C27.6205 28.3517 27.2693 30.1432 27.2693 30.1432C27.2693 30.1432 25.4399 30.9792 25.2684 28.539C25.0969 26.1015 26.1749 24.0521 29.3492 22.3176Z" fill="url(#paint15_linear)"/>
<path d="M28.9029 29.0711C28.9029 29.0711 29.9837 26.6933 28.47 26.6091C26.9564 26.5223 27.5716 28.9001 27.8738 29.7687L28.9029 29.0711Z" fill="url(#paint16_linear)"/>
<path d="M34.1707 58.7174L30.6425 54.8901L26.5671 55.984C26.5671 55.984 21.8166 56.7169 19.0969 55.984C16.3773 55.2511 16.3773 55.2511 16.3773 55.2511L10.2329 53.3429L9.26917 56.0627C9.02416 56.7522 9.26917 57.5203 9.8681 57.9438C10.399 58.3211 11.0224 58.7336 11.4198 58.9074C12.2284 59.2602 30.0599 59.0187 30.0599 59.0187L34.1707 58.7174Z" fill="url(#paint17_linear)"/>
<path d="M29.6323 58.7418L36.3974 43.8101C36.4655 43.6581 36.6397 43.5794 36.8003 43.6282L42.8195 45.4333C42.9093 45.4604 42.9828 45.5228 43.0237 45.6043C43.0645 45.6857 43.07 45.7834 43.0373 45.8703L37.9083 59.6647C37.8566 59.8059 37.715 59.8954 37.5653 59.8819L29.91 59.2141C29.8011 59.206 29.7058 59.1435 29.6486 59.0513C29.5942 58.9535 29.5888 58.8395 29.6323 58.7418Z" fill="url(#paint18_linear)"/>
<path d="M38.1915 44.3313L38.3793 43.9078C38.442 43.7667 38.5998 43.6988 38.7441 43.7504L39.6371 44.0707C39.6752 44.0842 39.7187 44.0707 39.7432 44.0381L39.9011 43.8237C40.0236 43.6581 40.2442 43.5984 40.432 43.6798L41.216 44.0381C41.3794 44.1087 41.4338 44.2661 41.4338 44.4426V44.7004C41.4338 44.7411 41.5073 44.7764 41.5482 44.79L41.8395 44.8714C41.9184 44.8958 41.9946 44.9529 42.03 45.0261C42.0654 45.0994 42.0736 45.1863 42.0409 45.2623L41.8476 45.7292C41.7877 45.873 41.6244 45.9436 41.4774 45.8893L38.3576 44.7194C38.2813 44.6923 38.2214 44.6326 38.1915 44.5593C38.1588 44.4887 38.1588 44.4045 38.1915 44.3313Z" fill="url(#paint19_linear)"/>
<path d="M41.8286 51.2122C41.8286 51.2122 40.541 49.4668 40.4892 49.9934C40.4402 50.52 40.4892 51.6573 40.4892 51.6573C40.4892 51.6573 40.2415 51.8718 39.8767 52.6617C39.5119 53.4515 39.3186 54.692 39.7134 54.806C40.1108 54.9173 41.9756 52.4798 41.8286 51.2122Z" fill="url(#paint20_linear)"/>
<path d="M28.4182 51.1769C28.4563 51.128 28.5162 51.0981 28.5788 51.0981C28.7176 51.0981 28.8374 51.1877 28.8783 51.318L30.0489 55.1263L29.4363 55.3081L28.3828 51.3506C28.3664 51.2909 28.3801 51.2257 28.4182 51.1769Z" fill="url(#paint21_linear)"/>
<path d="M35.6489 28.1237C35.6679 28.1237 35.687 28.1156 35.7006 28.0993C35.7224 28.0749 37.7397 25.5776 35.6952 23.7047C35.6679 23.6803 35.6271 23.683 35.6026 23.7102C35.5781 23.7373 35.5808 23.778 35.6053 23.8024C37.56 25.5939 35.6189 27.9934 35.5999 28.0151C35.5754 28.0423 35.5808 28.0857 35.608 28.1074C35.6189 28.121 35.6353 28.1237 35.6489 28.1237Z" fill="white"/>
<path d="M21.8219 18.4334C21.8219 22.3855 17.9643 25.5993 13.1321 25.6102C8.22095 25.621 4.17822 22.3312 4.17822 18.2596C4.17822 14.1881 8.22095 10.977 13.1321 11.0856C17.9616 11.1914 21.8219 14.4812 21.8219 18.4334Z" fill="url(#paint22_linear)"/>
<path d="M21.8219 18.4334C21.8219 22.3855 17.9643 25.5993 13.1321 25.6102C8.22095 25.621 4.17822 22.3312 4.17822 18.2596C4.17822 14.1881 8.22095 10.977 13.1321 11.0856C17.9616 11.1914 21.8219 14.4812 21.8219 18.4334Z" fill="url(#paint23_linear)"/>
<path d="M16.8535 24.4945C17.6267 24.88 18.4271 25.2627 19.2601 25.6427C19.9489 25.9576 20.6295 26.2534 21.2937 26.5357C21.2692 25.8571 20.9725 25.222 20.6131 24.1552C20.2293 23.0152 19.8862 21.8453 19.4724 21.2753L16.8535 24.4945Z" fill="url(#paint24_linear)"/>
<g opacity="0.9">
<path opacity="0.9" d="M6.46777 16.0447C6.46777 16.3243 6.69101 16.5442 6.96325 16.5442H18.8682C19.1431 16.5442 19.3637 16.327 19.3637 16.0447C19.3637 15.7652 19.1404 15.5453 18.8682 15.5453H6.96325C6.69101 15.548 6.46777 15.7652 6.46777 16.0447Z" fill="white"/>
<path opacity="0.9" d="M6.46777 18.447C6.46777 18.7265 6.69101 18.9003 6.96325 18.9003H18.8682C19.1431 18.9003 19.3637 18.7265 19.3637 18.447C19.3637 18.1674 19.1404 17.9937 18.8682 17.9937H6.96325C6.69101 17.9937 6.46777 18.1674 6.46777 18.447Z" fill="white"/>
<path opacity="0.9" d="M9.04858 20.8926C9.04858 21.1722 9.27182 21.4355 9.54405 21.4355H18.8709C19.1459 21.4355 19.3664 21.1722 19.3664 20.8926C19.3664 20.613 19.1431 20.3497 18.8709 20.3497H9.54405C9.26909 20.3497 9.04858 20.613 9.04858 20.8926Z" fill="white"/>
</g>
<path d="M64.9472 12.6762C71.5462 16.0964 79.2587 24.8909 70.9963 23.246C62.7366 21.6011 67.8166 28.0966 62.6686 27.9364C57.5233 27.7763 49.5576 26.6824 44.3443 21.2971C39.1309 15.9118 44.1973 14.6252 46.3098 14.8342C53.2655 15.5182 46.4078 3.06737 64.9472 12.6762Z" fill="url(#paint25_linear)"/>
<path d="M56.4153 23.3112C55.9117 23.0343 55.5306 22.6108 55.2801 22.0463C54.8554 21.8888 54.4824 21.6798 54.183 21.4138C53.3717 21.7531 52.5196 21.9621 51.7818 21.9024C50.9815 21.8372 50.388 21.4545 50.064 20.7922C49.5359 19.7119 50.1076 18.4416 50.9461 17.744C51.4225 17.3477 52.084 17.0518 52.7673 17.1387C53.4942 16.0122 54.5423 15.6403 55.5796 16.1479C55.6776 16.1968 55.7728 16.2511 55.8681 16.3081C55.9825 16.0882 56.105 15.8873 56.2302 15.7136C56.7937 14.9237 57.5533 14.4786 58.4272 14.4324C59.0125 14.3999 59.6223 14.5573 60.1885 14.8667C60.2403 14.8369 60.292 14.8097 60.3464 14.7826C60.7738 14.579 61.2339 14.5682 61.7131 14.75C62.5025 15.0459 63.0143 15.7109 63.2811 16.4384C64.2367 16.8618 64.7322 17.7005 64.6151 18.7456C64.5743 19.1202 64.449 19.5056 64.2503 19.8639C64.5688 19.5952 64.8737 19.3102 65.1868 19.0224C65.4182 18.808 65.6551 18.5881 65.9028 18.3683L65.9409 18.3357C66.4391 17.896 66.7113 17.6517 67.4164 18.1864C67.9228 18.5691 68.6061 19.5165 68.5108 20.2249C68.4999 20.3063 68.4264 20.3606 68.3448 20.3525C68.2631 20.3416 68.2086 20.2683 68.2195 20.1869C68.2985 19.6115 67.7023 18.77 67.2395 18.4226C66.7277 18.0344 66.6378 18.1158 66.1369 18.5583L66.0988 18.5936C65.8538 18.8107 65.6169 19.0306 65.3883 19.2423C64.7431 19.8395 64.1251 20.4122 63.371 20.8926C63.1641 21.0501 62.9327 21.1804 62.6822 21.2781C62.6087 21.3161 62.5325 21.3514 62.4535 21.3867C62.165 21.517 61.5797 21.7558 60.9208 21.878C60.6159 22.2634 60.2321 22.619 59.7883 22.9121C59.0805 23.3817 58.34 23.6233 57.6513 23.6233C57.2103 23.6152 56.7883 23.5147 56.4153 23.3112ZM59.9163 21.9377C58.4762 22.4371 56.9081 22.5077 55.6748 22.1684C55.8926 22.5511 56.1894 22.847 56.5569 23.0506C57.4063 23.5174 58.5551 23.3709 59.625 22.6597C59.9462 22.4453 60.2348 22.1983 60.4825 21.9323C60.2947 21.9485 60.1041 21.954 59.9163 21.9377ZM58.5442 21.2889C57.8881 20.4936 57.9181 19.4377 58.6232 18.3927C58.6341 18.3764 58.6477 18.3574 58.6586 18.3411C58.6177 17.8173 58.6749 17.2852 58.841 16.7912C58.8655 16.7152 58.9008 16.6202 58.9417 16.5144C57.9698 16.0963 57.0306 16.1343 56.2819 16.6229C56.3091 16.6474 56.3364 16.6718 56.3636 16.6989C56.7828 16.8184 57.1368 17.0762 57.3355 17.4291C57.4689 17.6653 57.6159 18.0941 57.4199 18.6777C57.4798 19.0116 57.4907 19.3536 57.4471 19.6902C57.3573 20.3633 56.889 21.6581 55.9852 21.9377C56.9761 22.1548 58.1685 22.1195 59.3065 21.8155C59.0179 21.7151 58.7566 21.5468 58.5442 21.2889ZM57.0496 19.3862C56.7202 19.8503 56.0587 20.4013 55.2665 20.8682C55.2855 21.0121 55.31 21.1505 55.34 21.2835C55.3727 21.4247 55.4108 21.5604 55.457 21.688C55.5061 21.6934 55.5551 21.6961 55.6068 21.6961C55.6122 21.6961 55.6204 21.6961 55.6258 21.6961C56.5133 21.6961 57.0605 20.3688 57.1558 19.6495C57.1776 19.4947 57.183 19.34 57.1803 19.1853C57.1422 19.2532 57.0986 19.3183 57.0496 19.3862ZM59.4181 20.3851C59.0669 19.9399 58.8301 19.3835 58.7184 18.7972C58.389 19.378 58.0977 20.2846 58.7729 21.1017C59.0533 21.4409 59.4453 21.5984 59.87 21.6418C60.0497 21.5794 60.2266 21.5088 60.4009 21.4301C60.4962 21.3867 60.5887 21.3432 60.6786 21.2998C60.1885 21.1288 59.7611 20.8166 59.4181 20.3851ZM53.6194 20.6891C53.467 20.7461 53.3064 20.7814 53.1485 20.7895C52.7864 20.8085 52.476 20.6918 52.2528 20.4475C51.5777 19.7065 52.1875 18.1783 52.6013 17.421C52.0541 17.3965 51.5259 17.6463 51.1366 17.9693C50.3853 18.5936 49.868 19.72 50.3308 20.6619C50.6085 21.2319 51.1067 21.5495 51.8063 21.6065C52.4543 21.6581 53.2165 21.4817 53.9543 21.1858C53.8318 21.0447 53.7147 20.8791 53.6194 20.6891ZM60.7738 21.5794C60.7521 21.5902 60.7303 21.6011 60.7112 21.6092C60.7276 21.6065 60.7412 21.6038 60.7575 21.6011C60.7629 21.5957 60.7684 21.5875 60.7738 21.5794ZM54.6621 21.1939C54.7628 21.3921 54.9153 21.5278 55.1222 21.6092C55.0977 21.5251 55.0732 21.4382 55.0541 21.3487C55.0296 21.2428 55.0079 21.1342 54.9915 21.0229C54.8826 21.0827 54.7737 21.1397 54.6621 21.1939ZM61.2258 21.4355C61.2094 21.4627 61.1931 21.4898 61.174 21.517C61.253 21.498 61.3292 21.4762 61.4054 21.4545C61.3455 21.4491 61.2856 21.4437 61.2258 21.4355ZM63.2213 20.6294C63.8447 20.1462 64.2449 19.4079 64.3211 18.713C64.4136 17.8851 64.0788 17.2201 63.3955 16.8265C63.4554 17.0708 63.488 17.3151 63.4935 17.5513C63.537 19.0007 62.8183 20.2765 61.4898 21.1668C61.6123 21.1722 61.7403 21.1695 61.8737 21.1587C62.1132 21.1397 62.3419 21.0854 62.5543 21.0039C62.7911 20.8872 63.0116 20.7624 63.2213 20.6294ZM61.4299 19.5572C61.3401 18.751 60.8528 17.9177 60.1422 17.2852C59.6958 17.5947 59.282 17.9828 58.9607 18.4253C59.0288 19.0822 59.2656 19.7146 59.6495 20.2032C59.9299 20.5588 60.3737 20.9524 61.0379 21.1044C61.0597 21.0935 61.0787 21.0799 61.0978 21.0691C61.3619 20.5642 61.4844 20.0403 61.4299 19.5572ZM54.2265 20.3091C54.1285 20.4068 54.0115 20.4909 53.889 20.5615C53.9788 20.7406 54.0986 20.9089 54.2456 21.0609C54.2619 21.0528 54.2755 21.0474 54.2919 21.0392C54.232 20.8221 54.2129 20.5724 54.2265 20.3091ZM55.1903 18.1186C54.7329 19.0387 54.3926 20.1679 54.5641 20.9116C54.6948 20.8465 54.8255 20.7786 54.9534 20.7054C54.8717 19.8748 54.9752 18.9654 55.1903 18.1186ZM62.8565 16.5931C62.5652 16.5035 62.2303 16.4899 61.8764 16.5469C62.2766 17.2418 62.4726 18.0398 62.0724 18.6641C62.0289 18.732 61.9363 18.7537 61.8682 18.7076C61.8002 18.6641 61.7784 18.5719 61.8247 18.504C62.1813 17.9503 61.9281 17.2038 61.5688 16.6121C61.1795 16.7125 60.7793 16.8862 60.3982 17.1197C61.1305 17.7955 61.6314 18.6723 61.7267 19.5246C61.7702 19.9236 61.7076 20.3443 61.5579 20.7596C62.6523 19.9372 63.2403 18.8161 63.2049 17.5594C63.1967 17.2717 63.1423 16.9622 63.0443 16.6555C62.979 16.6338 62.9191 16.6121 62.8565 16.5931ZM56.2166 16.9622C56.1322 16.9405 56.0424 16.9269 55.9525 16.9215C55.9226 16.9568 55.8899 16.9948 55.8572 17.0355C55.4298 18.0806 55.1603 19.397 55.2365 20.5425C55.9362 20.1163 56.5161 19.6305 56.8101 19.2152C56.9462 19.0224 57.0496 18.8352 57.1177 18.6506C56.987 18.0154 56.6685 17.4155 56.2166 16.9622ZM53.6494 18.2651C53.6875 18.162 53.7311 18.0643 53.7801 17.972C53.6984 17.8933 53.6113 17.8173 53.5187 17.7494C53.3227 17.6055 53.1185 17.5132 52.9144 17.4644C52.4951 18.1918 51.9234 19.6495 52.4706 20.2493C52.6748 20.4719 52.9416 20.5045 53.1321 20.4963C53.2546 20.4882 53.3826 20.4611 53.5051 20.4176C53.32 19.8829 53.2982 19.1772 53.6494 18.2651ZM54.3572 19.4839C54.4525 19.0442 54.2919 18.5881 53.9924 18.2081C53.9679 18.2597 53.9461 18.314 53.9244 18.371C53.6467 19.093 53.5977 19.7418 53.7746 20.2873C53.9216 20.1978 54.0496 20.0865 54.1394 19.9616C54.2374 19.8259 54.3028 19.6875 54.3409 19.5436C54.3463 19.5246 54.3518 19.5056 54.3572 19.4839ZM54.1394 17.9258C54.3463 18.1647 54.5069 18.4334 54.5968 18.7184C54.8554 18.0371 55.2148 17.3884 55.5578 16.9378C55.2011 16.9867 54.5804 17.1875 54.1394 17.9258ZM59.2085 16.6392C59.1704 16.7315 59.1431 16.8157 59.1186 16.8835C59.0016 17.2337 58.9417 17.6055 58.939 17.9774C59.2166 17.6571 59.5515 17.3531 59.9163 17.0952C59.6958 16.9215 59.4589 16.7695 59.2085 16.6392ZM57.2075 17.9476C57.1885 17.8145 57.1449 17.6897 57.0796 17.573C57.0224 17.4725 56.9516 17.383 56.8672 17.3042C57.0034 17.5078 57.1177 17.7223 57.2075 17.9476ZM55.7374 16.5714C55.6449 16.5116 55.5496 16.4574 55.4516 16.4085C54.5913 15.9878 53.712 16.2836 53.0804 17.2011C53.2873 17.2635 53.4915 17.364 53.693 17.5105C53.7773 17.5703 53.8563 17.6381 53.9325 17.706C54.3436 17.0708 54.9616 16.6772 55.6639 16.6257C55.6803 16.6257 55.6966 16.6229 55.713 16.6229C55.7184 16.6066 55.7266 16.5904 55.7374 16.5714ZM61.0869 15.9579C60.8174 15.6593 60.5179 15.4069 60.1994 15.2087C59.7938 15.5073 59.5107 15.9742 59.3255 16.3651C59.6277 16.5198 59.9108 16.7071 60.1722 16.9188C60.5642 16.6718 60.9835 16.4736 61.4 16.3515C61.2938 16.2049 61.1876 16.0719 61.0869 15.9579ZM59.0587 16.2429C59.2411 15.8521 59.5215 15.3879 59.919 15.054C59.4399 14.8124 58.9308 14.693 58.4408 14.7202C57.6622 14.7636 56.9789 15.1626 56.4698 15.8792C56.3718 16.0149 56.2792 16.1669 56.1866 16.3298C56.6195 16.0638 57.115 15.9308 57.6377 15.9308C58.1005 15.9362 58.5796 16.0393 59.0587 16.2429ZM60.4798 15.0432C60.7766 15.2413 61.0542 15.4829 61.3074 15.7625C61.4463 15.9199 61.5851 16.0936 61.7103 16.2782C62.1241 16.1941 62.5298 16.1941 62.9 16.2972C62.6414 15.7408 62.2167 15.2495 61.6096 15.0215C61.419 14.9509 61.2312 14.9129 61.0515 14.9129C60.8528 14.9156 60.6622 14.9563 60.4798 15.0432Z" fill="white"/>
<path d="M62.4017 29.709C62.4126 30.298 62.8455 31.2616 63.8201 31.2426C64.7947 31.2236 65.9408 30.2301 65.9299 29.6438C65.919 29.0548 65.1214 28.5934 64.1468 28.6124C63.1722 28.6314 62.3908 29.1227 62.4017 29.709Z" fill="url(#paint26_linear)"/>
<path d="M60.9397 32.0785C60.9452 32.3635 61.1957 32.5888 61.5006 32.5834C61.8055 32.578 62.4071 32.274 62.4017 31.9917C62.3962 31.7067 62.0178 31.4216 61.7156 31.4271C61.4107 31.4325 60.9343 31.7935 60.9397 32.0785Z" fill="url(#paint27_linear)"/>
<path d="M68.1213 66.9148L69.4607 73.0602C69.605 73.7225 69.1095 74.3441 68.4779 74.2952C68.4671 74.2952 68.4562 74.2925 68.4453 74.2925C68.0424 74.2599 67.7021 73.9559 67.6041 73.5352L66.1204 67.2785L68.1213 66.9148Z" fill="url(#paint28_linear)"/>
<path d="M61.8136 67.2786C61.751 67.3817 61.182 71.5917 60.9316 73.4484C60.8662 73.9451 60.4688 74.3115 60.0032 74.3115H59.9515C59.3471 74.3115 58.9007 73.7089 59.0368 73.0765L60.2918 67.2786H61.8136Z" fill="url(#paint29_linear)"/>
<path d="M51.0168 66.9148L52.3562 73.0602C52.5005 73.7225 52.005 74.3441 51.3734 74.2952C51.3625 74.2952 51.3516 74.2925 51.3408 74.2925C50.9378 74.2599 50.5976 73.9559 50.4996 73.5352L49.0159 67.2785L51.0168 66.9148Z" fill="url(#paint30_linear)"/>
<path d="M44.7062 67.2786C44.6436 67.3817 44.0746 71.5917 43.8242 73.4484C43.7588 73.9451 43.3613 74.3115 42.8958 74.3115H42.8441C42.2397 74.3115 41.7932 73.7089 41.9294 73.0765L43.1844 67.2786H44.7062Z" fill="url(#paint31_linear)"/>
<path d="M53.23 52.3304C53.23 52.3304 53.0558 55.9324 49.3914 55.9297C45.7271 55.9297 38.8776 58.9399 42.5147 65.3839L53.23 63.9154V52.3304Z" fill="url(#paint32_linear)"/>
<path d="M69.8338 62.0968C69.8338 62.0968 70.5552 55.8917 72.0444 53.9238C73.5335 51.9559 78.069 42.9089 71.5053 38.5469C64.939 34.1849 55.5468 36.6333 53.9324 42.1787C52.318 47.7242 50.7445 60.5821 49.9441 62.9436C49.1437 65.3051 64.8546 65.1477 64.8546 65.1477L69.8338 62.0968Z" fill="url(#paint33_linear)"/>
<path d="M60.9207 63.1499C60.8091 63.0196 55.5195 61.011 50.5049 61.4372C45.4876 61.8633 42.885 62.6695 42.0193 65.0256C41.1536 67.3816 45.1255 68.6791 53.2327 68.3778C61.3345 68.0765 62.6249 65.1233 60.9207 63.1499Z" fill="url(#paint34_linear)"/>
<path d="M54.5857 44.7058C54.6047 44.7058 54.6183 44.6922 54.6238 44.6759C55.3262 41.0929 57.9015 39.2743 59.9379 38.3786C62.1484 37.4068 64.2147 37.2847 64.2365 37.2847C64.2583 37.2847 64.2746 37.2657 64.2719 37.244C64.2719 37.2222 64.2528 37.206 64.231 37.2087C64.2093 37.2087 62.1294 37.3335 59.9052 38.3107C57.8525 39.2119 55.2554 41.0468 54.5448 44.6623C54.5421 44.684 54.553 44.7031 54.5748 44.7058C54.583 44.7058 54.583 44.7058 54.5857 44.7058Z" fill="white"/>
<path d="M45.6536 42.9442L45.8441 42.6348C45.953 42.4556 46.1409 42.3362 46.3478 42.3118L48.3814 42.0593C48.3814 42.0593 48.4712 41.8313 48.0983 41.5626C47.7253 41.2939 47.9458 40.8541 47.9458 40.8541C47.9458 40.8541 48.4467 41.264 49.1682 41.8937C49.582 42.2548 49.7398 42.7379 49.797 43.0881L50.1237 43.7992C49.9413 44.0137 49.6609 44.182 49.2335 44.1277L49.16 43.5821C47.9376 43.6228 46.7752 43.3839 45.6536 42.9442Z" fill="url(#paint35_linear)"/>
<path d="M50.1264 43.745C50.3442 44.2227 50.562 44.7032 50.7825 45.1809C51.0629 45.7971 51.2998 46.5842 51.7517 47.0972C52.2853 47.7025 53.1591 47.5967 53.7063 47.0674C54.3053 46.4865 54.945 45.9518 55.5657 45.3926C55.7291 45.246 55.8979 45.1022 56.0612 44.9556L56.1075 48.7177C54.5966 49.4045 52.9332 50.5662 51.2018 49.9745C50.7253 49.8116 50.2462 49.5103 49.9767 49.076C49.8133 48.8154 49.6772 48.4571 49.6446 48.1504L49.228 44.0762C49.7235 44.1413 49.9168 43.992 50.1264 43.745Z" fill="url(#paint36_linear)"/>
<path d="M48.7599 73.9179C50.2573 73.9179 50.9188 73.7903 51.2155 73.6736C51.1584 73.9179 50.9379 74.1133 50.6629 74.1133H45.3679C45.1909 74.1133 45.0766 73.9423 45.1201 73.7903C45.7218 73.8364 47.004 73.9179 48.7599 73.9179Z" fill="url(#paint37_linear)"/>
<path d="M45.1208 73.7875C45.129 73.7576 45.1426 73.7251 45.1644 73.6979C45.5673 73.1849 46.3786 72.3787 47.4784 72.395C49.0928 72.4167 49.6564 72.5932 50.9087 72.4059L51.2054 73.3831C51.2353 73.4835 51.2353 73.5812 51.2136 73.6735C50.9168 73.7902 50.2553 73.9178 48.758 73.9178C47.0047 73.9178 45.7225 73.8364 45.1208 73.7875Z" fill="url(#paint38_linear)"/>
<path d="M50.5458 71.3501L50.9078 72.5824C50.9078 72.5824 50.102 72.9489 49.3942 72.6557L49.2554 71.589L50.5458 71.3501Z" fill="url(#paint39_linear)"/>
<path d="M39.5746 73.1414C40.7397 74.0751 41.3359 74.39 41.6408 74.485C41.4421 74.6397 41.1508 74.6533 40.9357 74.4796L36.8086 71.1735C36.6698 71.0622 36.6888 70.8586 36.8168 70.7664C37.2578 71.1817 38.2052 72.0448 39.5746 73.1414Z" fill="url(#paint40_linear)"/>
<path d="M36.8169 70.7664C36.8441 70.7474 36.8713 70.7311 36.9067 70.723C37.541 70.5764 38.6763 70.457 39.5257 71.1573C40.7698 72.1833 41.0992 72.6692 42.1936 73.3071L41.8124 74.2517C41.7743 74.3467 41.7117 74.4254 41.6382 74.4824C41.3333 74.3874 40.7371 74.0752 39.5719 73.1388C38.2053 72.0449 37.2579 71.1817 36.8169 70.7664Z" fill="url(#paint41_linear)"/>
<path d="M58.3154 57.3168C58.3154 57.3168 49.3561 58.0469 47.5185 58.9074C45.6809 59.7706 49.0185 71.8604 49.0185 71.8604C49.0185 71.8604 49.5194 72.0992 50.6329 71.7545C50.6329 71.7545 49.4922 62.8324 50.3416 60.897L60.0414 59.3145L58.3154 57.3168Z" fill="url(#paint42_linear)"/>
<path d="M43.0865 71.6106C43.0021 71.6866 42.1962 73.3098 42.1962 73.3098C42.1962 73.3098 41.2979 73.1171 41.1155 72.5498L41.924 71.084L43.0865 71.6106Z" fill="url(#paint43_linear)"/>
<path d="M63.7111 57.2407C63.7111 57.2407 64.0024 57.941 63.9915 58.8721C63.9752 60.1587 62.8781 61.8226 61.5877 61.8877L51.0575 61.7493C50.8343 61.7601 50.6437 61.9149 50.5893 62.1293C50.3415 63.0902 49.1246 66.0353 43.179 71.9173C43.0211 72.0748 42.7733 72.0992 42.5855 71.9825L41.7388 71.4505C41.649 71.3935 41.6218 71.2794 41.6735 71.1872L47.8397 60.688C48.1636 60.156 48.6836 59.7705 49.2907 59.6158L58.3181 57.314L63.7111 57.2407Z" fill="url(#paint44_linear)"/>
<path d="M63.741 57.2109C63.741 57.2109 63.8472 51.9776 62.7964 47.051C62.4098 45.2323 61.3998 43.6037 59.9352 42.4528L59.4451 42.0674L56.9895 43.0608L55.7291 45.2351C55.0349 46.6194 55.2064 49.6269 55.7291 51.0845C56.6057 53.522 57.3053 56.0464 57.6048 57.2869C57.6048 57.2869 61.6693 57.8216 63.741 57.2109Z" fill="url(#paint45_linear)"/>
<path d="M57.7572 38.1669L59.6737 42.6022C59.6737 42.6022 59.0612 43.9783 56.9132 43.4436L56.1455 40.3845L57.7572 38.1669Z" fill="url(#paint46_linear)"/>
<path d="M53.9568 36.1446C53.935 36.207 53.8833 40.5772 53.8833 40.5772L56.3852 40.5527L57.0495 36.4188C57.0522 36.4188 54.3434 35.1077 53.9568 36.1446Z" fill="url(#paint47_linear)"/>
<path d="M56.317 37.2114L56.1374 39.4155C56.1346 39.4426 56.1292 39.4698 56.1183 39.4969C56.0584 39.6598 55.808 40.2054 55.2662 39.9149C54.7735 39.6543 54.3188 39.4209 53.9649 39.4508C53.807 39.4643 53.6818 39.5946 53.6818 39.7548C53.6763 40.1511 53.6845 41.0468 53.807 41.8231C53.8315 41.9806 53.9758 42.0918 54.1364 42.081C54.6183 42.0457 55.631 41.948 56.4259 41.6765C56.5348 41.6385 56.6138 41.549 56.6328 41.4377C56.7281 40.8921 57.0194 39.2336 57.1746 38.7857C57.3189 38.365 57.9069 38.2184 58.1574 38.1777C58.239 38.1641 58.3125 38.118 58.3588 38.0474C58.5249 37.8031 58.8053 37.2141 58.0784 36.7934C57.926 36.7038 57.877 36.5111 57.9722 36.3618C58.1574 36.0659 58.3125 35.5855 57.7653 35.1838C57.21 34.7766 56.6791 35.0046 56.3742 35.2163C56.2517 35.3032 56.0856 35.2842 55.9795 35.1783C55.9196 35.1186 55.8297 35.0833 55.7045 35.1295C55.5357 35.1892 55.3533 35.0833 55.3098 34.9096C55.2281 34.5757 54.9967 34.1876 54.3733 34.1604C53.2653 34.1116 52.8868 35.2679 53.0202 36.0225C53.1509 36.7744 54.3569 36.7581 55.0103 36.5355C55.5058 36.3645 56.0121 36.7662 56.2272 36.9671C56.2898 37.0295 56.3252 37.1191 56.317 37.2114Z" fill="url(#paint48_linear)"/>
<path d="M57.101 39.5892C57.101 39.5892 56.9268 38.2673 57.444 38.0637C57.9613 37.8601 58.5956 38.1614 58.2553 39.0192C57.8306 40.0832 57.101 39.5892 57.101 39.5892Z" fill="url(#paint49_linear)"/>
<path d="M51.8497 53.0063C58.171 54.9851 57.8335 46.1145 57.877 46.0521C60.3816 42.2329 61.7891 47.3224 61.5468 48.039C59.3253 56.0627 53.72 55.6637 51.5366 54.0893C51.8089 53.6659 51.8715 53.2967 51.8497 53.0063Z" fill="url(#paint50_linear)"/>
<path d="M56.6957 51.6382C56.7311 51.6274 56.761 51.6056 56.7828 51.5704C57.7411 50.0829 58.0106 48.0145 58.0677 46.5407C58.0705 46.4511 58.0024 46.3778 57.9126 46.3751C57.8227 46.3724 57.7492 46.4402 57.7465 46.5298C57.7002 47.7024 57.477 49.8956 56.5105 51.3966C56.4615 51.4699 56.4833 51.5704 56.5595 51.6192C56.6031 51.6464 56.6521 51.6518 56.6957 51.6382Z" fill="url(#paint51_linear)"/>
<path d="M58.4597 53.6524C58.4788 53.6469 58.4978 53.6361 58.5142 53.6225C59.9598 52.4146 61.0487 50.5173 61.7484 47.9848C61.7729 47.9006 61.7211 47.811 61.6368 47.7866C61.5524 47.7622 61.4625 47.8137 61.438 47.8979C60.7547 50.368 59.7011 52.211 58.3073 53.3755C58.2392 53.4325 58.2311 53.5329 58.2882 53.6008C58.3318 53.6551 58.3998 53.6714 58.4597 53.6524Z" fill="url(#paint52_linear)"/>
<path d="M48.1282 51.1552C48.1282 51.1552 48.2316 51.318 48.9721 51.8907C49.7126 52.4635 50.4585 52.7919 49.8923 52.0075C49.326 51.223 49.601 50.8159 50.2462 51.6627C50.8914 52.5096 51.3542 52.8354 51.3542 52.8354C51.523 52.9005 51.6891 52.9575 51.8497 53.0091C51.8714 53.2995 51.8088 53.6687 51.5366 54.0921C51.2807 54.008 51.1364 53.9455 51.1364 53.9455C51.1364 53.9455 49.179 53.5899 48.7598 52.7593C48.3405 51.9233 48.1282 51.1552 48.1282 51.1552Z" fill="url(#paint53_linear)"/>
<path d="M71.5951 54.6811C71.587 54.6241 69.7548 58.1935 65.644 57.599C61.5333 57.0046 58.2038 58.0306 56.5214 61.3856C54.8389 64.7406 54.5395 67.8838 53.2273 68.3778C53.2273 68.3778 65.5351 68.6547 67.7566 68.4213C69.9835 68.1878 73.2993 66.2253 71.5951 54.6811Z" fill="url(#paint54_linear)"/>
<path d="M57.3191 62.1863C57.3327 62.1863 57.3463 62.1782 57.3545 62.1646C57.918 60.9594 59.1975 59.3986 62.0886 58.8069C63.8228 58.4513 65.3337 58.6196 65.35 58.6196C65.3718 58.6223 65.3909 58.606 65.3909 58.587C65.3936 58.5653 65.3773 58.5463 65.3582 58.5463C65.3419 58.5436 63.8201 58.378 62.075 58.7336C60.4607 59.0621 58.3182 59.9198 57.2837 62.132C57.2755 62.151 57.2837 62.1727 57.3027 62.1836C57.3082 62.1863 57.3136 62.1863 57.3191 62.1863Z" fill="white"/>
<defs>
<linearGradient id="paint0_linear" x1="-5.59002" y1="75.4053" x2="49.7434" y2="26.8458" gradientUnits="userSpaceOnUse">
<stop stop-color="#B37CFF"/>
<stop offset="1" stop-color="#F895E7"/>
</linearGradient>
<linearGradient id="paint1_linear" x1="43.2211" y1="63.0827" x2="-16.5413" y2="-22.8925" gradientUnits="userSpaceOnUse">
<stop stop-color="#2B3582"/>
<stop offset="1" stop-color="#150E42"/>
</linearGradient>
<linearGradient id="paint2_linear" x1="12.6522" y1="3.04613" x2="45.3336" y2="89.2736" gradientUnits="userSpaceOnUse">
<stop stop-color="#53D8FF"/>
<stop offset="1" stop-color="#3840F7"/>
</linearGradient>
<linearGradient id="paint3_linear" x1="32.0797" y1="16.7747" x2="23.5318" y2="26.2797" gradientUnits="userSpaceOnUse">
<stop stop-color="#2B3582"/>
<stop offset="1" stop-color="#150E42"/>
</linearGradient>
<linearGradient id="paint4_linear" x1="20.9698" y1="88.897" x2="19.5694" y2="13.0508" gradientUnits="userSpaceOnUse">
<stop stop-color="#CB236D"/>
<stop offset="1" stop-color="#4C246D"/>
</linearGradient>
<linearGradient id="paint5_linear" x1="36.0556" y1="53.4866" x2="25.6073" y2="53.4866" gradientUnits="userSpaceOnUse">
<stop stop-color="#F9B776"/>
<stop offset="1" stop-color="#F47960"/>
</linearGradient>
<linearGradient id="paint6_linear" x1="31.2059" y1="110.252" x2="30.2695" y2="59.5336" gradientUnits="userSpaceOnUse">
<stop stop-color="#2B3582"/>
<stop offset="1" stop-color="#150E42"/>
</linearGradient>
<linearGradient id="paint7_linear" x1="7.3316" y1="110.248" x2="8.26789" y2="59.5383" gradientUnits="userSpaceOnUse">
<stop stop-color="#2B3582"/>
<stop offset="1" stop-color="#150E42"/>
</linearGradient>
<linearGradient id="paint8_linear" x1="102.318" y1="72.7208" x2="59.3377" y2="72.5434" gradientUnits="userSpaceOnUse">
<stop stop-color="#C32B78"/>
<stop offset="1" stop-color="#593092"/>
</linearGradient>
<linearGradient id="paint9_linear" x1="61.4576" y1="69.2991" x2="33.4227" y2="72.2518" gradientUnits="userSpaceOnUse">
<stop stop-color="#F9B776"/>
<stop offset="1" stop-color="#F47960"/>
</linearGradient>
<linearGradient id="paint10_linear" x1="55.9737" y1="66.8498" x2="153.247" y2="38.6959" gradientUnits="userSpaceOnUse">
<stop stop-color="#F9B776"/>
<stop offset="1" stop-color="#F47960"/>
</linearGradient>
<linearGradient id="paint11_linear" x1="10.103" y1="38.7915" x2="30.3801" y2="70.5171" gradientUnits="userSpaceOnUse">
<stop stop-color="#FDF53F"/>
<stop offset="1" stop-color="#D93C65"/>
</linearGradient>
<linearGradient id="paint12_linear" x1="33.8689" y1="37.182" x2="-25.1155" y2="94.2463" gradientUnits="userSpaceOnUse">
<stop stop-color="#FDF53F"/>
<stop offset="1" stop-color="#D93C65"/>
</linearGradient>
<linearGradient id="paint13_linear" x1="26.4604" y1="42.315" x2="28.1555" y2="31.4062" gradientUnits="userSpaceOnUse">
<stop stop-color="#F9B776"/>
<stop offset="1" stop-color="#F47960"/>
</linearGradient>
<linearGradient id="paint14_linear" x1="35.3746" y1="30.5741" x2="22.2417" y2="28.3668" gradientUnits="userSpaceOnUse">
<stop stop-color="#F9B776"/>
<stop offset="1" stop-color="#F47960"/>
</linearGradient>
<linearGradient id="paint15_linear" x1="14.9767" y1="9.10493" x2="59.9748" y2="59.1411" gradientUnits="userSpaceOnUse">
<stop stop-color="#2B3582"/>
<stop offset="1" stop-color="#150E42"/>
</linearGradient>
<linearGradient id="paint16_linear" x1="35.5689" y1="29.4187" x2="22.4358" y2="27.2114" gradientUnits="userSpaceOnUse">
<stop stop-color="#F9B776"/>
<stop offset="1" stop-color="#F47960"/>
</linearGradient>
<linearGradient id="paint17_linear" x1="18.5912" y1="56.2215" x2="-6.40448" y2="56.2215" gradientUnits="userSpaceOnUse">
<stop stop-color="#F9B776"/>
<stop offset="1" stop-color="#F47960"/>
</linearGradient>
<linearGradient id="paint18_linear" x1="43.0573" y1="51.7472" x2="29.6026" y2="51.7472" gradientUnits="userSpaceOnUse">
<stop stop-color="#2B3582"/>
<stop offset="1" stop-color="#150E42"/>
</linearGradient>
<linearGradient id="paint19_linear" x1="42.0592" y1="44.7791" x2="38.1663" y2="44.7791" gradientUnits="userSpaceOnUse">
<stop stop-color="#B37CFF"/>
<stop offset="1" stop-color="#F895E7"/>
</linearGradient>
<linearGradient id="paint20_linear" x1="41.8364" y1="52.352" x2="39.4968" y2="52.352" gradientUnits="userSpaceOnUse">
<stop stop-color="#F9B776"/>
<stop offset="1" stop-color="#F47960"/>
</linearGradient>
<linearGradient id="paint21_linear" x1="30.049" y1="53.2028" x2="28.3753" y2="53.2028" gradientUnits="userSpaceOnUse">
<stop stop-color="#2B3582"/>
<stop offset="1" stop-color="#150E42"/>
</linearGradient>
<linearGradient id="paint22_linear" x1="9.7373" y1="12.3196" x2="21.7291" y2="34.6264" gradientUnits="userSpaceOnUse">
<stop stop-color="#FF9085"/>
<stop offset="1" stop-color="#FB6FBB"/>
</linearGradient>
<linearGradient id="paint23_linear" x1="9.7373" y1="12.3196" x2="21.7291" y2="34.6264" gradientUnits="userSpaceOnUse">
<stop stop-color="#B37CFF"/>
<stop offset="1" stop-color="#F895E7"/>
</linearGradient>
<linearGradient id="paint24_linear" x1="8.68173" y1="10.4522" x2="26.5251" y2="33.9922" gradientUnits="userSpaceOnUse">
<stop stop-color="#B37CFF"/>
<stop offset="1" stop-color="#F895E7"/>
</linearGradient>
<linearGradient id="paint25_linear" x1="51.0159" y1="6.68238" x2="65.7434" y2="33.3786" gradientUnits="userSpaceOnUse">
<stop stop-color="#B37CFF"/>
<stop offset="1" stop-color="#F895E7"/>
</linearGradient>
<linearGradient id="paint26_linear" x1="41.358" y1="-2.2027" x2="83.2238" y2="56.9388" gradientUnits="userSpaceOnUse">
<stop stop-color="#B37CFF"/>
<stop offset="1" stop-color="#F895E7"/>
</linearGradient>
<linearGradient id="paint27_linear" x1="38.6467" y1="-0.283561" x2="80.5123" y2="58.8585" gradientUnits="userSpaceOnUse">
<stop stop-color="#B37CFF"/>
<stop offset="1" stop-color="#F895E7"/>
</linearGradient>
<linearGradient id="paint28_linear" x1="69.3573" y1="83.5945" x2="67.057" y2="63.7539" gradientUnits="userSpaceOnUse">
<stop stop-color="#FDF53F"/>
<stop offset="1" stop-color="#D93C65"/>
</linearGradient>
<linearGradient id="paint29_linear" x1="62.067" y1="84.5232" x2="59.7648" y2="64.6655" gradientUnits="userSpaceOnUse">
<stop stop-color="#FDF53F"/>
<stop offset="1" stop-color="#D93C65"/>
</linearGradient>
<linearGradient id="paint30_linear" x1="52.4974" y1="85.6982" x2="50.1971" y2="65.8575" gradientUnits="userSpaceOnUse">
<stop stop-color="#FDF53F"/>
<stop offset="1" stop-color="#D93C65"/>
</linearGradient>
<linearGradient id="paint31_linear" x1="45.2072" y1="86.6286" x2="42.905" y2="66.771" gradientUnits="userSpaceOnUse">
<stop stop-color="#FDF53F"/>
<stop offset="1" stop-color="#D93C65"/>
</linearGradient>
<linearGradient id="paint32_linear" x1="48.0182" y1="59.1207" x2="55.3022" y2="72.2993" gradientUnits="userSpaceOnUse">
<stop stop-color="#CB236D"/>
<stop offset="1" stop-color="#4C246D"/>
</linearGradient>
<linearGradient id="paint33_linear" x1="57.6195" y1="32.4625" x2="65.538" y2="67.4789" gradientUnits="userSpaceOnUse">
<stop stop-color="#CB236D"/>
<stop offset="1" stop-color="#4C246D"/>
</linearGradient>
<linearGradient id="paint34_linear" x1="44.1594" y1="59.7161" x2="56.2613" y2="68.2305" gradientUnits="userSpaceOnUse">
<stop stop-color="#CB236D"/>
<stop offset="1" stop-color="#4C246D"/>
</linearGradient>
<linearGradient id="paint35_linear" x1="47.8368" y1="43.6331" x2="46.9151" y2="48.2367" gradientUnits="userSpaceOnUse">
<stop stop-color="#F9B776"/>
<stop offset="1" stop-color="#F47960"/>
</linearGradient>
<linearGradient id="paint36_linear" x1="51.0349" y1="40.9599" x2="57.785" y2="62.0825" gradientUnits="userSpaceOnUse">
<stop stop-color="#FDF53F"/>
<stop offset="1" stop-color="#D93C65"/>
</linearGradient>
<linearGradient id="paint37_linear" x1="51.2137" y1="73.8923" x2="45.1098" y2="73.8923" gradientUnits="userSpaceOnUse">
<stop stop-color="#2B3582"/>
<stop offset="1" stop-color="#150E42"/>
</linearGradient>
<linearGradient id="paint38_linear" x1="45.5482" y1="67.6852" x2="49.6004" y2="76.6263" gradientUnits="userSpaceOnUse">
<stop stop-color="#CB236D"/>
<stop offset="1" stop-color="#4C246D"/>
</linearGradient>
<linearGradient id="paint39_linear" x1="50.9087" y1="72.0584" x2="49.2572" y2="72.0584" gradientUnits="userSpaceOnUse">
<stop stop-color="#F9B776"/>
<stop offset="1" stop-color="#F47960"/>
</linearGradient>
<linearGradient id="paint40_linear" x1="41.6401" y1="72.6861" x2="36.712" y2="72.6861" gradientUnits="userSpaceOnUse">
<stop stop-color="#2B3582"/>
<stop offset="1" stop-color="#150E42"/>
</linearGradient>
<linearGradient id="paint41_linear" x1="38.8966" y1="70.6995" x2="42.9488" y2="79.6406" gradientUnits="userSpaceOnUse">
<stop stop-color="#CB236D"/>
<stop offset="1" stop-color="#4C246D"/>
</linearGradient>
<linearGradient id="paint42_linear" x1="40.1937" y1="55.1046" x2="47.8702" y2="60.5393" gradientUnits="userSpaceOnUse">
<stop stop-color="#53D8FF"/>
<stop offset="1" stop-color="#3840F7"/>
</linearGradient>
<linearGradient id="paint43_linear" x1="-193.769" y1="196.181" x2="-192.313" y2="195.411" gradientUnits="userSpaceOnUse">
<stop stop-color="#F9B776"/>
<stop offset="1" stop-color="#F47960"/>
</linearGradient>
<linearGradient id="paint44_linear" x1="34.4609" y1="51.1476" x2="63.9936" y2="72.6152" gradientUnits="userSpaceOnUse">
<stop stop-color="#53D8FF"/>
<stop offset="1" stop-color="#3840F7"/>
</linearGradient>
<linearGradient id="paint45_linear" x1="55.7265" y1="44.2787" x2="68.5349" y2="65.796" gradientUnits="userSpaceOnUse">
<stop stop-color="#FDF53F"/>
<stop offset="1" stop-color="#D93C65"/>
</linearGradient>
<linearGradient id="paint46_linear" x1="59.6749" y1="40.8677" x2="56.1467" y2="40.8677" gradientUnits="userSpaceOnUse">
<stop stop-color="#F9B776"/>
<stop offset="1" stop-color="#F47960"/>
</linearGradient>
<linearGradient id="paint47_linear" x1="54.8722" y1="36.5148" x2="57.2523" y2="44.4832" gradientUnits="userSpaceOnUse">
<stop stop-color="#F9B776"/>
<stop offset="1" stop-color="#F47960"/>
</linearGradient>
<linearGradient id="paint48_linear" x1="57.9117" y1="39.3495" x2="52.2863" y2="37.2503" gradientUnits="userSpaceOnUse">
<stop stop-color="#2B3582"/>
<stop offset="1" stop-color="#150E42"/>
</linearGradient>
<linearGradient id="paint49_linear" x1="59.9374" y1="43.9981" x2="57.6118" y2="38.724" gradientUnits="userSpaceOnUse">
<stop stop-color="#F9B776"/>
<stop offset="1" stop-color="#F47960"/>
</linearGradient>
<linearGradient id="paint50_linear" x1="53.2897" y1="47.1264" x2="71.9129" y2="63.8977" gradientUnits="userSpaceOnUse">
<stop stop-color="#FDF53F"/>
<stop offset="1" stop-color="#D93C65"/>
</linearGradient>
<linearGradient id="paint51_linear" x1="47.4371" y1="30.7881" x2="67.5238" y2="68.2021" gradientUnits="userSpaceOnUse">
<stop stop-color="#FDF53F"/>
<stop offset="1" stop-color="#D93C65"/>
</linearGradient>
<linearGradient id="paint52_linear" x1="48.9099" y1="30.1778" x2="68.9966" y2="67.5917" gradientUnits="userSpaceOnUse">
<stop stop-color="#FDF53F"/>
<stop offset="1" stop-color="#D93C65"/>
</linearGradient>
<linearGradient id="paint53_linear" x1="49.26" y1="52.0106" x2="56.7387" y2="58.5572" gradientUnits="userSpaceOnUse">
<stop stop-color="#F9B776"/>
<stop offset="1" stop-color="#F47960"/>
</linearGradient>
<linearGradient id="paint54_linear" x1="59.6409" y1="57.8528" x2="76.5066" y2="80.3589" gradientUnits="userSpaceOnUse">
<stop stop-color="#CB236D"/>
<stop offset="1" stop-color="#4C246D"/>
</linearGradient>
</defs>
</svg>
