<svg width="152" height="175" viewBox="0 0 152 175" xmlns="http://www.w3.org/2000/svg">
<ellipse cx="75.8621" cy="99.2092" rx="75.8621" ry="75.7908" fill="#E6EAF7"/>
<mask id="mask0" style="mask-type:alpha" maskUnits="userSpaceOnUse" x="0" y="0" width="152" height="175">
<path fill-rule="evenodd" clip-rule="evenodd" d="M151 0H1V101H0C0.952241 142.031 34.543 175 75.8413 175C117.14 175 150.73 142.031 151.683 101H151V0Z" fill="#fff"/>
</mask>
<g mask="url(#mask0)">
<path d="M105.069 16.5626C105.134 14.1711 102.942 12.3281 100.706 11.4505C98.4707 10.5728 96.0386 10.2437 94.0646 8.91085C92.3196 7.72606 91.1472 5.88305 89.6694 4.38012C87.8461 2.52135 85.5638 1.18407 83.0569 0.505522C80.55 -0.173024 77.9088 -0.168398 75.4043 0.518922C72.8998 1.20624 70.6222 2.55151 68.8052 4.41665C66.9883 6.28179 65.6975 8.59965 65.0652 11.1323C64.2199 14.5331 64.798 18.5537 67.4645 20.8191C70.5619 23.441 75.1479 22.8596 79.1123 22.0423C83.0767 21.225 87.57 20.3967 90.88 22.7608C92.8759 24.176 94.021 26.4743 95.2425 28.6025C96.464 30.7307 97.969 32.8974 100.303 33.6982C102.637 34.499 105.756 33.1168 105.838 30.6649" fill="#F28080"/>
<path d="M104.911 17.8739C104.649 19.876 106.089 21.6697 107.523 23.0848C108.957 24.5 110.577 25.9974 110.833 28.0215C111.128 30.3636 109.426 32.6674 109.923 34.9766C110.233 36.4412 111.368 37.5656 112.055 38.8985C112.965 40.8164 113.115 43.0111 112.475 45.0364C111.886 47.0549 110.942 51.5582 109.546 53.127C105.691 57.4602 99.5563 61.2011 93.9233 62.5011C88.2903 63.801 82.4337 63.812 76.6643 63.4555C71.942 63.1648 66.5052 63.3842 62.5681 56.8459C60.5287 53.4561 59.5199 48.9582 58.4401 45.1516C57.5022 41.8605 56.6952 38.3664 57.6658 35.0973C58.2111 33.1994 59.3726 31.5045 59.9288 29.6121C60.6268 27.2316 60.3705 24.6755 60.6486 22.2237C60.9524 19.5413 61.8885 16.9706 63.3792 14.7256C64.8698 12.4805 66.8719 10.626 69.2189 9.31634C71.5659 8.00665 74.1898 7.27965 76.8725 7.19583C79.5551 7.11201 82.2189 7.67379 84.6422 8.83443" fill="#2D2F34"/>
<path d="M62.9111 26.0853C63.3528 19.2673 67.8625 10.9079 74.6188 11.6429L95.7004 17.0513C96.6898 17.1607 97.6027 17.6384 98.2596 18.3905C98.9165 19.1427 99.27 20.1148 99.2504 21.1158L96.8783 72.2812L97.0255 72.3086C97.0255 72.3086 92.2214 86.74 78.2778 82.3354C75.5131 81.4578 74.248 78.4191 73.7027 75.2871H73.5609C73.5609 74.9141 73.5609 74.5685 73.5609 74.19C73.2895 71.8572 73.2621 69.5021 73.4791 67.1635V67.1635C73.441 63.0332 73.4464 61.3438 73.441 61.3822C73.4355 61.4206 64.7815 59.9122 63.0147 48.5415C62.1149 42.9302 62.4203 33.6603 62.9111 26.0853Z" fill="#FFBE9D"/>
<path d="M66.3086 32.9359C66.3026 33.3158 66.4448 33.6831 66.7047 33.9589C66.9647 34.2347 67.3216 34.3971 67.6991 34.4114C67.8836 34.4264 68.0691 34.4041 68.2449 34.346C68.4207 34.2879 68.5831 34.195 68.7228 34.0729C68.8625 33.9508 68.9765 33.8019 69.0582 33.6349C69.1399 33.4679 69.1877 33.2862 69.1987 33.1004C69.2033 32.7199 69.0598 32.3527 68.799 32.077C68.5383 31.8014 68.1808 31.6391 67.8027 31.6248C67.6186 31.6099 67.4333 31.6322 67.2579 31.6904C67.0824 31.7486 66.9203 31.8415 66.781 31.9636C66.6418 32.0858 66.5283 32.2348 66.4472 32.4017C66.366 32.5687 66.3189 32.7503 66.3086 32.9359V32.9359Z" fill="#2D2F34"/>
<path d="M64.8964 30.9119C65.0764 31.1039 66.1779 30.2866 67.7375 30.2921C69.297 30.2975 70.464 31.0874 70.6112 30.8955C70.693 30.8132 70.5076 30.4676 70.0114 30.1056C69.3395 29.6308 68.5367 29.3795 67.7157 29.387C66.904 29.3801 66.1113 29.6338 65.4526 30.111C64.9728 30.484 64.8037 30.8241 64.8964 30.9119Z" fill="#2D2F34"/>
<path d="M81.6369 32.9359C81.6324 33.3164 81.7758 33.6836 82.0366 33.9593C82.2974 34.2349 82.6549 34.3972 83.0329 34.4115C83.2171 34.4264 83.4024 34.4041 83.5778 34.3459C83.7533 34.2877 83.9154 34.1948 84.0546 34.0727C84.1938 33.9505 84.3074 33.8015 84.3885 33.6346C84.4697 33.4676 84.5168 33.286 84.5271 33.1005C84.533 32.7205 84.3908 32.3532 84.1309 32.0774C83.871 31.8016 83.5141 31.6392 83.1365 31.6249C82.952 31.6092 82.7661 31.6309 82.59 31.6887C82.4139 31.7466 82.2511 31.8394 82.1113 31.9616C81.9715 32.0838 81.8575 32.233 81.776 32.4004C81.6945 32.5677 81.6472 32.7498 81.6369 32.9359Z" fill="#2D2F34"/>
<path d="M80.2299 31.2355C80.4098 31.4275 81.5114 30.6157 83.0709 30.6211C84.6305 30.6266 85.7702 31.4165 85.9393 31.2245C86.0211 31.1368 85.8411 30.7967 85.3394 30.4291C84.6656 29.9583 83.8641 29.7074 83.0437 29.7106C82.2332 29.7065 81.4426 29.962 80.7861 30.4401C80.3062 30.8076 80.1426 31.1752 80.2299 31.2355Z" fill="#2D2F34"/>
<path d="M74.5427 42.8585C74.5427 42.7707 73.5829 42.6007 72.0124 42.3922C71.6144 42.3538 71.2381 42.2716 71.1672 41.9973C71.1356 41.5836 71.2307 41.1701 71.4399 40.8125L72.6232 37.7628C74.2591 33.424 75.4588 29.8532 75.2843 29.7929C75.1098 29.7325 73.6484 33.1882 72.0124 37.5324C71.6125 38.6002 71.2345 39.6222 70.8782 40.5986C70.6253 41.0798 70.5499 41.6356 70.6655 42.1673C70.7233 42.3086 70.8123 42.4348 70.9256 42.5365C71.039 42.6382 71.1738 42.7126 71.3199 42.7543C71.5404 42.8152 71.7675 42.8483 71.9961 42.853C73.5557 42.9408 74.5372 42.9517 74.5427 42.8585Z" fill="#2D2F34"/>
<path d="M73.425 61.4258C78.7466 61.519 83.9893 60.1232 88.5682 57.394C88.5682 57.394 84.7511 65.2546 73.436 64.1685L73.425 61.4258Z" fill="#EB996E"/>
<path d="M75.1975 46.6433C75.4943 46.268 75.8816 45.9753 76.3225 45.7929C76.7634 45.6104 77.2434 45.5444 77.7168 45.601C78.0615 45.6318 78.3963 45.7328 78.701 45.8978C79.0056 46.0629 79.2737 46.2885 79.489 46.561C79.6939 46.8235 79.8145 47.1425 79.835 47.4756C79.8554 47.8087 79.7747 48.1401 79.6035 48.426C79.3542 48.7094 79.0254 48.9103 78.6605 49.0024C78.2955 49.0944 77.9114 49.0732 77.5586 48.9416C76.823 48.6771 76.1466 48.2688 75.5683 47.7403C75.3919 47.618 75.2417 47.4613 75.1266 47.2796C75.0713 47.1918 75.042 47.09 75.042 46.9861C75.042 46.8822 75.0713 46.7804 75.1266 46.6926" fill="#F28080"/>
<path d="M79.1291 43.9555C78.8783 43.9555 78.8728 45.645 77.4168 46.8463C75.9609 48.0476 74.145 47.8611 74.145 48.1024C74.145 48.2067 74.5485 48.4316 75.3065 48.4535C76.2982 48.4706 77.2639 48.1345 78.033 47.5045C78.7705 46.8997 79.2456 46.0304 79.3581 45.08C79.4345 44.3669 79.2491 43.9445 79.1291 43.9555Z" fill="#2D2F34"/>
<path d="M79.5269 28.4875C79.6796 28.9153 81.2391 28.7178 83.0659 28.9427C84.8927 29.1676 86.3759 29.6723 86.6213 29.2938C86.7304 29.1128 86.4741 28.7069 85.8742 28.2955C85.0861 27.7752 84.1841 27.4552 83.2459 27.3629C82.3105 27.2457 81.3608 27.3548 80.4757 27.6811C79.805 27.9554 79.4669 28.2845 79.5269 28.4875Z" fill="#2D2F34"/>
<path d="M65.4795 26.3701C65.7576 26.7266 66.8319 26.3701 68.1243 26.3701C69.4166 26.3701 70.5072 26.6114 70.7635 26.2439C70.8726 26.0629 70.6981 25.6954 70.2182 25.3663C69.5774 24.9594 68.8307 24.7536 68.0733 24.7751C67.3158 24.7966 66.5818 25.0444 65.9649 25.4869C65.5123 25.8325 65.3487 26.2 65.4795 26.3701Z" fill="#2D2F34"/>
<path d="M103.591 54.4543C102.03 54.7709 100.416 54.7091 98.8836 54.2741C97.3509 53.839 95.9431 53.0433 94.7767 51.9526C93.6103 50.8618 92.7188 49.5075 92.1759 48.0016C91.6329 46.4956 91.4541 44.8813 91.6543 43.2921C92.0033 40.5001 93.5029 37.6588 92.5377 35.015C91.2671 31.521 86.3976 30.4459 85.1052 26.9573C84.3527 24.9333 85.0288 22.5692 84.1782 20.5781C83.3766 18.7077 81.4244 17.6326 79.5212 16.9415C77.6181 16.2503 75.5841 15.7731 73.9864 14.528C72.3886 13.2829 71.3962 10.9243 72.4268 9.1745C80.8665 10.1909 89.1556 12.2165 97.1183 15.2082C98.9669 15.8993 100.903 16.733 101.993 18.384C103.149 20.1283 103.084 22.3827 102.997 24.478L101.573 55.0961" fill="#2D2F34"/>
<path d="M102.882 58.3595C102.882 58.3595 102.953 58.3266 103.067 58.2443L103.569 57.8604C104.005 57.5148 104.66 57.0047 105.44 56.2971C106.416 55.4524 107.305 54.5115 108.095 53.4887C109.176 52.1282 109.903 50.5183 110.211 48.8044C110.428 47.7617 110.409 46.6835 110.157 45.6488C109.905 44.6142 109.426 43.6495 108.755 42.8256C107.936 42.006 107.055 41.2505 106.121 40.5657C105.181 39.8488 104.467 38.8734 104.065 37.7573C103.231 35.4426 103.602 32.7604 103.28 30.0178C102.961 27.1566 101.85 24.4429 100.074 22.185C99.1582 21.0478 98.0181 20.1139 96.7255 19.4424C95.4565 18.862 94.1318 18.4135 92.7721 18.1041C91.506 17.7838 90.3221 17.1967 89.2985 16.3817C88.3361 15.5709 87.4885 14.6316 86.7791 13.5898C85.3614 11.5603 84.3089 9.39915 82.962 7.59454C82.3237 6.71097 81.5761 5.91285 80.7371 5.21947C79.9495 4.58348 79.0559 4.09318 78.0979 3.7714C77.2793 3.45725 76.3992 3.3393 75.5275 3.42689C74.6557 3.51449 73.8162 3.80523 73.0756 4.27604C72.5548 4.68253 72.1263 5.19619 71.8188 5.78267C71.5113 6.36916 71.3318 7.01495 71.2924 7.67682C71.2248 8.51537 71.4675 9.34949 71.9741 10.019C72.1043 10.1888 72.2587 10.3385 72.4321 10.4633C72.488 10.5121 72.5504 10.5527 72.6175 10.5839C72.5714 10.5265 72.5203 10.4732 72.4648 10.4249C72.3099 10.2871 72.1725 10.1305 72.0559 9.95864C71.61 9.29367 71.4165 8.48973 71.5106 7.69328C71.5623 7.06716 71.745 6.4591 72.0466 5.90895C72.3483 5.3588 72.7621 4.87897 73.261 4.50092C73.9676 4.07079 74.7638 3.81127 75.5869 3.74275C76.4101 3.67422 77.2378 3.79856 78.0052 4.10599C78.9194 4.42273 79.7705 4.90002 80.519 5.51567C81.3226 6.20096 82.0404 6.98192 82.6566 7.84138C83.9654 9.61308 84.996 11.7742 86.4356 13.875C87.163 14.9586 88.0366 15.9351 89.0313 16.7767C90.0874 17.6179 91.3083 18.2254 92.6139 18.5593C93.9438 18.8647 95.2393 19.3058 96.4802 19.8758C97.7145 20.5222 98.8025 21.4186 99.6757 22.5086C101.398 24.6894 102.478 27.3115 102.795 30.0781C103.127 32.7275 102.746 35.4536 103.635 37.9164C104.064 39.1046 104.82 40.1454 105.816 40.9168C106.735 41.5829 107.605 42.3162 108.417 43.1108C109.057 43.8867 109.516 44.7967 109.762 45.7742C110.007 46.7517 110.032 47.7721 109.835 48.7605C109.556 50.4244 108.874 51.9937 107.85 53.3296C107.081 54.3517 106.222 55.3009 105.281 56.1655C104.513 56.8895 103.891 57.4216 103.476 57.811C103.267 57.9815 103.069 58.1646 102.882 58.3595V58.3595Z" fill="#5F646F"/>
<path d="M104.949 59.7745C107.272 57.5147 111.236 59.4783 113.188 62.0673C115.141 64.6563 116.52 68.0022 119.481 69.3077C122.442 70.6132 126.287 69.4887 128.751 71.5621C132.176 74.4253 130.251 81.0569 133.959 83.5471C135.426 84.5345 137.367 84.5016 138.938 85.3134C142.64 87.2332 142.597 92.4879 142.024 96.6402C141.244 102.482 140.361 108.515 137.165 113.452C133.97 118.389 127.748 121.839 122.219 119.941C116.902 118.114 114.17 112.344 112.005 107.128C109.017 99.8947 106.025 92.6781 103.029 85.4779C101.301 81.3037 99.5502 77.0637 98.9885 72.5768C98.4269 68.09 99.1794 63.2521 102.02 59.7307" fill="#2D2F34"/>
<path d="M106.438 54.7941C108.123 54.5912 109.415 56.6701 108.968 58.3212C108.521 59.9723 106.95 61.0639 105.342 61.6125C104.454 61.9669 103.489 62.0785 102.544 61.9361C102.072 61.862 101.627 61.6644 101.255 61.363C100.883 61.0617 100.596 60.6672 100.423 60.2192C100.246 59.8327 100.228 59.3915 100.373 58.9919C100.518 58.5922 100.814 58.2663 101.197 58.0854C102.288 57.3887 102.959 56.8402 103.836 56.352C105.178 55.6114 105.096 55.5127 106.438 54.7667" fill="#F28080"/>
<path d="M67.5952 73.087L74.1497 68.0901L98.8576 66.4994L99.8501 69.8344L91.8122 120.276L98.1542 180.459H63.6853L67.5952 73.087Z" fill="#F28080"/>
<g opacity="0.3">
<path opacity="0.3" d="M94.0488 159.11C93.2581 158.26 91.9657 157.097 90.8151 157.07C82.5592 156.889 74.1342 156.061 65.8783 155.874L65.2184 180.469C67.1925 176.97 69.0629 173.339 69.5809 169.335C69.8099 167.59 70.1262 165.495 71.6803 164.76C72.5746 164.338 73.6271 164.502 74.5923 164.7C77.5751 165.292 80.5361 166.066 83.568 166.258C86.5999 166.449 89.7791 166 92.3256 164.332C93.2298 163.796 93.9578 163.004 94.4196 162.056C94.6395 161.58 94.7213 161.05 94.6557 160.529C94.5902 160.008 94.3798 159.517 94.0488 159.11Z" fill="black"/>
</g>
<path d="M72.9392 74.1073L72.1704 66.8943C72.1388 66.5921 72.1672 66.2866 72.2541 65.9956C72.3409 65.7045 72.4844 65.4337 72.6762 65.1989C72.868 64.9642 73.1043 64.7701 73.3713 64.628C73.6383 64.4859 73.9308 64.3986 74.2316 64.3712L96.9709 62.3033C97.1164 62.2921 97.2626 62.3104 97.4009 62.3571C97.5392 62.4038 97.6668 62.4779 97.7761 62.5751C97.8855 62.6723 97.9743 62.7905 98.0374 62.9228C98.1004 63.0551 98.1365 63.1989 98.1433 63.3454L98.3996 71.9297L91.8123 83.1687L85.0451 85.3354H76.7673L72.0068 80.2232L72.9392 74.1073Z" fill="#F28080"/>
<path d="M95.0404 69.1762C94.7353 69.1632 94.4312 69.1321 94.1297 69.0829C93.3068 69.0054 92.4792 68.9908 91.654 69.0391C90.4276 69.1278 89.2098 69.3111 88.0114 69.5876C86.6536 69.8728 85.1758 70.2733 83.6108 70.6572C82.1419 71.0431 80.6448 71.3109 79.1338 71.4581C77.8905 71.576 76.6365 71.4908 75.4202 71.2058C74.6024 71.0129 73.8214 70.6868 73.1081 70.2404C72.9182 70.1166 72.736 69.981 72.5628 69.8344C72.4429 69.7357 72.3829 69.6754 72.3938 69.6699C72.4047 69.6644 72.661 69.8509 73.1736 70.1416C73.8963 70.5422 74.6734 70.8342 75.4802 71.0083C76.6774 71.2608 77.9064 71.3237 79.1229 71.1948C80.6189 71.0342 82.1008 70.761 83.5562 70.3775C85.1158 69.999 86.599 69.6041 87.9678 69.3298C89.1811 69.0681 90.4142 68.9103 91.654 68.858C92.4906 68.822 93.3287 68.8661 94.157 68.9897C94.4515 69.0409 94.675 69.0848 94.8277 69.1213C94.964 69.1433 95.0458 69.1652 95.0404 69.1762Z" fill="#2D2F34"/>
<g opacity="0.3">
<path opacity="0.3" d="M73.4795 70.3116C72.8687 71.9956 72.8524 74.0801 74.0902 75.3691C75.0936 76.4223 76.7132 76.6856 78.1364 76.4004C79.5459 76.0354 80.883 75.4306 82.0899 74.6121C85.2199 72.7416 88.4045 70.7998 91.9599 70.0044C92.1934 69.9765 92.4144 69.8834 92.5979 69.7356C92.6404 69.6961 92.6743 69.6481 92.6974 69.5948C92.7206 69.5415 92.7325 69.4839 92.7325 69.4257C92.7325 69.3675 92.7206 69.3099 92.6974 69.2566C92.6743 69.2033 92.6404 69.1553 92.5979 69.1158C92.5086 69.063 92.4071 69.0346 92.3035 69.0335C89.157 68.7154 86.0324 69.582 82.9515 70.3061C79.8705 71.0302 76.5714 71.4964 73.5995 70.4158" fill="black"/>
</g>
<path d="M77.8253 64.1407C77.505 64.3166 77.2362 64.5738 77.0455 64.8867C76.6856 65.4682 76.7074 66.4556 76.7346 67.5197C76.7946 69.6535 77.1436 71.3595 77.0618 71.3595C76.9029 71.012 76.7981 70.642 76.751 70.2624C76.5785 69.3577 76.4782 68.4405 76.4511 67.5197C76.4313 67.0094 76.4422 66.4983 76.4838 65.9893C76.5144 65.559 76.6492 65.1428 76.8764 64.777C77.0321 64.5294 77.2529 64.3301 77.5144 64.2011C77.7053 64.1243 77.8198 64.1243 77.8253 64.1407Z" fill="#2D2F34"/>
<path d="M83.8345 70.4106C83.8409 69.2456 83.7863 68.0811 83.6709 66.9219C83.4091 65.0075 82.7766 63.5538 82.8638 63.5209C83.0706 63.8006 83.2274 64.1143 83.3274 64.448C83.6252 65.2321 83.8355 66.0471 83.9544 66.878C84.0723 67.7101 84.0961 68.5529 84.0253 69.3903C84.0197 69.7388 83.9552 70.0839 83.8345 70.4106V70.4106Z" fill="#F28080"/>
<path d="M91.158 62.912C91.3602 63.1613 91.5071 63.4512 91.5888 63.7623C91.8349 64.4981 91.9367 65.2749 91.8887 66.0497C91.8369 66.8264 91.6331 67.5851 91.2888 68.2822C91.1667 68.5809 90.9805 68.8487 90.7435 69.0667C91.2374 68.1271 91.529 67.0935 91.5995 66.0332C91.6699 64.9728 91.5177 63.9093 91.1525 62.912H91.158Z" fill="#2D2F34"/>
<path d="M59.2688 76.3343C59.2688 76.3343 51.5145 81.5561 49.4532 90.9906C47.85 98.4065 43.4549 137.581 43.4549 137.581L35.7715 152.622L40.7883 164.623C45.0848 164.928 49.351 163.703 52.8396 161.162L56.2151 158.694L62.4043 149.462L59.2688 76.3343Z" fill="#FAFAFC"/>
<path d="M72.4104 69.412L59.2685 76.3342L56.1657 86.586L53.401 116.31L58.6032 151.157L49.4748 180.354L65.2178 180.47L65.5941 163.356L67.1646 107.956L68.7078 72.6647L72.4104 69.412Z" fill="#FAFAFC"/>
<path d="M66.0473 115.597C65.9546 115.465 65.8725 115.325 65.8019 115.18L65.1476 113.968C64.8749 113.419 64.6023 112.75 64.2696 111.971C64.1115 111.576 63.9751 111.143 63.817 110.688C63.6589 110.232 63.4844 109.75 63.348 109.234C62.1102 105.126 61.2922 99.1962 61.4667 92.6579C61.4667 92.1533 61.5049 91.6542 61.5376 91.155V91.0673L61.6194 91.0344L63.9206 90.058L63.8879 90.2993L61.5867 88.4399L61.5376 88.4015V88.3466C61.5151 86.0999 61.8691 83.8654 62.5846 81.737C63.1626 79.8008 63.7952 78.1333 64.3514 76.762C64.9076 75.3907 65.393 74.3211 65.7365 73.5971C65.911 73.2296 66.0473 72.9498 66.14 72.7688C66.1847 72.6712 66.2376 72.5776 66.2982 72.4891C66.2719 72.592 66.2334 72.6915 66.1837 72.7853L65.8183 73.6355C65.502 74.3705 65.044 75.4511 64.5096 76.8278C63.9751 78.2046 63.3644 79.8721 62.8082 81.8028C62.1201 83.9065 61.7829 86.1102 61.8103 88.3247L61.7557 88.2314L64.0624 90.0799L64.2423 90.228L64.0297 90.3213L61.7285 91.2976L61.8157 91.177C61.783 91.6651 61.7612 92.1643 61.7448 92.6689C61.5758 99.1798 62.3556 105.082 63.5389 109.174C63.6643 109.695 63.8334 110.172 63.9806 110.627C64.1278 111.083 64.2587 111.521 64.4168 111.916C64.7386 112.695 64.9622 113.381 65.2457 113.918L65.8456 115.153C65.9227 115.296 65.9901 115.444 66.0473 115.597Z" fill="#2D2F34"/>
<path d="M55.7296 136.408C55.6801 136.267 55.6382 136.124 55.6042 135.98C55.5279 135.669 55.4243 135.252 55.2934 134.729C55.1571 134.181 55.0044 133.522 54.8517 132.749C54.699 131.976 54.4972 131.103 54.3446 130.1C54.1919 129.096 53.9846 128.037 53.8374 126.874C53.6902 125.711 53.543 124.461 53.4066 123.15C53.1667 120.517 53.0085 117.615 53.0085 114.566C53.0085 111.516 53.1885 108.614 53.4339 105.987C53.5811 104.676 53.7065 103.425 53.8865 102.262C54.0664 101.1 54.2246 100.019 54.3991 99.0372C54.5736 98.0554 54.759 97.1723 54.9444 96.3934C55.1298 95.6145 55.2607 94.9508 55.397 94.4133C55.5333 93.8757 55.6315 93.4753 55.7133 93.1681C55.7447 93.0208 55.7866 92.876 55.8387 92.7348C55.8282 92.8847 55.8045 93.0334 55.7678 93.1791L55.5061 94.4352C55.3861 94.9837 55.2389 95.6474 55.1025 96.4263C54.9662 97.2052 54.7699 98.0718 54.6227 99.0756C54.4754 100.079 54.2846 101.133 54.1482 102.295C54.0119 103.458 53.8592 104.703 53.7229 106.009C53.4939 108.636 53.3303 111.527 53.3194 114.571C53.3085 117.615 53.4721 120.501 53.6902 123.128C53.8265 124.433 53.9356 125.684 54.0992 126.841C54.2628 127.999 54.41 129.085 54.5681 130.067C54.7263 131.049 54.8953 131.937 55.0316 132.716C55.168 133.495 55.3097 134.164 55.4297 134.707C55.5497 135.25 55.626 135.651 55.686 135.963C55.7162 136.109 55.7309 136.258 55.7296 136.408V136.408Z" fill="#2D2F34"/>
<path d="M59.285 163.164C59.1313 163.635 58.9168 164.083 58.647 164.497C58.0579 165.529 57.3849 166.511 56.6348 167.432C55.886 168.354 55.0615 169.21 54.17 169.993C53.8178 170.339 53.4239 170.64 52.9976 170.887C53.3184 170.516 53.6646 170.168 54.0337 169.845C54.8749 169.025 55.6705 168.159 56.4167 167.251C57.1562 166.337 57.8444 165.383 58.4779 164.393C58.7183 163.965 58.988 163.554 59.285 163.164V163.164Z" fill="#2D2F34"/>
<path d="M119.694 75.4841C122.455 76.5632 124.911 78.308 126.845 80.5651C128.779 82.8223 130.132 85.5227 130.785 88.429C135.088 107.495 142.444 132.859 142.564 141.048C142.706 151.47 138.202 158.6 132.263 159.917C127.584 160.959 85.1922 158.622 85.1922 158.622L83.2073 142.715L117.562 137.631L112.861 111.258L117.513 74.6613L119.694 75.4841Z" fill="#FAFAFC"/>
<path d="M117.512 74.6338L108.019 70.7339L98.0123 64.8318L97.9523 66.5597C99.1811 68.6698 99.6092 71.1559 99.1575 73.5587L90.8143 117.253L92.701 149.182L96.5782 180.448H126.685L112.861 147.729L117.742 103.634L117.512 74.6338Z" fill="#FAFAFC"/>
<path d="M126.308 160.186L126.101 160.213L125.496 160.273C124.95 160.328 124.171 160.323 123.145 160.35C121.106 160.35 118.14 160.306 114.448 160.186C107.07 159.939 96.8017 159.44 85.203 158.765H85.0885V158.644C84.854 156.752 84.6031 154.755 84.3523 152.731C83.9215 149.303 83.5071 145.957 83.109 142.759V142.622H83.2399L109.458 138.783L117.158 137.686L119.225 137.406L119.77 137.335H119.955L119.775 137.373L119.23 137.466L117.169 137.795L109.486 138.975L83.3108 142.907L83.4253 142.748C83.8288 145.952 84.2487 149.292 84.674 152.72C84.9303 154.75 85.1757 156.746 85.4102 158.639L85.2793 158.518C96.8726 159.198 107.146 159.73 114.519 160.032C118.205 160.175 121.166 160.257 123.205 160.284C124.225 160.284 125.021 160.284 125.55 160.251L126.156 160.219L126.308 160.186Z" fill="#2D2F34"/>
<path d="M112.583 108.559C112.622 108.654 112.648 108.754 112.66 108.856C112.703 109.081 112.758 109.355 112.823 109.7C112.965 110.474 113.156 111.532 113.369 112.821C113.832 115.498 114.459 119.124 115.157 123.133C115.855 127.143 116.422 130.78 116.87 133.462C117.071 134.756 117.235 135.815 117.355 136.594C117.404 136.94 117.442 137.225 117.475 137.45C117.487 137.55 117.487 137.651 117.475 137.751C117.434 137.659 117.406 137.561 117.393 137.461C117.349 137.236 117.295 136.956 117.224 136.616C117.082 135.837 116.886 134.784 116.646 133.495C116.172 130.857 115.555 127.214 114.857 123.183C114.159 119.151 113.57 115.504 113.151 112.854C112.954 111.56 112.791 110.496 112.671 109.717C112.627 109.373 112.589 109.088 112.556 108.861C112.554 108.76 112.563 108.659 112.583 108.559V108.559Z" fill="#2D2F34"/>
<path d="M102.381 67.9254C102.381 67.9254 102.381 67.9638 102.419 68.0351L102.506 68.3533C102.577 68.6385 102.697 69.0499 102.812 69.5984C103.144 71.1495 103.385 72.7192 103.532 74.2992C103.754 76.6838 103.814 79.0809 103.712 81.4738C103.619 84.2163 103.335 87.2167 102.926 90.4145V90.5133H102.828L99.7035 91.0947L99.8071 90.9027C99.9871 91.3854 100.167 91.901 100.309 92.4331C101.168 95.9286 101.045 99.5954 99.9543 103.025C99.0905 105.807 97.8657 108.463 96.3117 110.923C95.0139 113.041 93.8469 114.664 93.0399 115.789L92.0965 117.072C91.9983 117.209 91.9111 117.314 91.8456 117.401C91.8209 117.443 91.7896 117.48 91.7529 117.511C91.7529 117.511 91.7529 117.467 91.8238 117.385L92.0528 117.039C92.271 116.721 92.5982 116.282 92.9472 115.723C93.7269 114.582 94.8721 112.942 96.1372 110.819C97.6553 108.361 98.8538 105.718 99.7035 102.954C100.603 99.8435 101.029 96.1465 100.036 92.5318C99.898 92.0228 99.7342 91.5212 99.5454 91.0289L99.4854 90.8698L99.6544 90.8369L102.757 90.261L102.643 90.3816C103.057 87.1948 103.357 84.1889 103.461 81.4683C103.576 79.0914 103.537 76.7095 103.346 74.3376C103.218 72.7602 103.005 71.191 102.708 69.6368C102.61 69.0883 102.501 68.6714 102.452 68.3862C102.425 68.2546 102.403 68.1503 102.386 68.0626C102.376 68.0176 102.374 67.9711 102.381 67.9254V67.9254Z" fill="#2D2F34"/>
<path d="M102.381 112.734V105.773C102.381 105.773 102.468 104.056 101.028 104.418C99.5887 104.78 99.8559 107.495 99.8559 107.495C99.8559 107.495 99.5887 118.087 100.216 117.999C100.843 117.912 101.088 117.094 101.088 117.094V113.019L102.381 112.734Z" fill="#2D2F34"/>
<path d="M108.368 113.167C107.136 113.311 105.894 113.359 104.655 113.31C103.415 113.359 102.173 113.311 100.941 113.167C102.174 113.026 103.415 112.978 104.655 113.024C105.894 112.978 107.136 113.026 108.368 113.167Z" fill="#2D2F34"/>
<path d="M122.061 79.6199C121.811 79.7376 121.552 79.8348 121.286 79.9106C120.581 80.1639 119.892 80.4625 119.225 80.8047C117.026 81.9433 115.118 83.5784 113.652 85.5822C113.237 86.1468 112.872 86.7469 112.561 87.3759C112.292 87.9706 112.073 88.5871 111.907 89.2189C111.625 90.2967 111.443 91.3984 111.362 92.51C111.285 93.4589 111.269 94.2378 111.264 94.7698C111.28 95.0475 111.28 95.3259 111.264 95.6036C111.195 95.342 111.159 95.0731 111.155 94.8027C111.112 94.0446 111.112 93.2846 111.155 92.5264C111.209 91.3972 111.375 90.2763 111.651 89.1805C111.815 88.5297 112.036 87.8947 112.311 87.2826C112.628 86.6362 113.002 86.0195 113.428 85.4396C114.916 83.3977 116.878 81.7536 119.143 80.6511C119.824 80.3209 120.53 80.0457 121.254 79.8283C121.515 79.7313 121.785 79.6615 122.061 79.6199Z" fill="#2D2F34"/>
<path d="M-0.120728 137.581L49.4749 156.055L91.2836 162.484L41.5734 138.108L-0.120728 137.581Z" fill="#2D2F34"/>
<path d="M21.1027 157.504C20.7044 154.838 19.8049 152.273 18.4525 149.945C18.1604 149.507 17.9326 149.028 17.7763 148.524C17.6983 148.273 17.6829 148.005 17.7314 147.746C17.7799 147.487 17.8908 147.244 18.0544 147.038C18.6925 146.341 19.854 146.648 20.6392 147.175C22.2286 148.339 23.3997 149.991 23.9765 151.881C24.5448 153.758 24.9104 155.691 25.0671 157.647" fill="#FFBE9D"/>
<path d="M40.4342 152.753H37.9694C37.3646 152.15 36.6121 151.719 35.7882 151.503C35.4833 151.451 35.1703 151.484 34.8822 151.597C34.5942 151.71 34.342 151.899 34.1523 152.144C35.2429 150.318 36.4426 148.305 36.6716 147.756C37.1133 146.687 36.1263 145.886 34.5395 145.886C32.9526 145.886 25.9291 155.885 25.9291 155.885C25.9291 155.885 30.2915 147.839 30.7114 146.61C31.7693 143.538 28.4266 143.319 27.216 144.794C25.7109 146.632 19.6308 155.885 19.6308 155.885C19.6308 155.885 18.4747 157.761 19.2709 159.544C20.067 161.327 22.3791 160.641 22.3791 160.641C22.4134 161.162 22.5823 161.664 22.8693 162.099C23.1562 162.534 23.5512 162.886 24.015 163.12C25.7927 164.118 28.1376 162.961 28.1376 162.961L37.2278 165.013L40.4997 164.683C42.7327 164.459 44.8272 163.49 46.4512 161.932C48.0752 160.374 49.1356 158.316 49.4645 156.083V156.083L40.4342 152.753Z" fill="#FFBE9D"/>
<path d="M34.3211 152.002C34.4248 152.068 33.2305 153.977 31.6491 156.269C30.8639 157.416 30.1386 158.464 29.5988 159.177C29.333 159.591 29.0261 159.977 28.6827 160.329C28.8912 159.882 29.1432 159.458 29.4352 159.061C29.9314 158.299 30.6294 157.251 31.4147 156.105C32.1999 154.958 32.9197 153.911 33.4432 153.187L34.0758 152.314C34.1481 152.203 34.2303 152.098 34.3211 152.002V152.002Z" fill="#EB996E"/>
<path d="M33.7759 162.183C33.9978 161.661 34.268 161.161 34.583 160.691C35.1283 159.791 35.8808 158.568 36.7206 157.207C37.1405 156.533 37.544 155.885 37.8712 155.288C38.0143 155.032 38.1057 154.751 38.1404 154.46C38.175 154.169 38.1521 153.875 38.0729 153.593C37.9126 153.061 37.6494 152.567 37.2986 152.139C37.2986 152.139 37.4458 152.216 37.6476 152.435C37.932 152.75 38.1426 153.125 38.2638 153.532C38.3652 153.838 38.4034 154.162 38.3762 154.484C38.3491 154.805 38.257 155.118 38.1057 155.403C37.7785 156.023 37.3804 156.675 36.966 157.356C36.1208 158.716 35.3301 159.923 34.752 160.795C34.4597 161.28 34.1335 161.744 33.7759 162.183V162.183Z" fill="#EB996E"/>
<path d="M38.5472 163.093C38.6385 162.598 38.8021 162.119 39.0325 161.672L39.6814 160.18C39.9517 159.587 40.1742 158.972 40.3467 158.343C40.4292 158.042 40.4461 157.727 40.3962 157.42C40.3463 157.112 40.2308 156.819 40.0577 156.56C39.8819 156.354 39.6593 156.194 39.4088 156.094C39.1982 155.986 38.9684 155.92 38.7326 155.902C38.3883 155.953 38.0569 156.07 37.7565 156.247C37.6427 156.32 37.5172 156.372 37.3857 156.401C37.3857 156.401 37.4893 156.297 37.702 156.149C37.8338 156.059 37.9703 155.977 38.1109 155.902C38.3021 155.792 38.5137 155.723 38.7326 155.699C38.9997 155.705 39.263 155.765 39.5069 155.874C39.7967 155.98 40.0554 156.157 40.2595 156.39C40.4662 156.677 40.6059 157.007 40.6682 157.355C40.7305 157.704 40.7138 158.062 40.6194 158.403C40.4456 159.053 40.21 159.685 39.9159 160.29C39.6596 160.839 39.4142 161.338 39.2125 161.755C39.0144 162.212 38.7923 162.659 38.5472 163.093Z" fill="#EB996E"/>
<path d="M40.2209 154.459C40.3547 154.471 40.4847 154.51 40.6027 154.574C40.9401 154.717 41.2588 154.901 41.5515 155.123C42.5419 155.867 43.2345 156.943 43.5036 158.157C43.7727 159.371 43.6006 160.641 43.0184 161.738C42.8515 162.068 42.6445 162.376 42.4022 162.654C42.2277 162.846 42.1132 162.934 42.1023 162.923C42.0914 162.912 42.4622 162.473 42.8384 161.65C43.3451 160.583 43.4812 159.375 43.2252 158.221C42.9692 157.066 42.3357 156.032 41.4261 155.282C41.0398 154.985 40.6375 154.711 40.2209 154.459V154.459Z" fill="#EB996E"/>
<path d="M24.243 149.21C23.6379 150.355 22.9508 151.455 22.1872 152.501C21.5056 153.619 20.7419 154.684 19.9024 155.688C20.5044 154.542 21.1897 153.442 21.9528 152.397C22.6373 151.279 23.4028 150.214 24.243 149.21V149.21Z" fill="#EB996E"/>
<path d="M83.0817 143.33L77.4105 142.041L71.9575 136.879C71.2937 136.253 70.4334 135.881 69.5254 135.826L59.6172 135.278C58.6256 135.216 57.6486 135.542 56.8906 136.188L49.8016 142.222L80.726 157.333L84.9685 157.712L83.0817 143.33Z" fill="#FFBE9D"/>
<path d="M66.2813 140.669C66.2813 140.713 65.5506 140.582 64.3728 140.428C63.1949 140.274 61.5154 140.137 59.8849 140.9C59.1259 141.268 58.4091 141.719 57.7473 142.244C57.1202 142.715 56.5585 143.154 56.0623 143.489C55.6728 143.761 55.2626 144.001 54.8354 144.208C54.6833 144.292 54.5198 144.352 54.35 144.389C54.35 144.345 54.9989 144.043 55.9478 143.324C56.4222 142.973 56.9675 142.518 57.5837 142.03C58.2552 141.483 58.9871 141.015 59.7649 140.637C60.5625 140.283 61.4235 140.096 62.2951 140.088C62.9985 140.077 63.7014 140.132 64.3946 140.253C64.989 140.346 65.4852 140.456 65.7797 140.538C65.9531 140.552 66.1228 140.597 66.2813 140.669Z" fill="#EB996E"/>
<path d="M68.3154 146.22C68.3154 146.264 67.9118 146.083 67.2248 146.017C66.3599 145.938 65.4885 146.06 64.6782 146.374C63.8622 146.695 63.0803 147.097 62.3443 147.575C62.0443 147.794 61.7205 147.978 61.3791 148.124C61.6282 147.847 61.9145 147.607 62.2298 147.411C62.952 146.874 63.7425 146.437 64.58 146.111C65.4301 145.781 66.3514 145.68 67.252 145.82C67.6372 145.849 68.0062 145.988 68.3154 146.22Z" fill="#EB996E"/>
<path d="M81.0696 147.142C80.9987 147.186 80.2026 145.99 79.1501 144.575C78.0977 143.16 77.1925 142.046 77.2525 141.991C78.0577 142.703 78.7704 143.514 79.3737 144.405C80.0534 145.24 80.6234 146.16 81.0696 147.142V147.142Z" fill="#EB996E"/>
<path d="M65.4634 135.842L78.0054 124.077C78.1335 123.957 78.234 123.811 78.3001 123.648C78.3661 123.486 78.396 123.311 78.3877 123.135C78.3794 122.959 78.333 122.788 78.252 122.632C78.1709 122.477 78.057 122.341 77.9182 122.234C77.6959 122.062 77.4211 121.975 77.1412 121.986C76.8613 121.997 76.5941 122.106 76.3859 122.294L61.6626 135.579" fill="#FF725E"/>
<path d="M65.4634 135.842L78.0054 124.077C78.1335 123.957 78.234 123.811 78.3001 123.648C78.3661 123.486 78.396 123.311 78.3877 123.135C78.3794 122.959 78.333 122.788 78.252 122.632C78.1709 122.477 78.057 122.341 77.9182 122.234C77.6959 122.062 77.4211 121.975 77.1412 121.986C76.8613 121.997 76.5941 122.106 76.3859 122.294L61.6626 135.579" fill="#5F646F"/>
<path d="M105.069 16.5626C105.134 14.1711 102.942 12.3281 100.706 11.4505C98.4706 10.5728 96.0386 10.2437 94.0646 8.91085C92.3196 7.72606 91.1472 5.88305 89.6694 4.38012C87.846 2.52135 85.5637 1.18407 83.0569 0.505522C80.55 -0.173024 77.9088 -0.168398 75.4042 0.518922C72.8997 1.20624 70.6221 2.55151 68.8052 4.41665C66.9882 6.28179 65.6974 8.59965 65.0651 11.1323C64.2199 14.5331 64.7979 18.5537 67.4645 20.8191C70.5618 23.441 75.1478 22.8596 79.1122 22.0423C83.0766 21.225 87.5699 20.3967 90.88 22.7608C92.8758 24.176 94.0209 26.4743 95.2424 28.6025C96.4639 30.7307 97.969 32.8974 100.303 33.6982C102.637 34.499 105.756 33.1168 105.838 30.6649" fill="#2D2F34"/>
<path d="M104.911 17.8739C104.649 19.876 106.089 21.6697 107.523 23.0848C108.957 24.5 110.577 25.9974 110.833 28.0215C111.128 30.3636 109.426 32.6674 109.923 34.9766C110.233 36.4411 111.368 37.5656 112.055 38.8985C112.965 40.8164 113.115 43.0111 112.475 45.0364C111.886 47.0549 110.942 51.5582 109.546 53.127C105.691 57.4602 99.5562 61.2011 93.9232 62.5011C88.2902 63.801 82.4336 63.812 76.6643 63.4555C71.9419 63.1648 66.5052 63.3842 62.5681 56.8459C60.5286 53.4561 59.5198 48.9582 58.4401 45.1516C57.5022 41.8605 56.6951 38.3664 57.6658 35.0973C58.2111 33.1994 59.3726 31.5045 59.9288 29.6121C60.6268 27.2316 60.3705 24.6755 60.6486 22.2237C60.9523 19.5413 61.8884 16.9706 63.3791 14.7256C64.8698 12.4805 66.8719 10.626 69.2188 9.31634C71.5658 8.00665 74.1898 7.27965 76.8724 7.19583C79.5551 7.11201 82.2188 7.67379 84.6421 8.83443" fill="#2D2F34"/>
<path d="M62.911 26.0853C63.3527 19.2673 67.8624 10.9079 74.6188 11.6429L95.7004 17.0513C96.6897 17.1607 97.6026 17.6384 98.2595 18.3905C98.9165 19.1427 99.2699 20.1148 99.2503 21.1158L96.8782 72.2812L97.0255 72.3086C97.0255 72.3086 92.2213 86.74 78.2778 82.3354C75.5131 81.4578 74.248 78.4191 73.7026 75.287H73.5609C73.5609 74.9141 73.5609 74.5685 73.5609 74.19C73.2894 71.8572 73.262 69.5021 73.4791 67.1635V67.1635C73.4409 63.0332 73.4463 61.3438 73.4409 61.3822C73.4354 61.4206 64.7814 59.9122 63.0146 48.5415C62.1149 42.9302 62.4202 33.6603 62.911 26.0853Z" fill="#FFBE9D"/>
<path d="M66.3085 32.9359C66.3026 33.3158 66.4448 33.6831 66.7047 33.9589C66.9646 34.2347 67.3215 34.3971 67.6991 34.4114C67.8835 34.4264 68.069 34.4041 68.2448 34.346C68.4206 34.2879 68.5831 34.195 68.7227 34.0729C68.8624 33.9508 68.9764 33.8019 69.0582 33.6349C69.1399 33.4679 69.1876 33.2862 69.1987 33.1004C69.2032 32.7199 69.0598 32.3527 68.799 32.077C68.5382 31.8014 68.1807 31.6391 67.8027 31.6248C67.6185 31.6099 67.4333 31.6322 67.2578 31.6904C67.0823 31.7486 66.9202 31.8415 66.781 31.9636C66.6418 32.0858 66.5282 32.2348 66.4471 32.4017C66.366 32.5687 66.3188 32.7503 66.3085 32.9359V32.9359Z" fill="#2D2F34"/>
<path d="M64.8964 30.9119C65.0763 31.1039 66.1778 30.2866 67.7374 30.2921C69.297 30.2975 70.4639 31.0874 70.6111 30.8955C70.6929 30.8132 70.5075 30.4676 70.0113 30.1056C69.3394 29.6308 68.5366 29.3795 67.7156 29.387C66.9039 29.3801 66.1112 29.6338 65.4526 30.111C64.9727 30.484 64.8037 30.8241 64.8964 30.9119Z" fill="#2D2F34"/>
<path d="M81.6369 32.9359C81.6324 33.3164 81.7758 33.6836 82.0366 33.9593C82.2973 34.2349 82.6549 34.3972 83.0329 34.4114C83.217 34.4264 83.4023 34.4041 83.5778 34.3459C83.7532 34.2877 83.9153 34.1948 84.0546 34.0726C84.1938 33.9505 84.3073 33.8015 84.3885 33.6346C84.4696 33.4676 84.5167 33.286 84.527 33.1004C84.533 32.7204 84.3908 32.3532 84.1309 32.0774C83.871 31.8016 83.514 31.6391 83.1365 31.6249C82.9519 31.6092 82.766 31.6309 82.5899 31.6887C82.4139 31.7465 82.2511 31.8393 82.1113 31.9616C81.9714 32.0838 81.8574 32.233 81.7759 32.4004C81.6945 32.5677 81.6472 32.7498 81.6369 32.9359Z" fill="#2D2F34"/>
<path d="M80.2298 31.2355C80.4098 31.4275 81.5113 30.6157 83.0709 30.6211C84.6305 30.6266 85.7702 31.4165 85.9392 31.2245C86.021 31.1368 85.8411 30.7967 85.3394 30.4291C84.6656 29.9583 83.8641 29.7074 83.0436 29.7106C82.2332 29.7065 81.4425 29.962 80.786 30.4401C80.3062 30.8076 80.1426 31.1752 80.2298 31.2355Z" fill="#2D2F34"/>
<path d="M74.5426 42.8585C74.5426 42.7707 73.5829 42.6007 72.0124 42.3922C71.6143 42.3538 71.238 42.2716 71.1671 41.9973C71.1355 41.5836 71.2307 41.1701 71.4398 40.8125L72.6231 37.7628C74.259 33.424 75.4587 29.8532 75.2842 29.7929C75.1097 29.7325 73.6483 33.1882 72.0124 37.5324C71.6125 38.6002 71.2344 39.6222 70.8781 40.5986C70.6252 41.0798 70.5499 41.6356 70.6655 42.1674C70.7233 42.3086 70.8122 42.4348 70.9255 42.5365C71.0389 42.6382 71.1737 42.7126 71.3198 42.7543C71.5403 42.8152 71.7674 42.8483 71.996 42.853C73.5556 42.9408 74.5372 42.9517 74.5426 42.8585Z" fill="#2D2F34"/>
<path d="M73.425 61.4258C78.7466 61.519 83.9892 60.1232 88.5682 57.394C88.5682 57.394 84.751 65.2546 73.4359 64.1685L73.425 61.4258Z" fill="#EB996E"/>
<path d="M75.1974 46.6432C75.4943 46.268 75.8815 45.9752 76.3224 45.7928C76.7634 45.6104 77.2433 45.5444 77.7167 45.601C78.0614 45.6318 78.3962 45.7328 78.7009 45.8978C79.0056 46.0628 79.2737 46.2884 79.489 46.561C79.6938 46.8235 79.8144 47.1424 79.8349 47.4755C79.8553 47.8086 79.7746 48.1401 79.6035 48.426C79.3541 48.7094 79.0254 48.9103 78.6604 49.0023C78.2955 49.0944 77.9114 49.0732 77.5586 48.9416C76.8229 48.677 76.1465 48.2688 75.5682 47.7403C75.3919 47.618 75.2417 47.4613 75.1265 47.2795C75.0713 47.1918 75.0419 47.09 75.0419 46.9861C75.0419 46.8822 75.0713 46.7804 75.1265 46.6926" fill="#F59999"/>
<path d="M79.129 43.9555C78.8782 43.9555 78.8727 45.645 77.4168 46.8463C75.9608 48.0476 74.145 47.8611 74.145 48.1024C74.145 48.2066 74.5485 48.4315 75.3064 48.4535C76.2981 48.4706 77.2639 48.1344 78.033 47.5045C78.7704 46.8997 79.2455 46.0304 79.3581 45.08C79.4344 44.3669 79.249 43.9445 79.129 43.9555Z" fill="#2D2F34"/>
<path d="M79.5268 28.4874C79.6795 28.9153 81.2391 28.7178 83.0659 28.9427C84.8926 29.1676 86.3759 29.6723 86.6212 29.2938C86.7303 29.1128 86.474 28.7069 85.8742 28.2955C85.086 27.7752 84.1841 27.4552 83.2458 27.3629C82.3104 27.2457 81.3607 27.3548 80.4757 27.6811C79.8049 27.9554 79.4668 28.2845 79.5268 28.4874Z" fill="#2D2F34"/>
<path d="M65.4795 26.3701C65.7576 26.7267 66.8318 26.3701 68.1242 26.3701C69.4166 26.3701 70.5072 26.6115 70.7635 26.2439C70.8725 26.0629 70.698 25.6954 70.2182 25.3663C69.5774 24.9594 68.8307 24.7537 68.0732 24.7751C67.3158 24.7966 66.5818 25.0444 65.9648 25.487C65.5122 25.8325 65.3486 26.2001 65.4795 26.3701Z" fill="#2D2F34"/>
<path d="M103.591 54.4544C102.03 54.7709 100.416 54.7091 98.8835 54.2741C97.3507 53.8391 95.943 53.0433 94.7766 51.9526C93.6102 50.8619 92.7187 49.5075 92.1757 48.0016C91.6328 46.4956 91.454 44.8813 91.6542 43.2921C92.0032 40.5001 93.5028 37.6588 92.5376 35.015C91.267 31.521 86.3974 30.4459 85.1051 26.9573C84.3525 24.9333 85.0287 22.5692 84.178 20.5781C83.3764 18.7077 81.4242 17.6326 79.5211 16.9415C77.618 16.2503 75.584 15.7731 73.9863 14.528C72.3885 13.2829 71.396 10.9243 72.4267 9.1745C80.8664 10.1909 89.1555 12.2165 97.1182 15.2082C98.9668 15.8993 100.903 16.733 101.993 18.3841C103.149 20.1283 103.084 22.3827 102.997 24.478L101.573 55.0961" fill="#2D2F34"/>
<path d="M102.882 58.3595C102.882 58.3595 102.953 58.3266 103.067 58.2443L103.569 57.8604C104.005 57.5148 104.66 57.0047 105.439 56.2971C106.416 55.4524 107.305 54.5115 108.095 53.4887C109.176 52.1282 109.903 50.5183 110.211 48.8044C110.428 47.7617 110.409 46.6835 110.157 45.6488C109.905 44.6142 109.426 43.6495 108.755 42.8256C107.935 42.006 107.055 41.2505 106.121 40.5657C105.181 39.8488 104.467 38.8734 104.065 37.7573C103.231 35.4426 103.602 32.7604 103.28 30.0178C102.961 27.1566 101.85 24.4429 100.074 22.185C99.1582 21.0478 98.0181 20.1139 96.7255 19.4424C95.4564 18.862 94.1317 18.4135 92.772 18.1041C91.506 17.7838 90.322 17.1967 89.2984 16.3817C88.3361 15.5709 87.4885 14.6316 86.7791 13.5898C85.3613 11.5603 84.3088 9.39915 82.9619 7.59454C82.3237 6.71097 81.576 5.91285 80.7371 5.21947C79.9494 4.58348 79.0558 4.09318 78.0978 3.7714C77.2792 3.45725 76.3992 3.3393 75.5274 3.42689C74.6556 3.51449 73.8161 3.80523 73.0755 4.27604C72.5547 4.68253 72.1263 5.19619 71.8187 5.78267C71.5112 6.36916 71.3318 7.01495 71.2924 7.67682C71.2247 8.51537 71.4675 9.34949 71.974 10.019C72.1043 10.1888 72.2586 10.3385 72.4321 10.4633C72.4879 10.5121 72.5503 10.5527 72.6175 10.5839C72.5714 10.5265 72.5203 10.4732 72.4648 10.4249C72.3098 10.2871 72.1725 10.1305 72.0558 9.95864C71.61 9.29367 71.4165 8.48973 71.5105 7.69328C71.5622 7.06716 71.7449 6.4591 72.0466 5.90895C72.3482 5.3588 72.7621 4.87897 73.2609 4.50092C73.9676 4.07079 74.7637 3.81127 75.5869 3.74275C76.41 3.67422 77.2378 3.79856 78.0051 4.10599C78.9193 4.42273 79.7704 4.90002 80.519 5.51567C81.3225 6.20096 82.0403 6.98192 82.6566 7.84138C83.9653 9.61308 84.9959 11.7742 86.4355 13.875C87.1629 14.9586 88.0365 15.9351 89.0312 16.7767C90.0874 17.6179 91.3082 18.2254 92.6139 18.5593C93.9438 18.8647 95.2392 19.3058 96.4801 19.8758C97.7145 20.5222 98.8025 21.4186 99.6756 22.5086C101.398 24.6894 102.478 27.3115 102.795 30.0781C103.127 32.7275 102.746 35.4536 103.635 37.9164C104.063 39.1046 104.82 40.1454 105.816 40.9168C106.735 41.5829 107.605 42.3162 108.417 43.1108C109.057 43.8867 109.516 44.7967 109.762 45.7742C110.007 46.7517 110.032 47.7721 109.835 48.7605C109.556 50.4244 108.874 51.9937 107.85 53.3296C107.081 54.3517 106.222 55.3009 105.281 56.1655C104.512 56.8895 103.891 57.4216 103.476 57.811C103.267 57.9815 103.069 58.1646 102.882 58.3595V58.3595Z" fill="#5F646F"/>
<path d="M104.949 59.7745C107.272 57.5147 111.236 59.4783 113.188 62.0673C115.14 64.6563 116.52 68.0022 119.481 69.3077C122.442 70.6132 126.287 69.4887 128.751 71.5621C132.176 74.4254 130.251 81.0569 133.959 83.5471C135.426 84.5345 137.367 84.5016 138.938 85.3134C142.64 87.2332 142.597 92.4879 142.024 96.6402C141.244 102.482 140.361 108.516 137.165 113.452C133.97 118.389 127.748 121.839 122.219 119.941C116.902 118.115 114.17 112.344 112.005 107.128C109.017 99.8947 106.025 92.6781 103.029 85.4779C101.301 81.3037 99.5501 77.0637 98.9885 72.5769C98.4268 68.09 99.1793 63.2521 102.02 59.7307" fill="#2D2F34"/>
<path d="M106.438 54.7941C108.123 54.5912 109.415 56.6701 108.968 58.3212C108.521 59.9723 106.95 61.0639 105.341 61.6125C104.454 61.9669 103.489 62.0785 102.544 61.9361C102.072 61.862 101.627 61.6644 101.255 61.3631C100.883 61.0617 100.596 60.6673 100.423 60.2192C100.246 59.8327 100.228 59.3915 100.373 58.9919C100.518 58.5922 100.814 58.2664 101.197 58.0854C102.288 57.3887 102.958 56.8402 103.836 56.352C105.178 55.6114 105.096 55.5127 106.438 54.7667" fill="#F28080"/>
<path d="M67.5951 73.0871L74.1497 68.0901L98.8576 66.4994L99.85 69.8344L91.8122 120.276L98.1541 180.459H63.6852L67.5951 73.0871Z" fill="#F28080"/>
<g opacity="0.3">
<path opacity="0.3" d="M94.0488 159.11C93.2581 158.26 91.9657 157.097 90.8151 157.07C82.5591 156.889 74.1342 156.061 65.8782 155.874L65.2184 180.47C67.1924 176.97 69.0628 173.339 69.5808 169.335C69.8099 167.59 70.1261 165.495 71.6803 164.76C72.5746 164.338 73.627 164.502 74.5922 164.7C77.575 165.292 80.5361 166.066 83.568 166.258C86.5999 166.45 89.779 166 92.3256 164.332C93.2297 163.796 93.9577 163.004 94.4196 162.056C94.6394 161.58 94.7213 161.051 94.6557 160.529C94.5901 160.008 94.3797 159.517 94.0488 159.11Z" fill="black"/>
</g>
<path d="M72.9392 74.1073L72.1703 66.8943C72.1387 66.5921 72.1672 66.2866 72.254 65.9956C72.3408 65.7045 72.4843 65.4337 72.6761 65.1989C72.8679 64.9642 73.1042 64.7701 73.3712 64.628C73.6382 64.4859 73.9307 64.3986 74.2316 64.3712L96.9709 62.3033C97.1163 62.2921 97.2626 62.3104 97.4009 62.3571C97.5392 62.4038 97.6668 62.4779 97.7761 62.5751C97.8854 62.6723 97.9742 62.7905 98.0373 62.9228C98.1004 63.0551 98.1364 63.1989 98.1433 63.3454L98.3996 71.9297L91.8123 83.1687L85.045 85.3354H76.7672L72.0067 80.2232L72.9392 74.1073Z" fill="#F28080"/>
<path d="M95.0403 69.1762C94.7352 69.1632 94.4311 69.1321 94.1297 69.0829C93.3067 69.0054 92.4791 68.9908 91.654 69.0391C90.4276 69.1278 89.2098 69.3111 88.0113 69.5876C86.6535 69.8728 85.1757 70.2733 83.6107 70.6572C82.1418 71.0431 80.6448 71.3109 79.1337 71.4581C77.8904 71.576 76.6364 71.4908 75.4202 71.2058C74.6023 71.0129 73.8213 70.6868 73.1081 70.2404C72.9181 70.1166 72.736 69.981 72.5628 69.8344C72.4428 69.7357 72.3828 69.6754 72.3937 69.6699C72.4046 69.6644 72.6609 69.8509 73.1735 70.1416C73.8962 70.5422 74.6734 70.8342 75.4802 71.0083C76.6773 71.2608 77.9063 71.3237 79.1228 71.1948C80.6188 71.0342 82.1008 70.761 83.5562 70.3775C85.1157 69.999 86.599 69.6041 87.9677 69.3298C89.181 69.0681 90.4142 68.9103 91.654 68.858C92.4906 68.822 93.3286 68.8661 94.1569 68.9897C94.4514 69.0409 94.675 69.0848 94.8277 69.1213C94.964 69.1433 95.0458 69.1652 95.0403 69.1762Z" fill="#2D2F34"/>
<g opacity="0.3">
<path opacity="0.3" d="M73.4794 70.3116C72.8687 71.9956 72.8523 74.08 74.0902 75.3691C75.0935 76.4223 76.7131 76.6856 78.1363 76.4004C79.5459 76.0354 80.883 75.4306 82.0898 74.6121C85.2199 72.7416 88.4045 70.7998 91.9599 70.0044C92.1933 69.9764 92.4143 69.8833 92.5979 69.7356C92.6403 69.6961 92.6742 69.6481 92.6974 69.5948C92.7205 69.5415 92.7325 69.4839 92.7325 69.4257C92.7325 69.3675 92.7205 69.3099 92.6974 69.2566C92.6742 69.2032 92.6403 69.1553 92.5979 69.1158C92.5085 69.063 92.407 69.0346 92.3034 69.0335C89.157 68.7153 86.0324 69.582 82.9514 70.3061C79.8704 71.0302 76.5713 71.4964 73.5994 70.4158" fill="black"/>
</g>
<path d="M77.8252 64.1407C77.505 64.3166 77.2361 64.5738 77.0454 64.8867C76.6855 65.4682 76.7073 66.4556 76.7346 67.5197C76.7946 69.6535 77.1436 71.3595 77.0618 71.3595C76.9028 71.012 76.798 70.642 76.7509 70.2624C76.5785 69.3577 76.4782 68.4405 76.451 67.5197C76.4313 67.0094 76.4422 66.4983 76.4837 65.9893C76.5143 65.559 76.6491 65.1428 76.8764 64.777C77.032 64.5294 77.2529 64.3301 77.5144 64.2011C77.7052 64.1243 77.8198 64.1243 77.8252 64.1407Z" fill="#2D2F34"/>
<path d="M83.8344 70.4106C83.8409 69.2456 83.7863 68.0811 83.6708 66.9219C83.4091 65.0075 82.7765 63.5538 82.8638 63.5209C83.0705 63.8006 83.2274 64.1143 83.3273 64.448C83.6251 65.2321 83.8354 66.0471 83.9544 66.878C84.0723 67.7101 84.0961 68.5529 84.0253 69.3903C84.0197 69.7389 83.9551 70.0839 83.8344 70.4106V70.4106Z" fill="#F28080"/>
<path d="M91.1579 62.912C91.3602 63.1613 91.5071 63.4512 91.5887 63.7623C91.8348 64.4981 91.9367 65.2749 91.8886 66.0497C91.8368 66.8264 91.633 67.5851 91.2888 68.2822C91.1666 68.5809 90.9804 68.8487 90.7435 69.0667C91.2373 68.1271 91.529 67.0936 91.5994 66.0332C91.6699 64.9728 91.5176 63.9093 91.1525 62.912H91.1579Z" fill="#2D2F34"/>
<path d="M59.2687 76.3343C59.2687 76.3343 51.5144 81.5561 49.4532 90.9906C47.85 98.4065 43.4548 137.581 43.4548 137.581L35.7714 152.622L40.7883 164.623C45.0847 164.928 49.351 163.703 52.8395 161.162L56.215 158.694L62.4042 149.462L59.2687 76.3343Z" fill="#FAFAFC"/>
<path d="M72.4104 69.412L59.2685 76.3342L56.1657 86.586L53.4009 116.31L58.6032 151.157L49.4747 180.354L65.2178 180.47L65.594 163.356L67.1645 107.956L68.7077 72.6647L72.4104 69.412Z" fill="#FAFAFC"/>
<path d="M66.0473 115.597C65.9545 115.465 65.8725 115.325 65.8019 115.18L65.1475 113.968C64.8748 113.419 64.6022 112.75 64.2695 111.971C64.1114 111.576 63.9751 111.143 63.8169 110.688C63.6588 110.232 63.4843 109.75 63.348 109.234C62.1101 105.126 61.2922 99.1962 61.4667 92.6579C61.4667 92.1533 61.5048 91.6542 61.5375 91.155V91.0672L61.6193 91.0343L63.9206 90.058L63.8878 90.2993L61.5866 88.4399L61.5375 88.4015V88.3466C61.515 86.0999 61.869 83.8654 62.5845 81.737C63.1626 79.8008 63.7951 78.1333 64.3513 76.762C64.9076 75.3907 65.3929 74.3211 65.7364 73.5971C65.9109 73.2296 66.0473 72.9498 66.14 72.7688C66.1847 72.6712 66.2376 72.5776 66.2981 72.4891C66.2718 72.592 66.2334 72.6915 66.1836 72.7853L65.8182 73.6355C65.502 74.3705 65.0439 75.4511 64.5095 76.8278C63.9751 78.2046 63.3643 79.8721 62.8081 81.8028C62.12 83.9065 61.7828 86.1102 61.8102 88.3247L61.7557 88.2314L64.0623 90.0799L64.2423 90.228L64.0296 90.3213L61.7284 91.2976L61.8157 91.177C61.7829 91.6651 61.7611 92.1643 61.7448 92.6689C61.5757 99.1798 62.3555 105.082 63.5388 109.174C63.6642 109.695 63.8333 110.172 63.9805 110.627C64.1278 111.083 64.2586 111.521 64.4168 111.916C64.7385 112.695 64.9621 113.381 65.2457 113.918L65.8455 115.153C65.9226 115.296 65.99 115.444 66.0473 115.597Z" fill="#2D2F34"/>
<path d="M55.7296 136.408C55.6801 136.267 55.6382 136.124 55.6042 135.98C55.5279 135.669 55.4243 135.252 55.2934 134.729C55.1571 134.181 55.0044 133.522 54.8517 132.749C54.699 131.976 54.4972 131.103 54.3446 130.1C54.1919 129.096 53.9846 128.037 53.8374 126.874C53.6902 125.711 53.543 124.461 53.4066 123.15C53.1667 120.517 53.0085 117.615 53.0085 114.566C53.0085 111.516 53.1885 108.614 53.4339 105.987C53.5811 104.676 53.7065 103.425 53.8865 102.262C54.0664 101.1 54.2246 100.019 54.3991 99.0372C54.5736 98.0554 54.759 97.1723 54.9444 96.3934C55.1298 95.6145 55.2607 94.9508 55.397 94.4133C55.5333 93.8757 55.6315 93.4753 55.7133 93.1681C55.7447 93.0208 55.7866 92.876 55.8387 92.7348C55.8282 92.8847 55.8045 93.0334 55.7678 93.1791L55.5061 94.4352C55.3861 94.9837 55.2389 95.6474 55.1025 96.4263C54.9662 97.2052 54.7699 98.0718 54.6227 99.0756C54.4754 100.079 54.2846 101.133 54.1482 102.295C54.0119 103.458 53.8592 104.703 53.7229 106.009C53.4939 108.636 53.3303 111.527 53.3194 114.571C53.3085 117.615 53.4721 120.501 53.6902 123.128C53.8265 124.433 53.9356 125.684 54.0992 126.841C54.2628 127.999 54.41 129.085 54.5681 130.067C54.7263 131.049 54.8953 131.937 55.0316 132.716C55.168 133.495 55.3097 134.164 55.4297 134.707C55.5497 135.25 55.626 135.651 55.686 135.963C55.7162 136.109 55.7309 136.258 55.7296 136.408V136.408Z" fill="#2D2F34"/>
<path d="M59.2849 163.164C59.1313 163.635 58.9168 164.083 58.6469 164.497C58.0579 165.529 57.3849 166.511 56.6347 167.432C55.886 168.354 55.0615 169.21 54.17 169.993C53.8177 170.339 53.4239 170.64 52.9976 170.887C53.3184 170.516 53.6646 170.168 54.0336 169.845C54.8749 169.025 55.6704 168.159 56.4166 167.251C57.1562 166.337 57.8443 165.383 58.4779 164.393C58.7182 163.965 58.9879 163.554 59.2849 163.164V163.164Z" fill="#2D2F34"/>
<path d="M119.694 75.4841C122.455 76.5632 124.91 78.308 126.844 80.5651C128.778 82.8223 130.132 85.5227 130.785 88.429C135.088 107.495 142.444 132.859 142.564 141.048C142.706 151.47 138.201 158.6 132.263 159.917C127.584 160.959 85.1921 158.622 85.1921 158.622L83.2072 142.715L117.562 137.631L112.861 111.258L117.512 74.6613L119.694 75.4841Z" fill="#FAFAFC"/>
<path d="M117.512 74.6338L108.019 70.7339L98.0123 64.8318L97.9523 66.5597C99.181 68.6698 99.6091 71.1559 99.1574 73.5587L90.8142 117.253L92.701 149.182L96.5781 180.448H126.684L112.861 147.729L117.741 103.634L117.512 74.6338Z" fill="#FAFAFC"/>
<path d="M126.308 160.186L126.101 160.213L125.496 160.273C124.95 160.328 124.171 160.323 123.145 160.35C121.106 160.35 118.139 160.306 114.448 160.186C107.07 159.939 96.8016 159.44 85.2029 158.765H85.0884V158.644C84.8539 156.752 84.6031 154.755 84.3522 152.731C83.9215 149.303 83.507 145.957 83.1089 142.759V142.622H83.2398L109.458 138.783L117.158 137.686L119.225 137.406L119.77 137.335H119.955L119.775 137.373L119.23 137.466L117.169 137.795L109.485 138.975L83.3107 142.907L83.4252 142.748C83.8287 145.952 84.2486 149.292 84.674 152.72C84.9303 154.75 85.1757 156.746 85.4101 158.639L85.2793 158.518C96.8725 159.198 107.146 159.73 114.519 160.032C118.205 160.175 121.166 160.257 123.205 160.284C124.225 160.284 125.021 160.284 125.55 160.251L126.155 160.219L126.308 160.186Z" fill="#2D2F34"/>
<path d="M112.583 108.559C112.622 108.654 112.648 108.754 112.66 108.856C112.703 109.08 112.758 109.355 112.823 109.7C112.965 110.474 113.156 111.532 113.369 112.821C113.832 115.498 114.459 119.124 115.157 123.133C115.855 127.143 116.422 130.78 116.87 133.462C117.071 134.756 117.235 135.815 117.355 136.594C117.404 136.94 117.442 137.225 117.475 137.45C117.487 137.55 117.487 137.651 117.475 137.751C117.434 137.659 117.406 137.561 117.393 137.461C117.349 137.236 117.295 136.956 117.224 136.616C117.082 135.837 116.886 134.784 116.646 133.495C116.172 130.857 115.555 127.214 114.857 123.183C114.159 119.151 113.57 115.504 113.151 112.854C112.954 111.56 112.791 110.496 112.671 109.717C112.627 109.373 112.589 109.088 112.556 108.861C112.554 108.76 112.563 108.659 112.583 108.559V108.559Z" fill="#2D2F34"/>
<path d="M102.381 67.9255C102.381 67.9255 102.381 67.9639 102.419 68.0352L102.506 68.3533C102.577 68.6385 102.697 69.0499 102.812 69.5984C103.144 71.1496 103.385 72.7193 103.532 74.2992C103.754 76.6838 103.814 79.0809 103.711 81.4738C103.619 84.2164 103.335 87.2167 102.926 90.4146V90.5133H102.828L99.7034 91.0947L99.8071 90.9028C99.987 91.3854 100.167 91.901 100.309 92.4331C101.168 95.9286 101.045 99.5954 99.9543 103.025C99.0905 105.807 97.8657 108.463 96.3116 110.924C95.0138 113.041 93.8468 114.664 93.0398 115.789L92.0964 117.072C91.9983 117.21 91.911 117.314 91.8456 117.401C91.8208 117.443 91.7895 117.48 91.7529 117.511C91.7529 117.511 91.7529 117.467 91.8238 117.385L92.0528 117.039C92.2709 116.721 92.5981 116.283 92.9471 115.723C93.7269 114.582 94.872 112.942 96.1371 110.819C97.6552 108.361 98.8537 105.718 99.7034 102.954C100.603 99.8435 101.029 96.1465 100.036 92.5318C99.8979 92.0228 99.7341 91.5212 99.5453 91.0289L99.4853 90.8698L99.6544 90.8369L102.757 90.261L102.643 90.3817C103.057 87.1948 103.357 84.1889 103.461 81.4683C103.575 79.0914 103.537 76.7095 103.346 74.3376C103.218 72.7602 103.005 71.191 102.708 69.6368C102.61 69.0883 102.501 68.6715 102.452 68.3862C102.425 68.2546 102.403 68.1504 102.386 68.0626C102.376 68.0177 102.374 67.9711 102.381 67.9255V67.9255Z" fill="#2D2F34"/>
<path d="M102.381 112.734V105.773C102.381 105.773 102.468 104.056 101.028 104.418C99.5886 104.78 99.8558 107.495 99.8558 107.495C99.8558 107.495 99.5886 118.087 100.216 117.999C100.843 117.912 101.088 117.094 101.088 117.094V113.019L102.381 112.734Z" fill="#2D2F34"/>
<path d="M108.368 113.167C107.136 113.311 105.894 113.359 104.655 113.31C103.415 113.359 102.173 113.311 100.941 113.167C102.174 113.026 103.415 112.978 104.655 113.024C105.894 112.978 107.136 113.026 108.368 113.167Z" fill="#2D2F34"/>
<path d="M122.061 79.6199C121.811 79.7376 121.552 79.8348 121.286 79.9106C120.581 80.1639 119.892 80.4625 119.225 80.8047C117.026 81.9433 115.118 83.5784 113.652 85.5822C113.237 86.1468 112.872 86.747 112.561 87.3759C112.292 87.9706 112.073 88.5871 111.907 89.2189C111.625 90.2967 111.443 91.3984 111.362 92.51C111.285 93.4589 111.269 94.2378 111.264 94.7698C111.28 95.0475 111.28 95.3259 111.264 95.6036C111.195 95.342 111.159 95.0731 111.154 94.8027C111.112 94.0446 111.112 93.2846 111.154 92.5264C111.209 91.3972 111.375 90.2763 111.651 89.1805C111.815 88.5297 112.036 87.8947 112.311 87.2826C112.628 86.6362 113.002 86.0195 113.428 85.4396C114.916 83.3977 116.878 81.7536 119.143 80.6511C119.824 80.3209 120.529 80.0457 121.254 79.8283C121.515 79.7313 121.785 79.6615 122.061 79.6199Z" fill="#2D2F34"/>
<path d="M-0.120789 137.581L49.4749 156.055L91.2835 162.484L41.5734 138.108L-0.120789 137.581Z" fill="#2D2F34"/>
<path d="M21.1027 157.504C20.7043 154.838 19.8049 152.273 18.4525 149.945C18.1603 149.507 17.9326 149.028 17.7763 148.524C17.6983 148.273 17.6828 148.005 17.7313 147.746C17.7798 147.487 17.8907 147.244 18.0544 147.038C18.6924 146.341 19.8539 146.648 20.6391 147.175C22.2286 148.339 23.3996 149.991 23.9764 151.881C24.5447 153.758 24.9104 155.691 25.067 157.647" fill="#FFBE9D"/>
<path d="M40.4342 152.753H37.9694C37.3646 152.15 36.6121 151.719 35.7882 151.503C35.4833 151.451 35.1702 151.484 34.8822 151.597C34.5942 151.71 34.3419 151.899 34.1522 152.144C35.2428 150.318 36.4425 148.305 36.6716 147.756C37.1133 146.687 36.1262 145.886 34.5394 145.886C32.9526 145.886 25.929 155.885 25.929 155.885C25.929 155.885 30.2915 147.839 30.7113 146.61C31.7692 143.538 28.4265 143.319 27.2159 144.794C25.7109 146.632 19.6307 155.885 19.6307 155.885C19.6307 155.885 18.4747 157.761 19.2708 159.544C20.0669 161.327 22.379 160.641 22.379 160.641C22.4133 161.162 22.5823 161.664 22.8692 162.099C23.1562 162.534 23.5511 162.886 24.015 163.12C25.7927 164.118 28.1375 162.961 28.1375 162.961L37.2278 165.013L40.4996 164.683C42.7326 164.459 44.8272 163.49 46.4511 161.932C48.0751 160.374 49.1356 158.316 49.4645 156.083V156.083L40.4342 152.753Z" fill="#FFBE9D"/>
<path d="M34.3211 152.002C34.4247 152.068 33.2305 153.977 31.6491 156.269C30.8638 157.416 30.1386 158.464 29.5987 159.177C29.333 159.591 29.026 159.977 28.6826 160.329C28.8911 159.882 29.1432 159.458 29.4351 159.061C29.9314 158.299 30.6294 157.251 31.4146 156.105C32.1998 154.958 32.9196 153.911 33.4431 153.187L34.0757 152.314C34.1481 152.203 34.2302 152.098 34.3211 152.002V152.002Z" fill="#EB996E"/>
<path d="M33.7759 162.183C33.9977 161.661 34.2679 161.161 34.5829 160.691C35.1282 159.791 35.8808 158.568 36.7205 157.207C37.1404 156.533 37.5439 155.885 37.8711 155.288C38.0142 155.032 38.1057 154.751 38.1403 154.46C38.1749 154.169 38.152 153.875 38.0729 153.593C37.9125 153.061 37.6494 152.567 37.2986 152.139C37.2986 152.139 37.4458 152.216 37.6476 152.435C37.932 152.75 38.1426 153.125 38.2638 153.532C38.3651 153.839 38.4034 154.162 38.3762 154.484C38.349 154.806 38.2569 155.118 38.1056 155.403C37.7784 156.023 37.3804 156.675 36.9659 157.356C36.1207 158.716 35.33 159.923 34.752 160.795C34.4597 161.28 34.1335 161.744 33.7759 162.183V162.183Z" fill="#EB996E"/>
<path d="M38.5471 163.093C38.6385 162.598 38.802 162.119 39.0325 161.672L39.6814 160.18C39.9516 159.587 40.1741 158.972 40.3466 158.343C40.4292 158.042 40.4461 157.727 40.3962 157.42C40.3463 157.112 40.2308 156.819 40.0576 156.56C39.8818 156.354 39.6592 156.194 39.4087 156.094C39.1981 155.986 38.9683 155.92 38.7325 155.902C38.3882 155.953 38.0569 156.071 37.7564 156.247C37.6426 156.32 37.5171 156.372 37.3856 156.401C37.3856 156.401 37.4892 156.297 37.7019 156.149C37.8338 156.059 37.9703 155.977 38.1109 155.902C38.302 155.792 38.5137 155.723 38.7325 155.699C38.9997 155.705 39.2629 155.765 39.5069 155.874C39.7966 155.98 40.0554 156.157 40.2594 156.39C40.4661 156.677 40.6058 157.007 40.6682 157.355C40.7305 157.704 40.7138 158.062 40.6193 158.403C40.4455 159.053 40.2099 159.685 39.9159 160.29C39.6596 160.839 39.4142 161.338 39.2124 161.755C39.0143 162.212 38.7922 162.659 38.5471 163.093Z" fill="#EB996E"/>
<path d="M40.2209 154.459C40.3547 154.471 40.4847 154.51 40.6026 154.574C40.9401 154.717 41.2588 154.901 41.5514 155.123C42.5419 155.867 43.2344 156.943 43.5035 158.157C43.7726 159.371 43.6005 160.641 43.0183 161.738C42.8514 162.068 42.6444 162.376 42.4021 162.654C42.2276 162.846 42.1131 162.934 42.1022 162.923C42.0913 162.912 42.4621 162.473 42.8384 161.65C43.345 160.583 43.4812 159.375 43.2251 158.221C42.9691 157.066 42.3356 156.032 41.426 155.282C41.0398 154.985 40.6374 154.711 40.2209 154.459V154.459Z" fill="#EB996E"/>
<path d="M24.243 149.21C23.6378 150.355 22.9508 151.455 22.1872 152.501C21.5055 153.619 20.7418 154.684 19.9023 155.688C20.5043 154.542 21.1896 153.442 21.9527 152.397C22.6372 151.279 23.4027 150.214 24.243 149.21V149.21Z" fill="#EB996E"/>
<path d="M83.0816 143.33L77.4104 142.041L71.9574 136.879C71.2936 136.254 70.4333 135.881 69.5253 135.826L59.6171 135.278C58.6255 135.216 57.6486 135.542 56.8906 136.188L49.8016 142.222L80.7259 157.333L84.9684 157.712L83.0816 143.33Z" fill="#FFBE9D"/>
<path d="M66.2813 140.669C66.2813 140.713 65.5506 140.582 64.3727 140.428C63.1948 140.275 61.5153 140.137 59.8848 140.9C59.1258 141.268 58.409 141.719 57.7472 142.244C57.1201 142.716 56.5585 143.154 56.0622 143.489C55.6728 143.761 55.2625 144.001 54.8353 144.208C54.6832 144.292 54.5197 144.353 54.35 144.389C54.35 144.345 54.9989 144.043 55.9477 143.324C56.4221 142.973 56.9674 142.518 57.5836 142.03C58.2551 141.483 58.987 141.015 59.7649 140.637C60.5625 140.283 61.4234 140.096 62.2951 140.088C62.9985 140.077 63.7013 140.132 64.3945 140.253C64.9889 140.346 65.4851 140.456 65.7796 140.538C65.9531 140.553 66.1228 140.597 66.2813 140.669Z" fill="#EB996E"/>
<path d="M68.3153 146.22C68.3153 146.264 67.9118 146.083 67.2247 146.017C66.3599 145.938 65.4884 146.06 64.6781 146.374C63.8621 146.695 63.0803 147.097 62.3442 147.575C62.0443 147.794 61.7204 147.979 61.379 148.124C61.6281 147.847 61.9145 147.607 62.2297 147.411C62.952 146.874 63.7424 146.437 64.58 146.111C65.4301 145.781 66.3514 145.68 67.252 145.82C67.6371 145.849 68.0061 145.988 68.3153 146.22Z" fill="#EB996E"/>
<path d="M81.0696 147.142C80.9987 147.186 80.2025 145.99 79.1501 144.575C78.0977 143.16 77.1925 142.046 77.2525 141.991C78.0577 142.703 78.7704 143.514 79.3737 144.405C80.0534 145.24 80.6233 146.16 81.0696 147.142V147.142Z" fill="#EB996E"/>
<path d="M65.4633 135.843L78.0054 124.077C78.1334 123.957 78.234 123.811 78.3 123.648C78.366 123.486 78.3959 123.311 78.3876 123.135C78.3793 122.959 78.333 122.788 78.2519 122.632C78.1708 122.477 78.0569 122.341 77.9182 122.234C77.6959 122.062 77.421 121.975 77.1412 121.986C76.8613 121.997 76.5941 122.106 76.3858 122.294L61.6625 135.579" fill="#FF725E"/>
<path d="M65.4633 135.843L78.0054 124.077C78.1334 123.957 78.234 123.811 78.3 123.648C78.366 123.486 78.3959 123.311 78.3876 123.135C78.3793 122.959 78.333 122.788 78.2519 122.632C78.1708 122.477 78.0569 122.341 77.9182 122.234C77.6959 122.062 77.421 121.975 77.1412 121.986C76.8613 121.997 76.5941 122.106 76.3858 122.294L61.6625 135.579" fill="#5F646F"/>
</g>
</svg>
