<svg width="146" height="175" viewBox="0 0 146 175" xmlns="http://www.w3.org/2000/svg">
<ellipse cx="73.1249" cy="99.3932" rx="72.5992" ry="75.6068" fill="#E6EAF7"/>
<mask id="mask0" style="mask-type:alpha" maskUnits="userSpaceOnUse" x="1" y="0" width="144" height="175">
<path d="M145 0H1V103L2.50467 117C10.1233 150.265 38.8504 175 73.1249 175C107.399 175 136.127 150.265 143.745 117H145V0Z" fill="#fff"/>
</mask>
<g mask="url(#mask0)">
<path d="M71.4927 71.9497L60.3058 76.4036C58.8929 76.9788 57.635 77.9024 56.64 79.0951C54.1962 82.0156 49.8705 88.3211 47.28 98.6607C43.7669 112.659 40.0217 123.189 40.0217 123.189L27.4968 113.55L10.1393 131.41C10.1393 131.41 39.368 157.911 48.6303 157.79L42.5206 200.815H60.4647L75.1279 71.956L75.965 65.7905C75.6656 65.905 72.3236 70.7535 71.4927 71.9497Z" fill="#FAFAFC"/>
<path d="M21.6621 92.0751C21.6621 92.0751 23.269 98.8261 24.3321 100.671C24.957 101.706 25.3728 102.862 25.554 104.069L26.2199 114.886L17.7275 123.622L1.25578 110.807C1.25578 110.807 -4.64618 104.801 -3.05155 102.536C-3.05155 102.536 -2.26952 101.428 -0.894836 102.536C-0.894836 102.536 -7.04728 97.5662 -5.62373 95.6192C-4.20017 93.6722 -2.0801 96.4973 0.149933 98.4634C2.37997 100.429 3.1009 101.009 3.1009 101.009L-3.29594 94.563C-3.29594 94.563 -5.12884 92.9023 -3.50366 91.547C-1.87849 90.1918 0.467628 93.5831 1.59181 94.2894C2.71599 94.9957 9.01507 101.25 9.01507 101.25C9.01507 101.25 4.64666 95.4538 4.33507 95.142C4.02348 94.8302 0.0582744 91.7379 1.54904 89.9563C3.0398 88.1748 6.79726 92.5015 8.04363 93.4941C9.29001 94.4867 13.9823 100.315 15.027 100.907C16.0718 101.498 17.9658 103.21 19.1266 102.669C20.2875 102.128 17.9047 97.579 18.2835 95.9692C18.6623 94.3594 19.3038 91.2353 21.6621 92.0751Z" fill="#FFBF9D"/>
<path d="M17.6298 112.958C17.3783 112.447 17.1737 111.912 17.0188 111.361C16.7722 110.006 16.93 108.605 17.471 107.346C18.0392 105.825 18.8151 104.572 19.2428 103.528C19.42 103.128 19.5196 102.696 19.536 102.256C19.536 101.938 19.4627 101.772 19.4383 101.778C19.3734 102.347 19.2121 102.898 18.9617 103.407C18.2475 104.612 17.6127 105.867 17.0616 107.161C16.4868 108.503 16.3662 110.008 16.7195 111.431C16.8421 112.035 17.1642 112.575 17.6298 112.958V112.958Z" fill="#FF9A6C"/>
<path d="M6.15587 109.439C6.20474 109.439 5.95425 108.803 5.14777 108.256C4.34129 107.709 3.09492 107.263 2.19069 106.245C1.78502 105.719 1.43092 105.152 1.13371 104.553C0.871999 104.041 0.54525 103.568 0.162269 103.146C-0.534234 102.421 -1.20019 102.37 -1.19408 102.421C-0.776379 102.68 -0.395861 102.999 -0.0637857 103.369C0.265218 103.798 0.547965 104.263 0.779353 104.756C1.07077 105.397 1.43374 105.999 1.86076 106.551C2.33657 107.073 2.90783 107.49 3.54092 107.779C4.0969 108.065 4.5918 108.294 4.98282 108.529C5.39415 108.803 5.78616 109.107 6.15587 109.439V109.439Z" fill="#FF9A6C"/>
<path d="M91.9236 4.00138C91.4841 3.11333 90.789 2.39057 89.9356 1.93422C89.0822 1.47787 88.1132 1.31076 87.1641 1.45627C86.0535 0.552795 84.6846 0.062027 83.2753 0.062027C81.866 0.062027 80.4971 0.552795 79.3865 1.45627C78.558 0.924186 77.6109 0.625552 76.6381 0.589664C75.6653 0.553777 74.7003 0.781873 73.8377 1.25157C72.9752 1.72126 72.2446 2.41641 71.7178 3.26883C71.1911 4.12125 70.8861 5.10164 70.8329 6.11383C69.8619 5.93781 68.8623 6.08469 67.976 6.53363C67.0897 6.98256 66.3616 7.71077 65.895 8.61492C65.4285 9.51908 65.2471 10.5533 65.3768 11.5708C65.5064 12.5883 65.9404 13.5375 66.6172 14.2837C65.5467 14.6246 64.6363 15.368 64.063 16.3694C63.4897 17.3707 63.2946 18.5583 63.5156 19.7012C63.7366 20.844 64.3579 21.8604 65.2587 22.5526C66.1595 23.2448 67.2753 23.5633 68.389 23.4461L90.9949 9.44793C91.6698 8.75045 92.1213 7.8528 92.2875 6.87783C92.4538 5.90287 92.3266 4.89822 91.9236 4.00138V4.00138Z" fill="#2D2F34"/>
<path d="M67.7657 24.1524C68.2227 19.1664 70.4651 14.5422 74.047 11.1998C77.629 7.85735 82.2878 6.04164 87.0967 6.11386H88.0865C98.7601 6.92194 104.063 16.8161 102.988 27.9064L100.923 64.9379L100.807 66.7322L76.081 71.5552L76.252 62.1064C76.252 62.1064 66 60.2931 66.0244 49.5972C66.0366 44.4052 66.8737 33.7666 67.7657 24.1524Z" fill="#FFBF9D"/>
<path d="M76.1667 62.0682C80.9328 62.1499 85.6214 60.805 89.6752 58.1932C89.6752 58.1932 86.4065 65.8286 76.1727 64.7278L76.1667 62.0682Z" fill="#FF9A6C"/>
<path d="M71.7982 34.0528C71.7897 34.451 71.9303 34.8371 72.1903 35.1292C72.4503 35.4214 72.8093 35.5967 73.1912 35.6181C73.3776 35.6355 73.5655 35.6141 73.7439 35.5552C73.9223 35.4962 74.0877 35.4009 74.2304 35.2748C74.3731 35.1487 74.4903 34.9943 74.5752 34.8205C74.66 34.6468 74.7108 34.4572 74.7247 34.2628C74.7332 33.8646 74.5926 33.4785 74.3326 33.1864C74.0726 32.8943 73.7136 32.7189 73.3317 32.6975C73.1451 32.6792 72.9569 32.7 72.7781 32.7586C72.5993 32.8172 72.4337 32.9124 72.2908 33.0387C72.1479 33.165 72.0307 33.3198 71.9461 33.4939C71.8615 33.6681 71.8112 33.8581 71.7982 34.0528Z" fill="#2D2F34"/>
<path d="M69.9288 29.4144C70.1059 29.618 71.2301 28.7781 72.8064 28.7781C74.3827 28.7781 75.5313 29.6434 75.7024 29.4462C75.788 29.3571 75.6108 28.9944 75.0915 28.6063C74.4154 28.1032 73.6067 27.8299 72.7759 27.8237C71.955 27.8079 71.1506 28.0641 70.4786 28.5554C69.9838 28.969 69.8127 29.3253 69.9288 29.4144Z" fill="#2D2F34"/>
<path d="M86.6568 34.0528C86.6483 34.451 86.7889 34.8371 87.0489 35.1292C87.3089 35.4214 87.6679 35.5967 88.0498 35.6181C88.2364 35.6364 88.4246 35.6156 88.6034 35.557C88.7821 35.4984 88.9478 35.4032 89.0907 35.2769C89.2336 35.1506 89.3508 34.9958 89.4354 34.8217C89.52 34.6475 89.5703 34.4575 89.5833 34.2628C89.5918 33.8646 89.4512 33.4785 89.1912 33.1864C88.9312 32.8943 88.5723 32.7189 88.1903 32.6975C88.0037 32.6792 87.8155 32.7 87.6368 32.7586C87.458 32.8172 87.2923 32.9124 87.1494 33.0387C87.0065 33.165 86.8893 33.3198 86.8047 33.4939C86.7201 33.6681 86.6698 33.8581 86.6568 34.0528V34.0528Z" fill="#2D2F34"/>
<path d="M85.4106 29.9552C85.5877 30.1588 86.7119 29.3189 88.2882 29.3189C89.8645 29.3189 91.0131 30.1843 91.1842 29.987C91.2697 29.898 91.0925 29.5353 90.5732 29.1472C89.8972 28.6441 89.0885 28.3707 88.2577 28.3645C87.4372 28.3518 86.6336 28.6077 85.9604 29.0963C85.49 29.5098 85.325 29.8661 85.4106 29.9552Z" fill="#2D2F34"/>
<path d="M79.5147 42.0572C79.5147 41.9681 78.5433 41.7773 76.9548 41.5418C76.5515 41.4909 76.1727 41.4019 76.1116 41.1155C76.0834 40.6811 76.1836 40.2481 76.3988 39.8748L77.6207 36.6934C79.3376 32.1694 80.59 28.4218 80.4128 28.3772C80.2356 28.3327 78.7021 31.9149 76.9853 36.4452C76.578 37.5608 76.1829 38.6213 75.8 39.6266C75.5376 40.1277 75.4553 40.7097 75.5678 41.2682C75.622 41.4198 75.7093 41.5562 75.8227 41.6666C75.9362 41.777 76.0727 41.8585 76.2216 41.9045C76.4422 41.9718 76.67 42.0103 76.8998 42.019C78.5127 42.1272 79.5025 42.1527 79.5147 42.0572Z" fill="#2D2F34"/>
<path d="M84.1396 43.2661C83.883 43.2661 83.8586 45.0286 82.3739 46.2757C80.8892 47.5229 79.0686 47.2938 79.0502 47.5483C79.0502 47.6628 79.4535 47.9046 80.2233 47.9364C81.2275 47.9654 82.2096 47.6253 82.9971 46.9756C83.7562 46.3471 84.2477 45.433 84.3657 44.4305C84.4451 43.7052 84.2557 43.2598 84.1396 43.2661Z" fill="#2D2F34"/>
<path d="M85.0928 23.5097C85.2394 23.9615 86.8218 23.7706 88.6669 24.0314C90.512 24.2923 92.0089 24.8395 92.2594 24.445C92.3694 24.2541 92.1128 23.8087 91.5202 23.3888C90.7213 22.8463 89.8143 22.5003 88.868 22.3768C87.9217 22.2533 86.9608 22.3557 86.0581 22.6762C85.3738 22.9561 85.0256 23.2997 85.0928 23.5097Z" fill="#2D2F34"/>
<path d="M70.5397 24.6678C70.8085 25.0496 71.9022 24.6678 73.2096 24.6678C74.5171 24.6678 75.6535 24.9541 75.8796 24.566C75.9956 24.3751 75.8246 23.9997 75.348 23.6434C74.7088 23.2007 73.9523 22.9782 73.1852 23.0071C72.4162 23.0102 71.667 23.2614 71.0407 23.7261C70.5886 24.1015 70.4297 24.4706 70.5397 24.6678Z" fill="#2D2F34"/>
<path d="M68.8229 19.2594C68.8229 19.2594 71.6272 12.604 74.7493 11.0896C78.5311 9.25713 80.083 13.5711 83.6755 12.5849C87.268 11.5986 90.8788 9.83615 94.4957 12.7694C98.4548 15.9508 96.5486 18.165 96.7258 22.918C97.4589 42.1655 100.758 47.6566 101.846 38.6151C101.962 37.6225 104.619 36.8717 105.072 32.6849C105.683 27.2511 105.951 20.6529 104.839 16.778C103.899 13.5138 102.151 11.236 98.9925 8.70993C94.0009 4.72046 87.0786 4.53594 82.368 4.95588C77.6574 5.37583 68.5113 10.8669 68.8229 19.2594Z" fill="#2D2F34"/>
<path d="M101.192 38.3096C101.21 37.9168 101.304 37.532 101.47 37.1784C101.635 36.8249 101.867 36.51 102.153 36.2529C102.439 35.9959 102.772 35.8019 103.132 35.683C103.492 35.564 103.871 35.5224 104.247 35.5608C106.159 35.7772 108.279 36.9416 108.096 41.0647C107.766 48.3691 100.764 46.5239 100.764 46.314C100.764 46.104 101.033 41.3701 101.192 38.3096Z" fill="#FFBF9D"/>
<path d="M102.432 43.6352C102.432 43.6352 102.548 43.7307 102.75 43.8388C103.034 43.9816 103.36 44.0044 103.66 43.9024C104.418 43.6543 105.096 42.4581 105.188 41.1474C105.235 40.5221 105.147 39.8938 104.931 39.3085C104.874 39.0767 104.765 38.8626 104.611 38.6843C104.458 38.5059 104.266 38.3687 104.051 38.2841C103.913 38.2369 103.764 38.2424 103.63 38.2995C103.495 38.3567 103.385 38.4617 103.318 38.5959C103.214 38.7995 103.251 38.9458 103.214 38.9586C103.177 38.9713 103.067 38.8249 103.135 38.5259C103.183 38.3482 103.289 38.1932 103.434 38.0868C103.633 37.9421 103.879 37.885 104.118 37.9278C104.402 38.0045 104.663 38.1542 104.876 38.3632C105.09 38.5723 105.249 38.8339 105.34 39.124C105.61 39.7729 105.723 40.4806 105.67 41.1855C105.56 42.6553 104.772 43.9979 103.746 44.2524C103.555 44.3004 103.357 44.303 103.165 44.26C102.974 44.217 102.794 44.1296 102.64 44.0042C102.432 43.8134 102.408 43.6479 102.432 43.6352Z" fill="#FF9A6C"/>
<path d="M101.253 24.146C100.38 24.8578 99.3516 25.3323 98.2592 25.5267C97.1594 25.6285 95.9131 24.9477 95.742 23.8151C95.6687 23.2997 95.797 22.7143 95.4793 22.3135C95.1616 21.9126 94.3918 21.9763 93.8052 22.0335C92.7774 22.1015 91.7584 21.799 90.9195 21.1767C90.0806 20.5545 89.4729 19.6505 89.1985 18.6167C88.667 19.4184 87.4572 19.3675 86.6752 18.8267C85.9539 18.2032 85.3204 17.4771 84.7934 16.6697C84.1825 15.9252 83.3271 15.2508 82.3984 15.3971C81.9022 15.563 81.39 15.6718 80.871 15.7216C79.9484 15.6198 79.5147 14.4936 79.3864 13.5392C79.2581 12.5848 79.1664 11.4649 78.3966 10.9368C77.6268 10.4087 76.7348 10.7077 75.8855 10.8286C75.0363 10.9495 73.9426 10.7205 73.7349 9.85513C73.7023 9.62234 73.7152 9.38507 73.773 9.15762C73.8307 8.93017 73.9321 8.71724 74.071 8.53167C74.6543 7.6578 75.503 7.01378 76.4805 6.7033C77.458 6.39282 78.5074 6.43396 79.4597 6.82008C79.8237 5.60941 80.524 4.5382 81.4721 3.74167C82.4203 2.94515 83.5737 2.45902 84.7869 2.34466C86.0001 2.23029 87.2187 2.49282 88.2888 3.09909C89.3588 3.70537 90.2324 4.62822 90.7992 5.75113C91.5554 5.05727 92.4615 4.56411 93.4402 4.31372C94.4189 4.06332 95.4412 4.06311 96.42 4.31311C97.3988 4.5631 98.3051 5.05588 99.0615 5.74944C99.8179 6.443 100.402 7.31677 100.764 8.29625C101.627 8.07382 102.534 8.12058 103.372 8.43069C104.209 8.7408 104.941 9.30058 105.476 10.0404C106.01 10.7802 106.324 11.6674 106.378 12.5915C106.432 13.5157 106.224 14.436 105.78 15.2381C107.033 16.008 108.096 17.3314 108.102 18.8458C108.108 20.3601 106.666 21.8426 105.273 21.4227C105.56 22.0244 105.613 22.7178 105.422 23.3592C105.231 24.0006 104.81 24.5409 104.247 24.868C103.684 25.1952 103.021 25.2843 102.397 25.1167C101.772 24.9491 101.234 24.5377 100.892 23.9678" fill="#2D2F34"/>
<path d="M105.786 21.3782C105.813 21.6322 105.785 21.8892 105.706 22.131C105.627 22.3729 105.498 22.5937 105.328 22.778C104.973 23.2352 104.468 23.5391 103.91 23.6306C103.554 23.684 103.191 23.6546 102.846 23.5446C102.502 23.4346 102.185 23.2467 101.919 22.9944L102.218 22.9498C101.835 23.6265 101.353 24.2362 100.788 24.7569C100.409 25.1053 99.9725 25.3792 99.4993 25.5649C98.8861 25.7669 98.228 25.7672 97.6147 25.5656C97.0014 25.3641 96.4626 24.9706 96.0717 24.4387C95.7942 23.9704 95.6093 23.4491 95.528 22.9053C95.4729 22.7136 95.4562 22.5122 95.4791 22.3136C95.4791 22.3136 95.5647 22.5108 95.6807 22.8671C95.8112 23.3647 96.0175 23.8373 96.2917 24.2669C96.9393 25.3295 99.1021 25.8958 100.507 24.4324C101.041 23.9457 101.501 23.3771 101.87 22.7462L101.992 22.5299L102.163 22.7017C102.387 22.9206 102.653 23.0868 102.944 23.1889C103.235 23.291 103.544 23.3266 103.849 23.2934C104.341 23.232 104.796 22.9907 105.132 22.6126C105.427 22.2502 105.649 21.8306 105.786 21.3782V21.3782Z" fill="#4E535C"/>
<path d="M92.7544 4.47862C92.7544 4.47862 92.5711 4.52952 92.2534 4.66314C91.8022 4.85432 91.4183 5.18527 91.1537 5.6112L91.0681 5.75118L90.9704 5.6112C90.1067 4.36028 88.9527 3.35768 87.6162 2.69704C86.7531 2.27396 85.8144 2.04419 84.8607 2.02258C83.9263 2.01395 83.0037 2.24092 82.1717 2.6841C81.3397 3.12729 80.6231 3.77354 80.0829 4.5677C79.6495 5.21941 79.3729 5.97012 79.2765 6.7565V6.99192L79.0626 6.92193C78.0846 6.63543 77.0381 6.75399 76.1422 7.2528C75.4387 7.64647 74.8722 8.26093 74.5231 9.00893C74.2275 9.68725 74.0674 10.4211 74.0527 11.1659C73.985 10.9749 73.9599 10.7704 73.9794 10.5678C73.9742 9.99539 74.0888 9.42867 74.3154 8.90712C74.6647 8.10189 75.251 7.43333 75.9894 6.99828C76.9542 6.428 78.0966 6.27928 79.1665 6.5847L78.9343 6.75013C79.0214 5.89437 79.3111 5.0745 79.7775 4.36409C80.3488 3.50606 81.1142 2.80768 82.006 2.33053C82.8979 1.85338 83.8887 1.61214 84.8913 1.62809C85.8987 1.66191 86.8878 1.91781 87.7934 2.3789C89.1696 3.08338 90.3386 4.16021 91.1781 5.49666H90.9948C91.2911 5.05227 91.721 4.72321 92.2168 4.56134C92.3869 4.48889 92.5714 4.4605 92.7544 4.47862V4.47862Z" fill="#4E535C"/>
<path d="M86.5409 44.367C86.4248 44.367 86.3943 43.5971 85.8077 42.9481C85.2212 42.2991 84.5064 42.1846 84.5125 42.0637C84.5186 41.9428 84.708 41.9555 85.0318 42.0128C85.4419 42.1071 85.8148 42.329 86.101 42.649C86.3915 42.9717 86.5775 43.3812 86.6326 43.8198C86.6631 44.1952 86.5898 44.3734 86.5409 44.367Z" fill="#FF9A6C"/>
<path d="M87.1885 42.3563C87.0907 42.4199 86.8402 42.1591 86.4675 41.9809C86.0949 41.8027 85.7527 41.7455 85.7405 41.6309C85.7283 41.5164 86.1559 41.3573 86.6447 41.5991C87.1335 41.8409 87.2924 42.2863 87.1885 42.3563Z" fill="#FF9A6C"/>
<path d="M75.7716 65.9924L79.6052 68.4809L101.659 58.6986L102.662 63.7326L82.7066 106.423L81.5128 187.836L59.9201 186.014L73.2732 76.0603L75.7716 65.9924Z" fill="#F28080"/>
<path d="M96.469 67.9474C96.2308 68.1401 95.9725 68.3044 95.6992 68.4373L93.5608 69.7099C91.7584 70.7534 89.284 72.2168 86.5408 73.8584L83.1072 75.9391L82.9605 76.0281L82.8811 75.8818C81.8119 73.8775 81.1826 72.0641 80.6327 70.7916C80.37 70.1553 80.1501 69.6781 80.0218 69.3409C79.9301 69.1751 79.8544 69.0004 79.7957 68.8191C79.7957 68.8191 79.9301 68.9718 80.1134 69.29C80.2967 69.6081 80.5472 70.0917 80.8404 70.7089C81.4514 71.9305 82.1174 73.7503 83.1866 75.6973L82.9605 75.6337C84.0114 74.9974 85.1722 74.2593 86.3942 73.5276C89.1252 71.886 91.6302 70.4607 93.4692 69.4681C94.3856 68.9718 95.1371 68.59 95.6625 68.3292C95.9194 68.1761 96.1894 68.0483 96.469 67.9474V67.9474Z" fill="#2D2F34"/>
<path d="M54.9413 89.2946C54.9506 89.3579 54.9506 89.4222 54.9413 89.4855C54.9413 89.6318 54.9108 89.8164 54.8925 90.0454C54.8375 90.5608 54.7642 91.2734 54.6664 92.177C54.4587 94.0858 54.1654 96.7327 53.8049 100.029C53.084 106.652 52.1554 115.821 51.2328 125.951C50.3102 136.08 49.5648 145.268 49.0089 151.917C48.7339 155.213 48.5079 157.898 48.349 159.782C48.2635 160.692 48.2024 161.404 48.1535 161.92C48.1535 162.149 48.1107 162.333 48.0924 162.479C48.101 162.541 48.101 162.603 48.0924 162.664C48.0857 162.601 48.0857 162.537 48.0924 162.473C48.0924 162.327 48.0924 162.142 48.0924 161.92C48.0924 161.398 48.1657 160.685 48.2207 159.775C48.349 157.866 48.5384 155.2 48.7706 151.892C49.2594 145.243 49.9925 136.055 50.8907 125.912C51.7888 115.77 52.7785 106.621 53.5667 99.9968C53.9516 96.6882 54.2876 94.0094 54.5381 92.1579C54.6603 91.2607 54.7581 90.5481 54.8314 90.0327C54.8619 89.81 54.8925 89.6255 54.9108 89.4791C54.9151 89.4167 54.9253 89.3549 54.9413 89.2946V89.2946Z" fill="#2D2F34"/>
<path d="M108.53 141.368C108.456 141.457 107.063 139.923 104.864 138.823C102.664 137.722 100.66 137.461 100.679 137.346C101.119 137.295 101.564 137.329 101.992 137.448C103.042 137.65 104.06 138.003 105.017 138.498C105.973 138.989 106.862 139.614 107.656 140.356C108.001 140.638 108.297 140.98 108.53 141.368V141.368Z" fill="#2D2F34"/>
<path d="M124.39 80.8004C124.39 80.8004 119.942 77.1863 115.452 73.4196C110.961 69.6528 103.532 64.0599 103.532 64.0599L102.188 59.3578C102.188 59.3578 98.2346 63.6909 94.7705 71.5298C89.7911 82.7856 84.048 99.2143 82.8872 106.309L78.2255 200.758L125.881 200.726L115.36 136.176L124.39 80.8004Z" fill="#FAFAFC"/>
<path d="M82.539 112.913C82.6066 112.738 82.6863 112.568 82.7773 112.404L83.5104 110.985L86.2659 105.812L95.467 88.7983C95.632 88.4993 95.7909 88.2002 95.9558 87.9075V88.0475C95.5689 86.6816 95.1921 85.3497 94.8255 84.0517L94.7889 83.9308L94.8927 83.8608L97.6421 81.8311L97.581 81.9201C99.2856 76.7281 100.746 72.2614 101.797 69.0546L103.019 65.3514L103.367 64.3716C103.4 64.2567 103.445 64.1457 103.501 64.0407C103.488 64.1607 103.459 64.2784 103.416 64.3907L103.123 65.3896C102.848 66.2931 102.457 67.553 101.974 69.1246L97.8804 82.0283V82.0792L97.8376 82.1174L95.0882 84.1471L95.1554 83.9562L96.2919 87.9457V88.0157L96.2552 88.0857L95.7725 88.9765L86.4797 105.94L83.6265 111.03L82.8383 112.417C82.7543 112.592 82.654 112.758 82.539 112.913V112.913Z" fill="#2D2F34"/>
<path d="M70.448 115.42C70.4004 115.269 70.3656 115.114 70.3442 114.956C70.2892 114.612 70.2159 114.16 70.1181 113.607C69.9348 112.392 69.6721 110.699 69.3544 108.631C68.7435 104.387 67.882 98.6034 66.9472 92.2025C66.8495 91.5662 66.7578 90.8854 66.6661 90.2364V90.1727L66.6967 90.1218L69.0306 85.7188L69.1223 85.9669L66.8006 85.1716L66.6417 85.1143L66.7028 84.9552L70.1181 75.551L71.114 72.885C71.2301 72.6051 71.3157 72.3696 71.3951 72.1851C71.4195 72.1011 71.4566 72.0216 71.5051 71.9497C71.4943 72.0367 71.4738 72.1221 71.4439 72.2042C71.3828 72.3951 71.3034 72.6305 71.2118 72.9232C70.9857 73.5913 70.6802 74.4948 70.2953 75.621C69.4766 77.9689 68.3402 81.233 66.9961 85.0698L66.8983 84.8534L69.2261 85.6361L69.4216 85.6997L69.3239 85.8842C68.5846 87.2904 67.8026 88.7666 67.0022 90.2936V90.1791C67.0939 90.8154 67.1916 91.4898 67.2832 92.1516C68.1814 98.5525 68.994 104.349 69.5927 108.593C69.8615 110.667 70.0876 112.366 70.2465 113.588C70.3116 114.148 70.3666 114.6 70.4114 114.943C70.4386 115.101 70.4509 115.26 70.448 115.42V115.42Z" fill="#2D2F34"/>
<path d="M75.0852 72.3823C75.5651 73.1529 75.9742 73.9689 76.3072 74.8193H76.0261C76.3194 74.2276 76.6982 73.5786 77.1137 72.9105C77.8285 71.7588 78.5067 70.7408 78.9893 69.9963C79.2226 69.5788 79.4926 69.1847 79.7958 68.8192C79.661 69.2894 79.4548 69.7341 79.1849 70.1363C78.7572 70.9189 78.1095 71.956 77.4008 73.1077C76.9792 73.744 76.5943 74.3803 76.2888 74.9784L76.13 75.2711L76.0078 74.972C75.6246 74.1401 75.3158 73.2732 75.0852 72.3823Z" fill="#2D2F34"/>
<path d="M69.1648 186.843C69.154 186.741 69.154 186.639 69.1648 186.537C69.1648 186.321 69.1954 186.022 69.2259 185.646C69.287 184.838 69.3848 183.687 69.5009 182.21C69.7575 179.214 70.1118 174.906 70.5823 169.593C71.5293 158.929 72.8368 144.225 74.2848 127.98C75.7328 111.736 77.1135 97.0382 78.085 86.3741C78.586 81.0676 78.9953 76.7663 79.3069 73.7694C79.4535 72.2933 79.5696 71.148 79.649 70.3462C79.6918 69.9645 79.7224 69.6718 79.7468 69.4555C79.7544 69.3528 79.7687 69.2507 79.7896 69.15C79.799 69.2516 79.799 69.3539 79.7896 69.4555C79.7896 69.6781 79.7529 69.9708 79.7285 70.3526C79.6613 71.1543 79.5696 72.306 79.4475 73.7822C79.1908 76.779 78.8365 81.0866 78.366 86.3996C77.419 97.0636 76.1116 111.768 74.7002 128.019C73.2889 144.269 71.8714 158.954 70.8939 169.619C70.3929 174.931 69.9897 179.233 69.672 182.223L69.3298 185.653C69.2932 186.028 69.2565 186.327 69.232 186.544C69.2161 186.645 69.1937 186.745 69.1648 186.843V186.843Z" fill="#2D2F34"/>
<g opacity="0.2">
<path opacity="0.2" d="M103.019 65.5614L98.1431 83.8672L96.1086 84.6752L97.5016 89.2565L83.5287 111.119L96.1086 88.0157L94.9722 84.0262L97.7215 81.9901L103.019 65.5614Z" fill="black"/>
</g>
<g opacity="0.2">
<path opacity="0.2" d="M80.3457 69.9072L81.6288 79.4323L94.0742 69.3791L83.0218 75.761L80.3457 69.9072Z" fill="black"/>
</g>
<g opacity="0.2">
<path opacity="0.2" d="M48.056 162.664L47.5306 167.003C47.5306 167.003 50.0417 170.363 52.4917 169.657C54.9417 168.95 65.1876 164.299 65.1876 164.299L65.0287 162.664C65.0287 162.664 59.0535 160.119 58.7113 160.202C58.3692 160.284 48.056 162.664 48.056 162.664Z" fill="black"/>
</g>
<g opacity="0.2">
<path opacity="0.2" d="M67.7841 172.316L68.0896 176.299C68.0896 176.299 86.6386 174.085 94.6301 170.923C94.6301 170.923 110.222 164.904 114.652 159.222C108.31 161.996 100.893 164.356 92.9561 166.52L67.7841 172.316Z" fill="black"/>
</g>
<path d="M28.1141 134.21L25.9818 131.232L27.8391 126.899L31.9265 123.717L36.4477 122.744L38.7388 125.938L28.1141 134.21Z" fill="#FAFAFC"/>
<path d="M27.5396 125.308L34.3519 120.218Z" fill="#FAFAFC"/>
<path d="M33.0079 132.492L39.8141 127.401Z" fill="#FAFAFC"/>
<path d="M38.47 139.682L45.2762 134.591Z" fill="#FAFAFC"/>
<path d="M15.583 108.351L22.3953 103.261Z" fill="#FAFAFC"/>
<path d="M89.5696 147.432L63.769 111.927C63.5033 111.554 63.1313 111.279 62.7061 111.14C62.281 111 61.8245 111.005 61.4019 111.152L21.897 125.207C21.573 125.322 21.2806 125.517 21.0451 125.776C20.8095 126.035 20.6379 126.349 20.5449 126.692C20.4519 127.036 20.4403 127.397 20.5112 127.746C20.582 128.095 20.7332 128.421 20.9517 128.695L53.0796 168.961C53.3573 169.309 53.7318 169.559 54.1516 169.677C54.5714 169.795 55.016 169.775 55.4244 169.619L92.3536 155.611C92.6703 155.491 92.955 155.294 93.1841 155.037C93.4132 154.78 93.5802 154.469 93.6711 154.131C93.7621 153.793 93.7744 153.438 93.7071 153.094C93.6398 152.75 93.4948 152.427 93.2841 152.154L89.5696 147.432Z" fill="#5F646F"/>
<path d="M37.1943 124.021C37.2017 124.247 37.2731 124.465 37.3995 124.649C37.526 124.833 37.7018 124.974 37.9049 125.054C38.1081 125.135 38.3294 125.15 38.5412 125.1C38.7529 125.05 38.9456 124.935 39.095 124.771C39.2445 124.607 39.3439 124.4 39.381 124.177C39.418 123.954 39.3909 123.725 39.3031 123.518C39.2154 123.311 39.0708 123.136 38.8876 123.014C38.7045 122.892 38.4909 122.83 38.2737 122.834C38.1277 122.837 37.9838 122.871 37.8502 122.932C37.7167 122.993 37.5962 123.082 37.4957 123.192C37.3953 123.303 37.317 123.433 37.2652 123.575C37.2135 123.717 37.1894 123.869 37.1943 124.021Z" fill="#2D2F34"/>
<path d="M45.1741 121.206C45.183 121.431 45.2557 121.648 45.3828 121.83C45.51 122.012 45.686 122.151 45.8887 122.229C46.0914 122.306 46.3117 122.32 46.5218 122.268C46.7319 122.215 46.9225 122.1 47.0695 121.935C47.2164 121.77 47.3132 121.563 47.3477 121.341C47.3821 121.119 47.3527 120.891 47.263 120.686C47.1734 120.482 47.0275 120.309 46.8439 120.191C46.6603 120.072 46.4471 120.013 46.2311 120.02C46.0868 120.025 45.9448 120.06 45.8133 120.123C45.6819 120.185 45.5636 120.274 45.4654 120.384C45.3671 120.494 45.2908 120.624 45.2408 120.765C45.1908 120.906 45.1681 121.056 45.1741 121.206V121.206Z" fill="#2D2F34"/>
<path d="M62.9757 150.346L61.1062 149.907C61.1062 149.907 60.3425 146.687 59.5055 146.038C58.6684 145.389 50.3409 141.788 48.508 140.833C46.6751 139.879 39.5146 136.786 38.6898 138.6C37.755 140.649 40.6754 142.195 42.2578 142.907C43.8402 143.62 48.3675 145.249 47.4755 146.388C46.5835 147.527 36.2764 147.463 36.2764 147.463L35.1034 146.032C35.1034 146.032 33.2705 147.94 33.5821 149.805C33.749 150.881 34.1185 151.913 34.6696 152.84L35.4089 152.808C35.2136 153.143 35.1103 153.527 35.1103 153.918C35.1103 154.31 35.2136 154.694 35.4089 155.029C36.0286 155.913 36.715 156.745 37.4617 157.516C37.4617 157.516 38.7142 160.03 42.2517 160.895C42.6672 160.997 59.1022 161.881 59.1022 161.881L65.0714 163.275L62.9757 150.346Z" fill="#FFBF9D"/>
<path d="M106.177 89.4092C105.988 89.8291 101.106 137.067 101.106 137.067L62.8231 149.156L66.4889 172.571C66.4889 172.571 118.201 162.931 123.541 152.846C128.081 144.256 129.168 107.721 129.394 96.9746C129.453 94.3542 129.165 91.7379 128.539 89.1992C127.781 86.1705 126.48 82.5183 124.403 80.8194C120.511 77.6253 106.177 89.4092 106.177 89.4092Z" fill="#FAFAFC"/>
<path d="M105.102 99.2715C105.102 99.2715 105.102 99.5069 105.053 99.965C105.004 100.423 104.943 101.11 104.858 101.982C104.681 103.764 104.424 106.353 104.088 109.649C103.404 116.267 102.426 125.715 101.253 137.079V137.181L101.161 137.213L62.8842 149.302L63.0064 149.099C63.0064 149.251 63.0552 149.417 63.0858 149.582C64.3077 157.612 65.5297 165.368 66.6539 172.52L66.4584 172.374C82.0258 169.294 95.3327 165.934 104.583 162.912C105.75 162.562 106.831 162.142 107.864 161.799L109.361 161.277L110.741 160.736C111.627 160.38 112.458 160.1 113.185 159.756L115.208 158.834C115.751 158.611 116.279 158.352 116.79 158.057L117.92 157.421C118.22 157.262 118.452 157.141 118.617 157.046C118.696 157.003 118.778 156.965 118.861 156.931L118.635 157.071L117.951 157.478L116.833 158.115C116.321 158.411 115.795 158.678 115.256 158.916L113.24 159.864C112.489 160.189 111.658 160.501 110.796 160.87L109.416 161.423L107.925 161.958C106.892 162.314 105.811 162.734 104.65 163.097C95.3938 166.176 82.0991 169.587 66.5194 172.692L66.3484 172.724V172.552C65.2303 165.4 64.0206 157.644 62.762 149.614C62.762 149.448 62.7131 149.283 62.6887 149.13V148.978L62.8353 148.927L101.125 136.837L101.021 136.971C102.243 125.613 103.263 116.171 103.978 109.554C104.344 106.258 104.632 103.675 104.833 101.918C104.931 101.047 105.01 100.379 105.065 99.9078C105.12 99.4369 105.102 99.2715 105.102 99.2715Z" fill="#2D2F34"/>
<path d="M121.953 79.7696C121.953 79.8459 120.871 79.7696 119.16 79.9859C118.161 80.1266 117.175 80.3608 116.216 80.6858C115.043 81.0905 113.911 81.6148 112.837 82.2511C111.775 82.9055 110.776 83.6663 109.855 84.5226C109.112 85.2284 108.427 85.999 107.809 86.8259C106.764 88.2575 106.306 89.2819 106.245 89.2438C106.314 88.9896 106.415 88.7458 106.544 88.5184C106.666 88.2372 106.807 87.965 106.966 87.704C107.155 87.3986 107.344 87.0677 107.613 86.6732C108.211 85.8073 108.891 85.0058 109.642 84.2808C110.576 83.3859 111.6 82.5987 112.696 81.9329C113.791 81.2865 114.948 80.7619 116.148 80.3677C117.13 80.0514 118.139 79.8383 119.16 79.7314C119.552 79.6852 119.946 79.6618 120.34 79.6614C120.637 79.6414 120.935 79.6414 121.232 79.6614C121.475 79.6674 121.717 79.7037 121.953 79.7696V79.7696Z" fill="#2D2F34"/>
<path d="M102.023 112.958H84.6651V117.444H102.023V112.958Z" fill="#FAFAFC"/>
<path d="M102.023 117.444C102.016 117.338 102.016 117.231 102.023 117.125V116.235C102.023 115.439 101.992 114.326 101.974 112.958L102.066 113.06C98.1737 113.098 91.8441 113.123 84.7141 113.123C84.7813 113.053 84.5491 113.289 84.8668 112.958V117.412L84.7079 117.253L97.0495 117.323L100.715 117.367H101.711H102.072C101.966 117.376 101.86 117.376 101.754 117.367H100.789L97.1656 117.412L84.7141 117.488H84.5613V117.323C84.5613 116.597 84.5613 115.859 84.5613 115.115V112.843C84.879 112.512 84.6529 112.754 84.7262 112.678C91.8562 112.678 98.1676 112.678 102.078 112.748H102.176V112.843C102.176 114.25 102.133 115.388 102.121 116.184C102.121 116.534 102.121 116.82 102.121 117.049C102.106 117.185 102.073 117.318 102.023 117.444V117.444Z" fill="#2D2F34"/>
</g>
</svg>
