<svg width="152" height="175" viewBox="0 0 152 175" xmlns="http://www.w3.org/2000/svg">
<ellipse cx="75.8621" cy="98.8386" rx="75.8621" ry="76.1614" fill="#E6EAF7"/>
<mask id="mask0" style="mask-type:alpha" maskUnits="userSpaceOnUse" x="0" y="0" width="152" height="175">
<path d="M149 0H3V95H0.0946808C0.0318146 96.2716 0 97.5514 0 98.8386C0 140.901 33.9646 175 75.8621 175C117.76 175 151.724 140.901 151.724 98.8386C151.724 97.5514 151.692 96.2716 151.629 95H149V0Z" fill="#fff"/>
</mask>
<g mask="url(#mask0)">
<path d="M105.01 160.101L107.497 162.6C107.769 162.866 108.132 163.017 108.511 163.022C108.7 163.023 108.888 162.986 109.063 162.913C109.237 162.841 109.396 162.735 109.53 162.6C109.664 162.466 109.77 162.306 109.842 162.13C109.914 161.954 109.951 161.766 109.95 161.576C109.945 161.195 109.795 160.831 109.53 160.558L107.043 158.059C106.91 157.923 106.752 157.815 106.577 157.742C106.403 157.668 106.216 157.63 106.026 157.63C105.837 157.63 105.65 157.668 105.475 157.742C105.301 157.815 105.142 157.923 105.01 158.059C104.876 158.192 104.769 158.351 104.696 158.526C104.623 158.7 104.585 158.888 104.584 159.077C104.591 159.461 104.743 159.827 105.01 160.101V160.101Z" fill="#F28080"/>
<path d="M114.038 122.417C112.186 122.617 110.317 122.617 108.465 122.417C110.317 122.216 112.186 122.216 114.038 122.417V122.417Z" fill="#5F646F"/>
<path d="M133.5 57.9578C132.516 54.9558 134.295 44.1914 131.951 44.174C128.957 44.1451 129.815 56.3208 129.809 57.4314C129.804 58.542 128.237 58.5073 128.295 57.5239C128.376 56.1126 128.871 42.2016 125.854 42.4445C124.19 42.5776 124.403 45.6143 124.403 45.6143C124.403 45.6143 125.33 59.5311 123.913 59.6005C122.497 59.6699 121.99 51.5489 121.875 48.6915C121.76 45.9555 120.614 44.8681 119.359 45.7994C118.104 46.7306 118.357 54.9558 118.426 57.7033C118.495 60.4508 118.818 67.976 115.657 64.3146C112.496 60.6532 108.747 59.0047 107.411 59.265C106.076 59.5253 106.03 61.463 107.383 62.0935C108.477 62.6025 110.054 64.0138 111.194 65.1244C112.077 66.0829 112.85 67.1384 113.497 68.271C114.384 69.6964 115.028 71.2602 115.403 72.8984C115.717 74.1868 116.299 75.3935 117.112 76.4386C117.925 77.4836 118.95 78.3432 120.119 78.9602V78.9602L119.969 84.0619L134.565 82.7894L134.847 73.1413C134.997 65.7664 136.281 60.8036 137.053 56.4192C138.291 49.4261 137.392 49.212 136.558 49.2525C134.738 49.3162 134.467 60.8846 133.5 57.9578Z" fill="#B78876"/>
<path d="M133.499 67.4206C132.822 67.5478 132.153 67.7159 131.496 67.9239C129.94 68.5044 128.611 69.5733 127.707 70.9721C127.437 71.399 127.211 71.8525 127.033 72.3256L126.947 72.5454L126.769 72.3951C125.757 71.5478 124.613 70.8736 123.383 70.3995C122.462 70.0409 121.874 69.9194 121.886 69.8674C122.424 69.8901 122.955 70.0015 123.458 70.1971C124.743 70.615 125.939 71.2724 126.982 72.1348L126.717 72.21C126.898 71.7123 127.132 71.2354 127.413 70.787C127.931 69.9881 128.591 69.292 129.36 68.7337C129.988 68.2834 130.681 67.9323 131.415 67.6925C131.908 67.534 132.419 67.4349 132.935 67.3975C133.123 67.3768 133.314 67.3847 133.499 67.4206V67.4206Z" fill="#AA6550"/>
<path d="M131.467 77.7339C130.362 78.2915 129.159 78.6294 127.926 78.7288C126.705 78.9355 125.456 78.9061 124.247 78.642C124.247 78.5379 125.888 78.642 127.88 78.3817C129.872 78.1214 131.438 77.6356 131.467 77.7339Z" fill="#AA6550"/>
<path d="M92.2917 78.1735C92.2917 78.1735 99.8978 82.0779 103.899 87.7001C107.901 93.3224 119.987 110.756 119.987 110.756L118.259 84.299L136.926 81.8696C136.926 81.8696 142.356 108.517 143.628 117.732C144.815 126.356 144.319 134.841 135.936 139.469C126.044 144.929 114.811 137.554 111.074 134.755C106.433 131.284 97.8653 125.61 97.8653 125.61L92.2917 78.1735Z" fill="#FAFAFC"/>
<path d="M82.9116 74.8708L77.5856 68.8957L54.3067 67.1026L51.2896 72.0018L59.4484 123.157L55.7749 174.833H86.1072L82.9116 74.8708Z" fill="#F28080"/>
<g opacity="0.3">
<path opacity="0.3" d="M57.1797 162.542C57.98 161.686 59.2928 160.5 60.4617 160.477C68.845 160.292 77.4069 159.447 85.7961 159.262L86.1185 174.833L82.0362 172.913C81.8059 171.178 81.5122 169.032 79.9058 168.286C78.9961 167.852 77.9309 168.02 76.9463 168.216C73.9177 168.795 70.9121 169.605 67.8317 169.795C64.7512 169.986 61.5268 169.541 58.9416 167.846C58.0218 167.302 57.2826 166.497 56.817 165.532C56.5888 165.051 56.5017 164.514 56.5659 163.984C56.6301 163.455 56.843 162.955 57.1797 162.542V162.542Z" fill="black"/>
</g>
<path d="M77.5857 68.8957L92.4985 78.59L95.6537 88.99L98.6708 121.416L95.3428 154.6L101.089 174.833H86.1073L86.0785 166.851L84.4778 110.663L82.9117 74.8708L77.5857 68.8957Z" fill="#FAFAFC"/>
<path d="M85.6184 118.408C85.71 118.275 85.7927 118.136 85.8659 117.992C86.0272 117.691 86.2517 117.281 86.5281 116.76C86.8045 116.239 87.0693 115.528 87.4206 114.736C87.5818 114.336 87.72 113.897 87.8812 113.434C88.0424 112.971 88.2209 112.485 88.3533 111.959C89.6085 107.794 90.4434 101.785 90.2649 95.1502C90.2649 94.6354 90.2304 94.1264 90.1958 93.6232V93.5364L90.1152 93.5017L87.7776 92.5126L87.8121 92.7555L90.144 90.8757L90.1958 90.8352V90.7773C90.2171 88.4967 89.857 86.2286 89.1306 84.0677C88.5549 82.1068 87.9042 80.4178 87.3399 79.0296C86.7757 77.6414 86.2805 76.554 85.9293 75.8136C85.7566 75.4434 85.6184 75.1658 85.5205 74.9749C85.4749 74.8759 85.421 74.7811 85.3593 74.6915C85.3889 74.7949 85.4274 74.8955 85.4744 74.9922L85.8487 75.8541C86.1711 76.6003 86.6375 77.6993 87.1787 79.0932C87.72 80.4872 88.3303 82.182 88.9061 84.1371C89.6039 86.2718 89.9463 88.5075 89.9195 90.7542L89.9713 90.6559L87.6336 92.5357L87.4493 92.6861L87.6682 92.7787L90.0001 93.7678L89.9137 93.6463C89.9482 94.138 89.9655 94.647 89.9828 95.156C90.1613 101.762 89.3667 107.748 88.1633 111.93C88.0366 112.457 87.8639 112.942 87.7142 113.405C87.5645 113.868 87.4321 114.307 87.2766 114.707C86.9427 115.499 86.7008 116.199 86.4302 116.743C86.1596 117.286 85.9696 117.685 85.8199 117.992C85.7416 118.125 85.6742 118.264 85.6184 118.408V118.408Z" fill="#2D2F34"/>
<path d="M96.0909 139.521C96.1417 139.377 96.184 139.23 96.2176 139.081C96.2982 138.769 96.4019 138.347 96.5343 137.82C96.6667 137.294 96.8279 136.594 96.9834 135.807C97.1389 135.021 97.3404 134.124 97.5016 133.123C97.6628 132.123 97.8643 131.03 98.014 129.85C98.1638 128.67 98.3135 127.403 98.4516 126.073C98.6935 123.406 98.8547 120.462 98.8547 117.367C98.8547 114.273 98.6704 111.334 98.4228 108.691C98.2731 107.361 98.1465 106.094 97.9622 104.914C97.778 103.734 97.6225 102.641 97.444 101.64C97.2655 100.639 97.0755 99.7486 96.9143 98.9619C96.7531 98.1753 96.5976 97.4985 96.4594 96.949C96.3212 96.3995 96.2176 96.0004 96.137 95.6881C96.1092 95.539 96.0648 95.3934 96.0046 95.2543C96.0201 95.4042 96.0451 95.5529 96.0794 95.6997C96.1485 96.0178 96.2349 96.4458 96.35 96.978C96.4652 97.5101 96.6149 98.2042 96.7588 98.9967C96.9028 99.7891 97.0928 100.68 97.2425 101.681C97.3922 102.681 97.5822 103.769 97.7262 104.949C97.8701 106.129 98.0198 107.384 98.158 108.714C98.3883 111.375 98.5553 114.307 98.5668 117.39C98.5783 120.473 98.4113 123.406 98.1868 126.067C98.0543 127.397 97.9449 128.658 97.7722 129.838C97.5995 131.018 97.4613 132.111 97.3001 133.106C97.1389 134.101 96.9661 135.003 96.8279 135.79C96.6898 136.577 96.5458 137.259 96.4249 137.814C96.304 138.37 96.2291 138.769 96.16 139.087C96.1224 139.229 96.0992 139.374 96.0909 139.521V139.521Z" fill="#2D2F34"/>
<path d="M92.4806 166.66C92.6376 167.135 92.8543 167.588 93.1255 168.008C93.726 169.053 94.4096 170.047 95.1695 170.981C95.932 171.916 96.7698 172.787 97.6742 173.584C98.0315 173.935 98.432 174.238 98.866 174.486C98.5377 174.113 98.1858 173.761 97.8123 173.434C96.9595 172.601 96.1522 171.722 95.3941 170.802C94.643 169.879 93.9452 168.913 93.304 167.91C93.0569 167.476 92.7819 167.058 92.4806 166.66Z" fill="#2D2F34"/>
<g opacity="0.3">
<path opacity="0.3" d="M85.0359 139.509C83.4583 138.682 81.5294 139.116 79.8539 139.758C78.1784 140.4 76.5431 141.262 74.764 141.244C72.3457 141.244 68.9198 140.336 67.6588 138.271C66.2715 135.906 65.2411 133.346 64.6014 130.677C62.6783 121.786 62.2407 113.984 60.3176 105.087C59.2697 100.252 57.9396 94.6759 56.1547 90.0485C54.4273 85.5773 52.8151 80.9499 51.4563 76.3515C51.6981 86.7631 51.94 97.2556 53.5406 107.586C54.5771 114.221 56.1662 120.757 57.0356 127.409C57.7784 133.106 57.9857 138.861 58.1872 144.605L63.5823 151.234L78.4547 151.535L86.222 141.47L85.0359 139.509Z" fill="black"/>
</g>
<path d="M31.1316 77.7282C28.324 78.8211 25.8266 80.5899 23.8589 82.8794C21.8911 85.1688 20.5132 87.9087 19.8462 90.8583C15.4818 110.201 8.00817 135.923 7.89302 144.223C7.74331 154.791 12.3438 162.027 18.3492 163.363C23.0994 164.416 66.1391 162.05 66.1391 162.05L68.1774 144.004L33.2908 140.782L38.064 113.984L33.3368 76.8663L31.1316 77.7282Z" fill="#FAFAFC"/>
<path d="M33.3483 76.8663L42.9927 72.9099L54.0074 66.9291L54.111 67.253C52.8673 69.3931 51.5431 73.3438 52.0094 75.7789L60.4619 120.097L58.5446 152.489L55.775 174.845H28.0051L38.0755 151.031L33.118 106.308L33.3483 76.8663Z" fill="#FAFAFC"/>
<path d="M38.3575 111.277C38.3169 111.371 38.2897 111.47 38.2769 111.572C38.2366 111.803 38.179 112.086 38.1099 112.433C37.966 113.22 37.7702 114.29 37.5342 115.597C37.062 118.31 36.4287 121.989 35.7204 126.055C35.0122 130.122 34.4365 133.812 33.9931 136.531C33.7916 137.844 33.6246 138.919 33.4979 139.712L33.3828 140.579C33.3662 140.681 33.3662 140.784 33.3828 140.886C33.4166 140.788 33.4417 140.688 33.4576 140.585C33.5094 140.36 33.5613 140.076 33.6361 139.729C33.7801 138.943 33.9758 137.872 34.2119 136.565C34.6956 133.893 35.3635 130.203 36.0371 126.107C36.7108 122.012 37.3384 118.316 37.7645 115.632C37.966 114.319 38.133 113.243 38.2539 112.451C38.3 112.098 38.3345 111.815 38.3633 111.583C38.3704 111.481 38.3684 111.378 38.3575 111.277Z" fill="#2D2F34"/>
<path d="M48.7223 70.0525C48.7223 70.0525 48.7223 70.0872 48.682 70.1566C48.6417 70.226 48.6302 70.3533 48.5899 70.4805C48.5208 70.7697 48.3941 71.1862 48.2847 71.7415C47.9409 73.3153 47.6947 74.909 47.5477 76.5134C47.3239 78.9321 47.2623 81.3631 47.3635 83.79C47.4556 86.5548 47.7492 89.6147 48.1638 92.8538V92.9579H48.2617L51.417 93.5364L51.3076 93.3397C51.1291 93.8256 50.9391 94.3519 50.7951 94.8899C49.925 98.437 50.0506 102.157 51.1579 105.637C52.0394 108.458 53.284 111.151 54.8601 113.648C56.1729 115.788 57.3648 117.437 58.1824 118.582L59.1382 119.883L59.3916 120.219C59.4491 120.288 59.4837 120.329 59.4894 120.323C59.4671 120.281 59.4421 120.24 59.4146 120.202C59.357 120.103 59.2764 119.993 59.1843 119.849L58.2745 118.513C57.4857 117.356 56.3226 115.69 55.0329 113.538C53.4926 111.045 52.2755 108.365 51.4112 105.562C50.3346 102.127 50.2191 98.4612 51.0773 94.9651C51.2155 94.4387 51.3997 93.9239 51.5724 93.4496L51.6358 93.2819L51.4688 93.2529L48.3135 92.6745L48.4287 92.796C48.0083 89.5626 47.7089 86.5143 47.5938 83.7553C47.4804 81.3393 47.5208 78.9185 47.7147 76.5077C47.8442 74.9081 48.0614 73.317 48.3653 71.7415C48.4632 71.1631 48.5726 70.7639 48.6244 70.4689C48.6244 70.3417 48.6705 70.2318 48.6878 70.1392C48.7019 70.1115 48.7135 70.0824 48.7223 70.0525V70.0525Z" fill="#2D2F34"/>
<path d="M48.7213 115.511V108.442C48.7213 108.442 48.6292 106.707 50.0917 107.066C51.5542 107.424 51.2778 110.183 51.2778 110.183C51.2778 110.183 51.5542 120.93 50.915 120.838C50.2759 120.745 50.0283 119.918 50.0283 119.918V115.788L48.7213 115.511Z" fill="#2D2F34"/>
<path d="M42.6127 115.95C45.1233 116.143 47.6448 116.143 50.1554 115.95C47.6448 115.757 45.1233 115.757 42.6127 115.95V115.95Z" fill="#2D2F34"/>
<path d="M28.7081 81.9276C28.9642 82.042 29.2277 82.1386 29.4969 82.2168C30.2128 82.4777 30.9126 82.7809 31.5928 83.1249C33.8237 84.2819 35.7587 85.9407 37.247 87.972C37.6699 88.5434 38.0417 89.1512 38.3582 89.7883C38.6348 90.3922 38.8583 91.0193 39.0261 91.6624C39.3167 92.7574 39.5094 93.8762 39.6019 95.0056C39.6825 95.9658 39.6998 96.7409 39.7056 97.3193C39.6847 97.6004 39.6847 97.8827 39.7056 98.1638C39.7674 97.8866 39.7982 97.6034 39.7977 97.3193C39.8373 96.5486 39.8373 95.7764 39.7977 95.0056C39.7409 93.8598 39.5712 92.7225 39.291 91.6103C39.1269 90.9493 38.9034 90.3046 38.6231 89.6842C38.294 89.029 37.9087 88.4038 37.4715 87.8159C35.9634 85.7414 33.9728 84.0693 31.6734 82.9456C30.9808 82.6108 30.2626 82.3322 29.5257 82.1126C29.2601 82.0234 28.9862 81.9613 28.7081 81.9276V81.9276Z" fill="#2D2F34"/>
<path d="M66.1505 162.05C66.1428 161.937 66.1428 161.823 66.1505 161.709C66.1505 161.466 66.2023 161.131 66.2426 160.726C66.329 159.846 66.4557 158.591 66.6169 157.018C66.9681 153.819 67.4575 149.313 68.0333 143.986L68.1542 144.142L55.1991 143.038L33.3194 141.1C31.1099 140.889 28.8871 141.329 26.9225 142.367C26.3921 142.65 25.8823 142.971 25.3966 143.327L25.0224 143.616C24.9824 143.651 24.9379 143.68 24.89 143.703C25.4796 143.132 26.1464 142.647 26.8706 142.262C28.8419 141.168 31.0931 140.689 33.3367 140.886L55.2452 142.737L68.2003 143.865H68.3385V144.004C67.7166 149.319 67.1869 153.837 66.8184 157.024L66.3578 160.72C66.306 161.131 66.2599 161.454 66.2311 161.697C66.2142 161.817 66.1872 161.935 66.1505 162.05V162.05Z" fill="#2D2F34"/>
<path d="M56.7831 162.53C56.7234 162.282 56.6887 162.028 56.6795 161.773C56.6334 161.281 56.5873 160.564 56.5528 159.679C56.386 155.067 56.7922 150.452 57.7619 145.941C57.9519 145.079 58.1189 144.385 58.2571 143.905C58.3085 143.654 58.3877 143.41 58.4932 143.176C58.4774 143.432 58.4369 143.686 58.3723 143.934C58.2629 144.478 58.1304 145.166 57.9692 145.982C57.6468 147.717 57.2668 150.123 57.0307 152.801C56.7946 155.479 56.7486 157.915 56.7601 159.673C56.7601 160.512 56.7889 161.212 56.7946 161.761C56.8182 162.017 56.8143 162.275 56.7831 162.53Z" fill="#2D2F34"/>
<path d="M61.7232 156.873C61.7232 156.873 61.8671 156.798 62.1493 156.798C62.5545 156.813 62.945 156.955 63.2663 157.203C63.5159 157.384 63.7166 157.625 63.8503 157.904C63.984 158.183 64.0465 158.491 64.0321 158.8C64.0115 159.181 63.8845 159.55 63.6656 159.863C63.4468 160.176 63.1448 160.421 62.7941 160.57C62.4347 160.694 62.0473 160.714 61.6771 160.626C61.307 160.538 60.9695 160.346 60.7041 160.072C60.485 159.848 60.3307 159.568 60.2577 159.262C60.1847 158.957 60.1957 158.637 60.2895 158.337C60.3911 157.941 60.6248 157.592 60.9516 157.348C61.0635 157.249 61.2015 157.185 61.3489 157.163C61.3489 157.192 61.2223 157.255 61.0265 157.435C60.7583 157.692 60.5737 158.024 60.4968 158.389C60.4312 158.648 60.4338 158.92 60.5045 159.177C60.5752 159.435 60.7114 159.669 60.8998 159.858C61.1297 160.089 61.4196 160.25 61.7363 160.322C62.0531 160.395 62.3838 160.376 62.6905 160.269C62.9875 160.139 63.2436 159.931 63.4313 159.666C63.619 159.401 63.7312 159.089 63.7557 158.765C63.7742 158.497 63.7279 158.229 63.6206 157.983C63.5133 157.737 63.3482 157.521 63.1396 157.354C62.8537 157.113 62.5068 156.957 62.1378 156.902C61.9992 156.9 61.8608 156.89 61.7232 156.873V156.873Z" fill="#2D2F34"/>
<path d="M54.1281 66.7787L53.9496 66.8886L53.3738 67.2067L51.2492 68.4156L43.0385 72.9794L29.2197 78.7983C26.3575 79.9529 23.9244 81.9747 22.2585 84.5825C21.3426 85.9748 20.6036 87.4769 20.059 89.0537C19.46 90.7043 19.0485 92.4176 18.8326 94.1611V94.1611C16.2762 105.151 13.3742 117.766 10.5586 131.18C9.98286 134.072 9.40708 136.918 8.83129 139.735C8.68735 140.441 8.5722 141.146 8.44553 141.846C8.31886 142.546 8.18642 143.24 8.10006 143.94C7.90301 145.319 7.8317 146.713 7.88702 148.105C7.98371 150.818 8.60562 153.486 9.718 155.96C10.2568 157.154 10.9499 158.273 11.7793 159.285C12.598 160.263 13.5705 161.099 14.6582 161.761C16.7771 163.036 19.2287 163.64 21.6943 163.496L28.6958 163.352C33.2099 163.242 37.4189 163.109 41.2594 162.976L59.4541 162.311L64.4 162.12L65.6898 162.079H66.1274L65.6898 162.114L64.4058 162.189L59.4598 162.432C55.1645 162.635 48.9518 162.912 41.2709 163.196C37.4304 163.34 33.2099 163.485 28.7015 163.606L21.6943 163.768C19.179 163.917 16.6774 163.302 14.5143 162.004C13.3996 161.326 12.4003 160.473 11.5547 159.476C10.7124 158.442 10.006 157.303 9.45315 156.087C8.32191 153.579 7.68825 150.873 7.58762 148.122C7.52942 146.713 7.60073 145.301 7.80066 143.905C7.88702 143.194 8.02521 142.5 8.14613 141.8C8.26704 141.1 8.38795 140.388 8.53189 139.689C9.06161 136.866 9.63739 134.008 10.2592 131.128C13.0748 117.72 15.9883 105.099 18.5678 94.1091C18.7816 92.3545 19.191 90.6296 19.7884 88.9669C20.3407 87.3715 21.0934 85.8534 22.0282 84.4494C23.7247 81.8065 26.2008 79.762 29.1103 78.6016L42.9637 72.8174L51.2089 68.3231L53.3853 67.1662L53.9611 66.8712L54.1281 66.7787Z" fill="#2D2F34"/>
<path d="M151.119 120.838L107.331 167.759L64.619 168.025L63.6057 166.076L105.707 120.254L151.119 120.838Z" fill="#2D2F34"/>
<path d="M109.732 120.254C109.732 120.254 112.576 120.254 113.422 121.249C114.407 122.44 116.301 125.124 112.167 131.955C110.52 134.691 102.442 144.102 99.12 153.744C96.0166 162.744 97.433 165.718 97.433 165.718L128.249 164.728L128.825 163.612C128.825 163.612 142.223 127.172 138.676 120.231C137.041 117.067 109.513 119.085 109.732 120.254Z" fill="#FAFAFC"/>
<path d="M133.368 163.803L100.22 164.081C99.8227 155.647 102.736 149.522 107.072 142.286C108.73 139.515 110.999 137.144 112.651 134.367C114.391 131.443 115.408 128.142 115.616 124.742C115.703 123.389 115.616 121.925 114.793 120.855C113.97 119.785 111.01 119.727 109.732 120.277C111.164 119.236 112.853 118.61 114.615 118.466C117.292 118.241 139.206 118.391 143.283 118.426C144.267 118.469 145.243 118.628 146.19 118.9C149.161 120.445 149.772 124.511 149.351 127.438C148.954 130.208 147.244 132.823 145.096 135.75C144.472 136.588 143.896 137.461 143.369 138.364C141.106 142.303 134.859 153.351 133.736 157.163C133.192 159.332 133.067 161.586 133.368 163.803V163.803Z" fill="#D1D3D7"/>
<path d="M133.368 163.734L125.388 163.797L110.141 163.924L103.738 163.982H101.596C101.198 164.026 100.797 164.026 100.399 163.982C100.37 163.982 100.237 163.982 100.22 163.982C100.203 163.982 100.266 163.363 100.26 163.294C100.26 163.005 100.26 162.716 100.26 162.421C100.26 161.854 100.278 161.287 100.312 160.72C100.448 158.553 100.822 156.407 101.429 154.323C102.661 150.123 104.775 146.225 107.009 142.511C108.235 140.464 109.755 138.63 111.16 136.727C112.516 134.925 113.613 132.941 114.419 130.833C115.209 128.737 115.654 126.525 115.737 124.285C115.778 122.851 115.57 120.884 114.068 120.236C113.38 119.968 112.646 119.838 111.909 119.855C111.419 119.855 110.285 119.791 109.864 120.132C109.744 120.225 109.807 120.259 109.893 120.236C109.964 120.199 110.03 120.152 110.089 120.098C110.314 119.947 110.55 119.803 110.786 119.675C111.592 119.237 112.454 118.912 113.348 118.709C115.133 118.31 117.068 118.426 118.887 118.409C124.564 118.362 130.247 118.409 135.93 118.409L142.488 118.449C143.52 118.443 144.551 118.542 145.563 118.744C147.29 119.108 148.442 120.861 148.949 122.452C149.487 124.187 149.586 126.03 149.236 127.814C148.799 130.075 147.561 132.1 146.277 133.974C145.125 135.663 143.922 137.294 142.897 139.075C142.195 140.319 141.492 141.557 140.796 142.806C139.131 145.791 137.496 148.799 135.976 151.87C134.669 154.502 133.408 157.111 133.207 160.095C133.115 161.334 133.155 162.579 133.328 163.809C133.328 163.901 133.483 163.861 133.466 163.768C133.032 160.758 133.461 157.686 134.704 154.913C136.005 151.934 137.548 149.053 139.097 146.202C140.51 143.599 141.953 141.015 143.427 138.451C145.575 134.72 149.029 131.463 149.507 126.975C149.801 124.17 149.156 120.034 146.225 118.779C145.206 118.426 144.13 118.268 143.053 118.31H140.657C135.078 118.275 129.493 118.247 123.914 118.252C121.507 118.252 119.1 118.252 116.693 118.299C114.511 118.339 112.421 118.553 110.475 119.693C110.208 119.844 109.952 120.014 109.709 120.202C109.657 120.242 109.709 120.346 109.784 120.323C111.058 119.879 112.441 119.859 113.728 120.265C115.455 120.844 115.657 122.926 115.588 124.517C115.39 128.329 114.177 132.019 112.075 135.2C111.051 136.762 109.864 138.214 108.753 139.718C107.708 141.155 106.747 142.651 105.874 144.2C104.201 147 102.804 149.959 101.706 153.033C100.509 156.586 99.9835 160.333 100.157 164.081C100.157 164.101 100.165 164.12 100.179 164.134C100.193 164.148 100.212 164.156 100.232 164.156L111.431 164.063L129.28 163.913L133.374 163.878C133.385 163.881 133.397 163.881 133.408 163.878C133.419 163.876 133.43 163.87 133.439 163.863C133.448 163.856 133.455 163.846 133.459 163.836C133.464 163.825 133.466 163.814 133.466 163.802C133.465 163.79 133.462 163.779 133.457 163.769C133.451 163.759 133.443 163.75 133.434 163.743C133.424 163.737 133.413 163.732 133.402 163.731C133.391 163.729 133.379 163.73 133.368 163.734V163.734Z" fill="#2D2F34"/>
<path d="M131.409 156.85C131.409 156.937 125.565 157.001 118.351 157.001C111.136 157.001 105.292 156.937 105.292 156.85C105.292 156.764 111.142 156.7 118.351 156.7C125.56 156.7 131.409 156.769 131.409 156.85Z" fill="#2D2F34"/>
<path d="M132.141 152.466C132.141 152.547 126.297 152.616 119.082 152.616C111.868 152.616 106.024 152.547 106.024 152.466C106.024 152.385 111.874 152.316 119.082 152.316C126.291 152.316 132.141 152.379 132.141 152.466Z" fill="#2D2F34"/>
<path d="M135.653 147.758C135.653 147.839 129.803 147.908 122.594 147.908C115.386 147.908 109.536 147.839 109.536 147.758C109.536 147.677 115.38 147.607 122.594 147.607C129.809 147.607 135.653 147.671 135.653 147.758Z" fill="#2D2F34"/>
<path d="M137.812 143.454C137.812 143.535 131.968 143.605 124.754 143.605C117.539 143.605 111.695 143.535 111.695 143.454C111.695 143.373 117.545 143.304 124.754 143.304C131.962 143.304 137.812 143.373 137.812 143.454Z" fill="#2D2F34"/>
<path d="M139.252 139.521C139.252 139.602 133.408 139.671 126.199 139.671C118.991 139.671 113.141 139.602 113.141 139.521C113.141 139.44 118.985 139.37 126.199 139.37C133.414 139.37 139.252 139.434 139.252 139.521Z" fill="#2D2F34"/>
<path d="M142.799 134.35C142.799 134.437 136.955 134.5 129.74 134.5C122.526 134.5 116.682 134.437 116.682 134.35C116.682 134.263 122.532 134.199 129.74 134.199C136.949 134.199 142.799 134.269 142.799 134.35Z" fill="#2D2F34"/>
<path d="M146.139 129.404C146.139 129.485 140.294 129.555 133.08 129.555C125.865 129.555 120.021 129.485 120.021 129.404C120.021 129.323 125.871 129.254 133.08 129.254C140.289 129.254 146.139 129.323 146.139 129.404Z" fill="#2D2F34"/>
<path d="M145.896 124.702C145.896 124.783 140.052 124.852 132.843 124.852C125.635 124.852 119.767 124.783 119.767 124.702C119.767 124.621 125.612 124.551 132.826 124.551C140.041 124.551 145.896 124.615 145.896 124.702Z" fill="#2D2F34"/>
<path d="M105.706 120.254C105.771 120.289 105.831 120.331 105.885 120.381L106.403 120.792L108.384 122.411L108.436 122.457L108.39 122.51C104.825 126.425 97.0985 134.795 88.1335 144.449C81.9496 151.257 75.9903 157.093 71.6777 161.298C69.5185 163.404 67.7624 165.087 66.5417 166.25L65.1253 167.58L64.751 167.916L64.6186 168.025C64.6186 168.025 64.6531 167.979 64.728 167.898L65.085 167.534L66.4611 166.163L71.5337 161.148C75.806 156.897 81.7308 151.055 87.9147 144.241C96.8797 134.587 104.653 126.263 108.292 122.417V122.515L106.346 120.844L105.85 120.41C105.797 120.363 105.749 120.311 105.706 120.254V120.254Z" fill="#5F646F"/>
<path d="M68.142 146.074H74.395C74.395 146.074 78.6213 142.373 79.5771 142.089C81.5866 141.482 86.7744 140.845 86.7744 140.845L83.2333 144.709C82.4099 145.6 80.9014 146.404 81.7938 146.404H88.3002C88.3002 146.404 94.9505 143.2 95.9408 143.784C96.7699 144.276 97.0578 145.166 96.2114 146.404C95.365 147.642 89.5324 150.569 88.8587 150.794L86.9529 151.373L88.7435 151.951L97.2248 148.972C97.7718 148.874 98.5376 148.781 98.7852 149.105C98.891 149.216 98.9739 149.347 99.029 149.49C99.084 149.633 99.1102 149.786 99.1059 149.939C99.1016 150.093 99.067 150.244 99.004 150.384C98.941 150.523 98.851 150.649 98.7391 150.754C97.5304 151.848 96.2492 152.859 94.9044 153.779C94.9044 153.779 96.2575 155.78 95.1347 156.793C94.0119 157.805 90.7645 160.841 90.7645 160.841C90.7645 160.841 90.4248 162.53 89.4172 163.317C88.4096 164.104 77.3258 164.104 76.5254 164.104C75.7251 164.104 71.257 161.518 71.257 161.518L66.3917 161.154L68.142 146.074Z" fill="#B78876"/>
<path d="M87.4772 156.972C87.8687 157.101 88.2804 157.158 88.6921 157.139C89.1443 157.143 89.5932 157.062 90.0164 156.902C90.5247 156.7 91.0093 156.442 91.4616 156.133C92.4232 155.503 93.2811 154.924 93.8972 154.49C94.2461 154.28 94.5705 154.032 94.8645 153.75C94.4902 153.905 94.1332 154.098 93.7993 154.328C93.1544 154.716 92.2793 155.277 91.3177 155.902C90.8822 156.203 90.4172 156.459 89.9301 156.665C89.5336 156.826 89.1133 156.92 88.6864 156.943C87.9494 156.983 87.4772 156.931 87.4772 156.972Z" fill="#AA6550"/>
<path d="M86.9486 161.142C87.1645 161.398 87.4651 161.566 87.795 161.617C88.583 161.794 89.4087 161.657 90.0981 161.235C90.7722 160.85 91.3968 160.384 91.9579 159.847C92.384 159.436 92.6143 159.147 92.5855 159.124C91.7474 159.796 90.8749 160.423 89.9715 161.004C89.3358 161.394 88.5838 161.547 87.8468 161.437C87.5387 161.368 87.2379 161.269 86.9486 161.142V161.142Z" fill="#AA6550"/>
<path d="M83.827 151.916C84.4158 151.988 85.0128 151.941 85.5832 151.778C86.1711 151.7 86.7371 151.503 87.2472 151.199C86.6629 151.252 86.0847 151.358 85.5198 151.517C84.9439 151.594 84.3769 151.728 83.827 151.916Z" fill="#AA6550"/>
<path d="M41.4035 26.6479C40.5861 25.1803 39.4865 23.8905 38.1686 22.8536C36.8507 21.8166 35.3408 21.0532 33.7267 20.6076C32.1125 20.1619 30.4263 20.043 28.766 20.2578C27.1056 20.4726 25.5044 21.0167 24.0552 21.8585C21.5736 23.3046 19.5065 25.9075 19.6735 28.7996C19.829 31.5182 21.8442 33.7104 23.7443 35.6481C20.7157 36.9148 19.2014 40.7671 20.1917 43.9022C21.1821 47.0372 24.3028 49.2525 27.5617 49.5533C30.8207 49.8541 34.1084 48.4312 36.4633 46.1406C38.7677 43.7753 40.3775 40.817 41.1156 37.5916" fill="#2D2F34"/>
<path d="M31.0616 33.6583C30.5355 33.8891 29.9753 34.0317 29.4033 34.0806C27.8303 34.2312 26.2488 33.9005 24.8662 33.132C23.9058 32.6134 23.0612 31.9028 22.3846 31.0439C21.6099 30.0476 21.09 28.8759 20.8703 27.6312C20.6197 26.2084 20.7043 24.7464 21.1173 23.3623C21.5302 21.9782 22.26 20.7104 23.2482 19.6606C24.2646 18.644 25.4808 17.8516 26.8192 17.3337C28.1576 16.8158 29.5887 16.5839 31.0213 16.6528C33.3843 16.7002 35.6439 17.635 37.3549 19.273C38.4869 20.3969 39.1534 21.9096 39.2204 23.5071C39.2343 23.9347 39.1937 24.3623 39.0995 24.7796C39.0707 24.9242 39.0247 25.0283 39.0074 25.0977C38.9901 25.1671 38.9671 25.2018 38.9613 25.2018C39.0764 24.6447 39.1247 24.0757 39.1053 23.5071C38.9924 21.9577 38.3161 20.5042 37.2052 19.4234C35.5218 17.8526 33.3186 16.9644 31.0213 16.9304C29.6294 16.871 28.2404 17.1014 26.9413 17.6071C25.6423 18.1127 24.4614 18.8828 23.4728 19.8688C22.5198 20.8876 21.8156 22.115 21.4159 23.4542C21.0162 24.7933 20.9319 26.2074 21.1697 27.5849C21.3718 28.787 21.8641 29.921 22.6034 30.8877C23.4035 31.9069 24.4357 32.7179 25.6131 33.2524C26.7906 33.787 28.0786 34.0293 29.3688 33.9591C29.9393 33.8983 30.5049 33.7978 31.0616 33.6583V33.6583Z" fill="#2D2F34"/>
<path d="M34.7815 36.1803C34.6613 36.2829 34.5276 36.3686 34.3842 36.4348C34.0168 36.6445 33.6314 36.8206 33.2327 36.9611C32.6347 37.1745 32.0177 37.3295 31.3902 37.4239C30.6177 37.5309 29.8363 37.558 29.0582 37.5049C28.2772 37.4445 27.5049 37.299 26.7551 37.071C26.148 36.8822 25.5601 36.6363 24.999 36.3365C24.6216 36.1354 24.2615 35.9032 23.9223 35.6423C23.6862 35.4515 23.5653 35.3416 23.5768 35.3242C23.5883 35.3069 24.1526 35.6828 25.0969 36.1456C25.6536 36.4127 26.2314 36.6332 26.8242 36.805C28.2869 37.2223 29.8184 37.3384 31.3268 37.1462C31.9409 37.0668 32.5474 36.9372 33.1405 36.7587C34.1654 36.4463 34.7527 36.1282 34.7815 36.1803Z" fill="#5F646F"/>
<path d="M19.6624 29.3086C19.7039 29.0669 19.7815 28.8329 19.8927 28.6145C20.159 27.9907 20.5791 27.4452 21.1133 27.0296C21.9498 26.4735 22.9164 26.1465 23.9174 26.081C25.1231 25.9805 26.3368 26.0388 27.5275 26.2546C29.69 26.6044 31.7761 27.3265 33.6942 28.3889C34.2723 28.7106 34.8299 29.0679 35.3639 29.459C35.5746 29.5881 35.7681 29.7436 35.9397 29.9217C35.7169 29.8233 35.5063 29.699 35.3121 29.5516C34.9148 29.3086 34.339 28.9731 33.5848 28.5798C31.6649 27.5855 29.6015 26.9004 27.47 26.5496C26.3057 26.3405 25.1203 26.2764 23.9404 26.3587C22.9819 26.4066 22.051 26.6971 21.2342 27.2032C20.7095 27.5828 20.2846 28.0851 19.9963 28.6666C19.8958 28.8861 19.7843 29.1004 19.6624 29.3086V29.3086Z" fill="#5F646F"/>
<path d="M37.2464 40.9117C37.2464 40.9117 37.2464 40.9811 37.1658 41.1083C37.0852 41.2356 36.993 41.4033 36.8548 41.6289C36.4391 42.2509 35.9521 42.8216 35.4039 43.3295C34.5858 44.0827 33.6477 44.6928 32.6286 45.1342C31.372 45.6745 30.0167 45.9444 28.65 45.9266C27.2845 45.9223 25.9357 45.6245 24.6943 45.0532C23.6817 44.578 22.7898 43.8778 22.086 43.0056C21.6133 42.415 21.284 41.7218 21.1245 40.9811C21.0807 40.7814 21.0556 40.5781 21.0496 40.3737C21.0496 40.2349 21.0496 40.1655 21.0496 40.1655C21.0496 40.1655 21.0842 40.4547 21.2224 40.9522C21.4236 41.6573 21.7709 42.3117 22.2415 42.8725C22.9436 43.6957 23.8161 44.355 24.798 44.8044C26.0092 45.3442 27.3192 45.624 28.6442 45.6258C29.9688 45.6404 31.2829 45.3866 32.5077 44.8796C33.5089 44.4544 34.4346 43.8683 35.2484 43.1444C35.9921 42.4742 36.6619 41.7257 37.2464 40.9117V40.9117Z" fill="#5F646F"/>
<path d="M38.3468 43.9195C38.1602 44.1954 37.9481 44.453 37.7134 44.6888C37.2873 45.1631 36.654 45.8457 35.8133 46.615C35.393 47.0025 34.9151 47.4132 34.3854 47.8297C32.5421 49.3898 30.1608 50.1567 27.7581 49.964C26.0842 49.916 24.4648 49.3549 23.1173 48.356C22.0603 47.4983 21.2248 46.3971 20.6818 45.1458C20.3089 44.3116 20.0923 43.4155 20.0426 42.5024C20.0261 42.254 20.0261 42.0047 20.0426 41.7562C20.0466 41.6702 20.0601 41.5848 20.083 41.5017C20.0956 41.588 20.0956 41.6757 20.083 41.762C20.0799 42.0056 20.0934 42.2491 20.1233 42.4908C20.2107 43.3814 20.4502 44.2502 20.8315 45.059C21.387 46.2606 22.2153 47.3145 23.2498 48.1362C24.5589 49.0849 26.1215 49.6169 27.7351 49.6633C29.3466 49.7591 30.9567 49.4531 32.422 48.7725C33.0519 48.4506 33.6464 48.0628 34.1954 47.6156C34.7251 47.2107 35.203 46.8116 35.6291 46.4588C36.4812 45.7126 37.1376 45.0648 37.5925 44.6136C37.8301 44.3676 38.082 44.1358 38.3468 43.9195V43.9195Z" fill="#5F646F"/>
<path d="M43.1889 26.3009L44.0296 26.966C43.6899 25.5316 42.0892 24.6524 40.6267 24.7796C39.8986 24.8953 39.2056 25.1737 38.5987 25.5941C37.9919 26.0145 37.4866 26.5664 37.1202 27.209C36.397 28.5014 35.9187 29.9175 35.7095 31.3852C35.2604 33.8145 35.0359 36.4059 35.9974 38.6733C36.959 40.9407 39.4521 42.7222 41.8243 42.1438C44.1966 41.5654 45.5266 38.9567 45.8836 36.5273C46.1353 34.7284 46.0266 32.897 45.5639 31.1408C45.1011 29.3847 44.2937 27.7391 43.1889 26.3009V26.3009Z" fill="#F28080"/>
<path d="M39.8902 37.3024C39.198 37.7185 38.3883 37.8934 37.587 37.7998C37.027 37.7739 36.4757 37.6506 35.9576 37.4354C35.5373 37.2677 35.3818 36.9495 35.4624 36.9438C35.6371 37.0728 35.8316 37.1725 36.0382 37.2387C36.5509 37.3838 37.0781 37.4711 37.6101 37.499C38.3737 37.4869 39.1356 37.4212 39.8902 37.3024V37.3024Z" fill="#2D2F34"/>
<path d="M41.058 33.0106C40.1421 33.1362 39.215 33.1575 38.2943 33.0742C37.371 33.0977 36.4479 33.0181 35.5421 32.837C36.4585 32.7183 37.3849 32.697 38.3058 32.7734C39.2289 32.7568 40.1512 32.8363 41.058 33.0106V33.0106Z" fill="#2D2F34"/>
<path d="M40.1365 28.4236C40.1365 28.5219 39.2843 28.4236 38.2824 28.3079C37.8588 28.272 37.4322 28.2973 37.0157 28.3831C36.699 28.4525 36.509 28.5335 36.486 28.493C36.463 28.4525 36.6242 28.3079 36.9524 28.1749C37.3847 28.024 37.8439 27.9669 38.2997 28.0071C38.9328 28.0268 39.5563 28.1682 40.1365 28.4236V28.4236Z" fill="#2D2F34"/>
<path d="M45.9871 16.8205C45.918 14.4027 48.152 12.5286 50.3976 11.6147C52.6431 10.7008 55.1363 10.3942 57.14 9.04073C58.9134 7.8434 60.1053 5.9751 61.6023 4.44229C63.4538 2.5571 65.7712 1.20081 68.3169 0.512634C70.8625 -0.17554 73.5445 -0.170806 76.0877 0.526345C78.6309 1.2235 80.9436 2.58795 82.7885 4.47966C84.6333 6.37137 85.9438 8.72218 86.5855 11.2908C87.4492 14.7613 86.8619 18.8103 84.1557 21.1239C81.0119 23.7847 76.3481 23.1947 72.3234 22.3675C68.2987 21.5404 63.7385 20.719 60.3759 23.0963C58.3491 24.5308 57.1861 26.8619 55.9424 29.0194C54.6987 31.1769 53.1498 33.3749 50.8064 34.1847C48.463 34.9945 45.2789 33.6063 45.1868 31.1075" fill="#2D2F34"/>
<path d="M46.1491 18.151C46.414 20.187 44.9515 22.0032 43.4947 23.4377C42.038 24.8722 40.397 26.3935 40.1379 28.4237C39.8385 30.801 41.5601 33.1378 41.0592 35.4747C40.7425 36.9612 39.5967 38.1065 38.9 39.4542C37.9682 41.3968 37.8136 43.6244 38.4681 45.678C39.0439 47.7256 40.0228 52.2951 41.4392 53.8858C45.3545 58.2818 51.5845 62.0762 57.3077 63.395C63.031 64.7138 68.9731 64.7254 74.8345 64.361C79.6308 64.066 85.1468 64.2858 89.1485 57.6571C91.2156 54.2213 92.2462 49.6575 93.3459 45.7995C94.2902 42.4735 95.1136 38.9163 94.1232 35.6019C93.5475 33.67 92.3959 31.9579 91.8201 30.0259C91.1119 27.6139 91.371 25.0284 91.0831 22.5065C90.7742 19.788 89.8239 17.1829 88.311 14.9076C86.7982 12.6324 84.7666 10.7528 82.3851 9.42505C80.0036 8.09732 77.3411 7.35983 74.6188 7.27389C71.8965 7.18795 69.1931 7.75604 66.7333 8.93094" fill="#2D2F34"/>
<path d="M54.3067 73.3381C54.3067 73.3381 54.3067 73.4827 54.3355 73.5521L54.3067 73.3381Z" fill="#B78876"/>
<path d="M88.8017 26.4859C88.3526 19.5738 83.7694 11.0942 76.9118 11.8403L55.4985 17.3295C54.494 17.438 53.5667 17.9215 52.9003 18.6842C52.2338 19.4469 51.8768 20.4333 51.8999 21.4479L54.249 72.1811C54.2821 73.0431 54.4774 73.891 54.8248 74.6799C56.414 78.1967 61.6997 87.1449 73.1693 83.524C75.9791 82.639 77.2631 79.5502 77.8158 76.3805C77.8158 76.0045 77.9713 75.669 77.977 75.3104C78.2533 72.9446 78.2823 70.5562 78.0634 68.1843C78.1037 63.9965 78.0979 62.2786 78.0979 62.3191C78.0979 62.3596 86.8901 60.8325 88.6923 49.2988C89.6078 43.5667 89.2969 34.1673 88.8017 26.4859Z" fill="#B78876"/>
<path d="M85.353 34.0054C85.3577 34.3907 85.2122 34.7626 84.9475 35.0415C84.6827 35.3204 84.3199 35.4842 83.9365 35.4977C83.7492 35.5135 83.5606 35.4913 83.382 35.4325C83.2033 35.3737 83.0382 35.2795 82.8965 35.1554C82.7547 35.0314 82.6392 34.88 82.5568 34.7103C82.4743 34.5406 82.4266 34.3559 82.4165 34.1674C82.4117 33.783 82.5565 33.4119 82.8199 33.1332C83.0834 32.8545 83.4448 32.6901 83.8271 32.675C84.0148 32.6593 84.2037 32.6814 84.3826 32.7401C84.5616 32.7989 84.7271 32.893 84.8693 33.017C85.0115 33.141 85.1276 33.2923 85.2106 33.4621C85.2937 33.6318 85.3421 33.8166 85.353 34.0054V34.0054Z" fill="#2D2F34"/>
<path d="M86.7802 31.3793C86.596 31.5702 85.4789 30.743 83.9013 30.7488C82.3236 30.7546 81.1606 31.5586 80.9878 31.362C80.9015 31.2752 81.0915 30.9281 81.5924 30.5579C82.2768 30.0803 83.091 29.8259 83.9243 29.8291C84.7511 29.8224 85.5582 30.0819 86.2275 30.5695C86.7054 30.9397 86.8723 31.2925 86.7802 31.3793Z" fill="#2D2F34"/>
<path d="M69.6748 34.0054C69.681 34.3902 69.5368 34.7621 69.273 35.0411C69.0092 35.3202 68.6469 35.4841 68.2641 35.4977C68.0768 35.5135 67.8882 35.4913 67.7095 35.4325C67.5309 35.3737 67.3658 35.2795 67.224 35.1554C67.0823 35.0314 66.9668 34.88 66.8843 34.7103C66.8019 34.5406 66.7542 34.3559 66.744 34.1674C66.7378 33.7826 66.882 33.4107 67.1458 33.1316C67.4096 32.8526 67.7718 32.6886 68.1547 32.675C68.342 32.6593 68.5306 32.6814 68.7093 32.7402C68.8879 32.799 69.053 32.8933 69.1948 33.0173C69.3365 33.1414 69.452 33.2927 69.5345 33.4625C69.6169 33.6322 69.6646 33.8168 69.6748 34.0054V34.0054Z" fill="#2D2F34"/>
<path d="M71.2114 31.6917C71.0271 31.8826 69.9101 31.0555 68.3324 31.067C66.7548 31.0786 65.5917 31.871 65.419 31.6802C65.3326 31.5934 65.5168 31.2406 65.9947 30.8704C66.6809 30.3919 67.4972 30.1375 68.3324 30.1416C69.1588 30.1372 69.9652 30.3965 70.6356 30.8819C71.1365 31.2753 71.3035 31.6223 71.2114 31.6917Z" fill="#2D2F34"/>
<path d="M76.9866 43.4973C76.9866 43.4047 77.9654 43.2312 79.5603 43.023C79.9634 42.9825 80.3434 42.9015 80.4125 42.6239C80.4449 42.2046 80.3506 41.7853 80.1419 41.4208C79.7561 40.4374 79.3588 39.4079 78.9385 38.3262C77.2687 33.9244 76.0596 30.3093 76.2323 30.2283C76.405 30.1473 77.9078 33.6988 79.5776 38.0775C79.9807 39.1649 80.3645 40.2022 80.7292 41.1894C80.9868 41.6771 81.0624 42.2413 80.9422 42.78C80.8831 42.9208 80.7927 43.0462 80.6779 43.1464C80.5632 43.2467 80.4271 43.3192 80.2801 43.3585C80.0569 43.4212 79.8266 43.4543 79.5949 43.4568C77.9884 43.5783 76.9923 43.584 76.9866 43.4973Z" fill="#2D2F34"/>
<path d="M78.1215 62.3479C72.7227 62.4298 67.4071 61.0062 62.7654 58.2354C62.7654 58.2354 66.6462 66.2118 78.133 65.107L78.1215 62.3479Z" fill="#AA6550"/>
<path d="M76.3236 47.309C76.0196 46.9303 75.6254 46.6347 75.1776 46.4497C74.7297 46.2647 74.2426 46.1962 73.7614 46.2504C73.4125 46.2835 73.0737 46.3865 72.7651 46.5534C72.4565 46.7203 72.1844 46.9477 71.9649 47.2222C71.7546 47.4883 71.6302 47.8127 71.6086 48.1518C71.587 48.4909 71.6691 48.8285 71.844 49.1194C72.0998 49.4038 72.4338 49.6057 72.8038 49.6994C73.1738 49.7931 73.5631 49.7744 73.9226 49.6458C74.6691 49.3755 75.3558 48.9608 75.9436 48.4253C76.123 48.2985 76.2756 48.1373 76.3927 47.951C76.4496 47.8654 76.48 47.7647 76.48 47.6618C76.48 47.5588 76.4496 47.4582 76.3927 47.3726" fill="#AA6550"/>
<path d="M72.3291 44.6078C72.5882 44.6078 72.594 46.3431 74.0565 47.5404C75.519 48.7378 77.3615 48.57 77.373 48.813C77.373 48.9171 76.9642 49.1485 76.1926 49.1716C75.1848 49.1888 74.2035 48.8466 73.4231 48.2056C72.6727 47.5936 72.1893 46.7117 72.0758 45.7473C72.0182 45.0243 72.2082 44.5963 72.3291 44.6078Z" fill="#2D2F34"/>
<path d="M71.9199 28.921C71.7644 29.3548 70.1925 29.1524 68.327 29.3837C66.4614 29.6151 64.9644 30.1241 64.7168 29.7366C64.6074 29.5515 64.8665 29.1582 65.4711 28.7243C66.2784 28.2084 67.1921 27.884 68.1429 27.7757C69.0937 27.6675 70.0565 27.7783 70.9583 28.0996C71.6435 28.3773 71.9774 28.7128 71.9199 28.921Z" fill="#2D2F34"/>
<path d="M86.1877 26.7751C85.9113 27.1337 84.8173 26.7751 83.5045 26.7751C82.1917 26.7751 81.0862 27.0238 80.8271 26.6478C80.712 26.4627 80.8905 26.1041 81.3741 25.757C82.0254 25.3459 82.7837 25.1385 83.5526 25.1612C84.3214 25.1838 85.0663 25.4355 85.6925 25.8843C86.1589 26.2256 86.3086 26.5958 86.1877 26.7751Z" fill="#2D2F34"/>
<path d="M47.4894 55.2508C49.0726 55.567 50.708 55.5008 52.2606 55.0574C53.8133 54.614 55.2389 53.8062 56.4198 52.7007C57.6008 51.5951 58.5032 50.2235 59.0528 48.6987C59.6024 47.174 59.7833 45.5399 59.5808 43.9311C59.2238 41.1026 57.7038 38.2163 58.6826 35.5382C59.9723 31.9983 64.9183 30.9109 66.2311 27.3709C66.9969 25.3118 66.3117 22.9113 67.1754 20.8984C67.9872 19.0012 69.9679 17.9138 71.9025 17.2081C73.8372 16.5024 75.9042 16.0513 77.5222 14.7614C79.1401 13.4715 80.1535 11.1058 79.1113 9.33C70.5387 10.362 62.119 12.4164 54.0303 15.4497C52.159 16.1554 50.1898 16.9999 49.0843 18.6715C47.9327 20.4415 47.9673 22.7204 48.0652 24.849C48.545 35.2028 49.0248 45.5565 49.5046 55.9102" fill="#2D2F34"/>
<path d="M48.2096 59.2187C48.141 59.1872 48.077 59.1463 48.0196 59.0972L47.5129 58.7097C47.0695 58.3569 46.4131 57.8421 45.6128 57.1248C44.6224 56.2649 43.7179 55.3098 42.9124 54.2732C41.8134 52.895 41.0751 51.2625 40.7647 49.5244C40.5438 48.4671 40.562 47.3735 40.8181 46.3243C41.0742 45.2751 41.5617 44.2971 42.2445 43.4625C43.0756 42.6225 43.9708 41.8489 44.9219 41.1489C45.8756 40.4175 46.5993 39.4254 47.0062 38.2915C47.8526 35.9373 47.4783 33.2187 47.8065 30.4365C48.1298 27.5339 49.2569 24.7804 51.0597 22.489C51.9892 21.3311 53.148 20.3797 54.4626 19.6952C55.7571 19.1071 57.1075 18.6517 58.493 18.3359C59.7769 18.0153 60.9781 17.4237 62.0169 16.6007C62.9971 15.7793 63.8594 14.8255 64.5791 13.7664C66.0185 11.713 67.0837 9.52081 68.4599 7.69301C69.108 6.79484 69.8685 5.98417 70.7227 5.28099C71.5213 4.63554 72.4279 4.13805 73.4001 3.8118C74.2317 3.49505 75.1252 3.37617 76.0103 3.46448C76.8954 3.55279 77.7481 3.8459 78.5015 4.32081C79.0326 4.73555 79.4689 5.26003 79.7808 5.85877C80.0927 6.45751 80.273 7.11655 80.3094 7.79134C80.378 8.64217 80.132 9.48854 79.6185 10.1686C79.4852 10.3389 79.3282 10.489 79.1521 10.614C79.037 10.7066 78.9736 10.7471 78.9679 10.7355C78.9621 10.7239 79.0139 10.6777 79.1176 10.5793C79.2761 10.4387 79.4172 10.2794 79.5379 10.105C80.0006 9.42845 80.205 8.60703 80.1137 7.79134C80.0561 7.1563 79.8658 6.54061 79.5552 5.98446C79.2447 5.42831 78.8209 4.94421 78.3115 4.56375C77.5935 4.12769 76.7847 3.86472 75.9485 3.79548C75.1123 3.72623 74.2716 3.85259 73.4922 4.16464C72.5653 4.48729 71.702 4.97085 70.9415 5.59334C70.1238 6.29399 69.3965 7.09456 68.7765 7.97643C67.4465 9.77532 66.3985 11.9617 64.9418 14.073C64.2016 15.1697 63.3142 16.1585 62.3047 17.0114C61.2201 17.8812 59.9641 18.5101 58.6197 18.8565C57.2699 19.17 55.9545 19.6175 54.6929 20.1927C53.4391 20.8473 52.3335 21.7551 51.4455 22.8592C49.7081 25.0752 48.6177 27.7326 48.296 30.5348C47.962 33.2245 48.3478 35.9893 47.4438 38.4881C46.9991 39.6933 46.2223 40.7466 45.204 41.5248C44.2671 42.1998 43.3818 42.9441 42.5554 43.7517C41.9079 44.5393 41.4428 45.4617 41.1938 46.4521C40.9449 47.4425 40.9183 48.4761 41.1159 49.4781C41.405 51.1627 42.0987 52.7511 43.1369 54.1055C43.917 55.1454 44.788 56.1133 45.7395 56.9976C46.5225 57.7264 47.1559 58.2701 47.5762 58.6461C47.8023 58.8196 48.0141 59.011 48.2096 59.2187V59.2187Z" fill="#5F646F"/>
<path d="M94.7903 41.1893C95.0976 40.8799 95.3266 40.5011 95.4582 40.0845C95.5897 39.5057 95.5992 38.9056 95.4862 38.3229C95.3732 37.7401 95.14 37.1876 94.8018 36.7007C94.4045 36.0587 93.869 35.4224 93.3278 34.6994C92.7103 33.9429 92.259 33.0637 92.0035 32.1197C91.7729 31.0694 91.7301 29.9863 91.8768 28.921C91.9977 27.8162 92.2165 26.6941 92.3605 25.5488C92.6429 23.387 92.3857 21.1886 91.612 19.1515C90.9832 17.4876 90.0519 15.9557 88.8655 14.634C88.0671 13.7414 87.1508 12.963 86.142 12.3203C85.4281 11.8634 84.9905 11.6551 84.9905 11.632C85.1013 11.6599 85.2078 11.7027 85.3072 11.7592C85.6061 11.8956 85.8964 12.0501 86.1766 12.222C87.2233 12.8361 88.1739 13.6021 88.9979 14.4952C90.2297 15.8193 91.1972 17.3686 91.848 19.0589C92.6532 21.1345 92.9245 23.3805 92.6369 25.5893C92.4929 26.7461 92.2684 27.874 92.1474 28.9557C91.9984 29.989 92.0334 31.0408 92.2511 32.0618C92.4903 32.9711 92.9159 33.8202 93.5005 34.5548C94.0303 35.2778 94.5657 35.9314 94.963 36.5966C95.3067 37.1093 95.536 37.6905 95.6354 38.3005C95.7347 38.9105 95.7018 39.5348 95.5388 40.1308C95.4327 40.4488 95.2577 40.7392 95.0264 40.9811C94.9573 41.0607 94.8779 41.1307 94.7903 41.1893V41.1893Z" fill="#2D2F34"/>
</g>
</svg>
